<?xml version="1.0" encoding="UTF-8" standalone="no"?>
<!-- Created with Inkscape (http://www.inkscape.org/) -->

<svg
   version="1.0"
   width="128"
   height="128"
   id="svg2250"
   sodipodi:version="0.32"
   inkscape:version="1.1 (c4e8f9ed74, 2021-05-24)"
   sodipodi:docname="applications-all.svgz"
   inkscape:output_extension="org.inkscape.output.svg.inkscape"
   inkscape:export-filename="/home/nuno/media/server/svnserver/oxygen-icons5/48x48/categories/applications-all.png"
   inkscape:export-xdpi="36"
   inkscape:export-ydpi="36"
   xmlns:inkscape="http://www.inkscape.org/namespaces/inkscape"
   xmlns:sodipodi="http://sodipodi.sourceforge.net/DTD/sodipodi-0.dtd"
   xmlns:xlink="http://www.w3.org/1999/xlink"
   xmlns="http://www.w3.org/2000/svg"
   xmlns:svg="http://www.w3.org/2000/svg"
   xmlns:rdf="http://www.w3.org/1999/02/22-rdf-syntax-ns#"
   xmlns:cc="http://creativecommons.org/ns#"
   xmlns:dc="http://purl.org/dc/elements/1.1/">
  <metadata
     id="metadata89">
    <rdf:RDF>
      <cc:Work
         rdf:about="">
        <dc:format>image/svg+xml</dc:format>
        <dc:type
           rdf:resource="http://purl.org/dc/dcmitype/StillImage" />
      </cc:Work>
    </rdf:RDF>
  </metadata>
  <sodipodi:namedview
     inkscape:window-height="927"
     inkscape:window-width="1619"
     inkscape:pageshadow="2"
     inkscape:pageopacity="0.0"
     guidetolerance="10.0"
     gridtolerance="10.0"
     objecttolerance="10.0"
     borderopacity="1.0"
     bordercolor="#666666"
     pagecolor="#ffffff"
     id="base"
     inkscape:zoom="4"
     inkscape:cx="135.75"
     inkscape:cy="108.625"
     inkscape:window-x="2888"
     inkscape:window-y="387"
     inkscape:current-layer="svg2250"
     inkscape:pagecheckerboard="0"
     showgrid="true"
     inkscape:snap-bbox="true"
     inkscape:bbox-paths="true"
     inkscape:bbox-nodes="true"
     showguides="true"
     inkscape:window-maximized="0"
     inkscape:snap-global="true"
     inkscape:guide-bbox="true">
    <inkscape:grid
       type="xygrid"
       id="grid10373"
       spacingx="2.66667"
       spacingy="2.66667" />
  </sodipodi:namedview>
  <defs
     id="defs2252">
    <linearGradient
       inkscape:collect="always"
       id="linearGradient46670">
      <stop
         style="stop-color:#000000;stop-opacity:1;"
         offset="0"
         id="stop46666" />
      <stop
         style="stop-color:#000000;stop-opacity:0.95294118;"
         offset="0.40000001"
         id="stop46757" />
      <stop
         style="stop-color:#000000;stop-opacity:0;"
         offset="1"
         id="stop46668" />
    </linearGradient>
    <linearGradient
       inkscape:collect="always"
       id="linearGradient43046">
      <stop
         style="stop-color:#d5d5d5;stop-opacity:1;"
         offset="0"
         id="stop43040" />
      <stop
         style="stop-color:#c3c3c3;stop-opacity:1"
         offset="0.27487531"
         id="stop43042" />
      <stop
         style="stop-color:#ffffff;stop-opacity:1"
         offset="1"
         id="stop43044" />
    </linearGradient>
    <linearGradient
       inkscape:collect="always"
       id="linearGradient42106">
      <stop
         style="stop-color:#d5d5d5;stop-opacity:1;"
         offset="0"
         id="stop42102" />
      <stop
         style="stop-color:#cfcfcf;stop-opacity:1"
         offset="0.27487531"
         id="stop42212" />
      <stop
         style="stop-color:#ffffff;stop-opacity:1"
         offset="1"
         id="stop42104" />
    </linearGradient>
    <linearGradient
       inkscape:collect="always"
       id="linearGradient36836">
      <stop
         style="stop-color:#6193ff;stop-opacity:1;"
         offset="0"
         id="stop36832" />
      <stop
         style="stop-color:#6193ff;stop-opacity:0;"
         offset="1"
         id="stop36834" />
    </linearGradient>
    <linearGradient
       inkscape:collect="always"
       id="linearGradient19125">
      <stop
         style="stop-color:#033888;stop-opacity:1;"
         offset="0"
         id="stop19121" />
      <stop
         style="stop-color:#033888;stop-opacity:0;"
         offset="1"
         id="stop19123" />
    </linearGradient>
    <radialGradient
       cx="69.600098"
       cy="68.399902"
       r="85"
       id="radialGradient4845"
       gradientUnits="userSpaceOnUse"
       gradientTransform="translate(1047.3429,-330.17143)">
      <stop
         style="stop-color:#6193ff;stop-opacity:1"
         offset="0.5"
         id="stop4839" />
      <stop
         style="stop-color:#0f4eae;stop-opacity:1"
         offset="0.78109998"
         id="stop4841" />
      <stop
         style="stop-color:#1d64ff;stop-opacity:1"
         offset="1"
         id="stop4843" />
    </radialGradient>
    <radialGradient
       cx="76.764198"
       cy="58.0625"
       r="66.164497"
       id="XMLID_27_"
       gradientUnits="userSpaceOnUse"
       gradientTransform="matrix(0.9397,0,0,0.9397,4.2153,4.1331)">
      <stop
         style="stop-color:#ffffff;stop-opacity:1"
         offset="0"
         id="stop107" />
      <stop
         style="stop-color:#fdfdfc;stop-opacity:1"
         offset="0.32780001"
         id="stop109" />
      <stop
         style="stop-color:#f4f5f4;stop-opacity:1"
         offset="0.6773591"
         id="stop111" />
      <stop
         style="stop-color:#cacfd0;stop-opacity:1;"
         offset="1"
         id="stop113" />
    </radialGradient>
    <radialGradient
       cx="110.74259"
       cy="123.17536"
       r="81.292717"
       fx="110.74259"
       fy="123.17536"
       id="radialGradient5096"
       xlink:href="#XMLID_27_"
       gradientUnits="userSpaceOnUse"
       gradientTransform="matrix(1.0727282,0,0,-0.7852748,-88.140453,159.47421)" />
    <linearGradient
       x1="9.5995998"
       y1="68.399902"
       x2="129.6001"
       y2="68.399902"
       id="linearGradient3215"
       gradientUnits="userSpaceOnUse"
       gradientTransform="matrix(-1,-4.371139e-8,4.371139e-8,-1,139.2007,136.8)">
      <stop
         style="stop-color:#2451b1;stop-opacity:1"
         offset="0"
         id="stop3221" />
      <stop
         style="stop-color:#c5d1fb;stop-opacity:0"
         offset="0.5"
         id="stop3227" />
      <stop
         style="stop-color:#7ab4ff;stop-opacity:1"
         offset="1"
         id="stop3233" />
    </linearGradient>
    <linearGradient
       x1="193.5"
       y1="6.7293491"
       x2="193.5"
       y2="155.16769"
       id="linearGradient3213"
       xlink:href="#linearGradient3215"
       gradientUnits="userSpaceOnUse" />
    <radialGradient
       cx="66.136703"
       cy="0.75440001"
       r="81.971497"
       id="XMLID_25_"
       gradientUnits="userSpaceOnUse"
       gradientTransform="matrix(0.9459,0,0,1,1051.1319,-330.17143)">
      <stop
         style="stop-color:#ffffff;stop-opacity:1;"
         offset="0.1302"
         id="stop95" />
      <stop
         style="stop-color:#ffffff;stop-opacity:0.16862746;"
         offset="0.5"
         id="stop97" />
    </radialGradient>
    <filter
       x="-0.37061214"
       width="1.7412243"
       y="-0.07284314"
       height="1.1456863"
       id="filter4446">
      <feGaussianBlur
         inkscape:collect="always"
         stdDeviation="3.0549502"
         id="feGaussianBlur4448" />
    </filter>
    <linearGradient
       x1="108.00493"
       y1="72.341148"
       x2="115.9771"
       y2="102.0937"
       id="linearGradient4456"
       xlink:href="#XMLID_23_"
       gradientUnits="userSpaceOnUse" />
    <filter
       x="-0.37061214"
       width="1.7412243"
       y="-0.07284314"
       height="1.1456863"
       id="filter4442">
      <feGaussianBlur
         inkscape:collect="always"
         stdDeviation="3.0549502"
         id="feGaussianBlur4444" />
    </filter>
    <linearGradient
       x1="115.9771"
       y1="72.399902"
       x2="115.9771"
       y2="120.3999"
       id="XMLID_23_"
       gradientUnits="userSpaceOnUse">
      <stop
         style="stop-color:#00316e;stop-opacity:0"
         offset="0"
         id="stop79" />
      <stop
         style="stop-color:#00316e;stop-opacity:1"
         offset="1"
         id="stop81" />
    </linearGradient>
    <linearGradient
       x1="108.00493"
       y1="72.341148"
       x2="115.9771"
       y2="102.0937"
       id="linearGradient4454"
       xlink:href="#XMLID_23_"
       gradientUnits="userSpaceOnUse" />
    <clipPath
       id="clipPath4458">
      <path
         id="use4460"
         d="m 69.626,12.145 h -0.052 c -22.727,-0.292 -46.472,4.077 -46.709,4.122 -2.424,0.451 -4.946,2.974 -5.397,5.397 -0.044,0.237 -4.414,23.983 -4.122,46.71 -0.292,22.777 4.078,46.523 4.122,46.761 0.451,2.423 2.974,4.945 5.398,5.398 0.237,0.044 23.982,4.413 46.709,4.121 22.779,0.292 46.524,-4.077 46.761,-4.121 2.423,-0.452 4.946,-2.976 5.398,-5.399 0.044,-0.236 4.413,-23.981 4.121,-46.709 0.292,-22.777 -4.077,-46.523 -4.121,-46.761 -0.453,-2.423 -2.976,-4.946 -5.398,-5.397 -0.238,-0.045 -23.984,-4.414 -46.71,-4.122 z" />
    </clipPath>
    <filter
       id="AI_Sfocatura_4"
       x="-0.084210219"
       y="-0.084210957"
       width="1.1684204"
       height="1.1684219">
      <feGaussianBlur
         stdDeviation="4"
         id="feGaussianBlur6" />
    </filter>
    <radialGradient
       cx="69.600098"
       cy="145.3999"
       r="141"
       id="XMLID_21_"
       gradientUnits="userSpaceOnUse"
       gradientTransform="translate(1047.3429,-330.17143)">
      <stop
         style="stop-color:#2c72c7;stop-opacity:0"
         offset="0.3373"
         id="stop58" />
      <stop
         style="stop-color:#2c72c7;stop-opacity:1"
         offset="0.57990003"
         id="stop60" />
      <stop
         style="stop-color:#2c72c7;stop-opacity:0"
         offset="1"
         id="stop62" />
    </radialGradient>
    <radialGradient
       cx="69.600098"
       cy="68.399902"
       r="85"
       id="XMLID_20_"
       gradientUnits="userSpaceOnUse"
       gradientTransform="translate(1047.3429,-330.17143)">
      <stop
         style="stop-color:#6193ff;stop-opacity:1"
         offset="0.5"
         id="stop47" />
      <stop
         style="stop-color:#003685;stop-opacity:1"
         offset="0.78109998"
         id="stop49" />
      <stop
         style="stop-color:#709dff;stop-opacity:1"
         offset="1"
         id="stop51" />
    </radialGradient>
    <linearGradient
       x1="9.5995998"
       y1="68.399902"
       x2="129.6001"
       y2="68.399902"
       id="XMLID_18_"
       gradientUnits="userSpaceOnUse"
       gradientTransform="matrix(-1,-4.371139e-8,4.371139e-8,-1,1186.5436,-193.37143)">
      <stop
         style="stop-color:#003685;stop-opacity:1"
         offset="0"
         id="stop13" />
      <stop
         style="stop-color:#083c8f;stop-opacity:1"
         offset="0.0105"
         id="stop15" />
      <stop
         style="stop-color:#2451b1;stop-opacity:1"
         offset="0.0533"
         id="stop17" />
      <stop
         style="stop-color:#3b63cd;stop-opacity:1"
         offset="0.099"
         id="stop19" />
      <stop
         style="stop-color:#4d71e3;stop-opacity:1"
         offset="0.1477"
         id="stop21" />
      <stop
         style="stop-color:#597bf3;stop-opacity:1"
         offset="0.20100001"
         id="stop23" />
      <stop
         style="stop-color:#6180fc;stop-opacity:1"
         offset="0.2622"
         id="stop25" />
      <stop
         style="stop-color:#6382ff;stop-opacity:1"
         offset="0.34909999"
         id="stop27" />
      <stop
         style="stop-color:#6382ff;stop-opacity:1"
         offset="0.58579999"
         id="stop31" />
      <stop
         style="stop-color:#003685;stop-opacity:1"
         offset="1"
         id="stop33" />
    </linearGradient>
    <filter
       id="filter4466">
      <feGaussianBlur
         inkscape:collect="always"
         stdDeviation="2.32"
         id="feGaussianBlur4468" />
    </filter>
    <linearGradient
       x1="193.5"
       y1="6.7293491"
       x2="193.5"
       y2="155.16769"
       id="linearGradient2328"
       xlink:href="#linearGradient3215"
       gradientUnits="userSpaceOnUse" />
    <linearGradient
       x1="193.5"
       y1="6.7293491"
       x2="193.5"
       y2="155.16769"
       id="linearGradient2330"
       xlink:href="#linearGradient3215"
       gradientUnits="userSpaceOnUse" />
    <linearGradient
       x1="9.5995998"
       y1="68.399902"
       x2="129.6001"
       y2="68.399902"
       id="linearGradient2352"
       xlink:href="#XMLID_18_"
       gradientUnits="userSpaceOnUse"
       gradientTransform="matrix(-1,-4.371139e-8,4.371139e-8,-1,1186.5436,-193.37143)" />
    <radialGradient
       cx="69.600098"
       cy="68.399902"
       r="85"
       id="radialGradient2354"
       xlink:href="#XMLID_20_"
       gradientUnits="userSpaceOnUse"
       gradientTransform="translate(1047.3429,-330.17143)" />
    <radialGradient
       cx="69.600098"
       cy="145.3999"
       r="141"
       id="radialGradient2356"
       xlink:href="#XMLID_21_"
       gradientUnits="userSpaceOnUse"
       gradientTransform="translate(1047.3429,-330.17143)" />
    <linearGradient
       x1="108.00493"
       y1="72.341148"
       x2="115.9771"
       y2="102.0937"
       id="linearGradient2358"
       xlink:href="#XMLID_23_"
       gradientUnits="userSpaceOnUse" />
    <linearGradient
       x1="108.00493"
       y1="72.341148"
       x2="115.9771"
       y2="102.0937"
       id="linearGradient2360"
       xlink:href="#XMLID_23_"
       gradientUnits="userSpaceOnUse" />
    <radialGradient
       cx="66.136703"
       cy="0.75440001"
       r="81.971497"
       id="radialGradient2362"
       xlink:href="#XMLID_25_"
       gradientUnits="userSpaceOnUse"
       gradientTransform="matrix(0.9459,0,0,1,1051.1319,-330.17143)" />
    <linearGradient
       x1="193.5"
       y1="6.7293491"
       x2="193.5"
       y2="155.16769"
       id="linearGradient2364"
       xlink:href="#linearGradient3215"
       gradientUnits="userSpaceOnUse" />
    <linearGradient
       x1="193.5"
       y1="6.7293491"
       x2="193.5"
       y2="155.16769"
       id="linearGradient2366"
       xlink:href="#linearGradient3215"
       gradientUnits="userSpaceOnUse" />
    <linearGradient
       x1="193.5"
       y1="6.7293491"
       x2="193.5"
       y2="155.16769"
       id="linearGradient2368"
       xlink:href="#linearGradient3215"
       gradientUnits="userSpaceOnUse" />
    <radialGradient
       cx="110.74259"
       cy="123.17536"
       r="81.292717"
       fx="110.74259"
       fy="123.17536"
       id="radialGradient2370"
       xlink:href="#XMLID_27_"
       gradientUnits="userSpaceOnUse"
       gradientTransform="matrix(1.0727282,0,0,-0.7852748,-88.140453,159.47421)" />
    <linearGradient
       inkscape:collect="always"
       xlink:href="#linearGradient3215"
       id="linearGradient2255"
       gradientUnits="userSpaceOnUse"
       x1="193.5"
       y1="6.7293491"
       x2="193.5"
       y2="155.16769" />
    <linearGradient
       inkscape:collect="always"
       xlink:href="#linearGradient3215"
       id="linearGradient2263"
       gradientUnits="userSpaceOnUse"
       x1="193.5"
       y1="6.7293491"
       x2="193.5"
       y2="155.16769" />
    <filter
       inkscape:collect="always"
       id="filter2904"
       x="-0.047999999"
       y="-0.047999999"
       width="1.096"
       height="1.096">
      <feGaussianBlur
         inkscape:collect="always"
         stdDeviation="2.32"
         id="feGaussianBlur2906" />
    </filter>
    <linearGradient
       inkscape:collect="always"
       xlink:href="#XMLID_18_"
       id="linearGradient2235"
       gradientUnits="userSpaceOnUse"
       gradientTransform="matrix(-1.0222221,0,0,-1.0222221,296.14777,133.91998)"
       x1="9.5995998"
       y1="68.399902"
       x2="129.6001"
       y2="68.399902" />
    <linearGradient
       inkscape:collect="always"
       xlink:href="#radialGradient4845"
       id="linearGradient10489"
       x1="120"
       y1="-116"
       x2="120"
       y2="174"
       gradientUnits="userSpaceOnUse"
       gradientTransform="matrix(1.0000012,0,0,1.0000012,161.0004,-4.0000044)" />
    <linearGradient
       inkscape:collect="always"
       xlink:href="#XMLID_25_"
       id="linearGradient10550"
       gradientUnits="userSpaceOnUse"
       x1="120"
       y1="-116"
       x2="120"
       y2="79.644371"
       gradientTransform="translate(0,-4)" />
    <linearGradient
       inkscape:collect="always"
       xlink:href="#XMLID_25_"
       id="linearGradient12015"
       gradientUnits="userSpaceOnUse"
       gradientTransform="matrix(1.0000012,0,0,1.0000012,138.67493,-4.0000044)"
       x1="120"
       y1="-116"
       x2="120"
       y2="79.644371" />
    <radialGradient
       inkscape:collect="always"
       xlink:href="#linearGradient19125"
       id="radialGradient19127"
       cx="65"
       cy="124"
       fx="65"
       fy="124"
       r="60.000008"
       gradientTransform="matrix(1.9884455,0,0,1.9884455,96.773654,-125.32282)"
       gradientUnits="userSpaceOnUse" />
    <radialGradient
       inkscape:collect="always"
       xlink:href="#linearGradient36836"
       id="radialGradient36838"
       cx="64"
       cy="89.660263"
       fx="63.148804"
       fy="119.12823"
       r="56"
       gradientUnits="userSpaceOnUse"
       gradientTransform="matrix(1.8928595,0,0,1.0000012,103.85746,-4.000004)" />
    <radialGradient
       inkscape:collect="always"
       xlink:href="#linearGradient42106"
       id="radialGradient42108"
       cx="64.629639"
       cy="68.450851"
       fx="64.629639"
       fy="68.450851"
       r="1"
       gradientTransform="matrix(93.333743,-17.651478,16.507527,47.797103,-6955.7466,-2038.618)"
       gradientUnits="userSpaceOnUse" />
    <radialGradient
       inkscape:collect="always"
       xlink:href="#linearGradient43046"
       id="radialGradient42832"
       gradientUnits="userSpaceOnUse"
       gradientTransform="matrix(17.890014,91.000082,-48.443018,16.094782,2358.384,-6937.2041)"
       cx="64.629639"
       cy="68.450851"
       fx="64.629639"
       fy="68.450851"
       r="1" />
    <filter
       inkscape:collect="always"
       style="color-interpolation-filters:sRGB"
       id="filter44780"
       x="-0.026257898"
       y="-0.026024758"
       width="1.0525158"
       height="1.0520495">
      <feGaussianBlur
         inkscape:collect="always"
         stdDeviation="1.1947369"
         id="feGaussianBlur44782" />
    </filter>
    <filter
       inkscape:collect="always"
       style="color-interpolation-filters:sRGB"
       id="filter46158"
       x="-0.0039824191"
       y="-0.0056091835"
       width="1.0079648"
       height="1.0112184">
      <feGaussianBlur
         inkscape:collect="always"
         stdDeviation="0.18143525"
         id="feGaussianBlur46160" />
    </filter>
    <filter
       inkscape:collect="always"
       style="color-interpolation-filters:sRGB"
       id="filter46582"
       x="-0.049246359"
       y="-1.3969306"
       width="1.0984927"
       height="3.7938613">
      <feGaussianBlur
         inkscape:collect="always"
         stdDeviation="1.1641089"
         id="feGaussianBlur46584" />
    </filter>
    <radialGradient
       inkscape:collect="always"
       xlink:href="#linearGradient46670"
       id="radialGradient46672"
       cx="64.5"
       cy="124"
       fx="64.5"
       fy="124"
       r="53.29386"
       gradientTransform="matrix(0.38423177,0,0,0.78339436,39.717051,26.8591)"
       gradientUnits="userSpaceOnUse" />
    <linearGradient
       inkscape:collect="always"
       xlink:href="#XMLID_18_"
       id="linearGradient1773"
       x1="2.7263107"
       y1="63.940434"
       x2="125.27384"
       y2="63.940434"
       gradientUnits="userSpaceOnUse" />
    <radialGradient
       inkscape:collect="always"
       xlink:href="#linearGradient19125"
       id="radialGradient1798"
       cx="66.666748"
       cy="120.00015"
       fx="66.666748"
       fy="120.00015"
       r="61.273766"
       gradientUnits="userSpaceOnUse"
       gradientTransform="matrix(1.6152222,0,0,1.6152222,-41.014866,-73.826762)" />
  </defs>
  <rect
     style="opacity:0.80967;mix-blend-mode:normal;fill:url(#radialGradient46672);fill-opacity:1;stroke-linecap:round;stroke-linejoin:round;paint-order:fill markers stroke;filter:url(#filter46582)"
     id="rect46184"
     width="56.732342"
     height="2"
     x="37.33889"
     y="123"
     rx="1"
     ry="0.44951263"
     transform="matrix(1.1215897,0,0,0.93412929,-6.8425366,9.567968)" />
  <path
     id="path35"
     style="fill:url(#linearGradient2235);stroke-width:1.02223"
     d="m 166.32564,21.687625 c 0,-8.995552 7.36,-16.3555522 16.35555,-16.3555522 h 87.29698 c 8.99555,0 16.35556,7.3600002 16.35556,16.3555522 v 87.290155 c 0,8.99555 -7.36,16.35554 -16.35556,16.35554 h -87.29698 c -8.99555,0 -16.35555,-7.35999 -16.35555,-16.35554 z"
     sodipodi:nodetypes="sssssssss" />
  <path
     id="path12216"
     style="fill:url(#radialGradient19127);fill-opacity:1;stroke-width:1.02223"
     d="m 166.32564,21.687625 c 0,-8.995552 7.36,-16.3555522 16.35555,-16.3555522 h 87.29698 c 8.99555,0 16.35556,7.3600002 16.35556,16.3555522 v 87.290155 c 0,8.99555 -7.36,16.35554 -16.35556,16.35554 h -87.29698 c -8.99555,0 -16.35555,-7.35999 -16.35555,-16.35554 z"
     sodipodi:nodetypes="sssssssss" />
  <g
     transform="matrix(0.97098349,0,0,0.93914802,158.97351,-1.4821025)"
     style="opacity:0.8;filter:url(#filter2904)"
     id="g8">
    <path
       d="m 126,113.8 c 0,8.8 -7.2,16 -16,16 H 26 c -8.8,0 -16,-7.2 -16,-16 V 29.800002 c 0,-8.8 7.2,-16 16,-16 h 84 c 8.8,0 16,7.2 16,16 z"
       id="path10" />
  </g>
  <path
     id="rect44597"
     style="opacity:0.364555;stroke-linecap:round;stroke-linejoin:round;paint-order:fill markers stroke;filter:url(#filter44780)"
     transform="matrix(1.0222221,0,0,1.0222221,159.57818,-1.1155465)"
     d="m 24.913044,10.378142 c -7.500596,0 -13.556641,6.056045 -13.556641,13.556641 V 107 c 0,7.5006 6.056045,13.55664 13.556641,13.55664 H 107 c 7.5006,0 13.55664,-6.05604 13.55664,-13.55664 V 23.934783 c 0,-7.500596 -6.05604,-13.556641 -13.55664,-13.556641 z"
     sodipodi:nodetypes="sssssssss" />
  <path
     id="path53"
     style="fill:url(#linearGradient10489);fill-opacity:1;stroke-width:1.00001"
     d="m 184.43093,10.665408 c -7.04226,0 -12.77195,5.729691 -12.77195,12.771945 V 107.2282 c 0,7.04227 5.72969,12.77195 12.77195,12.77195 h 83.79766 c 7.04228,0 12.77196,-5.72968 12.77196,-12.77195 V 23.437353 c 0,-7.042254 -5.72968,-12.771945 -12.77196,-12.771945 z"
     sodipodi:nodetypes="sssssssss" />
  <path
     id="path159"
     style="fill:url(#XMLID_29_);stroke:#2c72c7;stroke-width:2;stroke-linejoin:round"
     d="" />
  <path
     id="path30590"
     style="fill:url(#radialGradient36838);fill-opacity:1;stroke-width:1.00001"
     d="m 184.43048,10.665408 c -7.04225,0 -12.7715,5.729245 -12.7715,12.771499 v 83.791733 c 0,7.04226 5.72925,12.77151 12.7715,12.77151 h 83.79856 c 7.04228,0 12.77151,-5.72925 12.77151,-12.77151 V 23.436907 c 0,-7.042254 -5.72923,-12.771499 -12.77151,-12.771499 z m 41.96999,4.800006 c 0.26527,0 0.52253,0.05329 0.75977,0.150391 0.23724,0.0971 0.45499,0.23716 0.63868,0.412109 0.18368,0.174949 0.33289,0.385609 0.4375,0.619143 0.1046,0.233535 0.16406,0.490814 0.16406,0.76367 v 95.844103 c 0,0.27286 -0.0595,0.53014 -0.16406,0.76367 -0.10461,0.23353 -0.25382,0.44419 -0.4375,0.61913 -0.18369,0.17497 -0.40144,0.31502 -0.63868,0.41211 -0.23724,0.0971 -0.4945,0.15041 -0.75977,0.15041 -0.26526,0 -0.52253,-0.0533 -0.75976,-0.15041 -0.23724,-0.097 -0.45499,-0.23714 -0.63867,-0.41211 -0.18369,-0.17494 -0.3329,-0.3856 -0.4375,-0.61913 -0.10461,-0.23353 -0.16407,-0.49081 -0.16407,-0.76367 V 17.410727 c 0,-0.272856 0.0595,-0.530135 0.16407,-0.76367 0.1046,-0.233534 0.25381,-0.444194 0.4375,-0.619143 0.18368,-0.174949 0.40143,-0.315004 0.63867,-0.412109 0.23723,-0.0971 0.4945,-0.150391 0.75976,-0.150391 z m -46.79616,47.534662 41.85085,0.2 c 1.09142,0.0052 1.94531,0.938958 1.94531,2.000002 0,1.061044 -0.85389,2.005217 -1.94531,2.000001 l -41.85085,-0.2 c -1.09143,-0.0052 -1.94532,-0.938957 -1.94532,-2.000001 0,-1.061044 0.85389,-2.005218 1.94532,-2.000002 z m 52.14148,0.2 42.30944,-0.2 c 1.08516,-0.0051 1.94532,0.927741 1.94532,1.988283 v 0.02344 c 0,1.06054 -0.86016,1.983151 -1.94532,1.988281 l -42.30944,0.2 c -1.08516,0.0051 -1.94531,-0.927739 -1.94531,-1.988283 v -0.02344 c 0,-1.060542 0.86016,-1.983151 1.94531,-1.988281 z"
     sodipodi:nodetypes="ssssssssssssssssssscsssscsssssssssssssssssss" />
  <path
     id="path11914"
     style="opacity:0.439026;fill:url(#linearGradient10550);fill-opacity:1;stroke-width:0.999999;filter:url(#filter46158)"
     d="m 23.429748,10.665083 c -7.034911,0 -12.771484,5.736573 -12.771484,12.771484 v 62.858355 c -2.09e-4,1.199211 1.047595,2.129068 2.238281,1.986328 C 31.094514,86.104843 46.142539,82.921793 63,78.847656 V 17.610395 c 0,-1.091433 0.938959,-1.945312 2,-1.945312 1.061041,0 2,0.853879 2,1.945312 V 77.865234 C 80.459953,74.470642 93.349994,71.802397 105.46289,67.299847 H 69.945312 C 68.860142,67.299847 68,66.372109 68,65.311566 v -0.02344 c 0,-1.060541 0.860146,-1.988279 1.945312,-1.988279 h 43.109378 c 0.5093,0 0.96408,0.208632 1.30859,0.535156 1.4818,-0.602527 2.96486,-2.503107 4.41992,-3.122112 0.73767,-0.314002 1.21658,-1.038126 1.2168,-1.839844 v -35.43648 c 0,-7.034911 -5.73657,-12.771484 -12.77148,-12.771484 z m -4.826172,52.634764 h 41.451112 c 1.091433,0 1.945312,0.938958 1.945312,2 0,1.061042 -0.853879,2 -1.945312,2 H 18.603576 c -1.091433,0 -1.945312,-0.938958 -1.945312,-2 0,-1.061042 0.853879,-2 1.945312,-2 z"
     transform="matrix(1.000118,0,0,1.000118,160.99285,-0.00130991)"
     sodipodi:nodetypes="sscccsssccssssscccssssssssss" />
  <path
     id="path10548"
     style="fill:url(#linearGradient12015);fill-opacity:1;stroke-width:1.00001"
     d="m 162.10502,10.665408 c -7.03492,0 -12.7715,5.73658 -12.7715,12.771499 v 1.000002 c 0,-7.034919 5.73658,-11.0715 12.7715,-11.0715 h 83.79855 c 7.03493,0 12.77151,4.036581 12.77151,11.0715 v -1.000002 c 0,-7.034919 -5.73658,-12.771499 -12.77151,-12.771499 z"
     sodipodi:nodetypes="sscsscsss" />
  <rect
     style="fill:url(#radialGradient42108);fill-opacity:1;stroke-width:7.19435;stroke-linecap:round;stroke-linejoin:round;paint-order:fill markers stroke"
     id="rect41641"
     width="2.6666737"
     height="98.666786"
     x="225.00047"
     y="16.000019"
     rx="1.3333368"
     ry="0.93316942" />
  <path
     id="rect42708"
     style="fill:url(#radialGradient42832);fill-opacity:1;stroke-width:7.15167;stroke-linecap:round;stroke-linejoin:round;paint-order:fill markers stroke"
     d="m 179.60431,64.00008 c -0.52397,0 -0.94532,0.5798 -0.94532,1.3 0,0.720199 0.42135,1.299999 0.94532,1.299999 h 41.45085 c 0.52396,0 0.94531,-0.5798 0.94531,-1.299999 0,-0.7202 -0.42135,-1.3 -0.94531,-1.3 z m 51.84148,0 c -0.52396,0 -0.94531,0.573398 -0.94531,1.284765 v 0.03047 c 0,0.711365 0.42135,1.284763 0.94531,1.284763 h 42.60944 c 0.52396,0 0.9453,-0.573398 0.9453,-1.284765 v -0.03047 c 0,-0.711365 -0.42134,-1.284763 -0.9453,-1.284763 z"
     sodipodi:nodetypes="ssssssssssssssss" />
  <path
     id="path43086"
     style="fill:#000000;fill-opacity:0.313687;stroke-width:1.00013"
     d="m 171.75237,107.23985 v 1.00013 c 0,7.04306 5.72991,12.77298 12.77299,12.77298 h 83.80865 c 7.0431,0 12.773,-5.72992 12.773,-12.77298 v -1.00013 c 0,7.04308 -5.7299,12.773 -12.773,12.773 h -83.80865 c -7.04308,0 -12.77299,-5.72992 -12.77299,-12.773 z"
     sodipodi:nodetypes="csssscssc" />
  <path
     id="rect45681"
     style="fill:#ffffff;fill-opacity:0.740451;stroke-width:6.27244;stroke-linecap:round;stroke-linejoin:round;paint-order:fill markers stroke"
     d="m 226.00047,16.665416 c -0.554,0 -1,0.421352 -1,0.945311 v 1.000003 c 0,-0.523961 0.446,-0.945314 1,-0.945314 0.554,0 1.00001,0.421353 1.00001,0.945314 v -1.000003 c 0,-0.523959 -0.44601,-0.945311 -1.00001,-0.945311 z"
     sodipodi:nodetypes="sscscss" />
  <circle
     style="fill:url(#linearGradient1773);fill-opacity:1.0;stroke-width:1.14888;stroke-linecap:round;stroke-linejoin:round;paint-order:fill markers stroke"
     id="path733"
     cx="64.000076"
     cy="63.940434"
     r="61.273766" />
  <circle
     style="fill:url(#radialGradient1798);fill-opacity:1;stroke-width:1.14888;stroke-linecap:round;stroke-linejoin:round;paint-order:fill markers stroke"
     id="circle1775"
     cx="64.000076"
     cy="63.940434"
     r="61.273766" />
</svg>
