<?xml version="1.0" encoding="UTF-8" standalone="no"?>
<svg
   width="22"
   height="22"
   version="1.1"
   xmlns="http://www.w3.org/2000/svg">
  <defs>
    <style type="text/css" id="current-color-scheme">.ColorScheme-Text {
                color:#232629;
            }</style>
  </defs>
  <path
     class="ColorScheme-Text"
     d="m 12.74,12.56 c -0.30668,0.92544 0.40073,2.0324 1.0182,2.8935 0.4887,0.68144 0.69635,1.981 0.56023,2.8181 -0.18946,1.1652 -0.45079,2.2021 -1.043,2.3719 -1.3566,0.38879 -3.9282,-3.3 -5.2707,-3.7349 -1.2534,-0.40605 -5.2935,1.1667 -6.03,0.07394 -0.78886,-1.1704 1.9237,-4.7568 1.9223,-6.1684 -0.00126,-1.3179 -2.745,-4.6753 -1.9337,-5.7137 0.86905,-1.1122 5.1171,0.36015 6.4588,-0.077343 1.2526,-0.40844 3.597,-4.0562 4.8349,-3.6052 1.326,0.48308 1.2388,4.9793 2.0694,6.1206 0.77542,1.0654 4.9681,2.1685 4.9218,3.4855 -0.03915,1.114439 -3.137965,1.895506 -4.269861,3.118982"
     fill="none"
     stroke="currentColor"
     stroke-linecap="round"
     stroke-linejoin="round"
     style="paint-order:fill markers stroke" />
</svg>
