<svg width="16" height="16" version="1.1" xmlns="http://www.w3.org/2000/svg">
 <defs>
  <style id="current-color-scheme" type="text/css">.ColorScheme-Text { color:#232629; }</style>
 </defs>
 <path class="ColorScheme-Text" d="m6.6385 14.793c.27036.45696.76731.70723 1.3356.70723.84989-.0072 1.533-.64782 1.5259-1.5v-.5013h3.9134c.2833 0 .51296-.23028.51296-.51434 0-.28407-.2509-.53615-.45657-.72205-1.0059-.90924-1.8659-3.4507-2.2301-6.8207-.02089-.19337-.05046-.38077-.08896-.56106m-1.1195-1.9237c-.40376-.29197-.91139-.4568-1.5312-.4568v-.98639c0-.5598-.45381-1.0136-1.0136-1.0136-.55228.0075175-.99391.46133-.98639 1.0136v.98639c-1.6999 0-2.6509 1.2375-2.7988 2.9436-.17541 2.0225-.48638 3.7645-.96229 5.02m-.14956 3.0352h5.1666" fill="none" opacity=".4" stroke="currentColor" stroke-linecap="round" stroke-linejoin="round" stroke-width=".99999" style="paint-order:fill markers stroke"/>
 <path d="m1 15 13-13" fill="none" stroke="#232629" stroke-linecap="round" stroke-linejoin="round" style="paint-order:fill markers stroke"/>
</svg>
