<svg width="16" height="16" version="1.1" xmlns="http://www.w3.org/2000/svg">
 <defs>
  <style id="current-color-scheme" type="text/css">.ColorScheme-Text { color:#232629; }</style>
 </defs>
 <path class="ColorScheme-Text" d="m6.6385 14.793c.27036.45696.76731.70723 1.3356.70723.84989-.0072 1.533-.64782 1.5259-1.5v-.5013h3.9134c.2833 0 .51296-.23028.51296-.51434 0-.28407-.2509-.53615-.45657-.72205-1.0059-.90924-1.8659-3.4507-2.2301-6.8207-.18389-1.7019-1.0399-2.9416-2.7397-2.9416v-.98639a1.0136 1.0136 45 00-1.0136-1.0136 1.0001 1.0001 134.22 00-.98639 1.0136v.98639c-1.6999 0-2.6509 1.2375-2.7988 2.9436-.29861 3.443-.99003 6.0728-2.2192 6.8742-.23409.15262-.48223.38254-.48223.6666 0 .28406.22966.51434.51296.51434h6.2432" fill="none" opacity=".6" stroke="currentColor" stroke-linecap="round" stroke-linejoin="round" stroke-width=".99999" style="paint-order:fill markers stroke"/>
</svg>
