<?xml version="1.0" encoding="UTF-8" standalone="no"?>
<svg
   version="1.1"
   viewBox="0 0 16 16"
   id="svg1"
   width="16"
   height="16"
   xmlns="http://www.w3.org/2000/svg"
   xmlns:svg="http://www.w3.org/2000/svg">
  <defs
     id="defs1">
    <style
       id="current-color-scheme"
       type="text/css">
        .ColorScheme-Text {
          color:#232629;
        }
      </style>
  </defs>
  <path
     id="path1"
     style="fill:currentColor;opacity:0.4"
     class="ColorScheme-Text"
     d="M 5.5800781 0.9765625 C 5.1815211 0.97656248 4.7836199 1.126539 4.4824219 1.4277344 L 1.5019531 4.40625 C 0.8995591 5.008642 0.89955909 6.0011238 1.5019531 6.6035156 C 1.9667291 7.0682924 2.6265656 7.0610149 3.1972656 6.8085938 L 4.9121094 8.5234375 L 5.6191406 7.8164062 L 3.6992188 5.8964844 C 3.5039547 5.7012993 3.1874515 5.7012993 2.9921875 5.8964844 C 2.7719435 6.1167286 2.4292284 6.1167286 2.2089844 5.8964844 C 1.9887384 5.6762392 1.9887384 5.3335266 2.2089844 5.1132812 L 5.1894531 2.1347656 C 5.4097001 1.9145195 5.7504571 1.9145203 5.9707031 2.1347656 C 6.1909475 2.3550107 6.1909475 2.6977236 5.9707031 2.9179688 C 5.7755181 3.1132333 5.7755181 3.4297355 5.9707031 3.625 L 7.890625 5.5449219 L 8.5976562 4.8378906 L 6.8847656 3.125 C 7.1383647 2.5539138 7.1430747 1.893075 6.6777344 1.4277344 C 6.3765383 1.1265385 5.9786351 0.97656252 5.5800781 0.9765625 z M 10.792969 4.7011719 C 10.403035 4.7011719 10.013683 4.8459886 9.7148438 5.1347656 C 9.7084855 5.1409098 9.7015874 5.1460688 9.6953125 5.1523438 L 8.5976562 6.2519531 L 8.9492188 6.6035156 C 9.1444832 6.7987009 9.4609855 6.7987009 9.65625 6.6035156 L 10.402344 5.859375 C 10.622589 5.6391302 10.963349 5.6391301 11.183594 5.859375 L 11.576172 6.25 L 10.908203 6.9179688 C 10.411006 7.4151668 10.105115 8.0374884 9.9960938 8.6835938 C 9.9501898 8.9559745 10.133851 9.2139739 10.40625 9.2597656 C 10.678631 9.3056696 10.93663 9.1220091 10.982422 8.8496094 C 11.058181 8.400627 11.267331 7.9729028 11.615234 7.625 L 12.636719 6.6035156 C 12.831904 6.4082511 12.831904 6.0917489 12.636719 5.8964844 L 11.890625 5.1523438 C 11.589429 4.8511476 11.191199 4.7011719 10.792969 4.7011719 z M 6.3261719 8.5234375 L 5.2265625 9.6210938 C 5.2202876 9.6273687 5.2151286 9.6342667 5.2089844 9.640625 C 4.6252864 10.244661 4.6304454 11.220289 5.2265625 11.816406 L 5.9707031 12.5625 C 6.1659675 12.757685 6.48247 12.757685 6.6777344 12.5625 L 7.6992188 11.541016 C 8.5897336 10.650502 10.017689 10.650502 10.908203 11.541016 L 14.164062 14.796875 C 14.359315 14.992088 14.675841 14.992088 14.871094 14.796875 C 15.066307 14.601622 15.066307 14.285097 14.871094 14.089844 L 11.615234 10.833984 C 10.342572 9.5613246 8.2648498 9.5613248 6.9921875 10.833984 L 6.3242188 11.501953 L 5.9335938 11.109375 C 5.7133477 10.889129 5.7133477 10.548372 5.9335938 10.328125 L 6.6777344 9.5820312 C 6.8729197 9.3867668 6.8729197 9.0702645 6.6777344 8.875 L 6.3261719 8.5234375 z " />

    <path   
      style="fill:currentColor"
     class="ColorScheme-Text"
       d="M 13.447266,1.3867187 1.4472656,13.386719 a 0.5,0.5 0 0 0 0,0.707031 0.5,0.5 0 0 0 0.7070313,0 l 12.0000001,-12 a 0.5,0.5 0 0 0 0,-0.7070313 0.5,0.5 0 0 0 -0.707031,0 z"
       id="path3" />

</svg>
