<?xml version="1.0" encoding="UTF-8" standalone="no"?>
<svg
   version="1.1"
   viewBox="0 0 16 16"
   id="svg1"
   width="16"
   height="16"
   xmlns="http://www.w3.org/2000/svg"
   xmlns:svg="http://www.w3.org/2000/svg">
  <defs
     id="defs1">
    <style
       id="current-color-scheme"
       type="text/css">
        .ColorScheme-Text {
          color:#232629;
        }
      </style>
  </defs>
  <path

     style="fill:currentColor"
     class="ColorScheme-Text"
     d="m 10.488281,0.9765625 c -0.398557,2e-8 -0.7964599,0.149976 -1.097656,0.4511719 C 8.9252847,1.893075 8.9299947,2.5539138 9.1835938,3.125 L 6.765625,5.5429688 6.3730469,5.1523438 c -0.6023921,-0.6023922 -1.5929204,-0.6023922 -2.1953125,0 L 3.4316406,5.8964844 c -0.1951853,0.1952645 -0.1951853,0.5117667 0,0.7070312 L 4.453125,7.625 C 4.8010275,7.9729028 5.0101782,8.400627 5.0859375,8.8496094 5.1317292,9.1220091 5.3897286,9.3056696 5.6621094,9.2597656 5.934509,9.2139739 6.1181696,8.9559746 6.0722656,8.6835938 5.9632447,8.0374884 5.6573538,7.4151668 5.1601562,6.9179688 L 4.4921875,6.25 4.8847656,5.859375 c 0.2202449,-0.2202449 0.5610053,-0.2202448 0.78125,0 l 0.7460938,0.7441406 c 0.1952645,0.1951853 0.5117667,0.1951853 0.7070312,0 L 10.097656,3.625 c 0.195185,-0.1952645 0.195185,-0.5117667 0,-0.7070312 -0.2202444,-0.2202452 -0.2202444,-0.5629581 0,-0.7832032 0.220246,-0.2202453 0.561003,-0.2202461 0.78125,0 l 2.980469,2.9785156 c 0.220246,0.2202454 0.220246,0.562958 0,0.7832032 -0.220244,0.2202442 -0.562959,0.2202442 -0.783203,0 -0.195264,-0.1951851 -0.511767,-0.1951851 -0.707031,0 L 9.390625,8.875 c -0.1951853,0.1952645 -0.1951853,0.5117667 0,0.7070312 l 0.744141,0.7460938 c 0.220246,0.220247 0.220246,0.561004 0,0.78125 L 9.7441406,11.501953 9.0761719,10.833984 c -1.2726623,-1.2726596 -3.3503851,-1.2726598 -4.6230469,0 l -3.2558594,3.25586 c -0.1952127,0.195253 -0.1952127,0.511778 0,0.707031 0.1952531,0.195213 0.5117782,0.195213 0.7070313,0 l 3.2558593,-3.255859 c 0.8905144,-0.890514 2.3184695,-0.890514 3.2089844,0 L 9.390625,12.5625 c 0.1952644,0.195185 0.5117666,0.195185 0.707031,0 l 0.744141,-0.746094 c 0.602392,-0.602392 0.602392,-1.59292 0,-2.1953122 L 10.451172,9.2285156 12.871094,6.8085938 c 0.5707,0.2524212 1.230536,0.2596986 1.695312,-0.2050782 0.602394,-0.6023918 0.602394,-1.5948736 0,-2.1972656 L 11.585938,1.4277344 C 11.28474,1.126539 10.886838,0.97656248 10.488281,0.9765625 Z" />
</svg>
