<?xml version="1.0" encoding="UTF-8"?>
<svg version="1.1" viewBox="0 0 22 22" xml:space="preserve" xmlns="http://www.w3.org/2000/svg"><defs>

<style id="current-color-scheme" type="text/css">.ColorScheme-Text { color:#232629; }</style>
</defs><g class="ColorScheme-Text" transform="matrix(.62658 0 0 .6249 7.1748 1.2324)" fill="none" stroke="currentColor" stroke-linecap="round" stroke-linejoin="round"><g stroke-width="1.5981"><path class="ColorScheme-Text" d="m4.892 18.95c-3.1506-1.3365-6.505 2.6738-11.107-1.0172 5.97-2.3695 7.5049-6.1087 11.86-9.6767 1.2472-1.1315 4.3458 0.00688 4.9898-0.072528 1.2036-1.1128 7.0188-5.4241 8.4455-6.4936 1.0925 1.6329 0.4263 4.3839 0.56416 5.4687-3.5143 5.8792-5.8737 6.4907-5.3582 8.4452 1.631 0.10014 5.2149-1.5921 6.959-2.7964 0.4441 3.264-1.4346 3.5637-5.0468 7.8023-0.71164 0.83506-1.5808 4.0427-1.4179 4.8584" stroke="currentColor"/><path d="m7.01 13.325c0.60828-0.1077 1.4124-0.17588 1.6592-1.6987"/><path d="m-3.7438 23.462s1.5319-0.82852 1.4455-1.8347"/></g><path class="ColorScheme-Text" transform="matrix(1.596 0 0 1.6002 -12.463 -1.6141)" d="m17.072 16.96a8.5365 8.5365 0 0 1-11.333 0.71056 8.5365 8.5365 0 0 1-2.0128-11.175 8.5365 8.5365 0 0 1 10.868-3.2882" fill="none" stroke="currentColor" stroke-linecap="round" stroke-linejoin="round"/></g></svg>
