<?xml version="1.0" encoding="UTF-8" standalone="no"?>
<svg
   width="24"
   height="24"
   version="1.1"
   xmlns="http://www.w3.org/2000/svg">
  <defs>
    <style type="text/css" id="current-color-scheme">.ColorScheme-Text {
                color:#232629;
            }</style>
  </defs>
  <path
     class="ColorScheme-Text"
     transform="rotate(143.95,11.795,12.113)"
     d="m 11.085,9.1645 c 0.90629,-0.64897 0.99712,-2.1483 1.0056,-3.3599 0.0067,-0.95882 0.68919,-2.2998 1.3783,-2.9819 0.95922,-0.94945 1.8986,-1.732 2.5604,-1.4903 1.5159,0.55376 1.4114,5.6943 2.36,7 0.88565,1.219 5.6794,2.4847 5.625,3.9904 -0.05822,1.6128 -4.9795,3.1019 -5.9281,4.4076 -0.88564,1.219 -0.60804,6.1692 -2.0569,6.5828 -1.5519,0.44303 -4.4889,-3.7772 -6.0238,-4.2759 -1.433,-0.46561 -6.0551,1.3281 -6.8962,0.07796 -0.90091,-1.339 2.2052,-5.4364 2.2052,-7.0503 -3.9e-6,-1.5067 -3.1342,-5.3484 -2.2052,-6.5346 0.7878271,-1.0059321 4.4505769,0.2616863 6.0600653,-0.00786"
     fill="none"
     stroke="currentColor"
     stroke-linecap="round"
     stroke-linejoin="round"
     style="paint-order:fill markers stroke" />
</svg>
