<?xml version="1.0" encoding="UTF-8" standalone="no"?>
<svg xmlns="http://www.w3.org/2000/svg" xmlns:svg="http://www.w3.org/2000/svg" height="22" width="22" version="1.1" id="svg1">
  <defs id="defs1">
    <style type="text/css" id="current-color-scheme">
            .ColorScheme-Text {
                color:#232629;
            }
        </style>
  </defs>
  <path id="path1" style="fill:currentColor" class="ColorScheme-Text" d="m 4.3417974,11.5 c 0,-0.311646 0.13062,-0.623207 0.390625,-0.835938 L 13.765625,4.0898438 C 15.031698,3.0539647 17,3.9872023 17,5.6230469 17.000311,6.3713058 17.0036,7.1189646 17.002,7.8671875 17.001752,7.9460025 17.054,8.0000014 17.132812,8 h 0.164063 C 18.231146,7.9999998 19,8.7688543 19,9.703125 v 3.59375 C 19,14.231146 18.231146,15 17.296875,15 H 17.132812 C 17.053282,15 17,15.05328 17,15.132812 v 2.244141 c 0,1.635845 -1.968302,2.569082 -3.234375,1.533203 L 4.7324224,12.335938 C 4.4724174,12.123207 4.3417974,11.811646 4.3417974,11.5 Z m 0.988281,-0.01563 v 0.002 0.002 c 6.8e-5,0.0013 3.6e-5,0.0027 0,0.0039 -7.32e-4,0.02442 0.0085,0.04848 0.03516,0.07031 l 9.0351526,6.572266 C 15.066897,18.6801 16,18.238121 16,17.376953 V 15.132812 14.75 c 0,-0.02546 0.0013,-0.0513 0.0039,-0.07617 v 0.365234 C 16.05231,14.461851 16.544293,14 17.132812,14 h 0.164063 C 17.690706,14 18,13.690706 18,13.296875 V 9.703125 C 18,9.3092945 17.690705,8.9999999 17.296875,9 h -0.164063 c -0.596995,1.07e-5 -1.094015,-0.4775544 -1.128906,-1.0664062 v 0.3925781 c -0.0026,-0.024874 -0.0039,-0.050711 -0.0039,-0.076172 v -2.626953 c 0,-0.8611676 -0.933103,-1.3031366 -1.599609,-0.7578125 L 5.3652454,11.4375 c -0.01816,0.01486 -0.03184,0.03033 -0.03516,0.04687 z M 12.5,8.5 c 0,-0.5522847 0.447715,-1 1,-1 0.552285,0 1,0.4477153 1,1 0,0.5522847 -0.447715,1 -1,1 -0.552285,0 -1,-0.4477153 -1,-1 z m 0,3 c 0,-0.552285 0.447715,-1 1,-1 0.552285,0 1,0.447715 1,1 0,0.552285 -0.447715,1 -1,1 -0.552285,0 -1,-0.447715 -1,-1 z m 0,3 c 0,-0.552285 0.447715,-1 1,-1 0.552285,0 1,0.447715 1,1 0,0.552285 -0.447715,1 -1,1 -0.552285,0 -1,-0.447715 -1,-1 z"/>
  <g id="path2" style="opacity:0.008907"/>
</svg>
