<?xml version="1.0" encoding="UTF-8" standalone="no"?>
<svg
   height="22"
   width="22"
   version="1.1"
   id="svg1"
   xmlns="http://www.w3.org/2000/svg"
   xmlns:svg="http://www.w3.org/2000/svg">
  <defs
     id="defs1">
    <style
       type="text/css"
       id="current-color-scheme">
            .ColorScheme-Text {
                color:#232629;
            }
        </style>
  </defs>
  <path
     id="path1"
     style="fill:currentColor"
     class="ColorScheme-Text"
     d="m 11.5,2.3417969 c -0.311646,0 -0.623207,0.1306203 -0.835938,0.390625 L 4.0898438,11.765625 C 3.0539647,13.031698 3.9872023,15 5.6230469,15 H 8 v 2.808594 C 8,19.01288 8.9871209,20 10.191406,20 h 2.617188 C 14.01288,20 15,19.01288 15,17.808594 V 15 h 2.376953 c 1.635845,0 2.569082,-1.968302 1.533203,-3.234375 L 12.335938,2.7324219 C 12.123207,2.4724172 11.811646,2.3417969 11.5,2.3417969 Z m -0.01563,0.9882812 c 0.0024,-4.733e-4 0.0054,7.13e-5 0.0078,0 0.02442,-7.326e-4 0.04848,0.00847 0.07031,0.035156 l 6.572266,9.0351566 C 18.68008,13.066897 18.238121,14 17.376953,14 H 14.75 c -0.408454,-10e-7 -0.750001,0.341546 -0.75,0.75 v 3.058594 C 14,18.47244 13.47244,19 12.808594,19 H 10.191406 C 9.5275608,19 9,18.47244 9,17.808594 V 14.75 C 9.0000007,14.341547 8.6584533,14 8.25,14 H 5.6230469 C 4.7618793,14 4.3199103,13.066897 4.8652344,12.400391 L 11.4375,3.3652344 c 0.01486,-0.01816 0.03033,-0.031843 0.04687,-0.035156 z M 8.5,10.5 c -0.5522847,0 -1,0.447715 -1,1 0,0.552285 0.4477153,1 1,1 0.5522847,0 1,-0.447715 1,-1 0,-0.552285 -0.4477153,-1 -1,-1 z m 3,0 c -0.552285,0 -1,0.447715 -1,1 0,0.552285 0.447715,1 1,1 0.552285,0 1,-0.447715 1,-1 0,-0.552285 -0.447715,-1 -1,-1 z m 3,0 c -0.552285,0 -1,0.447715 -1,1 0,0.552285 0.447715,1 1,1 0.552285,0 1,-0.447715 1,-1 0,-0.552285 -0.447715,-1 -1,-1 z" />
  <g
     id="path2"
     style="opacity:0.008907" />
</svg>
