<?xml version="1.0" encoding="UTF-8" standalone="no"?>
<svg
   height="22"
   width="22"
   version="1.1"
   id="svg1"
   xmlns="http://www.w3.org/2000/svg"
   xmlns:svg="http://www.w3.org/2000/svg">
  <defs
     id="defs1">
    <style
       type="text/css"
       id="current-color-scheme">
            .ColorScheme-Text {
                color:#232629;
            }
        </style>
  </defs>
  <path
     id="path1"
     style="fill:currentColor"
     class="ColorScheme-Text"
     d="m 11.5,2.3417969 c -0.311646,0 -0.623207,0.1306203 -0.835938,0.390625 L 4.0898438,10.765625 C 3.0539647,12.031698 3.9872023,14 5.6230469,14 H 8 v 3.808594 C 8,19.01288 8.9871206,20 10.191406,20 h 2.617188 C 14.01288,20 15,19.01288 15,17.808594 V 14 h 2.376953 c 1.635845,0 2.569082,-1.968302 1.533203,-3.234375 L 12.335938,2.7324219 C 12.123207,2.4724172 11.811646,2.3417969 11.5,2.3417969 Z m -0.0078,0.9882812 c 0.02442,-7.326e-4 0.04848,0.00847 0.07031,0.035156 l 6.572266,8.0351569 C 18.68009,12.066897 18.238121,13 17.376953,13 H 14.75 c -0.408454,-10e-7 -0.750001,0.341546 -0.75,0.75 v 4.058594 C 14,18.47244 13.47244,19 12.808594,19 H 10.191406 C 9.5275606,19 9,18.47244 9,17.808594 V 13.75 C 9.0000007,13.341547 8.6584533,13 8.25,13 H 5.6230469 C 4.7618793,13 4.3199103,12.066897 4.8652344,11.400391 L 11.4375,3.3652344 c 0.01698,-0.020754 0.03569,-0.034586 0.05469,-0.035156 z" />
  <g
     id="path2"
     style="opacity:0.008907" />
</svg>
