<?xml version="1.0" encoding="UTF-8" standalone="no"?>
<svg xmlns="http://www.w3.org/2000/svg" xmlns:svg="http://www.w3.org/2000/svg" height="22" width="22" version="1.1" id="svg1">
  <defs id="defs1">
    <style type="text/css" id="current-color-scheme">
            .ColorScheme-Text {
                color:#232629;
            }
        </style>
  </defs>
  <path id="path1" style="fill:currentColor" class="ColorScheme-Text" d="m 17.658203,11.5 c 0,-0.311646 -0.13062,-0.623207 -0.390625,-0.835938 L 8.234375,4.0898438 C 6.968302,3.0539647 5,3.9872023 5,5.6230469 4.999689,6.3713058 4.9964,7.1189646 4.998,7.8671875 4.998248,7.9460025 4.946,8.0000014 4.867188,8 H 4.703125 C 3.768854,7.9999998 3,8.7688543 3,9.703125 v 3.59375 C 3,14.231146 3.768854,15 4.703125,15 H 4.867188 C 4.946718,15 5,15.05328 5,15.132812 v 2.244141 c 0,1.635845 1.968302,2.569082 3.234375,1.533203 l 9.033203,-6.574218 C 17.527583,12.123207 17.658203,11.811646 17.658203,11.5 Z m -0.988281,-0.01563 v 0.002 0.002 c -6.8e-5,0.0013 -3.6e-5,0.0027 0,0.0039 7.32e-4,0.02442 -0.0085,0.04848 -0.03516,0.07031 L 7.599609,18.134846 C 6.933103,18.6801 6,18.238121 6,17.376953 V 15.132812 14.75 C 6,14.72454 5.9987,14.6987 5.9961,14.67383 v 0.365234 C 5.94769,14.461851 5.455707,14 4.867188,14 H 4.703125 C 4.309294,14 4,13.690706 4,13.296875 V 9.703125 C 4,9.3092945 4.309295,8.9999999 4.703125,9 h 0.164063 c 0.596995,1.07e-5 1.094015,-0.4775544 1.128906,-1.0664062 v 0.3925781 c 0.0026,-0.024874 0.0039,-0.050711 0.0039,-0.076172 v -2.626953 c 0,-0.8611676 0.933103,-1.3031366 1.599609,-0.7578125 L 16.634755,11.4375 c 0.01816,0.01486 0.03184,0.03033 0.03516,0.04687 z M 9.4999996,8.5 c 0,-0.5522847 -0.447715,-1 -0.9999996,-1 -0.552285,0 -1,0.4477153 -1,1 0,0.5522847 0.447715,1 1,1 0.5522846,0 0.9999996,-0.4477153 0.9999996,-1 z m 0,3 c 0,-0.552285 -0.447715,-1 -0.9999996,-1 -0.552285,0 -1,0.447715 -1,1 0,0.552285 0.447715,1 1,1 0.5522846,0 0.9999996,-0.447715 0.9999996,-1 z m 0,3 c 0,-0.552285 -0.447715,-1 -0.9999996,-1 -0.552285,0 -1,0.447715 -1,1 0,0.552285 0.447715,1 1,1 0.5522846,0 0.9999996,-0.447715 0.9999996,-1 z"/>
  <g id="path2" style="opacity:0.008907"/>
</svg>
