<?xml version="1.0" encoding="UTF-8" standalone="no"?>
<svg
   viewBox="0 0 22 22"
   version="1.1"
   id="svg4"
   xml:space="preserve"
   xmlns="http://www.w3.org/2000/svg"
   xmlns:svg="http://www.w3.org/2000/svg">
    <defs
   id="defs1">
    <style
   type="text/css"
   id="current-color-scheme">
            .ColorScheme-Text {
                color:#232629;
            }
        </style>
  </defs>
    <path
   id="path1"
   style="fill:currentColor"
   class="ColorScheme-Text"
   d="M 12.185547,4.125 C 11.928695,4.1087015 11.652629,4.202557 11.462891,4.4160156 L 8.4511719,7.8007812 C 8.3387842,7.9272175 8.1789317,8 8.0097656,8 H 7.9902344 C 7.4493658,8 7,8.4493658 7,8.9902344 V 13.009766 C 7.0000002,13.550633 7.4493659,14 7.9902344,14 h 0.019531 c 0.1691661,0 0.3290186,0.07278 0.4414063,0.199219 l 3.0117193,3.384765 c 0.252985,0.284612 0.658099,0.356391 0.96875,0.238282 C 12.742289,17.704156 13,17.380798 13,17 V 5 C 13,4.6192029 12.742288,4.2958433 12.431641,4.1777344 12.353978,4.1482071 12.271164,4.1304328 12.185547,4.125 Z M 12,5.3144531 V 16.685547 L 9.1992188,13.533203 C 8.8974299,13.193689 8.4640184,13 8.0097656,13 H 8 V 9 H 8.00977 C 8.4640139,9 8.8974298,8.8063093 9.1992188,8.4667969 Z M 4.5,8 C 3.6770652,8 3,8.6770652 3,9.5 v 3 c 3e-7,0.822934 0.6770654,1.5 1.5,1.5 H 5 c 0.5468298,0 0.9999997,-0.453172 1,-1 V 9.015625 C 6,8.4610919 5.5389081,8 4.984375,8 Z m 0,1 H 4.984375 C 4.9984704,9 5,9.0015296 5,9.015625 V 13 H 4.5 C 4.2175034,13 4.0000001,12.782498 4,12.5 v -3 C 4,9.2175033 4.2175033,9 4.5,9 Z" />
    <path
   id="path9"
   style="fill:currentColor;opacity:0.4"
   class="ColorScheme-Text"
   d="M 12,5.3144531 V 16.685547 L 9.1992188,13.533203 C 8.8974299,13.193689 8.4640184,13 8.0097656,13 H 8 V 9 H 8.00977 C 8.4640139,9 8.8974298,8.8063093 9.1992188,8.4667969 Z M 4.5,9 H 4.984375 C 4.9984704,9 5,9.0015296 5,9.015625 V 13 H 4.5 C 4.2175034,13 4.0000001,12.782498 4,12.5 v -3 C 4,9.2175033 4.2175033,9 4.5,9 Z" />
    <path
   id="path2"
   style="fill:currentColor;opacity:0.4"
   class="ColorScheme-Text"
   d="M 14.755859 2.2617188 C 14.57702 2.2615109 14.411686 2.3568389 14.322266 2.5117188 C 14.183895 2.7511461 14.266157 3.0574256 14.505859 3.1953125 C 17.294979 4.8056098 19.011719 7.7794059 19.011719 11 C 19.011719 14.220595 17.294979 17.194389 14.505859 18.804688 C 14.266154 18.942574 14.183895 19.248854 14.322266 19.488281 C 14.460152 19.727988 14.766432 19.810246 15.005859 19.671875 C 18.102986 17.883749 20.011719 14.576252 20.011719 11 C 20.011719 7.4237469 18.102986 4.1162518 15.005859 2.328125 C 14.929789 2.284444 14.843575 2.261542 14.755859 2.2617188 z M 14.595703 5.9042969 C 14.463103 5.9043169 14.335939 5.957009 14.242188 6.0507812 C 14.046975 6.2460342 14.046975 6.5625596 14.242188 6.7578125 C 15.367535 7.8831626 16 9.4085147 16 11 C 16 12.591484 15.367535 14.116837 14.242188 15.242188 C 14.046975 15.43744 14.046975 15.753966 14.242188 15.949219 C 14.43744 16.144432 14.753966 16.144432 14.949219 15.949219 C 16.26183 14.636605 17 12.856315 17 11 C 17 9.1436847 16.26183 7.3633945 14.949219 6.0507812 C 14.855466 5.9570083 14.728304 5.9043166 14.595703 5.9042969 z " /></svg>
