<?xml version="1.0" encoding="UTF-8" standalone="no"?>
<svg
   height="22"
   width="22"
   version="1.1"
   id="svg1"
   xmlns="http://www.w3.org/2000/svg"
   xmlns:svg="http://www.w3.org/2000/svg">
  <defs
     id="defs1">
    <style
       type="text/css"
       id="current-color-scheme">
            .ColorScheme-Text {
                color:#232629;
            }
        </style>
  </defs>
  <path
     id="path1"
     style="fill:currentColor"
     class="ColorScheme-Text"
     d="M 11,2 C 6.5876531,2 3,5.5876531 3,10 v 7.5 C 3,18.322503 3.6774968,19 4.5,19 H 6 c 1.098645,0 2,-0.901355 2,-2 V 15 C 8,13.901355 7.098645,13 6,13 H 4 v -3 c 0,-3.8719078 3.1280922,-7 7,-7 3.871908,0 7,3.1280922 7,7 v 3 h -2 c -1.098645,0 -2,0.901355 -2,2 v 2 c 0,1.098645 0.901355,2 2,2 h 1.5 C 18.322503,19 19,18.322503 19,17.5 V 10 C 19,5.5876531 15.412347,2 11,2 Z M 4,14 h 2 c 0.5582059,0 1,0.441794 1,1 v 2 c 0,0.558206 -0.4417941,1 -1,1 H 4.5 C 4.2179359,18 4,17.782064 4,17.5 Z m 12,0 h 2 v 3.5 C 18,17.782064 17.782064,18 17.5,18 H 16 c -0.558206,0 -1,-0.441794 -1,-1 v -2 c 0,-0.558206 0.441794,-1 1,-1 z" />
  <path
     id="path3"
     style="fill:currentColor;opacity:0.2"
     class="ColorScheme-Text"
     d="m 4,14 h 2 c 0.5582059,0 1,0.441794 1,1 v 2 c 0,0.558206 -0.4417941,1 -1,1 H 4.5 C 4.2179359,18 4,17.782064 4,17.5 Z m 12,0 h 2 v 3.5 C 18,17.782064 17.782064,18 17.5,18 H 16 c -0.558206,0 -1,-0.441794 -1,-1 v -2 c 0,-0.558206 0.441794,-1 1,-1 z" />
</svg>
