<?xml version="1.0" encoding="UTF-8" standalone="no"?>
<svg
   viewBox="0 0 22 22"
   version="1.1"
   id="svg4"
   xml:space="preserve"
   xmlns="http://www.w3.org/2000/svg"
   xmlns:svg="http://www.w3.org/2000/svg">
    <defs
   id="defs1">
    <style
   type="text/css"
   id="current-color-scheme">
            .ColorScheme-Text {
                color:#232629;
            }
        </style>
  <style
   type="text/css"
   id="current-color-scheme-2">
            .ColorScheme-Text {
                color:#232629;
            }
        </style></defs>
    <path
   id="path1"
   style="fill:currentColor"
   class="ColorScheme-Text"
   d="M 12.087891 4.125 C 11.860385 4.1349642 11.628911 4.2292395 11.462891 4.4160156 L 8.4511719 7.8007812 C 8.3387843 7.9272174 8.1789316 8 8.0097656 8 L 7.9902344 8 C 7.4493663 8 7 8.4493663 7 8.9902344 L 7 12.898438 L 8 11.898438 L 8 9 L 8.0097656 9 C 8.4640091 9 8.8974301 8.8063089 9.1992188 8.4667969 L 12 5.3144531 L 12 7.8984375 L 13 6.8984375 L 13 5 C 13 4.6192033 12.742287 4.2958432 12.431641 4.1777344 C 12.353978 4.1482071 12.271164 4.1304328 12.185547 4.125 C 12.15344 4.1229627 12.120391 4.1235765 12.087891 4.125 z M 4.5 8 C 3.677066 8 3 8.677066 3 9.5 L 3 12.5 C 3.0000003 13.322933 3.6770662 14 4.5 14 L 5 14 C 5.5468293 14 5.9999997 13.546827 6 13 L 6 9.015625 C 6 8.4610925 5.5389075 8 4.984375 8 L 4.5 8 z M 4.5 9 L 4.984375 9 C 4.9984704 9 5 9.0015296 5 9.015625 L 5 13 L 4.5 13 C 4.2175037 13 4.0000001 12.782498 4 12.5 L 4 9.5 C 4 9.2175036 4.2175036 9 4.5 9 z M 13 9.5 L 12 10.5 L 12 16.685547 L 9.1992188 13.533203 C 9.1627219 13.492144 9.1241354 13.452725 9.0839844 13.416016 L 8.3730469 14.126953 C 8.4010472 14.148896 8.4271393 14.172181 8.4511719 14.199219 L 11.462891 17.583984 C 11.715875 17.868596 12.12099 17.940375 12.431641 17.822266 C 12.742288 17.704156 13 17.380798 13 17 L 13 9.5 z " />
    
    <path
   id="path2"
   style="fill:currentColor;opacity:0.4"
   class="ColorScheme-Text"
   d="M 14.755859 2.2617188 C 14.577021 2.2615109 14.411686 2.356839 14.322266 2.5117188 C 14.183895 2.7511458 14.266158 3.0574257 14.505859 3.1953125 C 14.966892 3.4614893 15.397354 3.7659194 15.796875 4.1015625 L 16.505859 3.3925781 C 16.043488 2.9969907 15.543672 2.638631 15.005859 2.328125 C 14.929789 2.284444 14.843575 2.261542 14.755859 2.2617188 z M 17.789062 4.7109375 L 17.078125 5.421875 C 18.311146 6.986644 19.011719 8.9427723 19.011719 11 C 19.011719 14.220592 17.294977 17.19439 14.505859 18.804688 C 14.266155 18.942573 14.183895 19.248854 14.322266 19.488281 C 14.460151 19.727988 14.766433 19.810246 15.005859 19.671875 C 18.102983 17.883751 20.011719 14.576248 20.011719 11 C 20.011719 8.6751867 19.204402 6.4650416 17.789062 4.7109375 z M 15.640625 6.859375 L 14.923828 7.5761719 C 15.618568 8.5747032 16 9.7666317 16 11 C 16 12.591482 15.367533 14.116838 14.242188 15.242188 C 14.046975 15.437439 14.046975 15.753966 14.242188 15.949219 C 14.437439 16.144432 14.753966 16.144432 14.949219 15.949219 C 16.261828 14.636606 17 12.856313 17 11 C 17 9.5012236 16.516853 8.0528951 15.640625 6.859375 z " /><g
   id="g1"
   transform="translate(-0.50731384,0.2424174)"><path
     id="path3"
     style="fill:currentColor"
     class="ColorScheme-Text"
     d="m 19.878483,1.7746232 c -0.08489,0.022497 -0.16236,0.066958 -0.22461,0.1289063 l -16,15.9999995 c -0.1952123,0.195254 -0.1952123,0.511778 0,0.707032 0.1952535,0.195212 0.5117777,0.195212 0.7070312,0 L 20.360905,2.6105607 c 0.195212,-0.1952535 0.195212,-0.5117777 0,-0.7070312 C 20.234601,1.7775899 20.050772,1.7284697 19.878483,1.7746232 Z" /></g></svg>
