<?xml version="1.0" encoding="UTF-8" standalone="no"?>
<svg
   height="22"
   width="22"
   version="1.1"
   id="svg1"
   xmlns="http://www.w3.org/2000/svg"
   xmlns:svg="http://www.w3.org/2000/svg">
  <defs
     id="defs1">
    <style
       type="text/css"
       id="current-color-scheme">
            .ColorScheme-Text {
                color:#232629;
            }
        </style>
  </defs>
  <path
     id="path1"
     style="fill:currentColor"
     class="ColorScheme-Text"
     d="M 11 2 C 6.5876575 2 3 5.5876575 3 10 L 3 16.5 C 3 17.322502 3.6774976 18 4.5 18 L 6 18 C 7.0986439 18 8 17.098644 8 16 L 8 14 C 8 12.901356 7.0986439 12 6 12 L 4 12 L 4 10 C 4 6.1280961 7.1280961 3 11 3 C 14.871904 3 18 6.1280961 18 10 L 18 12 L 16 12 C 14.901356 12 14 12.901356 14 14 L 14 16 C 14 17.098644 14.901356 18 16 18 L 16 18.5 C 16 19.334347 15.334347 20 14.5 20 L 13 20 L 13 19.5 C 13 18.677498 12.322502 18 11.5 18 C 10.677498 18 10 18.677498 10 19.5 C 10 20.322502 10.677498 21 11.5 21 L 14.5 21 C 15.874786 21 17 19.874786 17 18.5 L 17 18 L 17.5 18 C 18.322502 18 19 17.322502 19 16.5 L 19 10 C 19 5.5876575 15.412343 2 11 2 z M 4 13 L 6 13 C 6.5582053 13 7 13.441795 7 14 L 7 16 C 7 16.558205 6.5582053 17 6 17 L 4.5 17 C 4.2179362 17 4 16.782064 4 16.5 L 4 13 z M 16 13 L 18 13 L 18 16.5 C 18 16.782064 17.782064 17 17.5 17 L 16 17 C 15.441795 17 15 16.558205 15 16 L 15 14 C 15 13.441795 15.441795 13 16 13 z M 11.5 19 C 11.782064 19 12 19.217936 12 19.5 L 12 20 L 11.5 20 C 11.217936 20 11 19.782064 11 19.5 C 11 19.217936 11.217936 19 11.5 19 z " />
  <path
     id="path3"
     style="opacity:0.2;fill:currentColor"
     class="ColorScheme-Text"
     d="m 4,13 h 2 c 0.5582059,0 1,0.441794 1,1 v 2 c 0,0.558206 -0.4417941,1 -1,1 H 4.5 C 4.2179359,17 4,16.782064 4,16.5 Z m 12,0 h 2 v 3.5 C 18,16.782064 17.782064,17 17.5,17 H 16 c -0.558206,0 -1,-0.441794 -1,-1 v -2 c 0,-0.558206 0.441794,-1 1,-1 z" />
</svg>
