<?xml version="1.0" encoding="UTF-8" standalone="no"?>
<svg
   height="22"
   width="22"
   version="1.1"
   id="svg1"
   xml:space="preserve"
   xmlns="http://www.w3.org/2000/svg"
   xmlns:svg="http://www.w3.org/2000/svg"><defs
     id="defs1"><style
       type="text/css"
       id="current-color-scheme">
            .ColorScheme-Text {
                color:#232629;
            }
        </style><style
       type="text/css"
       id="current-color-scheme-9">
            .ColorScheme-Text {
                color:#232629;
            }
        </style><style
       type="text/css"
       id="current-color-scheme-3">
            .ColorScheme-Text {
                color:#232629;
            }
        </style><style
       type="text/css"
       id="current-color-scheme-6">
            .ColorScheme-Text {
                color:#232629;
            }
        </style></defs><path
     id="path1"
     style="fill:currentColor"
     class="ColorScheme-Text"
     d="M 10 1 C 9.4477159 1 9 1.4477159 9 2 L 9 3 L 8 3 C 6.3431509 3 5 4.3431509 5 6 L 5 18 C 5 19.656848 6.3431509 21 8 21 L 14 21 C 15.656848 21 17 19.656848 17 18 L 17 16.148438 L 16 17.898438 L 16 18 C 16 19.104566 15.104566 20 14 20 L 8 20 C 6.8954338 20 6 19.104566 6 18 L 6 6 C 6 4.8954338 6.8954338 4 8 4 L 14 4 C 15.104566 4 16 4.8954338 16 6 L 17 6 C 17 4.3431509 15.656848 3 14 3 L 13 3 L 13 2 C 13 1.4477159 12.552284 1 12 1 L 10 1 z M 14.5 7 C 14.261564 7.0000847 14.056355 7.1685036 14.009766 7.4023438 L 13.009766 12.402344 C 12.948225 12.711561 13.184718 12.999875 13.5 13 L 14.890625 13 L 14.009766 17.402344 C 13.90188 17.956394 14.651249 18.236814 14.933594 17.748047 L 18.933594 10.748047 C 19.12385 10.414927 18.883622 10.000481 18.5 10 L 17.808594 10 L 18.947266 7.7226562 C 19.112427 7.3904371 18.87101 7.0003726 18.5 7 L 14.5 7 z M 8 8 C 7.4477165 8 7 8.4477162 7 9 L 7 18 C 7 18.552283 7.4477165 19 8 19 L 14 19 C 14.084562 19 14.165713 18.98851 14.244141 18.96875 C 14.150675 18.955186 14.059895 18.934258 13.974609 18.902344 C 13.376316 18.678458 12.884329 17.945393 13.027344 17.210938 A 1.0001 1.0001 0 0 1 13.029297 17.207031 L 13.671875 14 L 13.5 14 C 12.575279 13.999633 11.848797 13.113968 12.029297 12.207031 L 12.871094 8 L 8 8 z " /><g
     id="g1" /></svg>
