<?xml version="1.0" encoding="UTF-8" standalone="no"?>
<svg
   height="22"
   width="22"
   version="1.1"
   id="svg1"
   xmlns="http://www.w3.org/2000/svg"
   xmlns:svg="http://www.w3.org/2000/svg">
  <defs
     id="defs1">
    <style
       type="text/css"
       id="current-color-scheme">
            .ColorScheme-Text {
                color:#232629;
            }
        </style>
  </defs>
  <path
     id="path1"
     style="fill:currentColor"
     class="ColorScheme-Text"
     d="m 12.678906,13.178906 c -0.127809,0 -0.255581,0.04855 -0.353515,0.146485 -0.195868,0.195868 -0.195868,0.511162 0,0.707031 L 14.792969,16.5 12.325391,18.967578 c -0.195868,0.195869 -0.195868,0.511163 0,0.707031 0.195868,0.195868 0.511162,0.195868 0.707031,0 L 15.5,17.207031 l 2.467578,2.467578 c 0.195869,0.195868 0.511163,0.195868 0.707031,0 0.195868,-0.195868 0.195868,-0.511162 0,-0.707031 L 16.207031,16.5 18.674609,14.032422 c 0.195868,-0.195869 0.195868,-0.511163 0,-0.707031 -0.195868,-0.195868 -0.511162,-0.195868 -0.707031,0 L 15.5,15.792969 13.032422,13.325391 c -0.09793,-0.09793 -0.225706,-0.146485 -0.353516,-0.146485 z" />
  <path
     id="path2"
     style="fill:currentColor;opacity:0.4"
     class="ColorScheme-Text"
     d="M 9 1 C 8.4477171 1 8 1.4477171 8 2 L 8 3 L 7 3 C 5.3431509 3 4 4.3431509 4 6 L 4 18 C 4 19.656848 5.3431509 21 7 21 L 13 21 C 14.310867 21 15.421783 20.158022 15.830078 18.986328 L 15.5 18.65625 L 14.457031 19.699219 L 13.757812 20.398438 C 13.173138 20.983109 12.186237 20.983112 11.601562 20.398438 C 11.48297 20.279845 11.388842 20.144975 11.318359 20 L 7 20 C 5.8954338 20 5 19.104566 5 18 L 5 6 C 5 4.8954338 5.8954338 4 7 4 L 13 4 C 14.104566 4 15 4.8954338 15 6 L 15 13.84375 L 15.5 14.34375 L 16 13.84375 L 16 6 C 16 4.3431509 14.656848 3 13 3 L 12 3 L 12 2 C 12 1.4477171 11.552282 1 11 1 L 9 1 z " />
</svg>
