<?xml version="1.0" encoding="UTF-8" standalone="no"?>
<svg
   height="22"
   width="22"
   version="1.1"
   id="svg1"
   xmlns="http://www.w3.org/2000/svg"
   xmlns:svg="http://www.w3.org/2000/svg">
  <defs
     id="defs1">
    <style
       type="text/css"
       id="current-color-scheme">
            .ColorScheme-Text {
                color:#232629;
            }
        </style>
  </defs>
  <path
     style="fill:currentColor"
     class="ColorScheme-Text"
     d="M 14,19 H 8 C 7.4477153,19 7,18.552285 7,18 v -7 c 0,-0.552285 0.4477153,-1 1,-1 h 6 c 0.552285,0 1,0.447715 1,1 v 7 c 0,0.552285 -0.447715,1 -1,1 z m -6,2 h 6 c 1.656854,0 3,-1.343146 3,-3 V 6 C 17,4.3431458 15.656854,3 14,3 H 13 V 2 C 13,1.4477153 12.552285,1 12,1 H 10 C 9.4477153,1 9,1.4477153 9,2 V 3 H 8 C 6.3431458,3 5,4.3431458 5,6 v 12 c 0,1.656854 1.3431458,3 3,3 z M 6,18 V 6 C 6,4.8954305 6.8954305,4 8,4 h 6 c 1.104569,0 2,0.8954305 2,2 v 12 c 0,1.104569 -0.895431,2 -2,2 H 8 C 6.8954305,20 6,19.104569 6,18 Z"
     id="path1" />
</svg>
