<?xml version="1.0" encoding="UTF-8" standalone="no"?>
<svg
   height="22"
   width="22"
   version="1.1"
   id="svg1"
   xmlns="http://www.w3.org/2000/svg"
   xmlns:svg="http://www.w3.org/2000/svg">
  <defs
     id="defs1">
    <style
       type="text/css"
       id="current-color-scheme">
            .ColorScheme-Text {
                color:#232629;
            }
        </style>
  </defs>
  <path
     id="path1"
     style="fill:currentColor"
     class="ColorScheme-Text"
     d="M 10 1 A 1 1 0 0 0 9 2 L 9 3 L 8 3 C 6.3431492 3 5 4.3431492 5 6 L 5 18 C 5 19.65685 6.3431492 21 8 21 L 14 21 C 15.65685 21 17 19.65685 17 18 L 17 16.148438 L 16 17.898438 L 16 18 C 16 19.104567 15.104567 20 14 20 L 8 20 C 6.8954327 20 6 19.104567 6 18 L 6 6 C 6 4.8954327 6.8954327 4 8 4 L 14 4 C 15.104567 4 16 4.8954327 16 6 L 17 6 C 17 4.3431492 15.65685 3 14 3 L 13 3 L 13 2 A 1 1 0 0 0 12 1 L 10 1 z M 8 5 C 7.4477165 5 7 5.4477165 7 6 L 7 18 C 7 18.552283 7.4477165 19 8 19 L 14 19 C 14.079886 19 14.155997 18.988399 14.230469 18.970703 C 14.14323 18.956343 14.058067 18.933574 13.974609 18.902344 C 13.31663 18.656123 12.893066 17.900524 13.027344 17.210938 A 1.0001 1.0001 0 0 1 13.029297 17.207031 L 13.671875 14 L 13.5 14 C 12.616546 13.999651 11.856853 13.073492 12.029297 12.207031 L 13.029297 7.2070312 C 13.163515 6.533359 13.813088 6.0002439 14.5 6 L 15 6 C 15 5.4477165 14.552283 5 14 5 L 8 5 z M 8 6 L 12.650391 6 C 12.40386 6.3064053 12.13096 6.5994776 12.048828 7.0117188 L 11.048828 12.011719 C 10.810724 13.208094 11.464737 14.319515 12.498047 14.773438 L 12.048828 17.005859 L 12.048828 17.009766 A 1.0001 1.0001 0 0 0 12.044922 17.019531 C 11.976947 17.368618 12.128078 17.673794 12.199219 18 L 8 18 L 8 6 z M 14.5 7 A 0.50005 0.50005 0 0 0 14.009766 7.4023438 L 13.009766 12.402344 A 0.50005 0.50005 0 0 0 13.5 13 L 14.890625 13 L 14.009766 17.402344 A 0.50005 0.50005 0 0 0 14.933594 17.748047 L 18.933594 10.748047 A 0.50005 0.50005 0 0 0 18.5 10 L 17.808594 10 L 18.947266 7.7226562 A 0.50005 0.50005 0 0 0 18.5 7 L 14.5 7 z M 14.910156 8 L 17.691406 8 L 16.914062 9.5527344 A 1.0001 1.0001 0 0 0 17.677734 10.927734 L 15.595703 14.572266 L 15.871094 13.195312 A 1.0001 1.0001 0 0 0 14.890625 12 L 14.109375 12 L 14.910156 8 z " />
  <path
     id="path2"
     style="fill:currentColor;opacity:0.3"
     class="ColorScheme-Text"
     d="m 8,6 v 12 h 4.199219 c -0.07114,-0.326206 -0.222272,-0.631382 -0.154297,-0.980469 0.0013,-0.0033 0.0026,-0.0065 0.0039,-0.0098 v -0.0039 l 0.449219,-2.232421 c -1.03331,-0.453923 -1.687323,-1.565344 -1.449219,-2.761719 l 1,-5.0000003 C 12.13096,6.5994776 12.40386,6.3064053 12.650391,6 Z" />
</svg>
