<?xml version="1.0" encoding="UTF-8"?>
<svg width="22" height="22" version="1.1" xmlns="http://www.w3.org/2000/svg">
 <defs>
  <style id="current-color-scheme" type="text/css">.ColorScheme-Text {
                color:#232629;
            }</style>
 </defs>
 <path class="ColorScheme-Text" d="m13.679 13.179c-0.12781 0-0.25558 0.04855-0.35352 0.14648-0.19587 0.19587-0.19587 0.51116 0 0.70703l2.4676 2.4676-2.4676 2.4676c-0.19587 0.19587-0.19587 0.51116 0 0.70703s0.51116 0.19587 0.70703 0l2.4676-2.4676 2.4676 2.4676c0.19587 0.19587 0.51116 0.19587 0.70703 0s0.19587-0.51116 0-0.70703l-2.4676-2.4676 2.4676-2.4676c0.19587-0.19587 0.19587-0.51116 0-0.70703s-0.51116-0.19587-0.70703 0l-2.4676 2.4676-2.4676-2.4676c-0.09793-0.09793-0.22571-0.14648-0.35352-0.14648z" fill="currentColor"/>
 <path class="ColorScheme-Text" d="m10 1c-0.55228 0-1 0.44772-1 1v1h-1c-1.6568 0-3 1.3432-3 3v12c0 1.6568 1.3432 3 3 3h6c1.3109 0 2.4218-0.84198 2.8301-2.0137l-0.33008-0.33008-1.7422 1.7422c-0.58467 0.58467-1.5716 0.58467-2.1562 0-0.11859-0.11859-0.21272-0.25346-0.2832-0.39844h-4.3184c-1.1046 0-2-0.89543-2-2v-12c0-1.1046 0.89543-2 2-2h6c1.1046 0 2 0.89543 2 2v7.8438l0.5 0.5 0.5-0.5v-7.8438c0-1.6568-1.3432-3-3-3h-1v-1c0-0.55228-0.44772-1-1-1z" fill="currentColor" opacity=".4"/>
</svg>
