<?xml version="1.0" encoding="UTF-8" standalone="no"?>
<svg
   height="22"
   width="22"
   version="1.1"
   id="svg1"
   xmlns="http://www.w3.org/2000/svg"
   xmlns:svg="http://www.w3.org/2000/svg">
  <defs
     id="defs1">
    <style
       type="text/css"
       id="current-color-scheme">
            .ColorScheme-Text {
                color:#232629;
            }
        </style>
  </defs>
  <path
     id="path1"
     style="fill:currentColor"
     class="ColorScheme-Text"
     d="M 10 1 C 9.4477153 1 9 1.4477153 9 2 L 9 3 L 8 3 C 6.3431458 3 5 4.3431458 5 6 L 5 18 C 5 19.656854 6.3431458 21 8 21 L 14 21 C 15.656854 21 17 19.656854 17 18 L 17 6 C 17 4.3431458 15.656854 3 14 3 L 13 3 L 13 2 C 13 1.4477153 12.552285 1 12 1 L 10 1 z M 8 4 L 14 4 C 15.104569 4 16 4.8954305 16 6 L 16 18 C 16 19.104569 15.104569 20 14 20 L 8 20 C 6.8954305 20 6 19.104569 6 18 L 6 6 C 6 4.8954305 6.8954305 4 8 4 z M 8 7 C 7.4477153 7 7 7.4477153 7 8 L 7 18 C 7 18.552285 7.4477153 19 8 19 L 14 19 C 14.552285 19 15 18.552285 15 18 L 15 8 C 15 7.4477153 14.552285 7 14 7 L 8 7 z M 8 8 L 14 8 L 14 18 L 8 18 L 8 8 z " />
  <path
     id="path2"
     style="color:#232629;fill:currentColor;opacity:0.3"
     class="ColorScheme-Text"
     d="m 8,8 v 10 h 6 V 8 Z" />
</svg>
