<?xml version="1.0" encoding="UTF-8" standalone="no"?>
<svg xmlns="http://www.w3.org/2000/svg" xmlns:svg="http://www.w3.org/2000/svg" height="22" width="22" version="1.1" id="svg1" xml:space="preserve">
  <defs id="defs1">
    <style type="text/css" id="current-color-scheme">
            .ColorScheme-Text {
                color:#232629;
            }
        </style>
  </defs>
  <path id="path1" style="fill:currentColor" class="ColorScheme-Text" d="M 10,1 C 9.4477153,1 9,1.4477153 9,2 V 3 H 8 C 6.3431492,3 5,4.3431492 5,6 v 12 c 0,1.65685 1.3431492,3 3,3 h 6 c 1.65685,0 3,-1.34315 3,-3 v -1.851562 l -1,1.75 V 18 c 0,1.104567 -0.895433,2 -2,2 H 8 C 6.8954327,20 6,19.104567 6,18 V 6 C 6,4.8954327 6.8954327,4 8,4 h 6 c 1.104567,0 2,0.8954327 2,2 h 1 C 17,4.3431492 15.65685,3 14,3 H 13 V 2 C 13,1.4477153 12.552285,1 12,1 Z m 4.5,6 c -0.238436,8.47e-5 -0.443645,0.1685034 -0.490234,0.4023438 l -1,5.0000002 C 12.948225,12.711562 13.184718,12.999875 13.5,13 h 1.390625 l -0.880859,4.402344 c -0.107886,0.554051 0.641483,0.834471 0.923828,0.345703 l 4,-7 C 19.12385,10.414927 18.883622,10.000481 18.5,10 H 17.808594 L 18.947266,7.7226562 C 19.112428,7.3904368 18.87101,7.0003726 18.5,7 Z m 0.410156,1 h 2.78125 l -0.777344,1.5527344 c -0.251135,0.5975096 0.123702,1.2724076 0.763672,1.3749996 l -2.082031,3.644532 0.275391,-1.376954 C 15.994176,12.576876 15.52119,12.000248 14.890625,12 h -0.78125 z"/>
  <g id="g1">
    <path id="path5" style="opacity:0.4;fill:currentColor" class="ColorScheme-Text" d="M 8 16 C 7.4477159 16 7 16.447716 7 17 L 7 18 C 7 18.552284 7.4477159 19 8 19 L 14 19 C 14.084562 19 14.165713 18.98851 14.244141 18.96875 C 14.150675 18.955186 14.059895 18.934258 13.974609 18.902344 C 13.376315 18.678458 12.884329 17.945394 13.027344 17.210938 A 1.0001 1.0001 0 0 1 13.029297 17.207031 L 13.271484 16 L 12.509766 16 C 12.499342 16.021078 12.492083 16.037134 12.488281 16.044922 L 12.486328 16.042969 C 12.492723 16.03025 12.499915 16.015722 12.507812 16 L 8 16 z M 12.080078 16.853516 L 12.074219 16.880859 C 12.030027 16.968721 12.049636 16.928566 12.013672 17 L 12.050781 17 L 12.048828 17.009766 A 1.0001 1.0001 0 0 0 12.044922 17.019531 C 11.974508 17.381144 12.133158 17.675337 12.205078 18 L 8 18 L 8 17 L 12.007812 17 C 12.038992 16.937544 12.0478 16.918119 12.080078 16.853516 z "/>
  </g>
</svg>
