<?xml version="1.0" encoding="UTF-8" standalone="no"?>
<svg xmlns="http://www.w3.org/2000/svg" xmlns:svg="http://www.w3.org/2000/svg" height="22" width="22" version="1.1" id="svg1" xml:space="preserve">
  <defs id="defs1">
    <style type="text/css" id="current-color-scheme">
            .ColorScheme-Text {
                color:#232629;
            }
        </style>
  </defs>
  <path id="path1" style="fill:currentColor" class="ColorScheme-Text" d="M 10,1 C 9.4477159,1 9,1.4477159 9,2 V 3 H 8 C 6.3431509,3 5,4.3431509 5,6 v 12 c 0,1.656848 1.3431509,3 3,3 h 6 c 1.656848,0 3,-1.343152 3,-3 v -1.851562 l -1,1.75 V 18 c 0,1.104566 -0.895434,2 -2,2 H 8 C 6.8954338,20 6,19.104566 6,18 V 6 C 6,4.8954338 6.8954338,4 8,4 h 6 c 1.104566,0 2,0.8954338 2,2 h 1 C 17,4.3431509 15.656848,3 14,3 H 13 V 2 C 13,1.4477159 12.552284,1 12,1 Z m 4.5,6 c -0.238436,8.47e-5 -0.443645,0.1685036 -0.490234,0.4023438 l -1,5.0000002 C 12.948225,12.711561 13.184718,12.999875 13.5,13 h 1.390625 l -0.880859,4.402344 c -0.107886,0.55405 0.641483,0.83447 0.923828,0.345703 l 4,-7 C 19.12385,10.414927 18.883622,10.000481 18.5,10 H 17.808594 L 18.947266,7.7226562 C 19.112427,7.3904371 18.87101,7.0003726 18.5,7 Z m 0.410156,1 h 2.78125 l -0.777344,1.5527344 c -0.251135,0.5975096 0.123702,1.2724076 0.763672,1.3749996 l -2.082031,3.644532 0.275391,-1.376954 C 15.994176,12.576876 15.52119,12.000248 14.890625,12 h -0.78125 z M 8,16 c -0.5522835,0 -1,0.447717 -1,1 v 1 c 0,0.552283 0.4477165,1 1,1 h 6 c 0.08456,0 0.165713,-0.01149 0.244141,-0.03125 -0.09347,-0.01356 -0.184246,-0.03449 -0.269532,-0.06641 -0.598293,-0.223886 -1.09028,-0.956951 -0.947265,-1.691406 6.48e-4,-0.0013 0.0013,-0.0026 0.002,-0.0039 L 13.271484,16 Z m 4.013628,0.999997 h 0.03711 l -0.002,0.0098 c -0.0013,0.0032 -0.0026,0.0065 -0.0039,0.0098 -0.07041,0.361613 0.08824,0.655807 0.160156,0.980469 H 8 v -1 z"/>
  <g id="g1"/>
  <path id="path2" style="fill:currentColor;opacity:0.3" class="ColorScheme-Text" d="m 12.050738,16.999997 -0.002,0.0098 c -0.0013,0.0032 -0.0026,0.0065 -0.0039,0.0098 -0.07041,0.361613 0.08824,0.655807 0.160156,0.980469 H 8 v -1 z"/>
</svg>
