<?xml version="1.0" encoding="UTF-8" standalone="no"?>
<svg xmlns="http://www.w3.org/2000/svg" xmlns:svg="http://www.w3.org/2000/svg" height="22" width="22" version="1.1" id="svg1">
  <defs id="defs1">
    <style type="text/css" id="current-color-scheme">
            .ColorScheme-Text {
                color:#232629;
            }
        </style>
  </defs>
  <path id="path1" style="fill:currentColor" class="ColorScheme-Text" d="M 10 1 A 1 1 0 0 0 9 2 L 9 3 L 8 3 C 6.3431458 3 5 4.3431458 5 6 L 5 18 C 5 19.656854 6.3431458 21 8 21 L 14 21 C 15.656854 21 17 19.656854 17 18 L 17 6 C 17 4.3431458 15.656854 3 14 3 L 13 3 L 13 2 A 1 1 0 0 0 12 1 L 10 1 z M 8 4 L 14 4 C 15.104569 4 16 4.8954305 16 6 L 16 18 C 16 19.104569 15.104569 20 14 20 L 8 20 C 6.8954305 20 6 19.104569 6 18 L 6 6 C 6 4.8954305 6.8954305 4 8 4 z M 8 5 C 7.4477153 5 7 5.4477153 7 6 L 7 18 C 7 18.552285 7.4477153 19 8 19 L 14 19 C 14.552285 19 15 18.552285 15 18 L 15 6 C 15 5.4477153 14.552285 5 14 5 L 8 5 z M 7.984375 5.984375 L 7.9863281 5.984375 C 7.9887672 5.9845338 7.9948043 5.984375 8 5.984375 L 14 5.984375 C 14.005196 5.984375 14.00928 5.9845339 14.011719 5.984375 L 14.013672 5.984375 L 14.015625 5.984375 L 14.015625 5.9863281 C 14.015466 5.9887672 14.015625 5.9948042 14.015625 6 L 14.015625 18 C 14.015625 18.005196 14.015466 18.00928 14.015625 18.011719 L 14.015625 18.013672 L 14.015625 18.015625 L 14.013672 18.015625 C 14.011233 18.015466 14.005196 18.015625 14 18.015625 L 8 18.015625 C 7.9948042 18.015625 7.9907203 18.015466 7.9882812 18.015625 L 7.9863281 18.015625 L 7.984375 18.015625 L 7.984375 18.013672 C 7.9845339 18.011233 7.984375 18.005196 7.984375 18 L 7.984375 6 C 7.984375 5.9948043 7.9845338 5.9907203 7.984375 5.9882812 L 7.984375 5.9863281 L 7.984375 5.984375 z "/>
  <path id="path2" style="fill:currentColor;opacity:0.3" class="ColorScheme-Text" d="M 8,5.984375 C 7.979217,5.984375 7.984375,5.979217 7.984375,6 v 12 c 0,0.02078 -0.00516,0.01563 0.015625,0.01563 h 6 c 0.02078,0 0.01563,0.0052 0.01563,-0.01563 V 6 c 0,-0.020783 0.0052,-0.015625 -0.01563,-0.015625 z"/>
</svg>
