<?xml version="1.0" encoding="UTF-8" standalone="no"?>
<svg
   height="22"
   width="22"
   version="1.1"
   id="svg1"
   xmlns="http://www.w3.org/2000/svg"
   xmlns:svg="http://www.w3.org/2000/svg">
  <defs
     id="defs1">
    <style
       type="text/css"
       id="current-color-scheme">
            .ColorScheme-Text {
                color:#232629;
            }
        </style>
  </defs>
  <path
     id="path1"
     style="fill:currentColor"
     class="ColorScheme-Text"
     d="M 10,1 C 9.4477153,1 9,1.4477153 9,2 V 3 H 8 C 6.3431492,3 5,4.3431492 5,6 v 12 c 0,1.65685 1.3431492,3 3,3 h 6 c 1.65685,0 3,-1.34315 3,-3 v -1.851562 l -1,1.75 V 18 c 0,1.104567 -0.895433,2 -2,2 H 8 C 6.8954327,20 6,19.104567 6,18 V 6 C 6,4.8954327 6.8954327,4 8,4 h 6 c 1.104567,0 2,0.8954327 2,2 h 1 C 17,4.3431492 15.65685,3 14,3 H 13 V 2 C 13,1.4477153 12.552285,1 12,1 Z m 4.5,6 c -0.238436,8.47e-5 -0.443645,0.1685034 -0.490234,0.4023438 l -1,5.0000002 C 12.948225,12.711562 13.184718,12.999875 13.5,13 h 1.390625 l -0.880859,4.402344 c -0.107886,0.554051 0.641483,0.834471 0.923828,0.345703 l 4,-7 C 19.12385,10.414927 18.883622,10.000481 18.5,10 H 17.808594 L 18.947266,7.7226562 C 19.112428,7.3904367 18.87101,7.0003726 18.5,7 Z" />
</svg>
