<?xml version="1.0" encoding="UTF-8" standalone="no"?>
<svg xmlns="http://www.w3.org/2000/svg" xmlns:svg="http://www.w3.org/2000/svg" version="1.1" viewBox="0 0 22 22" id="svg1">
  <defs>
    <style id="current-color-scheme" type="text/css">.ColorScheme-Text { color:#232629; }</style>
  </defs>
  <path id="smartphone" class="ColorScheme-Text" d="M 5,4 C 3.892,4 3,4.89201 3,6 v 4 c 0,2.209139 1.790861,4 4,4 h 2 v 4 H 7 C 6.72386,18 6.5,18.22386 6.5,18.5 6.5,18.77614 6.72386,19 7,19 h 8 c 0.27614,0 0.5,-0.22386 0.5,-0.5 C 15.5,18.22386 15.27614,18 15,18 h -2 v -4 h 2 c 2.209139,0 4,-1.790861 4,-4 V 6 C 19,4.892 18.10799,4 17,4 h -6 z m 0,1 h 12 c 0.55399,0 1,0.446 1,1 v 4 c 0,1.656854 -1.343146,3 -3,3 H 7 C 5.3431458,13 4,11.656854 4,10 V 6 C 4,5.446 4.446,5 5,5 Z m 5,9 h 2 v 4 h -2 z" fill="currentColor"/>
  <circle style="opacity:1;fill:#ff4e4e;stroke:none;stroke-linecap:round;stroke-linejoin:round;paint-order:fill markers stroke;fill-opacity:1" id="path1" cx="5.5" cy="6.5" r="0.5"/>
  <path id="circle1" style="opacity:1;fill:#ff4e4e;fill-opacity:1;stroke:none;stroke-width:1;stroke-linecap:round;stroke-linejoin:round;paint-order:fill markers stroke" d="M 11 6 A 3 3 0 0 0 8 9 A 3 3 0 0 0 11 12 A 3 3 0 0 0 14 9 A 3 3 0 0 0 11 6 z M 11 7 A 1.999999 1.999999 0 0 1 13 9 A 1.999999 1.999999 0 0 1 11 11 A 1.999999 1.999999 0 0 1 9 9 A 1.999999 1.999999 0 0 1 11 7 z "/>
  <circle style="opacity:0.4635785;fill:#ff4e4e;fill-opacity:1;stroke:none;stroke-width:1;stroke-linecap:round;stroke-linejoin:round;paint-order:fill markers stroke" id="circle2" cx="10.999999" cy="8.999999" r="1.999999"/>
</svg>
