<?xml version="1.0" encoding="UTF-8"?>
<svg version="1.1" viewBox="0 0 22 22" xml:space="preserve" xmlns="http://www.w3.org/2000/svg">
  <defs>
    <style id="current-color-scheme" type="text/css">.ColorScheme-Text { color:#232629; }</style>
  </defs>
  
  
  <path id="smartphone" class="ColorScheme-Text" d="m5 4c-1.108 0-2 0.892-2 2v4c0 1.8927 1.3141 3.4791 3.0801 3.8945l0.89453-0.89453c-1.6451-0.013704-2.9746-1.3517-2.9746-3v-4c0-0.554 0.44601-1 1-1h9.9746l1-1h-4.9746zm12.357 0.03125-0.96875 0.96875h0.61133c0.554 0 1 0.446 1 1v4c0 1.6569-1.3431 3-3 3h-6.6113l-1 1h1.6113v4h-2c-0.27614 0-0.5 0.22386-0.5 0.5s0.22386 0.5 0.5 0.5h8c0.27614 0 0.5-0.22386 0.5-0.5s-0.22386-0.5-0.5-0.5h-2v-4h2c2.2091 0 4-1.7909 4-4v-4c0-0.98609-0.70606-1.8014-1.6426-1.9688zm-6.3574 1.9688c-1.6569 0-3 1.3431-3 3-4.172e-4 0.78959 0.31047 1.5475 0.86523 2.1094l0.70703-0.70898c-0.36675-0.37387-0.57222-0.87667-0.57227-1.4004-6e-7 -1.1046 0.89543-2 2-2 0.52372 4.47e-5 1.0265 0.20552 1.4004 0.57227l0.70898-0.70703c-0.56186-0.55476-1.3198-0.86565-2.1094-0.86523zm5.5 0c-0.27614 0-0.5 0.22386-0.5 0.5s0.22386 0.5 0.5 0.5 0.5-0.22386 0.5-0.5-0.22386-0.5-0.5-0.5zm-6.5 8h2v4h-2z" fill="currentColor" opacity=".4"/>
  <g transform="translate(.24448 .30195)">
    <g transform="translate(.29462 .2059)">
    <path class="ColorScheme-Text" d="m18.332 2.0095c-0.08489 0.022497-0.16236 0.066958-0.22461 0.12891l-16 16c-0.19521 0.19525-0.19521 0.51178 0 0.70703 0.19525 0.19521 0.51178 0.19521 0.70703 0l16-16c0.19521-0.19525 0.19521-0.51178 0-0.70703-0.1263-0.12594-0.31013-0.17506-0.48242-0.12891z" fill="currentColor"/>
  </g>
  </g>
  
</svg>
