<?xml version="1.0" encoding="UTF-8"?>
<svg xmlns="http://www.w3.org/2000/svg" version="1.1" viewBox="0 0 22 22">
  <defs>
    <style id="current-color-scheme" type="text/css">.ColorScheme-Text { color:#232629; }</style>
  </defs>
  <path id="smartphone" class="ColorScheme-Text" d="m5 4c-1.108 0-2 0.89201-2 2v4a4 4 45 0 0 4 4h2v4h-2c-0.27614 0-0.5 0.22386-0.5 0.5s0.22386 0.5 0.5 0.5h8c0.27614 0 0.5-0.22386 0.5-0.5s-0.22386-0.5-0.5-0.5h-2v-4h2a4 4 135 0 0 4-4v-4c0-1.108-0.89201-2-2-2zm0 1h12c0.55399 0 1 0.446 1 1v4a3 3 135 0 1-3 3h-8a3 3 45 0 1-3-3v-4c0-0.554 0.446-1 1-1zm0.5 1c-0.27614 0-0.5 0.22386-0.5 0.5s0.22386 0.5 0.5 0.5 0.5-0.22386 0.5-0.5-0.22386-0.5-0.5-0.5zm5.5 0c-1.6569 0-3 1.3431-3 3 0 1.6569 1.3431 3 3 3 1.6569 0 3-1.3431 3-3 0-1.6569-1.3431-3-3-3zm0 1c1.1046 0 2 0.89543 2 2 0 1.1046-0.89543 2-2 2-1.1046 0-2-0.89543-2-2 0-1.1046 0.89543-2 2-2zm-1 7h2v4h-2z" fill="currentColor"/>
</svg>
