<?xml version="1.0" encoding="UTF-8" standalone="no"?>
<svg
   height="22"
   width="22"
   version="1.1"
   id="svg1"
   xml:space="preserve"
   xmlns="http://www.w3.org/2000/svg"
   xmlns:svg="http://www.w3.org/2000/svg"><defs
     id="defs1"><style
       type="text/css"
       id="current-color-scheme">
            .ColorScheme-Text {
                color:#232629;
            }
        </style><style
       type="text/css"
       id="current-color-scheme-5">
            .ColorScheme-Text {
                color:#232629;
            }
        </style></defs><path
     id="path1"
     style="fill:currentColor"
     class="ColorScheme-Text"
     d="M 4.0371094,5.9628906 C 2.9180106,5.9628906 2,6.8809012 2,8 v 5.037109 c 0,2.203211 1.7967899,4 4,4 h 6.962891 C 14.08199,17.037109 15,16.119099 15,15 v -0.958984 l 3.40625,2.724609 C 19.02203,17.25825 20,16.788583 20,16 V 7 C 20,6.6057081 19.754923,6.2911581 19.433594,6.1367188 19.112263,5.9822794 18.714141,5.9880627 18.40625,6.234375 L 15,8.9589844 V 8 C 15,6.8809012 14.08199,5.9628906 12.962891,5.9628906 Z m 0,1 H 12.962891 C 13.54155,6.9628906 14,7.4213398 14,8 v 3 1 3 c 0,0.578659 -0.45845,1.037109 -1.037109,1.037109 H 6 c -1.6627715,0 -3,-1.337227 -3,-3 V 8 C 3,7.4213398 3.4584492,6.9628906 4.0371094,6.9628906 Z M 19,7.0410156 V 15.958984 L 15.59375,13.234375 C 15.218513,12.934186 15,12.480538 15,12 v -1 c 0,-0.480536 0.218513,-0.934186 0.59375,-1.234375 z" /><g
     id="g9" /><path
     id="path4"
     style="opacity:0.05;fill:currentColor"
     class="ColorScheme-Text"
     d="M 4.0371094,6.9628906 H 12.962891 C 13.54155,6.9628906 14,7.4213398 14,8 v 3 1 3 c 0,0.578659 -0.45845,1.037109 -1.037109,1.037109 H 6 c -1.6627715,0 -3,-1.337227 -3,-3 V 8 C 3,7.4213398 3.4584492,6.9628906 4.0371094,6.9628906 Z" /></svg>
