<?xml version="1.0" encoding="UTF-8" standalone="no"?>
<svg
   version="1.1"
   viewBox="0 0 22 22"
   id="svg1"
   sodipodi:docname="camera-photo-symbolic.svg"
   inkscape:version="1.3.2 (091e20ef0f, 2023-11-25, custom)"
   xmlns:inkscape="http://www.inkscape.org/namespaces/inkscape"
   xmlns:sodipodi="http://sodipodi.sourceforge.net/DTD/sodipodi-0.dtd"
   xmlns="http://www.w3.org/2000/svg"
   xmlns:svg="http://www.w3.org/2000/svg">
  <sodipodi:namedview
     id="namedview1"
     pagecolor="#ffffff"
     bordercolor="#666666"
     borderopacity="1.0"
     inkscape:showpageshadow="2"
     inkscape:pageopacity="0.0"
     inkscape:pagecheckerboard="0"
     inkscape:deskcolor="#d1d1d1"
     showgrid="true"
     inkscape:zoom="10.185403"
     inkscape:cx="18.555967"
     inkscape:cy="8.8852645"
     inkscape:window-width="1640"
     inkscape:window-height="838"
     inkscape:window-x="210"
     inkscape:window-y="360"
     inkscape:window-maximized="0"
     inkscape:current-layer="svg1">
    <inkscape:grid
       id="grid3"
       units="px"
       originx="0"
       originy="0"
       spacingx="1"
       spacingy="1"
       empcolor="#0099e5"
       empopacity="0.30196078"
       color="#0099e5"
       opacity="0.14901961"
       empspacing="5"
       dotted="false"
       gridanglex="30"
       gridanglez="30"
       visible="true" />
  </sodipodi:namedview>
  <defs
     id="defs1">
    <style
       id="current-color-scheme"
       type="text/css">
        .ColorScheme-Text {
          color:#232629;
        }
      </style>
  </defs>
  <path
     id="smartphone"
     style="fill:currentColor"
     class="ColorScheme-Text"
     d="M 15.5 2 C 15.223 2 15 2.2230003 15 2.5 C 15 2.7769997 15.223 3 15.5 3 L 17.5 3 C 17.777 3 18 2.7769997 18 2.5 C 18 2.2230003 17.777 2 17.5 2 L 15.5 2 z M 3 4 C 1.8920044 4 1 4.8920044 1 6 L 1 17 C 1 18.107996 1.8920044 19 3 19 L 19 19 C 20.107996 19 21 18.107996 21 17 L 21 6 C 21 4.8920044 20.107996 4 19 4 L 3 4 z M 3 5 L 19 5 C 19.553996 5 20 5.4460024 20 6 L 20 17 C 20 17.553996 19.553996 18 19 18 L 3 18 C 2.4460024 18 2 17.553996 2 17 L 2 6 C 2 5.4460024 2.4460024 5 3 5 z M 3.5 6 A 0.5 0.5 0 0 0 3 6.5 A 0.5 0.5 0 0 0 3.5 7 L 6.5 7 A 0.5 0.5 0 0 0 7 6.5 A 0.5 0.5 0 0 0 6.5 6 L 3.5 6 z M 13.742188 6.1367188 C 10.803719 6.1367188 8.4101563 8.5302844 8.4101562 11.46875 C 8.4101562 14.407215 10.803719 16.798828 13.742188 16.798828 C 16.680653 16.798828 19.072266 14.407215 19.072266 11.46875 C 19.072266 8.5302844 16.680653 6.1367187 13.742188 6.1367188 z M 13.742188 7.1367188 C 16.140213 7.1367188 18.072266 9.0707225 18.072266 11.46875 C 18.072266 13.866779 16.140213 15.798828 13.742188 15.798828 C 11.344159 15.798828 9.4101563 13.866779 9.4101562 11.46875 C 9.4101562 9.0707225 11.344159 7.1367187 13.742188 7.1367188 z M 3.5 8 A 0.5 0.5 0 0 0 3 8.5 A 0.5 0.5 0 0 0 3.5 9 L 6.5 9 A 0.5 0.5 0 0 0 7 8.5 A 0.5 0.5 0 0 0 6.5 8 L 3.5 8 z M 3.5 16 A 0.5 0.5 0 0 0 3 16.5 A 0.5 0.5 0 0 0 3.5 17 A 0.5 0.5 0 0 0 4 16.5 A 0.5 0.5 0 0 0 3.5 16 z " />
  <path
     id="path1"
     style="opacity:0.05;fill:currentColor"
     class="ColorScheme-Text"
     d="M 3 5 C 2.4460012 5 2 5.4460012 2 6 L 2 17 C 2 17.553998 2.4460012 18 3 18 L 19 18 C 19.553998 18 20 17.553998 20 17 L 20 6 C 20 5.4460012 19.553998 5 19 5 L 3 5 z M 13.742188 6.6367188 A 4.8313069 4.8313069 0 0 1 18.572266 11.46875 A 4.8313069 4.8313069 0 0 1 13.742188 16.298828 A 4.8313069 4.8313069 0 0 1 8.9101562 11.46875 A 4.8313069 4.8313069 0 0 1 13.742188 6.6367188 z " />
</svg>
