<?xml version="1.0" encoding="UTF-8" standalone="no"?>
<svg
   height="22"
   width="22"
   version="1.1"
   id="svg1"
   xmlns="http://www.w3.org/2000/svg"
   xmlns:svg="http://www.w3.org/2000/svg">
  <defs
     id="defs1">
    <style
       type="text/css"
       id="current-color-scheme">
            .ColorScheme-Text {
                color:#232629;
            }
        </style>
  </defs>
  <path
     id="path1"
     style="fill:currentColor"
     class="ColorScheme-Text"
     d="M 11.480469,5 C 10.715768,5 9.9854789,5.3189537 9.4667969,5.8808594 L 6.8339844,8.734375 C 6.702848,8.8764399 6.533267,8.9765455 6.3457031,9.0234375 L 4.640625,9.4492188 C 3.0916233,9.8364674 2,11.233406 2,12.830078 v 1.773438 C 2,15.369307 2.6306922,16 3.3964844,16 h 0.6679687 c 0.2359662,1.130672 1.2435229,1.988281 2.4414063,1.988281 1.1978833,0 2.2054402,-0.857609 2.4414062,-1.988281 h 5.1171874 c 0.235966,1.130672 1.243524,1.988281 2.441406,1.988281 1.197884,0 2.20544,-0.857609 2.441407,-1.988281 h 0.65625 C 20.369307,16 21,15.369307 21,14.603516 V 12.064453 C 21,10.951106 20.705073,9.8576113 20.146484,8.8945312 L 18.525391,6.0976562 C 18.131657,5.4188075 17.403908,5 16.619141,5 Z m 0,1 h 5.138672 c 0.429799,0 0.825375,0.2278175 1.041015,0.5996094 l 1.621094,2.796875 C 19.751457,10.207186 20,11.127264 20,12.064453 v 2.539063 C 20,14.828867 19.828867,15 19.603516,15 h -0.652344 c -0.231297,-1.13663 -1.243178,-2 -2.445313,-2 -1.202133,0 -2.214016,0.86337 -2.445312,2 H 8.9511719 C 8.7198755,13.86337 7.7079937,13 6.5058594,13 5.303725,13 4.2918431,13.86337 4.0605469,15 H 3.3964844 C 3.1711298,15 3,14.828867 3,14.603516 V 12.830078 C 3,11.687123 3.7739836,10.69713 4.8828125,10.419922 L 6.5898438,9.9921875 C 6.9663422,9.8980576 7.3070819,9.6972771 7.5703125,9.4121094 L 10.201172,6.5605469 C 10.530883,6.203361 10.99437,6 11.480469,6 Z m 0.30664,1 C 11.46827,7 11.16301,7.1301309 10.941406,7.359375 l -1.3906248,1.4375 C 9.1662572,9.1946596 9.1015141,9.7648857 9.2890625,10.207031 9.4766109,10.64918 9.9330743,11 10.486328,11 h 6.103516 c 0.910064,0 1.537195,-0.98391 1.152344,-1.8085938 L 16.974609,7.5488281 C 16.818889,7.215135 16.481523,7 16.113281,7 Z m 0,1 h 4.294922 l 0.753907,1.6152344 C 16.927966,9.8124462 16.807472,10 16.589844,10 h -6.103516 c -0.152871,0 -0.231167,-0.07473 -0.277344,-0.1835938 -0.04618,-0.1088608 -0.0457,-0.2143098 0.06055,-0.3242187 l 1.390625,-1.4375 C 11.693637,8.0200485 11.738932,8 11.787109,8 Z M 6.5058594,14 C 7.3368551,14 8,14.663143 8,15.494141 c 0,0.830995 -0.6631449,1.49414 -1.4941406,1.49414 -0.8309959,0 -1.4941406,-0.663145 -1.4941406,-1.49414 C 5.0117188,14.663143 5.6748635,14 6.5058594,14 Z m 9.9999996,0 C 17.336857,14 18,14.663143 18,15.494141 c 0,0.830995 -0.663143,1.49414 -1.494141,1.49414 -0.830995,0 -1.49414,-0.663145 -1.49414,-1.49414 C 15.011719,14.663143 15.674864,14 16.505859,14 Z" />
  <g
     id="path4" />
  <g
     id="circle4" />
  <path
     id="path8"
     style="fill:currentColor;opacity:0.1"
     class="ColorScheme-Text"
     d="m 11.787109,8 h 4.294922 l 0.753907,1.6152344 C 16.927966,9.8124462 16.807472,10 16.589844,10 h -6.103516 c -0.152871,0 -0.231167,-0.07473 -0.277344,-0.1835938 -0.04618,-0.1088608 -0.0457,-0.2143098 0.06055,-0.3242187 l 1.390625,-1.4375 C 11.693637,8.0200485 11.738932,8 11.787109,8 Z M 6.5058594,14 C 7.3368551,14 8,14.663143 8,15.494141 c 0,0.830995 -0.6631449,1.49414 -1.4941406,1.49414 -0.8309959,0 -1.4941406,-0.663145 -1.4941406,-1.49414 C 5.0117188,14.663143 5.6748635,14 6.5058594,14 Z m 9.9999996,0 C 17.336857,14 18,14.663143 18,15.494141 c 0,0.830995 -0.663143,1.49414 -1.494141,1.49414 -0.830995,0 -1.49414,-0.663145 -1.49414,-1.49414 C 15.011719,14.663143 15.674864,14 16.505859,14 Z" />
</svg>
