<svg width="22" height="22" version="1.1" xmlns="http://www.w3.org/2000/svg">
 <defs>
  <style id="current-color-scheme" type="text/css">.ColorScheme-Text { color:#232629; }</style>
 </defs>
 <g class="ColorScheme-Text" fill="none" stroke="currentColor" stroke-linecap="round" stroke-linejoin="round" style="paint-order:markers stroke fill">
  <path d="m15.891 4.1964a8.3788 8.3788 0 012.7994 10.128 8.3788 8.3788 0 01-9.2953 4.899 8.3788 8.3788 0 01-6.7722-8.0337 8.3788 8.3788 0 016.4009-8.3326"/>
  <path d="m12.93 2.8457a1.93 1.93 0 01-1.93 1.93 1.93 1.93 0 01-1.93-1.93 1.93 1.93 0 011.93-1.93 1.93 1.93 0 011.93 1.93z"/>
  <path d="m10.407 9.5h1.1861c.50244 0 .90693.40449.90693.90693v1.1861c0 .50244-.40449.90693-.90693.90693h-1.1861c-.50244 0-.90693-.40449-.90693-.90693v-1.1861c0-.50244.40449-.90693.90693-.90693z"/>
 </g>
</svg>
