<?xml version="1.0" encoding="UTF-8" standalone="no"?>
<svg xmlns="http://www.w3.org/2000/svg" xmlns:svg="http://www.w3.org/2000/svg" version="1.1" viewBox="0 0 22 22" id="svg1">
  <defs id="defs1">
    <style id="current-color-scheme" type="text/css">
        .ColorScheme-Text {
          color:#232629;
        }
      </style>
  </defs>
  <path id="smartphone" style="fill:currentColor" class="ColorScheme-Text" d="M 4,3 C 2.8920022,3 2,3.8920022 2,5 v 10 c 0,1.107998 0.8920022,2 2,2 h 14 c 1.107998,0 2,-0.892002 2,-2 V 5 C 20,3.8920022 19.107998,3 18,3 Z m 0,1 h 14 c 0.553998,0 1,0.4460012 1,1 v 10 c 0,0.553998 -0.446002,1 -1,1 H 4 C 3.4460012,16 3,15.553998 3,15 V 5 C 3,4.4460012 3.4460012,4 4,4 Z M 2,18 C 1.7238576,18 1.5,18.223858 1.5,18.5 1.5,18.776142 1.7238576,19 2,19 h 18 c 0.276142,0 0.5,-0.223858 0.5,-0.5 C 20.5,18.223858 20.276142,18 20,18 Z"/>
</svg>
