<?xml version="1.0" encoding="UTF-8" standalone="no"?>
<svg xmlns:inkscape="http://www.inkscape.org/namespaces/inkscape" xmlns:sodipodi="http://sodipodi.sourceforge.net/DTD/sodipodi-0.dtd" xmlns="http://www.w3.org/2000/svg" xmlns:svg="http://www.w3.org/2000/svg" version="1.1" viewBox="0 0 22 22" id="svg1" sodipodi:docname="device-notifier-symbolic.svg" inkscape:version="1.4.3 (0d15f75042, 2025-12-25)">
  <defs>
    <style id="current-color-scheme" type="text/css">.ColorScheme-Text { color:#232629; }</style>
  </defs>
  <sodipodi:namedview id="namedview1" pagecolor="#505050" bordercolor="#eeeeee" borderopacity="1" inkscape:showpageshadow="0" inkscape:pageopacity="0" inkscape:pagecheckerboard="0" inkscape:deskcolor="#505050" showgrid="true" inkscape:zoom="32.965538" inkscape:cx="9.2672535" inkscape:cy="17.927813" inkscape:current-layer="svg1">
    <inkscape:grid id="grid1" units="px" originx="0" originy="0" spacingx="1" spacingy="1" empcolor="#0099e5" empopacity="0.30196078" color="#0099e5" opacity="0.14902" empspacing="2" enabled="true" visible="true"/>
  </sodipodi:namedview>
  <defs id="defs1">
    </defs>
  <path id="smartphone" class="ColorScheme-Text" d="M 7 1 C 6.446 1 6 1.446 6 2 L 6 6 C 4.892 6 4 6.892 4 8 L 4 17 C 4 18.108 4.892 19 6 19 L 11 19 C 11.184377 19 11.365717 18.990152 11.544922 18.970703 C 11.605051 18.410077 11.874294 18.061482 12.128906 17.837891 C 11.770953 17.942977 11.391949 18 11 18 L 6 18 C 5.446 18 5 17.554 5 17 L 5 8 C 5 7.446 5.446 7 6 7 L 14 7 C 14.554 7 15 7.446 15 8 L 15 11.365234 C 15.092781 11.32187 15.187905 11.282998 15.285156 11.248047 C 15.477728 10.979299 15.715112 10.748987 16 10.605469 L 16 8 C 16 6.892 15.108 6 14 6 L 14 2 C 14 1.446 13.554 1 13 1 L 7 1 z M 7 2 L 13 2 L 13 6 L 7 6 L 7 2 z M 8.5 3 C 8.223 3 8 3.223 8 3.5 L 8 3.9003906 C 8 4.1773906 8.223 4.4003906 8.5 4.4003906 C 8.777 4.4003906 9 4.1773906 9 3.9003906 L 9 3.5 C 9 3.223 8.777 3 8.5 3 z M 11.5 3 C 11.223 3 11 3.223 11 3.5 L 11 3.9003906 C 11 4.1773906 11.223 4.4003906 11.5 4.4003906 C 11.777 4.4003906 12 4.1773906 12 3.9003906 L 12 3.5 C 12 3.223 11.777 3 11.5 3 z M 11.5 14 C 11.22386 14 11 14.22386 11 14.5 C 11 14.77614 11.22386 15 11.5 15 C 11.77614 15 12 14.77614 12 14.5 C 12 14.22386 11.77614 14 11.5 14 z "/>
  <path style="fill:none;stroke:#000000;stroke-width:1;stroke-linecap:round;stroke-linejoin:round;paint-order:fill markers stroke" d="m 15.796609,19.783124 c 0,0.163484 0.04427,0.316522 0.121358,0.447611 0.151753,0.258 0.430671,0.430948 0.749646,0.430948 0.477014,-0.0041 0.860445,-0.39741 0.856414,-0.878559 V 19.500086 H 20 c 0.15901,0 0.287904,-0.130015 0.287904,-0.290401 0,-0.160392 -0.140817,-0.302715 -0.256255,-0.407673 -0.564603,-0.51336 -1.04729,-2.62186 -1.251661,-4.52459 -0.103206,-0.960926 -0.877731,-1.746924 -1.83177,-1.746924 v -0.298064 c 0,-0.156157 -0.125499,-0.282736 -0.280306,-0.282736 h -0.01528 c -0.154809,2e-6 -0.280306,0.126587 -0.280306,0.282736 v 0.298064 c -0.954037,0 -1.740437,0.784763 -1.82348,1.74801 -0.167593,1.943958 -0.555646,4.102327 -1.245546,4.554806 -0.131389,0.08617 -0.270658,0.215989 -0.270658,0.376371 0,0.160392 0.128896,0.290401 0.287902,0.290401 h 3.224524" id="path3" sodipodi:nodetypes="cscccccccccccscssccc"/>
</svg>
