<?xml version="1.0" encoding="UTF-8"?>
<svg xmlns="http://www.w3.org/2000/svg" version="1.1" viewBox="0 0 22 22">
  <defs>
    <style id="current-color-scheme" type="text/css">.ColorScheme-Text { color:#232629; }</style>
  </defs>
  <path  class="ColorScheme-Text" d="m7 1c-0.554 0-1 0.446-1 1v4c-1.108 0-2 0.892-2 2v9c0 1.108 0.892 2 2 2h5c0.18438 0 0.36572-0.009848 0.54492-0.029297 0.060129-0.56063 0.32937-0.90922 0.58398-1.1328-0.35795 0.10509-0.73696 0.16211-1.1289 0.16211h-5c-0.554 0-1-0.446-1-1v-9c0-0.554 0.446-1 1-1h8c0.554 0 1 0.446 1 1v3.3652c0.092781-0.043364 0.1879-0.082236 0.28516-0.11719 0.19257-0.26875 0.42996-0.49906 0.71484-0.64258v-2.6055c0-1.108-0.892-2-2-2v-4c0-0.554-0.446-1-1-1h-6zm0 1h6v4h-6v-4zm1.5 1c-0.277 0-0.5 0.223-0.5 0.5v0.40039c0 0.277 0.223 0.5 0.5 0.5s0.5-0.223 0.5-0.5v-0.40039c0-0.277-0.223-0.5-0.5-0.5zm3 0c-0.277 0-0.5 0.223-0.5 0.5v0.40039c0 0.277 0.223 0.5 0.5 0.5s0.5-0.223 0.5-0.5v-0.40039c0-0.277-0.223-0.5-0.5-0.5zm0 11c-0.27614 0-0.5 0.22386-0.5 0.5s0.22386 0.5 0.5 0.5 0.5-0.22386 0.5-0.5-0.22386-0.5-0.5-0.5z"/>
  <path d="m15.797 19.783c0 0.16348 0.04427 0.31652 0.12136 0.44761 0.15175 0.258 0.43067 0.43095 0.74965 0.43095 0.47701-0.0041 0.86044-0.39741 0.85641-0.87856v-0.28304h2.476c0.15901 0 0.2879-0.13002 0.2879-0.2904 0-0.16039-0.14082-0.30272-0.25626-0.40767-0.5646-0.51336-1.0473-2.6219-1.2517-4.5246-0.10321-0.96093-0.87773-1.7469-1.8318-1.7469v-0.29806c0-0.15616-0.1255-0.28274-0.28031-0.28274h-0.01528c-0.15481 2e-6 -0.28031 0.12659-0.28031 0.28274v0.29806c-0.95404 0-1.7404 0.78476-1.8235 1.748-0.16759 1.944-0.55565 4.1023-1.2455 4.5548-0.13139 0.08617-0.27066 0.21599-0.27066 0.37637 0 0.16039 0.1289 0.2904 0.2879 0.2904h3.2245" fill="none" stroke="currentColor" stroke-linecap="round" stroke-linejoin="round" style="paint-order:fill markers stroke" class="ColorScheme-Text"/>
</svg>
