<?xml version="1.0" encoding="UTF-8" standalone="no"?>
<svg xmlns="http://www.w3.org/2000/svg" xmlns:svg="http://www.w3.org/2000/svg" height="22" width="22" version="1.1" id="svg1">
  <defs id="defs1">
    <style type="text/css" id="current-color-scheme">
            .ColorScheme-Text {
                color:#232629;
            }
        </style>
  </defs>
  <path id="path1" style="fill:currentColor" class="ColorScheme-Text" d="M 8,3.9943394 V 12.494983 C 7.9999998,13.878466 9.1215342,15 10.505017,15 11.885729,14.997229 13.002771,13.875695 13,12.494983 V 5.4945312 C 13,5.2214092 12.778591,5.0000001 12.505469,5 h -0.01094 C 12.221408,5.0000012 12,5.2214101 12,5.4945313 V 12.505453 C 12,13.330869 11.330869,14 10.505453,14 h -0.01091 C 9.669129,13.999998 8.9999998,13.330867 9,12.505453 V 4.0030658 C 9,2.6206607 10.120661,1.4999999 11.503066,1.5 12.883778,1.5016933 14.001693,2.622354 14,4.0030658 V 6 c 0,1.1045695 0.895431,2 2,2 h 2.39812 c 0.861168,0 1.303067,0.9072324 0.757813,1.573739 L 11.5625,19.935547 c -0.02183,0.02666 -0.04589,0.03589 -0.07031,0.03516 -0.0012,-3.6e-5 -0.0026,-6.8e-5 -0.0039,0 h -0.002 -0.002 v 0.002 l -0.002,0.002 h -0.002 -0.002 v -0.002 c -0.01045,-0.0057 -0.0308,-0.02462 -0.04102,-0.03711 L 3.8652344,9.5996094 C 3.3199103,8.9331034 3.7618799,8.0010171 4.6230469,8 l 1.875,-0.00195 C 6.7750689,7.9975638 6.99952,7.7731158 7,7.4960938 7,7.221279 6.7755214,6.9977934 6.4980469,6.9980469 5.8263647,6.9986607 4.8730034,6.9998961 4.6230469,7 2.9872023,7 2.0539646,8.968302 3.0898438,10.234375 l 7.5742182,10.333984 c 0.212731,0.260005 0.524292,0.390625 0.835938,0.390625 0.311646,0 0.623207,-0.13062 0.835938,-0.390625 L 19.931323,10.208504 C 20.967202,8.9424317 20.033965,7.000001 18.39812,7.0000007 L 16,7.0000002 C 15.447715,7.0000001 15,6.5522848 15,6 V 3.9943394 C 15,2.0644692 13.435531,0.50000022 11.505661,0.5 h -0.01132 C 9.56447,0.49999912 8,2.0644684 8,3.9943394 Z"/>
</svg>
