<?xml version="1.0" encoding="UTF-8" standalone="no"?>
<svg
   height="22"
   width="22"
   version="1.1"
   id="svg1"
   xmlns="http://www.w3.org/2000/svg"
   xmlns:svg="http://www.w3.org/2000/svg">
  <defs
     id="defs1">
    <style
       type="text/css"
       id="current-color-scheme">
            .ColorScheme-Text {
                color:#232629;
            }
        </style>
  </defs>
  <path
     id="path1"
     style="fill:currentColor"
     class="ColorScheme-Text"
     d="M 11,1 C 9.3431458,1 8,2.3431458 8,4 v 4.8671875 c 1.4e-6,0.078812 -0.053998,0.1311074 -0.1328125,0.1308594 -0.1548134,-3.311e-4 -0.849233,-1.187e-4 -1.3652344,0 C 6.2244818,8.9981108 6,9.2225254 6,9.5 6.0008014,9.7762584 6.2256968,9.9994038 6.5019531,9.9980469 l 1.4316407,-0.00195 C 8.5224455,9.9611962 9.0000107,9.4641825 9,8.8671875 V 4 C 9,2.8954305 9.8954305,2 11,2 h 1 c 1.104569,0 2,0.8954305 2,2 V 6.8671875 C 14,7.524246 14.548983,8 15.132812,8 h 3.244141 c 0.861168,0 1.303067,0.9331034 0.757813,1.5996094 L 11.5625,19.935547 c -0.02183,0.02666 -0.04589,0.03589 -0.07031,0.03516 -0.0012,-3.6e-5 -0.0026,-6.8e-5 -0.0039,0 h -0.002 -0.002 v 0.002 l -0.002,0.002 h -0.002 -0.002 v -0.002 c -0.01045,-0.0057 -0.0308,-0.02462 -0.04102,-0.03711 L 3.8652344,9.5996094 C 3.3199103,8.9331034 3.7618799,8.0010171 4.6230469,8 l 1.875,-0.00195 C 6.7750689,7.9975669 6.99952,7.7731158 7,7.4960938 7,7.221279 6.7755214,6.9977934 6.4980469,6.9980469 5.8263647,6.9986607 4.8730034,6.9998961 4.6230469,7 2.9872023,7 2.0539646,8.968302 3.0898438,10.234375 l 7.5742182,10.333984 c 0.212731,0.260005 0.524292,0.390625 0.835938,0.390625 0.311646,0 0.623207,-0.13062 0.835938,-0.390625 L 19.910156,10.234375 C 20.946035,8.968302 20.012798,7 18.376953,7 H 15.132812 C 15.053282,7 15,6.9467145 15,6.8671875 V 4 C 14.99987,2.3431995 13.6568,1.0001298 12,1 Z" />
  <g
     id="path2"
     style="opacity:0.008907" />
</svg>
