<?xml version="1.0" encoding="UTF-8" standalone="no"?>
<svg
   height="22"
   width="22"
   version="1.1"
   id="svg1"
   xml:space="preserve"
   xmlns="http://www.w3.org/2000/svg"
   xmlns:svg="http://www.w3.org/2000/svg"><defs
     id="defs1"><style
       type="text/css"
       id="current-color-scheme">
            .ColorScheme-Text {
                color:#232629;
            }
        </style><style
       type="text/css"
       id="current-color-scheme-5">
            .ColorScheme-Text {
                color:#232629;
            }
        </style></defs><path
     id="path1"
     style="fill:currentColor"
     class="ColorScheme-Text"
     d="M 4 1 C 2.3431509 1 1 2.3431509 1 4 L 1 18 C 1 19.656848 2.3431509 21 4 21 L 14.373047 21 C 14.176602 20.70766 14.048409 20.366791 14.011719 20 L 4 20 C 2.8954338 20 2 19.104566 2 18 L 2 4 C 2 2.8954338 2.8954338 2 4 2 L 15 2 C 16.104566 2 17 2.8954338 17 4 L 17 12.660156 C 17.310274 12.54407 17.645463 12.478516 17.998047 12.478516 L 18 12.478516 L 18 4 C 18 2.3431509 16.656848 1 15 1 L 4 1 z M 17.998047 13.478516 C 16.90012 13.478516 16 14.378636 16 15.476562 L 16 15.978516 L 15.857422 15.978516 C 15.39011 15.978516 15 16.368626 15 16.835938 L 15 19.78125 C 15 20.436873 15.541643 20.978516 16.197266 20.978516 L 19.183594 20.978516 C 20.180736 20.978516 21 20.161205 21 19.164062 L 21 16.835938 C 21 16.368626 20.60989 15.978516 20.142578 15.978516 L 20 15.978516 L 20 15.476562 C 20 14.378636 19.09988 13.478516 18.001953 13.478516 L 17.998047 13.478516 z M 17.998047 14.478516 L 18.001953 14.478516 C 18.559483 14.478516 19 14.919069 19 15.476562 L 19 15.978516 L 17 15.978516 L 17 15.476562 C 17 14.919069 17.440553 14.478516 17.998047 14.478516 z M 16 16.978516 L 20 16.978516 L 20 19.164062 C 20 19.620766 19.640297 19.978516 19.183594 19.978516 L 16.197266 19.978516 C 16.082082 19.978516 16 19.896436 16 19.78125 L 16 16.978516 z " /><path
     id="path8"
     style="opacity:0.6;fill:currentColor"
     class="ColorScheme-Text"
     d="M 9.5 3 C 5.9171777 3 3 5.9171772 3 9.5 C 3 13.021053 5.8166147 15.897902 9.3144531 15.996094 L 8.8183594 14.955078 C 6.1075897 14.617852 4 12.300324 4 9.5 C 4 6.4685764 6.4685768 4 9.5 4 C 12.531425 4 15 6.4685764 15 9.5 C 15 11.095192 14.313958 12.531533 13.224609 13.537109 L 14.052734 14.132812 C 15.253607 12.952743 16 11.311997 16 9.5 C 16 5.9171772 13.082822 3 9.5 3 z M 9.4707031 8.9082031 C 9.1614604 8.9242311 8.9082031 9.1872404 8.9082031 9.5 C 8.9082031 9.8228489 9.1771513 10.091797 9.5 10.091797 C 9.8228507 10.091797 10.091797 9.8228489 10.091797 9.5 C 10.091797 9.1771513 9.8228507 8.9082031 9.5 8.9082031 C 9.48995 8.9082031 9.4806831 8.9076861 9.4707031 8.9082031 z M 8.265625 11.070312 C 8.0707892 11.063413 7.873799 11.139202 7.7578125 11.265625 C 7.5722335 11.467898 7.5372132 11.865655 7.7441406 12.107422 L 12.855469 18.082031 C 13.153642 18.430409 13.575726 18.604675 14 18.609375 L 14 17.621094 C 13.86009 17.615325 13.721387 17.553373 13.617188 17.431641 L 10.460938 13.748047 L 14.082031 16.341797 C 14.194304 16.019704 14.414306 15.756341 14.689453 15.546875 L 8.5957031 11.177734 C 8.4987132 11.108214 8.3825269 11.074467 8.265625 11.070312 z " /><path
     id="path9"
     style="opacity:0.6;fill:currentColor"
     class="ColorScheme-Text"
     d="M 4.4707,16.908203 C 4.161457,16.924233 3.9082,17.18724 3.9082,17.5 c 0,0.322849 0.268948,0.591797 0.591797,0.591797 0.322851,0 0.591797,-0.268948 0.591797,-0.591797 0,-0.322849 -0.268946,-0.591797 -0.591797,-0.591797 -0.01005,0 -0.01932,-5.17e-4 -0.0293,0 z" /><g
     id="g9"
     transform="translate(0,0.979492)" /></svg>
