<?xml version="1.0" encoding="UTF-8"?>
<svg xmlns="http://www.w3.org/2000/svg" version="1.1" viewBox="0 0 22 22">
  <defs>
    <style id="current-color-scheme" type="text/css">.ColorScheme-Text {
          color:#232629;
        }</style>
  </defs>
  <path id="smartphone" class="ColorScheme-Text" d="m8 2c-0.554 0-1 0.446-1 1v4c-1.108 0-2 0.892-2 2v9c0 1.108 0.892 2 2 2h5c2.7614 0 5-2.2386 5-5v-6c0-1.108-0.892-2-2-2v-4c0-0.554-0.446-1-1-1zm0 1h6v4h-6zm1.5 1c-0.277 0-0.5 0.223-0.5 0.5v0.4c0 0.277 0.223 0.5 0.5 0.5s0.5-0.223 0.5-0.5v-0.4c0-0.277-0.223-0.5-0.5-0.5zm3 0c-0.277 0-0.5 0.223-0.5 0.5v0.4c0 0.277 0.223 0.5 0.5 0.5s0.5-0.223 0.5-0.5v-0.4c0-0.277-0.223-0.5-0.5-0.5zm-5.5 4h8c0.554 0 1 0.446 1 1v6c0 2.2091-1.7909 4-4 4h-5c-0.554 0-1-0.446-1-1v-9c0-0.554 0.446-1 1-1zm5.5 7c0.27614 0 0.5 0.22386 0.5 0.5s-0.22386 0.5-0.5 0.5c-0.27614 0-0.5-0.22386-0.5-0.5s0.22386-0.5 0.5-0.5z" fill="currentColor"/>
</svg>
