<?xml version="1.0" encoding="UTF-8" standalone="no"?>
<svg
   height="22"
   width="22"
   version="1.1"
   id="svg1"
   xmlns="http://www.w3.org/2000/svg"
   xmlns:svg="http://www.w3.org/2000/svg">
  <defs
     id="defs1">
    <style
       type="text/css"
       id="current-color-scheme">
            .ColorScheme-Text {
                color:#232629;
            }
        </style>
  </defs>
  <path
     id="path1"
     style="fill:currentColor"
     class="ColorScheme-Text"
     d="M 6,1 C 4.3431475,1 3,2.3431475 3,4 v 14 c 0,1.656852 1.3431475,3 3,3 h 11 c 1.656852,0 3,-1.343148 3,-3 V 4 C 20,2.3431475 18.656852,1 17,1 Z m 0,1 h 11 c 1.104568,0 2,0.8954316 2,2 v 14 c 0,1.104568 -0.895432,2 -2,2 H 6 C 4.8954316,20 4,19.104568 4,18 V 4 C 4,2.8954316 4.8954316,2 6,2 Z" />
  <path
     id="path8"
     style="opacity:0.6;fill:currentColor"
     class="ColorScheme-Text"
     d="M 11.349609,3.0019531 C 8.4575448,3.0699641 5.8562095,5.0793653 5.1699219,8.0234375 4.7585595,9.7881209 5.1120564,11.556636 6.0136719,12.978516 l 0.2430022,0.320733 0.5597321,-0.930108 C 6.0859485,11.178702 5.8013524,9.7157614 6.1425781,8.2519531 6.8307765,5.299684 9.795776,3.4563324 12.748047,4.1445312 c 2.952268,0.6881983 4.79562,3.6512462 4.107422,6.6035158 -0.635735,2.727203 -3.213143,4.505734 -5.929688,4.21875 l -0.08789,0.111328 -0.248047,0.855469 c 3.294958,0.468821 6.470731,-1.655979 7.240234,-4.957032 0.813377,-3.4892698 -1.366199,-6.9932624 -4.855469,-7.8066401 -0.545198,-0.1270903 -1.089432,-0.1805634 -1.625,-0.1679688 z m 5.166016,13.9062499 c -0.27346,-0.0064 -0.527666,0.181915 -0.591797,0.457031 -0.07329,0.314419 0.126986,0.637644 0.441406,0.710938 0.314419,0.07329 0.637644,-0.126988 0.710938,-0.441406 0.071,-0.304594 -0.116533,-0.619264 -0.414063,-0.705078 -0.0096,-0.0028 -0.02514,-0.01562 -0.02734,-0.0059 -0.0393,-0.0092 -0.08008,-0.01472 -0.119141,-0.01563 z" />
  <path
     id="path2"
     style="opacity:0.8;fill:currentColor"
     class="ColorScheme-Text"
     d="m 10.806023,7.379427 -4.6505714,8.201689 c -0.5026326,0.871972 -0.1520424,2.005598 0.7557482,2.440211 l 0.011093,0.0042 c 0.9040924,0.432848 2.0058754,-0.06006 2.2844936,-1.022922 L 12.04862,7.9095307 C 12.150338,7.5840621 11.995389,7.2178304 11.66253,7.094197 11.292696,6.9568303 10.934603,7.1526654 10.806023,7.379427 Z m -0.681871,3.333928 -1.9486227,5.991881 c -0.100638,0.346793 -0.4622276,0.511217 -0.7879517,0.35527 l -0.011944,-0.0061 C 7.016232,16.882375 6.8841521,16.461412 7.0831485,16.116192 Z" />
</svg>
