<?xml version="1.0" encoding="UTF-8" standalone="no"?>
<svg
   height="22"
   width="22"
   version="1.1"
   id="svg1"
   xml:space="preserve"
   xmlns="http://www.w3.org/2000/svg"
   xmlns:svg="http://www.w3.org/2000/svg"><defs
     id="defs1"><style
       type="text/css"
       id="current-color-scheme">
            .ColorScheme-Text {
                color:#232629;
            }
        </style><style
       type="text/css"
       id="current-color-scheme-53">
            .ColorScheme-Text {
                color:#232629;
            }
        </style><style
       type="text/css"
       id="current-color-scheme-5">
            .ColorScheme-Text {
                color:#232629;
            }
        </style></defs><path
     id="path2"
     style="opacity:0.1;fill:currentColor"
     class="ColorScheme-Text"
     d="M 4 2 C 2.9644702 2 2.1121856 2.7864133 2.0097656 3.7949219 C 2.0029376 3.8621558 2 3.9309646 2 4 L 2 18 C 2 19.104565 2.8954349 20 4 20 L 14.011719 20 C 14.004426 19.927725 14 19.85533 14 19.78125 L 14 16.835938 C 14 16.118362 14.474813 15.613866 15.072266 15.304688 C 15.152976 14.098615 15.921991 13.061531 17 12.658203 L 17 4 C 17 2.8954349 16.104565 2 15 2 L 4 2 z M 4.4707031 16.908203 C 4.4806831 16.907686 4.48995 16.908203 4.5 16.908203 C 4.8228501 16.908203 5.0917969 17.177151 5.0917969 17.5 C 5.0917969 17.822849 4.8228501 18.091797 4.5 18.091797 C 4.1771519 18.091797 3.9082031 17.822849 3.9082031 17.5 C 3.9082031 17.18724 4.1614611 16.924233 4.4707031 16.908203 z " /><path
     id="path1"
     style="opacity:0.6;fill:currentColor"
     class="ColorScheme-Text"
     d="M 4,1 C 2.3431509,1 1,2.3431509 1,4 v 14 c 0,1.656848 1.3431509,3 3,3 H 14.373047 C 14.176429,20.707863 14.048716,20.366638 14.011719,20 H 4 C 2.8954338,20 2,19.104566 2,18 V 4 C 2,2.8954338 2.8954338,2 4,2 h 11 c 1.104566,0 2,0.8954338 2,2 v 8.658203 c 0.310274,-0.116086 0.645463,-0.179687 0.998047,-0.179687 H 18 V 4 C 18,2.3431509 16.656848,1 15,1 Z m 0.4707031,15.908203 c -0.3092424,0.01603 -0.5625,0.279037 -0.5625,0.591797 0,0.322849 0.2689485,0.591797 0.5917969,0.591797 0.3228504,0 0.5917969,-0.268948 0.5917969,-0.591797 0,-0.322849 -0.2689465,-0.591797 -0.5917969,-0.591797 -0.01005,0 -0.019317,-5.17e-4 -0.029297,0 z" /><g
     id="g3"><path
       id="path1-5"
       style="fill:currentColor"
       class="ColorScheme-Text"
       d="M 17.998047,13.478516 C 16.90012,13.478516 16,14.378636 16,15.476562 v 0.501954 H 15.857422 C 15.39011,15.978516 15,16.368626 15,16.835938 v 2.945312 c 0,0.655623 0.541643,1.197266 1.197266,1.197266 h 2.986328 C 20.180736,20.978516 21,20.161205 21,19.164062 v -2.328124 c 0,-0.467312 -0.39011,-0.857422 -0.857422,-0.857422 H 20 v -0.501954 c 0,-1.097926 -0.90012,-1.998046 -1.998047,-1.998046 z m 0,1 h 0.0039 c 0.55753,0 0.998047,0.440553 0.998047,0.998046 v 0.501954 h -2 v -0.501954 c 0,-0.557493 0.440553,-0.998046 0.998047,-0.998046 z M 16,16.978516 h 4 v 2.185546 c 0,0.456704 -0.359703,0.814454 -0.816406,0.814454 H 16.197266 C 16.082082,19.978516 16,19.896436 16,19.78125 Z" /><path
       id="path8-6"
       style="opacity:1;fill:currentColor"
       class="ColorScheme-Text"
       d="M 9.5,3 C 5.9171777,3 3,5.9171772 3,9.5 c 0,3.521053 2.8166147,6.397902 6.3144531,6.496094 L 8.8183594,14.955078 C 6.1075897,14.617852 4,12.300324 4,9.5 4,6.4685764 6.4685768,4 9.5,4 12.531425,4 15,6.4685764 15,9.5 c 0,1.595192 -0.686042,3.031533 -1.775391,4.037109 l 0.828125,0.595703 C 15.253607,12.952743 16,11.311997 16,9.5 16,5.9171772 13.082822,3 9.5,3 Z M 9.470703,8.9082031 C 9.1614603,8.9242311 8.908203,9.1872404 8.908203,9.5 c 0,0.3228489 0.2689482,0.591797 0.5917969,0.591797 0.3228507,0 0.5917971,-0.2689481 0.5917971,-0.591797 0,-0.3228487 -0.2689464,-0.5917969 -0.5917971,-0.5917969 -0.01005,0 -0.019317,-5.17e-4 -0.029297,0 z M 8.265625,11.070312 c -0.1948358,-0.0069 -0.391826,0.06889 -0.5078125,0.195313 -0.185579,0.202273 -0.2205993,0.60003 -0.013672,0.841797 l 5.1113285,5.974609 C 13.153642,18.430409 13.575726,18.604675 14,18.609375 v -0.988281 c -0.13991,-0.0058 -0.278613,-0.06772 -0.382812,-0.189453 l -3.15625,-3.683594 3.621093,2.59375 c 0.112273,-0.322093 0.332275,-0.585456 0.607422,-0.794922 L 8.5957031,11.177734 C 8.4987132,11.108214 8.3825269,11.074467 8.265625,11.070312 Z" /><path
       id="path9"
       style="opacity:0.6;fill:currentColor"
       class="ColorScheme-Text"
       d="M 4.4707,16.908203 C 4.161457,16.924233 3.9082,17.18724 3.9082,17.5 c 0,0.322849 0.268948,0.591797 0.591797,0.591797 0.322851,0 0.591797,-0.268948 0.591797,-0.591797 0,-0.322849 -0.268946,-0.591797 -0.591797,-0.591797 -0.01005,0 -0.01932,-5.17e-4 -0.0293,0 z" /><g
       id="g9"
       transform="translate(0,0.979492)" /></g></svg>
