<svg width="22" height="22" version="1.1" xmlns="http://www.w3.org/2000/svg">
 <defs>
  <style id="current-color-scheme" type="text/css">.ColorScheme-Text { color:#232629; }</style>
 </defs>
 <g class="ColorScheme-Text" fill="none" stroke="currentColor" stroke-width="1" stroke-linecap="round" stroke-linejoin="round">
  <path d="m1 16.5 4.5183.01496c.55076.0018.99728-.44592.99394-.99667l-.00616-1.0183c-.00335-.55325-.45279-.99998-1.0061-.99998h-2c-.55228 0-1-.44772-1-1v-1c0-.55228.44772-1 1-1h2m4 1c0-.55228.44772-1 1-1h2c.5552 0 1.0081-.44473 1.0182-.99984l.0185-1.0186c.01006-.55412.46394-.99707 1.0181-.99363l.94523.00586c.55127.00342.99998-.44252.99998-.99379v-1c0-.55228.44772-1 1-1h2.5"/>
  <path d="m12.7 13.5h-2.2c-.55228 0-1-.44772-1-1v-1c0-.55228-.44772-1-1-1h-1c-.54932-5e-6-.99181-.45061-.98184-.99984l.018497-1.0186c.010049-.55411.46391-.99706 1.0181-.99363l.94523.00586c.55126.003417.99997-.44252.99998-.99379v-1c0-.55228-.44772-1-1-1h-5c-.55228 0-1 .44772-1 1"/>
  <path d="m11.9 16.5-4.3817.01487c-.55268.0018-1.0026-.44391-1.006-.99658l-.00616-1.0183c-.0033695-.55326-.45283-.99999-1.0061-.99998h-2c-.55228 0-1-.44772-1-1v-1c0-.55228-.44772-1-1-1h-.5m.05481-3.0183.44527.00563c.55018.00695.99992-.43713.99992-.98736v-1c0-.55228-.44772-1-1-1h-.5"/>
  <path d="m15.2 10.5h-.7c-.54932-5e-6-.99181-.45061-.98184-.99984l.0185-1.0186c.01005-.55411.46391-.99706 1.0181-.99363l.94523.00586c.55126.003417.99997-.44252.99998-.99379v-1c0-.55228-.44772-1-1-1h-5c-.55228 0-1 .44772-1 1"/>
  <path d="m7.7 13.5h.7"/>
  <path d="m17.8 7.5h2.2"/>
  <path d="m10.7 7.5 1.7011-.012065"/>
  <path d="m3.5 7.5h2.0184c.54211 0 .98157.43946.98157.98157v.68891"/>
  <path d="m1 13.5h.3"/>
  <path d="m19.9 10.5h.1"/>
 </g>
 <path class="ColorScheme-Text" fill="none" stroke="currentColor" stroke-width=".8" stroke-linecap="round" stroke-linejoin="round" d="m16.834 9.0839c.73314 3.5405-3.193 4.1-3.193 7.2903 0 1.8925 1.3578 3.4939 3.1723 3.7852-.54517-.23157-.92289-.77246-.92289-1.4253 0-.32489.04908-.80372.28472-1.1192.0864.28537.33156.74587.64908.86624-.48842-1.0424.45665-2.404.82253-2.6888-.29586 1.4288 1.2883 1.6543 1.2883 2.9417 0 .63736-.38196 1.1928-.9338 1.4274 1.8171-.27987 3.1832-1.8312 3.1832-3.7874 0-.80508-.12187-1.9896-.7058-2.7713-.21408.70714-.82007 1.8467-1.6069 2.145 1.2103-2.583-1.1311-5.9582-2.0378-6.664z"/>
</svg>
