<?xml version="1.0" encoding="UTF-8"?>
<svg
   width="22"
   height="22"
   version="1.1"
   xmlns="http://www.w3.org/2000/svg">
  <defs>
    <style id="current-color-scheme" type="text/css">
      .ColorScheme-Text { color:#232629; }
      .line {
        fill:none;
        stroke:currentColor;
        stroke-width:1;
        stroke-linecap:round;
        stroke-linejoin:round;
      }
      .flame {
        fill:none;
        stroke:currentColor;
        stroke-width:0.8;
        stroke-linecap:round;
        stroke-linejoin:round;
      }
      .error {
        opacity:0.19434;
        fill:#ff0000;
        stroke:#ff1300;
        stroke-width:0.8;
        stroke-linecap:round;
        stroke-linejoin:round;
      }
    </style>
  </defs>
  <g class="ColorScheme-Text line">
    <path
       d="m 1,16.5 4.518275,0.01496 a 0.99067986,0.99067986 0 0 0 0.9939416,-0.996671 l -0.00616,-1.018306 A 1.0060713,1.0060713 0 0 0 5.5,13.5 h -2 a 1,1 0 0 1 -1,-1 v -1 a 1,1 0 0 1 1,-1 h 2 m 4,1 a 1,1 0 0 1 1,-1 h 2 a 1.0183243,1.0183243 0 0 0 1.018156,-0.999835 l 0.0185,-1.018597 a 1.012027,1.012027 0 0 1 1.018137,-0.9936332 l 0.945228,0.00586 A 0.99381672,0.99381672 0 0 0 16.5,6.5 v -1 a 1,1 0 0 1 1,-1 h 2" />
    <path
       d="m 12.7,13.5 h -2.2 c -0.552285,0 -1,-0.447715 -1,-1 v -1 c 0,-0.552285 -0.447715,-1 -1,-1 h -1 C 6.9506769,10.5 6.5081827,10.049397 6.5181564,9.500165 L 6.5366534,8.481568 C 6.546716,7.927451 7.0005934,7.4844974 7.5547908,7.4879348 l 0.9452282,0.00586 C 9.051287,7.4972169 9.5,7.0512786 9.5,6.5 v -1" />
    <path
       d="M 6.506053,14.499982 C 6.5027041,13.946731 6.0532612,13.5 5.5,13.5 h -2 c -0.5522847,0 -1,-0.447715 -1,-1 v -1 c 0,-0.552285 -0.4477153,-1 -1,-1 H 1" />
    <path
       d="M 15.2,10.5 H 14.5 A 0.98200545,0.98200545 0 0 1 13.518156,9.500165 l 0.0185,-1.018597 a 1.012027,1.012027 0 0 1 1.018137,-0.9936332 l 0.945228,0.00586 A 0.99381672,0.99381672 0 0 0 16.5,6.5 v -1 a 1,1 0 0 0 -1,-1 h -5 a 1,1 0 0 0 -1,1" />
    <path d="m 7.5,13.5 h 1" />
    <path d="M 10.5,7.5 12.601122,7.487935" />
    <path
       d="M 3.5,7.5 H 5.5184324 A 0.98156756,0.98156756 0 0 1 6.5,8.481568 v 0.68891" />
    <path d="M 1,13.5 H 1.5" />
  </g>
  <path
     class="ColorScheme-Text flame"
     d="m 17.322755,9.9691943 c 0.612268,2.9746137 -2.66658,3.4446917 -2.66658,6.1250827 0,1.589996 1.133944,2.93549 2.64927,3.180193 -0.455287,-0.194555 -0.770726,-0.648992 -0.770726,-1.197474 0,-0.272963 0.04099,-0.675259 0.237775,-0.940285 0.07215,0.239756 0.276895,0.626657 0.542062,0.727787 -0.407893,-0.875766 0.381357,-2.019767 0.686916,-2.259059 -0.24708,1.20041 1.075925,1.38988 1.075925,2.471557 0,0.535489 -0.318984,1.002112 -0.779843,1.199298 1.517536,-0.235135 2.658382,-1.538531 2.658382,-3.182017 0,-0.676398 -0.101777,-1.671634 -0.589435,-2.328369 -0.178786,0.594113 -0.684862,1.55154 -1.341944,1.802138 1.010752,-2.170144 -0.944628,-5.005886 -1.701802,-5.5988517 z" />
  <path
     class="error"
     d="m 17.322755,9.9691943 c 0.612268,2.9746137 -2.66658,3.4446917 -2.66658,6.1250827 0,1.589996 1.133944,2.93549 2.64927,3.180193 -0.455287,-0.194555 -0.770726,-0.648992 -0.770726,-1.197474 0,-0.272963 0.04099,-0.675259 0.237775,-0.940285 0.07215,0.239756 0.276895,0.626657 0.542062,0.727787 -0.407893,-0.875766 0.381357,-2.019767 0.686916,-2.259059 -0.24708,1.20041 1.075925,1.38988 1.075925,2.471557 0,0.535489 -0.318984,1.002112 -0.779843,1.199298 1.517536,-0.235135 2.658382,-1.538531 2.658382,-3.182017 0,-0.676398 -0.101777,-1.671634 -0.589435,-2.328369 -0.178786,0.594113 -0.684862,1.55154 -1.341944,1.802138 1.010752,-2.170144 -0.944628,-5.005886 -1.701802,-5.5988517 z" />
</svg>
