<?xml version="1.0" encoding="UTF-8"?>
<svg
   width="22"
   height="22"
   version="1.1"
   xmlns="http://www.w3.org/2000/svg">
  <defs>
    <style id="current-color-scheme" type="text/css">
      .ColorScheme-Text { color:#232629; }
      .line {
        fill:none;
        stroke:currentColor;
        stroke-width:1;
        stroke-linecap:round;
        stroke-linejoin:round;
      }
      .flame {
        fill:none;
        stroke:currentColor;
        stroke-width:0.8;
        stroke-linecap:round;
        stroke-linejoin:round;
      }
    </style>
  </defs>
  <g class="ColorScheme-Text line">
    <path
       d="m 1,16.5 4.518275,0.01496 c 0.5507606,0.0018 0.9972754,-0.445917 0.9939416,-0.996671 l -0.00616,-1.018306 C 6.5027085,13.94673 6.0532631,13.499998 5.5,13.5 h -2 c -0.5522847,0 -1,-0.447715 -1,-1 v -1 c 0,-0.552285 0.4477153,-1 1,-1 h 2 m 4,1 c 0,-0.552285 0.4477153,-1 1,-1 h 2 c 0.555197,0 1.008076,-0.444729 1.018156,-0.999835 l 0.0185,-1.018597 c 0.01006,-0.5541168 0.46394,-0.9970705 1.018137,-0.9936332 l 0.945228,0.00586 C 16.051287,7.4972131 16.499998,7.0512768 16.5,6.5 v -1 c 0,-0.5522847 0.447715,-1 1,-1 H 20" />
    <path
       d="m 12.7,13.5 h -2.2 a 1,1 0 0 1 -1,-1 v -1 a 1,1 0 0 0 -1,-1 h -1 A 0.98200545,0.98200545 0 0 1 6.5181564,9.500165 L 6.5366534,8.481568 A 1.012027,1.012027 0 0 1 7.5547908,7.4879348 l 0.9452282,0.00586 A 0.99381672,0.99381672 0 0 0 9.5,6.5 v -1 a 1,1 0 0 0 -1,-1 h -5 a 1,1 0 0 0 -1,1" />
    <path
       d="M 11.9,16.5 7.5182642,16.51487 A 1.0026618,1.0026618 0 0 1 6.512217,15.518288 L 6.506053,14.499982 A 1.0060715,1.0060715 0 0 0 5.5,13.5 h -2 a 1,1 0 0 1 -1,-1 v -1 a 1,1 0 0 0 -1,-1 H 1 m 0.05481,-3.0182676 0.4452699,0.00563 A 0.98743961,0.98743961 0 0 0 2.5,6.5 v -1 a 1,1 0 0 0 -1,-1 H 1" />
    <path
       d="M 15.2,10.5 H 14.5 A 0.98200545,0.98200545 0 0 1 13.518156,9.500165 l 0.0185,-1.018597 a 1.012027,1.012027 0 0 1 1.018137,-0.9936332 l 0.945228,0.00586 A 0.99381672,0.99381672 0 0 0 16.5,6.5 v -1 a 1,1 0 0 0 -1,-1 h -5 a 1,1 0 0 0 -1,1" />
    <path d="m 7.5,13.5 h 1" />
    <path d="M 17.5,7.5 H 20" />
    <path d="M 10.5,7.5 12.601122,7.487935" />
    <path
       d="M 3.5,7.5 H 5.5184324 A 0.98156756,0.98156756 0 0 1 6.5,8.481568 v 0.68891" />
    <path d="M 1,13.5 H 1.5" />
    <path d="M 19.9,10.5 H 20" />
  </g>
  <path
     class="ColorScheme-Text flame"
     d="m 16.833882,9.0839108 c 0.733145,3.5404982 -3.193031,4.1000032 -3.193031,7.2903072 0,1.892473 1.357814,3.493932 3.172304,3.785187 -0.545173,-0.231567 -0.922888,-0.772455 -0.922888,-1.425279 0,-0.324892 0.04908,-0.803719 0.284718,-1.119164 0.0864,0.285367 0.331562,0.745871 0.649079,0.86624 -0.488421,-1.04237 0.456647,-2.404004 0.822531,-2.688818 -0.29586,1.428774 1.28834,1.654288 1.28834,2.941742 0,0.637359 -0.381959,1.192751 -0.933804,1.42745 1.817137,-0.279867 3.183215,-1.831219 3.183215,-3.787358 0,-0.805075 -0.12187,-1.989643 -0.705805,-2.771314 -0.214082,0.707136 -0.820071,1.846702 -1.606878,2.144974 1.210301,-2.582988 -1.131121,-5.9581962 -2.037781,-6.6639672 z" />
</svg>
