<?xml version="1.0" encoding="UTF-8"?>
<svg width="22" height="22" version="1.1" xmlns="http://www.w3.org/2000/svg">
 <defs>
  <style id="current-color-scheme" type="text/css">.ColorScheme-Text { color:#232629; }
      .line {
        fill:none;
        stroke:currentColor;
        stroke-width:1;
        stroke-linecap:round;
        stroke-linejoin:round;
      }
      .flame {
        fill:none;
        stroke:currentColor;
        stroke-width:0.8;
        stroke-linecap:round;
        stroke-linejoin:round;
      }</style>
 </defs>
 <g class="ColorScheme-Text line">
  <path d="m1 16.5 4.5183 0.01496c0.55076 0.0018 0.99728-0.44592 0.99394-0.99667l-0.00616-1.0183c-0.0033481-0.55325-0.45279-0.99998-1.0061-0.99998h-2c-0.55228 0-1-0.44772-1-1v-1c0-0.55228 0.44772-1 1-1h2m4 1c0-0.55228 0.44772-1 1-1h2c0.5552 0 1.0081-0.44473 1.0182-0.99984l0.0185-1.0186c0.01006-0.55412 0.46394-0.99707 1.0181-0.99363l0.94523 0.00586c0.55127 0.0034183 0.99998-0.44252 0.99998-0.99379v-1c0-0.55228 0.44772-1 1-1h2.5"/>
  <path d="m12.7 13.5h-2.2a1 1 0 0 1-1-1v-1a1 1 0 0 0-1-1h-1a0.98201 0.98201 0 0 1-0.98184-0.99984l0.018497-1.0186a1.012 1.012 0 0 1 1.0181-0.99363l0.94523 0.00586a0.99382 0.99382 0 0 0 0.99998-0.99379v-1a1 1 0 0 0-1-1h-5a1 1 0 0 0-1 1"/>
  <path d="m11.9 16.5-4.3817 0.01487a1.0027 1.0027 0 0 1-1.006-0.99658l-0.006164-1.0183a1.0061 1.0061 0 0 0-1.0061-0.99998h-2a1 1 0 0 1-1-1v-1a1 1 0 0 0-1-1h-0.5m0.05481-3.0183 0.44527 0.00563a0.98744 0.98744 0 0 0 0.99992-0.98736v-1a1 1 0 0 0-1-1h-0.5"/>
  <path d="m15.2 10.5h-0.7a0.98201 0.98201 0 0 1-0.98184-0.99984l0.0185-1.0186a1.012 1.012 0 0 1 1.0181-0.99363l0.94523 0.00586a0.99382 0.99382 0 0 0 0.99998-0.99379v-1a1 1 0 0 0-1-1h-5a1 1 0 0 0-1 1"/>
  <path d="m7.5 13.5h1"/>
  <path d="m17.5 7.5h2.5"/>
  <path d="m10.5 7.5 2.1011-0.012065"/>
  <path d="m3.5 7.5h2.0184a0.98157 0.98157 0 0 1 0.98157 0.98157v0.68891"/>
  <path d="m1 13.5h0.5"/>
  <path d="m19.9 10.5h0.1"/>
 </g>
 <path class="ColorScheme-Text flame" d="m16.834 9.0839c0.73314 3.5405-3.193 4.1-3.193 7.2903 0 1.8925 1.3578 3.4939 3.1723 3.7852-0.54517-0.23157-0.92289-0.77246-0.92289-1.4253 0-0.32489 0.04908-0.80372 0.28472-1.1192 0.0864 0.28537 0.33156 0.74587 0.64908 0.86624-0.48842-1.0424 0.45665-2.404 0.82253-2.6888-0.29586 1.4288 1.2883 1.6543 1.2883 2.9417 0 0.63736-0.38196 1.1928-0.9338 1.4274 1.8171-0.27987 3.1832-1.8312 3.1832-3.7874 0-0.80508-0.12187-1.9896-0.7058-2.7713-0.21408 0.70714-0.82007 1.8467-1.6069 2.145 1.2103-2.583-1.1311-5.9582-2.0378-6.664z"/>
</svg>
