<?xml version="1.0" encoding="UTF-8" standalone="no"?>
<svg
   version="1.1"
   viewBox="0 0 22 22"
   id="svg1"
   xmlns="http://www.w3.org/2000/svg"
   xmlns:svg="http://www.w3.org/2000/svg">
  <defs
     id="defs1">
    <style
       id="current-color-scheme"
       type="text/css">
        .ColorScheme-Text {
          color:#232629;
        }
      </style>
  </defs>
  <path
     id="smartphone"
     style="fill:currentColor"
     class="ColorScheme-Text"
     d="M 8,2 C 6.892,2 6,2.892 6,4 v 14 c 0,1.108 0.892,2 2,2 h 7 c 1.108,0 2,-0.892 2,-2 V 4 C 17,2.892 16.108,2 15,2 Z m 0,1 h 7 c 0.554,0 1,0.446 1,1 v 14 c 0,0.554 -0.446,1 -1,1 H 8 C 7.446,19 7,18.554 7,18 V 4 C 7,3.446 7.446,3 8,3 Z m 3.5,1 C 11.223858,4 11,4.2238576 11,4.5 11,4.7761424 11.223858,5 11.5,5 11.776142,5 12,4.7761424 12,4.5 12,4.2238576 11.776142,4 11.5,4 Z m -2,13 C 9.223,17 9,17.223 9,17.5 9,17.777 9.223,18 9.5,18 h 4 C 13.777,18 14,17.777 14,17.5 14,17.223 13.777,17 13.5,17 Z"
     fill="currentColor" />
</svg>
