<?xml version="1.0" encoding="UTF-8"?>
<svg xmlns="http://www.w3.org/2000/svg" version="1.1" viewBox="0 0 22 22">
  <defs>
    <style id="current-color-scheme" type="text/css">.ColorScheme-Text { color:#232629; }</style>
  </defs>
  <path id="smartphone" class="ColorScheme-Text" d="m1 17c0 1.108 0.892 2 2 2h16c1.108 0 2-0.892 2-2v-12c0-1.108-0.892-2-2-2h-15c-1.6569 0-3 1.3431-3 3zm1 0v-11c0-1.1046 0.89543-2 2-2h15c0.554 0 1 0.446 1 1v12c0 0.554-0.446 1-1 1h-16c-0.554 0-1-0.446-1-1z" fill="currentColor"/>
  <path class="ColorScheme-Text" d="m3.5 16c-0.277 0-0.5 0.223-0.5 0.5s0.223 0.5 0.5 0.5h1c0.277 0 0.5-0.223 0.5-0.5s-0.223-0.5-0.5-0.5zm3 0c-0.277 0-0.5 0.223-0.5 0.5s0.223 0.5 0.5 0.5h1c0.277 0 0.5-0.223 0.5-0.5s-0.223-0.5-0.5-0.5zm3 0c-0.277 0-0.5 0.223-0.5 0.5s0.223 0.5 0.5 0.5h6c0.277 0 0.5-0.223 0.5-0.5s-0.223-0.5-0.5-0.5zm8 0c-0.277 0-0.5 0.223-0.5 0.5s0.223 0.5 0.5 0.5h1c0.277 0 0.5-0.223 0.5-0.5s-0.223-0.5-0.5-0.5z" fill="currentColor" stroke-linecap="round" stroke-linejoin="round" style="paint-order:fill markers stroke"/>
  <path class="ColorScheme-Text" transform="translate(-2)" d="m13.5 14.5v-8.1208a0.47056 0.47056 28.155 0 0-0.73158-0.39153l-2.2684 1.5123" fill="none" stroke="currentColor" stroke-linecap="round" style="paint-order:fill markers stroke"/>
  <g fill="currentColor" class="ColorScheme-Text">
    <path class="ColorScheme-Text" d="m3.5 13c-0.277 0-0.5 0.223-0.5 0.5s0.223 0.5 0.5 0.5h1c0.277 0 0.5-0.223 0.5-0.5s-0.223-0.5-0.5-0.5zm3 0c-0.277 0-0.5 0.223-0.5 0.5s0.223 0.5 0.5 0.5h1c0.277 0 0.5-0.223 0.5-0.5s-0.223-0.5-0.5-0.5zm7 0c-0.277 0-0.5 0.223-0.5 0.5s0.223 0.5 0.5 0.5h1c0.277 0 0.5-0.223 0.5-0.5s-0.223-0.5-0.5-0.5zm3 0c-0.277 0-0.5 0.223-0.5 0.5s0.223 0.5 0.5 0.5h1c0.277 0 0.5-0.223 0.5-0.5s-0.223-0.5-0.5-0.5z" opacity=".3" style="paint-order:fill markers stroke"/>
    <path class="ColorScheme-Text" d="m4.5487 10c-0.277 0-0.5 0.223-0.5 0.5s0.223 0.5 0.5 0.5h1c0.277 0 0.5-0.223 0.5-0.5s-0.223-0.5-0.5-0.5zm3 0c-0.277 0-0.5 0.223-0.5 0.5s0.223 0.5 0.5 0.5h1c0.277 0 0.5-0.223 0.5-0.5s-0.223-0.5-0.5-0.5zm7 0c-0.277 0-0.5 0.223-0.5 0.5s0.223 0.5 0.5 0.5h1c0.277 0 0.5-0.223 0.5-0.5s-0.223-0.5-0.5-0.5zm3 0c-0.277 0-0.5 0.223-0.5 0.5s0.223 0.5 0.5 0.5h1c0.277 0 0.5-0.223 0.5-0.5s-0.223-0.5-0.5-0.5z" opacity=".3" style="paint-order:fill markers stroke"/>
    <path class="ColorScheme-Text" d="m3.5 7c-0.277 0-0.5 0.223-0.5 0.5s0.223 0.5 0.5 0.5h1c0.277 0 0.5-0.223 0.5-0.5s-0.223-0.5-0.5-0.5zm10 0c-0.277 0-0.5 0.223-0.5 0.5s0.223 0.5 0.5 0.5h1c0.277 0 0.5-0.223 0.5-0.5s-0.223-0.5-0.5-0.5zm3 0c-0.277 0-0.5 0.223-0.5 0.5s0.223 0.5 0.5 0.5h1c0.277 0 0.5-0.223 0.5-0.5s-0.223-0.5-0.5-0.5z" opacity=".3" style="paint-order:fill markers stroke"/>
  </g>
</svg>
