<?xml version="1.0" encoding="UTF-8" standalone="no"?>
<svg
   height="22"
   width="22"
   version="1.1"
   id="svg1"
   xml:space="preserve"
   xmlns="http://www.w3.org/2000/svg"
   xmlns:svg="http://www.w3.org/2000/svg"><defs
     id="defs1"><style
       type="text/css"
       id="current-color-scheme">
            .ColorScheme-Text {
                color:#232629;
            }
        </style><style
       type="text/css"
       id="current-color-scheme-5">
            .ColorScheme-Text {
                color:#232629;
            }
        </style></defs><path
     id="path1"
     style="fill:currentColor"
     class="ColorScheme-Text"
     d="M 11.414062,2 C 7.8321695,2.047538 4.9557259,4.9988887 5,8.5800781 V 14.53125 C 5,17.545538 7.4544619,20 10.46875,20 h 2.0625 C 15.545538,20 18,17.545538 18,14.53125 V 8.5800781 C 18,4.9521828 15.047776,2 11.419922,2 c -0.002,-1.14e-5 -0.0039,-1.14e-5 -0.0059,0 z m 0.0098,1 C 14.509439,3.002151 17,5.4939532 17,8.5800781 V 14.53125 C 17,17.0051 15.005101,19 12.53125,19 h -2.0625 C 7.9949005,19 6,17.0051 6,14.53125 V 8.5800781 c -1.3e-6,-6.51e-4 -1.3e-6,-0.0013 0,-0.00195 -1.3e-6,-6.51e-4 -1.3e-6,-0.0013 0,-0.00195 -1.3e-6,-6.51e-4 -1.3e-6,-0.0013 0,-0.00195 -1.3e-6,-6.511e-4 -1.3e-6,-0.0013 0,-0.00195 C 5.9596252,5.5300907 8.3821949,3.042511 11.423828,3 Z M 11.5,4.5 C 11.223858,4.5 11,4.7238576 11,5 V 9.5 C 11,9.7761424 11.223858,10 11.5,10 11.776142,10 12,9.7761424 12,9.5 V 5 C 12,4.7238576 11.776142,4.5 11.5,4.5 Z" /><g
     id="g9"/><path
     id="path2"
     style="opacity:0.1;fill:currentColor"
     class="ColorScheme-Text"
     d="M 11.423862,3 C 14.509439,3.002151 17,5.4939532 17,8.5800781 V 14.53125 C 17,17.0051 15.005101,19 12.53125,19 h -2.0625 C 7.9949005,19 6,17.0051 6,14.53125 V 8.5800781 c -1.3e-6,-6.51e-4 -1.3e-6,-0.0013 0,-0.00195 -1.3e-6,-6.51e-4 -1.3e-6,-0.0013 0,-0.00195 -1.3e-6,-6.51e-4 -1.3e-6,-0.0013 0,-0.00195 -1.3e-6,-6.511e-4 -1.3e-6,-0.0013 0,-0.00195 C 5.9596252,5.5300907 8.3821949,3.042511 11.423828,3 Z M 11.5,4.5 C 11.223858,4.5 11,4.7238576 11,5 V 9.5 C 11,9.7761424 11.223858,10 11.5,10 11.776142,10 12,9.7761424 12,9.5 V 5 C 12,4.7238576 11.776142,4.5 11.5,4.5 Z" /></svg>
