<?xml version="1.0" encoding="UTF-8"?>
<svg xmlns="http://www.w3.org/2000/svg" version="1.1" viewBox="0 0 22 22">
  <defs>
    <style id="current-color-scheme" type="text/css">.ColorScheme-Text { color:#232629; }</style>
  </defs>
  <path id="smartphone" class="ColorScheme-Text" d="m1 17c0 1.108 0.892 2 2 2h16c1.108 0 2-0.892 2-2v-12c0-1.108-0.892-2-2-2h-15c-1.6569 0-3 1.3431-3 3zm1 0v-11c0-1.1046 0.89543-2 2-2h15c0.554 0 1 0.446 1 1v12c0 0.554-0.446 1-1 1h-16c-0.554 0-1-0.446-1-1z" fill="currentColor"/>
  <g stroke-linecap="round">
    <path class="ColorScheme-Text" d="m3.5 16c-0.277 0-0.5 0.223-0.5 0.5s0.223 0.5 0.5 0.5h1c0.277 0 0.5-0.223 0.5-0.5s-0.223-0.5-0.5-0.5zm3 0c-0.277 0-0.5 0.223-0.5 0.5s0.223 0.5 0.5 0.5h1c0.277 0 0.5-0.223 0.5-0.5s-0.223-0.5-0.5-0.5zm3 0c-0.277 0-0.5 0.223-0.5 0.5s0.223 0.5 0.5 0.5h6c0.277 0 0.5-0.223 0.5-0.5s-0.223-0.5-0.5-0.5zm8 0c-0.277 0-0.5 0.223-0.5 0.5s0.223 0.5 0.5 0.5h1c0.277 0 0.5-0.223 0.5-0.5s-0.223-0.5-0.5-0.5z" fill="currentColor" stroke-linejoin="round" style="paint-order:fill markers stroke"/>
    <path d="m15.423 14.5-2.1133-7.8789c-0.17756-0.66153-0.77759-1.1214-1.4629-1.1211h-1.5762c-0.6853-2.789e-4 -1.2853 0.45956-1.4629 1.1211l-2.1074 7.8594" fill="none" stroke="currentColor" style="paint-order:fill markers stroke" class="ColorScheme-Text"/>
    <path d="m12.49 10.5h-3.5762c-0.6853-2.79e-4 -1.2853 0.45956-1.4629 1.1211" fill="none" stroke="currentColor" style="paint-order:fill markers stroke" class="ColorScheme-Text"/>
  </g>
  <path class="ColorScheme-Text" d="m18.5 7c0.277 0 0.5 0.223 0.5 0.5s-0.223 0.5-0.5 0.5h-1c-0.277 0-0.5-0.223-0.5-0.5s0.223-0.5 0.5-0.5zm-13 0c0.277 0 0.5 0.223 0.5 0.5s-0.223 0.5-0.5 0.5h-1c-0.277 0-0.5-0.223-0.5-0.5s0.223-0.5 0.5-0.5zm12 3c0.277 0 0.5 0.223 0.5 0.5s-0.223 0.5-0.5 0.5h-1c-0.277 0-0.5-0.223-0.5-0.5s0.223-0.5 0.5-0.5zm-13 0c0.277 0 0.5 0.223 0.5 0.5s-0.223 0.5-0.5 0.5h-1c-0.277 0-0.5-0.223-0.5-0.5s0.223-0.5 0.5-0.5zm14 3c0.277 0 0.5 0.223 0.5 0.5s-0.223 0.5-0.5 0.5h-1c-0.277 0-0.5-0.223-0.5-0.5s0.223-0.5 0.5-0.5zm-6 0c0.277 0 0.5 0.223 0.5 0.5s-0.223 0.5-0.5 0.5h-1c-0.277 0-0.5-0.223-0.5-0.5s0.223-0.5 0.5-0.5zm-7 0c0.277 0 0.5 0.223 0.5 0.5s-0.223 0.5-0.5 0.5h-1c-0.277 0-0.5-0.223-0.5-0.5s0.223-0.5 0.5-0.5z" opacity=".3" style="paint-order:fill markers stroke" stroke="currentColor"/>
</svg>
