<?xml version="1.0" encoding="UTF-8" standalone="no"?>
<svg
   version="1.1"
   viewBox="0 0 22 22"
   id="svg1"
   xmlns="http://www.w3.org/2000/svg"
   xmlns:svg="http://www.w3.org/2000/svg">
  <defs
     id="defs1">
    <style
       id="current-color-scheme"
       type="text/css">
        .ColorScheme-Text {
          color:#232629;
        }
      </style>
  </defs>
  <path
     id="smartphone"
     style="fill:currentColor"
     class="ColorScheme-Text"
     d="M 3 3 C 1.8920011 3 1 3.8920011 1 5 L 1 17 C 1 18.107999 1.8920011 19 3 19 L 19 19 C 20.107999 19 21 18.107999 21 17 L 21 5 C 21 3.8920011 20.107999 3 19 3 L 3 3 z M 3 4 L 19 4 C 19.553999 4 20 4.4460006 20 5 L 20 17 C 20 17.553999 19.553999 18 19 18 L 3 18 C 2.4460006 18 2 17.553999 2 17 L 2 5 C 2 4.4460006 2.4460006 4 3 4 z M 4.5 16 C 4.2230003 16 4 16.223 4 16.5 C 4 16.777 4.2230003 17 4.5 17 L 8.5 17 C 8.7769997 17 9 16.777 9 16.5 C 9 16.223 8.7769997 16 8.5 16 L 4.5 16 z M 13.5 16 C 13.223 16 13 16.223 13 16.5 C 13 16.777 13.223 17 13.5 17 L 17.5 17 C 17.777 17 18 16.777 18 16.5 C 18 16.223 17.777 16 17.5 16 L 13.5 16 z " />
  <path
     id="path1"
     style="fill:currentColor;opacity:0.1"
     class="ColorScheme-Text"
     d="m 3,4 h 16 c 0.553999,0 1,0.4460006 1,1 v 12 c 0,0.553999 -0.446001,1 -1,1 H 3 C 2.4460006,18 2,17.553999 2,17 V 5 C 2,4.4460006 2.4460006,4 3,4 Z M 4.5,16 C 4.2230003,16 4,16.223 4,16.5 4,16.777 4.2230003,17 4.5,17 h 4 C 8.7769997,17 9,16.777 9,16.5 9,16.223 8.7769997,16 8.5,16 Z m 9,0 c -0.277,0 -0.5,0.223 -0.5,0.5 0,0.277 0.223,0.5 0.5,0.5 h 4 C 17.777,17 18,16.777 18,16.5 18,16.223 17.777,16 17.5,16 Z" />
</svg>
