<?xml version="1.0" encoding="UTF-8" standalone="no"?>
<svg
   version="1.1"
   viewBox="0 0 22 22"
   id="svg1"
   xmlns="http://www.w3.org/2000/svg"
   xmlns:svg="http://www.w3.org/2000/svg">
  <defs
     id="defs1">
    <style
       id="current-color-scheme"
       type="text/css">
        .ColorScheme-Text {
          color:#232629;
        }
      </style>
  </defs>
  <path
     id="smartphone"
     style="fill:currentColor"
     class="ColorScheme-Text"
     d="M 18.556641 1.5546875 C 18.494984 1.5551254 18.433109 1.5580414 18.371094 1.5644531 C 17.874968 1.6157471 17.372942 1.8556136 16.984375 2.2441406 C 10.734463 8.4934367 10.605612 8.6235217 7.1464844 12.082031 L 7 12.228516 L 7 14.978516 L 9.7128906 15 L 19.726562 4.9863281 C 20.541703 4.1713342 20.543535 2.8345972 19.728516 2.0195312 C 19.405401 1.6964546 18.988237 1.5516224 18.556641 1.5546875 z M 18.609375 2.5585938 C 18.776788 2.5698745 18.921457 2.6304403 19.019531 2.7285156 C 19.452429 3.1614122 19.452467 3.8464386 19.019531 4.2792969 L 9.3027344 13.996094 L 8 13.986328 L 8 12.642578 C 11.311977 9.3312093 11.534532 9.1074392 17.691406 2.9511719 C 17.92687 2.715732 18.195075 2.5944122 18.435547 2.5644531 C 18.495665 2.5569634 18.553571 2.5548334 18.609375 2.5585938 z M 3 5 C 1.8920054 5 1 5.8920055 1 7 L 1 19 C 1 20.107995 1.8920054 21 3 21 L 19 21 C 20.107995 21 21 20.107995 21 19 L 21 7 C 21 6.4773849 20.800573 6.0040048 20.474609 5.6484375 C 20.460475 5.6631411 20.448077 5.6788788 20.433594 5.6933594 L 19.765625 6.3613281 C 19.910216 6.5346738 20 6.7555906 20 7 L 20 19 C 20 19.553995 19.553996 20 19 20 L 3 20 C 2.4460034 20 2 19.553995 2 19 L 2 7 C 2 6.446003 2.4460034 6 3 6 L 11.814453 6 C 12.082943 5.7314802 12.498146 5.316329 12.814453 5 L 3 5 z M 4.5 7 C 4.2230012 7 4 7.2230012 4 7.5 C 4 7.7769988 4.2230012 8 4.5 8 L 8.5 8 C 8.7769988 8 9 7.7769988 9 7.5 C 9 7.2230012 8.7769988 7 8.5 7 L 4.5 7 z M 9.4746094 12 C 9.2129006 12.013531 9 12.235277 9 12.5 C 9 12.773263 9.2267377 13 9.5 13 C 9.7732622 13 10 12.773263 10 12.5 C 10 12.226737 9.7732622 12 9.5 12 C 9.4914606 12 9.4830516 11.999564 9.4746094 12 z " />
  <path
     id="path1"
     style="opacity:0.1;fill:currentColor"
     class="ColorScheme-Text"
     d="M 3 6 C 2.4460016 6 2 6.4460012 2 7 L 2 19 C 2 19.553998 2.4460016 20 3 20 L 19 20 C 19.553999 20 20 19.553998 20 19 L 20 7 C 20 6.75559 19.910216 6.5346741 19.765625 6.3613281 L 10.419922 15.707031 A 1.0001 1.0001 0 0 1 9.7050781 16 L 6.9921875 15.978516 A 1.0001 1.0001 0 0 1 6 14.978516 L 6 12.228516 A 1.0001 1.0001 0 0 1 6.2929688 11.521484 L 6.4394531 11.375 C 8.329326 9.485464 10.371318 7.4432988 11.814453 6 L 3 6 z M 4.5 7 L 8.5 7 C 8.7769997 7 9 7.2230003 9 7.5 C 9 7.7769997 8.7769997 8 8.5 8 L 4.5 8 C 4.2230003 8 4 7.7769997 4 7.5 C 4 7.2230003 4.2230003 7 4.5 7 z " />
</svg>
