<?xml version="1.0" encoding="UTF-8" standalone="no"?>
<svg
   version="1.1"
   viewBox="0 0 22 22"
   id="svg1"
   xmlns="http://www.w3.org/2000/svg"
   xmlns:svg="http://www.w3.org/2000/svg">
  <defs
     id="defs1">
    <style
       id="current-color-scheme"
       type="text/css">
        .ColorScheme-Text {
          color:#232629;
        }
      </style>
  </defs>
  <path
     id="smartphone"
     style="fill:currentColor"
     class="ColorScheme-Text"
     d="M 10.966797 0.99023438 C 9.040893 0.99023441 7.1149597 1.7248839 5.6484375 3.1914062 A 0.5 0.5 0 0 0 5.6484375 3.8984375 A 0.5 0.5 0 0 0 6.3554688 3.8984375 C 8.9063656 1.3475407 13.027229 1.3475408 15.578125 3.8984375 A 0.5 0.5 0 0 0 16.285156 3.8984375 A 0.5 0.5 0 0 0 16.285156 3.1914062 C 14.818634 1.724884 12.892701 0.99023432 10.966797 0.99023438 z M 10.966797 3.5175781 C 9.687702 3.5175782 8.4085708 4.0054916 7.4355469 4.9785156 A 0.5 0.5 0 0 0 7.4355469 5.6855469 A 0.5 0.5 0 0 0 8.1425781 5.6855469 C 9.7064786 4.1216464 12.227114 4.1216465 13.791016 5.6855469 A 0.5 0.5 0 0 0 14.498047 5.6855469 A 0.5 0.5 0 0 0 14.498047 4.9785156 C 13.525023 4.0054917 12.245893 3.5175781 10.966797 3.5175781 z M 9 7 C 7.8920011 7 7 7.8920011 7 9 L 7 19 C 7 20.107999 7.8920011 21 9 21 L 13 21 C 14.107999 21 15 20.107999 15 19 L 15 9 C 15 7.8920011 14.107999 7 13 7 L 9 7 z M 9 8 L 13 8 C 13.553999 8 14 8.4460006 14 9 L 14 19 C 14 19.553999 13.553999 20 13 20 L 9 20 C 8.4460006 20 8 19.553999 8 19 L 8 9 C 8 8.4460006 8.4460006 8 9 8 z M 10.974609 11.005859 C 9.8846188 11.005859 8.9902344 11.900243 8.9902344 12.990234 C 8.9902344 14.080226 9.8846188 14.974609 10.974609 14.974609 C 12.064601 14.974609 12.958984 14.080226 12.958984 12.990234 C 12.958984 11.900243 12.064601 11.005859 10.974609 11.005859 z M 10.974609 12.005859 C 11.524163 12.005859 11.958984 12.440682 11.958984 12.990234 C 11.958984 13.539788 11.524163 13.974609 10.974609 13.974609 C 10.425057 13.974609 9.9902344 13.539788 9.9902344 12.990234 C 9.9902344 12.440682 10.425057 12.005859 10.974609 12.005859 z M 9.5 16 C 9.2230003 16 9 16.223 9 16.5 C 9 16.777 9.2230003 17 9.5 17 L 12.5 17 C 12.777 17 13 16.777 13 16.5 C 13 16.223 12.777 16 12.5 16 L 9.5 16 z " />
  <path
     id="path4"
     style="fill:currentColor;opacity:0.05"
     class="ColorScheme-Text"
     d="m 9,8 h 4 c 0.553999,0 1,0.4460006 1,1 v 10 c 0,0.553999 -0.446001,1 -1,1 H 9 C 8.4460006,20 8,19.553999 8,19 V 9 C 8,8.4460006 8.4460006,8 9,8 Z m 1.974609,3.005859 c -1.0899902,0 -1.9843746,0.894384 -1.9843746,1.984375 0,1.089992 0.8943844,1.984375 1.9843746,1.984375 1.089992,0 1.984375,-0.894383 1.984375,-1.984375 0,-1.089991 -0.894383,-1.984375 -1.984375,-1.984375 z m 0,1 c 0.549554,0 0.984375,0.434823 0.984375,0.984375 0,0.549554 -0.434821,0.984375 -0.984375,0.984375 -0.549552,0 -0.9843746,-0.434821 -0.9843746,-0.984375 0,-0.549552 0.4348226,-0.984375 0.9843746,-0.984375 z M 9.5,16 C 9.2230003,16 9,16.223 9,16.5 9,16.777 9.2230003,17 9.5,17 h 3 C 12.777,17 13,16.777 13,16.5 13,16.223 12.777,16 12.5,16 Z"
      />
</svg>
