<?xml version="1.0" encoding="UTF-8" standalone="no"?>
<svg
   version="1.1"
   viewBox="0 0 22 22"
   id="svg1"
   xmlns="http://www.w3.org/2000/svg"
   xmlns:svg="http://www.w3.org/2000/svg">
  <defs
     id="defs1">
    <style
       id="current-color-scheme"
       type="text/css">
        .ColorScheme-Text {
          color:#232629;
        }
      </style>
  </defs>
  <path
     id="smartphone"
     class="ColorScheme-Text"
     style="fill:currentColor"
     d="M 7 2 C 5.8920022 2 5 2.8920022 5 4 L 5 18 C 5 19.107998 5.8920022 20 7 20 L 14 20 C 14.836917 20 15.55049 19.490191 15.849609 18.763672 C 15.390742 18.493046 15.101964 18.01406 15.021484 17.449219 C 15.014059 17.452528 15.007331 17.457402 15 17.460938 L 15 18 C 15 18.553998 14.553998 19 14 19 L 7 19 C 6.4460012 19 6 18.553998 6 18 L 6 4 C 6 3.4460012 6.4460012 3 7 3 L 14 3 C 14.553998 3 15 3.4460012 15 4 L 15 5.8085938 L 15 9.1601562 C 15.566442 9.4228495 15.931967 9.9587408 15.970703 10.626953 C 15.98089 10.622815 15.99003 10.615984 16 10.611328 L 16 5.7988281 L 16 4 C 16 2.8920022 15.107998 2 14 2 L 7 2 z M 10.5 4 C 10.223858 4 10 4.2238582 10 4.5 C 10 4.7761418 10.223858 5 10.5 5 C 10.776142 5 11 4.7761418 11 4.5 C 11 4.2238582 10.776142 4 10.5 4 z M 14.248047 10 C 14.071715 10.007445 13.891621 10.077129 13.757812 10.210938 L 12.146484 11.822266 A 0.5 0.5 0 0 0 12.146484 12.529297 A 0.5 0.5 0 0 0 12.853516 12.529297 L 14 11.382812 L 14 16.175781 A 0.5 0.5 0 0 0 14.5 16.675781 A 0.5 0.5 0 0 0 15 16.175781 L 15 10.724609 C 15 10.421834 14.798122 10.155186 14.550781 10.052734 C 14.458028 10.014315 14.353846 9.995533 14.248047 10 z M 16.447266 11.419922 A 0.5 0.5 0 0 0 15.947266 11.919922 L 15.947266 17.207031 C 15.947266 17.540324 16.166316 17.829078 16.4375 17.941406 C 16.708684 18.053734 17.069015 18.005206 17.304688 17.769531 L 18.800781 16.273438 A 0.5 0.5 0 0 0 18.800781 15.566406 A 0.5 0.5 0 0 0 18.09375 15.566406 L 16.947266 16.712891 L 16.947266 11.919922 A 0.5 0.5 0 0 0 16.447266 11.419922 z M 8.5 17 C 8.2230006 17 8 17.223 8 17.5 C 8 17.777 8.2230006 18 8.5 18 L 12.5 18 C 12.777 18 13 17.777 13 17.5 C 13 17.223 12.777 17 12.5 17 L 8.5 17 z " />
</svg>
