<?xml version="1.0" encoding="UTF-8" standalone="no"?>
<svg
   version="1.1"
   viewBox="0 0 22 22"
   id="svg1"
   xmlns="http://www.w3.org/2000/svg"
   xmlns:svg="http://www.w3.org/2000/svg">
  <defs
     id="defs1">
    <style
       id="current-color-scheme"
       type="text/css">
        .ColorScheme-Text {
          color:#232629;
        }
      </style>
  </defs>
  <path
     id="path1"
     style="opacity:0.1;fill:currentColor"
     class="ColorScheme-Text"
     d="M 5.5 5 C 5.2179362 5 5 5.2179362 5 5.5 L 5 17.5 C 5 18.334347 5.665653 19 6.5 19 L 15.5 19 C 16.334347 19 17 18.334347 17 17.5 L 17 5.5 C 17 5.2179362 16.782064 5 16.5 5 L 14.361328 5 C 14.448604 5.1479743 14.5 5.3185289 14.5 5.5 C 14.5 6.0453503 14.04535 6.5 13.5 6.5 L 8.5 6.5 C 7.9546497 6.5 7.5 6.0453503 7.5 5.5 C 7.5 5.3185289 7.5513958 5.1479743 7.6386719 5 L 5.5 5 z " />
  <path
     id="clipboard-shape"
     class="ColorScheme-Text"
     style="fill:currentColor"
     d="M 8 2 C 7.4536386 2 7 2.4536386 7 3 L 7 4 L 5.5 4 C 4.6774968 4 4 4.6774968 4 5.5 L 4 17.5 C 4 18.874787 5.1252132 20 6.5 20 L 15.5 20 C 16.874787 20 18 18.874787 18 17.5 L 18 5.5 C 18 4.6774968 17.322503 4 16.5 4 L 15 4 L 15 3 C 15 2.4536386 14.546361 2 14 2 L 8 2 z M 8 3 L 14 3 L 14 4 C 14 4.5463614 14.453639 5 15 5 L 16.5 5 C 16.782064 5 17 5.2179359 17 5.5 L 17 17.5 C 17 18.334348 16.334348 19 15.5 19 L 6.5 19 C 5.6656522 19 5 18.334348 5 17.5 L 5 5.5 C 5 5.2179359 5.2179359 5 5.5 5 L 7 5 C 7.5463614 5 8 4.5463614 8 4 L 8 3 z M 8.5 5 A 0.5 0.5 0 0 0 8 5.5 A 0.5 0.5 0 0 0 8.5 6 L 13.5 6 A 0.5 0.5 0 0 0 14 5.5 A 0.5 0.5 0 0 0 13.5 5 L 8.5 5 z " />
  <path
     id="tesxt"
     class="ColorScheme-Text"
     style="opacity:0.6;fill:currentColor"
     d="M 8.5,6 C 8.2238576,6 8,6.2238576 8,6.5 8,6.7761424 8.2238576,7 8.5,7 h 7 C 15.776142,7 16,6.7761424 16,6.5 16,6.2238576 15.776142,6 15.5,6 Z m 0,3 C 8.2238576,9 8,9.2238576 8,9.5 8,9.7761424 8.2238576,10 8.5,10 h 7 C 15.776142,10 16,9.7761424 16,9.5 16,9.2238576 15.776142,9 15.5,9 Z m 0,3 C 8.2238576,12 8,12.223858 8,12.5 8,12.776142 8.2238576,13 8.5,13 h 4 C 12.776142,13 13,12.776142 13,12.5 13,12.223858 12.776142,12 12.5,12 Z"
     transform="translate(-1,3)" />
</svg>
