<?xml version="1.0" encoding="UTF-8" standalone="no"?>
<svg
   height="22"
   width="22"
   version="1.1"
   id="svg1"
   xmlns="http://www.w3.org/2000/svg"
   xmlns:svg="http://www.w3.org/2000/svg">
  <defs
     id="defs1">
    <style
       type="text/css"
       id="current-color-scheme">
            .ColorScheme-Text {
                color:#232629;
            }
        </style>
  </defs>
  <path
     id="path1"
     style="fill:currentColor"
     class="ColorScheme-Text"
     d="M 11 2 C 6.0294473 2 2 6.0294473 2 11 C 2 15.970553 6.0294473 20 11 20 C 15.970553 20 20 15.970553 20 11 C 20 6.0294473 15.970553 2 11 2 z M 11 3 C 15.41827 3 19 6.5817308 19 11 C 19 15.41827 15.41827 19 11 19 C 6.5817308 19 3 15.41827 3 11 C 3 6.5817308 6.5817308 3 11 3 z M 7.6289062 7 C 6.7266401 7 6 7.7266401 6 8.6289062 L 6 13.371094 C 6 14.27336 6.7266401 15 7.6289062 15 L 8.3710938 15 C 9.2733598 15 10 14.27336 10 13.371094 L 10 8.6289062 C 10 7.7266401 9.2733598 7 8.3710938 7 L 7.6289062 7 z M 13.628906 7 C 12.72664 7 12 7.7266401 12 8.6289062 L 12 13.371094 C 12 14.27336 12.72664 15 13.628906 15 L 14.371094 15 C 15.27336 15 16 14.27336 16 13.371094 L 16 8.6289062 C 16 7.7266401 15.27336 7 14.371094 7 L 13.628906 7 z M 7.6738281 8 L 8.3261719 8 C 8.6994195 8 9 8.3005808 9 8.6738281 L 9 13.326172 C 9 13.69942 8.6994195 14 8.3261719 14 L 7.6738281 14 C 7.3005808 14 7 13.69942 7 13.326172 L 7 8.6738281 C 7 8.3005808 7.3005807 8 7.6738281 8 z M 13.673828 8 L 14.326172 8 C 14.773235 8 15 8.3005808 15 8.6738281 L 15 13.326172 C 15 13.69942 14.69942 14 14.326172 14 L 13.673828 14 C 13.30058 14 13 13.69942 13 13.326172 L 13 8.6738281 C 13 8.3005808 13.30058 8 13.673828 8 z " />
</svg>
