<?xml version="1.0" encoding="UTF-8" standalone="no"?>
<svg
   height="22"
   width="22"
   version="1.1"
   id="svg1"
   xmlns="http://www.w3.org/2000/svg"
   xmlns:svg="http://www.w3.org/2000/svg">
  <defs
     id="defs1">
    <style
       type="text/css"
       id="current-color-scheme">
            .ColorScheme-Text {
                color:#232629;
            }
        </style>
  </defs>
  <path
     id="path1"
     style="fill:currentColor"
     class="ColorScheme-Text"
     d="m 9.4101562,7.1699219 c -0.216,0.013389 -0.4265459,0.073355 -0.6171874,0.1757812 C 8.305659,7.6061818 8.0009926,8.1134588 8,8.6660156 v 4.6679684 c 2.567e-4,1.19788 1.3352004,1.91231 2.332031,1.248047 l 3.5,-2.333984 c 0.890382,-0.593825 0.890382,-1.902269 0,-2.4960939 l -3.5,-2.3339843 C 10.059948,7.237107 9.7362599,7.1500128 9.4101562,7.1699219 Z m 0.1152344,0.9980469 c 0.089833,0.00419 0.1768731,0.032529 0.2519532,0.082031 l 3.5000002,2.3339842 c 0.296795,0.197942 0.296795,0.63409 0,0.832032 L 9.7773438,13.75 C 9.4450668,13.971421 9.0000853,13.733277 9,13.333984 V 8.6660156 C 9.0004415,8.4822035 9.1016925,8.3134518 9.2636719,8.2265625 9.3439485,8.1835641 9.4344432,8.1633041 9.5253906,8.1679688 Z" />
  <path
     id="path2"
     style="opacity:0.1;fill:currentColor"
     class="ColorScheme-Text"
     d="m 11,2.7028031 c 4.582415,0 8.297197,3.7147816 8.297197,8.2971969 0,4.582415 -3.714782,8.297197 -8.297197,8.297197 C 6.4175847,19.297197 2.7028031,15.582415 2.7028031,11 2.7028031,6.4175847 6.4175847,2.7028031 11,2.7028031 Z M 9.4101562,7.1699219 c -0.216,0.013389 -0.4265459,0.073355 -0.6171874,0.1757812 C 8.305659,7.6061818 8.0009926,8.1134588 8,8.6660156 v 4.6679684 c 2.567e-4,1.19788 1.3352004,1.91231 2.332031,1.248047 l 3.5,-2.333984 c 0.890382,-0.593825 0.890382,-1.902269 0,-2.4960939 l -3.5,-2.3339843 C 10.059948,7.237107 9.7362599,7.1500128 9.4101562,7.1699219 Z" />
  <path
     id="path3"
     style="fill:currentColor;opacity:0.7"
     class="ColorScheme-Text"
     d="m 11,1.6656535 c -5.1552171,0 -9.3343465,4.1791294 -9.3343465,9.3343465 0,5.155218 4.1791294,9.334347 9.3343465,9.334347 5.155218,0 9.334347,-4.179129 9.334347,-9.334347 0,-5.1552171 -4.179129,-9.3343465 -9.334347,-9.3343465 z m 0,1.0371496 c 4.582415,0 8.297197,3.7147816 8.297197,8.2971969 0,4.582415 -3.714782,8.297197 -8.297197,8.297197 C 6.4175847,19.297197 2.7028031,15.582415 2.7028031,11 2.7028031,6.4175847 6.4175847,2.7028031 11,2.7028031 Z" />
</svg>
