<?xml version="1.0" encoding="UTF-8" standalone="no"?>
<svg
   height="22"
   width="22"
   version="1.1"
   id="svg1"
   xmlns="http://www.w3.org/2000/svg"
   xmlns:svg="http://www.w3.org/2000/svg">
  <defs
     id="defs1">
    <style
       type="text/css"
       id="current-color-scheme">
            .ColorScheme-Text {
                color:#232629;
            }
        </style>
  </defs>
  <path
     id="path2"
     style="opacity:0.1;fill:currentColor"
     class="ColorScheme-Text"
     d="m 11,2.703125 c -4.5824104,0 -8.296875,3.7144648 -8.296875,8.296875 0,4.58241 3.7144646,8.296875 8.296875,8.296875 4.58241,0 8.296875,-3.714465 8.296875,-8.296875 C 19.296875,6.4175898 15.58241,2.703125 11,2.703125 Z M 8.6289062,7 H 13.371094 C 14.273359,7 15,7.7266411 15,8.6289062 V 13.371094 C 15,14.273359 14.273359,15 13.371094,15 H 8.6289062 C 7.7266411,15 7,14.273359 7,13.371094 V 8.6289062 C 7,7.7266411 7.7266411,7 8.6289062,7 Z" />
  <path
     id="path1"
     style="fill:currentColor"
     class="ColorScheme-Text"
     d="M 8.6289062,7 C 7.7266401,7 7,7.7266401 7,8.6289062 V 13.371094 C 7,14.27336 7.7266401,15 8.6289062,15 H 13.371094 C 14.27336,15 15,14.27336 15,13.371094 V 8.6289062 C 15,7.7266401 14.27336,7 13.371094,7 Z m 0.044922,1 H 13.326172 C 13.699419,8 14,8.3005808 14,8.6738281 V 13.326172 C 14,13.69942 13.699419,14 13.326172,14 H 8.6738281 C 8.3005808,14 8,13.69942 8,13.326172 V 8.6738281 C 8,8.3005808 8.3005807,8 8.6738282,8 Z" />
  <path
     id="path3"
     style="opacity:0.7;fill:currentColor"
     class="ColorScheme-Text"
     d="m 11,1.665653 c -5.155217,0 -9.334347,4.1791294 -9.334347,9.334347 0,5.155217 4.17913,9.334347 9.334347,9.334347 5.155218,0 9.334347,-4.179129 9.334347,-9.334347 0,-5.1552176 -4.179129,-9.334347 -9.334347,-9.334347 z m 0,1.0371496 c 4.582415,0 8.297197,3.7147816 8.297197,8.2971974 0,4.582414 -3.714782,8.297196 -8.297197,8.297196 C 6.417585,19.297196 2.702803,15.582414 2.702803,11 2.702803,6.4175842 6.417585,2.7028026 11,2.7028026 Z" />
</svg>
