<?xml version="1.0" encoding="UTF-8" standalone="no"?>
<svg
   height="22"
   width="22"
   version="1.1"
   id="svg1"
   xmlns="http://www.w3.org/2000/svg"
   xmlns:svg="http://www.w3.org/2000/svg">
  <defs
     id="defs1">
    <style
       type="text/css"
       id="current-color-scheme">
            .ColorScheme-Text {
                color:#232629;
            }
        </style>
  </defs>
  <path
     id="path2"
     style="opacity:0.1;fill:currentColor"
     class="ColorScheme-Text"
     d="m 11,2.703125 c -4.5824104,0 -8.296875,3.7144648 -8.296875,8.296875 0,4.58241 3.7144646,8.296875 8.296875,8.296875 4.58241,0 8.296875,-3.714465 8.296875,-8.296875 C 19.296875,6.4175898 15.58241,2.703125 11,2.703125 Z M 7.6289062,7 H 8.3710938 C 9.2733588,7 10,7.7266411 10,8.6289062 V 13.371094 C 10,14.273359 9.2733588,15 8.3710938,15 H 7.6289062 C 6.7266411,15 6,14.273359 6,13.371094 V 8.6289062 C 6,7.7266411 6.7266411,7 7.6289062,7 Z m 5.9999998,0 h 0.742188 C 15.273359,7 16,7.7266411 16,8.6289062 V 13.371094 C 16,14.273359 15.273359,15 14.371094,15 H 13.628906 C 12.726641,15 12,14.273359 12,13.371094 V 8.6289062 C 12,7.7266411 12.726641,7 13.628906,7 Z" />
  <path
     id="path1"
     style="fill:currentColor"
     class="ColorScheme-Text"
     d="M 7.6289062,7 C 6.7266401,7 6,7.7266401 6,8.6289062 V 13.371094 C 6,14.27336 6.7266401,15 7.6289062,15 H 8.3710938 C 9.2733598,15 10,14.27336 10,13.371094 V 8.6289062 C 10,7.7266401 9.2733598,7 8.3710938,7 Z M 13.628906,7 C 12.72664,7 12,7.7266401 12,8.6289062 V 13.371094 C 12,14.27336 12.72664,15 13.628906,15 h 0.742188 C 15.27336,15 16,14.27336 16,13.371094 V 8.6289062 C 16,7.7266401 15.27336,7 14.371094,7 Z M 7.6738281,8 H 8.3261719 C 8.6994195,8 9,8.3005808 9,8.6738281 V 13.326172 C 9,13.69942 8.6994195,14 8.3261719,14 H 7.6738281 C 7.3005808,14 7,13.69942 7,13.326172 V 8.6738281 C 7,8.3005808 7.3005807,8 7.6738281,8 Z m 5.9999999,0 h 0.652344 C 14.773235,8 15,8.3005808 15,8.6738281 V 13.326172 C 15,13.69942 14.69942,14 14.326172,14 H 13.673828 C 13.30058,14 13,13.69942 13,13.326172 V 8.6738281 C 13,8.3005808 13.30058,8 13.673828,8 Z" />
  <path
     id="path3"
     style="opacity:0.7;fill:currentColor"
     class="ColorScheme-Text"
     d="m 11,1.665653 c -5.155217,0 -9.334347,4.1791294 -9.334347,9.334347 0,5.155217 4.17913,9.334347 9.334347,9.334347 5.155218,0 9.334347,-4.179129 9.334347,-9.334347 0,-5.1552176 -4.179129,-9.334347 -9.334347,-9.334347 z m 0,1.0371496 c 4.582415,0 8.297197,3.7147816 8.297197,8.2971974 0,4.582414 -3.714782,8.297196 -8.297197,8.297196 C 6.417585,19.297196 2.702803,15.582414 2.702803,11 2.702803,6.4175842 6.417585,2.7028026 11,2.7028026 Z" />
</svg>
