<?xml version="1.0" encoding="UTF-8" standalone="no"?>
<svg
   height="22"
   width="22"
   version="1.1"
   id="svg1"
   xmlns="http://www.w3.org/2000/svg"
   xmlns:svg="http://www.w3.org/2000/svg">
  <defs
     id="defs1">
    <style
       type="text/css"
       id="current-color-scheme">
            .ColorScheme-Text {
                color:#232629;
            }
        </style>
  </defs>
  <path
     id="path1"
     style="fill:currentColor"
     class="ColorScheme-Text"
     d="M 11 2 C 6.0294423 2 2 6.0294423 2 11 C 2 15.970558 6.0294423 20 11 20 C 15.970558 20 20 15.970558 20 11 C 20 6.0294423 15.970558 2 11 2 z M 11 3 C 15.418274 3 19 6.5817264 19 11 C 19 15.418274 15.418274 19 11 19 C 6.5817264 19 3 15.418274 3 11 C 3 6.5817264 6.5817264 3 11 3 z M 8.6289062 7 C 7.7266391 7 7 7.7266391 7 8.6289062 L 7 13.371094 C 7 14.273361 7.7266391 15 8.6289062 15 L 13.371094 15 C 14.273361 15 15 14.273361 15 13.371094 L 15 8.6289062 C 15 7.7266391 14.273361 7 13.371094 7 L 8.6289062 7 z M 8.6738281 8 L 13.326172 8 C 13.69942 8 14 8.3005804 14 8.6738281 L 14 13.326172 C 14 13.69942 13.69942 14 13.326172 14 L 8.6738281 14 C 8.3005804 14 8 13.69942 8 13.326172 L 8 8.6738281 C 8 8.3005804 8.3005804 8 8.6738281 8 z " />
</svg>
