<?xml version="1.0" encoding="UTF-8" standalone="no"?>
<svg
   height="22"
   width="22"
   version="1.1"
   id="svg1"
   xml:space="preserve"
   xmlns="http://www.w3.org/2000/svg"
   xmlns:svg="http://www.w3.org/2000/svg"><defs
     id="defs1"><style
       type="text/css"
       id="current-color-scheme">
            .ColorScheme-Text {
                color:#232629;
            }
        </style><style
       type="text/css"
       id="current-color-scheme-5">
            .ColorScheme-Text {
                color:#232629;
            }
        </style></defs><g
     id="g1"
     transform="translate(-0.50270504,0.49946246)"><path
       id="path3"
       style="fill:currentColor"
       class="ColorScheme-Text"
       d="m 19.371094,2.0175781 c -0.08489,0.022497 -0.16236,0.066958 -0.22461,0.1289063 L 3.1464844,18.146484 c -0.1952123,0.195254 -0.1952123,0.511778 0,0.707032 0.1952535,0.195212 0.5117777,0.195212 0.7070312,0 L 19.853516,2.8535156 c 0.195212,-0.1952535 0.195212,-0.5117777 0,-0.7070312 C 19.727212,2.0205448 19.543383,1.9714246 19.371094,2.0175781 Z" /></g><path
     id="path2"
     style="fill:currentColor;opacity:0.4"
     class="ColorScheme-Text"
     d="M 11 2 C 9.3466554 2 8 3.3466554 8 5 L 8 11 C 8 11.229116 8.027218 11.451446 8.0761719 11.666016 L 9 10.742188 L 9 5 C 9 3.8833558 9.8833558 3 11 3 C 12.116644 3 13 3.8833558 13 5 L 13 6.7421875 L 14 5.7421875 L 14 5 C 14 3.3466554 12.653344 2 11 2 z M 14 7.8515625 L 13 8.8515625 L 13 11 C 13 12.116644 12.116644 13 11 13 C 10.403227 13 9.8759979 12.745221 9.5117188 12.339844 L 8.8105469 13.041016 C 9.3586536 13.628423 10.135736 14 11 14 C 12.653344 14 14 12.653344 14 11 L 14 7.8515625 z M 6.5 8 C 6.2238579 8 6 8.2238579 6 8.5 L 6 11.013672 C 6 11.806758 6.1880307 12.556086 6.5195312 13.222656 L 7.2753906 12.466797 C 7.0991226 12.016454 7 11.527829 7 11.013672 L 7 8.5 C 7 8.2238579 6.7761421 8 6.5 8 z M 15.5 8 C 15.223858 8 15 8.2238579 15 8.5 L 15 11.013672 C 15 11.921897 14.69785 12.756632 14.189453 13.425781 C 14.106823 13.52593 14.022786 13.624999 13.939453 13.724609 C 13.21219 14.509151 12.171804 15 11.013672 15 L 10.986328 15 C 9.8451603 15 8.8193537 14.522334 8.09375 13.757812 L 7.3808594 14.470703 L 9.6367188 17.234375 C 9.8717915 17.522094 10 17.880412 10 18.251953 L 10 20 L 8.5 20 C 8.2238579 20 8 20.223858 8 20.5 C 8 20.776142 8.2238579 21 8.5 21 L 13.5 21 C 13.776142 21 14 20.776142 14 20.5 C 14 20.223858 13.776142 20 13.5 20 L 12 20 L 12 18.251953 C 12 17.880412 12.128207 17.522094 12.363281 17.234375 L 14.775391 14.28125 C 15.537602 13.405183 16 12.262166 16 11.013672 L 16 8.5 C 16 8.2238579 15.776142 8 15.5 8 z M 9.8007812 15.855469 C 10.180996 15.948704 10.577957 16 10.986328 16 L 11.013672 16 C 11.422044 16 11.819004 15.9487 12.199219 15.855469 L 11.589844 16.601562 C 11.208992 17.06771 11 17.650006 11 18.251953 C 11 17.650007 10.791012 17.06771 10.410156 16.601562 L 9.8007812 15.855469 z " /></svg>
