<?xml version="1.0" encoding="UTF-8" standalone="no"?>
<svg
   height="22"
   width="22"
   version="1.1"
   id="svg1"
   xml:space="preserve"
   xmlns="http://www.w3.org/2000/svg"
   xmlns:svg="http://www.w3.org/2000/svg"><defs
     id="defs1"><style
       type="text/css"
       id="current-color-scheme">
            .ColorScheme-Text {
                color:#232629;
            }
        </style><style
       type="text/css"
       id="current-color-scheme-5">
            .ColorScheme-Text {
                color:#232629;
            }
        </style></defs><path
     id="path3"
     style="fill:currentColor"
     class="ColorScheme-Text"
     d="M 11 2 C 9.3466571 2 8 3.3466571 8 5 L 8 11 C 8 11.229116 8.027218 11.451446 8.0761719 11.666016 L 9 10.742188 L 9 5 C 9 3.8833569 9.8833569 3 11 3 C 12.116643 3 13 3.8833569 13 5 L 13 6.7421875 L 14 5.7421875 L 14 5 C 14 3.3466571 12.653342 2 11 2 z M 18.998047 2.5 C 18.954611 2.4999175 18.912213 2.5060398 18.869141 2.5175781 C 18.784251 2.5400751 18.706781 2.5845361 18.644531 2.6464844 L 2.6445312 18.646484 C 2.4493191 18.841738 2.4493191 19.158262 2.6445312 19.353516 C 2.8397846 19.548727 3.1563092 19.548727 3.3515625 19.353516 L 7.7636719 14.941406 L 9.6367188 17.234375 C 9.8717912 17.522094 10 17.880412 10 18.251953 L 10 20 L 8.5 20 C 8.2238582 20 8 20.223858 8 20.5 C 8 20.776142 8.2238582 21 8.5 21 L 13.5 21 C 13.776142 21 14 20.776142 14 20.5 C 14 20.223858 13.776142 20 13.5 20 L 12 20 L 12 18.251953 C 12 17.880412 12.128207 17.522094 12.363281 17.234375 L 14.775391 14.28125 C 15.537601 13.405184 16 12.262165 16 11.013672 L 16 8.5 C 16 8.2238582 15.776142 8 15.5 8 C 15.223858 8 15 8.2238582 15 8.5 L 15 11.013672 C 15 11.921896 14.69785 12.756633 14.189453 13.425781 C 14.106823 13.52593 14.022786 13.624999 13.939453 13.724609 C 13.212191 14.509151 12.171803 15 11.013672 15 L 10.986328 15 C 10.063412 15 9.2191512 14.684078 8.5449219 14.160156 L 9.2636719 13.441406 C 9.7535643 13.792773 10.352768 14 11 14 C 12.653342 14 14 12.653342 14 11 L 14 8.7050781 L 19.351562 3.3535156 C 19.546774 3.1582623 19.546774 2.8417377 19.351562 2.6464844 C 19.256835 2.5520298 19.128354 2.5002475 18.998047 2.5 z M 6.5 8 C 6.2238582 8 6 8.2238582 6 8.5 L 6 11.013672 C 6 11.806757 6.1880311 12.556087 6.5195312 13.222656 L 7.2753906 12.466797 C 7.0991228 12.016454 7 11.527828 7 11.013672 L 7 8.5 C 7 8.2238582 6.7761418 8 6.5 8 z M 13 9.7050781 L 13 11 C 13 12.116643 12.116643 13 11 13 C 10.625056 13 10.279296 12.897963 9.9824219 12.722656 L 13 9.7050781 z M 9.8007812 15.855469 C 10.180996 15.948704 10.577958 16 10.986328 16 L 11.013672 16 C 11.422043 16 11.819004 15.9487 12.199219 15.855469 L 11.589844 16.601562 C 11.208992 17.06771 11 17.650007 11 18.251953 C 11 17.650008 10.791012 17.06771 10.410156 16.601562 L 9.8007812 15.855469 z " /></svg>
