<?xml version="1.0" encoding="UTF-8" standalone="no"?>
<svg
   height="22"
   width="22"
   version="1.1"
   id="svg1"
   xmlns="http://www.w3.org/2000/svg"
   xmlns:svg="http://www.w3.org/2000/svg">
  <defs
     id="defs1">
    <style
       type="text/css"
       id="current-color-scheme">
            .ColorScheme-Text {
                color:#232629;
            }
        </style>
  </defs>
  <path
     id="path2"
     style="fill:currentColor"
     class="ColorScheme-Text"
     d="M 11,2 C 9.3466537,2 8,3.3466537 8,5 v 6 c 0,1.653346 1.3466537,3 3,3 1.653346,0 3,-1.346654 3,-3 V 5 C 14,3.3466537 12.653346,2 11,2 Z m 0,1 c 1.116645,0 2,0.8833547 2,2 v 6 c 0,1.116645 -0.883355,2 -2,2 C 9.8833547,13 9,12.116645 9,11 V 5 C 9,3.8833547 9.8833547,3 11,3 Z M 6.5,8 C 6.2238576,8 6,8.2238576 6,8.5 v 2.513672 c 0,1.248495 0.4623971,2.391512 1.2246094,3.267578 l 2.4121094,2.953125 C 9.8717918,17.522094 10,17.880412 10,18.251953 V 20 H 8.5 C 8.2238576,20 8,20.223858 8,20.5 8,20.776142 8.2238576,21 8.5,21 h 5 C 13.776142,21 14,20.776142 14,20.5 14,20.223858 13.776142,20 13.5,20 H 12 v -1.748047 c 0,-0.371541 0.128207,-0.729859 0.363281,-1.017578 l 2.41211,-2.953125 C 15.537603,13.405182 16,12.262167 16,11.013672 V 8.5 C 16,8.2238576 15.776142,8 15.5,8 15.223858,8 15,8.2238576 15,8.5 v 2.513672 c 0,0.908226 -0.30215,1.742959 -0.810547,2.412109 -0.08263,0.100149 -0.166663,0.199217 -0.249996,0.298827 C 13.212193,14.50915 12.171805,15 11.013672,15 h -0.02734 C 9.8281935,15 8.7878071,14.509149 8.0605469,13.724609 7.9825167,13.620907 7.8933366,13.524741 7.8105469,13.425781 7.3021514,12.756632 7,11.921898 7,11.013672 V 8.5 C 7,8.2238576 6.7761424,8 6.5,8 Z m 3.3007812,7.855469 C 10.180996,15.948704 10.577956,16 10.986328,16 h 0.02734 c 0.408373,0 0.805332,-0.0513 1.185547,-0.144531 L 11.58984,16.601562 C 11.208988,17.06771 11,17.650005 11,18.251953 11,17.650006 10.791012,17.06771 10.410156,16.601562 Z" />
  <path
     id="path1"
     style="opacity:0.4;fill:currentColor"
     class="ColorScheme-Text"
     d="m 11,3 c 1.116645,0 2,0.8833547 2,2 v 6 c 0,1.116645 -0.883355,2 -2,2 C 9.8833547,13 9,12.116645 9,11 V 5 C 9,3.8833547 9.8833547,3 11,3 Z" />
</svg>
