<?xml version="1.0" encoding="UTF-8" standalone="no"?>
<svg
   height="22"
   width="22"
   version="1.1"
   id="svg1"
   xmlns="http://www.w3.org/2000/svg"
   xmlns:svg="http://www.w3.org/2000/svg">
  <defs
     id="defs1">
    <style
       type="text/css"
       id="current-color-scheme">
            .ColorScheme-Text {
                color:#232629;
            }
        </style>
  </defs>
  <path
     id="path1"
     style="fill:currentColor;opacity:0.4"
     class="ColorScheme-Text"
     d="M 11.5 3.0039062 C 7.7881017 3.0039063 4.0752837 4.4169034 1.2460938 7.2460938 C 1.0508823 7.4413467 1.0508823 7.7578721 1.2460938 7.953125 C 1.4413467 8.1483362 1.7578721 8.1483362 1.953125 7.953125 C 7.2293587 2.6768911 15.770639 2.6768915 21.046875 7.953125 C 21.242128 8.148336 21.558653 8.148336 21.753906 7.953125 C 21.949118 7.7578721 21.949118 7.4413467 21.753906 7.2460938 C 18.924717 4.4169036 15.211897 3.0039062 11.5 3.0039062 z M 11.5 7.0039062 C 8.8117852 7.0039063 6.1243177 8.0280251 4.0761719 10.076172 C 3.8809607 10.271425 3.8809607 10.58795 4.0761719 10.783203 C 4.2714248 10.978415 4.5879502 10.978415 4.7832031 10.783203 C 8.4973489 7.0690575 14.502652 7.0690578 18.216797 10.783203 C 18.41205 10.978415 18.728575 10.978415 18.923828 10.783203 C 19.11904 10.58795 19.11904 10.271425 18.923828 10.076172 C 16.875682 8.0280253 14.188213 7.0039063 11.5 7.0039062 z " />
  <path
     id="path3"
     style="fill:currentColor"
     class="ColorScheme-Text"
     d="m 11.5,11.003906 c -1.6645331,0 -3.3285998,0.633286 -4.5957031,1.900391 -0.1952115,0.195253 -0.1952115,0.511778 0,0.707031 0.195253,0.195212 0.5117782,0.195212 0.7070312,0 2.1064635,-2.106464 5.4785709,-2.150014 7.6386719,-0.132812 0.117741,-0.327143 0.288148,-0.6282 0.501953,-0.892578 C 14.535416,11.531992 13.01811,11.003906 11.5,11.003906 Z M 17.998047,12.5 C 16.900119,12.5 16,13.400119 16,14.498047 V 15 H 15.857422 C 15.39011,15 15,15.39011 15,15.857422 v 2.945312 C 15,19.458358 15.541643,20 16.197266,20 h 2.986328 C 20.180737,20 21,19.180737 21,18.183594 V 15.857422 C 21,15.39011 20.60989,15 20.142578,15 H 20 V 14.498047 C 20,13.400119 19.099881,12.5 18.001953,12.5 Z m 0,1 h 0.0039 C 18.559477,13.5 19,13.940553 19,14.498047 V 15 H 17 V 14.498047 C 17,13.940553 17.440553,13.5 17.998047,13.5 Z M 11.5,15 C 10.125217,15 9,16.125217 9,17.5 9,18.874783 10.125217,20 11.5,20 12.874783,20 14,18.874783 14,17.5 14,16.125217 12.874783,15 11.5,15 Z m 0,1 C 12.334344,16 13,16.665656 13,17.5 13,18.334344 12.334344,19 11.5,19 10.665656,19 10,18.334344 10,17.5 10,16.665656 10.665656,16 11.5,16 Z m 4.5,0 h 4 v 2.183594 C 20,18.640298 19.640298,19 19.183594,19 H 16.197266 C 16.082082,19 16,18.91792 16,18.802734 Z" />
</svg>
