<?xml version="1.0" encoding="UTF-8"?>
<svg width="22" height="22" version="1.1" xmlns="http://www.w3.org/2000/svg">
  <defs>
    <style id="current-color-scheme" type="text/css">.ColorScheme-Text { color:#232629; }</style>
  </defs>
  <g class="ColorScheme-Text" fill="currentColor" stroke="none">
    <path opacity="0.2" d="m 18,3 c -1.099344,0 -2,0.9006567 -2,2 v 12 c 0,1.099344 0.900656,2 2,2 1.099344,0 2,-0.900656 2,-2 V 5 C 20,3.9006567 19.099344,3 18,3 Z m 0,1 c 0.562645,0 1,0.4373532 1,1 v 12 c 0,0.562645 -0.437355,1 -1,1 -0.562645,0 -1,-0.437355 -1,-1 V 5 c 0,-0.5626468 0.437355,-1 1,-1 z"/>
  </g>
  <g class="ColorScheme-Text" transform="translate(-66,66)" fill="currentColor" stroke="none">
    <path d="M 68 -64 C 67.447717 -64 67 -63.552283 67 -63 L 67 -62 C 67 -61.447717 67.447717 -61 68 -61 L 69.472656 -61 C 69.764194 -61 70 -60.764194 70 -60.472656 C 69.984604 -60.196516 69.748798 -59.984604 69.472656 -60 L 67.5 -60 C 67.223898 -60 67 -59.776102 67 -59.5 C 67 -59.223898 67.223898 -59 67.5 -59 L 69.478516 -59 C 70.31886 -59 71 -59.68114 71 -60.521484 C 70.988081 -61.349911 70.306941 -62.011919 69.478516 -62 L 68 -62 L 68 -63 L 70 -63 C 70.276102 -63 70.5 -63.223898 70.5 -63.5 C 70.5 -63.776102 70.276102 -64 70 -64 L 68 -64 z M 73.263672 -64 C 72.565737 -64 72 -63.434263 72 -62.736328 L 72 -60.318359 C 72 -59.589882 72.589882 -59 73.318359 -59 L 74.654297 -59 C 75.397061 -59 76 -59.602939 76 -60.345703 L 76 -60.654297 C 76 -61.397061 75.397061 -62 74.654297 -62 L 74.199219 -62 C 73.923157 -62 73.699219 -61.776062 73.699219 -61.5 C 73.699219 -61.223938 73.923157 -61 74.199219 -61 L 74.664062 -61 C 74.849781 -61 75 -60.849781 75 -60.664062 L 75 -60.335938 C 75 -60.150219 74.849781 -60 74.664062 -60 L 73.308594 -60 C 73.138147 -60 73 -60.138147 73 -60.308594 L 73 -62.736328 C 73 -62.88187 73.11813 -63 73.263672 -63 L 75.011719 -63 C 75.281283 -63 75.5 -63.218717 75.5 -63.488281 L 75.5 -63.511719 C 75.5 -63.781287 75.281283 -64 75.011719 -64 L 73.263672 -64 z M 74 -57 C 72.900657 -57 72 -56.099343 72 -55 L 72 -49 C 72 -47.900656 72.900657 -47 74 -47 C 75.099343 -47 76 -47.900656 76 -49 L 76 -55 C 76 -56.099343 75.099343 -57 74 -57 z M 74 -56 C 74.562647 -56 75 -55.562645 75 -55 L 75 -49 C 75 -48.437355 74.562647 -48 74 -48 C 73.437353 -48 73 -48.437355 73 -49 L 73 -55 C 73 -55.562645 73.437353 -56 74 -56 z M 69 -54 C 67.870839 -54 67 -52.998827 67 -51.833984 L 67 -49.166016 C 67 -48.001173 67.870839 -47 69 -47 C 70.129161 -47 71 -48.001173 71 -49.166016 L 71 -51.833984 C 71 -52.998827 70.129161 -54 69 -54 z M 69 -53 C 69.532829 -53 70 -52.515802 70 -51.833984 L 70 -49.166016 C 70 -48.484198 69.532829 -48 69 -48 C 68.467171 -48 68 -48.484198 68 -49.166016 L 68 -51.833984 C 68 -52.515802 68.467171 -53 69 -53 z "/>
  </g>
  <g class="ColorScheme-Text" fill="currentColor" stroke="none">
    <path opacity="0.5" d="m 13,6 c -1.099344,0 -2,0.9006567 -2,2 v 9 c 0,1.099344 0.900656,2 2,2 1.099344,0 2,-0.900656 2,-2 V 8 C 15,6.9006567 14.099344,6 13,6 Z m 0,1 c 0.562645,0 1,0.4373532 1,1 v 9 c 0,0.562645 -0.437355,1 -1,1 -0.562645,0 -1,-0.437355 -1,-1 V 8 c 0,-0.5626468 0.437355,-1 1,-1 z"/>
  </g>
</svg>
