<?xml version="1.0" encoding="UTF-8" standalone="no"?>
<svg
   viewBox="0 0 22 22"
   version="1.1"
   id="svg1"
   xmlns="http://www.w3.org/2000/svg"
   xmlns:svg="http://www.w3.org/2000/svg">
  <defs
     id="defs3051">
    <style
       type="text/css"
       id="current-color-scheme">
      .ColorScheme-Text {
        color:#232629;
      }
      </style>
  </defs>
  <path
     id="path1"
     style="fill:currentColor"
     class="ColorScheme-Text"
     d="M 5.0253906,3 C 3.9029251,3 3,3.9029251 3,5.0253906 V 16.974609 C 3,18.097075 3.9029251,19 5.0253906,19 H 15.974609 C 17.097075,19 18,18.097075 18,16.974609 V 5.0253906 C 18,3.9029251 17.097075,3 15.974609,3 Z m 0,1 H 15.974609 C 16.560808,4 17,4.4391941 17,5.0253906 V 16.974609 C 17,17.560808 16.560808,18 15.974609,18 H 5.0253906 C 4.4391941,18 4,17.560808 4,16.974609 V 5.0253906 C 4,4.4391939 4.4391939,4 5.0253906,4 Z M 6,5 C 5.4536396,5 5,5.4536396 5,6 v 6 c 0,0.546359 0.4536396,1 1,1 0,0.546359 0.4536396,1 1,1 h 1 v 1 c 0,0.546359 0.4536396,1 1,1 h 3 c 0.546359,0 1,-0.453641 1,-1 v -1 h 1 c 0.546359,0 1,-0.453641 1,-1 0.546359,0 1,-0.453641 1,-1 V 6 C 16,5.4536396 15.546359,5 15,5 Z m 0,1 h 9 v 6 c -0.546359,0 -1,0.453641 -1,1 h -1 c -0.546359,0 -1,0.453641 -1,1 v 1 H 9 V 14 C 9,13.453641 8.5463604,13 8,13 H 7 C 7,12.453641 6.5463604,12 6,12 Z" />
  <path
     id="path6"
     style="opacity:0.4;fill:currentColor"
     class="ColorScheme-Text"
     d="M 7.5,7 C 7.2230006,7 7,7.2230006 7,7.5 v 2 C 7,9.7769994 7.2230006,10 7.5,10 7.7769994,10 8,9.7769994 8,9.5 v -2 C 8,7.2230006 7.7769994,7 7.5,7 Z m 2,0 C 9.2230003,7 9,7.2230006 9,7.5 v 2 C 9,9.7769994 9.2230003,10 9.5,10 9.7769997,10 10,9.7769994 10,9.5 v -2 C 10,7.2230006 9.7769997,7 9.5,7 Z m 2,0 C 11.223,7 11,7.2230006 11,7.5 v 2 C 11,9.7769994 11.223,10 11.5,10 11.777,10 12,9.7769994 12,9.5 v -2 C 12,7.2230006 11.777,7 11.5,7 Z m 2,0 C 13.223,7 13,7.2230006 13,7.5 v 2 C 13,9.7769994 13.223,10 13.5,10 13.777,10 14,9.7769994 14,9.5 v -2 C 14,7.2230006 13.777,7 13.5,7 Z m -8,8 C 5.2230012,15 5,15.223 5,15.5 v 1 C 5,16.777 5.2230012,17 5.5,17 h 1 C 6.7769988,17 7,16.777 7,16.5 v -1 C 7,15.223 6.7769988,15 6.5,15 Z" />
</svg>
