<?xml version="1.0" encoding="UTF-8" standalone="no"?>
<svg
   height="22"
   width="22"
   version="1.1"
   id="svg1"
   xml:space="preserve"
   xmlns="http://www.w3.org/2000/svg"
   xmlns:svg="http://www.w3.org/2000/svg"><defs
     id="defs1"><style
       type="text/css"
       id="current-color-scheme">
            .ColorScheme-Text {
                color:#232629;
            }
        </style></defs><path
     id="path1"
     style="fill:currentColor"
     class="ColorScheme-Text"
     d="M 11.5 3.0039062 C 7.788098 3.0039063 4.0752866 4.4169006 1.2460938 7.2460938 C 1.0508822 7.4413469 1.0508822 7.7578719 1.2460938 7.953125 C 1.4413469 8.1483364 1.7578719 8.1483364 1.953125 7.953125 C 7.229364 2.6768858 15.770634 2.6768862 21.046875 7.953125 C 21.242128 8.1483362 21.558653 8.1483362 21.753906 7.953125 C 21.949118 7.7578719 21.949118 7.4413469 21.753906 7.2460938 C 18.924714 4.4169008 15.211901 3.0039062 11.5 3.0039062 z M 11.5 7.0039062 C 8.8117825 7.0039063 6.1243198 8.0280232 4.0761719 10.076172 C 3.8809605 10.271425 3.8809605 10.58795 4.0761719 10.783203 C 4.271425 10.978415 4.58795 10.978415 4.7832031 10.783203 C 8.4973526 7.0690537 14.502648 7.069054 18.216797 10.783203 C 18.41205 10.978415 18.728575 10.978415 18.923828 10.783203 C 19.11904 10.58795 19.11904 10.271425 18.923828 10.076172 C 16.87568 8.0280234 14.188216 7.0039063 11.5 7.0039062 z M 11.5 11.003906 C 9.8354669 11.003906 8.1714002 11.637192 6.9042969 12.904297 C 6.7090854 13.09955 6.7090854 13.416075 6.9042969 13.611328 C 7.0995499 13.80654 7.4160751 13.80654 7.6113281 13.611328 C 9.3993626 11.823294 12.098746 11.521944 14.195312 12.705078 L 14.640625 11.8125 C 13.66645 11.275078 12.584118 11.003906 11.5 11.003906 z M 16.474609 11.638672 C 16.116009 11.638672 15.757302 11.815474 15.580078 12.169922 L 12.474609 18.382812 C 12.112267 19.107499 12.664388 20 13.474609 20 L 19.474609 20 C 20.284831 20 20.836952 19.107499 20.474609 18.382812 L 17.369141 12.169922 C 17.191917 11.815474 16.83321 11.638672 16.474609 11.638672 z M 16.474609 12.617188 L 19.580078 18.830078 C 19.628665 18.927254 19.583254 19 19.474609 19 L 13.474609 19 C 13.365964 19 13.320554 18.92725 13.369141 18.830078 L 16.474609 12.617188 z M 16.4375 14 C 16.179312 14.013003 15.974609 14.224798 15.974609 14.486328 L 15.974609 15.513672 C 15.974609 15.783638 16.190972 16 16.460938 16 L 16.488281 16 C 16.758251 16 16.974609 15.783638 16.974609 15.513672 L 16.974609 14.486328 C 16.974609 14.216362 16.758247 14 16.488281 14 L 16.460938 14 C 16.452538 14 16.44583 13.999581 16.4375 14 z M 11.5 15 C 10.125217 15 9 16.125217 9 17.5 C 9 18.874783 10.125217 20 11.5 20 C 11.564764 20 11.627842 19.995137 11.691406 19.990234 C 11.505929 19.69159 11.391273 19.349045 11.367188 18.994141 C 10.596242 18.927754 10 18.289473 10 17.5 C 10 16.665656 10.665656 16 11.5 16 C 11.838669 16 12.148593 16.110762 12.398438 16.296875 L 12.847656 15.398438 C 12.457862 15.146847 11.995769 15 11.5 15 z M 16.4375 17 C 16.179312 17.013003 15.974609 17.224798 15.974609 17.486328 L 15.974609 17.513672 C 15.974609 17.783642 16.190972 18 16.460938 18 L 16.488281 18 C 16.758251 18 16.974609 17.783638 16.974609 17.513672 L 16.974609 17.486328 C 16.974609 17.216358 16.758247 17 16.488281 17 L 16.460938 17 C 16.452538 17 16.44583 16.999581 16.4375 17 z " /><g
     id="g1" /></svg>
