<?xml version="1.0" encoding="UTF-8" standalone="no"?>
<svg
   height="22"
   width="22"
   version="1.1"
   id="svg1"
   xmlns="http://www.w3.org/2000/svg"
   xmlns:svg="http://www.w3.org/2000/svg">
  <defs
     id="defs1">
    <style
       type="text/css"
       id="current-color-scheme">
            .ColorScheme-Text {
                color:#232629;
            }
        </style>
  </defs>
  <path
     id="path1"
     style="fill:currentColor;opacity:0.4"
     class="ColorScheme-Text"
     d="M 11.5 3.0039062 C 7.7881054 3.0039063 4.0752808 4.4169062 1.2460938 7.2460938 C 1.0508824 7.4413465 1.0508824 7.7578723 1.2460938 7.953125 C 1.4413465 8.148336 1.7578723 8.148336 1.953125 7.953125 C 7.2293534 2.6768964 15.770644 2.6768968 21.046875 7.953125 C 21.242128 8.1483358 21.558653 8.1483358 21.753906 7.953125 C 21.949118 7.7578723 21.949118 7.4413465 21.753906 7.2460938 C 18.92472 4.4169064 15.211893 3.0039062 11.5 3.0039062 z M 11.5 7.0039062 C 8.8117879 7.0039063 6.1243156 8.028027 4.0761719 10.076172 C 3.8809609 10.271425 3.8809609 10.58795 4.0761719 10.783203 C 4.2714246 10.978415 4.5879504 10.978415 4.7832031 10.783203 C 8.4973452 7.0690613 14.502656 7.0690616 18.216797 10.783203 C 18.41205 10.978415 18.728575 10.978415 18.923828 10.783203 C 19.11904 10.58795 19.11904 10.271425 18.923828 10.076172 C 16.875684 8.0280272 14.18821 7.0039063 11.5 7.0039062 z M 11.5 11.003906 C 9.8354686 11.003906 8.1713989 11.637193 6.9042969 12.904297 C 6.7090856 13.09955 6.7090856 13.416075 6.9042969 13.611328 C 7.0995497 13.80654 7.4160753 13.80654 7.6113281 13.611328 C 9.7177895 11.504866 13.089901 11.461316 15.25 13.478516 C 15.367741 13.151373 15.538148 12.850315 15.751953 12.585938 C 14.535417 11.531993 13.018108 11.003906 11.5 11.003906 z M 11.5 15 C 10.125218 15 9 16.125218 9 17.5 C 9 18.874782 10.125218 20 11.5 20 C 12.874782 20 14 18.874782 14 17.5 C 14 16.125218 12.874782 15 11.5 15 z M 11.5 16 C 12.334343 16 13 16.665657 13 17.5 C 13 18.334343 12.334343 19 11.5 19 C 10.665657 19 10 18.334343 10 17.5 C 10 16.665657 10.665657 16 11.5 16 z " />
  <path
     id="path4"
     style="fill:currentColor"
     class="ColorScheme-Text"
     d="M 17.998047,12.5 C 16.900119,12.5 16,13.400119 16,14.498047 V 15 H 15.857422 C 15.39011,15 15,15.39011 15,15.857422 v 2.945312 C 15,19.458358 15.541643,20 16.197266,20 h 2.986328 C 20.180737,20 21,19.180737 21,18.183594 V 15.857422 C 21,15.39011 20.60989,15 20.142578,15 H 20 V 14.498047 C 20,13.400119 19.099881,12.5 18.001953,12.5 Z m 0,1 h 0.0039 C 18.559477,13.5 19,13.940553 19,14.498047 V 15 H 17 V 14.498047 C 17,13.940553 17.440553,13.5 17.998047,13.5 Z M 16,16 h 4 v 2.183594 C 20,18.640298 19.640298,19 19.183594,19 H 16.197266 C 16.082082,19 16,18.91792 16,18.802734 Z" />
</svg>
