<?xml version="1.0" encoding="UTF-8" standalone="no"?>
<svg
   height="22"
   width="22"
   version="1.1"
   id="svg1"
   xmlns="http://www.w3.org/2000/svg"
   xmlns:svg="http://www.w3.org/2000/svg">
  <defs
     id="defs1">
    <style
       type="text/css"
       id="current-color-scheme">
            .ColorScheme-Text {
                color:#232629;
            }
        </style>
  </defs>
  <path
     id="path1"
     style="fill:currentColor;opacity:0.2"
     class="ColorScheme-Text"
     d="M 18 3 C 16.900656 3 16 3.9006567 16 5 L 16 17 C 16 18.099344 16.900656 19 18 19 C 19.099344 19 20 18.099344 20 17 L 20 5 C 20 3.9006567 19.099344 3 18 3 z M 18 4 C 18.562645 4 19 4.4373532 19 5 L 19 17 C 19 17.562645 18.562645 18 18 18 C 17.437355 18 17 17.562645 17 17 L 17 5 C 17 4.4373532 17.437355 4 18 4 z M 13 6 C 11.900656 6 11 6.9006567 11 8 L 11 17 C 11 18.099344 11.900656 19 13 19 C 14.099344 19 15 18.099344 15 17 L 15 8 C 15 6.9006567 14.099344 6 13 6 z M 13 7 C 13.562645 7 14 7.4373532 14 8 L 14 17 C 14 17.562645 13.562645 18 13 18 C 12.437355 18 12 17.562645 12 17 L 12 8 C 12 7.4373532 12.437355 7 13 7 z M 8 9 C 6.9006556 9 6 9.9006556 6 11 L 6 17 C 6 18.099345 6.9006556 19 8 19 C 9.0993444 19 10 18.099345 10 17 L 10 11 C 10 9.9006556 9.0993444 9 8 9 z M 8 10 C 8.5626474 10 9 10.437354 9 11 L 9 17 C 9 17.562646 8.5626474 18 8 18 C 7.4373526 18 7 17.562646 7 17 L 7 11 C 7 10.437354 7.4373526 10 8 10 z M 3 12 C 1.870837 12 1 13.001171 1 14.166016 L 1 16.833984 C 1 17.998829 1.870837 19 3 19 C 4.129163 19 5 17.998829 5 16.833984 L 5 14.166016 C 5 13.001171 4.129163 12 3 12 z M 3 13 C 3.5328308 13 4 13.484198 4 14.166016 L 4 16.833984 C 4 17.515802 3.5328308 18 3 18 C 2.4671692 18 2 17.515802 2 16.833984 L 2 14.166016 C 2 13.484198 2.4671692 13 3 13 z " />
  <g
     id="rect1"
     style="opacity:0.4" />
  <g
     id="rect2"
     style="opacity:0.4" />
  <g
     id="rect3"
     style="opacity:0.4" />
  <g
     id="rect4"
     style="opacity:0.4" />
</svg>
