<?xml version="1.0" encoding="UTF-8" standalone="no"?>
<svg
   height="22"
   width="22"
   version="1.1"
   id="svg1"
   xml:space="preserve"
   xmlns="http://www.w3.org/2000/svg"
   xmlns:svg="http://www.w3.org/2000/svg"><defs
     id="defs1"><style
       type="text/css"
       id="current-color-scheme">
            .ColorScheme-Text {
                color:#232629;
            }
        </style></defs><g
     transform="translate(-66,66)"
     id="network-mobile-20-5g"><rect
       style="opacity:0.55;fill:none;fill-opacity:1;stroke:none;stroke-width:3.56737px;stroke-linecap:butt;stroke-linejoin:miter;stroke-miterlimit:4;stroke-dasharray:none;stroke-dashoffset:0;stroke-opacity:1"
       id="rect4844-1"
       width="22"
       height="22"
       x="66"
       y="-66" /><path
       id="path5064-9"
       style="opacity:1;fill:currentColor;fill-opacity:1;stroke:none"
       class="ColorScheme-Text"
       d="M 68 -64 C 67.447719 -64 67 -63.552281 67 -63 L 67 -62 C 67 -61.447719 67.447719 -61 68 -61 L 69.472656 -61 C 69.764194 -61 70 -60.764194 70 -60.472656 C 69.984604 -60.196518 69.748798 -59.984604 69.472656 -60 L 67.5 -60 C 67.223898 -60 67 -59.776102 67 -59.5 C 67 -59.223898 67.223898 -59 67.5 -59 L 69.478516 -59 C 70.318858 -59 71 -59.681142 71 -60.521484 C 70.988081 -61.349911 70.306939 -62.011919 69.478516 -62 L 68 -62 L 68 -63 L 70 -63 C 70.276102 -63 70.5 -63.223898 70.5 -63.5 C 70.5 -63.776102 70.276102 -64 70 -64 L 68 -64 z M 73.263672 -64 C 72.565739 -64 72 -63.434261 72 -62.736328 L 72 -60.318359 C 72 -59.589884 72.589884 -59 73.318359 -59 L 74.654297 -59 C 75.397059 -59 76 -59.602941 76 -60.345703 L 76 -60.654297 C 76 -61.397059 75.397059 -62 74.654297 -62 L 74.199219 -62 C 73.923157 -62 73.699219 -61.776062 73.699219 -61.5 C 73.699219 -61.223938 73.923157 -61 74.199219 -61 L 74.664062 -61 C 74.849781 -61 75 -60.849781 75 -60.664062 L 75 -60.335938 C 75 -60.150219 74.849781 -60 74.664062 -60 L 73.308594 -60 C 73.138147 -60 73 -60.138147 73 -60.308594 L 73 -62.736328 C 73 -62.88187 73.11813 -63 73.263672 -63 L 75.011719 -63 C 75.281281 -63 75.5 -63.218719 75.5 -63.488281 L 75.5 -63.511719 C 75.5 -63.781285 75.281281 -64 75.011719 -64 L 73.263672 -64 z M 84 -63 C 82.900657 -63 82 -62.099342 82 -61 L 82 -49 C 82 -47.900657 82.900657 -47 84 -47 C 85.099343 -47 86 -47.900657 86 -49 L 86 -61 C 86 -62.099342 85.099343 -63 84 -63 z M 84 -62 C 84.562644 -62 85 -61.562646 85 -61 L 85 -49 C 85 -48.437356 84.562644 -48 84 -48 C 83.437356 -48 83 -48.437356 83 -49 L 83 -61 C 83 -61.562646 83.437356 -62 84 -62 z M 79 -60 C 77.900658 -60 77 -59.099341 77 -58 L 77 -49 C 77 -47.900658 77.900658 -47 79 -47 C 80.099342 -47 81 -47.900658 81 -49 L 81 -58 C 81 -59.099341 80.099342 -60 79 -60 z M 79 -59 C 79.562643 -59 80 -58.562645 80 -58 L 80 -49 C 80 -48.437357 79.562643 -48 79 -48 C 78.437357 -48 78 -48.437357 78 -49 L 78 -58 C 78 -58.562645 78.437357 -59 79 -59 z M 74 -57 C 72.900659 -57 72 -56.099341 72 -55 L 72 -49 C 72 -47.900658 72.900659 -47 74 -47 C 75.099341 -47 76 -47.900658 76 -49 L 76 -55 C 76 -56.099341 75.099341 -57 74 -57 z M 74 -56 C 74.562645 -56 75 -55.562643 75 -55 L 75 -49 C 75 -48.437357 74.562645 -48 74 -48 C 73.437355 -48 73 -48.437357 73 -49 L 73 -55 C 73 -55.562643 73.437355 -56 74 -56 z M 69 -54 C 67.870841 -54 67 -52.998825 67 -51.833984 L 67 -49.166016 C 67 -48.001175 67.870841 -47 69 -47 C 70.129159 -47 71 -48.001175 71 -49.166016 L 71 -51.833984 C 71 -52.998825 70.129159 -54 69 -54 z M 69 -53 C 69.532827 -53 70 -52.515802 70 -51.833984 L 70 -49.166016 C 70 -48.484198 69.532827 -48 69 -48 C 68.467173 -48 68 -48.484198 68 -49.166016 L 68 -51.833984 C 68 -52.515802 68.467173 -53 69 -53 z " /></g><g
     id="rect1"
     style="opacity:0.4" /><g
     id="rect2"
     style="opacity:0.4" /><g
     id="rect3"
     style="opacity:0.4" /><g
     id="rect4"
     style="opacity:0.4" /><style
     type="text/css"
     id="current-color-scheme-5">
      .ColorScheme-Text {
        color:#31363b;
      }
      .ColorScheme-Background {
        color:#eff0f1;
      }
      .ColorScheme-Highlight {
        color:#3498db;
      }
      .ColorScheme-ButtonText {
        color:#31363b;
      }
      .ColorScheme-NegativeText{
        color:#e74c3c;
      }
      </style></svg>
