<?xml version="1.0" encoding="UTF-8" standalone="no"?>
<svg
   height="22"
   width="22"
   version="1.1"
   id="svg1"
   xml:space="preserve"
   xmlns="http://www.w3.org/2000/svg"
   xmlns:svg="http://www.w3.org/2000/svg"><defs
     id="defs1"><style
       type="text/css"
       id="current-color-scheme">
            .ColorScheme-Text {
                color:#232629;
            }
        </style><style
       type="text/css"
       id="current-color-scheme-6">
      .ColorScheme-Text {
        color:#232629;
      }
      </style></defs><path
     id="path1"
     style="fill:currentColor"
     class="ColorScheme-Text"
     d="m 16.474609,11.638672 c -0.3586,0 -0.717307,0.176802 -0.894531,0.53125 l -3.105469,6.21289 C 12.112267,19.107499 12.664388,20 13.474609,20 h 6 c 0.810222,0 1.362343,-0.892501 1,-1.617188 l -3.105468,-6.21289 c -0.177224,-0.354448 -0.535931,-0.53125 -0.894532,-0.53125 z m 0,0.978516 3.105469,6.21289 C 19.628665,18.927254 19.583254,19 19.474609,19 h -6 c -0.108645,0 -0.154055,-0.07275 -0.105468,-0.169922 z M 16.4375,14 c -0.258188,0.013 -0.462891,0.224798 -0.462891,0.486328 v 1.027344 C 15.974609,15.783638 16.190972,16 16.460938,16 h 0.02734 c 0.26997,0 0.486328,-0.216362 0.486328,-0.486328 V 14.486328 C 16.974609,14.216362 16.758247,14 16.488281,14 h -0.02734 c -0.0084,0 -0.01511,-4.19e-4 -0.02344,0 z m 0,3 c -0.258188,0.013 -0.462891,0.224798 -0.462891,0.486328 v 0.02734 c 0,0.26997 0.216363,0.486328 0.486329,0.486328 h 0.02734 c 0.26997,0 0.486328,-0.216362 0.486328,-0.486328 v -0.02734 C 16.974609,17.216358 16.758247,17 16.488281,17 h -0.02734 c -0.0084,0 -0.01511,-4.19e-4 -0.02344,0 z" /><g
     id="g1"
/><path
     id="path2"
     style="fill:currentColor;opacity:0.4"
     class="ColorScheme-Text"
     d="M 11.5 3.0039062 C 7.7881091 3.0039063 4.0752779 4.416909 1.2460938 7.2460938 C 1.0508825 7.4413463 1.0508825 7.7578725 1.2460938 7.953125 C 1.4413463 8.1483358 1.7578725 8.1483358 1.953125 7.953125 C 7.2293481 2.6769017 15.770649 2.6769021 21.046875 7.953125 C 21.242128 8.1483356 21.558653 8.1483356 21.753906 7.953125 C 21.949118 7.7578725 21.949118 7.4413463 21.753906 7.2460938 C 18.924723 4.4169092 15.211889 3.0039062 11.5 3.0039062 z M 11.5 7.0039062 C 8.8117906 7.0039063 6.1243135 8.0280289 4.0761719 10.076172 C 3.8809611 10.271425 3.8809611 10.58795 4.0761719 10.783203 C 4.2714244 10.978415 4.5879506 10.978415 4.7832031 10.783203 C 8.4973415 7.0690651 14.50266 7.0690654 18.216797 10.783203 C 18.41205 10.978415 18.728575 10.978415 18.923828 10.783203 C 19.11904 10.58795 19.11904 10.271425 18.923828 10.076172 C 16.875686 8.0280291 14.188207 7.0039063 11.5 7.0039062 z M 11.5 11.003906 C 9.8354703 11.003906 8.1713976 11.637194 6.9042969 12.904297 C 6.7090858 13.09955 6.7090858 13.416075 6.9042969 13.611328 C 7.0995495 13.80654 7.4160755 13.80654 7.6113281 13.611328 C 9.399359 11.823298 12.098752 11.521946 14.195312 12.705078 L 14.640625 11.8125 C 13.666452 11.27508 12.584116 11.003906 11.5 11.003906 z M 11.5 15 C 10.125218 15 9 16.125218 9 17.5 C 9 18.874782 10.125218 20 11.5 20 C 11.56476 20 11.627842 19.995134 11.691406 19.990234 C 11.505929 19.691625 11.391272 19.349044 11.367188 18.994141 C 10.596242 18.927754 10 18.289472 10 17.5 C 10 16.665657 10.665657 16 11.5 16 C 11.838669 16 12.148593 16.110762 12.398438 16.296875 L 12.847656 15.398438 C 12.457863 15.146847 11.995769 15 11.5 15 z " />
  </svg>
