<?xml version="1.0" encoding="UTF-8" standalone="no"?>
<svg
   height="22"
   width="22"
   version="1.1"
   id="svg1"
   xml:space="preserve"
   xmlns="http://www.w3.org/2000/svg"
   xmlns:svg="http://www.w3.org/2000/svg"><defs
     id="defs1"><style
       type="text/css"
       id="current-color-scheme">
            .ColorScheme-Text {
                color:#232629;
            }
        </style></defs><path
     id="path1"
     style="opacity:0.4;fill:currentColor"
     class="ColorScheme-Text"
     d="m 18,3 c -1.099344,0 -2,0.9006567 -2,2 v 12 c 0,1.099344 0.900656,2 2,2 1.099344,0 2,-0.900656 2,-2 V 5 C 20,3.9006567 19.099344,3 18,3 Z m 0,1 c 0.562645,0 1,0.4373532 1,1 v 12 c 0,0.562645 -0.437355,1 -1,1 -0.562645,0 -1,-0.437355 -1,-1 V 5 c 0,-0.5626468 0.437355,-1 1,-1 z" /><g
     id="rect1"
     style="opacity:0.4" /><g
     id="rect2"
     style="opacity:0.4" /><g
     id="rect3"
     style="opacity:0.4" /><g
     id="rect4"
     style="opacity:0.4" /><style
     type="text/css"
     id="current-color-scheme-5">
      .ColorScheme-Text {
        color:#31363b;
      }
      .ColorScheme-Background {
        color:#eff0f1;
      }
      .ColorScheme-Highlight {
        color:#3498db;
      }
      .ColorScheme-ButtonText {
        color:#31363b;
      }
      .ColorScheme-NegativeText{
        color:#e74c3c;
      }
      </style><g
     transform="translate(-66,66)"
     id="network-mobile-20-5g"><path
       id="path5064-9"
       style="opacity:1;fill:currentColor;fill-opacity:1;stroke:none"
       class="ColorScheme-Text"
       d="M 68 -64 C 67.447718 -64 67 -63.552282 67 -63 L 67 -62 C 67 -61.447718 67.447718 -61 68 -61 L 69.472656 -61 C 69.764194 -61 70 -60.764194 70 -60.472656 C 69.984604 -60.196517 69.748798 -59.984604 69.472656 -60 L 67.5 -60 C 67.223898 -60 67 -59.776102 67 -59.5 C 67 -59.223898 67.223898 -59 67.5 -59 L 69.478516 -59 C 70.318859 -59 71 -59.681141 71 -60.521484 C 70.988081 -61.349911 70.30694 -62.011919 69.478516 -62 L 68 -62 L 68 -63 L 70 -63 C 70.276102 -63 70.5 -63.223898 70.5 -63.5 C 70.5 -63.776102 70.276102 -64 70 -64 L 68 -64 z M 73.263672 -64 C 72.565738 -64 72 -63.434262 72 -62.736328 L 72 -60.318359 C 72 -59.589883 72.589883 -59 73.318359 -59 L 74.654297 -59 C 75.39706 -59 76 -59.60294 76 -60.345703 L 76 -60.654297 C 76 -61.39706 75.39706 -62 74.654297 -62 L 74.199219 -62 C 73.923157 -62 73.699219 -61.776062 73.699219 -61.5 C 73.699219 -61.223938 73.923157 -61 74.199219 -61 L 74.664062 -61 C 74.849781 -61 75 -60.849781 75 -60.664062 L 75 -60.335938 C 75 -60.150219 74.849781 -60 74.664062 -60 L 73.308594 -60 C 73.138147 -60 73 -60.138147 73 -60.308594 L 73 -62.736328 C 73 -62.88187 73.11813 -63 73.263672 -63 L 75.011719 -63 C 75.281282 -63 75.5 -63.218718 75.5 -63.488281 L 75.5 -63.511719 C 75.5 -63.781286 75.281282 -64 75.011719 -64 L 73.263672 -64 z M 79 -60 C 77.900657 -60 77 -59.099342 77 -58 L 77 -49 C 77 -47.900657 77.900657 -47 79 -47 C 80.099343 -47 81 -47.900657 81 -49 L 81 -58 C 81 -59.099342 80.099343 -60 79 -60 z M 79 -59 C 79.562644 -59 80 -58.562646 80 -58 L 80 -49 C 80 -48.437356 79.562644 -48 79 -48 C 78.437356 -48 78 -48.437356 78 -49 L 78 -58 C 78 -58.562646 78.437356 -59 79 -59 z M 74 -57 C 72.900658 -57 72 -56.099342 72 -55 L 72 -49 C 72 -47.900657 72.900658 -47 74 -47 C 75.099342 -47 76 -47.900657 76 -49 L 76 -55 C 76 -56.099342 75.099342 -57 74 -57 z M 74 -56 C 74.562646 -56 75 -55.562644 75 -55 L 75 -49 C 75 -48.437356 74.562646 -48 74 -48 C 73.437354 -48 73 -48.437356 73 -49 L 73 -55 C 73 -55.562644 73.437354 -56 74 -56 z M 69 -54 C 67.87084 -54 67 -52.998826 67 -51.833984 L 67 -49.166016 C 67 -48.001174 67.87084 -47 69 -47 C 70.12916 -47 71 -48.001174 71 -49.166016 L 71 -51.833984 C 71 -52.998826 70.12916 -54 69 -54 z M 69 -53 C 69.532828 -53 70 -52.515802 70 -51.833984 L 70 -49.166016 C 70 -48.484198 69.532828 -48 69 -48 C 68.467172 -48 68 -48.484198 68 -49.166016 L 68 -51.833984 C 68 -52.515802 68.467172 -53 69 -53 z " /><rect
       style="opacity:0.55;fill:none;fill-opacity:1;stroke:none;stroke-width:3.56737px;stroke-linecap:butt;stroke-linejoin:miter;stroke-miterlimit:4;stroke-dasharray:none;stroke-dashoffset:0;stroke-opacity:1"
       id="rect4844-1"
       width="22"
       height="22"
       x="66"
       y="-66" /></g></svg>
