<?xml version="1.0" encoding="UTF-8" standalone="no"?>
<svg
   height="22"
   width="22"
   version="1.1"
   id="svg1"
   xmlns="http://www.w3.org/2000/svg"
   xmlns:svg="http://www.w3.org/2000/svg">
  <defs
     id="defs1">
    <style
       type="text/css"
       id="current-color-scheme">
            .ColorScheme-Text {
                color:#232629;
            }
        </style>
  </defs>
  <path
     id="path1"
     style="fill:currentColor;opacity:0.4"
     class="ColorScheme-Text"
     d="M 11.5 3.0039062 C 7.7880943 3.0039063 4.0752895 4.4168978 1.2460938 7.2460938 C 1.0508821 7.4413471 1.0508821 7.7578717 1.2460938 7.953125 C 1.4413471 8.1483366 1.7578717 8.1483366 1.953125 7.953125 C 5.5494593 4.3567905 10.662348 3.2152328 15.224609 4.5214844 L 16.019531 3.7265625 C 14.55355 3.2479073 13.027293 3.0039062 11.5 3.0039062 z M 18.076172 4.5761719 L 17.332031 5.3203125 C 18.674397 5.963758 19.933809 6.8400596 21.046875 7.953125 C 21.242128 8.1483364 21.558653 8.1483364 21.753906 7.953125 C 21.949118 7.7578717 21.949118 7.4413471 21.753906 7.2460938 C 20.646197 6.1383847 19.401696 5.2498815 18.076172 4.5761719 z M 11.5 7.0039062 C 8.8117798 7.0039063 6.1243219 8.0280213 4.0761719 10.076172 C 3.8809603 10.271425 3.8809603 10.58795 4.0761719 10.783203 C 4.2714252 10.978415 4.5879498 10.978415 4.7832031 10.783203 C 6.7020531 8.8643532 9.2321594 7.9400781 11.742188 8.0039062 L 12.673828 7.0722656 C 12.283598 7.0286577 11.892247 7.0039063 11.5 7.0039062 z M 15.037109 7.6152344 L 14.248047 8.4042969 C 15.69946 8.8424704 17.068119 9.634525 18.216797 10.783203 C 18.41205 10.978415 18.728575 10.978415 18.923828 10.783203 C 19.11904 10.58795 19.11904 10.271425 18.923828 10.076172 C 17.788521 8.9408641 16.456526 8.1212412 15.037109 7.6152344 z M 11.644531 11.007812 L 10.572266 12.080078 C 12.269638 11.789779 14.074878 12.297534 15.388672 13.611328 C 15.583925 13.80654 15.90045 13.80654 16.095703 13.611328 C 16.290915 13.416075 16.290915 13.09955 16.095703 12.904297 C 14.865227 11.67382 13.260599 11.043368 11.644531 11.007812 z M 11.5 15 C 10.125216 15 9 16.125216 9 17.5 C 9 18.874784 10.125216 20 11.5 20 C 12.874784 20 14 18.874784 14 17.5 C 14 16.125216 12.874784 15 11.5 15 z M 11.5 16 C 12.334345 16 13 16.665655 13 17.5 C 13 18.334345 12.334345 19 11.5 19 C 10.665655 19 10 18.334345 10 17.5 C 10 16.665655 10.665655 16 11.5 16 z " />
  <path
     id="path3"
     style="fill:currentColor"
     class="ColorScheme-Text"
     d="m 19.871094,1.5175781 c -0.08489,0.022497 -0.16236,0.066958 -0.22461,0.1289063 L 3.6464844,17.646484 c -0.1952123,0.195254 -0.1952123,0.511778 0,0.707032 0.1952535,0.195212 0.5117777,0.195212 0.7070312,0 L 20.353516,2.3535156 c 0.195212,-0.1952535 0.195212,-0.5117777 0,-0.7070312 C 20.227212,1.5205448 20.043383,1.4714246 19.871094,1.5175781 Z" />
</svg>
