<?xml version="1.0" encoding="UTF-8" standalone="no"?>
<svg
   height="22"
   width="22"
   version="1.1"
   id="svg1"
   xml:space="preserve"
   xmlns="http://www.w3.org/2000/svg"
   xmlns:svg="http://www.w3.org/2000/svg"><defs
     id="defs1"><style
       type="text/css"
       id="current-color-scheme">
            .ColorScheme-Text {
                color:#232629;
            }
        </style><style
       type="text/css"
       id="current-color-scheme-6">
      .ColorScheme-Text {
        color:#232629;
      }
      </style></defs><path
     id="path1"
     style="fill:currentColor"
     class="ColorScheme-Text"
     d="m 11.5,11.003906 c -1.6645331,0 -3.3285998,0.633286 -4.5957031,1.900391 -0.1952115,0.195253 -0.1952115,0.511778 0,0.707031 0.195253,0.195212 0.5117782,0.195212 0.7070312,0 1.7880345,-1.788034 4.4874179,-2.089384 6.5839839,-0.90625 L 14.640625,11.8125 C 13.66645,11.275078 12.584118,11.003906 11.5,11.003906 Z m 4.974609,0.634766 c -0.3586,0 -0.717307,0.176802 -0.894531,0.53125 l -3.105469,6.21289 C 12.112267,19.107499 12.664388,20 13.474609,20 h 6 c 0.810222,0 1.362343,-0.892501 1,-1.617188 l -3.105468,-6.21289 c -0.177224,-0.354448 -0.535931,-0.53125 -0.894532,-0.53125 z m 0,0.978516 3.105469,6.21289 C 19.628665,18.927254 19.583254,19 19.474609,19 h -6 c -0.108645,0 -0.154055,-0.07275 -0.105468,-0.169922 z M 16.4375,14 c -0.258188,0.013 -0.462891,0.224798 -0.462891,0.486328 v 1.027344 C 15.974609,15.783638 16.190972,16 16.460938,16 h 0.02734 c 0.26997,0 0.486328,-0.216362 0.486328,-0.486328 V 14.486328 C 16.974609,14.216362 16.758247,14 16.488281,14 h -0.02734 c -0.0084,0 -0.01511,-4.19e-4 -0.02344,0 z M 11.5,15 C 10.125217,15 9,16.125217 9,17.5 c 0,1.374783 1.125217,2.5 2.5,2.5 0.06476,0 0.127842,-0.0049 0.191406,-0.0098 C 11.505929,19.69159 11.391273,19.349045 11.367188,18.994141 10.596242,18.927754 10,18.289473 10,17.5 10,16.665656 10.665656,16 11.5,16 c 0.338669,0 0.648593,0.110762 0.898438,0.296875 l 0.449218,-0.898437 C 12.457862,15.146847 11.995769,15 11.5,15 Z m 4.9375,2 c -0.258188,0.013 -0.462891,0.224798 -0.462891,0.486328 v 0.02734 c 0,0.26997 0.216363,0.486328 0.486329,0.486328 h 0.02734 c 0.26997,0 0.486328,-0.216362 0.486328,-0.486328 v -0.02734 C 16.974609,17.216358 16.758247,17 16.488281,17 h -0.02734 c -0.0084,0 -0.01511,-4.19e-4 -0.02344,0 z" /><g
     id="g1"
     transform="translate(-0.0253906)" /><path
     id="path2"
     style="opacity:0.4;fill:currentColor"
     class="ColorScheme-Text"
     d="m 11.5,3.0039062 c -3.7118983,1e-7 -7.4247163,1.4129972 -10.2539062,4.2421876 -0.1952115,0.1952529 -0.1952115,0.5117783 0,0.7070312 0.1952529,0.1952112 0.5117783,0.1952112 0.7070312,0 5.2762337,-5.2762339 13.817514,-5.2762335 19.09375,0 0.195253,0.195211 0.511778,0.195211 0.707031,0 0.195212,-0.1952529 0.195212,-0.5117783 0,-0.7070312 C 18.924717,4.4169036 15.211897,3.0039062 11.5,3.0039062 Z" /><path
     id="path3"
     style="opacity:0.6;fill:currentColor"
     class="ColorScheme-Text"
     d="m 11.5,7.0039062 c -2.6882148,10e-8 -5.3756823,1.0241189 -7.4238281,3.0722658 -0.1952112,0.195253 -0.1952112,0.511778 0,0.707031 0.1952529,0.195212 0.5117783,0.195212 0.7070312,0 3.7141458,-3.7141455 9.7194489,-3.7141452 13.4335939,0 0.195253,0.195212 0.511778,0.195212 0.707031,0 0.195212,-0.195253 0.195212,-0.511778 0,-0.707031 C 16.875682,8.0280253 14.188213,7.0039063 11.5,7.0039062 Z" /></svg>
