<?xml version="1.0" encoding="UTF-8" standalone="no"?>
<svg
   height="22"
   width="22"
   version="1.1"
   id="svg1"
   xmlns="http://www.w3.org/2000/svg"
   xmlns:svg="http://www.w3.org/2000/svg">
  <defs
     id="defs1">
    <style
       type="text/css"
       id="current-color-scheme">
            .ColorScheme-Text {
                color:#232629;
            }
        </style>
  </defs>
  <path
     id="path1"
     style="fill:currentColor;opacity:0.6"
     class="ColorScheme-Text"
     d="m 11.5,7.0039062 c -2.6882175,10e-8 -5.3756802,1.024117 -7.4238281,3.0722658 -0.1952114,0.195253 -0.1952114,0.511778 0,0.707031 0.1952531,0.195212 0.5117781,0.195212 0.7070312,0 3.7141495,-3.7141493 9.7194449,-3.714149 13.4335939,0 0.195253,0.195212 0.511778,0.195212 0.707031,0 0.195212,-0.195253 0.195212,-0.511778 0,-0.707031 C 16.87568,8.0280234 14.188216,7.0039063 11.5,7.0039062 Z" />
  <path
     id="path2"
     style="fill:currentColor;opacity:0.4"
     class="ColorScheme-Text"
     d="m 11.5,3.0039062 c -3.711902,1e-7 -7.4247134,1.4129944 -10.2539062,4.2421876 -0.1952116,0.1952531 -0.1952116,0.5117781 0,0.7070312 0.1952531,0.1952114 0.5117781,0.1952114 0.7070312,0 5.276239,-5.2762392 13.817509,-5.2762388 19.09375,0 0.195253,0.1952112 0.511778,0.1952112 0.707031,0 0.195212,-0.1952531 0.195212,-0.5117781 0,-0.7070312 C 18.924714,4.4169008 15.211901,3.0039062 11.5,3.0039062 Z" />
  <path
     id="path3"
     style="fill:currentColor"
     class="ColorScheme-Text"
     d="m 11.5,11.003906 c -1.6645331,0 -3.3285998,0.633286 -4.5957031,1.900391 -0.1952115,0.195253 -0.1952115,0.511778 0,0.707031 0.195253,0.195212 0.5117782,0.195212 0.7070312,0 2.1064635,-2.106464 5.4785709,-2.150014 7.6386719,-0.132812 0.117741,-0.327143 0.288148,-0.6282 0.501953,-0.892578 C 14.535416,11.531992 13.01811,11.003906 11.5,11.003906 Z M 17.998047,12.5 C 16.900119,12.5 16,13.400119 16,14.498047 V 15 H 15.857422 C 15.39011,15 15,15.39011 15,15.857422 v 2.945312 C 15,19.458358 15.541643,20 16.197266,20 h 2.986328 C 20.180737,20 21,19.180737 21,18.183594 V 15.857422 C 21,15.39011 20.60989,15 20.142578,15 H 20 V 14.498047 C 20,13.400119 19.099881,12.5 18.001953,12.5 Z m 0,1 h 0.0039 C 18.559477,13.5 19,13.940553 19,14.498047 V 15 H 17 V 14.498047 C 17,13.940553 17.440553,13.5 17.998047,13.5 Z M 11.5,15 C 10.125217,15 9,16.125217 9,17.5 9,18.874783 10.125217,20 11.5,20 12.874783,20 14,18.874783 14,17.5 14,16.125217 12.874783,15 11.5,15 Z m 0,1 C 12.334344,16 13,16.665656 13,17.5 13,18.334344 12.334344,19 11.5,19 10.665656,19 10,18.334344 10,17.5 10,16.665656 10.665656,16 11.5,16 Z m 4.5,0 h 4 v 2.183594 C 20,18.640298 19.640298,19 19.183594,19 H 16.197266 C 16.082082,19 16,18.91792 16,18.802734 Z" />
</svg>
