<?xml version="1.0" encoding="UTF-8" standalone="no"?>
<svg
   height="22"
   width="22"
   version="1.1"
   id="svg1"
   xmlns="http://www.w3.org/2000/svg"
   xmlns:svg="http://www.w3.org/2000/svg">
  <defs
     id="defs4157">
    <style
       id="current-color-scheme"
       type="text/css">
      .ColorScheme-Text {
        color:#31363b;
      }
    </style>
  </defs>
  <path
     class="ColorScheme-Text"
     id="path4676"
     d="m 10.998047,4 v 6.041013 L 7.0720285,6.1185712 a 0.51618447,0.51618447 179.98694 0 0 -0.7298287,1.664e-4 0.49998788,0.49998788 88.153524 0 0 0.022788,0.7068743 L 10.544922,11.001953 6.3649881,15.178295 A 0.51572764,0.51572764 90.012316 0 0 6.3648313,15.9078 0.50043001,0.50043001 178.1805 0 0 7.0720284,15.885335 L 11,11.960938 V 18 a 1.2357551,1.2357551 22.387663 0 0 2.112986,0.870378 l 2.347977,-2.366464 a 1.4265969,1.4265969 90.025083 0 0 8.79e-4,-2.008699 L 12,11 15.5,7.5 A 1.4139625,1.4139625 89.994915 0 0 15.499823,5.5001776 L 13.119744,3.1209437 A 1.2429527,1.2429527 157.49491 0 0 10.998047,4 Z m 1.417655,-0.1682827 2.379684,2.3796842 a 0.41090202,0.41090202 90 0 1 0,0.5811032 L 12,9.5878906 V 4.0039066 A 0.24351245,0.24351245 157.5 0 1 12.415702,3.8317173 Z M 2,10 c -0.5522848,0 -1,0.447715 -1,1 0,0.552285 0.4477152,1 1,1 0.5522847,0 1,-0.447715 1,-1 0,-0.552285 -0.4477153,-1 -1,-1 z m 4,0 c -0.5522847,0 -1,0.447715 -1,1 0,0.552285 0.4477153,1 1,1 0.5522847,0 1,-0.447715 1,-1 0,-0.552285 -0.4477153,-1 -1,-1 z m 10,0 c -0.552285,0 -1,0.447715 -1,1 0,0.552285 0.447715,1 1,1 0.552285,0 1,-0.447715 1,-1 0,-0.552285 -0.447715,-1 -1,-1 z m 4,0 c -0.552285,0 -1,0.447715 -1,1 0,0.552285 0.447715,1 1,1 0.552285,0 1,-0.447715 1,-1 0,-0.552285 -0.447715,-1 -1,-1 z m -8,2.416016 2.754464,2.793356 a 0.41670386,0.41670386 89.999995 0 1 0,0.585162 l -2.341687,2.374751 A 0.24110173,0.24110173 22.299171 0 1 12,18 Z"
     style="fill:currentColor" />
</svg>
