<?xml version="1.0" encoding="UTF-8" standalone="no"?>
<svg
   height="22"
   width="22"
   version="1.1"
   id="svg1"
   xml:space="preserve"
   xmlns="http://www.w3.org/2000/svg"
   xmlns:svg="http://www.w3.org/2000/svg"><defs
     id="defs1"><style
       type="text/css"
       id="current-color-scheme">
            .ColorScheme-Text {
                color:#232629;
            }
        </style><style
       type="text/css"
       id="current-color-scheme-6">
      .ColorScheme-Text {
        color:#232629;
      }
      </style><style
       id="current-color-scheme-1"
       type="text/css">
      .ColorScheme-Text {
        color:#31363b;
      }
    </style></defs><g
     transform="translate(-66,66)"
     id="network-mobile-20-5g"><rect
       style="opacity:0.55;fill:none;fill-opacity:1;stroke:none;stroke-width:3.56737px;stroke-linecap:butt;stroke-linejoin:miter;stroke-miterlimit:4;stroke-dasharray:none;stroke-dashoffset:0;stroke-opacity:1"
       id="rect4844-1"
       width="22"
       height="22"
       x="66"
       y="-66" /><path
       id="path5064-9"
       style="opacity:1;fill:currentColor;fill-opacity:1;stroke:none"
       class="ColorScheme-Text"
       d="M 68 -64 C 67.447721 -64 67 -63.552279 67 -63 L 67 -62 C 67 -61.447721 67.447721 -61 68 -61 L 69.472656 -61 C 69.764194 -61 70 -60.764194 70 -60.472656 C 69.984604 -60.19652 69.748798 -59.984604 69.472656 -60 L 67.5 -60 C 67.223898 -60 67 -59.776102 67 -59.5 C 67 -59.223898 67.223898 -59 67.5 -59 L 69.478516 -59 C 70.318856 -59 71 -59.681144 71 -60.521484 C 70.988081 -61.349911 70.306937 -62.011919 69.478516 -62 L 68 -62 L 68 -63 L 70 -63 C 70.276102 -63 70.5 -63.223898 70.5 -63.5 C 70.5 -63.776102 70.276102 -64 70 -64 L 68 -64 z M 73.263672 -64 C 72.565741 -64 72 -63.434259 72 -62.736328 L 72 -60.318359 C 72 -59.589886 72.589886 -59 73.318359 -59 L 74.654297 -59 C 75.397057 -59 76 -59.602943 76 -60.345703 L 76 -60.654297 C 76 -61.397057 75.397057 -62 74.654297 -62 L 74.199219 -62 C 73.923157 -62 73.699219 -61.776062 73.699219 -61.5 C 73.699219 -61.223938 73.923157 -61 74.199219 -61 L 74.664062 -61 C 74.849781 -61 75 -60.849781 75 -60.664062 L 75 -60.335938 C 75 -60.150219 74.849781 -60 74.664062 -60 L 73.308594 -60 C 73.138147 -60 73 -60.138147 73 -60.308594 L 73 -62.736328 C 73 -62.88187 73.11813 -63 73.263672 -63 L 75.011719 -63 C 75.281279 -63 75.5 -63.218721 75.5 -63.488281 L 75.5 -63.511719 C 75.5 -63.781281 75.281279 -64 75.011719 -64 L 73.263672 -64 z M 84 -63 C 82.900659 -63 82 -62.09934 82 -61 L 82 -53.685547 C 82.284799 -53.961131 82.623588 -54.179482 83 -54.320312 L 83 -61 C 83 -61.562644 83.437358 -62 84 -62 C 84.562642 -62 85 -61.562644 85 -61 L 85 -54.320312 C 85.376412 -54.179482 85.715201 -53.961131 86 -53.685547 L 86 -61 C 86 -62.09934 85.099341 -63 84 -63 z M 79 -60 C 77.90066 -60 77 -59.099339 77 -58 L 77 -49 C 77 -47.90066 77.90066 -47 79 -47 C 79.363819 -47 79.705146 -47.099641 80 -47.271484 L 80 -49 C 80 -48.437359 79.562641 -48 79 -48 C 78.437359 -48 78 -48.437359 78 -49 L 78 -58 C 78 -58.562643 78.437359 -59 79 -59 C 79.562641 -59 80 -58.562643 80 -58 L 80 -50.142578 C 80 -50.830371 80.437684 -51.320898 81 -51.632812 L 81 -58 C 81 -59.099339 80.09934 -60 79 -60 z M 74 -57 C 72.900661 -57 72 -56.099339 72 -55 L 72 -49 C 72 -47.90066 72.900661 -47 74 -47 C 75.099339 -47 76 -47.90066 76 -49 L 76 -55 C 76 -56.099339 75.099339 -57 74 -57 z M 74 -56 C 74.562643 -56 75 -55.562641 75 -55 L 75 -49 C 75 -48.437359 74.562643 -48 74 -48 C 73.437357 -48 73 -48.437359 73 -49 L 73 -55 C 73 -55.562641 73.437357 -56 74 -56 z M 69 -54 C 67.870843 -54 67 -52.998823 67 -51.833984 L 67 -49.166016 C 67 -48.001177 67.870843 -47 69 -47 C 70.129157 -47 71 -48.001177 71 -49.166016 L 71 -51.833984 C 71 -52.998823 70.129157 -54 69 -54 z M 83.998047 -53.5 C 82.900119 -53.5 82 -52.599881 82 -51.501953 L 82 -51 L 81.857422 -51 C 81.39011 -51 81 -50.60989 81 -50.142578 L 81 -47.197266 C 81 -46.541642 81.541643 -46 82.197266 -46 L 85.183594 -46 C 86.180737 -46 87 -46.819263 87 -47.816406 L 87 -50.142578 C 87 -50.60989 86.60989 -51 86.142578 -51 L 86 -51 L 86 -51.501953 C 86 -52.599881 85.099881 -53.5 84.001953 -53.5 L 83.998047 -53.5 z M 69 -53 C 69.532825 -53 70 -52.515802 70 -51.833984 L 70 -49.166016 C 70 -48.484198 69.532825 -48 69 -48 C 68.467175 -48 68 -48.484198 68 -49.166016 L 68 -51.833984 C 68 -52.515802 68.467175 -53 69 -53 z M 83.998047 -52.5 L 84.001953 -52.5 C 84.559477 -52.5 85 -52.059447 85 -51.501953 L 85 -51 L 83 -51 L 83 -51.501953 C 83 -52.059447 83.440553 -52.5 83.998047 -52.5 z M 82 -50 L 86 -50 L 86 -47.816406 C 86 -47.359702 85.640298 -47 85.183594 -47 L 82.197266 -47 C 82.082082 -47 82 -47.08208 82 -47.197266 L 82 -50 z " /></g><g
     id="rect1"
     style="opacity:0.4" /><g
     id="rect2"
     style="opacity:0.4" /><g
     id="rect3"
     style="opacity:0.4" /><g
     id="rect4"
     style="opacity:0.4" /><style
     type="text/css"
     id="current-color-scheme-5">
      .ColorScheme-Text {
        color:#31363b;
      }
      .ColorScheme-Background {
        color:#eff0f1;
      }
      .ColorScheme-Highlight {
        color:#3498db;
      }
      .ColorScheme-ButtonText {
        color:#31363b;
      }
      .ColorScheme-NegativeText{
        color:#e74c3c;
      }
      </style><g
     id="g22" /></svg>
