<?xml version="1.0" encoding="UTF-8" standalone="no"?>
<svg
   height="22"
   width="22"
   version="1.1"
   id="svg1"
   xml:space="preserve"
   xmlns="http://www.w3.org/2000/svg"
   xmlns:svg="http://www.w3.org/2000/svg"><defs
     id="defs1"><style
       type="text/css"
       id="current-color-scheme">
            .ColorScheme-Text {
                color:#232629;
            }
        </style><style
       type="text/css"
       id="current-color-scheme-5">
      .ColorScheme-Text {
        color:#232629;
      }
      </style></defs><path
     id="path4"
     style="opacity:0.4;fill:currentColor"
     class="ColorScheme-Text"
     d="M 11.5 3.0039062 C 7.7881054 3.0039063 4.0752808 4.4169062 1.2460938 7.2460938 C 1.0508824 7.4413465 1.0508824 7.7578723 1.2460938 7.953125 C 1.4413465 8.148336 1.7578723 8.148336 1.953125 7.953125 C 7.2293534 2.6768964 15.770644 2.6768968 21.046875 7.953125 C 21.242128 8.1483358 21.558653 8.1483358 21.753906 7.953125 C 21.949118 7.7578723 21.949118 7.4413465 21.753906 7.2460938 C 18.92472 4.4169064 15.211893 3.0039063 11.5 3.0039062 z M 11.5 7.0039062 C 8.8117879 7.0039063 6.1243156 8.0280273 4.0761719 10.076172 C 3.8809609 10.271425 3.8809609 10.58795 4.0761719 10.783203 C 4.2714246 10.978414 4.5879504 10.978414 4.7832031 10.783203 C 8.4973452 7.069061 14.502656 7.0690613 18.216797 10.783203 C 18.41205 10.978414 18.728575 10.978414 18.923828 10.783203 C 19.11904 10.58795 19.11904 10.271425 18.923828 10.076172 C 16.875684 8.0280275 14.18821 7.0039063 11.5 7.0039062 z M 11.5 11.003906 C 9.8354686 11.003906 8.1713989 11.637193 6.9042969 12.904297 C 6.7090856 13.09955 6.7090856 13.416075 6.9042969 13.611328 C 7.0995497 13.80654 7.4160753 13.80654 7.6113281 13.611328 C 9.2974297 11.925226 11.792791 11.565521 13.830078 12.521484 C 14.074875 12.345786 14.367333 12.253906 14.654297 12.253906 C 15.012867 12.253906 15.380681 12.396306 15.652344 12.667969 L 16.242188 13.257812 C 16.242188 13.129868 16.193309 13.001923 16.095703 12.904297 C 14.8286 11.637193 13.16453 11.003906 11.5 11.003906 z M 11.5 15 C 10.125217 15 9 16.125217 9 17.5 C 9 18.874783 10.125217 20 11.5 20 C 12.180492 20 12.799946 19.724475 13.251953 19.279297 C 13.259019 18.925483 13.392724 18.574074 13.65625 18.310547 L 13.943359 18.023438 C 13.979797 17.854347 14 17.679556 14 17.5 C 14 16.125217 12.874783 15 11.5 15 z M 11.5 16 C 12.334344 16 13 16.665656 13 17.5 C 13 18.334344 12.334344 19 11.5 19 C 10.665656 19 10 18.334344 10 17.5 C 10 16.665656 10.665656 16 11.5 16 z " /><g
     id="g1"
     transform="translate(-0.0253906)"><path
       id="path1-7"
       style="fill:currentColor"
       class="ColorScheme-Text"
       d="m 14.678906,13.166211 c -0.127809,0 -0.255581,0.04855 -0.353515,0.146485 -0.195868,0.195868 -0.195868,0.511162 0,0.707031 l 2.467578,2.467578 -2.467578,2.467578 c -0.195868,0.195869 -0.195868,0.511163 0,0.707031 0.195868,0.195868 0.511162,0.195868 0.707031,0 L 17.5,17.194336 l 2.467578,2.467578 c 0.195869,0.195868 0.511163,0.195868 0.707031,0 0.195868,-0.195868 0.195868,-0.511162 0,-0.707031 l -2.467578,-2.467578 2.467578,-2.467578 c 0.195868,-0.195869 0.195868,-0.511163 0,-0.707031 -0.195868,-0.195868 -0.511162,-0.195868 -0.707031,0 L 17.5,15.780274 15.032422,13.312696 c -0.09793,-0.09793 -0.225706,-0.146485 -0.353516,-0.146485 z" /></g></svg>
