<?xml version="1.0" encoding="UTF-8" standalone="no"?>
<svg
   height="22"
   width="22"
   version="1.1"
   id="svg1"
   xmlns="http://www.w3.org/2000/svg"
   xmlns:svg="http://www.w3.org/2000/svg">
  <defs
     id="defs4157">
    <style
       id="current-color-scheme"
       type="text/css">
      .ColorScheme-Text {
        color:#31363b;
      }
    </style>
  </defs>
  <path
     id="path3"
     style="fill:currentColor"
     class="ColorScheme-Text"
     d="M 12.28125,2.7558594 C 11.631348,2.739664 10.998047,3.2387698 10.998047,4 v 6.041016 L 7.0722656,6.1191406 c -0.2016091,-0.2014253 -0.5289515,-0.2015172 -0.7304687,0 -0.1889649,0.2014676 -0.1781113,0.518153 0.023437,0.7070313 l 4.1796876,4.1757811 -4.1796876,4.175781 c -0.2015511,0.201379 -0.2014645,0.529004 0,0.730469 0.2015143,0.18902 0.51792,0.177995 0.7070312,-0.02344 L 11,11.960938 V 18 c -10e-7,1.103277 1.336213,1.654281 2.113281,0.871094 L 15,16.96875 v -1.111328 c 0,-0.508589 0.238195,-0.910102 0.589844,-1.210938 -0.03915,-0.0523 -0.08164,-0.102663 -0.128906,-0.15039 L 12,11 15.5,7.5 c 0.552254,-0.5522547 0.552352,-1.4478431 0,-2 L 13.119141,3.1210938 C 12.874428,2.8764684 12.576661,2.7632209 12.28125,2.7558594 Z m -0.06445,1.0058594 c 0.06858,-0.00807 0.141692,0.012786 0.199219,0.070312 l 2.378906,2.3789063 c 0.160467,0.1604668 0.160467,0.4215643 0,0.5820313 L 12,9.5878906 V 4.0039062 c 0,-0.1355913 0.1025,-0.228742 0.216797,-0.2421874 z M 2,10 c -0.5522837,0 -1,0.447717 -1,1 0,0.552283 0.4477163,1 1,1 0.5522835,0 1,-0.447717 1,-1 0,-0.552283 -0.4477165,-1 -1,-1 z m 4,0 c -0.5522835,0 -1,0.447717 -1,1 0,0.552283 0.4477165,1 1,1 0.5522835,0 1,-0.447717 1,-1 0,-0.552283 -0.4477165,-1 -1,-1 z m 6,2.416016 2.753906,2.792968 c 0.159988,0.162247 0.159988,0.423691 0,0.585938 l -2.341797,2.375 C 12.260721,18.323449 12.000001,18.215614 12,18 Z M 18.998047,12.5 C 17.900117,12.5 17,13.400117 17,14.498047 V 15 H 16.857422 C 16.39011,15 16,15.39011 16,15.857422 v 2.945312 C 16,19.458358 16.541642,20 17.197266,20 h 2.986328 C 21.180739,20 22,19.180739 22,18.183594 V 15.857422 C 22,15.39011 21.60989,15 21.142578,15 H 21 V 14.498047 C 21,13.400117 20.099883,12.5 19.001953,12.5 Z m 0,1 h 0.0039 C 19.559465,13.5 20,13.940553 20,14.498047 V 15 H 18 V 14.498047 C 18,13.940553 18.440553,13.5 18.998047,13.5 Z M 17,16 h 4 v 2.183594 C 21,18.6403 20.6403,19 20.183594,19 H 17.197266 C 17.082082,19 17,18.917918 17,18.802734 Z" />
</svg>
