<?xml version="1.0" encoding="UTF-8" standalone="no"?>
<svg
   viewBox="0 0 22 22"
   version="1.1"
   id="svg1"
   xmlns="http://www.w3.org/2000/svg"
   xmlns:svg="http://www.w3.org/2000/svg">
  <defs
     id="defs3051">
    <style
       type="text/css"
       id="current-color-scheme">
      .ColorScheme-Text {
        color:#232629;
      }
      </style>
  </defs>
  <path
     id="path1"
     style="fill:currentColor"
     class="ColorScheme-Text"
     d="M 5.0253906 3 C 3.9029273 3 3 3.9029273 3 5.0253906 L 3 16.974609 C 3 18.097073 3.9029273 19 5.0253906 19 L 11.392578 19 C 11.369177 18.668934 11.426149 18.326961 11.576172 18 L 5.0253906 18 C 4.4391953 18 4 17.560808 4 16.974609 L 4 5.0253906 C 4 4.4391951 4.4391951 4 5.0253906 4 L 15.974609 4 C 16.560808 4 17 4.4391953 17 5.0253906 L 17 10.703125 C 17.371321 10.797676 17.726778 10.997411 18 11.300781 L 18 5.0253906 C 18 3.9029273 17.097073 3 15.974609 3 L 5.0253906 3 z M 6 5 C 5.4536406 5 5 5.4536406 5 6 L 5 12 C 5 12.546357 5.4536406 13 6 13 C 6 13.546357 6.4536406 14 7 14 L 8 14 L 8 15 C 8 15.546357 8.4536406 16 9 16 L 12 16 C 12.294792 16 12.560026 15.865641 12.744141 15.658203 L 12.980469 15.185547 C 12.99219 15.125038 13 15.06359 13 15 L 13 14 L 13.572266 14 L 14.501953 12.140625 C 14.204701 12.315267 14 12.635044 14 13 L 13 13 C 12.453643 13 12 13.453643 12 14 L 12 15 L 9 15 L 9 14 C 9 13.453643 8.5463594 13 8 13 L 7 13 C 7 12.453643 6.5463594 12 6 12 L 6 6 L 15 6 L 15 11.300781 C 15.273222 10.997411 15.628679 10.797676 16 10.703125 L 16 6 C 16 5.4536406 15.546357 5 15 5 L 6 5 z M 16.5 11.638672 C 16.141399 11.638672 15.782693 11.815474 15.605469 12.169922 L 12.5 18.382812 C 12.137657 19.107499 12.689778 20 13.5 20 L 19.5 20 C 20.310222 20 20.862343 19.107499 20.5 18.382812 L 17.394531 12.169922 C 17.217307 11.815474 16.858601 11.638672 16.5 11.638672 z M 16.5 12.617188 L 19.605469 18.830078 C 19.654056 18.927254 19.608645 19 19.5 19 L 13.5 19 C 13.391355 19 13.345944 18.92725 13.394531 18.830078 L 16.5 12.617188 z M 16.462891 14 C 16.204703 14.013003 16 14.224798 16 14.486328 L 16 15.513672 C 16 15.783638 16.216362 16 16.486328 16 L 16.513672 16 C 16.783638 16 17 15.783638 17 15.513672 L 17 14.486328 C 17 14.216362 16.783638 14 16.513672 14 L 16.486328 14 C 16.477892 14 16.471219 13.999581 16.462891 14 z M 5.5 15 C 5.2230015 15 5 15.223 5 15.5 L 5 16.5 C 5 16.777 5.2230015 17 5.5 17 L 6.5 17 C 6.7769985 17 7 16.777 7 16.5 L 7 15.5 C 7 15.223 6.7769985 15 6.5 15 L 5.5 15 z M 16.462891 17 C 16.204703 17.013003 16 17.224798 16 17.486328 L 16 17.513672 C 16 17.783638 16.216362 18 16.486328 18 L 16.513672 18 C 16.783638 18 17 17.783638 17 17.513672 L 17 17.486328 C 17 17.216362 16.783638 17 16.513672 17 L 16.486328 17 C 16.477892 17 16.471219 16.999581 16.462891 17 z " />
  <path
     id="path6"
     style="opacity:0.4;fill:currentColor"
     class="ColorScheme-Text"
     d="M 7.5,7 C 7.2230003,7 7,7.2230003 7,7.5 v 2 C 7,9.7769997 7.2230003,10 7.5,10 7.7769997,10 8,9.7769997 8,9.5 v -2 C 8,7.2230003 7.7769997,7 7.5,7 Z m 2,0 C 9.223,7 9,7.2230003 9,7.5 v 2 C 9,9.7769997 9.223,10 9.5,10 9.777,10 10,9.7769997 10,9.5 v -2 C 10,7.2230003 9.777,7 9.5,7 Z m 2,0 C 11.223,7 11,7.2230003 11,7.5 v 2 C 11,9.7769997 11.223,10 11.5,10 11.777,10 12,9.7769997 12,9.5 v -2 C 12,7.2230003 11.777,7 11.5,7 Z m 2,0 C 13.223,7 13,7.2230003 13,7.5 v 2 C 13,9.7769997 13.223,10 13.5,10 13.777,10 14,9.7769997 14,9.5 v -2 C 14,7.2230003 13.777,7 13.5,7 Z" />
</svg>
