<?xml version="1.0" encoding="UTF-8" standalone="no"?>
<svg
   height="22"
   width="22"
   version="1.1"
   id="svg1"
   xml:space="preserve"
   xmlns="http://www.w3.org/2000/svg"
   xmlns:svg="http://www.w3.org/2000/svg"><defs
     id="defs1"><style
       type="text/css"
       id="current-color-scheme">
            .ColorScheme-Text {
                color:#232629;
            }
        </style><style
       type="text/css"
       id="current-color-scheme-6">
      .ColorScheme-Text {
        color:#232629;
      }
      </style><style
       id="current-color-scheme-1"
       type="text/css">
      .ColorScheme-Text {
        color:#31363b;
      }
    </style></defs><g
     transform="translate(-66,66)"
     id="network-mobile-20-5g"><rect
       style="opacity:0.55;fill:none;fill-opacity:1;stroke:none;stroke-width:3.56737px;stroke-linecap:butt;stroke-linejoin:miter;stroke-miterlimit:4;stroke-dasharray:none;stroke-dashoffset:0;stroke-opacity:1"
       id="rect4844-1"
       width="22"
       height="22"
       x="66"
       y="-66" /><path
       id="path22"
       style="opacity:0.2;fill:currentColor;fill-opacity:1;stroke:none"
       class="ColorScheme-Text"
       d="M 84 -63 C 82.900662 -63 82 -62.099337 82 -61 L 82 -53.685547 C 82.284799 -53.961131 82.623588 -54.179485 83 -54.320312 L 83 -61 C 83 -61.562641 83.437361 -62 84 -62 C 84.562639 -62 85 -61.562641 85 -61 L 85 -54.320312 C 85.376412 -54.179485 85.715201 -53.961131 86 -53.685547 L 86 -61 C 86 -62.099337 85.099338 -63 84 -63 z M 79 -60 C 77.900663 -60 77 -59.099336 77 -58 L 77 -49 C 77 -47.900663 77.900663 -47 79 -47 C 79.363819 -47 79.705146 -47.099643 80 -47.271484 L 80 -49 C 80 -48.437362 79.562638 -48 79 -48 C 78.437362 -48 78 -48.437362 78 -49 L 78 -58 C 78 -58.56264 78.437362 -59 79 -59 C 79.562638 -59 80 -58.56264 80 -58 L 80 -50.142578 C 80 -50.830368 80.437687 -51.320901 81 -51.632812 L 81 -58 C 81 -59.099336 80.099337 -60 79 -60 z M 74 -57 C 72.900663 -57 72 -56.099337 72 -55 L 72 -49 C 72 -47.900662 72.900663 -47 74 -47 C 75.099337 -47 76 -47.900662 76 -49 L 76 -55 C 76 -56.099337 75.099337 -57 74 -57 z M 74 -56 C 74.562641 -56 75 -55.562639 75 -55 L 75 -49 C 75 -48.437361 74.562641 -48 74 -48 C 73.437359 -48 73 -48.437361 73 -49 L 73 -55 C 73 -55.562639 73.437359 -56 74 -56 z M 69 -54 C 67.870844 -54 67 -52.998822 67 -51.833984 L 67 -49.166016 C 67 -48.001178 67.870844 -47 69 -47 C 70.129156 -47 71 -48.001178 71 -49.166016 L 71 -51.833984 C 71 -52.998822 70.129156 -54 69 -54 z M 69 -53 C 69.532824 -53 70 -52.515802 70 -51.833984 L 70 -49.166016 C 70 -48.484198 69.532824 -48 69 -48 C 68.467176 -48 68 -48.484198 68 -49.166016 L 68 -51.833984 C 68 -52.515802 68.467176 -53 69 -53 z " /><path
       id="path23"
       style="opacity:1;fill:currentColor;fill-opacity:1;stroke:none"
       class="ColorScheme-Text"
       d="m 68,-64 c -0.552279,0 -1,0.447721 -1,1 v 1 c 0,0.552279 0.447721,1 1,1 h 1.472656 C 69.764194,-61 70,-60.764194 70,-60.472656 69.984604,-60.19652 69.748798,-59.984604 69.472656,-60 H 67.5 c -0.276102,0 -0.5,0.223898 -0.5,0.5 0,0.276102 0.223898,0.5 0.5,0.5 h 1.978516 C 70.318856,-59 71,-59.681144 71,-60.521484 70.988081,-61.349911 70.306937,-62.011919 69.478516,-62 H 68 v -1 h 2 c 0.276102,0 0.5,-0.223898 0.5,-0.5 0,-0.276102 -0.223898,-0.5 -0.5,-0.5 z m 5.263672,0 C 72.565741,-64 72,-63.434259 72,-62.736328 v 2.417969 C 72,-59.589886 72.589886,-59 73.318359,-59 h 1.335938 C 75.397057,-59 76,-59.602943 76,-60.345703 v -0.308594 C 76,-61.397057 75.397057,-62 74.654297,-62 h -0.455078 c -0.276062,0 -0.5,0.223938 -0.5,0.5 0,0.276062 0.223938,0.5 0.5,0.5 h 0.464843 C 74.849781,-61 75,-60.849781 75,-60.664062 v 0.328124 C 75,-60.150219 74.849781,-60 74.664062,-60 H 73.308594 C 73.138147,-60 73,-60.138147 73,-60.308594 v -2.427734 C 73,-62.88187 73.11813,-63 73.263672,-63 h 1.748047 C 75.281279,-63 75.5,-63.218721 75.5,-63.488281 v -0.02344 C 75.5,-63.781281 75.281279,-64 75.011719,-64 Z m 10.734375,10.5 C 82.900119,-53.5 82,-52.599881 82,-51.501953 V -51 H 81.857422 C 81.39011,-51 81,-50.60989 81,-50.142578 v 2.945312 C 81,-46.541642 81.541643,-46 82.197266,-46 h 2.986328 C 86.180737,-46 87,-46.819263 87,-47.816406 v -2.326172 C 87,-50.60989 86.60989,-51 86.142578,-51 H 86 v -0.501953 C 86,-52.599881 85.099881,-53.5 84.001953,-53.5 Z m 0,1 h 0.0039 C 84.559477,-52.5 85,-52.059447 85,-51.501953 V -51 h -2 v -0.501953 C 83,-52.059447 83.440553,-52.5 83.998047,-52.5 Z M 82,-50 h 4 v 2.183594 C 86,-47.359702 85.640298,-47 85.183594,-47 H 82.197266 C 82.082082,-47 82,-47.08208 82,-47.197266 Z" /></g><g
     id="rect1"
     style="opacity:0.4" /><g
     id="rect2"
     style="opacity:0.4" /><g
     id="rect3"
     style="opacity:0.4" /><g
     id="rect4"
     style="opacity:0.4" /><style
     type="text/css"
     id="current-color-scheme-5">
      .ColorScheme-Text {
        color:#31363b;
      }
      .ColorScheme-Background {
        color:#eff0f1;
      }
      .ColorScheme-Highlight {
        color:#3498db;
      }
      .ColorScheme-ButtonText {
        color:#31363b;
      }
      .ColorScheme-NegativeText{
        color:#e74c3c;
      }
      </style><g
     id="g22" /></svg>
