<?xml version="1.0" encoding="UTF-8" standalone="no"?>
<svg
   height="22"
   width="22"
   version="1.1"
   id="svg1"
   xml:space="preserve"
   xmlns="http://www.w3.org/2000/svg"
   xmlns:svg="http://www.w3.org/2000/svg"><defs
     id="defs1"><style
       type="text/css"
       id="current-color-scheme">
            .ColorScheme-Text {
                color:#232629;
            }
        </style></defs><path
     id="path1"
     style="fill:currentColor;opacity:0.2"
     class="ColorScheme-Text"
     d="M 18 3 C 16.900656 3 16 3.9006567 16 5 L 16 17 C 16 18.099344 16.900656 19 18 19 C 19.099344 19 20 18.099344 20 17 L 20 5 C 20 3.9006567 19.099344 3 18 3 z M 18 4 C 18.562645 4 19 4.4373532 19 5 L 19 17 C 19 17.562645 18.562645 18 18 18 C 17.437355 18 17 17.562645 17 17 L 17 5 C 17 4.4373532 17.437355 4 18 4 z M 13 6 C 11.900656 6 11 6.9006567 11 8 L 11 17 C 11 18.099344 11.900656 19 13 19 C 14.099344 19 15 18.099344 15 17 L 15 8 C 15 6.9006567 14.099344 6 13 6 z M 13 7 C 13.562645 7 14 7.4373532 14 8 L 14 17 C 14 17.562645 13.562645 18 13 18 C 12.437355 18 12 17.562645 12 17 L 12 8 C 12 7.4373532 12.437355 7 13 7 z M 8 9 C 6.9006556 9 6 9.9006556 6 11 L 6 17 C 6 18.099345 6.9006556 19 8 19 C 9.0993444 19 10 18.099345 10 17 L 10 11 C 10 9.9006556 9.0993444 9 8 9 z M 8 10 C 8.5626474 10 9 10.437354 9 11 L 9 17 C 9 17.562646 8.5626474 18 8 18 C 7.4373526 18 7 17.562646 7 17 L 7 11 C 7 10.437354 7.4373526 10 8 10 z M 3 12 C 1.870837 12 1 13.001171 1 14.166016 L 1 16.833984 C 1 17.998829 1.870837 19 3 19 C 4.129163 19 5 17.998829 5 16.833984 L 5 14.166016 C 5 13.001171 4.129163 12 3 12 z M 3 13 C 3.5328308 13 4 13.484198 4 14.166016 L 4 16.833984 C 4 17.515802 3.5328308 18 3 18 C 2.4671692 18 2 17.515802 2 16.833984 L 2 14.166016 C 2 13.484198 2.4671692 13 3 13 z " /><g
     id="rect1"
     style="opacity:0.4" /><g
     id="rect2"
     style="opacity:0.4" /><g
     id="rect3"
     style="opacity:0.4" /><g
     id="rect4"
     style="opacity:0.4" /><style
     type="text/css"
     id="current-color-scheme-5">
      .ColorScheme-Text {
        color:#31363b;
      }
      .ColorScheme-Background {
        color:#eff0f1;
      }
      .ColorScheme-Highlight {
        color:#3498db;
      }
      .ColorScheme-ButtonText {
        color:#31363b;
      }
      .ColorScheme-NegativeText{
        color:#e74c3c;
      }
      </style><g
     transform="translate(-66,66)"
     id="network-mobile-20-5g"><rect
       style="opacity:0.55;fill:none;fill-opacity:1;stroke:none;stroke-width:3.56737px;stroke-linecap:butt;stroke-linejoin:miter;stroke-miterlimit:4;stroke-dasharray:none;stroke-dashoffset:0;stroke-opacity:1"
       id="rect4844-1"
       width="22"
       height="22"
       x="66"
       y="-66" /><path
       class="ColorScheme-Text"
       style="opacity:1;fill:currentColor;fill-opacity:1;stroke:none"
       d="m 72,-62.736273 v 2.417244 C 72,-59.59055 72.59055,-59 73.319029,-59 h 1.336074 C 75.397869,-59 76,-59.602131 76,-60.344897 v -0.310206 C 76,-61.397869 75.397869,-62 74.655103,-62 H 74.199854 C 73.923792,-62 73.7,-61.776208 73.7,-61.500146 v 2.92e-4 C 73.7,-61.223792 73.923792,-61 74.199854,-61 h 0.463872 C 74.849445,-61 75,-60.849445 75,-60.663726 v 0.327452 C 75,-60.150555 74.849445,-60 74.663726,-60 l -1.355104,0 C 73.138175,-60 73,-60.138175 73,-60.308622 v -2.427851 C 73,-62.882015 73.117985,-63 73.263527,-63 h 1.74838 C 75.281473,-63 75.5,-63.218527 75.5,-63.488093 v -0.02381 C 75.5,-63.781473 75.281473,-64 75.011907,-64 h -1.74818 C 72.56579,-64 72,-63.43421 72,-62.736273 Z"
       id="path5064-9" /><path
       style="opacity:1;fill:currentColor;fill-opacity:1;stroke:none;stroke-width:1;stroke-miterlimit:4;stroke-dasharray:none;stroke-opacity:1"
       d="m 67,-63 v 1 c 0,0.552285 0.447715,1 1,1 h 1.472123 C 69.763661,-61 70,-60.763661 70,-60.472123 69.984604,-60.195981 69.748265,-59.984604 69.472123,-60 H 67.499927 C 67.223825,-60 67,-59.776175 67,-59.500073 v 1.46e-4 C 67,-59.223825 67.223825,-59 67.499927,-59 h 1.978492 C 70.318765,-59 71,-59.681235 71,-60.521581 70.988081,-61.350008 70.306846,-62.011919 69.478419,-62 H 68 v -1 h 2.000073 C 70.276175,-63 70.5,-63.223825 70.5,-63.499927 v -1.46e-4 C 70.5,-63.776175 70.276175,-64 70.000073,-64 H 68 c -0.552285,0 -1,0.447715 -1,1 z"
       id="rect1642-3-6-7-5"
       class="ColorScheme-Text" /></g></svg>
