<?xml version="1.0" encoding="UTF-8" standalone="no"?>
<svg
   viewBox="0 0 22 22"
   version="1.1"
   id="svg1"
   xml:space="preserve"
   xmlns="http://www.w3.org/2000/svg"
   xmlns:svg="http://www.w3.org/2000/svg"><defs
     id="defs3051"><style
       type="text/css"
       id="current-color-scheme">
      .ColorScheme-Text {
        color:#232629;
      }
      </style><style
       id="current-color-scheme-1"
       type="text/css">
      .ColorScheme-Text {
        color:#31363b;
      }
    </style></defs><path
     id="path1"
     style="fill:currentColor"
     class="ColorScheme-Text"
     d="M 5.0253906 3 C 3.9029273 3 3 3.9029273 3 5.0253906 L 3 16.974609 C 3 18.097073 3.9029273 19 5.0253906 19 L 14.009766 19 C 14.003823 18.934663 14 18.869524 14 18.802734 L 14 18 L 5.0253906 18 C 4.4391953 18 4 17.560808 4 16.974609 L 4 5.0253906 C 4 4.4391951 4.4391951 4 5.0253906 4 L 15.974609 4 C 16.560808 4 17 4.4391953 17 5.0253906 L 17 11.679688 C 17.310274 11.563601 17.645463 11.5 17.998047 11.5 L 18 11.5 L 18 5.0253906 C 18 3.9029273 17.097073 3 15.974609 3 L 5.0253906 3 z M 6 5 C 5.4536406 5 5 5.4536406 5 6 L 5 12 C 5 12.546357 5.4536406 13 6 13 C 6 13.546357 6.4536406 14 7 14 L 8 14 L 8 15 C 8 15.546357 8.4536406 16 9 16 L 12 16 C 12.546357 16 13 15.546357 13 15 L 13 14 L 14 14 C 14.546357 14 15 13.546357 15 13 C 15.223575 13 15.429864 12.92212 15.597656 12.794922 C 15.691316 12.656504 15.795833 12.526711 15.910156 12.40625 C 15.9668 12.281529 16 12.144308 16 12 L 16 6 C 16 5.4536406 15.546357 5 15 5 L 6 5 z M 6 6 L 15 6 L 15 12 C 14.453643 12 14 12.453643 14 13 L 13 13 C 12.453643 13 12 13.453643 12 14 L 12 15 L 9 15 L 9 14 C 9 13.453643 8.5463594 13 8 13 L 7 13 C 7 12.453643 6.5463594 12 6 12 L 6 6 z M 17.998047 12.5 C 16.900118 12.5 16 13.400118 16 14.498047 L 16 15 L 15.857422 15 C 15.39011 15 15 15.39011 15 15.857422 L 15 18.802734 C 15 19.458358 15.541643 20 16.197266 20 L 19.183594 20 C 20.180738 20 21 19.180738 21 18.183594 L 21 15.857422 C 21 15.39011 20.60989 15 20.142578 15 L 20 15 L 20 14.498047 C 20 13.400118 19.099882 12.5 18.001953 12.5 L 17.998047 12.5 z M 17.998047 13.5 L 18.001953 13.5 C 18.559471 13.5 19 13.940553 19 14.498047 L 19 15 L 17 15 L 17 14.498047 C 17 13.940553 17.440553 13.5 17.998047 13.5 z M 5.5 15 C 5.2230015 15 5 15.223 5 15.5 L 5 16.5 C 5 16.777 5.2230015 17 5.5 17 L 6.5 17 C 6.7769985 17 7 16.777 7 16.5 L 7 15.5 C 7 15.223 6.7769985 15 6.5 15 L 5.5 15 z M 16 16 L 20 16 L 20 18.183594 C 20 18.640299 19.640299 19 19.183594 19 L 16.197266 19 C 16.082082 19 16 18.91792 16 18.802734 L 16 16 z " /><path
     id="path6"
     style="opacity:0.4;fill:currentColor"
     class="ColorScheme-Text"
     d="M 7.5,7 C 7.2230003,7 7,7.2230003 7,7.5 v 2 C 7,9.7769997 7.2230003,10 7.5,10 7.7769997,10 8,9.7769997 8,9.5 v -2 C 8,7.2230003 7.7769997,7 7.5,7 Z m 2,0 C 9.223,7 9,7.2230003 9,7.5 v 2 C 9,9.7769997 9.223,10 9.5,10 9.777,10 10,9.7769997 10,9.5 v -2 C 10,7.2230003 9.777,7 9.5,7 Z m 2,0 C 11.223,7 11,7.2230003 11,7.5 v 2 C 11,9.7769997 11.223,10 11.5,10 11.777,10 12,9.7769997 12,9.5 v -2 C 12,7.2230003 11.777,7 11.5,7 Z m 2,0 C 13.223,7 13,7.2230003 13,7.5 v 2 C 13,9.7769997 13.223,10 13.5,10 13.777,10 14,9.7769997 14,9.5 v -2 C 14,7.2230003 13.777,7 13.5,7 Z" /></svg>
