<?xml version="1.0" encoding="UTF-8" standalone="no"?>
<svg
   viewBox="0 0 22 22"
   version="1.1"
   id="svg1"
   xmlns="http://www.w3.org/2000/svg"
   xmlns:svg="http://www.w3.org/2000/svg">
  <defs
     id="defs3051">
    <style
       type="text/css"
       id="current-color-scheme">
      .ColorScheme-Text {
        color:#232629;
      }
      </style>
  </defs>
  <path
     id="path1"
     style="fill:currentColor;opacity:0.4"
     class="ColorScheme-Text"
     d="M 5.0253906 3 C 3.9029273 3 3 3.9029273 3 5.0253906 L 3 16.974609 C 3 18.097073 3.9029273 19 5.0253906 19 L 13.292969 19 C 13.348367 18.740935 13.472952 18.495799 13.669922 18.298828 L 13.96875 18 L 5.0253906 18 C 4.4391953 18 4 17.560808 4 16.974609 L 4 5.0253906 C 4 4.4391951 4.4391951 4 5.0253906 4 L 15.974609 4 C 16.560808 4 17 4.4391953 17 5.0253906 L 17 13.96875 L 17.5 14.46875 L 18 13.96875 L 18 5.0253906 C 18 3.9029273 17.097073 3 15.974609 3 L 5.0253906 3 z M 6 5 C 5.4536406 5 5 5.4536406 5 6 L 5 12 C 5 12.546357 5.4536406 13 6 13 C 6 13.546357 6.4536406 14 7 14 L 8 14 L 8 15 C 8 15.546357 8.4536406 16 9 16 L 12 16 C 12.546357 16 13 15.546357 13 15 L 13 14 L 13.298828 14 C 13.221053 13.665969 13.260612 13.308069 13.419922 13 L 13 13 C 12.453643 13 12 13.453643 12 14 L 12 15 L 9 15 L 9 14 C 9 13.453643 8.5463594 13 8 13 L 7 13 C 7 12.453643 6.5463594 12 6 12 L 6 6 L 15 6 L 15 12 C 14.727795 12 14.478417 12.112398 14.296875 12.292969 C 14.422646 12.257765 14.551497 12.238281 14.679688 12.238281 C 15.042608 12.238281 15.414516 12.381313 15.689453 12.65625 L 15.720703 12.6875 C 15.892794 12.507337 16 12.264853 16 12 L 16 6 C 16 5.4536406 15.546357 5 15 5 L 6 5 z M 7.5 7 C 7.2230012 7 7 7.2230012 7 7.5 L 7 9.5 C 7 9.7769988 7.2230012 10 7.5 10 C 7.7769988 10 8 9.7769988 8 9.5 L 8 7.5 C 8 7.2230012 7.7769988 7 7.5 7 z M 9.5 7 C 9.2230009 7 9 7.2230012 9 7.5 L 9 9.5 C 9 9.7769988 9.2230009 10 9.5 10 C 9.7769991 10 10 9.7769988 10 9.5 L 10 7.5 C 10 7.2230012 9.7769991 7 9.5 7 z M 11.5 7 C 11.223 7 11 7.2230012 11 7.5 L 11 9.5 C 11 9.7769988 11.223 10 11.5 10 C 11.777 10 12 9.7769988 12 9.5 L 12 7.5 C 12 7.2230012 11.777 7 11.5 7 z M 13.5 7 C 13.223 7 13 7.2230012 13 7.5 L 13 9.5 C 13 9.7769988 13.223 10 13.5 10 C 13.777 10 14 9.7769988 14 9.5 L 14 7.5 C 14 7.2230012 13.777 7 13.5 7 z " />
  <path
     id="path1-7"
     style="fill:currentColor"
     class="ColorScheme-Text"
     d="m 14.678906,13.166211 c -0.127809,0 -0.255581,0.04855 -0.353515,0.146485 -0.195868,0.195868 -0.195868,0.511162 0,0.707031 l 2.467578,2.467578 -2.467578,2.467578 c -0.195868,0.195869 -0.195868,0.511163 0,0.707031 0.195868,0.195868 0.511162,0.195868 0.707031,0 L 17.5,17.194336 l 2.467578,2.467578 c 0.195869,0.195868 0.511163,0.195868 0.707031,0 0.195868,-0.195868 0.195868,-0.511162 0,-0.707031 l -2.467578,-2.467578 2.467578,-2.467578 c 0.195868,-0.195869 0.195868,-0.511163 0,-0.707031 -0.195868,-0.195868 -0.511162,-0.195868 -0.707031,0 L 17.5,15.780274 15.032422,13.312696 c -0.09793,-0.09793 -0.225706,-0.146485 -0.353516,-0.146485 z" />
</svg>
