<?xml version="1.0" encoding="UTF-8" standalone="no"?>
<svg
   height="22"
   width="22"
   version="1.1"
   id="svg1"
   xmlns="http://www.w3.org/2000/svg"
   xmlns:svg="http://www.w3.org/2000/svg">
  <defs
     id="defs1">
    <style
       type="text/css"
       id="current-color-scheme">
            .ColorScheme-Text {
                color:#232629;
            }
        </style>
  </defs>
  <path
     id="path1"
     style="fill:currentColor"
     class="ColorScheme-Text"
     d="M 11.5 3.0039062 C 7.788098 3.0039063 4.0752866 4.4169006 1.2460938 7.2460938 C 1.0508822 7.4413469 1.0508822 7.7578719 1.2460938 7.953125 C 1.4413469 8.1483364 1.7578719 8.1483364 1.953125 7.953125 C 7.229364 2.6768858 15.770634 2.6768862 21.046875 7.953125 C 21.242128 8.1483362 21.558653 8.1483362 21.753906 7.953125 C 21.949118 7.7578719 21.949118 7.4413469 21.753906 7.2460938 C 18.924714 4.4169008 15.211901 3.0039062 11.5 3.0039062 z M 11.5 7.0039062 C 8.8117825 7.0039063 6.1243198 8.0280232 4.0761719 10.076172 C 3.8809605 10.271425 3.8809605 10.58795 4.0761719 10.783203 C 4.271425 10.978415 4.58795 10.978415 4.7832031 10.783203 C 8.4973526 7.0690537 14.502648 7.069054 18.216797 10.783203 C 18.41205 10.978415 18.728575 10.978415 18.923828 10.783203 C 19.11904 10.58795 19.11904 10.271425 18.923828 10.076172 C 16.87568 8.0280234 14.188216 7.0039063 11.5 7.0039062 z M 11.5 11.003906 C 9.8354669 11.003906 8.1714002 11.637192 6.9042969 12.904297 C 6.7090854 13.09955 6.7090854 13.416075 6.9042969 13.611328 C 7.0995499 13.80654 7.4160751 13.80654 7.6113281 13.611328 C 9.7177916 11.504864 13.089899 11.461314 15.25 13.478516 C 15.367741 13.151373 15.538148 12.850316 15.751953 12.585938 C 14.535416 11.531992 13.01811 11.003906 11.5 11.003906 z M 17.998047 12.5 C 16.900119 12.5 16 13.400119 16 14.498047 L 16 15 L 15.857422 15 C 15.39011 15 15 15.39011 15 15.857422 L 15 18.802734 C 15 19.458358 15.541643 20 16.197266 20 L 19.183594 20 C 20.180737 20 21 19.180737 21 18.183594 L 21 15.857422 C 21 15.39011 20.60989 15 20.142578 15 L 20 15 L 20 14.498047 C 20 13.400119 19.099881 12.5 18.001953 12.5 L 17.998047 12.5 z M 17.998047 13.5 L 18.001953 13.5 C 18.559477 13.5 19 13.940553 19 14.498047 L 19 15 L 17 15 L 17 14.498047 C 17 13.940553 17.440553 13.5 17.998047 13.5 z M 11.5 15 C 10.125217 15 9 16.125217 9 17.5 C 9 18.874783 10.125217 20 11.5 20 C 12.874783 20 14 18.874783 14 17.5 C 14 16.125217 12.874783 15 11.5 15 z M 11.5 16 C 12.334344 16 13 16.665656 13 17.5 C 13 18.334344 12.334344 19 11.5 19 C 10.665656 19 10 18.334344 10 17.5 C 10 16.665656 10.665656 16 11.5 16 z M 16 16 L 20 16 L 20 18.183594 C 20 18.640298 19.640298 19 19.183594 19 L 16.197266 19 C 16.082082 19 16 18.91792 16 18.802734 L 16 16 z " />
</svg>
