<?xml version="1.0" encoding="UTF-8" standalone="no"?>
<svg
   height="22"
   width="22"
   version="1.1"
   id="svg1"
   xmlns="http://www.w3.org/2000/svg"
   xmlns:svg="http://www.w3.org/2000/svg">
  <defs
     id="defs1">
    <style
       type="text/css"
       id="current-color-scheme">
            .ColorScheme-Text {
                color:#232629;
            }
        </style>
  </defs>
  <path
     id="path1"
     style="fill:currentColor"
     class="ColorScheme-Text"
     d="m 10.496094,2.6582031 c -0.260305,0.00342 -0.54445,0.1078254 -0.72461,0.3769531 -0.04835,0.072225 -0.09596,0.148072 -0.142578,0.2265626 C 9.196378,3.9899661 9,5.0389583 9,5.8183594 V 9.134766 C 9,9.228436 8.94762,9.310799 8.863281,9.351562 L 3.8457031,11.777344 C 3.3300526,12.026575 3,12.552278 3,13.125 v 0.75 c 10e-8,0.630611 0.6147798,1.11193 1.226562,0.958984 L 9,13.640625 v 3.537109 c 0,0.0095 -0.0032,0.01528 -0.01172,0.01953 L 7.720702,17.830076 C 7.28028,18.050293 7,18.503683 7,18.996094 v 0.224609 c 1e-6,0.424181 0.355116,0.779296 0.779297,0.779297 h 0.691406 4.75 c 0.424181,-1e-6 0.779296,-0.355116 0.779297,-0.779297 v -0.224609 c 0,-0.492411 -0.280279,-0.945803 -0.720703,-1.166016 L 12.011719,17.197266 C 12.003213,17.193013 12,17.187244 12,17.177734 v -3.537109 l 4.773438,1.193359 C 17.385221,14.98693 18,14.505611 18,13.875 v -0.75 c 0,-0.572723 -0.330053,-1.098425 -0.845703,-1.347656 L 12.136719,9.351562 C 12.05238,9.310799 12,9.228439 12,9.134766 V 5.8183594 C 12,5.0426158 11.814337,3.9895971 11.380859,3.2578125 11.333194,3.17734 11.284609,3.0995219 11.234375,3.0253906 11.050507,2.7540402 10.756398,2.654781 10.496094,2.6582031 Z m 0.0098,1.0878907 c 0.0047,0.00782 0.0089,0.013509 0.01367,0.021484 C 10.771808,4.193521 11,5.247855 11,5.8183594 V 9.134766 c 0,0.475041 0.273468,0.910463 0.701172,1.117187 l 5.019531,2.425781 C 16.892989,12.761006 17,12.933646 17,13.125 v 0.734375 L 11.976562,12.603516 C 11.492059,12.482389 11.000001,12.867773 11,13.367188 v 3.810546 c 0,0.38617 0.219053,0.741363 0.564453,0.914063 l 1.267578,0.632812 C 12.935562,18.776375 13,18.880342 13,18.996094 V 19 H 8.470703 8 V 18.9961 C 8,18.880348 8.06444,18.776381 8.167969,18.724615 L 9.435547,18.091803 C 9.780947,17.919091 10,17.563904 10,17.177734 V 13.367188 C 9.999999,12.867773 9.507941,12.482389 9.023438,12.603516 L 4,13.859375 V 13.125 C 4,12.933646 4.107012,12.761006 4.279297,12.677734 L 9.298828,10.251953 C 9.726532,10.045229 10,9.609807 10,9.134766 V 5.8183594 c 0,-0.5668469 0.2337,-1.6162835 0.488281,-2.0449219 0.006,-0.010105 0.01163,-0.017473 0.01758,-0.027344 z" />
</svg>
