<?xml version="1.0" encoding="UTF-8" standalone="no"?>
<svg
   height="22"
   width="22"
   version="1.1"
   id="svg1"
   xmlns="http://www.w3.org/2000/svg"
   xmlns:svg="http://www.w3.org/2000/svg">
  <defs
     id="defs1">
    <style
       type="text/css"
       id="current-color-scheme">
            .ColorScheme-Text {
                color:#232629;
            }
        </style>
  </defs>
  <path
     id="path1"
     style="fill:currentColor"
     class="ColorScheme-Text"
     d="m 18,3 c -1.099347,0 -2,0.9006534 -2,2 v 12 c 0,1.099347 0.900653,2 2,2 1.099347,0 2,-0.900653 2,-2 V 5 C 20,3.9006534 19.099347,3 18,3 Z m 0,1 c 0.562648,0 1,0.4373514 1,1 v 12 c 0,0.562648 -0.437352,1 -1,1 -0.562648,0 -1,-0.437352 -1,-1 V 5 c 0,-0.5626486 0.437352,-1 1,-1 z m -5,2 c -1.099347,0 -2,0.9006534 -2,2 v 9 c 0,1.099347 0.900653,2 2,2 1.099347,0 2,-0.900653 2,-2 V 8 C 15,6.9006534 14.099347,6 13,6 Z m 0,1 c 0.562648,0 1,0.4373514 1,1 v 9 c 0,0.562648 -0.437352,1 -1,1 -0.562648,0 -1,-0.437352 -1,-1 V 8 C 12,7.4373514 12.437352,7 13,7 Z M 8,9 C 6.9006534,9 6,9.9006534 6,11 v 6 c 0,1.099347 0.9006534,2 2,2 1.0993466,0 2,-0.900653 2,-2 V 11 C 10,9.9006534 9.0993466,9 8,9 Z m 0,1 c 0.5626486,0 1,0.437352 1,1 v 6 C 9,17.562648 8.5626486,18 8,18 7.4373514,18 7,17.562648 7,17 v -6 c 0,-0.562648 0.4373514,-1 1,-1 z m -5,2 c -1.1291641,0 -2,1.00117 -2,2.166016 v 2.667968 C 1,17.99883 1.8708359,19 3,19 4.1291641,19 5,17.99883 5,16.833984 V 14.166016 C 5,13.00117 4.1291641,12 3,12 Z m 0,1 c 0.5328313,0 1,0.484198 1,1.166016 v 2.667968 C 4,17.515802 3.5328313,18 3,18 2.4671687,18 2,17.515802 2,16.833984 V 14.166016 C 2,13.484198 2.4671687,13 3,13 Z" />
  <g
     id="rect1"
     style="opacity:0.4" />
  <g
     id="rect2"
     style="opacity:0.4" />
  <g
     id="rect3"
     style="opacity:0.4" />
  <g
     id="rect4"
     style="opacity:0.4" />
</svg>
