<?xml version="1.0" encoding="UTF-8" standalone="no"?>
<svg
   height="22"
   width="22"
   version="1.1"
   id="svg1"
   xmlns="http://www.w3.org/2000/svg"
   xmlns:svg="http://www.w3.org/2000/svg">
  <defs
     id="defs4157">
    <style
       id="current-color-scheme"
       type="text/css">
      .ColorScheme-Text {
        color:#31363b;
      }
    </style>
  </defs>
  <path
     class="ColorScheme-Text"
     id="path4676"
     d="m 10.998047,4 v 6.041013 L 7.0720285,6.1185712 C 6.870419,5.9171455 6.5437174,5.91722 6.3421998,6.1187376 6.1532345,6.3202056 6.1634386,6.6367332 6.3649878,6.8256119 l 4.1799342,4.1763411 -4.1799339,4.176342 c -0.2015515,0.201379 -0.2016217,0.52804 -1.568e-4,0.729505 0.2015147,0.18902 0.5180855,0.178964 0.7071971,-0.02247 L 11,11.960938 V 18 c -10e-7,1.103279 1.335916,1.653567 2.112986,0.870378 l 2.347977,-2.366464 c 0.551514,-0.555856 0.551906,-1.45236 8.79e-4,-2.008699 L 12,11 15.5,7.5 C 16.052256,6.9477441 16.052177,6.0523357 15.499823,5.5001776 L 13.119744,3.1209437 C 12.336664,2.3381413 10.998047,2.8927538 10.998047,4 Z m 1.417655,-0.1682827 2.379684,2.3796842 c 0.160467,0.1604672 0.160467,0.420636 0,0.5811032 L 12,9.5878906 v -5.583984 c 0,-0.2169467 0.262298,-0.325594 0.415702,-0.1721893 z M 12,12.416016 l 2.754464,2.793356 c 0.159988,0.162247 0.159988,0.422915 0,0.585162 l -2.341687,2.374751 C 12.261387,18.322812 12.000001,18.215614 12,18 Z"
     style="fill:currentColor" />
</svg>
