<?xml version="1.0" encoding="UTF-8" standalone="no"?>
<svg
   height="22"
   width="22"
   version="1.1"
   id="svg1"
   xmlns="http://www.w3.org/2000/svg"
   xmlns:svg="http://www.w3.org/2000/svg">
  <defs
     id="defs1">
    <style
       type="text/css"
       id="current-color-scheme">
            .ColorScheme-Text {
                color:#232629;
            }
        </style>
  </defs>
  <path
     id="path1"
     style="fill:currentColor;opacity:0.2"
     class="ColorScheme-Text"
     d="M 18 3 C 16.900655 3 16 3.9006556 16 5 L 16 17 C 16 18.099345 16.900655 19 18 19 C 19.099345 19 20 18.099345 20 17 L 20 5 C 20 3.9006556 19.099345 3 18 3 z M 18 4 C 18.562646 4 19 4.4373526 19 5 L 19 17 C 19 17.562646 18.562646 18 18 18 C 17.437354 18 17 17.562646 17 17 L 17 5 C 17 4.4373526 17.437354 4 18 4 z M 13 6 C 11.900655 6 11 6.9006556 11 8 L 11 17 C 11 18.099345 11.900655 19 13 19 C 14.099345 19 15 18.099345 15 17 L 15 8 C 15 6.9006556 14.099345 6 13 6 z M 13 7 C 13.562646 7 14 7.4373526 14 8 L 14 17 C 14 17.562646 13.562646 18 13 18 C 12.437354 18 12 17.562646 12 17 L 12 8 C 12 7.4373526 12.437354 7 13 7 z M 8 9 C 6.9006545 9 6 9.9006545 6 11 L 6 17 C 6 18.099346 6.9006545 19 8 19 C 9.0993455 19 10 18.099346 10 17 L 10 11 C 10 9.9006545 9.0993455 9 8 9 z M 8 10 C 8.562648 10 9 10.437353 9 11 L 9 17 C 9 17.562647 8.562648 18 8 18 C 7.437352 18 7 17.562647 7 17 L 7 11 C 7 10.437353 7.437352 10 8 10 z " />
  <g
     id="rect1"
     style="opacity:0.4" />
  <g
     id="rect2"
     style="opacity:0.4" />
  <g
     id="rect3"
     style="opacity:0.4" />
  <g
     id="rect4"
     style="opacity:0.4" />
  <path
     id="path21"
     style="fill:currentColor"
     class="ColorScheme-Text"
     d="m 3,12 c -1.1291641,0 -2,1.00117 -2,2.166016 v 2.667968 C 1,17.99883 1.8708359,19 3,19 4.1291641,19 5,17.99883 5,16.833984 V 14.166016 C 5,13.00117 4.1291641,12 3,12 Z m 0,1 c 0.5328313,0 1,0.484198 1,1.166016 v 2.667968 C 4,17.515802 3.5328313,18 3,18 2.4671687,18 2,17.515802 2,16.833984 V 14.166016 C 2,13.484198 2.4671687,13 3,13 Z" />
</svg>
