<?xml version="1.0" encoding="UTF-8" standalone="no"?>
<svg
   height="22"
   width="22"
   version="1.1"
   id="svg1"
   xmlns="http://www.w3.org/2000/svg"
   xmlns:svg="http://www.w3.org/2000/svg">
  <defs
     id="defs1">
    <style
       type="text/css"
       id="current-color-scheme">
            .ColorScheme-Text {
                color:#232629;
            }
        </style>
  </defs>
  <path
     id="path4"
     style="opacity:0.4;fill:currentColor"
     class="ColorScheme-Text"
     d="m 11.5,3.0039062 c -3.7118983,1e-7 -7.4247163,1.4129972 -10.2539062,4.2421876 -0.1952115,0.1952529 -0.1952115,0.5117783 0,0.7070312 0.1952529,0.1952112 0.5117783,0.1952112 0.7070312,0 5.2762337,-5.2762339 13.817514,-5.2762335 19.09375,0 0.195253,0.195211 0.511778,0.195211 0.707031,0 0.195212,-0.1952529 0.195212,-0.5117783 0,-0.7070312 C 18.924717,4.4169036 15.211897,3.0039063 11.5,3.0039062 Z m 0,4 c -2.6882148,10e-8 -5.3756823,1.0241192 -7.4238281,3.0722658 -0.1952112,0.195253 -0.1952112,0.511778 0,0.707031 0.1952529,0.195211 0.5117783,0.195211 0.7070312,0 3.7141458,-3.7141458 9.7194489,-3.7141455 13.4335939,0 0.195253,0.195211 0.511778,0.195211 0.707031,0 0.195212,-0.195253 0.195212,-0.511778 0,-0.707031 C 16.875682,8.0280256 14.188213,7.0039063 11.5,7.0039062 Z m 0,3.9999998 c -1.6645331,0 -3.3285998,0.633286 -4.5957031,1.900391 -0.1952115,0.195253 -0.1952115,0.511778 0,0.707031 0.195253,0.195212 0.5117782,0.195212 0.7070312,0 2.1520605,-2.152061 5.6252829,-2.152061 7.7773439,0 0.195253,0.195212 0.511778,0.195212 0.707031,0 0.195212,-0.195253 0.195212,-0.511778 0,-0.707031 C 14.828599,11.637192 13.164532,11.003906 11.5,11.003906 Z M 11.5,15 C 10.125216,15 9,16.125216 9,17.5 9,18.874784 10.125216,20 11.5,20 12.874784,20 14,18.874784 14,17.5 14,16.125216 12.874784,15 11.5,15 Z m 0,1 C 12.334345,16 13,16.665655 13,17.5 13,18.334345 12.334345,19 11.5,19 10.665655,19 10,18.334345 10,17.5 10,16.665655 10.665655,16 11.5,16 Z" />
</svg>
