<?xml version="1.0" encoding="UTF-8" standalone="no"?>
<svg
   height="22"
   width="22"
   version="1.1"
   id="svg1"
   xmlns="http://www.w3.org/2000/svg"
   xmlns:svg="http://www.w3.org/2000/svg">
  <defs
     id="defs1">
    <style
       type="text/css"
       id="current-color-scheme">
            .ColorScheme-Text {
                color:#232629;
            }
        </style>
  </defs>
  <path
     id="path4"
     style="opacity:0.4;fill:currentColor"
     class="ColorScheme-Text"
     d="m 11.5,3.0039062 c -3.711902,1e-7 -7.4247134,1.4129944 -10.2539062,4.2421876 -0.1952116,0.1952531 -0.1952116,0.5117781 0,0.7070312 0.1952531,0.1952114 0.5117781,0.1952114 0.7070312,0 5.276239,-5.2762392 13.817509,-5.2762388 19.09375,0 0.195253,0.1952112 0.511778,0.1952112 0.707031,0 0.195212,-0.1952531 0.195212,-0.5117781 0,-0.7070312 C 18.924714,4.4169008 15.211901,3.0039062 11.5,3.0039062 Z m 0,4 c -2.6882175,10e-8 -5.3756802,1.0241172 -7.4238281,3.0722658 -0.1952114,0.195253 -0.1952114,0.511778 0,0.707031 0.1952531,0.195212 0.5117781,0.195212 0.7070312,0 3.7141495,-3.7141495 9.7194449,-3.7141492 13.4335939,0 0.195253,0.195211 0.511778,0.195211 0.707031,0 0.195212,-0.195253 0.195212,-0.511778 0,-0.707031 C 16.87568,8.0280236 14.188216,7.0039063 11.5,7.0039062 Z m 0,3.9999998 c -1.6645348,0 -3.3285985,0.633285 -4.5957031,1.900391 -0.1952117,0.195253 -0.1952117,0.511778 0,0.707031 0.1952532,0.195212 0.511778,0.195212 0.7070312,0 2.1520626,-2.152063 5.6252809,-2.152063 7.7773439,0 0.195253,0.195212 0.511778,0.195212 0.707031,0 0.195212,-0.195253 0.195212,-0.511778 0,-0.707031 C 14.828598,11.637191 13.164534,11.003906 11.5,11.003906 Z" />
  <path
     id="path5"
     style="fill:currentColor"
     class="ColorScheme-Text"
     d="M 11.5,15 C 10.125215,15 9,16.125215 9,17.5 9,18.874785 10.125215,20 11.5,20 12.874785,20 14,18.874785 14,17.5 14,16.125215 12.874785,15 11.5,15 Z m 0,1 C 12.334346,16 13,16.665654 13,17.5 13,18.334346 12.334346,19 11.5,19 10.665654,19 10,18.334346 10,17.5 10,16.665654 10.665654,16 11.5,16 Z" />
</svg>
