<?xml version="1.0" encoding="UTF-8" standalone="no"?>
<svg
   height="22"
   width="22"
   version="1.1"
   id="svg1"
   xmlns="http://www.w3.org/2000/svg"
   xmlns:svg="http://www.w3.org/2000/svg">
  <defs
     id="defs1">
    <style
       type="text/css"
       id="current-color-scheme">
            .ColorScheme-Text {
                color:#232629;
            }
        </style>
  </defs>
  <path
     id="path1"
     style="fill:currentColor"
     class="ColorScheme-Text"
     d="m 11.5,11.003906 c -1.6645365,0 -3.3285972,0.633284 -4.5957031,1.900391 -0.1952119,0.195253 -0.1952119,0.511778 0,0.707031 0.1952534,0.195212 0.5117778,0.195212 0.7070312,0 2.1520647,-2.152065 5.6252789,-2.152065 7.7773439,0 0.195253,0.195212 0.511778,0.195212 0.707031,0 0.195212,-0.195253 0.195212,-0.511778 0,-0.707031 C 14.828597,11.63719 13.164536,11.003906 11.5,11.003906 Z M 11.5,15 C 10.125215,15 9,16.125215 9,17.5 9,18.874785 10.125215,20 11.5,20 12.874785,20 14,18.874785 14,17.5 14,16.125215 12.874785,15 11.5,15 Z m 0,1 C 12.334346,16 13,16.665654 13,17.5 13,18.334346 12.334346,19 11.5,19 10.665654,19 10,18.334346 10,17.5 10,16.665654 10.665654,16 11.5,16 Z" />
  <path
     id="path4"
     style="opacity:0.4;fill:currentColor"
     class="ColorScheme-Text"
     d="m 11.5,3.0039062 c -3.7119057,1e-7 -7.4247105,1.4129916 -10.2539062,4.2421876 -0.1952117,0.1952533 -0.1952117,0.5117779 0,0.7070312 0.1952533,0.1952116 0.5117779,0.1952116 0.7070312,0 5.2762443,-5.2762445 13.817504,-5.2762441 19.09375,0 0.195253,0.1952114 0.511778,0.1952114 0.707031,0 0.195212,-0.1952533 0.195212,-0.5117779 0,-0.7070312 C 18.924711,4.416898 15.211905,3.0039062 11.5,3.0039062 Z m 0,4 c -2.6882202,10e-8 -5.3756781,1.0241152 -7.4238281,3.0722658 -0.1952116,0.195253 -0.1952116,0.511778 0,0.707031 0.1952533,0.195212 0.5117779,0.195212 0.7070312,0 3.7141532,-3.7141532 9.7194409,-3.7141529 13.4335939,0 0.195253,0.195212 0.511778,0.195212 0.707031,0 0.195212,-0.195253 0.195212,-0.511778 0,-0.707031 C 16.875678,8.0280216 14.188219,7.0039063 11.5,7.0039062 Z" />
</svg>
