<svg width="22" height="22" version="1.1" xml:space="preserve" xmlns="http://www.w3.org/2000/svg" xmlns:xlink="http://www.w3.org/1999/xlink"><defs><style id="current-color-scheme" type="text/css">.ColorScheme-Text {
                color:#232629;
            }</style></defs><path d="m10.246 1.8633c-1.8545.054298-3.6845.72564-5.1348 1.8828-1.4507 1.1573-2.512 2.7932-2.9766 4.5898-.46461 1.7966-.33082 3.7435.37695 5.459.70774 1.7152 1.986 3.1904 3.582 4.1367 1.4632.86755 3.1868 1.2785 4.8848 1.1855.02559-.06789.05452-.13444.08789-.20117l3.6055-7.2129c.3671-.73421 1.1264-1.1074 1.8281-1.1074s1.461.37321 1.8281 1.1074l.51172 1.0234c.4241-1.5931.3905-3.3051-.11524-4.875-.56889-1.7661-1.7247-3.3378-3.2402-4.4082-1.5153-1.0704-3.3838-1.6342-5.2383-1.5801zm3.125 1.2188c.04764-.0008889.09756.00614.14453.025391 1.142.46769 2.1659 1.1975 2.9805 2.125.13383.15271.11542.38618-.04102.51562l-3.5273 2.9102c-.14312.11811-.35298.10759-.48438-.023438-.23102-.25245-.53689-.4085-.82422-.58398-.16658-.08147-.2445-.27744-.17969-.45117l1.6016-4.2852c.05372-.14253.18714-.22975.33008-.23242zm-2.8711 5.3594c1.1368-.0002914 2.0589.9218 2.0586 2.0586.000292 1.1368-.9218 2.0569-2.0586 2.0566-1.1368.000291-2.0589-.9199-2.0586-2.0566-.0002914-1.1368.9218-2.0589 2.0586-2.0586zm-2.1426 3.7929.037109.01758c.19705.0992.23518.34715.9668.70508.16657.08147.2445.27549.17969.44922l-1.6016 4.2871c-.071627.19004-.28474.2821-.47266.20508-1.1421-.4679-2.1678-1.1975-2.9824-2.125-.13383-.15271-.11542-.38422.041016-.51367l3.4961-2.8828c.16267-.14519.26413-.18976.33594-.14259z" fill="#ff0005" fill-opacity=".40985" opacity=".4" style="paint-order:fill markers stroke"/><path class="ColorScheme-Text" d="m10.3 19.498c-3.5327-.077397-6.7433-2.2318-8.1189-5.566-1.5273-3.7025-.4244-7.9687 2.706-10.467 3.1306-2.4984 7.5355-2.6275 10.807-.31656 2.9995 2.1187 4.3844 5.8211 3.5856 9.3399" fill="none" stroke="currentColor" stroke-linecap="round" stroke-linejoin="round" style="paint-order:fill markers stroke"/><ellipse id="ellipse3" class="ColorScheme-Text" cx="10.5" cy="10.499" rx="1.6772" ry="1.6772" fill="none" stroke="currentColor" stroke-linecap="round" stroke-linejoin="round" stroke-width=".7" style="paint-order:fill markers stroke"/><path class="ColorScheme-Text" transform="matrix(.72873 0 0 .72873 -.43074 -.43163)" d="m18.949 5.3145-2.1973 5.8809 1.2617.89845 4.8438-3.9941c-1.0669-1.2147-2.4121-2.1725-3.9082-2.7852zm-6.9902 12.604-4.8437 3.9941c1.0669 1.2147 2.4121 2.1725 3.9082 2.7852l2.1973-5.8809-1.2617-.89845z" fill="none" opacity=".39238" stroke="currentColor" stroke-linecap="round" stroke-linejoin="round" stroke-width=".96058" style="paint-order:fill markers stroke"/><g transform="translate(.025394 1)"><path class="ColorScheme-Text" d="m16.475 10.639c-.3586 0-.71731.1768-.89453.53125l-3.6055 7.2129c-.36234.72469.18978 1.6172 1 1.6172h7c.81022 0 1.3623-.8925 1-1.6172l-3.6055-7.2129c-.17722-.35445-.53593-.53125-.89453-.53125zm0 .97852 3.6055 7.2129c.04859.09718.0032.16992-.10547.16992h-7c-.10864 0-.15406-.07275-.10547-.16992zm-.03711 2.0828c-.25852 0-.46289.2248-.46289.48633v1.5273c0 .26997.21636.48633.48633.48633h.02734c.26997 0 .48633-.21636.48633-.48633v-1.5273c3e-6-.26997-.21636-.48633-.48632-.48633h-.05078zm0 3.3c-.25819.013-.46289.2248-.46289.48633v.02734c0 .26997.21636.48633.48633.48633h.02734c.26997 0 .48633-.21636.48633-.48633v-.02734c3e-6-.26997-.21636-.48633-.48632-.48633h-.02734c-.0084 0-.01511-.000419-.02344 0z" fill="currentColor"/><path d="m16.475 10.639c-.3586 0-.71731.1768-.89453.53125l-3.6055 7.2129c-.36234.72469.18978 1.6172 1 1.6172h7c.81022 0 1.3623-.8925 1-1.6172l-3.6055-7.2129c-.17722-.35445-.53593-.53125-.89453-.53125zm0 .97852 3.6055 7.2129c.04859.09718.0032.16992-.10547.16992h-7c-.10864 0-.15406-.07275-.10547-.16992zm-.03711 2.0828c-.25852 0-.46289.2248-.46289.48633v1.5273c0 .26997.21636.48633.48633.48633h.02734c.26997 0 .48633-.21636.48633-.48633v-1.5273c3e-6-.26997-.21636-.48633-.48632-.48633h-.05078zm0 3.3c-.25819.013-.46289.2248-.46289.48633v.02734c0 .26997.21636.48633.48633.48633h.02734c.26997 0 .48633-.21636.48633-.48633v-.02734c3e-6-.26997-.21636-.48633-.48632-.48633h-.02734c-.0084 0-.01511-.000419-.02344 0z" fill="#ff0202" opacity=".4"/></g><use xlink:href="#ellipse3"/><use xlink:href="#ellipse3"/></svg>
