<svg width="22" height="22" version="1.1" xml:space="preserve" xmlns="http://www.w3.org/2000/svg"><defs><style id="current-color-scheme" type="text/css">.ColorScheme-Text {
                color:#232629;
            }</style></defs><g class="ColorScheme-Text" fill="#f00" fill-opacity=".50485" fill-rule="evenodd" stroke="currentColor" stroke-linecap="round" stroke-linejoin="round"><path transform="matrix(1.1019,0,0,1.1019,-4.8251,-4.5687)" d="m7.555 20h10.89a1.5791 1.5791 121.72 001.4124-2.2853l-5.7147-11.429a1.2775 1.2775 0 00-2.2853 0l-5.7147 11.429a1.5791 1.5791 58.283 001.4124 2.2853z" fill="none" stroke-width=".9075" style="paint-order:fill markers stroke"/><path d="m9.5 5.4v6" style="paint-order:fill markers stroke"/><path d="m9.5 14.5v.5" style="paint-order:fill markers stroke"/></g><path class="ColorScheme-Text" d="m16.925 10.446c1.1481.30495 2.1966.98054 2.9565 1.9738 1.4871 1.9439 1.5108 4.6366.05821 6.6064-1.4527 1.9699-4.0324 2.7428-6.3289 1.8961-.96605-.35612-1.7842-.96278-2.395-1.7279" fill="none" stroke="currentColor" stroke-linecap="round" stroke-linejoin="round" style="paint-order:fill markers stroke"/><ellipse class="ColorScheme-Text" transform="matrix(-.96593 .25882 -.25882 -.96593 0 0)" cx="-10.906" cy="-19.242" rx="1.7003" ry="1.7003" fill="none" stroke="currentColor" stroke-linecap="round" stroke-linejoin="round" stroke-width=".7" style="paint-order:fill markers stroke"/><ellipse class="ColorScheme-Text" transform="matrix(-.96593 .25882 -.25882 -.96593 0 0)" cx="-10.906" cy="-19.242" rx="1.7003" ry="1.7003" fill="none" opacity=".6" stroke="#f00" stroke-linecap="round" stroke-linejoin="round" stroke-width=".7" style="paint-order:fill markers stroke"/></svg>
