<?xml version="1.0" encoding="UTF-8" standalone="no"?>
<svg
   version="1.1"
   viewBox="0 0 22 22"
   id="svg1"
   xmlns="http://www.w3.org/2000/svg"
   xmlns:svg="http://www.w3.org/2000/svg">
  <defs
     id="defs1">
    <style
       id="current-color-scheme"
       type="text/css">
        .ColorScheme-Text {
          color:#232629;
        }
      </style>
  </defs>
  <path
     id="smartphone"
     style="fill:currentColor"
     class="ColorScheme-Text"
     d="M 6 2 C 4.8920022 2 4 2.8920022 4 4 L 4 18 C 4 19.107998 4.8920022 20 6 20 L 13 20 C 14.107998 20 15 19.107998 15 18 L 15 17.898438 L 14.802734 18.244141 A 1.0001 1.0001 0 0 1 14.798828 18.248047 C 14.477182 18.804848 13.80321 19.052004 13.240234 18.96875 C 13.162806 18.987852 13.083491 19 13 19 L 6 19 C 5.4460012 19 5 18.553998 5 18 L 5 4 C 5 3.4460012 5.4460012 3 6 3 L 13 3 C 13.553998 3 14 3.4460012 14 4 L 14 6 L 15 6 L 15 4 C 15 2.8920022 14.107998 2 13 2 L 6 2 z M 9.5 4 C 9.2238586 4 9 4.2238582 9 4.5 C 9 4.7761418 9.2238586 5 9.5 5 C 9.7761414 5 10 4.7761418 10 4.5 C 10 4.2238582 9.7761414 4 9.5 4 z M 13.5 7 C 13.261564 7.0000847 13.056355 7.1685036 13.009766 7.4023438 L 12.009766 12.402344 C 11.948225 12.711561 12.184718 12.999875 12.5 13 L 13.890625 13 L 13.009766 17.402344 C 12.90188 17.956394 13.651249 18.236814 13.933594 17.748047 L 17.933594 10.748047 C 18.12385 10.414927 17.883622 10.000481 17.5 10 L 16.808594 10 L 17.947266 7.7226562 C 18.112427 7.3904371 17.87101 7.0003726 17.5 7 L 13.5 7 z M 7.5 17 C 7.2230006 17 7 17.223 7 17.5 C 7 17.777 7.2230006 18 7.5 18 L 11.5 18 C 11.777 18 12 17.777 12 17.5 C 12 17.223 11.777 17 11.5 17 L 7.5 17 z " />
</svg>
