<svg version="1.1" viewBox="0 0 22 22" xmlns="http://www.w3.org/2000/svg">
 <defs>
  <style id="current-color-scheme" type="text/css">.ColorScheme-Text {
          color:#232629;
        }</style>
 </defs>
 <path id="smartphone" class="ColorScheme-Text" d="m7.6445 3c-.90192 0-1.6445.74261-1.6445 1.6445v2.3555h-2c-1.108 0-2 .892-2 2v7c0 1.108.892 2 2 2h2v.35547c0 .90192.74261 1.6445 1.6445 1.6445h6.3508l-.61211-1h-5.7387c-.36148 0-.64453-.28305-.64453-.64453v-2.3555h6.291c.12841-.35617.30009-.6917.50976-1h-7.3008c-.27465 0-.5.22275-.5.5v1.5h-1v-3.7578c0-.13944.10275-.24219.24219-.24219h12.734c-.11442-.56623-.6216-1-1.2188-1h-11.516c-.67988 0-1.2422.56231-1.2422 1.2422v3.7578c-.554 0-1-.446-1-1v-7c0-.554.446-1 1-1h14c.554 0 1 .446 1 1v3.9832l1 .71211v-4.6953c0-1.108-.892-2-2-2h-2v-2.3555c0-.90192-.74261-1.6445-1.6445-1.6445zm0 1h6.7109c.36148 0 .64453.28305.64453.64453v2.3555h-8v-2.3555c0-.36148.28305-.64453.64453-.64453zm-2.1445 4.5c-.55228 0-1 .44772-1 1 0 .55228.44772 1 1 1s1-.44772 1-1c0-.55228-.44772-1-1-1z" fill="currentColor" opacity=".5"/>
 <path class="ColorScheme-Text" d="m5.2422 13c-.13376 0-.24219.10843-.24219.24219v3.7578h1v-1.5c0-.27614.22386-.5.5-.5h7.3008c.80855-1.1889 2.1729-1.9727 3.7129-1.9727.14001 0 .2792.0069.41602.01953.024426-.017127.047605-.033109.070312-.046874-4.5763-.002444-8.175 0-12.758 0z" fill="currentColor" opacity=".2"/>
 <path d="m17.514 14.027c-1.9194 0-3.4863 1.5669-3.4863 3.4863s1.5669 3.4863 3.4863 3.4863 3.4863-1.5669 3.4863-3.4863-1.5669-3.4863-3.4863-3.4863zm0 1c1.379 0 2.4863 1.1073 2.4863 2.4863s-1.1073 2.4863-2.4863 2.4863-2.4863-1.1073-2.4863-2.4863 1.1073-2.4863 2.4863-2.4863zm-1.0137 1.9727c-.277 0-.5.223-.5.5s.223.5.5.5h2c.277 0 .5-.223.5-.5s-.223-.5-.5-.5h-2z" fill="#680000" opacity=".7"/>
</svg>
