<?xml version="1.0" encoding="UTF-8" standalone="no"?>
<svg
   version="1.1"
   viewBox="0 0 22 22"
   id="svg1"
   xmlns="http://www.w3.org/2000/svg"
   xmlns:svg="http://www.w3.org/2000/svg">
  <defs
     id="defs1">
    <style
       id="current-color-scheme"
       type="text/css">
        .ColorScheme-Text {
          color:#232629;
        }
      </style>
  </defs>
  <path
     id="smartphone"
     style="fill:currentColor"
     class="ColorScheme-Text"
     d="M 6.6445312,1 C 5.7426074,1 5,1.7426073 5,2.6445312 V 6 H 3 C 1.8920011,6 1,6.8920011 1,8 v 8 c 0,1.107999 0.8920011,2 2,2 H 3.5 5 v 1.355469 C 5,20.257393 5.7426075,21 6.6445312,21 H 15.355469 C 16.257393,21 17,20.257393 17,19.355469 V 18 h 1.5 0.5 c 1.107999,0 2,-0.892001 2,-2 V 8 C 21,6.8920011 20.107999,6 19,6 H 17 V 2.6445312 C 17,1.7426074 16.257393,1 15.355469,1 Z m 0,1 H 15.355469 C 15.716953,2 16,2.2830475 16,2.6445312 V 6 H 6 V 2.6445312 C 6,2.2830476 6.2830475,2 6.6445312,2 Z M 3,7 h 2.5 11 2.5 c 0.553999,0 1,0.4460006 1,1 v 8 c 0,0.553999 -0.446001,1 -1,1 V 13.242188 C 19,12.562304 18.437694,12 17.757812,12 H 4.2421875 C 3.5623058,12 3,12.562306 3,13.242188 V 17 C 2.4460006,17 2,16.553999 2,16 V 8 C 2,7.4460006 2.4460006,7 3,7 Z m 1.5,1.5 c -0.5522847,0 -1,0.4477153 -1,1 0,0.552285 0.4477153,1 1,1 0.5522847,0 1,-0.447715 1,-1 0,-0.5522847 -0.4477153,-1 -1,-1 z M 4.2421875,13 H 17.757812 C 17.897254,13 18,13.102744 18,13.242188 V 17 H 17 V 15.5 C 17,15.223592 16.774644,15 16.5,15 H 5.5 C 5.2253481,15 5,15.222754 5,15.5 V 17 H 4 V 13.242188 C 4,13.102745 4.1027459,13 4.2421875,13 Z M 6,16 h 10 v 3.355469 C 16,19.716953 15.716953,20 15.355469,20 H 6.6445312 C 6.2830476,20 6,19.716953 6,19.355469 V 18 17 Z" />
  <path
     id="path1"
     style="opacity:0.2;fill:currentColor"
     class="ColorScheme-Text"
     d="M 4,17 V 13.242188 A 0.2421875,0.2421875 135 0 1 4.2421875,13 H 17.757812 A 0.242188,0.242188 45 0 1 18,13.242188 V 17 H 17 V 15.5 A 0.5,0.5 45 0 0 16.5,15 H 5.5 A 0.5,0.5 135 0 0 5,15.5 V 17 Z" />
</svg>
