<?xml version="1.0" encoding="UTF-8" standalone="no"?>
<svg
   version="1.1"
   viewBox="0 0 22 22"
   id="svg1"
   xmlns="http://www.w3.org/2000/svg"
   xmlns:svg="http://www.w3.org/2000/svg">
  <defs
     id="defs1">
    <style
       id="current-color-scheme"
       type="text/css">
        .ColorScheme-Text {
          color:#232629;
        }
      </style>
  </defs>
  <path
     id="screen"
     style="fill:currentColor"
     class="ColorScheme-Text"
     d="M 3 2 C 1.8920033 2 1 2.8920033 1 4 L 1 14 C 1 15.107997 1.8920033 16 3 16 L 11 16 L 11 18 L 9 18 C 8.7238579 18 8.5 18.223858 8.5 18.5 C 8.5 18.776142 8.7238579 19 9 19 L 11.390625 19 L 11.609375 19 L 14 19 C 14.276142 19 14.5 18.776142 14.5 18.5 C 14.5 18.223858 14.276142 18 14 18 L 12 18 L 12 16 L 20 16 C 21.107997 16 22 15.107997 22 14 L 22 4 C 22 2.8920033 21.107997 2 20 2 L 3 2 z M 3 3 L 20 3 C 20.553997 3 21 3.4460018 21 4 L 21 14 C 21 14.553997 20.553997 15 20 15 L 3 15 C 2.4460018 15 2 14.553997 2 14 L 2 4 C 2 3.4460018 2.4460018 3 3 3 z " />
  <path
     id="menu"
     style="fill:currentColor"
     class="ColorScheme-Text"
     d="M 7.5 11.400391 A 0.99999982 0.99999982 0 0 0 6.5 12.400391 A 0.99999982 0.99999982 0 0 0 7.5 13.400391 A 0.99999982 0.99999982 0 0 0 8.5 12.400391 A 0.99999982 0.99999982 0 0 0 7.5 11.400391 z M 11.5 11.400391 A 0.99999982 0.99999982 0 0 0 10.5 12.400391 A 0.99999982 0.99999982 0 0 0 11.5 13.400391 A 0.99999982 0.99999982 0 0 0 12.5 12.400391 A 0.99999982 0.99999982 0 0 0 11.5 11.400391 z M 15.5 11.400391 A 0.99999982 0.99999982 0 0 0 14.5 12.400391 A 0.99999982 0.99999982 0 0 0 15.5 13.400391 A 0.99999982 0.99999982 0 0 0 16.5 12.400391 A 0.99999982 0.99999982 0 0 0 15.5 11.400391 z " />
</svg>
