<?xml version="1.0" encoding="UTF-8" standalone="no"?>
<svg xmlns="http://www.w3.org/2000/svg" xmlns:svg="http://www.w3.org/2000/svg" version="1.1" viewBox="0 0 22 22" id="svg1">
  <defs id="defs1">
    <style id="current-color-scheme" type="text/css">
        .ColorScheme-Text {
          color:#232629;
        }
      </style>
  </defs>
  <path id="smartphone" style="opacity:0.5;fill:currentColor" class="ColorScheme-Text" d="M 6.6445312,1 C 5.7426074,1 5,1.7426073 5,2.6445312 V 6 H 3 C 1.8920011,6 1,6.8920011 1,8 v 8 c 0,1.107999 0.8920011,2 2,2 H 3.5 5 v 1.355469 C 5,20.257393 5.7426075,21 6.6445312,21 H 14.695312 C 14.343254,20.714737 14.035879,20.377426 13.783203,20 H 6.6445312 C 6.2830476,20 6,19.716953 6,19.355469 V 18 17 16 h 7.291016 c 0.128414,-0.35617 0.300092,-0.691705 0.509765,-1 H 5.5 C 5.2253481,15 5,15.222754 5,15.5 V 17 H 4 V 13.242188 C 4,13.102745 4.1027459,13 4.2421875,13 H 18.976562 c -0.114418,-0.566227 -0.621604,-1 -1.21875,-1 H 4.2421875 C 3.5623058,12 3,12.562306 3,13.242188 V 17 C 2.4460006,17 2,16.553999 2,16 V 8 C 2,7.4460006 2.4460006,7 3,7 h 2.5 11 2.5 c 0.553999,0 1,0.4460006 1,1 v 5.783203 c 0.377426,0.252676 0.714737,0.560051 1,0.912109 V 8 C 21,6.8920011 20.107999,6 19,6 H 17 V 2.6445312 C 17,1.7426074 16.257393,1 15.355469,1 Z m 0,1 H 15.355469 C 15.716953,2 16,2.2830475 16,2.6445312 V 6 H 6 V 2.6445312 C 6,2.2830478 6.2830475,2 6.6445312,2 Z M 4.5,8.5 c -0.5522847,0 -1,0.4477153 -1,1 0,0.552285 0.4477153,1 1,1 0.5522847,0 1,-0.447715 1,-1 0,-0.5522847 -0.4477153,-1 -1,-1 z"/>
  <path id="path1" style="opacity:0.2;fill:currentColor" class="ColorScheme-Text" d="M 4.2421875 13 C 4.1084308 13 3.9999997 13.10843 4 13.242188 L 4 17 L 5 17 L 5 15.5 C 5 15.223858 5.2238576 15 5.5 15 L 13.800781 15 C 14.609335 13.811135 15.973673 13.027344 17.513672 13.027344 C 17.653682 13.027344 17.792877 13.034202 17.929688 13.046875 C 17.954114 13.029747 17.977293 13.013765 18 13 C 13.423688 12.997556 8.8250294 13 4.2421875 13 z "/>
  <path id="path2" style="opacity:0.7;fill:#680000;fill-opacity:1" d="M 17.513672 14.027344 C 15.594223 14.027344 14.027344 15.594223 14.027344 17.513672 C 14.027344 19.433121 15.594223 21 17.513672 21 C 19.433121 21 21 19.433121 21 17.513672 C 21 15.594223 19.433121 14.027344 17.513672 14.027344 z M 17.513672 15.027344 C 18.892681 15.027344 20 16.134663 20 17.513672 C 20 18.892681 18.892681 20 17.513672 20 C 16.134663 20 15.027344 18.892681 15.027344 17.513672 C 15.027344 16.134663 16.134663 15.027344 17.513672 15.027344 z M 16.5 17 C 16.223 17 16 17.223 16 17.5 C 16 17.777 16.223 18 16.5 18 L 18.5 18 C 18.777 18 19 17.777 19 17.5 C 19 17.223 18.777 17 18.5 17 L 16.5 17 z "/>
</svg>
