<svg version="1.1" viewBox="0 0 22 22" xmlns="http://www.w3.org/2000/svg">
 <defs>
  <style id="current-color-scheme" type="text/css">.ColorScheme-Text {
          color:#232629;
        }</style>
 </defs>
 <g fill="currentColor">
  <path id="smartphone" class="ColorScheme-Text" d="m7.6445 3c-.90192 0-1.6445.74261-1.6445 1.6445v2.3555h-2c-1.108 0-2 .892-2 2v7c0 1.108.892 2 2 2h2v.35547c0 .90192.74261 1.6445 1.6445 1.6445h6.1934l-.45312-1h-5.7402c-.36148 0-.64453-.28305-.64453-.64453v-2.3555h6.3672c.12974-.35624.30426-.69205.51758-1h-7.3848c-.27465 0-.5.22275-.5.5v1.5h-1v-3.7578c0-.13944.10275-.24219.24219-.24219h12.734c-.11442-.56623-.6216-1-1.2188-1h-11.516c-.67988 0-1.2422.56231-1.2422 1.2422v3.7578c-.554 0-1-.446-1-1v-7c0-.554.446-1 1-1h14c.554 0 1 .446 1 1v4h.5c.17454 0 .343.03082.5.08789v-4.0879c0-1.108-.892-2-2-2h-2v-2.3555c0-.90192-.74261-1.6445-1.6445-1.6445zm0 1h6.7109c.36148 0 .64453.28305.64453.64453v2.3555h-8v-2.3555c0-.36148.28305-.64453.64453-.64453zm-2.1445 4.5c-.55228 0-1 .44772-1 1 0 .55228.44772 1 1 1s1-.44772 1-1c0-.55228-.44772-1-1-1z" opacity=".7"/>
  <path class="ColorScheme-Text" d="m5.2422 13c-.13376 0-.24219.10843-.24219.24219v3.7578h1v-1.5c0-.27614.22386-.5.5-.5h7.3848c.57117-.82456 1.4202-1.4495 2.4258-1.7324v-.002h.002c.12397-.03514.25101-.05413.37891-.05664.002-6e-6.0039-6e-6.0059 0 .30315-.0041.58077.11105.82422.26953.08382-.17642.31133-.37718.47843-.47847-4.5763-.002444-8.175 0-12.758 0z" opacity=".2"/>
  <path class="ColorScheme-Text" d="m18 14v2.5c0 .27614.22386.5.5.5s.5-.22386.5-.5v-1.5h1.5c.27614 0 .5-.22386.5-.5s-.22386-.5-.5-.5zm-1.2891.20898c-.04364.000857-.08698.0074-.12891.01953-1.3397.37607-2.3167 1.5359-2.4609 2.9199-.14427 1.384.57329 2.719 1.8066 3.3633 1.2333.6443 2.7374.46953 3.791-.43945 1.0536-.90898 1.4468-2.373.99023-3.6875-.09047-.26117-.37567-.3994-.63672-.30859-.26039.09127-.39762.37623-.30664.63672.32306.93006.04625 1.9604-.69922 2.6035-.74547.64316-1.8031.76447-2.6758.30859s-1.3775-1.3938-1.2754-2.373c.10208-.97926.7884-1.7945 1.7363-2.0605.26676-.07401.42262-.35069.34766-.61719-.0611-.21839-.26153-.36831-.48828-.36524z"/>
 </g>
</svg>
