<svg version="1.1" viewBox="0 0 22 22" xmlns="http://www.w3.org/2000/svg">
 <defs>
  <style id="current-color-scheme" type="text/css">.ColorScheme-Text {
          color:#232629;
        }</style>
 </defs>
 <path id="smartphone" class="ColorScheme-Text" d="m7.6445 3c-.90192 0-1.6445.74261-1.6445 1.6445v2.3555h-2c-1.108 0-2 .892-2 2v7c0 1.108.892 2 2 2h2v.35547c0 .90192.74261 1.6445 1.6445 1.6445h6.7109c.90192 0 1.6445-.74261 1.6445-1.6445v-.35547h2c1.108 0 2-.892 2-2v-7c0-1.108-.892-2-2-2h-2v-2.3555c0-.90192-.74261-1.6445-1.6445-1.6445zm0 1h6.7109c.36148 0 .64453.28305.64453.64453v2.3555h-8v-2.3555c0-.36148.28305-.64453.64453-.64453zm-3.6445 4h14c.554 0 1 .446 1 1v7c0 .554-.446 1-1 1v-3.7578c0-.67988-.56231-1.2422-1.2422-1.2422h-11.516c-.67988 0-1.2422.56231-1.2422 1.2422v3.7578c-.554 0-1-.446-1-1v-7c0-.554.446-1 1-1zm1.5.5c-.55228 0-1 .44772-1 1 0 .55228.44772 1 1 1s1-.44772 1-1c0-.55228-.44772-1-1-1zm-.25781 4.5h11.516c.13944 0 .24219.10274.24219.24219v3.7578h-1v-1.5c0-.27641-.22536-.5-.5-.5h-9c-.27465 0-.5.22275-.5.5v1.5h-1v-3.7578c0-.13944.10275-.24219.24219-.24219zm1.7578 3h8v2.3555c0 .36148-.28305.64453-.64453.64453h-6.7109c-.36148 0-.64453-.28305-.64453-.64453v-1.3555z" fill="currentColor"/>
 <path class="ColorScheme-Text" d="m5 17v-3.7578c-3e-7-.13376.10843-.24219.24219-.24219h11.516c.13376 0 .24219.10843.24219.24219v3.7578h-1v-1.5c0-.27614-.22386-.5-.5-.5h-9c-.27614 0-.5.22386-.5.5v1.5z" fill="currentColor" opacity=".2"/>
</svg>
