<?xml version="1.0" encoding="UTF-8"?>
<svg xmlns="http://www.w3.org/2000/svg" width="22" height="22" version="1.1" xml:space="preserve">
  <defs>
    <style id="current-color-scheme" type="text/css">.ColorScheme-Text { color:#232629; }</style>
  </defs>
  <path class="ColorScheme-Text" d="m6.0039 0.99414c-2.4738 0-4.4902 2.0164-4.4902 4.4902v0.19922c-0.00473 1.2856 0.57551 2.5051 1.5762 3.3125a0.50005 0.50005 0 0 0 0.0019531 0.0019531c0.58334 0.46665 0.92188 1.171 0.92188 1.918v0.8418c0 0.67783 0.56044 1.2363 1.2383 1.2363h1.0859l0.90625-0.90625c-0.14498-0.060301-0.30335-0.09375-0.46875-0.09375h-1.5234c-0.1374 0-0.23828-0.09894-0.23828-0.23633v-0.8418c0-1.0495-0.47765-2.0413-1.2969-2.6973v-0.0019531c-0.76454-0.61746-1.2072-1.5485-1.2031-2.5312a0.50005 0.50005 0 0 0 0-0.0019531v-0.19922c0-1.9334 1.5569-3.4902 3.4902-3.4902h0.019531c1.9334-9e-7 3.4902 1.5569 3.4902 3.4902v0.19922c0 0.99307-0.45108 1.9323-1.2266 2.5527a0.50005 0.50005 0 0 0-0.0019532 0.0019531c-0.80884 0.65413-1.277 1.6413-1.2715 2.6816v0.17578a0.5 0.5 0 0 0 0.5 0.5 0.5 0.5 0 0 0 0.5-0.5v-0.17969a0.50005 0.50005 0 0 0 0-0.001954c-0.003894-0.73633 0.32651-1.4329 0.89844-1.8965l0.0019531-0.0019531c1.0108-0.80977 1.5996-2.0368 1.5996-3.332v-0.19922c0-2.4738-2.0164-4.4902-4.4902-4.4902h-0.019531zm6.625 0.2832c-0.43762-0.00938-0.67522 0.50826-0.38281 0.83398 0.82789 0.91753 1.4483 1.9891 1.832 3.1426l0.69531-0.69531c-0.27788-0.64475-0.62134-1.2651-1.0117-1.8574 0.70056 0.22282 1.3637 0.5234 1.9766 0.89258l0.8125-0.8125c-1.1353-0.74778-2.4392-1.2702-3.8535-1.498-0.02263-0.00352-0.04547-0.0054737-0.06836-0.0058593zm4.7363 2.1035-0.78711 0.78711c2.0881 1.6002 3.4219 4.0654 3.4219 6.8633-3e-4 4.906-3.9669 8.8727-8.873 8.873-2.5116 1e-4 -4.9052-1.0632-6.5879-2.9277-0.18465-0.20455-0.49998-0.22115-0.70508-0.037109-0.20583 0.18483-0.22246 0.50167-0.037109 0.70703 1.872 2.0742 4.536 3.2579 7.3301 3.2578 5.4465-3e-4 9.8727-4.4265 9.873-9.873 1.26e-4 -3.0543-1.401-5.8258-3.6348-7.6504zm-2.2109 2.2109-0.7832 0.7832c0.10617 0.5505 0.16017 1.1137 0.16016 1.6816 6e-4 4.4645-3.2882 8.1499-7.5723 8.7793-0.2736 0.04019-0.46262 0.29484-0.42188 0.56836 0.04019 0.27361 0.29484 0.46262 0.56836 0.42188 4.7676-0.7003 8.4264-4.8132 8.4258-9.7695 4.4e-5 -0.84885-0.13548-1.6728-0.37695-2.4648zm-7.2168 7.2168-0.92383 0.92383v0.48047c0 0.4376-0.34368 0.78125-0.78125 0.78125h-0.4375c-0.014086 0-0.027133-0.00125-0.041016-0.001953l-0.79297 0.79297c0.24927 0.13342 0.53348 0.20898 0.83398 0.20898h0.4375c0.97801 0 1.7812-0.80321 1.7812-1.7812v-0.98047c0-0.14852-0.02702-0.29124-0.076172-0.42383zm-3.4238 0.58594a0.5 0.5 0 0 0-0.5 0.5v0.31836c0 0.31678 0.085242 0.6143 0.23242 0.87305l0.77344-0.77344c-0.0039702-0.032502-0.0058593-0.065877-0.0058593-0.099609v-0.31836a0.5 0.5 0 0 0-0.5-0.5z" fill="currentColor" opacity=".4"/>
  <g transform="translate(.29462 .2059)">
    <path class="ColorScheme-Text" d="m18.332 2.0095c-0.08489 0.022497-0.16236 0.066958-0.22461 0.12891l-16 16c-0.19521 0.19525-0.19521 0.51178 0 0.70703 0.19525 0.19521 0.51178 0.19521 0.70703 0l16-16c0.19521-0.19525 0.19521-0.51178 0-0.70703-0.1263-0.12594-0.31013-0.17506-0.48242-0.12891z" fill="currentColor"/>
  </g>
</svg>
