<?xml version="1.0" encoding="UTF-8"?>
<svg xmlns="http://www.w3.org/2000/svg" width="22" height="22" version="1.1" xml:space="preserve">
  <defs>
    <style id="current-color-scheme" type="text/css">.ColorScheme-Text { color:#232629; }</style>
  </defs>
  <path class="ColorScheme-Text" d="m14.5 13.895v0.31844c0 0.70779 0.57378 1.2816 1.2816 1.2816h0.43687c0.70779 0 1.2816-0.57378 1.2816-1.2816v-0.98038c0-0.40762-0.33044-0.73805-0.73805-0.73805h-1.5239c-0.40762 1e-6 -0.73805-0.33044-0.73805-0.73805v-0.84036c0-0.89852-0.40844-1.7483-1.1101-2.3096-0.88323-0.71261-1.3946-1.7881-1.3899-2.9229v-0.19904c0-2.2036 1.7864-3.99 3.99-3.99h0.02001c2.2036-1.4e-6 3.99 1.7864 3.99 3.99v0.19904c0 1.1446-0.52031 2.2272-1.4141 2.9423-0.69104 0.55886-1.0906 1.4015-1.0859 2.2903v0.17842" fill="none" stroke="currentColor" stroke-linecap="round" stroke-linejoin="round" style="paint-order:fill markers stroke"/>
  <g transform="translate(-.14062 .068359)" fill="currentColor" class="ColorScheme-Text">
    <path class="ColorScheme-Text" d="m8.2363 1.1348c-0.047689 0.00158-0.095873 0.0080658-0.14062 0.021484-0.29246 0.086113-0.45787 0.39123-0.37109 0.68359l0.72266 2.293c0.078902 0.26797 0.35925 0.42126 0.62695 0.3418 0.26783-0.078861 0.42124-0.36125 0.3418-0.62891l-0.63281-2.3184c-0.070205-0.239-0.29567-0.39848-0.54492-0.39258h-0.0019532zm-4.2891 2.6191c-0.14581 0.00366-0.28216 0.066045-0.38281 0.17188-0.20973 0.22052-0.20472 0.56964 0.015625 0.7793l1.7754 1.6211c0.20202 0.19214 0.52277 0.18624 0.71484-0.015625 0.19214-0.20202 0.18444-0.52067-0.017578-0.71289l-1.7109-1.6914c-0.10576-0.10064-0.24863-0.15596-0.39453-0.15234zm6.1563 1.9316c-0.038883 5.24e-4 -0.080002 0.0047882-0.12305 0.013672-0.97616 0.18633-1.9121 0.64382-2.6855 1.373-1.8944 1.7861-2.211 4.6371-0.88281 6.7754 0.1357 0.21848 0.28569 0.42445 0.44922 0.61914 0.046386 0.05529 0.093608 0.1102 0.14258 0.16406 0.0034286 0.003762 0.0063268 0.007966 0.0097656 0.011719 0.011826 0.012279 0.024378 0.024317 0.037109 0.035156 1.2583 1.347 3.1722 2.0182 5.0957 1.5996 0.27359-0.059056 0.44905-0.32842 0.38867-0.60156-0.060743-0.27079-0.32838-0.44181-0.59961-0.38281-1.6328 0.35532-3.2465-0.24798-4.2637-1.4336-0.024818-0.028863-0.048325-0.058566-0.072266-0.08789-0.12973-0.15946-0.25211-0.32538-0.35938-0.50391l-0.0019531 0.001953c-1.0513-1.7368-0.7816-4.0189 0.75195-5.4648 0.61869-0.58333 1.3617-0.95208 2.1367-1.1094 0.66536-0.13857 0.5598-1.0176-0.023437-1.0098zm-8.5605 2.4844c-0.24982 0.0056-0.46107 0.17854-0.51953 0.42188-0.072073 0.29628 0.10801 0.59658 0.4043 0.66797l2.3457 0.51758c0.27125 0.065984 0.54791-0.10172 0.61328-0.37305 0.065994-0.27129-0.10158-0.54592-0.37305-0.61133l-2.3262-0.60938c-0.046464-0.011424-0.096698-0.01462-0.14453-0.013672zm2.4316 4.3926c-0.042741 0.0015-0.086977 0.009005-0.12891 0.021485l-2.3203 0.63476c-0.2923 0.08607-0.45786 0.39323-0.37109 0.68555 0.086113 0.29246 0.39318 0.45787 0.68555 0.37109l2.293-0.72266c0.26797-0.0789 0.42126-0.35925 0.3418-0.62695-0.064347-0.21906-0.27006-0.36866-0.49805-0.36328h-0.0019531zm1.9766 3.2285c-0.1297 0.003152-0.25928 0.055053-0.35547 0.15625l-1.6914 1.7109c-0.033126 0.034528-0.060889 0.075289-0.083984 0.11719-0.12006 0.21915-0.07604 0.48981 0.10547 0.66211 0.22055 0.21056 0.57128 0.20528 0.78125-0.015625l1.6211-1.7734c0.19277-0.20192 0.18667-0.52452-0.015625-0.7168-0.10097-0.096399-0.23163-0.14378-0.36133-0.14062zm7.1016 1.7168c-0.04448 0.0014-0.086513 0.005498-0.12695 0.017578-0.26783 0.07887-0.42124 0.36124-0.3418 0.62891l0.63281 2.3203c0.08608 0.29231 0.39518 0.45786 0.6875 0.37109 0.29246-0.08612 0.45787-0.39123 0.37109-0.68359l-0.72266-2.2949c-0.06432-0.21896-0.26969-0.36478-0.49805-0.35938h-0.001954zm-3.7812 0.091797c-0.22888 0.0051-0.425 0.16397-0.47852 0.38672l-0.60742 2.3262c-0.072081 0.29632 0.10981 0.59459 0.40625 0.66602 0.29628 0.07208 0.59463-0.10997 0.66602-0.40625l0.51953-2.3457c0.065984-0.27126-0.10172-0.54791-0.37305-0.61328-0.04259-0.01046-0.089-0.014552-0.13281-0.013672z"/>
  </g>
</svg>
