<?xml version="1.0" encoding="UTF-8" standalone="no"?>
<svg
   viewBox="0 0 22 22"
   version="1.1"
   id="svg4"
   xml:space="preserve"
   xmlns="http://www.w3.org/2000/svg"
   xmlns:svg="http://www.w3.org/2000/svg">
    <defs
   id="defs1">
    <style
   type="text/css"
   id="current-color-scheme">
            .ColorScheme-Text {
                color:#232629;
            }
        </style>
  <style
   type="text/css"
   id="current-color-scheme-9">
            .ColorScheme-Text {
                color:#232629;
            }
        </style><style
   type="text/css"
   id="current-color-scheme-6">
      .ColorScheme-Text {
        color:#232629;
      }
      </style></defs>
    <path
   id="path1"
   style="fill:currentColor"
   class="ColorScheme-Text"
   d="m 13.755859,2.2617188 c -0.178839,-2.079e-4 -0.344173,0.09512 -0.433593,0.25 -0.138371,0.2394273 -0.05611,0.5457068 0.183593,0.6835937 2.78912,1.6102973 4.50586,4.5840934 4.50586,7.8046875 0,0.101296 -0.0064,0.201961 -0.0098,0.302734 0.110669,0.123241 0.208553,0.262809 0.287109,0.419922 l 0.550782,1.101563 C 18.950372,12.228076 19.011719,11.618706 19.011719,11 c 0,-3.5762531 -1.908733,-6.8837482 -5.00586,-8.671875 -0.07607,-0.043681 -0.162284,-0.066583 -0.25,-0.066406 z M 11.185547,4.125 c -0.256852,-0.016299 -0.532919,0.077557 -0.722656,0.2910156 L 7.4511719,7.8007812 C 7.3387843,7.9272174 7.1789316,8 7.0097656,8 H 6.9902344 C 6.4493663,8 6,8.4493663 6,8.9902344 V 13.009766 C 6.0000002,13.550632 6.4493664,14 6.9902344,14 h 0.019531 c 0.169166,0 0.3290187,0.07278 0.4414063,0.199219 l 3.0117191,3.384765 c 0.252984,0.284612 0.658099,0.356391 0.96875,0.238282 0.138966,-0.05284 0.265786,-0.147781 0.365234,-0.269532 l 0.177734,-0.353515 C 11.990103,17.135282 12,17.068517 12,17 V 5 C 12,4.6192033 11.742287,4.2958432 11.431641,4.1777344 11.353978,4.1482071 11.271164,4.1304328 11.185547,4.125 Z M 11,5.3144531 V 16.685547 L 8.1992188,13.533203 C 7.8974302,13.193689 7.464018,13 7.0097656,13 H 7 V 9 h 0.00977 C 7.4640091,9 7.8974301,8.8063089 8.1992188,8.4667969 Z m 2.595703,0.5898438 c -0.1326,2e-5 -0.259764,0.052712 -0.353515,0.1464843 -0.195213,0.195253 -0.195213,0.5117784 0,0.7070313 C 14.367535,7.8831626 15,9.4085147 15,11 c 0,0.104072 -0.0044,0.207134 -0.0098,0.310547 0.272955,-0.307551 0.630511,-0.509224 1.003907,-0.605469 C 15.920456,8.955855 15.19224,7.2938043 13.949219,6.0507812 13.855466,5.9570083 13.728304,5.9043166 13.595703,5.9042969 Z M 3.5,8 C 2.677066,8 2,8.677066 2,9.5 v 3 c 3e-7,0.822933 0.6770662,1.5 1.5,1.5 H 4 c 0.5468293,0 0.9999997,-0.453173 1,-1 V 9.015625 C 5,8.4610925 4.5389075,8 3.984375,8 Z m 0,1 H 3.984375 C 3.9984704,9 4,9.0015296 4,9.015625 V 13 H 3.5 C 3.2175037,13 3.0000001,12.782498 3,12.5 v -3 C 3,9.2175036 3.2175036,9 3.5,9 Z" />
    <path
   id="path9"
   style="opacity:0.4;fill:currentColor"
   class="ColorScheme-Text"
   d="M 11 5.3144531 L 8.1992188 8.4667969 C 7.8974301 8.8063089 7.4640091 9 7.0097656 9 L 7 9 L 7 13 L 7.0097656 13 C 7.464018 13 7.8974302 13.193689 8.1992188 13.533203 L 11 16.685547 L 11 5.3144531 z M 3.5 9 C 3.2175036 9 3 9.2175036 3 9.5 L 3 12.5 C 3 12.782498 3.2175037 13 3.5 13 L 4 13 L 4 9.015625 C 4 9.0015296 3.9984704 9 3.984375 9 L 3.5 9 z M 16.5 11.638672 C 16.1414 11.638672 15.782693 11.815474 15.605469 12.169922 L 12.5 18.382812 C 12.137658 19.107499 12.68978 20 13.5 20 L 19.5 20 C 20.310221 20 20.862343 19.107499 20.5 18.382812 L 17.394531 12.169922 C 17.217307 11.815474 16.858601 11.638672 16.5 11.638672 z M 16.5 12.617188 L 19.605469 18.830078 C 19.654056 18.927254 19.608645 19 19.5 19 L 13.5 19 C 13.391355 19 13.345944 18.92725 13.394531 18.830078 L 16.5 12.617188 z M 16.462891 14 C 16.204703 14.013 16 14.224798 16 14.486328 L 16 15.513672 C 16 15.783638 16.216362 16 16.486328 16 L 16.513672 16 C 16.783642 16 17 15.783638 17 15.513672 L 17 14.486328 C 17.000003 14.216362 16.783638 14 16.513672 14 L 16.486328 14 C 16.477928 14 16.471221 13.999581 16.462891 14 z M 16.462891 17 C 16.204703 17.013 16 17.224798 16 17.486328 L 16 17.513672 C 16 17.783642 16.216362 18 16.486328 18 L 16.513672 18 C 16.783642 18 17 17.783638 17 17.513672 L 17 17.486328 C 17.000003 17.216358 16.783638 17 16.513672 17 L 16.486328 17 C 16.477928 17 16.471221 16.999581 16.462891 17 z " />
    <g
   id="g2"
   transform="translate(0.025391)"><g
     id="g1"
     transform="translate(-0.0253906)" /></g></svg>
