<?xml version="1.0" encoding="UTF-8" standalone="no"?>
<svg
   viewBox="0 0 22 22"
   version="1.1"
   id="svg4"
   xml:space="preserve"
   xmlns="http://www.w3.org/2000/svg"
   xmlns:svg="http://www.w3.org/2000/svg">
    <defs
   id="defs1">
    <style
   type="text/css"
   id="current-color-scheme">
            .ColorScheme-Text {
                color:#232629;
            }
        </style>
  <style
   type="text/css"
   id="current-color-scheme-9">
            .ColorScheme-Text {
                color:#232629;
            }
        </style><style
   type="text/css"
   id="current-color-scheme-6">
      .ColorScheme-Text {
        color:#232629;
      }
      </style></defs>
    <path
   id="path1"
   style="fill:currentColor"
   class="ColorScheme-Text"
   d="m 13.755859,2.2617188 c -0.178839,-2.079e-4 -0.344173,0.09512 -0.433593,0.25 -0.138371,0.2394273 -0.05611,0.5457068 0.183593,0.6835937 2.78912,1.6102973 4.50586,4.5840934 4.50586,7.8046875 0,0.101296 -0.0064,0.201961 -0.0098,0.302734 0.110669,0.123241 0.208553,0.262809 0.287109,0.419922 l 0.550782,1.101563 C 18.950372,12.228076 19.011719,11.618706 19.011719,11 c 0,-3.5762531 -1.908733,-6.8837482 -5.00586,-8.671875 -0.07607,-0.043681 -0.162284,-0.066583 -0.25,-0.066406 z M 11.185547,4.125 c -0.256852,-0.016299 -0.532919,0.077557 -0.722656,0.2910156 L 7.4511719,7.8007812 C 7.3387843,7.9272174 7.1789316,8 7.0097656,8 H 6.9902344 C 6.4493663,8 6,8.4493663 6,8.9902344 V 13.009766 C 6.0000002,13.550632 6.4493664,14 6.9902344,14 h 0.019531 c 0.169166,0 0.3290187,0.07278 0.4414063,0.199219 l 3.0117191,3.384765 c 0.252984,0.284612 0.658099,0.356391 0.96875,0.238282 0.138966,-0.05284 0.265786,-0.147781 0.365234,-0.269532 l 0.177734,-0.353515 C 11.990103,17.135282 12,17.068517 12,17 V 5 C 12,4.6192033 11.742287,4.2958432 11.431641,4.1777344 11.353978,4.1482071 11.271164,4.1304328 11.185547,4.125 Z M 11,5.3144531 V 16.685547 L 8.1992188,13.533203 C 7.8974302,13.193689 7.464018,13 7.0097656,13 H 7 V 9 h 0.00977 C 7.4640091,9 7.8974301,8.8063089 8.1992188,8.4667969 Z m 2.595703,0.5898438 c -0.1326,2e-5 -0.259764,0.052712 -0.353515,0.1464843 -0.195213,0.195253 -0.195213,0.5117784 0,0.7070313 C 14.367535,7.8831626 15,9.4085147 15,11 c 0,0.104072 -0.0044,0.207134 -0.0098,0.310547 0.272955,-0.307551 0.630511,-0.509224 1.003907,-0.605469 C 15.920456,8.955855 15.19224,7.2938043 13.949219,6.0507812 13.855466,5.9570083 13.728304,5.9043166 13.595703,5.9042969 Z M 3.5,8 C 2.677066,8 2,8.677066 2,9.5 v 3 c 3e-7,0.822933 0.6770662,1.5 1.5,1.5 H 4 c 0.5468293,0 0.9999997,-0.453173 1,-1 V 9.015625 C 5,8.4610925 4.5389075,8 3.984375,8 Z m 0,1 H 3.984375 C 3.9984704,9 4,9.0015296 4,9.015625 V 13 H 3.5 C 3.2175037,13 3.0000001,12.782498 3,12.5 v -3 C 3,9.2175036 3.2175036,9 3.5,9 Z" />
    <path
   id="path9"
   style="opacity:0.4;fill:currentColor"
   class="ColorScheme-Text"
   d="M 11,5.3144531 V 16.685547 L 8.1992188,13.533203 C 7.8974299,13.193689 7.4640184,13 7.0097656,13 H 7 V 9 H 7.00977 C 7.4640139,9 7.8974298,8.8063093 8.1992188,8.4667969 Z M 3.5,9 H 3.984375 C 3.9984704,9 4,9.0015296 4,9.015625 V 13 H 3.5 C 3.2175034,13 3,12.782498 3,12.5 v -3 C 3,9.2175033 3.2175033,9 3.5,9 Z" />
    <g
   id="g2"
   transform="translate(0.025391)"><path
     id="path1-1"
     style="fill:currentColor"
     class="ColorScheme-Text"
     d="m 16.474609,11.638672 c -0.3586,0 -0.717307,0.176802 -0.894531,0.53125 l -3.105469,6.21289 C 12.112267,19.107499 12.664388,20 13.474609,20 h 6 c 0.810222,0 1.362343,-0.892501 1,-1.617188 l -3.105468,-6.21289 c -0.177224,-0.354448 -0.535931,-0.53125 -0.894532,-0.53125 z m 0,0.978516 3.105469,6.21289 C 19.628665,18.927254 19.583254,19 19.474609,19 h -6 c -0.108645,0 -0.154055,-0.07275 -0.105468,-0.169922 z M 16.4375,14 c -0.258188,0.013 -0.462891,0.224798 -0.462891,0.486328 v 1.027344 C 15.974609,15.783638 16.190972,16 16.460938,16 h 0.02734 c 0.26997,0 0.486328,-0.216362 0.486328,-0.486328 V 14.486328 C 16.974609,14.216362 16.758247,14 16.488281,14 h -0.02734 c -0.0084,0 -0.01511,-4.19e-4 -0.02344,0 z m 0,3 c -0.258188,0.013 -0.462891,0.224798 -0.462891,0.486328 v 0.02734 c 0,0.26997 0.216363,0.486328 0.486329,0.486328 h 0.02734 c 0.26997,0 0.486328,-0.216362 0.486328,-0.486328 v -0.02734 C 16.974609,17.216358 16.758247,17 16.488281,17 h -0.02734 c -0.0084,0 -0.01511,-4.19e-4 -0.02344,0 z" /><g
     id="g1"
     transform="translate(-0.0253906)" /></g></svg>
