<?xml version="1.0" encoding="UTF-8" standalone="no"?>
<svg
   viewBox="0 0 22 22"
   version="1.1"
   id="svg4"
   xml:space="preserve"
   xmlns="http://www.w3.org/2000/svg"
   xmlns:svg="http://www.w3.org/2000/svg">
    <defs
   id="defs1">
    <style
   type="text/css"
   id="current-color-scheme">
            .ColorScheme-Text {
                color:#232629;
            }
        </style>
  </defs>
    <path
   id="path1"
   style="fill:currentColor"
   class="ColorScheme-Text"
   d="m 14.755859,2.2617188 c -0.17884,-2.079e-4 -0.344173,0.09512 -0.433593,0.25 -0.138371,0.2394276 -0.05611,0.5457067 0.183593,0.6835937 2.789122,1.6102989 4.50586,4.5840902 4.50586,7.8046875 0,3.220598 -1.716738,6.194388 -4.50586,7.804688 -0.239706,0.137887 -0.321964,0.444166 -0.183593,0.683593 0.137887,0.239707 0.444165,0.321965 0.683593,0.183594 3.09713,-1.788128 5.00586,-5.095619 5.00586,-8.671875 0,-3.5762567 -1.90873,-6.8837464 -5.00586,-8.671875 -0.07607,-0.043681 -0.162284,-0.066583 -0.25,-0.066406 z M 12.185547,4.125 C 11.928695,4.1087015 11.652629,4.202557 11.462891,4.4160156 L 8.4511719,7.8007812 C 8.3387842,7.9272175 8.1789317,8 8.0097656,8 H 7.9902344 C 7.4493658,8 7,8.4493658 7,8.9902344 V 13.009766 C 7.0000002,13.550633 7.4493659,14 7.9902344,14 h 0.019531 c 0.1691661,0 0.3290186,0.07278 0.4414063,0.199219 l 3.0117191,3.384765 c 0.252985,0.284612 0.658099,0.356391 0.96875,0.238282 C 12.742289,17.704156 13,17.380798 13,17 V 5 C 13,4.6192029 12.742288,4.2958433 12.431641,4.1777344 12.353978,4.1482071 12.271164,4.1304328 12.185547,4.125 Z M 12,5.3144531 V 16.685547 L 9.1992188,13.533203 C 8.8974299,13.193689 8.4640184,13 8.0097656,13 H 8 V 9 h 0.00977 C 8.4640139,9 8.8974298,8.8063093 9.1992188,8.4667969 Z m 2.595703,0.5898438 c -0.1326,2e-5 -0.259763,0.052712 -0.353515,0.1464843 -0.195213,0.1952531 -0.195213,0.5117782 0,0.7070313 C 15.367537,7.8831637 16,9.4085131 16,11 c 0,1.591486 -0.632463,3.116836 -1.757812,4.242188 -0.195213,0.195253 -0.195213,0.511778 0,0.707031 0.195253,0.195213 0.511778,0.195213 0.707031,0 C 16.261832,14.636604 17,12.856317 17,11 17,9.1436828 16.261832,7.3633958 14.949219,6.0507812 14.855466,5.9570082 14.728304,5.9043166 14.595703,5.9042969 Z M 4.5,8 C 3.6770652,8 3,8.6770652 3,9.5 v 3 c 3e-7,0.822934 0.6770654,1.5 1.5,1.5 H 5 c 0.5468298,0 0.9999997,-0.453172 1,-1 V 9.015625 C 6,8.4610919 5.5389081,8 4.984375,8 Z m 0,1 H 4.984375 C 4.9984704,9 5,9.0015296 5,9.015625 V 13 H 4.5 C 4.2175034,13 4.0000001,12.782498 4,12.5 v -3 C 4,9.2175033 4.2175033,9 4.5,9 Z" />
    <path
   id="path9"
   style="fill:currentColor;opacity:0.4"
   class="ColorScheme-Text"
   d="M 12,5.3144531 V 16.685547 L 9.1992188,13.533203 C 8.8974299,13.193689 8.4640184,13 8.0097656,13 H 8 V 9 H 8.00977 C 8.4640139,9 8.8974298,8.8063093 9.1992188,8.4667969 Z M 4.5,9 H 4.984375 C 4.9984704,9 5,9.0015296 5,9.015625 V 13 H 4.5 C 4.2175034,13 4.0000001,12.782498 4,12.5 v -3 C 4,9.2175033 4.2175033,9 4.5,9 Z" />
    </svg>
