<?xml version="1.0" encoding="UTF-8"?>
<svg width="22" height="22" version="1.1" xmlns="http://www.w3.org/2000/svg">
 <defs>
  <style id="current-color-scheme" type="text/css">.ColorScheme-Text {
                color:#232629;
            }</style>
 </defs>
 <g class="ColorScheme-Text" fill="none" stroke="currentColor" stroke-linecap="round" stroke-linejoin="round" stroke-width="1.2">
  <path transform="rotate(29.999)" d="m18.35 6.886a1.5 1.5 0 0 1-0.61553 1.6354 1.5 1.5 0 0 1-1.7465-0.057174 1.5 1.5 0 0 1-0.50725-1.6722 1.5 1.5 0 0 1 1.4204-1.0178" color="#232629"/>
  <path d="m14.1 9.3805-2.35 4.0705" color="#232629"/>
 </g>
 <path class="ColorScheme-Text" d="m3.6276 18.08a9 9 0 0 1 1.3892-11.885 9 9 0 0 1 11.966-1e-7 9 9 0 0 1 1.3892 11.885" fill="none" stroke="currentColor" stroke-linecap="round" stroke-linejoin="round" stroke-width="1.2"/>
</svg>
