<?xml version="1.0" encoding="UTF-8" standalone="no"?>
<!-- Created with Inkscape (http://www.inkscape.org/) -->

<svg
   width="22"
   height="22"
   viewBox="0 0 22 22"
   version="1.1"
   id="svg1"
   inkscape:version="1.4.3 (0d15f75042, 2025-12-25)"
   sodipodi:docname="system-suspend-uninhibited-symbolic.svg"
   xmlns:inkscape="http://www.inkscape.org/namespaces/inkscape"
   xmlns:sodipodi="http://sodipodi.sourceforge.net/DTD/sodipodi-0.dtd"
   xmlns="http://www.w3.org/2000/svg"
   xmlns:svg="http://www.w3.org/2000/svg">
  <sodipodi:namedview
     id="namedview1"
     pagecolor="#8b8b8b"
     bordercolor="#000000"
     borderopacity="0.25"
     inkscape:showpageshadow="2"
     inkscape:pageopacity="0.0"
     inkscape:pagecheckerboard="0"
     inkscape:deskcolor="#d1d1d1"
     inkscape:document-units="px"
     showgrid="true"
     inkscape:zoom="21.250387"
     inkscape:cx="8.9645427"
     inkscape:cy="9.6233543"
     inkscape:window-width="1366"
     inkscape:window-height="706"
     inkscape:window-x="0"
     inkscape:window-y="0"
     inkscape:window-maximized="1"
     inkscape:current-layer="g9">
    <inkscape:grid
       id="grid1"
       units="px"
       originx="0"
       originy="0"
       spacingx="1"
       spacingy="1"
       empcolor="#0099e5"
       empopacity="0.30196078"
       color="#0099e5"
       opacity="0.14902"
       empspacing="1"
       enabled="true"
       visible="true" />
  </sodipodi:namedview>
  <defs
     id="defs1">
    <style
       id="current-color-scheme">            .ColorScheme-Text
            {
                color:#232629;
            }</style>
  </defs>
  <g
     inkscape:label="Layer 1"
     inkscape:groupmode="layer"
     id="layer1"
     transform="translate(0,1)">
    <g
       id="g9"
       style="fill:currentColor"
       class="ColorScheme-Text">
      <path
         style="baseline-shift:baseline;display:inline;overflow:visible;opacity:0.4;vector-effect:none;stroke:none;paint-order:fill markers stroke;enable-background:accumulate;stop-color:#000000;stop-opacity:1"
         d="m 4.6914062,7 v 0.5 c 0,3.596559 0.6569268,5.923841 1.3378907,7.365234 0.3404819,0.720697 0.6865838,1.219806 0.9550781,1.542969 0.2684943,0.323163 0.4902344,0.492188 0.4902344,0.492188 L 7.6074219,17 h 6.7851561 l 0.132813,-0.09961 c 0,0 0.22174,-0.169025 0.490234,-0.492188 0.268494,-0.323163 0.614596,-0.822272 0.955078,-1.542969 C 16.651667,13.423841 17.308594,11.096559 17.308594,7.5 V 7 Z M 5.7363281,8 H 16.263672 c -0.06739,3.130759 -0.623009,5.221974 -1.197266,6.4375 -0.304897,0.645375 -0.604772,1.072605 -0.820312,1.332031 C 14.095478,15.950815 14.067251,15.962559 14.023438,16 H 7.9765625 C 7.9327488,15.962559 7.9045224,15.950815 7.7539062,15.769531 7.5383661,15.510105 7.238491,15.082875 6.9335937,14.4375 6.3593373,13.221974 5.8037157,11.130759 5.7363281,8 Z"
         id="path1" />
      <path
         id="ellipse6"
         style="baseline-shift:baseline;display:inline;overflow:visible;opacity:0.4;vector-effect:none;stroke:none;stroke-opacity:1;paint-order:fill markers stroke;enable-background:accumulate;stop-color:#000000;stop-opacity:1"
         d="M 4.5273438,14.597656 C 3.6867167,14.784462 2.9964284,15.005137 2.4746094,15.279297 2.2136999,15.416377 1.9917507,15.565272 1.8144531,15.757812 1.6371555,15.950353 1.5,16.20993 1.5,16.5 c 0,0.29007 0.1371555,0.549647 0.3144531,0.742188 0.1772976,0.19254 0.3992468,0.341435 0.6601563,0.478515 0.521819,0.27416 1.2121073,0.494835 2.0527344,0.681641 C 6.208598,18.775956 8.4846942,19 11,19 c 2.515306,0 4.791402,-0.224044 6.472656,-0.597656 0.840627,-0.186806 1.530916,-0.407481 2.052735,-0.681641 0.260909,-0.13708 0.482858,-0.285975 0.660156,-0.478515 C 20.362844,17.049647 20.5,16.79007 20.5,16.5 c 0,-0.29007 -0.137156,-0.549647 -0.314453,-0.742188 -0.177298,-0.19254 -0.399247,-0.341435 -0.660156,-0.478515 -0.521819,-0.27416 -1.680464,-0.615179 -2.052735,-0.681641 -0.379145,-0.06769 -0.849957,-0.09766 -0.921875,0.347657 -0.07192,0.445312 0.223159,0.533479 0.705078,0.628906 0.788053,0.175123 1.415657,0.385451 1.804688,0.589843 0.194515,0.102198 0.326193,0.203635 0.388672,0.271485 0.03309,0.03594 0.04459,0.05579 0.04883,0.06445 -0.0042,0.0087 -0.01574,0.02852 -0.04883,0.06445 -0.06248,0.06785 -0.194157,0.169289 -0.388672,0.271485 -0.389031,0.204394 -1.016635,0.41472 -1.804688,0.589843 C 15.679753,17.77603 13.455257,18 11,18 8.5447431,18 6.3202458,17.776027 4.7441406,17.425781 3.9560881,17.250658 3.3284837,17.04033 2.9394531,16.835938 2.7449378,16.73374 2.6132598,16.632303 2.5507812,16.564453 2.517692,16.528519 2.506188,16.508661 2.5019531,16.5 2.5061831,16.4913 2.5176921,16.47148 2.5507811,16.43555 2.6132591,16.3677 2.7449377,16.266263 2.939453,16.164065 3.3284836,15.959673 3.956088,15.749345 4.7441405,15.574222 5.0493754,15.506392 5.6818396,15.358203 5.53125,14.873051 5.3806604,14.387899 4.8974775,14.5 4.5273438,14.597656 Z"
         sodipodi:nodetypes="csssssssssssssszssscsscssssccsszc" />
      <path
         style="baseline-shift:baseline;display:inline;overflow:visible;opacity:0.2;vector-effect:none;stroke:none;paint-order:fill markers stroke;enable-background:accumulate;stop-color:#000000;stop-opacity:1"
         d="m 10.087891,-0.5 v 1 c 0.904153,0 1.800131,0.27890763 2.296875,0.6015625 0.248371,0.1613274 0.379884,0.3319637 0.40625,0.4023437 0.02636,0.07038 0.05181,0.034125 -0.05664,0.1425782 -0.323223,0.3232233 -1.267578,0.6191406 -2.267578,0.8691406 -1,0.25 -2.0556453,0.4540827 -2.732422,1.1308594 C 7.60432,3.7765394 7.4953329,3.930076 7.4414062,4.1191406 7.3874796,4.3082053 7.408905,4.5257963 7.484375,4.6953125 c 0.15094,0.3390323 0.421193,0.5070134 0.7167969,0.6582031 0.5912077,0.3023796 1.4034884,0.5025323 2.2617191,0.6679688 1.71646,0.330873 3.585937,0.4765625 3.585937,0.4765625 l 0.07813,-0.9960938 c 0,0 -1.837517,-0.147317 -3.474609,-0.4628906 C 9.8337975,4.8812757 9.0574597,4.6700467 8.65625,4.4648437 8.5148955,4.3925465 8.5014948,4.3673892 8.4726563,4.3417969 8.8081737,4.0237769 9.7227275,3.7309392 10.708984,3.484375 c 1,-0.25 2.055646,-0.4540827 2.732422,-1.1308594 C 13.757872,2.0370502 13.872478,1.538589 13.728516,1.1542969 13.584553,0.77000471 13.287545,0.49416174 12.929688,0.26171875 12.213972,-0.20316723 11.183738,-0.5 10.087891,-0.5 Z"
         id="path9" />
      <path
         style="display:inline;opacity:1;stroke:currentColor;stroke-opacity:1;paint-order:fill markers stroke;stroke-linecap:round;stroke-linejoin:round"
         d="M 2,19 20,1"
         id="path12" />
    </g>
  </g>
</svg>
