<?xml version="1.0" encoding="UTF-8" standalone="no"?>
<svg
   version="1.1"
   viewBox="0 0 22 22"
   id="svg1"
   sodipodi:docname="tablet-symbolic.svg"
   inkscape:version="1.3.2 (091e20ef0f, 2023-11-25, custom)"
   xmlns:inkscape="http://www.inkscape.org/namespaces/inkscape"
   xmlns:sodipodi="http://sodipodi.sourceforge.net/DTD/sodipodi-0.dtd"
   xmlns="http://www.w3.org/2000/svg"
   xmlns:svg="http://www.w3.org/2000/svg">
  <sodipodi:namedview
     id="namedview1"
     pagecolor="#ffffff"
     bordercolor="#666666"
     borderopacity="1.0"
     inkscape:showpageshadow="2"
     inkscape:pageopacity="0.0"
     inkscape:pagecheckerboard="0"
     inkscape:deskcolor="#d1d1d1"
     showgrid="true"
     inkscape:zoom="7.7810959"
     inkscape:cx="11.952044"
     inkscape:cy="14.522376"
     inkscape:window-width="1354"
     inkscape:window-height="449"
     inkscape:window-x="52"
     inkscape:window-y="562"
     inkscape:window-maximized="0"
     inkscape:current-layer="svg1">
    <inkscape:grid
       id="grid1"
       units="px"
       originx="0"
       originy="0"
       spacingx="1"
       spacingy="1"
       empcolor="#0099e5"
       empopacity="0.30196078"
       color="#0099e5"
       opacity="0.14901961"
       empspacing="5"
       dotted="false"
       gridanglex="30"
       gridanglez="30"
       visible="true" />
  </sodipodi:namedview>
  <defs
     id="defs1">
    <style
       id="current-color-scheme"
       type="text/css">
        .ColorScheme-Text {
          color:#232629;
        }
      </style>
  </defs>
  <path
     id="smartphone"
     style="fill:currentColor"
     class="ColorScheme-Text"
     d="M 5 1 C 3.8920011 1 3 1.8920011 3 3 L 3 19 C 3 20.107999 3.8920011 21 5 21 L 17 21 C 18.107999 21 19 20.107999 19 19 L 19 3 C 19 1.8920011 18.107999 1 17 1 L 5 1 z M 5 2 L 17 2 C 17.553999 2 18 2.4460006 18 3 L 18 19 C 18 19.553999 17.553999 20 17 20 L 5 20 C 4.4460006 20 4 19.553999 4 19 L 4 3 C 4 2.4460006 4.4460006 2 5 2 z M 6.5 18 C 6.2230003 18 6 18.223 6 18.5 C 6 18.777 6.2230003 19 6.5 19 L 15.5 19 C 15.777 19 16 18.777 16 18.5 C 16 18.223 15.777 18 15.5 18 L 6.5 18 z " />
</svg>
