<svg width="22" height="22" version="1.1" viewBox="0 0 22 22" xmlns="http://www.w3.org/2000/svg">
 <defs>
  <style id="current-color-scheme" type="text/css">.ColorScheme-Text { color:#232629; }</style>
 </defs>
 <g stroke="currentColor">
  <path class="ColorScheme-Text symbolic-stroke" transform="translate(.5 -.5)" d="m6 9v-2a4 4 135 014-4h2a4 4 45 014 4v2z" style="fill:none;stroke-linecap:round;stroke-linejoin:round"/>
  <path class="ColorScheme-Text symbolic-stroke" transform="translate(.5 -.5)" d="m17 9v6.5439a5.4561 5.4561 135 01-5.4561 5.4561h-1.0879a5.4561 5.4561 45 01-5.4561-5.4561v-6.5439z" style="fill:none;stroke-linecap:round;stroke-linejoin:round"/>
  <path class="ColorScheme-Text symbolic-stroke" d="m11.5 8.5v5"/>
  <path class="ColorScheme-Text symbolic-stroke" transform="translate(1.5 .5)" d="m14 3a2.4915 2.4915 113.23 01.75227-1.7523l.24773-.24773" style="stroke-linecap:round;stroke-linejoin:round"/>
  <path class="ColorScheme-Text symbolic-stroke" transform="matrix(-1 0 0 1 21.5 .5)" d="m14 3a2.4915 2.4915 113.23 01.75227-1.7523l.24773-.24773" style="stroke-linecap:round;stroke-linejoin:round"/>
  <path class="ColorScheme-Text symbolic-stroke" d="m5.5 13.5h-3" style="stroke-linecap:round;stroke-linejoin:round"/>
  <path class="ColorScheme-Text symbolic-stroke" d="m20.5 13.5h-3" style="stroke-linecap:round"/>
  <path class="ColorScheme-Text symbolic-stroke" d="m5.5 17.5a3.3259 3.3259 147.33 00-2.9438 1.8877l-.056164.11233" style="fill:none;stroke-linecap:round;stroke-linejoin:round"/>
  <path class="ColorScheme-Text symbolic-stroke" transform="matrix(-1,0,0,1,23,0)" d="m5.5 17.5a3.3259 3.3259 147.33 00-2.9438 1.8877l-.056164.11233" style="fill:none;stroke-linecap:round;stroke-linejoin:round"/>
  <path class="ColorScheme-Text symbolic-stroke" transform="matrix(1,0,0,-1,0,27)" d="m5.5 17.5a3.3259 3.3259 147.33 00-2.9438 1.8877l-.056164.11233" style="fill:none;stroke-linecap:round;stroke-linejoin:round"/>
  <path class="ColorScheme-Text symbolic-stroke" transform="rotate(180,11.5,13.5)" d="m5.5 17.5a3.3259 3.3259 147.33 00-2.9438 1.8877l-.056164.11233" style="fill:none;stroke-linecap:round;stroke-linejoin:round"/>
 </g>
</svg>
