<?xml version="1.0" encoding="UTF-8" standalone="no"?>
<svg xmlns="http://www.w3.org/2000/svg" xmlns:svg="http://www.w3.org/2000/svg" version="1.1" viewBox="0 0 22 22" id="svg1" xml:space="preserve">
  <defs id="defs1">
    <style id="current-color-scheme" type="text/css">
        .ColorScheme-Text {
          color:#232629;
        }
      </style>
  </defs>
  <path style="fill:currentColor" class="ColorScheme-Text" d="M 11 1.0039062 C 10.656929 1.0039062 10.358793 1.0722476 10.146484 1.0898438 C 9.7507158 1.1269368 9.4229911 1.4156814 9.3398438 1.8046875 A 0.04526432 0.04526432 0 0 0 9.3398438 1.8066406 L 9.0898438 3.109375 C 8.9699507 3.136121 8.8444473 3.1488337 8.71875 3.1835938 L 7.8320312 2.2109375 L 7.8300781 2.2089844 C 7.5661052 1.8995032 7.1259683 1.800811 6.7558594 1.9707031 C 6.2450468 2.2107255 5.7705852 2.5027283 5.3046875 2.828125 C 4.9640915 3.0556172 4.8178564 3.4804255 4.9472656 3.8691406 L 5.3652344 5.1191406 C 5.2826433 5.1987807 5.1981619 5.2807905 5.1191406 5.3632812 L 3.8710938 4.9472656 C 3.482332 4.8179704 3.0556639 4.9639083 2.828125 5.3046875 C 2.5026276 5.7706265 2.2126386 6.2451504 1.9726562 6.7558594 C 1.8023833 7.126748 1.8996329 7.5681843 2.2109375 7.8320312 L 3.1835938 8.7207031 C 3.1494564 8.8457488 3.1362081 8.9706636 3.109375 9.0898438 L 1.8066406 9.3398438 A 0.04526432 0.04526432 0 0 0 1.8046875 9.3398438 C 1.4156349 9.4226626 1.126792 9.750708 1.0898438 10.146484 C 1.0722011 10.3588 1.0039063 10.656964 1.0039062 11 C 1.0039062 11.343035 1.0722006 11.641198 1.0898438 11.853516 C 1.1267528 12.249297 1.4156579 12.577062 1.8046875 12.660156 A 0.04526432 0.04526432 0 0 0 1.8066406 12.660156 L 3.109375 12.910156 C 3.136208 13.029331 3.1494596 13.154205 3.1835938 13.279297 L 2.2109375 14.167969 C 1.8996327 14.431816 1.8023836 14.873252 1.9726562 15.244141 C 2.2126371 15.754756 2.5026262 16.229372 2.828125 16.695312 C 3.055664 17.035998 3.4823259 17.18203 3.8710938 17.052734 L 5.1191406 16.636719 C 5.1981626 16.719209 5.2826436 16.80122 5.3652344 16.880859 L 4.9472656 18.130859 C 4.8178563 18.519573 4.964091 18.944383 5.3046875 19.171875 C 5.7705846 19.497273 6.2450459 19.789275 6.7558594 20.029297 C 7.1259919 20.199201 7.5661092 20.100111 7.8300781 19.791016 L 8.71875 18.816406 C 8.8445662 18.851106 8.9702145 18.863365 9.0898438 18.890625 L 9.3398438 20.193359 A 0.04526432 0.04526432 0 0 0 9.3398438 20.195312 C 9.4229927 20.584315 9.7506878 20.87325 10.146484 20.910156 C 10.358794 20.927756 10.65693 20.996094 11 20.996094 C 11.343077 20.996094 11.641219 20.927756 11.853516 20.910156 C 12.249285 20.873076 12.577008 20.584319 12.660156 20.195312 A 0.04526432 0.04526432 0 0 0 12.660156 20.193359 L 12.910156 18.890625 C 13.030051 18.863875 13.155552 18.851176 13.28125 18.816406 L 14.167969 19.789062 C 14.431743 20.100224 14.873181 20.199581 15.244141 20.029297 C 15.754956 19.789275 16.229415 19.497273 16.695312 19.171875 C 17.035909 18.944387 17.182141 18.519573 17.052734 18.130859 L 16.634766 16.880859 C 16.717356 16.801219 16.801838 16.719209 16.880859 16.636719 L 18.128906 17.052734 C 18.517669 17.182028 18.944337 17.036087 19.171875 16.695312 C 19.497373 16.229371 19.787362 15.754756 20.027344 15.244141 C 20.197225 14.874103 20.100635 14.433968 19.791016 14.169922 L 18.816406 13.279297 C 18.850536 13.154209 18.863785 13.029333 18.890625 12.910156 L 20.193359 12.660156 A 0.04526432 0.04526432 0 0 0 20.195312 12.660156 C 20.584388 12.577346 20.873247 12.249295 20.910156 11.853516 C 20.927806 11.641203 20.996094 11.343035 20.996094 11 C 20.996094 10.656964 20.927806 10.358801 20.910156 10.146484 C 20.873207 9.7507064 20.584314 9.4229386 20.195312 9.3398438 A 0.04526432 0.04526432 0 0 0 20.193359 9.3398438 L 18.890625 9.0898438 C 18.863785 8.9706639 18.850546 8.8457496 18.816406 8.7207031 L 19.789062 7.8320312 L 19.791016 7.8300781 C 20.100587 7.5660248 20.197225 7.1258973 20.027344 6.7558594 C 19.787361 6.2451505 19.497372 5.7706264 19.171875 5.3046875 C 18.944336 4.9640031 18.517674 4.8179683 18.128906 4.9472656 L 16.880859 5.3632812 C 16.801837 5.2807907 16.717356 5.1987807 16.634766 5.1191406 L 17.052734 3.8691406 C 17.182142 3.4804259 17.035913 3.0556173 16.695312 2.828125 C 16.229416 2.5027284 15.754954 2.2107255 15.244141 1.9707031 C 14.873158 1.8004099 14.431739 1.9001608 14.167969 2.2109375 L 13.28125 3.1835938 C 13.155436 3.1488886 13.029788 3.136623 12.910156 3.109375 L 12.660156 1.8066406 A 0.04526432 0.04526432 0 0 0 12.660156 1.8046875 C 12.577009 1.4156781 12.249313 1.1267492 11.853516 1.0898438 C 11.641205 1.0722471 11.343069 1.0039063 11 1.0039062 z M 11 1.9726562 C 11.240414 1.9726562 11.485002 2.0049166 11.726562 2.0253906 L 12.089844 3.8378906 A 0.04526432 0.04526432 0 0 0 12.126953 3.8730469 C 12.623908 3.9511279 13.103265 4.0930816 13.5625 4.2675781 A 0.04526432 0.04526432 0 0 0 13.611328 4.2539062 L 14.863281 2.8632812 C 15.307997 3.0741497 15.732024 3.3141696 16.132812 3.5917969 L 15.548828 5.3457031 A 0.04526432 0.04526432 0 0 0 15.5625 5.3945312 C 15.940761 5.7033388 16.296869 6.0573909 16.605469 6.4355469 A 0.04526432 0.04526432 0 0 0 16.654297 6.4492188 L 18.408203 5.8652344 C 18.685611 6.2660524 18.923975 6.6916785 19.134766 7.1367188 L 17.746094 8.3886719 A 0.04526432 0.04526432 0 0 0 17.732422 8.4375 C 17.907015 8.896701 18.0491 9.3761275 18.126953 9.8730469 A 0.04526432 0.04526432 0 0 0 18.162109 9.9101562 L 19.972656 10.273438 C 19.994046 10.515003 20.027344 10.759741 20.027344 11 C 20.027344 11.240259 19.994046 11.484926 19.972656 11.726562 L 18.162109 12.089844 A 0.04526432 0.04526432 0 0 0 18.126953 12.126953 C 18.049113 12.623872 17.907017 13.103205 17.732422 13.5625 A 0.04526432 0.04526432 0 0 0 17.746094 13.611328 L 19.134766 14.863281 C 18.924003 15.308175 18.685631 15.73205 18.408203 16.132812 L 16.654297 15.548828 A 0.04526432 0.04526432 0 0 0 16.605469 15.5625 C 16.296821 15.940715 15.940689 16.29672 15.5625 16.605469 A 0.04526432 0.04526432 0 0 0 15.548828 16.654297 L 16.132812 18.408203 C 15.732107 18.685692 15.308069 18.92394 14.863281 19.134766 L 13.611328 17.746094 A 0.04526432 0.04526432 0 0 0 13.5625 17.732422 C 13.103358 17.90688 12.624 18.047084 12.126953 18.125 A 0.04526432 0.04526432 0 0 0 12.089844 18.160156 L 11.726562 19.972656 C 11.485197 19.993836 11.240515 20.025391 11 20.025391 C 10.759484 20.025391 10.514803 19.993816 10.273438 19.972656 L 9.9101562 18.160156 A 0.04526432 0.04526432 0 0 0 9.8730469 18.125 C 9.375978 18.0469 8.8966312 17.906879 8.4375 17.732422 A 0.04526432 0.04526432 0 0 0 8.3886719 17.746094 L 7.1367188 19.134766 C 6.691931 18.923942 6.2678943 18.685693 5.8671875 18.408203 L 6.4511719 16.654297 A 0.04526432 0.04526432 0 0 0 6.4375 16.605469 C 6.0593108 16.296722 5.703179 15.940714 5.3945312 15.5625 A 0.04526432 0.04526432 0 0 0 5.3457031 15.548828 L 3.5917969 16.132812 C 3.3143692 15.732049 3.0759978 15.308175 2.8652344 14.863281 L 4.2539062 13.611328 A 0.04526432 0.04526432 0 0 0 4.2675781 13.5625 C 4.0929839 13.103203 3.9509007 12.623873 3.8730469 12.126953 A 0.04526432 0.04526432 0 0 0 3.8378906 12.089844 L 2.0273438 11.726562 C 2.0059505 11.484924 1.9726564 11.240259 1.9726562 11 C 1.9726562 10.759741 2.0059506 10.515001 2.0273438 10.273438 L 3.8378906 9.9101562 A 0.04526432 0.04526432 0 0 0 3.8730469 9.8730469 C 3.9509012 9.3761275 4.0929858 8.8967012 4.2675781 8.4375 A 0.04526432 0.04526432 0 0 0 4.2539062 8.3886719 L 2.8652344 7.1367188 C 3.0760253 6.6916786 3.3143885 6.2660523 3.5917969 5.8652344 L 5.3457031 6.4492188 A 0.04526432 0.04526432 0 0 0 5.3945312 6.4355469 C 5.703131 6.0573915 6.0592386 5.7033389 6.4375 5.3945312 A 0.04526432 0.04526432 0 0 0 6.4511719 5.3457031 L 5.8671875 3.5917969 C 6.2679761 3.3141695 6.6920034 3.0741496 7.1367188 2.8632812 L 8.3886719 4.2539062 A 0.04526432 0.04526432 0 0 0 8.4375 4.2675781 C 8.8967455 4.0930775 9.376113 3.9509456 9.8730469 3.8730469 A 0.04526432 0.04526432 0 0 0 9.9101562 3.8378906 L 10.273438 2.0253906 C 10.514803 2.0042176 10.759484 1.9726564 11 1.9726562 z M 11 5.5117188 C 8.5434314 5.5117188 6.4634269 7.1276307 5.7636719 9.3535156 C 6.1106499 9.1564754 6.5077708 9.0315077 6.9375 9.0058594 C 7.1301447 8.6100573 7.379191 8.2469911 7.6738281 7.9277344 C 7.7764513 7.8059249 7.8900291 7.6944062 8.0136719 7.5957031 C 8.8069869 6.9006372 9.8501014 6.4824219 11 6.4824219 C 12.796442 6.4824219 14.332051 7.5051019 15.0625 9.0058594 C 15.492229 9.0315077 15.88935 9.1564754 16.236328 9.3535156 C 15.536573 7.1276307 13.456568 5.5117186 11 5.5117188 z M 9.4667969 8 C 8.7173234 8.0174979 8.0733634 8.6003816 8.0019531 9.3632812 L 8 9.3867188 L 8 9.4101562 C 8 9.7439168 7.7400106 10.003906 7.40625 10.003906 L 7.1035156 10.003906 C 6.3454326 10.003906 5.7414868 10.488446 5.5039062 11.09375 C 5.2663258 11.699053 5.3798572 12.466768 5.9355469 12.982422 L 9.8574219 16.623047 C 10.497902 17.217381 11.502098 17.217381 12.142578 16.623047 L 16.064453 12.982422 C 16.620143 12.466768 16.733674 11.699053 16.496094 11.09375 C 16.258513 10.488447 15.654567 10.003907 14.896484 10.003906 L 14.570312 10.003906 L 14.546875 10.005859 C 14.268737 10.031897 14.033499 9.8414995 14 9.5664062 C 14.00021 9.5769352 14 9.5870811 14 9.5976562 L 13.998047 9.5507812 C 13.972593 8.698134 13.26459 8.0039061 12.40625 8.0039062 L 9.59375 8.0039062 C 9.5509812 8.0012385 9.5089803 7.9990151 9.4667969 8 z M 9.4960938 9 C 9.5131064 8.9999655 9.5294906 9.0003259 9.546875 9.0019531 L 9.5703125 9.0039062 L 12.40625 9.0039062 C 12.740011 9.0039062 13 9.2638956 13 9.5976562 L 13 9.6210938 L 13.001953 9.6445312 C 13.077382 10.450354 13.791127 11.053947 14.59375 11.003906 L 14.617188 11.003906 L 14.896484 11.003906 C 15.245819 11.003906 15.461619 11.196986 15.564453 11.458984 C 15.667287 11.720982 15.640833 12.010427 15.384766 12.248047 L 11.460938 15.888672 C 11.197233 16.133376 10.802765 16.133376 10.539062 15.888672 L 6.6152344 12.248047 C 6.3591654 12.010427 6.332713 11.720982 6.4355469 11.458984 C 6.5383808 11.196986 6.7541811 11.003906 7.1035156 11.003906 L 7.40625 11.003906 C 8.2645804 11.003906 8.9725783 10.309666 8.9980469 9.4570312 L 9 9.4101562 C 9 9.4207408 9.00021 9.430868 9 9.4414062 C 9.0313909 9.1834922 9.2409038 9.0005182 9.4960938 9 z "/>
</svg>
