<?xml version="1.0" encoding="UTF-8" standalone="no"?>
<svg
   version="1.1"
   viewBox="0 0 22 22"
   id="svg1"
   sodipodi:docname="update-none-symbolic.svg"
   inkscape:version="1.4.3 (0d15f75042, 2025-12-25)"
   xmlns:inkscape="http://www.inkscape.org/namespaces/inkscape"
   xmlns:sodipodi="http://sodipodi.sourceforge.net/DTD/sodipodi-0.dtd"
   xmlns="http://www.w3.org/2000/svg"
   xmlns:svg="http://www.w3.org/2000/svg">
  <sodipodi:namedview
     id="namedview1"
     pagecolor="#505050"
     bordercolor="#eeeeee"
     borderopacity="1"
     inkscape:showpageshadow="0"
     inkscape:pageopacity="0"
     inkscape:pagecheckerboard="0"
     inkscape:deskcolor="#505050"
     showgrid="true"
     inkscape:zoom="31.970867"
     inkscape:cx="10.822353"
     inkscape:cy="14.153511"
     inkscape:window-width="1941"
     inkscape:window-height="939"
     inkscape:window-x="0"
     inkscape:window-y="0"
     inkscape:window-maximized="0"
     inkscape:current-layer="svg1">
    <inkscape:grid
       id="grid1"
       units="px"
       originx="0"
       originy="0"
       spacingx="1"
       spacingy="1"
       empcolor="#0099e5"
       empopacity="0.30196078"
       color="#0099e5"
       opacity="0.14902"
       empspacing="5"
       enabled="true"
       visible="true" />
  </sodipodi:namedview>
  <defs
     id="defs1">
    <style
       id="current-color-scheme"
       type="text/css">
        .ColorScheme-Text {
          color:#232629;
        }
      </style>
  </defs>
  <path
     id="contacts"
     style="fill:currentColor;stroke-width:0.998264"
     class="ColorScheme-Text"
     sodipodi:type="inkscape:offset"
     inkscape:radius="0.045181226"
     inkscape:original="M 11 1.0664062 C 10.663603 1.0664062 10.370246 1.1342837 10.152344 1.1523438 C 9.7765921 1.1875607 9.4656019 1.4610228 9.3867188 1.8300781 L 9.1328125 3.1601562 C 8.9907495 3.1953723 8.8442374 3.2036528 8.7070312 3.2460938 L 7.8027344 2.2558594 C 7.5523478 1.9604887 7.1351309 1.8657975 6.7832031 2.0273438 C 6.2762458 2.2655547 5.803477 2.555091 5.3398438 2.8789062 C 5.0164577 3.0949034 4.8771657 3.4982224 5 3.8671875 L 5.4257812 5.140625 C 5.3304043 5.2317375 5.2335132 5.3304247 5.1425781 5.4257812 L 3.8691406 5 C 3.5001571 4.8772825 3.094877 5.0163897 2.8789062 5.3398438 C 2.5550434 5.803443 2.2675096 6.2762598 2.0292969 6.7832031 C 1.8677009 7.1351917 1.960419 7.552333 2.2558594 7.8027344 L 3.2460938 8.7070312 C 3.2038118 8.8441967 3.1956666 8.9907708 3.1601562 9.1328125 L 1.8300781 9.3867188 C 1.4610349 9.4652795 1.1874214 9.7766057 1.1523438 10.152344 C 1.1342378 10.370237 1.0664062 10.663634 1.0664062 11 C 1.0664062 11.336366 1.1342377 11.629763 1.1523438 11.847656 C 1.1873837 12.223394 1.4610056 12.534449 1.8300781 12.613281 L 3.1601562 12.867188 C 3.1956662 13.00923 3.2038107 13.155714 3.2460938 13.292969 L 2.2558594 14.197266 C 1.9604188 14.447667 1.8677009 14.864808 2.0292969 15.216797 C 2.2675097 15.723649 2.5550435 16.196557 2.8789062 16.660156 C 3.0948768 16.98352 3.5001571 17.122717 3.8691406 17 L 5.1425781 16.574219 C 5.2335131 16.669579 5.3304044 16.768263 5.4257812 16.859375 L 5 18.132812 C 4.8771657 18.501777 5.0164579 18.905097 5.3398438 19.121094 C 5.8034763 19.44491 6.2762448 19.734445 6.7832031 19.972656 C 7.1351309 20.134203 7.5523478 20.039144 7.8027344 19.744141 L 8.7070312 18.753906 C 8.8442374 18.796346 8.9907496 18.803714 9.1328125 18.839844 L 9.3867188 20.169922 C 9.4656048 20.538978 9.7765921 20.812619 10.152344 20.847656 C 10.370246 20.865716 10.663603 20.933594 11 20.933594 C 11.336403 20.933594 11.629767 20.865716 11.847656 20.847656 C 12.223408 20.812446 12.534397 20.538978 12.613281 20.169922 L 12.867188 18.839844 C 13.009253 18.804634 13.155763 18.796356 13.292969 18.753906 L 14.197266 19.744141 C 14.447653 20.039512 14.864869 20.134203 15.216797 19.972656 C 15.723756 19.734445 16.196524 19.44491 16.660156 19.121094 C 16.983542 18.905101 17.122833 18.501777 17 18.132812 L 16.574219 16.859375 C 16.669599 16.768265 16.766486 16.669575 16.857422 16.574219 L 18.130859 17 C 18.499843 17.122717 18.905124 16.983604 19.121094 16.660156 C 19.444956 16.196557 19.73249 15.723649 19.970703 15.216797 C 20.132298 14.864808 20.039581 14.447667 19.744141 14.197266 L 18.753906 13.292969 C 18.796176 13.155714 18.804334 13.00923 18.839844 12.867188 L 20.169922 12.613281 C 20.538995 12.534721 20.812616 12.223394 20.847656 11.847656 C 20.865766 11.629769 20.933594 11.336366 20.933594 11 C 20.933594 10.663634 20.865766 10.370237 20.847656 10.152344 C 20.812576 9.7766057 20.538965 9.4655505 20.169922 9.3867188 L 18.839844 9.1328125 C 18.804334 8.9907708 18.796191 8.8441967 18.753906 8.7070312 L 19.744141 7.8027344 C 20.039581 7.552333 20.132298 7.1351917 19.970703 6.7832031 C 19.73249 6.2762598 19.444956 5.803443 19.121094 5.3398438 C 18.905123 5.0164801 18.499842 4.8772825 18.130859 5 L 16.857422 5.4257812 C 16.766485 5.3304247 16.669595 5.2317374 16.574219 5.140625 L 17 3.8671875 C 17.122833 3.4982224 16.983546 3.0949035 16.660156 2.8789062 C 16.196523 2.5550911 15.723754 2.2655546 15.216797 2.0273438 C 14.864869 1.8657975 14.447653 1.96085 14.197266 2.2558594 L 13.292969 3.2460938 C 13.155764 3.2036527 13.009251 3.1962762 12.867188 3.1601562 L 12.613281 1.8300781 C 12.534397 1.4610228 12.223408 1.1873801 11.847656 1.1523438 C 11.629754 1.1342838 11.336396 1.0664062 11 1.0664062 z M 11 1.9433594 C 11.255958 1.9433594 11.513092 1.980134 11.763672 2 L 12.132812 3.8398438 C 12.632817 3.9184048 13.113656 4.061327 13.574219 4.2363281 L 14.847656 2.8203125 C 15.315266 3.0401024 15.757986 3.2926437 16.177734 3.5859375 L 15.583984 5.3691406 C 15.963927 5.6793206 16.320769 6.0340808 16.630859 6.4140625 L 18.414062 5.8203125 C 18.70727 6.2401164 18.958011 6.6845907 19.177734 7.1523438 L 17.763672 8.4257812 C 17.93877 8.8863102 18.081821 9.3671975 18.160156 9.8671875 L 19.998047 10.236328 C 20.018867 10.48691 20.056641 10.744091 20.056641 11 C 20.056641 11.255909 20.018867 11.513 19.998047 11.763672 L 18.160156 12.132812 C 18.081826 12.632803 17.93877 13.1136 17.763672 13.574219 L 19.177734 14.847656 C 18.958011 15.315409 18.70727 15.757931 18.414062 16.177734 L 16.630859 15.583984 C 16.320769 15.963966 15.963927 16.320679 15.583984 16.630859 L 16.177734 18.414062 C 15.757986 18.707355 15.315266 18.957944 14.847656 19.177734 L 13.574219 17.763672 C 13.113655 17.938673 12.632817 18.079823 12.132812 18.158203 L 11.763672 19.998047 C 11.513092 20.018817 11.255958 20.054688 11 20.054688 C 10.744042 20.054688 10.486908 20.018817 10.236328 19.998047 L 9.8671875 18.158203 C 9.367182 18.079642 8.8863449 17.938673 8.4257812 17.763672 L 7.1523438 19.177734 C 6.6847347 18.957944 6.2420137 18.707356 5.8222656 18.414062 L 6.4160156 16.630859 C 6.0360732 16.320679 5.6792302 15.963966 5.3691406 15.583984 L 3.5859375 16.177734 C 3.2927297 15.757931 3.041989 15.315409 2.8222656 14.847656 L 4.2363281 13.574219 C 4.061231 13.113601 3.9181788 12.632803 3.8398438 12.132812 L 2.0019531 11.763672 C 1.9811318 11.513 1.9433594 11.255909 1.9433594 11 C 1.9433594 10.744091 1.9811321 10.48691 2.0019531 10.236328 L 3.8398438 9.8671875 C 3.9181788 9.3671974 4.061231 8.8863103 4.2363281 8.4257812 L 2.8222656 7.1523438 C 3.041989 6.6845908 3.2927297 6.2401163 3.5859375 5.8203125 L 5.3691406 6.4140625 C 5.6792302 6.0340809 6.0360732 5.6793206 6.4160156 5.3691406 L 5.8222656 3.5859375 C 6.2420137 3.2926436 6.6847347 3.0401023 7.1523438 2.8203125 L 8.4257812 4.2363281 C 8.8863449 4.061327 9.367182 3.918224 9.8671875 3.8398438 L 10.236328 2 C 10.486908 1.9792311 10.744042 1.9433594 11 1.9433594 z M 11 5.5664062 C 7.9991987 5.5664062 5.5664062 7.9991563 5.5664062 11 C 5.5664062 14.000844 7.9991987 16.433594 11 16.433594 C 14.000801 16.433594 16.433594 14.000844 16.433594 11 C 16.433594 7.9991563 14.000801 5.5664062 11 5.5664062 z M 11 6.4453125 C 13.534274 6.4453125 15.554687 8.4656452 15.554688 11 C 15.554688 13.534355 13.534274 15.556641 11 15.556641 C 8.4657258 15.556641 6.4453125 13.534355 6.4453125 11 C 6.4453125 8.4656452 8.4657259 6.4453125 11 6.4453125 z "
     d="m 11,1.0214844 c -0.342475,0 -0.639621,0.068371 -0.851562,0.085937 C 9.7533562,1.1444504 9.4248,1.4319818 9.3417969,1.8203125 a 0.04518574,0.04518574 0 0 0 0,0.00195 L 9.09375,3.1230469 c -0.1196849,0.0267 -0.2456147,0.039519 -0.3710937,0.074219 L 7.8378906,2.2265625 7.8359375,2.2246094 C 7.5724228,1.9156655 7.1331383,1.816731 6.7636719,1.9863281 6.2537461,2.2259338 5.7795419,2.5169651 5.3144531,2.8417969 4.9744484,3.0688941 4.8278466,3.4928192 4.9570312,3.8808594 L 5.375,5.1289062 C 5.2925523,5.2084081 5.2077904,5.2906994 5.1289062,5.3730469 L 3.8828125,4.9570312 C 3.4947259,4.8279604 3.0689407,4.9742655 2.8417969,5.3144531 2.5168646,5.7795832 2.2278468,6.2538496 1.9882812,6.7636719 1.8183039,7.1339166 1.9157984,7.5745016 2.2265625,7.8378906 L 3.1972656,8.7246094 C 3.1631875,8.849438 3.1498335,8.9747769 3.1230469,9.09375 L 1.8222656,9.3417969 a 0.04518574,0.04518574 0 0 0 -0.00195,0 C 1.4319418,9.424472 1.144306,9.7533486 1.1074219,10.148438 1.0898099,10.360386 1.0214844,10.65756 1.0214844,11 c 0,0.34244 0.068325,0.639614 0.085937,0.851563 0.036845,0.395094 0.3245364,0.72369 0.7128906,0.80664 a 0.04518574,0.04518574 0 0 0 0.00195,0 l 1.3007813,0.248047 c 0.026787,0.118968 0.040144,0.244266 0.074219,0.369141 l -0.9707031,0.886718 c -0.3107643,0.263389 -0.4082585,0.703974 -0.2382813,1.074219 0.2395643,0.509728 0.528582,0.984087 0.8535157,1.449219 0.2271439,0.340093 0.6529228,0.486494 1.0410156,0.357422 l 1.2460937,-0.416016 c 0.078885,0.08235 0.1636464,0.16464 0.2460938,0.244141 l -0.4179688,1.248047 c -0.1291847,0.38804 0.017417,0.811965 0.3574219,1.039062 0.4650882,0.324833 0.9392921,0.615863 1.4492188,0.855469 0.36949,0.169609 0.8087549,0.07028 1.0722656,-0.238281 l 0.8867188,-0.972657 c 0.1255977,0.03464 0.2516722,0.04701 0.3710937,0.07422 l 0.2480469,1.300781 a 0.04518574,0.04518574 0 0 0 0,0.002 c 0.083005,0.388328 0.4115308,0.676049 0.8066411,0.712891 0.211941,0.01757 0.509087,0.08594 0.851562,0.08594 0.342481,0 0.639634,-0.06837 0.851563,-0.08594 0.395082,-0.03702 0.723636,-0.324559 0.80664,-0.712891 a 0.04518574,0.04518574 0 0 0 0,-0.002 l 0.248047,-1.300781 c 0.119687,-0.0267 0.245614,-0.03951 0.371094,-0.07422 l 0.884765,0.970703 c 0.263316,0.310622 0.703903,0.410223 1.074219,0.240235 0.509928,-0.239606 0.984131,-0.530636 1.449219,-0.855469 0.340005,-0.227093 0.486605,-0.651022 0.357422,-1.039062 L 16.625,16.871094 c 0.08245,-0.0795 0.16721,-0.161794 0.246094,-0.244141 l 1.246093,0.416016 c 0.388088,0.12907 0.813873,-0.01724 1.041016,-0.357422 0.324933,-0.465132 0.613951,-0.939491 0.853516,-1.449219 0.169586,-0.369396 0.07275,-0.808678 -0.236328,-1.072265 l -0.972657,-0.888672 c 0.03407,-0.124871 0.04743,-0.250171 0.07422,-0.369141 l 1.300781,-0.248047 a 0.04518574,0.04518574 0 0 0 0.002,0 c 0.3884,-0.08267 0.676046,-0.411548 0.712891,-0.80664 0.01762,-0.211944 0.08594,-0.509123 0.08594,-0.851563 0,-0.34244 -0.06832,-0.639613 -0.08594,-0.851562 -0.03689,-0.395091 -0.324565,-0.7236904 -0.712891,-0.8066411 a 0.04518574,0.04518574 0 0 0 -0.002,0 L 18.876953,9.09375 c -0.02679,-0.1189729 -0.04014,-0.2443112 -0.07422,-0.3691406 l 0.970703,-0.8867188 0.002,-0.00195 C 20.084466,7.5723491 20.181305,7.1330674 20.011719,6.7636719 19.772153,6.2538497 19.483135,5.7795831 19.158203,5.3144531 18.931059,4.9743601 18.50528,4.8279583 18.117187,4.9570312 L 16.871094,5.3730469 C 16.792209,5.2906996 16.707447,5.2084081 16.625,5.1289062 L 17.042969,3.8808594 C 17.172152,3.4928196 17.025556,3.0688942 16.685547,2.8417969 16.220458,2.5169652 15.746254,2.2259338 15.236328,1.9863281 14.865989,1.8163305 14.425421,1.9163253 14.162109,2.2265625 L 13.277344,3.1972656 C 13.151748,3.162621 13.025674,3.1502473 12.90625,3.1230469 L 12.658203,1.8222656 a 0.04518574,0.04518574 0 0 0 0,-0.00195 C 12.5752,1.431985 12.246673,1.1442632 11.851563,1.1074219 11.639621,1.0898559 11.342474,1.0214844 11,1.0214844 Z m 0,0.9667968 c 0.239997,0 0.483468,0.032296 0.724609,0.052734 l 0.363282,1.8085938 a 0.04518574,0.04518574 0 0 0 0.03711,0.035156 c 0.496092,0.077946 0.975156,0.2203377 1.433594,0.3945313 a 0.04518574,0.04518574 0 0 0 0.04883,-0.013672 l 1.25,-1.3886719 c 0.443944,0.2105022 0.865532,0.4513703 1.265625,0.7285157 l -0.582031,1.7499999 a 0.04518574,0.04518574 0 0 0 0.01367,0.048828 c 0.377605,0.3082714 0.732951,0.661563 1.041015,1.0390625 a 0.04518574,0.04518574 0 0 0 0.04883,0.013672 l 1.75,-0.5820312 c 0.276927,0.4001222 0.516138,0.8233106 0.726563,1.2675781 l -1.386719,1.25 a 0.04518574,0.04518574 0 0 0 -0.01367,0.048828 c 0.17429,0.4584038 0.316813,0.937537 0.394531,1.4335937 a 0.04518574,0.04518574 0 0 0 0.03516,0.037109 l 1.80664,0.3632816 c 0.02135,0.241146 0.05469,0.484767 0.05469,0.724609 0,0.239842 -0.03333,0.483391 -0.05469,0.724609 l -1.80664,0.363282 a 0.04518574,0.04518574 0 0 0 -0.03516,0.03711 c -0.07771,0.496056 -0.220239,0.975096 -0.394531,1.433594 a 0.04518574,0.04518574 0 0 0 0.01367,0.04883 l 1.386719,1.25 c -0.210397,0.444122 -0.449616,0.865557 -0.726563,1.265625 l -1.75,-0.582031 a 0.04518574,0.04518574 0 0 0 -0.04883,0.01367 c -0.308112,0.377558 -0.663482,0.732802 -1.041015,1.041015 a 0.04518574,0.04518574 0 0 0 -0.01367,0.04883 l 0.582031,1.75 c -0.400011,0.277007 -0.821609,0.516103 -1.265625,0.726563 l -1.25,-1.386719 a 0.04518574,0.04518574 0 0 0 -0.04883,-0.01367 C 13.10025,17.894861 12.621184,18.0355 12.125,18.113281 a 0.04518574,0.04518574 0 0 0 -0.03711,0.03516 l -0.363282,1.808594 c -0.240946,0.02114 -0.484511,0.05273 -0.724609,0.05273 -0.240098,0 -0.483663,-0.0316 -0.724609,-0.05273 L 9.9121094,18.148437 A 0.04518574,0.04518574 0 0 0 9.875,18.113281 C 9.3787939,18.035317 8.8997404,17.894857 8.4414063,17.720703 a 0.04518574,0.04518574 0 0 0 -0.048828,0.01367 l -1.25,1.386719 C 6.6985628,18.910634 6.2769643,18.671539 5.8769531,18.394531 l 0.5820313,-1.75 a 0.04518574,0.04518574 0 0 0 -0.013672,-0.04883 C 6.0677798,16.28749 5.7124087,15.932246 5.4042969,15.554688 a 0.04518574,0.04518574 0 0 0 -0.048828,-0.01367 L 3.6054688,16.123047 C 3.3285227,15.722979 3.0893038,15.301544 2.8789063,14.857422 l 1.3867187,-1.25 a 0.04518574,0.04518574 0 0 0 0.013672,-0.04883 C 4.1050061,13.100097 3.9624843,12.621057 3.8847656,12.125 a 0.04518574,0.04518574 0 0 0 -0.035156,-0.03711 L 2.0429688,11.724609 C 2.0216128,11.483391 1.9882813,11.239842 1.9882812,11 c 0,-0.239842 0.033332,-0.483463 0.054688,-0.724609 L 3.8496094,9.9121094 A 0.04518574,0.04518574 0 0 0 3.8847656,9.875 C 3.9624844,9.3789432 4.1050077,8.8998103 4.2792969,8.4414063 A 0.04518574,0.04518574 0 0 0 4.265625,8.3925781 l -1.3867187,-1.25 C 3.0893313,6.6983106 3.328542,6.2751221 3.6054688,5.875 l 1.7499999,0.5820312 a 0.04518574,0.04518574 0 0 0 0.048828,-0.013672 C 5.7123608,6.0658601 6.0677078,5.7125684 6.4453125,5.4042969 a 0.04518574,0.04518574 0 0 0 0.013672,-0.048828 L 5.8769531,3.6054688 C 6.2770459,3.3283233 6.6986347,3.0874553 7.1425781,2.8769531 l 1.25,1.3886719 a 0.04518574,0.04518574 0 0 0 0.048828,0.013672 C 8.8998544,4.1050996 9.3789286,3.9625291 9.875,3.8847656 a 0.04518574,0.04518574 0 0 0 0.037109,-0.035156 L 10.275391,2.0410156 C 10.516338,2.0198794 10.759902,1.9882813 11,1.9882812 Z m 0,3.5332032 c -3.0252203,0 -5.4785156,2.4532529 -5.4785156,5.4785156 0,3.025263 2.4532953,5.478516 5.4785156,5.478516 3.02522,0 5.478516,-2.453253 5.478516,-5.478516 C 16.478516,7.9747373 14.02522,5.5214844 11,5.5214844 Z m 0,0.96875 c 2.510262,0 4.509765,1.9994234 4.509766,4.5097656 0,2.510342 -1.999528,4.511719 -4.509766,4.511719 C 8.4897614,15.511719 6.4902344,13.510342 6.4902344,11 6.4902344,8.4896578 8.4897383,6.4902344 11,6.4902344 Z"
     transform="matrix(1.0017391,0,0,1.0017391,-0.01913043,-0.01913043)" />
</svg>
