<?xml version="1.0" encoding="UTF-8" standalone="no"?>
<svg
   version="1.1"
   viewBox="0 0 22 22"
   id="svg1"
   xml:space="preserve"
   xmlns="http://www.w3.org/2000/svg"
   xmlns:svg="http://www.w3.org/2000/svg"><defs
     id="defs1"><style
       id="current-color-scheme"
       type="text/css">
        .ColorScheme-Text {
          color:#232629;
        }
      </style><style
       type="text/css"
       id="current-color-scheme-6">
            .ColorScheme-Text {
                color:#232629;
            }
        </style></defs><path
     id="contacts"
     style="color:#232629;fill:currentColor;stroke-width:1"
     class="ColorScheme-Text"
     d="m 11,1.0039062 c -0.343071,0 -0.641207,0.06834 -0.853516,0.085938 -0.3957678,0.037093 -0.723493,0.3258376 -0.8066402,0.7148437 v 0.00195 l -0.25,1.3027344 C 8.9699507,3.1361237 8.8444473,3.1488337 8.71875,3.1835938 L 7.8320312,2.2109375 7.8300781,2.2089844 C 7.5661052,1.8995032 7.1259683,1.800811 6.7558594,1.9707031 6.2450468,2.2107255 5.7705852,2.5027283 5.3046875,2.828125 4.9640915,3.0556172 4.8178564,3.4804255 4.9472656,3.8691406 l 0.4179688,1.25 C 5.2826433,5.1987807 5.1981619,5.2807905 5.1191406,5.3632812 L 3.8710938,4.9472656 C 3.4823319,4.8179704 3.0556639,4.9639083 2.828125,5.3046875 2.5026276,5.7706265 2.2126387,6.2451504 1.9726562,6.7558594 1.8023833,7.126748 1.8996329,7.5681843 2.2109375,7.8320312 L 3.1835938,8.7207031 C 3.1494563,8.8457488 3.1362081,8.9706636 3.109375,9.0898438 l -1.3027344,0.25 h -0.00195 C 1.4156318,9.4226626 1.126792,9.7507084 1.0898438,10.146484 1.0722011,10.3588 1.0039064,10.656964 1.0039062,11 c 0,0.343035 0.068294,0.641198 0.085938,0.853516 0.036909,0.395781 0.3258141,0.723546 0.7148437,0.80664 h 0.00195 l 1.3027344,0.25 c 0.026833,0.119175 0.040085,0.244049 0.074219,0.369141 l -0.9726563,0.888672 c -0.3113048,0.263847 -0.4085538,0.705283 -0.2382813,1.076172 0.2399809,0.510615 0.52997,0.985231 0.8554688,1.451171 0.227539,0.340687 0.6542009,0.486718 1.0429688,0.357422 l 1.2480468,-0.416015 c 0.079022,0.08249 0.163503,0.164501 0.2460938,0.24414 l -0.4179688,1.25 c -0.1294093,0.388714 0.016825,0.813524 0.3574219,1.041016 0.4658971,0.325398 0.9403584,0.6174 1.4511719,0.857422 0.3701325,0.169904 0.8102498,0.07081 1.0742187,-0.238281 L 8.71875,18.816406 c 0.1258162,0.0347 0.2514645,0.04696 0.3710938,0.07422 l 0.25,1.302734 v 0.002 c 0.083149,0.389003 0.4108444,0.677938 0.8066402,0.714844 0.21231,0.0176 0.510446,0.08594 0.853516,0.08594 0.343077,0 0.641219,-0.06834 0.853516,-0.08594 0.395769,-0.03708 0.723492,-0.325837 0.80664,-0.714844 v -0.002 l 0.25,-1.302734 c 0.119895,-0.02675 0.245396,-0.03945 0.371094,-0.07422 l 0.886719,0.972656 c 0.263774,0.311162 0.705212,0.410519 1.076172,0.240235 0.510815,-0.240022 0.985274,-0.532024 1.451171,-0.857422 0.340597,-0.227488 0.486829,-0.652302 0.357422,-1.041016 l -0.417968,-1.25 c 0.08259,-0.07964 0.167072,-0.16165 0.246093,-0.24414 l 1.248047,0.416015 c 0.388763,0.129294 0.815431,-0.01665 1.042969,-0.357422 0.325498,-0.465941 0.615487,-0.940556 0.855469,-1.451171 0.169881,-0.370038 0.07329,-0.810173 -0.236328,-1.074219 l -0.97461,-0.890625 c 0.03413,-0.125088 0.04738,-0.249964 0.07422,-0.369141 l 1.302734,-0.25 h 0.002 c 0.389076,-0.08281 0.677935,-0.410861 0.714844,-0.80664 0.01765,-0.212313 0.08594,-0.510481 0.08594,-0.853516 0,-0.343036 -0.06829,-0.641199 -0.08594,-0.853516 -0.03695,-0.3957772 -0.325842,-0.7235455 -0.714844,-0.8066402 h -0.002 l -1.302734,-0.25 c -0.02684,-0.11918 -0.04008,-0.2440942 -0.07422,-0.3691407 l 0.972656,-0.8886719 0.002,-0.00195 C 20.100541,7.5660217 20.197225,7.1258973 20.027344,6.7558594 19.787361,6.2451505 19.497372,5.7706264 19.171875,5.3046875 18.944336,4.9640031 18.517674,4.8179683 18.128906,4.9472656 L 16.880859,5.3632812 C 16.801837,5.2807907 16.717356,5.1987807 16.634766,5.1191406 l 0.417968,-1.25 C 17.182142,3.4804259 17.035913,3.0556173 16.695312,2.828125 16.229416,2.5027284 15.754954,2.2107255 15.244141,1.9707031 14.873158,1.8004099 14.431739,1.9001608 14.167969,2.2109375 L 13.28125,3.1835938 C 13.155436,3.1488885 13.029788,3.136623 12.910156,3.109375 l -0.25,-1.3027344 v -0.00195 C 12.577009,1.415675 12.249313,1.1267492 11.853516,1.0898438 11.641205,1.0722471 11.343069,1.0039064 11,1.0039062 Z m 0,0.96875 c 0.240414,0 0.485002,0.03226 0.726562,0.052734 l 0.363282,1.8125 c 0.0039,0.01825 0.01867,0.032212 0.03711,0.035156 0.496955,0.078081 0.976312,0.2200347 1.435547,0.3945312 0.01754,0.00584 0.03687,4.298e-4 0.04883,-0.013672 l 1.251953,-1.390625 c 0.444716,0.2108686 0.868743,0.4508884 1.269531,0.7285157 l -0.583984,1.7539062 c -0.0058,0.017541 -4.28e-4,0.036872 0.01367,0.048828 0.378261,0.3088076 0.734369,0.6628597 1.042969,1.0410157 0.01196,0.014101 0.03129,0.019514 0.04883,0.013672 l 1.753906,-0.5839844 c 0.277408,0.400818 0.515772,0.8264441 0.726563,1.2714844 l -1.388672,1.2519531 c -0.0141,0.011957 -0.01951,0.031287 -0.01367,0.048828 0.174593,0.459201 0.316678,0.9386275 0.394531,1.4355469 0.0029,0.018436 0.01691,0.033174 0.03516,0.037109 l 1.810547,0.3632818 c 0.02139,0.241564 0.05469,0.486303 0.05469,0.726562 0,0.240259 -0.0333,0.484926 -0.05469,0.726562 l -1.810547,0.363282 c -0.01825,0.0039 -0.03221,0.01867 -0.03516,0.03711 -0.07784,0.496919 -0.219936,0.976252 -0.394531,1.435547 -0.0058,0.01754 -4.28e-4,0.03687 0.01367,0.04883 l 1.388672,1.251953 c -0.210763,0.444894 -0.449135,0.868769 -0.726563,1.269531 l -1.753906,-0.583984 c -0.01754,-0.0058 -0.03687,-4.28e-4 -0.04883,0.01367 -0.308648,0.378215 -0.66478,0.73422 -1.042969,1.042969 -0.0141,0.01196 -0.01951,0.03129 -0.01367,0.04883 l 0.583984,1.753906 c -0.400705,0.277489 -0.824743,0.515737 -1.269531,0.726563 l -1.251953,-1.388672 c -0.01196,-0.0141 -0.03129,-0.01951 -0.04883,-0.01367 -0.459142,0.174458 -0.9385,0.314662 -1.435547,0.392578 -0.01844,0.0029 -0.03317,0.01691 -0.03711,0.03516 l -0.363282,1.8125 c -0.241365,0.02118 -0.486047,0.05273 -0.726562,0.05273 -0.240516,0 -0.485197,-0.03158 -0.726562,-0.05273 l -0.3632818,-1.8125 C 9.9062205,18.141898 9.8914832,18.127944 9.8730469,18.125 9.375978,18.0469 8.8966312,17.906879 8.4375,17.732422 c -0.017541,-0.0058 -0.036872,-4.28e-4 -0.048828,0.01367 L 7.1367188,19.134766 C 6.691931,18.923942 6.2678943,18.685693 5.8671875,18.408203 l 0.5839844,-1.753906 c 0.00584,-0.01754 4.297e-4,-0.03687 -0.013672,-0.04883 C 6.0593109,16.296724 5.703179,15.940714 5.3945312,15.5625 5.3825742,15.5484 5.3632441,15.542988 5.3457031,15.548828 L 3.5917969,16.132812 C 3.3143692,15.732049 3.0759978,15.308175 2.8652344,14.863281 l 1.3886718,-1.251953 c 0.014101,-0.01196 0.019514,-0.03129 0.013672,-0.04883 -0.1745942,-0.459297 -0.3166774,-0.938627 -0.3945312,-1.435547 -0.00294,-0.01844 -0.016906,-0.03317 -0.035156,-0.03711 L 2.0273438,11.726562 C 2.0059504,11.484924 1.9726564,11.240259 1.9726562,11 c 0,-0.240259 0.033294,-0.485 0.054688,-0.726562 L 3.8378906,9.9101562 c 0.01825,-0.00394 0.032212,-0.018673 0.035156,-0.037109 C 3.9509015,9.3761272 4.0929858,8.8967012 4.2675781,8.4375 4.2734181,8.419959 4.2680079,8.4006279 4.2539062,8.3886719 L 2.8652344,7.1367188 C 3.0760253,6.6916786 3.3143885,6.2660523 3.5917969,5.8652344 l 1.7539062,0.5839844 c 0.017541,0.00584 0.036872,4.297e-4 0.048828,-0.013672 C 5.7031311,6.0573916 6.0592386,5.7033389 6.4375,5.3945312 6.451601,5.3825742 6.4570139,5.3632441 6.4511719,5.3457031 L 5.8671875,3.5917969 C 6.2679761,3.3141695 6.6920034,3.0741496 7.1367188,2.8632812 l 1.2519531,1.390625 c 0.011957,0.014101 0.031287,0.019514 0.048828,0.013672 0.4592455,-0.1745006 0.938613,-0.3166325 1.4355469,-0.3945312 0.018436,-0.00294 0.033174,-0.016906 0.037109,-0.035156 l 0.3632818,-1.8125 C 10.514803,2.0042172 10.759484,1.9726564 11,1.9726562 Z M 7.03125,7.2109375 C 6.4579963,7.8114906 6.0187442,8.5421435 5.7636719,9.3535156 6.1106499,9.1564754 6.5077708,9.0315077 6.9375,9.0058594 6.9577164,8.9643234 6.9785539,8.9236146 7,8.8828125 V 7.6074219 C 7,7.4728704 7.0111945,7.3402333 7.03125,7.2109375 Z m 7.9375,0 C 14.988805,7.3402332 15,7.4728705 15,7.6074219 v 1.2753906 c 0.02144,0.0408 0.04228,0.081503 0.0625,0.1230469 0.429729,0.025648 0.82685,0.150616 1.173828,0.3476562 C 15.981256,8.5421437 15.542004,7.8114906 14.96875,7.2109375 Z M 9.4667969,6 C 8.7173234,6.0175 8.0733634,6.600382 8.0019531,7.363281 L 8,7.386719 v 2.023437 c 0,0.333761 -0.2599894,0.59375 -0.59375,0.59375 H 7.1035156 c -0.758083,0 -1.3620288,0.48454 -1.5996094,1.089844 -0.2375803,0.605303 -0.124049,1.373018 0.4316407,1.888672 l 3.921875,3.640625 c 0.6404801,0.594334 1.6446761,0.594334 2.2851561,0 l 3.921875,-3.640625 c 0.55569,-0.515654 0.669221,-1.283369 0.431641,-1.888672 -0.237581,-0.605303 -0.841527,-1.089844 -1.59961,-1.089844 h -0.326172 l -0.02344,0.002 C 14.26874,10.03185 14.033499,9.841499 14,9.566406 l -0.002,-2.015625 C 13.972637,6.698134 13.26459,6.003906 12.40625,6.003906 H 9.59375 C 9.5509812,6.001238 9.5089803,5.999015 9.4667969,6 Z m 0.029297,1 c 0.017013,-3.4e-5 0.033397,2.79e-4 0.050781,0.00195 l 0.023437,0.00195 H 12.40625 C 12.740011,7.003806 13,7.263895 13,7.597656 v 0.023438 l 0.002,2.023437 c 0.07543,0.805823 0.789174,1.409416 1.591797,1.359375 h 0.02344 0.279296 c 0.349335,0 0.565135,0.19308 0.667969,0.455078 0.102834,0.261998 0.07638,0.551443 -0.179687,0.789063 l -3.923828,3.640625 c -0.263705,0.244704 -0.658173,0.244704 -0.921876,0 L 6.6152344,12.248047 C 6.3591654,12.010427 6.332713,11.720982 6.4355469,11.458984 6.5383808,11.196986 6.7541811,11.003906 7.1035156,11.003906 H 7.40625 c 0.8583304,0 1.5663283,-0.69424 1.5917969,-1.546875 L 9,7.441406 C 9.0313909,7.183492 9.2409036,7.000518 9.4960938,7 Z" /><rect
     style="opacity:1;fill:#e2ce00;fill-opacity:1;fill-rule:evenodd;stroke:none;stroke-linecap:round;stroke-opacity:1;paint-order:stroke fill markers"
     id="rect4"
     width="2"
     height="3"
     x="10"
     y="12"
     rx="1"
     ry="1" /></svg>
