<?xml version="1.0" encoding="UTF-8" standalone="no"?>
<svg xmlns="http://www.w3.org/2000/svg" xmlns:svg="http://www.w3.org/2000/svg" version="1.1" viewBox="0 0 22 22" id="svg1">
  <defs id="defs1">
    <style id="current-color-scheme" type="text/css">
        .ColorScheme-Text {
          color:#232629;
        }
      </style>
  </defs>
  <path id="smartphone" style="fill:currentColor" class="ColorScheme-Text" d="M 2,3 C 0.89200441,3 0,3.8920044 0,5 v 11 c 0,1.107996 0.89200441,2 2,2 h 7 v 1 H 6 C 5.7238582,19 5.5,19.223858 5.5,19.5 5.5,19.776142 5.7238582,20 6,20 h 10 c 0.276142,0 0.5,-0.223858 0.5,-0.5 C 16.5,19.223858 16.276142,19 16,19 h -3 v -1 h 7 c 1.107996,0 2,-0.892004 2,-2 V 5 C 22,3.8920044 21.107996,3 20,3 Z m 0,1 h 18 c 0.553996,0 1,0.4460024 1,1 v 11 c 0,0.553996 -0.446004,1 -1,1 H 2 C 1.4460024,17 1,16.553996 1,16 V 5 C 1,4.4460024 1.4460024,4 2,4 Z m 8,14 h 2 v 1 h -2 z"/>
</svg>
