<?xml version="1.0" encoding="UTF-8" standalone="no"?>
<svg
   height="22"
   width="22"
   version="1.1"
   id="svg1"
   xmlns="http://www.w3.org/2000/svg"
   xmlns:svg="http://www.w3.org/2000/svg">
  <defs
     id="defs1">
    <style
       type="text/css"
       id="current-color-scheme">
            .ColorScheme-Text {
                color:#232629;
            }
        </style>
  </defs>
  <g
     id="path11"
     style="opacity:1"
     transform="translate(-22)">
    <path
       id="path19"
       style="baseline-shift:baseline;display:inline;overflow:visible;vector-effect:none;fill:#232629;fill-rule:evenodd;stroke-linecap:round;stroke-linejoin:round;paint-order:stroke fill markers;enable-background:accumulate;stop-color:#000000;stop-opacity:1"
       d="M 32.332031,3 C 31.499947,3 30.763417,3.5581077 30.539062,4.359375 L 26.71875,18 h -1.619141 c -0.276142,0 -0.5,0.223858 -0.5,0.5 0,0.276142 0.223858,0.5 0.5,0.5 h 16 c 0.276142,0 0.5,-0.223858 0.5,-0.5 0,-0.276142 -0.223858,-0.5 -0.5,-0.5 h -1.61914 L 35.660156,4.359375 C 35.435801,3.5581077 34.699272,3 33.867188,3 Z m 0,1 h 1.535157 c 0.388272,0 0.725388,0.2550134 0.830078,0.6289062 L 38.439453,18 H 27.759766 L 28.132812,16.664062 28.5,15.355469 28.599609,15 h 7.38086 c 0.276142,0 0.5,-0.223858 0.5,-0.5 0,-0.276142 -0.223858,-0.5 -0.5,-0.5 h -7.101563 l 0.455078,-1.625 0.002,-0.0059 c 0.0014,-0.0039 0.0027,-0.0078 0.0039,-0.01172 L 29.998047,10.005859 34.572266,10 c 0.276906,10e-7 0.50108,-0.2250488 0.5,-0.5019531 C 35.071189,9.2226681 34.847647,8.9999991 34.572266,9 l -4.294922,0.00391 1.224609,-4.375 C 31.606643,4.2550134 31.943758,4 32.332031,4 Z" />
    <path
       style="baseline-shift:baseline;display:inline;overflow:visible;vector-effect:none;fill:#6f96c9;fill-rule:evenodd;stroke-linecap:round;stroke-linejoin:round;paint-order:stroke fill markers;enable-background:accumulate;stop-color:#000000;stop-opacity:1"
       d="m 25.6,18.5 h 16"
       id="path20" />
  </g>
  <g
     id="use22"
     transform="translate(-22)">
    <path
       style="baseline-shift:baseline;display:inline;overflow:visible;vector-effect:none;fill:#6f96c9;fill-rule:evenodd;stroke-linecap:round;stroke-linejoin:round;paint-order:stroke fill markers;enable-background:accumulate;stop-color:#000000;stop-opacity:1"
       d="m 25.6,18.5 h 16"
       id="path23" />
  </g>
</svg>
