<?xml version="1.0" encoding="UTF-8" standalone="no"?>
<svg
   height="22"
   width="22"
   version="1.1"
   id="svg1"
   xmlns="http://www.w3.org/2000/svg"
   xmlns:svg="http://www.w3.org/2000/svg">
  <defs
     id="defs1">
    <style
       type="text/css"
       id="current-color-scheme">
            .ColorScheme-Text {
                color:#232629;
            }
        </style>
  </defs>
  <path
     id="path19"
     style="fill:currentColor"
     d="M 9.732422,3 C 8.900338,3 8.163808,3.5581077 7.939453,4.359375 L 4.119141,18 H 2.5 C 2.223858,18 2,18.223858 2,18.5 2,18.776142 2.223858,19 2.5,19 h 16 C 18.776142,19 19,18.776142 19,18.5 19,18.223858 18.776142,18 18.5,18 H 16.88086 L 13.060547,4.359375 C 12.836192,3.5581077 12.099663,3 11.267579,3 Z m 0,1 h 1.535157 c 0.388272,0 0.725388,0.2550134 0.830078,0.6289062 L 15.839844,18 H 5.160157 L 5.533203,16.664062 5.900391,15.355469 6,15 h 7.38086 c 0.276142,0 0.5,-0.223858 0.5,-0.5 0,-0.276142 -0.223858,-0.5 -0.5,-0.5 H 6.279297 l 0.455078,-1.625 0.002,-0.0059 c 0.0014,-0.0039 0.0027,-0.0078 0.0039,-0.01172 L 7.398438,10.005859 11.972657,10 c 0.276906,10e-7 0.50108,-0.2250488 0.5,-0.5019531 C 12.47158,9.2226681 12.248038,8.9999991 11.972657,9 L 7.677735,9.00391 8.902344,4.62891 C 9.007034,4.2550134 9.344149,4 9.732422,4 Z" />
</svg>
