<?xml version="1.0" encoding="UTF-8"?>
<svg width="22" height="22" version="1.1" xml:space="preserve" xmlns="http://www.w3.org/2000/svg"> <defs>
  <style id="current-color-scheme" type="text/css">.ColorScheme-Text {
                color:#232629;
            }</style>
 </defs>
 <path class="ColorScheme-Text" d="m9.3848 1.2773c-0.022894 3.857e-4 -0.045734 0.0023393-0.068359 0.0058593-4.7817 0.77033-8.3029 4.9048-8.3027 9.748 1.292e-4 1.9636 0.57562 3.7951 1.5664 5.334 0.62771 0.97497 2.2582 1.6348 3.4199 1.6348h13.949c1.1262 0 2.0508-0.92456 2.0508-2.0508 8.1e-5 -0.0052 8.1e-5 -0.010415 0-0.015625-0.03649-1.0969-0.96604-1.9656-2.0625-1.9316-1.0827 0.02088-1.9558 0.92256-1.9375 2.0059 0.0043 0.27616 0.23166 0.49654 0.50781 0.49219 0.27616-0.0043 0.49654-0.23166 0.49219-0.50781-0.0092-0.54447 0.41452-0.98298 0.95898-0.99219 0.0026 2e-5 0.005213 2e-5 0.007813 0 0.55518-0.01847 1.0059 0.4053 1.0293 0.95898-0.005987 0.58035-0.4649 1.041-1.0469 1.041h-13.949c-0.92982 0-2.2076-0.55328-2.6914-1.3457-0.82168-1.3459-1.2948-2.9284-1.2949-4.623-9.41e-5 -3.9119 2.6062-7.1749 6.2383-8.3301-1.057 1.6038-1.7696 3.4132-1.7695 5.3555-3.57e-4 2.711 1.0949 5.1709 2.8672 6.957 0.58674 0.59131 1.8166 0.98633 2.6504 0.98633h2.9492c1.1262 0 2.0508-0.92456 2.0508-2.0508 8.1e-5 -0.0052 8.1e-5 -0.010415 0-0.015625-0.03649-1.0969-0.96604-1.9656-2.0625-1.9316-1.0827 0.02088-1.9558 0.92256-1.9375 2.0059 0.0043 0.27616 0.23166 0.49654 0.50781 0.49219 0.27616-0.0043 0.49654-0.23166 0.49219-0.50781-0.0092-0.54447 0.41452-0.98298 0.95898-0.99219 0.0026 2e-5 0.005213 2e-5 0.007813 0 0.55518-0.01847 1.0059 0.4053 1.0293 0.95898-0.005987 0.58035-0.4649 1.041-1.0469 1.041-1.2596 9.5e-5 -1.9751 1.1e-5 -2.9492 0-0.64831-8e-6 -1.5918-0.32219-2.041-0.78906-1.5339-1.5945-2.4769-3.7636-2.4766-6.1543-5.8e-5 -2.1961 0.81396-4.3148 2.2852-5.9453 0.29241-0.32572 0.054808-0.84336-0.38281-0.83398zm7.332 1.3672c-1.3563 0-2.4416 0.98412-2.6875 2.2539h-1.123c-1.1137 0-2.0273 0.90148-2.0273 2s0.91373 2 2.0273 2h3.7988c1.7448 0.00601 3.1755-1.3961 3.1816-3.1172 3e-3 -1.7237-1.4225-3.1337-3.1699-3.1367zm-0.001953 0.99219c1.2033 0.00211 2.1662 0.95565 2.1641 2.1426-5e-3 1.1837-0.96976 2.1311-2.1699 2.127h-0.001953-3.8008c-0.5695 0-1.0195-0.44606-1.0195-1.0078 0-0.56176 0.45006-1.0078 1.0195-1.0078h1.5234c0.27801 2.344e-4 0.5036-0.22186 0.50391-0.49609 0-0.97633 0.79172-1.757 1.7812-1.7578zm-15.215 15.363c-0.27614 0-0.5 0.22386-0.5 0.5s0.22386 0.5 0.5 0.5h14.998c-0.27568 5.45e-4 -0.49805 0.2242-0.49805 0.5v0.042969c0 0.79872 0.65834 1.457 1.457 1.457h0.007813c0.82244 0.01944 1.5157-0.64246 1.5352-1.4648 4.6e-5 -0.0039 4.6e-5 -0.007799 0-0.011718 1.3e-5 -0.83556-0.68792-1.5234-1.5234-1.5234h-15.977zm15 1h0.97656c0.29181 0 0.51254 0.22726 0.51758 0.51758-0.01158 0.27721-0.22702 0.48902-0.50586 0.48242-0.0039-4.6e-5 -0.007799-4.6e-5 -0.011719 0h-0.019531c-0.25828 0-0.45703-0.19875-0.45703-0.45703v-0.042969c0-0.2758-0.22432-0.49946-0.5-0.5z" fill="currentColor"/></svg>
