<?xml version="1.0" encoding="UTF-8"?>
<svg xmlns="http://www.w3.org/2000/svg" width="22" height="22" version="1.1" xml:space="preserve">
  <defs><style id="current-color-scheme" type="text/css">.ColorScheme-Text { color:#232629; }</style>
    </defs><g stroke-linecap="round" stroke-linejoin="round">
  <path class="ColorScheme-Text" d="m18.426 13.064c-0.11829 0.0073-0.25294 0.04594-0.4043 0.12695-0.28967 0.15504-1.5136 0.96683-1.8203 1.498-0.41505 0.71889-0.16616 1.6514 0.55273 2.0664 0.71889 0.41505 1.6514 0.1642 2.0664-0.55469 0.12379-0.2144 0.14912-0.46901 0.12305-0.65625s-0.07508-0.32496-0.10742-0.4668c-0.06469-0.28367-0.11235-0.60062 0.12891-1.2656 0.02672-0.07365 0.05454-0.16086 0.03711-0.29492s-0.1389-0.31017-0.27148-0.38672c-0.08473-0.04892-0.1864-0.07366-0.30469-0.06641zm-0.289 1.0391c-0.12299 0.47348-0.15551 0.93875-0.10547 1.1582 0.04676 0.2051 0.13532 0.29392 0.03711 0.57422s-0.5755 0.39378-0.90234 0.20508c-0.32706-0.18883-0.45788-0.62312-0.25-0.93945 0.18367-0.27951 0.45346-0.50814 1.2207-0.99805zm-14.711 3.9609c-0.11829 0.0073-0.25294 0.04594-0.4043 0.12695-0.28967 0.15504-1.5136 0.96683-1.8203 1.498-0.41505 0.71889-0.16616 1.6514 0.55273 2.0664 0.71889 0.41505 1.6514 0.1642 2.0664-0.55469 0.12379-0.2144 0.14912-0.46901 0.12305-0.65625s-0.075081-0.32496-0.10742-0.4668c-0.06469-0.28367-0.11235-0.60062 0.12891-1.2656 0.02672-0.07365 0.054539-0.16086 0.037109-0.29492s-0.1389-0.31017-0.27148-0.38672c-0.08473-0.04892-0.1864-0.07366-0.30469-0.06641zm-0.289 1.0391c-0.12299 0.47348-0.15551 0.93875-0.10547 1.1582 0.04676 0.2051 0.13532 0.29392 0.037109 0.57422-0.09821 0.2803-0.5755 0.39378-0.90234 0.20508-0.32706-0.18883-0.45788-0.62312-0.25-0.93945 0.18367-0.27951 0.45346-0.50814 1.2207-0.99805z" fill="currentColor" style="paint-order:fill markers stroke"/><path d="m3.426 18.064c-0.11829 0.0073-0.25294 0.04594-0.4043 0.12695-0.28967 0.15504-1.5136 0.96683-1.8203 1.498-0.41505 0.71889-0.16616 1.6514 0.55273 2.0664 0.71889 0.41505 1.6514 0.1642 2.0664-0.55469 0.12379-0.2144 0.14912-0.46901 0.12305-0.65625s-0.075081-0.32496-0.10742-0.4668c-0.06469-0.28367-0.11235-0.60062 0.12891-1.2656 0.02672-0.07365 0.054539-0.16086 0.037109-0.29492s-0.1389-0.31017-0.27148-0.38672c-0.08473-0.04892-0.1864-0.07366-0.30469-0.06641zm-0.289 1.0391c-0.12299 0.47348-0.15551 0.93875-0.10547 1.1582 0.04676 0.2051 0.13532 0.29392 0.037109 0.57422-0.09821 0.2803-0.5755 0.39378-0.90234 0.20508-0.32706-0.18883-0.45788-0.62312-0.25-0.93945 0.18367-0.27951 0.45346-0.50814 1.2207-0.99805z" fill="#57abff" opacity=".45318" style="paint-order:fill markers stroke"/><path d="m18.426 13.064c-0.11829 0.0073-0.25294 0.04594-0.4043 0.12695-0.28967 0.15504-1.5136 0.96683-1.8203 1.498-0.41505 0.71889-0.16616 1.6514 0.55273 2.0664 0.71889 0.41505 1.6514 0.1642 2.0664-0.55469 0.12379-0.2144 0.14912-0.46901 0.12305-0.65625s-0.07508-0.32496-0.10742-0.4668c-0.06469-0.28367-0.11235-0.60062 0.12891-1.2656 0.02672-0.07365 0.05454-0.16086 0.03711-0.29492s-0.1389-0.31017-0.27148-0.38672c-0.08473-0.04892-0.1864-0.07366-0.30469-0.06641zm-0.28906 1.0391c-0.12299 0.47348-0.15551 0.93875-0.10547 1.1582 0.04676 0.2051 0.13532 0.29392 0.03711 0.57422s-0.5755 0.39378-0.90234 0.20508c-0.32706-0.18883-0.45788-0.62312-0.25-0.93945 0.18367-0.27951 0.45346-0.50814 1.2207-0.99805z" fill="#57abff" opacity=".45318" style="paint-order:fill markers stroke"/></g><g opacity=".5" stroke-linecap="round" stroke-linejoin="round"><path class="ColorScheme-Text" d="m6.4258 13.064c-0.11829 0.0073-0.25294 0.04594-0.4043 0.12695-0.28967 0.15504-1.5136 0.96683-1.8203 1.498-0.41505 0.71889-0.16616 1.6514 0.55273 2.0664 0.71889 0.41505 1.6514 0.1642 2.0664-0.55469 0.12379-0.2144 0.14912-0.46901 0.12305-0.65625s-0.075081-0.32496-0.10742-0.4668c-0.06469-0.28367-0.11235-0.60062 0.12891-1.2656 0.02672-0.07365 0.054539-0.16086 0.037109-0.29492s-0.1389-0.31017-0.27148-0.38672c-0.08473-0.04892-0.1864-0.07366-0.30469-0.06641zm-0.289 1.0391c-0.12299 0.47348-0.15551 0.93875-0.10547 1.1582 0.04676 0.2051 0.13532 0.29392 0.037109 0.57422-0.09821 0.2803-0.5755 0.39378-0.90234 0.20508-0.32706-0.18883-0.45788-0.62312-0.25-0.93945 0.18367-0.2795 0.45346-0.50814 1.2207-0.99805zm9.289 3.9609c-0.11829 0.0073-0.25294 0.04594-0.4043 0.12695-0.28967 0.15504-1.5136 0.96683-1.8203 1.498-0.41505 0.71889-0.16616 1.6514 0.55273 2.0664 0.71889 0.41505 1.6514 0.1642 2.0664-0.55469 0.12379-0.2144 0.14912-0.46901 0.12305-0.65625s-0.07508-0.32496-0.10742-0.4668c-0.06469-0.28367-0.11235-0.60062 0.12891-1.2656 0.02672-0.07365 0.05454-0.16086 0.03711-0.29492s-0.1389-0.31017-0.27148-0.38672c-0.08473-0.04892-0.1864-0.07366-0.30469-0.06641zm-0.289 1.0391c-0.12299 0.47348-0.15551 0.93875-0.10547 1.1582 0.04676 0.2051 0.13532 0.29392 0.03711 0.57422s-0.5755 0.39378-0.90234 0.20508c-0.32706-0.18883-0.45788-0.62312-0.25-0.93945 0.18367-0.27951 0.45346-0.50814 1.2207-0.99805z" fill="currentColor" style="paint-order:fill markers stroke"/><path d="m15.426 18.064c-0.11829 0.0073-0.25294 0.04594-0.4043 0.12695-0.28967 0.15504-1.5136 0.96683-1.8203 1.498-0.41505 0.71889-0.16616 1.6514 0.55273 2.0664 0.71889 0.41505 1.6514 0.1642 2.0664-0.55469 0.12379-0.2144 0.14912-0.46901 0.12305-0.65625s-0.07508-0.32496-0.10742-0.4668c-0.06469-0.28367-0.11235-0.60062 0.12891-1.2656 0.02672-0.07365 0.05454-0.16086 0.03711-0.29492s-0.1389-0.31017-0.27148-0.38672c-0.08473-0.04892-0.1864-0.07366-0.30469-0.06641zm-0.289 1.0391c-0.12299 0.47348-0.15551 0.93875-0.10547 1.1582 0.04676 0.2051 0.13532 0.29392 0.03711 0.57422s-0.5755 0.39378-0.90234 0.20508c-0.32706-0.18883-0.45788-0.62312-0.25-0.93945 0.18367-0.27951 0.45346-0.50814 1.2207-0.99805z" fill="#57abff" opacity=".45318" style="paint-order:fill markers stroke"/><path d="m6.4259 13.064c-0.11829 0.0073-0.25294 0.04594-0.4043 0.12695-0.28967 0.15504-1.5136 0.96683-1.8203 1.498-0.41505 0.71889-0.16616 1.6514 0.55273 2.0664 0.71889 0.41505 1.6514 0.1642 2.0664-0.55469 0.12379-0.2144 0.14912-0.46901 0.12305-0.65625s-0.075081-0.32496-0.10742-0.4668c-0.06469-0.28367-0.11235-0.60062 0.12891-1.2656 0.02672-0.07365 0.054539-0.16086 0.037109-0.29492s-0.1389-0.31017-0.27148-0.38672c-0.08473-0.04892-0.1864-0.07366-0.30469-0.06641zm-0.2891 1.0391c-0.12299 0.47348-0.15551 0.93875-0.10547 1.1582 0.04676 0.2051 0.13532 0.29392 0.037109 0.57422-0.09821 0.2803-0.5755 0.39378-0.90234 0.20508-0.32706-0.18883-0.45788-0.62312-0.25-0.93945 0.18367-0.27951 0.45346-0.50814 1.2207-0.99805z" fill="#57abff" opacity=".45318" style="paint-order:fill markers stroke"/></g><path class="ColorScheme-Text" d="m17.5 9c0-3.0376-2.4624-5.5-5.5-5.5-2.7614 0-5 2.2386-5 5h-1.0417c-1.91 0-3.4583 1.5483-3.4583 3.4583v0.08346c0 0.70565 0.21135 1.3619 0.5742 1.909m17.275-0.0921c0.09791-0.26776 0.15134-0.55695 0.15134-0.85861 0-1.3807-1.1193-2.5-2.5-2.5-0.94487 0-1.7673 0.52418-2.1924 1.2976" fill="none" stroke="currentColor" stroke-linecap="round" stroke-linejoin="round" style="paint-order:fill markers stroke"/>
<path class="ColorScheme-Text" d="m10.381 11c-0.23844 8.5e-5 -0.44364 0.1685-0.49023 0.40234l-1.3 5c-0.061541 0.30922 0.17495 0.59753 0.49023 0.59766h0.89062l-0.68086 3.4023c-0.10789 0.55405 0.64148 0.83447 0.92383 0.3457l3.2-5c0.19026-0.33312-0.04997-0.74757-0.43359-0.74805h-0.69141l1.3387-3.2773c0.16516-0.33222-0.07626-0.72228-0.44727-0.72266zm0.41016 1h1.5812l-0.97734 2.5527c-0.25114 0.59751 0.1237 1.2724 0.76367 1.375l-1.382 2.1445 0.17539-0.87695c0.12308-0.61844-0.3499-1.1951-0.98047-1.1953h-0.28125z" fill="currentColor"/></svg>
