<?xml version="1.0" encoding="UTF-8"?>
<svg xmlns="http://www.w3.org/2000/svg" width="22" height="22" version="1.1" xml:space="preserve">
  <defs><style id="current-color-scheme" type="text/css">.ColorScheme-Text { color:#232629; }</style>
    </defs><g stroke-linecap="round" stroke-linejoin="round">
  <path d="m4.4258 18.064c-0.11829 0.0073-0.25294 0.04594-0.4043 0.12695-0.28967 0.15504-1.5136 0.96683-1.8203 1.498-0.41505 0.71889-0.16616 1.6514 0.55273 2.0664 0.71889 0.41505 1.6514 0.1642 2.0664-0.55469 0.12379-0.2144 0.14912-0.46901 0.12305-0.65625s-0.075081-0.32496-0.10742-0.4668c-0.06469-0.28367-0.11235-0.60062 0.12891-1.2656 0.02672-0.07365 0.054539-0.16086 0.037109-0.29492s-0.1389-0.31017-0.27148-0.38672c-0.08473-0.04892-0.1864-0.07366-0.30469-0.06641zm-0.28906 1.0391c-0.12299 0.47348-0.15551 0.93875-0.10547 1.1582 0.04676 0.2051 0.13532 0.29392 0.037109 0.57422-0.09821 0.2803-0.5755 0.39378-0.90234 0.20508-0.32706-0.18883-0.45788-0.62312-0.25-0.93945 0.18367-0.27951 0.45346-0.50814 1.2207-0.99805z" fill="currentColor" style="paint-order:fill markers stroke" class="ColorScheme-Text"/><path d="m19.426 14.064c-0.11829 0.0073-0.25294 0.04594-0.4043 0.12695-0.28967 0.15504-1.5136 0.96683-1.8203 1.498-0.41505 0.71889-0.16616 1.6514 0.55273 2.0664 0.71889 0.41505 1.6514 0.1642 2.0664-0.55469 0.12379-0.2144 0.14912-0.46901 0.12305-0.65625s-0.07508-0.32496-0.10742-0.4668c-0.06469-0.28367-0.11235-0.60062 0.12891-1.2656 0.02672-0.07365 0.05454-0.16086 0.03711-0.29492s-0.1389-0.31017-0.27148-0.38672c-0.08473-0.04892-0.1864-0.07366-0.30469-0.06641zm-0.28906 1.0391c-0.12299 0.47348-0.15551 0.93875-0.10547 1.1582 0.04676 0.2051 0.13532 0.29392 0.03711 0.57422s-0.5755 0.39378-0.90234 0.20508c-0.32706-0.18883-0.45788-0.62312-0.25-0.93945 0.18367-0.27951 0.45346-0.50814 1.2207-0.99805z" fill="currentColor" style="paint-order:fill markers stroke" class="ColorScheme-Text"/>
  <path d="m4.4258 18.064c-0.11829 0.0073-0.25294 0.04594-0.4043 0.12695-0.28967 0.15504-1.5136 0.96683-1.8203 1.498-0.41505 0.71889-0.16616 1.6514 0.55273 2.0664 0.71889 0.41505 1.6514 0.1642 2.0664-0.55469 0.12379-0.2144 0.14912-0.46901 0.12305-0.65625s-0.075081-0.32496-0.10742-0.4668c-0.06469-0.28367-0.11235-0.60062 0.12891-1.2656 0.02672-0.07365 0.054539-0.16086 0.037109-0.29492s-0.1389-0.31017-0.27148-0.38672c-0.08473-0.04892-0.1864-0.07366-0.30469-0.06641zm-0.28906 1.0391c-0.12299 0.47348-0.15551 0.93875-0.10547 1.1582 0.04676 0.2051 0.13532 0.29392 0.037109 0.57422-0.09821 0.2803-0.5755 0.39378-0.90234 0.20508-0.32706-0.18883-0.45788-0.62312-0.25-0.93945 0.18367-0.27951 0.45346-0.50814 1.2207-0.99805z" fill="#57abff" opacity=".45318" style="paint-order:fill markers stroke"/>
  <g transform="translate(1,1)">
    <path class="ColorScheme-Text" d="m17.5 9c0-3.0376-2.4624-5.5-5.5-5.5-2.7614 0-5 2.2386-5 5h-1.0417c-1.91 0-3.4583 1.5483-3.4583 3.4583v0.08346c0 0.70565 0.21135 1.3619 0.5742 1.909m17.275-0.0921c0.09791-0.26776 0.15134-0.55695 0.15134-0.85861 0-1.3807-1.1193-2.5-2.5-2.5-0.94487 0-1.7673 0.52418-2.1924 1.2976" fill="none" stroke="currentColor" style="paint-order:fill markers stroke"/>
  </g>
  <g opacity=".5"><g fill="currentColor" opacity="1" class="ColorScheme-Text"><path d="m16.426 18.064c-0.11829 0.0073-0.25294 0.04594-0.4043 0.12695-0.28967 0.15504-1.5136 0.96683-1.8203 1.498-0.41505 0.71889-0.16616 1.6514 0.55273 2.0664 0.71889 0.41505 1.6514 0.1642 2.0664-0.55469 0.12379-0.2144 0.14912-0.46901 0.12305-0.65625s-0.07508-0.32496-0.10742-0.4668c-0.06469-0.28367-0.11235-0.60062 0.12891-1.2656 0.02672-0.07365 0.05454-0.16086 0.03711-0.29492s-0.1389-0.31017-0.27148-0.38672c-0.08473-0.04892-0.1864-0.07366-0.30469-0.06641zm-0.28906 1.0391c-0.12299 0.47348-0.15551 0.93875-0.10547 1.1582 0.04676 0.2051 0.13532 0.29392 0.03711 0.57422s-0.5755 0.39378-0.90234 0.20508c-0.32706-0.18883-0.45788-0.62312-0.25-0.93945 0.18367-0.27951 0.45346-0.50814 1.2207-0.99805z" style="paint-order:fill markers stroke"/><path d="m7.4258 14.064c-0.11829 0.0073-0.25294 0.04594-0.4043 0.12695-0.28967 0.15504-1.5136 0.96683-1.8203 1.498-0.41505 0.71889-0.16616 1.6514 0.55273 2.0664 0.71889 0.41505 1.6514 0.1642 2.0664-0.55469 0.12379-0.2144 0.14912-0.46901 0.12305-0.65625s-0.075081-0.32496-0.10742-0.4668c-0.06469-0.28367-0.11235-0.60062 0.12891-1.2656 0.02672-0.07365 0.054539-0.16086 0.037109-0.29492s-0.1389-0.31017-0.27148-0.38672c-0.08473-0.04892-0.1864-0.07366-0.30469-0.06641zm-0.28906 1.0391c-0.12299 0.47348-0.15551 0.93875-0.10547 1.1582 0.04676 0.2051 0.13532 0.29392 0.037109 0.57422-0.09821 0.2803-0.5755 0.39378-0.90234 0.20508-0.32706-0.18883-0.45788-0.62312-0.25-0.93945 0.18367-0.2795 0.45346-0.50814 1.2207-0.99805z" style="paint-order:fill markers stroke"/></g><g fill="#57abff"><path d="m16.426 18.064c-0.11829 0.0073-0.25294 0.04594-0.4043 0.12695-0.28967 0.15504-1.5136 0.96683-1.8203 1.498-0.41505 0.71889-0.16616 1.6514 0.55273 2.0664 0.71889 0.41505 1.6514 0.1642 2.0664-0.55469 0.12379-0.2144 0.14912-0.46901 0.12305-0.65625s-0.07508-0.32496-0.10742-0.4668c-0.06469-0.28367-0.11235-0.60062 0.12891-1.2656 0.02672-0.07365 0.05454-0.16086 0.03711-0.29492s-0.1389-0.31017-0.27148-0.38672c-0.08473-0.04892-0.1864-0.07366-0.30469-0.06641zm-0.28906 1.0391c-0.12299 0.47348-0.15551 0.93875-0.10547 1.1582 0.04676 0.2051 0.13532 0.29392 0.03711 0.57422s-0.5755 0.39378-0.90234 0.20508c-0.32706-0.18883-0.45788-0.62312-0.25-0.93945 0.18367-0.27951 0.45346-0.50814 1.2207-0.99805z" opacity=".45318" style="paint-order:fill markers stroke"/><path d="m7.4258 14.064c-0.11829 0.0073-0.25294 0.04594-0.4043 0.12695-0.28967 0.15504-1.5136 0.96683-1.8203 1.498-0.41505 0.71889-0.16616 1.6514 0.55273 2.0664 0.71889 0.41505 1.6514 0.1642 2.0664-0.55469 0.12379-0.2144 0.14912-0.46901 0.12305-0.65625s-0.075081-0.32496-0.10742-0.4668c-0.06469-0.28367-0.11235-0.60062 0.12891-1.2656 0.02672-0.07365 0.054539-0.16086 0.037109-0.29492s-0.1389-0.31017-0.27148-0.38672c-0.08473-0.04892-0.1864-0.07366-0.30469-0.06641zm-0.28906 1.0391c-0.12299 0.47348-0.15551 0.93875-0.10547 1.1582 0.04676 0.2051 0.13532 0.29392 0.037109 0.57422-0.09821 0.2803-0.5755 0.39378-0.90234 0.20508-0.32706-0.18883-0.45788-0.62312-0.25-0.93945 0.18367-0.27951 0.45346-0.50814 1.2207-0.99805z" opacity=".45318" style="paint-order:fill markers stroke"/></g></g><path d="m19.426 14.064c-0.11829 0.0073-0.25294 0.04594-0.4043 0.12695-0.28967 0.15504-1.5136 0.96683-1.8203 1.498-0.41505 0.71889-0.16616 1.6514 0.55273 2.0664 0.71889 0.41505 1.6514 0.1642 2.0664-0.55469 0.12379-0.2144 0.14912-0.46901 0.12305-0.65625s-0.07508-0.32496-0.10742-0.4668c-0.06469-0.28367-0.11235-0.60062 0.12891-1.2656 0.02672-0.07365 0.05454-0.16086 0.03711-0.29492s-0.1389-0.31017-0.27148-0.38672c-0.08473-0.04892-0.1864-0.07366-0.30469-0.06641zm-0.28906 1.0391c-0.12299 0.47348-0.15551 0.93875-0.10547 1.1582 0.04676 0.2051 0.13532 0.29392 0.03711 0.57422s-0.5755 0.39378-0.90234 0.20508c-0.32706-0.18883-0.45788-0.62312-0.25-0.93945 0.18367-0.27951 0.45346-0.50814 1.2207-0.99805z" fill="#57abff" opacity=".45318" style="paint-order:fill markers stroke"/>
  </g><g transform="translate(.10018 5e-5)">
    
    
  </g>
<g transform="translate(1,2)">
    
    <g transform="translate(-1)">
      <path class="ColorScheme-Text" d="m11.381 10c-0.23844 8.5e-5 -0.44364 0.1685-0.49023 0.40234l-1.3 5c-0.061541 0.30922 0.17495 0.59753 0.49023 0.59766h0.89062l-0.68086 3.4023c-0.10789 0.55405 0.64148 0.83447 0.92383 0.3457l3.2-5c0.19026-0.33312-0.04997-0.74757-0.43359-0.74805h-0.69141l1.3387-3.2773c0.16516-0.33222-0.07626-0.72228-0.44727-0.72266zm0.41016 1h1.5812l-0.97734 2.5527c-0.25114 0.59751 0.1237 1.2724 0.76367 1.375l-1.382 2.1445 0.17539-0.87695c0.12308-0.61844-0.3499-1.1951-0.98047-1.1953h-0.28125z" fill="currentColor"/>
    </g>
  </g><g transform="translate(0,-1.2)">
    <path class="ColorScheme-Text" d="m8.385 1.2772c-0.022894 3.86e-4 -0.045734 0.0023-0.068359 0.0059-4.7817 0.77033-8.3029 4.9048-8.3027 9.748 1.292e-4 1.9636 0.57562 3.7951 1.5664 5.334 0.41966 0.543 1.2008 0.10726 0.72848-0.71086-0.82168-1.3459-1.2948-2.9284-1.2949-4.623-9.41e-5 -3.9119 2.6062-7.1749 6.2383-8.3301-1.057 1.6038-1.7696 3.4132-1.7695 5.3555 0 0.65534 0.99998 0.67842 0.99998 1e-5 -5.8e-5 -2.1961 0.81396-4.3148 2.2852-5.9453 0.29241-0.32572 0.054808-0.84336-0.38281-0.83398z" fill="currentColor"/>
  </g></svg>
