<?xml version="1.0" encoding="UTF-8"?>
<svg width="22" height="22" version="1.1" xml:space="preserve" xmlns="http://www.w3.org/2000/svg"><defs>
        <style id="current-color-scheme" type="text/css">.ColorScheme-Text {
                color:#232629;
            }</style>
        </defs>
    <path class="ColorScheme-Text" d="m17.5 9c0-3.0376-2.4624-5.5-5.5-5.5-2.7614 0-5 2.2386-5 5h-1.0417c-1.91 0-3.4583 1.5483-3.4583 3.4583v0.08346c0 0.90446 0.34721 1.7278 0.91562 2.3441m5.2844 1.1142h5.0999m5.7292-0.52183c0.59078-0.45726 0.97114-1.1733 0.97114-1.9782 0-1.3807-1.1193-2.5-2.5-2.5-0.94487 0-1.7673 0.52418-2.1924 1.2976" fill="none" stroke="currentColor" stroke-linecap="round" stroke-linejoin="round" style="paint-order:fill markers stroke"/><g opacity=".59259">
        <path class="ColorScheme-Text" d="m6.5 13.5c-0.55228 0-1 0.44772-1 1s0.44772 1 1 1 1-0.44772 1-1-0.44772-1-1-1zm8 4c-0.55228 0-1 0.44772-1 1s0.44772 1 1 1 1-0.44772 1-1-0.44772-1-1-1z" fill="none" stroke="currentColor" stroke-linecap="round" stroke-linejoin="round" style="paint-order:fill markers stroke"/></g>
    <path class="ColorScheme-Text" d="m16.5 13.5c-0.55228 0-1 0.44772-1 1s0.44772 1 1 1 1-0.44772 1-1-0.44772-1-1-1zm-12 4c-0.55228 0-1 0.44772-1 1s0.44772 1 1 1 1-0.44772 1-1-0.44772-1-1-1z" fill="none" stroke="currentColor" stroke-linecap="round" stroke-linejoin="round" style="paint-order:fill markers stroke"/></svg>
