<?xml version="1.0" encoding="UTF-8" standalone="no"?>
<svg xmlns="http://www.w3.org/2000/svg" xmlns:svg="http://www.w3.org/2000/svg" height="22" width="22" version="1.1" id="svg1">
  <defs id="defs1">
    <style type="text/css" id="current-color-scheme">
            .ColorScheme-Text {
                color:#232629;
            }
        </style>
  </defs>
  <path id="path29" style="fill:currentColor" class="ColorScheme-Text" d="m 12.263672,0.00585938 c -0.249825,0.0056 -0.463065,0.17873258 -0.521484,0.421875 L 11.222656,2.7753906 c -0.06599,0.2712813 0.101576,0.5459198 0.373047,0.6113282 0.05087,0.012373 0.102644,0.016866 0.152344,0.013672 0.01657,-0.00106 0.0326,-0.00319 0.04883,-0.00586 0.194755,-0.032014 0.361098,-0.1772578 0.410156,-0.3808593 L 12.814453,0.6875 C 12.886533,0.3911792 12.70466,0.0948643 12.408203,0.0234375 12.360723,0.0117665 12.310463,0.00492747 12.263672,0.00585938 Z M 7.2363281,0.13476562 C 7.1886391,0.13634562 7.1404601,0.142836 7.0957031,0.15625 6.803246,0.242363 6.6378316,0.54748165 6.7246094,0.83984375 L 7.4472656,3.1328125 C 7.5261676,3.4007831 7.8065166,3.5540676 8.0742188,3.4746094 8.1579157,3.4499654 8.2313273,3.4053904 8.2890625,3.3476562 8.3006095,3.3361093 8.3099775,3.325051 8.3203125,3.3125 8.4236633,3.186992 8.4656696,3.0129907 8.4160156,2.8457031 L 7.7832031,0.52734375 C 7.7129983,0.28834185 7.4875343,0.12885993 7.2382812,0.13476562 Z M 16.679688,2.4140625 c -0.146157,0.00366 -0.28428,0.062314 -0.384766,0.1679687 l -1.621094,1.7734376 c -0.168127,0.1767706 -0.184527,0.4438899 -0.05078,0.6367187 0.0096,0.013774 0.02016,0.028066 0.03125,0.041016 0.01109,0.012949 0.02254,0.025105 0.03516,0.037109 0.101011,0.096066 0.230433,0.141834 0.359375,0.1386719 0.01612,-3.953e-4 0.03281,-0.00197 0.04883,-0.00391 0.112138,-0.013535 0.220593,-0.063962 0.304688,-0.1523437 L 17.095703,3.3398438 C 17.305509,3.1192472 17.296778,2.774355 17.076172,2.5644531 16.970571,2.463982 16.825581,2.4104428 16.679688,2.4140625 Z M 2.9472656,2.7539062 C 2.8014574,2.7575662 2.6651029,2.8199564 2.5644531,2.9257812 2.3547195,3.146299 2.3597335,3.4954228 2.5800781,3.7050781 L 4.3554688,5.3261719 C 4.5574918,5.5183163 4.8782399,5.5124112 5.0703125,5.3105469 5.2624536,5.1085274 5.2547562,4.7898779 5.0527344,4.5976562 L 3.3417969,2.90625 C 3.2360332,2.8056147 3.0931683,2.7502879 2.9472656,2.7539062 Z M 10.109375,4.6054688 C 8.741944,4.5778254 7.3636501,5.0646036 6.2949219,6.0722656 4.1574751,8.0875811 4.0081826,11.475112 6.0039062,13.630859 7.4746937,15.219579 9,16 12,16 h 2.949219 C 16.075421,16 17,15.075421 17,13.949219 c 8.1e-5,-0.0052 8.1e-5,-0.01042 0,-0.01563 -0.03649,-1.096939 -0.966037,-1.965556 -2.0625,-1.931641 -1.082659,0.02088 -1.955821,0.922596 -1.9375,2.005859 0.0043,0.276157 0.231656,0.496536 0.507812,0.492188 0.276157,-0.0043 0.496536,-0.231656 0.492188,-0.507812 -0.0092,-0.544469 0.414516,-0.98298 0.958984,-0.992188 0.0026,2e-5 0.0052,2e-5 0.0078,0 0.555178,-0.01847 1.005883,0.4053 1.029297,0.958984 C 15.990104,14.539333 15.531159,15 14.949219,15 H 12 C 9.5371363,15 8.1161486,14.401558 6.697949,12.872503 5.1944493,11.25148 5.2445899,8.4505879 6.9902344,6.8046875 c 1.7456591,-1.6459138 4.4731466,-1.58857 6.1503906,0.1269531 0.960808,0.9827357 1.368179,2.2974675 1.224399,3.5627064 -0.07217,0.635057 0.945082,0.744738 1.011137,-0.03112 C 15.505,8.9501426 14.99936,7.3925693 13.859377,6.2265615 12.832514,5.176274 11.476804,4.6331107 10.109377,4.6054678 Z m 9.191406,2.0976562 c -0.04669,0.00161 -0.09491,0.00974 -0.140625,0.023437 l -2.292968,0.7207031 c -0.26797,0.078903 -0.421258,0.3592502 -0.341797,0.6269532 0.07887,0.2678317 0.361244,0.4212427 0.628906,0.3417968 l 2.320312,-0.632812 C 19.766912,7.6971361 19.932465,7.3899725 19.845703,7.0976562 19.775429,6.8584128 19.553736,6.6972352 19.304688,6.703125 Z M 0.54296875,7.1699219 c -0.2498212,0.0056 -0.46106625,0.178541 -0.51953125,0.421875 -0.072073,0.2962814 0.10801477,0.5965801 0.40429688,0.6679687 L 2.7734375,8.7773438 c 0.05085,0.012351 0.102545,0.016886 0.1523437,0.013672 0.0166,-0.00107 0.032557,-0.00319 0.048828,-0.00586 0.1952561,-0.032089 0.3630881,-0.177409 0.4121094,-0.3808593 0.00412,-0.016956 0.00743,-0.033852 0.00977,-0.050781 C 3.431453,8.0995694 3.2681732,7.8542906 3.0136719,7.7929688 L 0.6875,7.1835938 C 0.6410365,7.1721695 0.59080255,7.1689739 0.54296875,7.1699219 Z M 2.9746094,11.5625 c -0.042741,0.0015 -0.086981,0.009 -0.1289063,0.02148 l -2.32031248,0.63477 c -0.2923041,0.08607 -0.45785775,0.393233 -0.37109374,0.685547 0.086113,0.292457 0.39318447,0.457873 0.68554687,0.371094 L 3.1328125,12.552734 c 0.2679719,-0.0789 0.421255,-0.35925 0.3417969,-0.626953 C 3.4102622,11.706723 3.2045476,11.557117 2.9765625,11.5625 Z M 19.9375,14.001953 C 18.854841,14.022833 17.981679,14.924549 18,16.007812 18.0043,16.28397 18.231656,16.504348 18.507812,16.5 18.78397,16.4957 19.004349,16.268344 19,15.992188 18.9908,15.44772 19.414516,15.009208 19.958984,15 c 0.0026,2e-5 0.0052,2e-5 0.0078,0 0.555178,-0.01847 1.005883,0.4053 1.029297,0.958984 C 20.990104,16.539333 20.531159,17 19.949219,17 H 6.5 C 6.2238576,17 6,17.223858 6,17.5 6,17.776142 6.2238576,18 6.5,18 H 19.949219 C 21.075421,18 22,17.075421 22,15.949219 c 8.1e-5,-0.0052 8.1e-5,-0.01042 0,-0.01563 -0.03649,-1.096939 -0.966037,-1.965556 -2.0625,-1.931641 z M 4.6503906,14.894531 c -0.5836068,0.585538 -1.1639213,1.174662 -1.7441406,1.763672 -0.2105918,0.220575 -0.2034476,0.567259 0.017578,0.777344 0.2205519,0.210555 0.5712774,0.203328 0.78125,-0.01758 C 4.2637243,16.809852 4.8206249,16.199764 5.37695,15.589754 5.5769585,15.389745 5.5561605,15.030261 5.37311,14.849623 5.19576,14.674609 4.8625131,14.671547 4.6503896,14.894533 Z M 8.5,19 C 8.223858,19 8,19.223858 8,19.5 8,19.776142 8.223858,20 8.5,20 h 8 0.976562 c 0.291814,0 0.51254,0.227259 0.517579,0.517578 C 17.98256,20.794789 17.767117,21.0066 17.488281,21 c -0.0039,-4.6e-5 -0.0078,-4.6e-5 -0.01172,0 h -0.01953 C 17.198753,21 17,20.801246 17,20.542969 V 20.5 C 17,20.223858 16.776142,20 16.5,20 16.223858,20 16,20.223858 16,20.5 v 0.04297 C 16,21.341687 16.658313,22 17.457031,22 h 0.0078 c 0.822429,0.01944 1.515719,-0.642416 1.535156,-1.464844 4.6e-5,-0.0039 4.6e-5,-0.0078 0,-0.01172 C 19,19.68788 18.31212,19 17.476562,19 Z"/>
</svg>
