<?xml version="1.0" encoding="UTF-8"?>
<svg xmlns="http://www.w3.org/2000/svg" width="22" height="22" version="1.1" xml:space="preserve">
  <defs><style id="current-color-scheme" type="text/css">.ColorScheme-Text { color:#232629; }</style></defs><g fill="currentColor" stroke-linecap="round" stroke-linejoin="round" class="ColorScheme-Text"><path class="ColorScheme-Text" d="m15.426 18.064c-0.11829 0.0073-0.25294 0.04594-0.4043 0.12695-0.28967 0.15504-1.5136 0.96683-1.8203 1.498-0.41505 0.71889-0.16616 1.6514 0.55273 2.0664 0.71889 0.41505 1.6514 0.1642 2.0664-0.55469 0.12379-0.2144 0.14912-0.46901 0.12305-0.65625s-0.07508-0.32496-0.10742-0.4668c-0.06469-0.28367-0.11235-0.60062 0.12891-1.2656 0.02672-0.07365 0.05454-0.16086 0.03711-0.29492s-0.1389-0.31017-0.27148-0.38672c-0.08473-0.04892-0.1864-0.07366-0.30469-0.06641zm-0.289 1.0391c-0.12299 0.47348-0.15551 0.93875-0.10547 1.1582 0.04676 0.2051 0.13532 0.29392 0.03711 0.57422s-0.5755 0.39378-0.90234 0.20508c-0.32706-0.18883-0.45788-0.62312-0.25-0.93945 0.18367-0.2795 0.45346-0.50814 1.2207-0.99805z" style="paint-order:fill markers stroke"/><path class="ColorScheme-Text" d="m3.4258 18.064c-0.11829 0.0073-0.25294 0.04594-0.4043 0.12695-0.28967 0.15504-1.5136 0.96683-1.8203 1.498-0.41505 0.71889-0.16616 1.6514 0.55273 2.0664 0.71889 0.41505 1.6514 0.1642 2.0664-0.55469 0.12379-0.2144 0.14912-0.46901 0.12305-0.65625s-0.075081-0.32496-0.10742-0.4668c-0.06469-0.28367-0.11235-0.60062 0.12891-1.2656 0.02672-0.07365 0.054539-0.16086 0.037109-0.29492s-0.1389-0.31017-0.27148-0.38672c-0.08473-0.04892-0.1864-0.07366-0.30469-0.06641zm-0.289 1.0391c-0.12299 0.47348-0.15551 0.93875-0.10547 1.1582 0.04676 0.2051 0.13532 0.29392 0.037109 0.57422-0.09821 0.2803-0.5755 0.39378-0.90234 0.20508-0.32706-0.18883-0.45788-0.62312-0.25-0.93945 0.18367-0.2795 0.45346-0.50814 1.2207-0.99805z" style="paint-order:fill markers stroke"/><path class="ColorScheme-Text" d="m18.426 13.064c-0.11829 0.0073-0.25294 0.04594-0.4043 0.12695-0.28967 0.15504-1.5136 0.96683-1.8203 1.498-0.41505 0.71889-0.16616 1.6514 0.55273 2.0664 0.71889 0.41505 1.6514 0.1642 2.0664-0.55469 0.12379-0.2144 0.14912-0.46901 0.12305-0.65625s-0.07508-0.32496-0.10742-0.4668c-0.06469-0.28367-0.11235-0.60062 0.12891-1.2656 0.02672-0.07365 0.05454-0.16086 0.03711-0.29492s-0.1389-0.31017-0.27148-0.38672c-0.08473-0.04892-0.1864-0.07366-0.30469-0.06641zm-0.289 1.0391c-0.12299 0.47348-0.15551 0.93875-0.10547 1.1582 0.04676 0.2051 0.13532 0.29392 0.03711 0.57422s-0.5755 0.39378-0.90234 0.20508c-0.32706-0.18883-0.45788-0.62312-0.25-0.93945 0.18367-0.27951 0.45346-0.50814 1.2207-0.99805z" style="paint-order:fill markers stroke"/></g><g stroke-linecap="round" stroke-linejoin="round"><path d="m3.426 18.064c-0.11829 0.0073-0.25294 0.04594-0.4043 0.12695-0.28967 0.15504-1.5136 0.96683-1.8203 1.498-0.41505 0.71889-0.16616 1.6514 0.55273 2.0664 0.71889 0.41505 1.6514 0.1642 2.0664-0.55469 0.12379-0.2144 0.14912-0.46901 0.12305-0.65625s-0.075081-0.32496-0.10742-0.4668c-0.06469-0.28367-0.11235-0.60062 0.12891-1.2656 0.02672-0.07365 0.054539-0.16086 0.037109-0.29492s-0.1389-0.31017-0.27148-0.38672c-0.08473-0.04892-0.1864-0.07366-0.30469-0.06641zm-0.289 1.0391c-0.12299 0.47348-0.15551 0.93875-0.10547 1.1582 0.04676 0.2051 0.13532 0.29392 0.037109 0.57422-0.09821 0.2803-0.5755 0.39378-0.90234 0.20508-0.32706-0.18883-0.45788-0.62312-0.25-0.93945 0.18367-0.27951 0.45346-0.50814 1.2207-0.99805z" fill="#57abff" opacity=".45318" style="paint-order:fill markers stroke"/><path d="m18.426 13.064c-0.11829 0.0073-0.25294 0.04594-0.4043 0.12695-0.28967 0.15504-1.5136 0.96683-1.8203 1.498-0.41505 0.71889-0.16616 1.6514 0.55273 2.0664 0.71889 0.41505 1.6514 0.1642 2.0664-0.55469 0.12379-0.2144 0.14912-0.46901 0.12305-0.65625s-0.07508-0.32496-0.10742-0.4668c-0.06469-0.28367-0.11235-0.60062 0.12891-1.2656 0.02672-0.07365 0.05454-0.16086 0.03711-0.29492s-0.1389-0.31017-0.27148-0.38672c-0.08473-0.04892-0.1864-0.07366-0.30469-0.06641zm-0.28906 1.0391c-0.12299 0.47348-0.15551 0.93875-0.10547 1.1582 0.04676 0.2051 0.13532 0.29392 0.03711 0.57422s-0.5755 0.39378-0.90234 0.20508c-0.32706-0.18883-0.45788-0.62312-0.25-0.93945 0.18367-0.27951 0.45346-0.50814 1.2207-0.99805z" fill="#57abff" opacity=".45318" style="paint-order:fill markers stroke"/><path class="ColorScheme-Text" d="m7.4258 13.064c-0.11829 0.0073-0.25294 0.04594-0.4043 0.12695-0.28967 0.15504-1.5136 0.96683-1.8203 1.498-0.41505 0.71889-0.16616 1.6514 0.55273 2.0664 0.71889 0.41505 1.6514 0.1642 2.0664-0.55469 0.12379-0.2144 0.14912-0.46901 0.12305-0.65625s-0.075081-0.32496-0.10742-0.4668c-0.06469-0.28367-0.11235-0.60062 0.12891-1.2656 0.02672-0.07365 0.054539-0.16086 0.037109-0.29492s-0.1389-0.31017-0.27148-0.38672c-0.08473-0.04892-0.1864-0.07366-0.30469-0.06641zm-0.289 1.0391c-0.12299 0.47348-0.15551 0.93875-0.10547 1.1582 0.04676 0.2051 0.13532 0.29392 0.037109 0.57422-0.09821 0.2803-0.5755 0.39378-0.90234 0.20508-0.32706-0.18883-0.45788-0.62312-0.25-0.93945 0.18367-0.2795 0.45346-0.50814 1.2207-0.99805z" fill="currentColor" style="paint-order:fill markers stroke"/><path d="m15.426 18.064c-0.11829 0.0073-0.25294 0.04594-0.4043 0.12695-0.28967 0.15504-1.5136 0.96683-1.8203 1.498-0.41505 0.71889-0.16616 1.6514 0.55273 2.0664 0.71889 0.41505 1.6514 0.1642 2.0664-0.55469 0.12379-0.2144 0.14912-0.46901 0.12305-0.65625s-0.07508-0.32496-0.10742-0.4668c-0.06469-0.28367-0.11235-0.60062 0.12891-1.2656 0.02672-0.07365 0.05454-0.16086 0.03711-0.29492s-0.1389-0.31017-0.27148-0.38672c-0.08473-0.04892-0.1864-0.07366-0.30469-0.06641zm-0.289 1.0391c-0.12299 0.47348-0.15551 0.93875-0.10547 1.1582 0.04676 0.2051 0.13532 0.29392 0.03711 0.57422s-0.5755 0.39378-0.90234 0.20508c-0.32706-0.18883-0.45788-0.62312-0.25-0.93945 0.18367-0.27951 0.45346-0.50814 1.2207-0.99805z" fill="#57abff" opacity=".45318" style="paint-order:fill markers stroke"/><path d="m7.4259 13.064c-0.11829 0.0073-0.25294 0.04594-0.4043 0.12695-0.28967 0.15504-1.5136 0.96683-1.8203 1.498-0.41505 0.71889-0.16616 1.6514 0.55273 2.0664 0.71889 0.41505 1.6514 0.1642 2.0664-0.55469 0.12379-0.2144 0.14912-0.46901 0.12305-0.65625s-0.075081-0.32496-0.10742-0.4668c-0.06469-0.28367-0.11235-0.60062 0.12891-1.2656 0.02672-0.07365 0.054539-0.16086 0.037109-0.29492s-0.1389-0.31017-0.27148-0.38672c-0.08473-0.04892-0.1864-0.07366-0.30469-0.06641zm-0.2891 1.0391c-0.12299 0.47348-0.15551 0.93875-0.10547 1.1582 0.04676 0.2051 0.13532 0.29392 0.037109 0.57422-0.09821 0.2803-0.5755 0.39378-0.90234 0.20508-0.32706-0.18883-0.45788-0.62312-0.25-0.93945 0.18367-0.27951 0.45346-0.50814 1.2207-0.99805z" fill="#57abff" opacity=".45318" style="paint-order:fill markers stroke"/><path class="ColorScheme-Text" d="m18.5 9c0-3.0376-2.4624-5.5-5.5-5.5-2.7614 0-5 2.2386-5 5h-1.0417c-1.91 0-3.4583 1.5483-3.4583 3.4583v0.08346c0 0.70565 0.21135 1.3619 0.5742 1.909m17.275-0.0921c0.09791-0.26776 0.15134-0.55695 0.15134-0.85861 0-1.3807-1.1193-2.5-2.5-2.5-0.94487 0-1.7673 0.52418-2.1924 1.2976" fill="none" stroke="currentColor" style="paint-order:fill markers stroke"/></g><g fill="currentColor" class="ColorScheme-Text">
<path class="ColorScheme-Text" d="m13 3.5c-2.7614 0-5 2.2386-5 5-2.43-0.18834-4.1039 1.0041-4.5 3.459v0.08203c0 0.90446 0.34761 1.7294 0.91602 2.3457 0.34014-0.12968 0.51127-0.15991 0.5957-0.13476 0.12642-1.2568 1.2005-2.252 2.4883-2.252 0.68048 0 1.2973 0.28311 1.75 0.73047l0.66602-2.5547c0.15068-0.67953 0.76633-1.1755 1.4648-1.1758h2.8008c1.0509 0.0011 1.7874 1.1634 1.3652 2.1133l-0.92578 2.2715c0.25153 0.15879 0.50501 0.23787 0.63281 0.50586 0.30055-1.0434 1.1113-1.8906 2.246-1.8906 1.3716 0 2.5 1.1284 2.5 2.5 0 0.1448-0.013 0.28745-0.03711 0.42578 0.31468 0.02873 0.56641 0.05273 0.56641 0.05273 0.59078-0.45725 0.9707-1.1736 0.9707-1.9785 0-1.283-0.96629-2.3412-2.2109-2.4844v-0.01563c0-1.2773-0.81641 0.72431-0.81641-1.3418 0-0.04851-0.0087-0.09634-0.02148-0.14062l0.04882-0.017578c0-3.0376-2.4624-5.5-5.5-5.5z" opacity=".3" style="paint-order:fill markers stroke"/><path class="ColorScheme-Text" d="m11.38 10c-0.23844 8.5e-5 -0.44364 0.1685-0.49023 0.40234l-1.3 5c-0.061541 0.30922 0.17495 0.59753 0.49023 0.59766h0.89062l-0.68086 3.4023c-0.10789 0.55405 0.64148 0.83447 0.92383 0.3457l3.2-5c0.19026-0.33312-0.04997-0.74757-0.43359-0.74805h-0.69141l1.3387-3.2773c0.16516-0.33222-0.07626-0.72228-0.44727-0.72266zm0.41016 1h1.5812l-0.97734 2.5527c-0.25114 0.59751 0.1237 1.2724 0.76367 1.375l-1.382 2.1445 0.17539-0.87695c0.12308-0.61844-0.3499-1.1951-0.98047-1.1953h-0.28125z"/><path class="ColorScheme-Text" d="m20.426 18.064c-0.11829 0.0073-0.25294 0.04594-0.4043 0.12695-0.28967 0.15504-1.5136 0.96683-1.8203 1.498-0.41505 0.71889-0.16616 1.6514 0.55273 2.0664 0.71889 0.41505 1.6514 0.1642 2.0664-0.55469 0.12379-0.2144 0.14912-0.46901 0.12305-0.65625s-0.07508-0.32496-0.10742-0.4668c-0.06469-0.28367-0.11235-0.60062 0.12891-1.2656 0.02672-0.07365 0.05454-0.16086 0.03711-0.29492s-0.1389-0.31017-0.27148-0.38672c-0.08473-0.04892-0.1864-0.07366-0.30469-0.06641zm-0.289 1.0391c-0.12299 0.47348-0.15551 0.93875-0.10547 1.1582 0.04676 0.2051 0.13532 0.29392 0.03711 0.57422s-0.5755 0.39378-0.90234 0.20508c-0.32706-0.18883-0.45788-0.62312-0.25-0.93945 0.18367-0.2795 0.45346-0.50814 1.2207-0.99805z" stroke-linecap="round" stroke-linejoin="round" style="paint-order:fill markers stroke"/></g><g stroke-linecap="round" stroke-linejoin="round"><path d="m20.426 18.064c-0.11829 0.0073-0.25294 0.04594-0.4043 0.12695-0.28967 0.15504-1.5136 0.96683-1.8203 1.498-0.41505 0.71889-0.16616 1.6514 0.55273 2.0664 0.71889 0.41505 1.6514 0.1642 2.0664-0.55469 0.12379-0.2144 0.14912-0.46901 0.12305-0.65625s-0.07508-0.32496-0.10742-0.4668c-0.06469-0.28367-0.11235-0.60062 0.12891-1.2656 0.02672-0.07365 0.05454-0.16086 0.03711-0.29492s-0.1389-0.31017-0.27148-0.38672c-0.08473-0.04892-0.1864-0.07366-0.30469-0.06641zm-0.289 1.0391c-0.12299 0.47348-0.15551 0.93875-0.10547 1.1582 0.04676 0.2051 0.13532 0.29392 0.03711 0.57422s-0.5755 0.39378-0.90234 0.20508c-0.32706-0.18883-0.45788-0.62312-0.25-0.93945 0.18367-0.27951 0.45346-0.50814 1.2207-0.99805z" fill="#57abff" opacity=".45318" style="paint-order:fill markers stroke"/><path class="ColorScheme-Text" d="m9.4258 18.064c-0.11829 0.0073-0.25294 0.04594-0.4043 0.12695-0.28967 0.15504-1.5136 0.96683-1.8203 1.498-0.41505 0.71889-0.16616 1.6514 0.55273 2.0664 0.71889 0.41505 1.6514 0.1642 2.0664-0.55469 0.12379-0.2144 0.14912-0.46901 0.12305-0.65625s-0.07508-0.32496-0.10742-0.4668c-0.06469-0.28367-0.11235-0.60062 0.12891-1.2656 0.02672-0.07365 0.05454-0.16086 0.03711-0.29492s-0.1389-0.31017-0.27148-0.38672c-0.08473-0.04892-0.1864-0.07366-0.30469-0.06641zm-0.289 1.0391c-0.12299 0.47348-0.15551 0.93875-0.10547 1.1582 0.04676 0.2051 0.13532 0.29392 0.03711 0.57422s-0.5755 0.39378-0.90234 0.20508c-0.32706-0.18883-0.45788-0.62312-0.25-0.93945 0.18367-0.2795 0.45346-0.50814 1.2207-0.99805z" fill="currentColor" style="paint-order:fill markers stroke"/><path d="m9.426 18.064c-0.11829 0.0073-0.25294 0.04594-0.4043 0.12695-0.28967 0.15504-1.5136 0.96683-1.8203 1.498-0.41505 0.71889-0.16616 1.6514 0.55273 2.0664 0.71889 0.41505 1.6514 0.1642 2.0664-0.55469 0.12379-0.2144 0.14912-0.46901 0.12305-0.65625s-0.07508-0.32496-0.10742-0.4668c-0.06469-0.28367-0.11235-0.60062 0.12891-1.2656 0.02672-0.07365 0.05454-0.16086 0.03711-0.29492s-0.1389-0.31017-0.27148-0.38672c-0.08473-0.04892-0.1864-0.07366-0.30469-0.06641zm-0.289 1.0391c-0.12299 0.47348-0.15551 0.93875-0.10547 1.1582 0.04676 0.2051 0.13532 0.29392 0.03711 0.57422s-0.5755 0.39378-0.90234 0.20508c-0.32706-0.18883-0.45788-0.62312-0.25-0.93945 0.18367-0.27951 0.45346-0.50814 1.2207-0.99805z" fill="#57abff" opacity=".45318" style="paint-order:fill markers stroke"/></g><path class="ColorScheme-Text" d="m7.2367 0.13477c-0.04769 0.00158-0.09587 0.008071-0.14062 0.021484-0.29246 0.086113-0.45787 0.39123-0.37109 0.68359l0.72266 2.293c0.0789 0.26797 0.35925 0.42126 0.62695 0.3418 0.0837-0.024644 0.15711-0.069222 0.21484-0.12695 0.01155-0.011547 0.02091-0.022605 0.03125-0.035156 0.10335-0.12551 0.14536-0.29951 0.0957-0.4668l-0.63281-2.3184c-0.07021-0.239-0.29567-0.39848-0.54492-0.39258h-0.0019zm-4.2886 2.6191c-0.14581 0.00366-0.28216 0.066045-0.38281 0.17188-0.20973 0.22052-0.20472 0.56964 0.01563 0.7793l1.7754 1.6211c0.20202 0.19214 0.52277 0.18624 0.71484-0.015625 0.19214-0.20202 0.18444-0.52067-0.01758-0.71289l-1.7109-1.6914c-0.10576-0.10064-0.24863-0.15596-0.39453-0.15234zm-2.4043 4.416c-0.24982 0.0056-0.46107 0.17854-0.51953 0.42188-0.07207 0.29628 0.10801 0.59658 0.4043 0.66797l2.3457 0.51758c0.05085 0.012351 0.10254 0.016886 0.15234 0.013672 0.0166-0.00107 0.03256-0.00319 0.04883-0.00586 0.19526-0.032089 0.36309-0.17741 0.41211-0.38086 0.0041-0.016956 0.0074-0.033852 0.0098-0.050781 0.03496-0.25395-0.12831-0.49922-0.38281-0.56055l-2.3262-0.60938c-0.04647-0.011423-0.0967-0.014619-0.14453-0.013671z" fill="currentColor"/><path class="ColorScheme-Text" d="m5.2267 8.899c0.25296-1.0961 0.88117-2.0977 1.8192-2.8068 0.62503-0.47253 1.3375-0.77733 2.0758-0.9117" fill="none" stroke="currentColor" stroke-linecap="round" stroke-linejoin="round" style="paint-order:fill markers stroke"/></svg>
