<?xml version="1.0" encoding="UTF-8"?>
<svg xmlns="http://www.w3.org/2000/svg" width="22" height="22" version="1.1" xml:space="preserve">
  <defs>
    <style id="current-color-scheme" type="text/css">.ColorScheme-Text { color:#232629; }</style>
  </defs>
  <g stroke-linecap="round" stroke-linejoin="round">
    <path class="ColorScheme-Text" d="m12.426 13.064c-0.11829 0.0073-0.25294 0.04594-0.4043 0.12695-0.28967 0.15504-1.5136 0.96683-1.8203 1.498-0.41505 0.71889-0.16616 1.6514 0.55273 2.0664 0.71889 0.41505 1.6514 0.1642 2.0664-0.55469 0.12379-0.2144 0.14912-0.46901 0.12305-0.65625-0.02607-0.18724-0.07508-0.32496-0.10742-0.4668-0.064691-0.28367-0.11235-0.60062 0.12891-1.2656 0.02672-0.07365 0.054539-0.16086 0.037109-0.29492s-0.1389-0.31017-0.27148-0.38672c-0.08473-0.04892-0.1864-0.073656-0.30469-0.066406zm-0.28906 1.0391c-0.12299 0.47348-0.15551 0.93875-0.10547 1.1582 0.04676 0.2051 0.13532 0.29392 0.037109 0.57422-0.09821 0.2803-0.5755 0.39378-0.90234 0.20508-0.32706-0.18883-0.45788-0.62312-0.25-0.93945 0.18367-0.27951 0.45346-0.50814 1.2207-0.99805zm-7.7109 3.9609c-0.11829 0.0073-0.25294 0.04594-0.4043 0.12695-0.28967 0.15504-1.5136 0.96683-1.8203 1.498-0.41505 0.71889-0.16616 1.6514 0.55273 2.0664 0.71889 0.41505 1.6514 0.1642 2.0664-0.55469 0.12379-0.2144 0.14912-0.46901 0.12305-0.65625-0.02607-0.18724-0.075081-0.32496-0.10742-0.4668-0.06469-0.28367-0.11235-0.60062 0.12891-1.2656 0.02672-0.07365 0.054539-0.16086 0.037109-0.29492s-0.1389-0.31017-0.27148-0.38672c-0.08473-0.04892-0.1864-0.073656-0.30469-0.066406zm12 0c-0.11829 0.0073-0.25294 0.04594-0.4043 0.12695-0.28967 0.15504-1.5136 0.96683-1.8203 1.498-0.41505 0.71889-0.16616 1.6514 0.55273 2.0664 0.71889 0.41505 1.6514 0.1642 2.0664-0.55469 0.12379-0.2144 0.14912-0.46901 0.12305-0.65625-0.02607-0.18724-0.07508-0.32496-0.10742-0.4668-0.06469-0.28367-0.11235-0.60062 0.12891-1.2656 0.02672-0.07365 0.054539-0.16086 0.037109-0.29492s-0.1389-0.31017-0.27148-0.38672c-0.08473-0.04892-0.1864-0.073656-0.30469-0.066406zm-12.289 1.0391c-0.12299 0.47348-0.15551 0.93875-0.10547 1.1582 0.04676 0.2051 0.13532 0.29392 0.037109 0.57422-0.09821 0.2803-0.5755 0.39378-0.90234 0.20508-0.32706-0.18883-0.45788-0.62312-0.25-0.93945 0.18367-0.27951 0.45346-0.50814 1.2207-0.99805zm12 0c-0.12299 0.47348-0.15551 0.93875-0.10547 1.1582 0.04676 0.2051 0.13532 0.29392 0.037109 0.57422-0.09821 0.2803-0.5755 0.39378-0.90234 0.20508-0.32706-0.18883-0.45788-0.62312-0.25-0.93945 0.18367-0.27951 0.45346-0.50814 1.2207-0.99805z" fill="currentColor" style="paint-order:fill markers stroke"/>
    <path d="m12.426 13.064c-0.11829 0.0073-0.25294 0.04594-0.4043 0.12695-0.28967 0.15504-1.5136 0.96683-1.8203 1.498-0.41505 0.71889-0.16616 1.6514 0.55273 2.0664 0.71889 0.41505 1.6514 0.1642 2.0664-0.55469 0.12379-0.2144 0.14912-0.46901 0.12305-0.65625-0.02607-0.18724-0.07508-0.32496-0.10742-0.4668-0.064691-0.28367-0.11235-0.60062 0.12891-1.2656 0.02672-0.07365 0.054539-0.16086 0.037109-0.29492s-0.1389-0.31017-0.27148-0.38672c-0.08473-0.04892-0.1864-0.073656-0.30469-0.066406zm-0.28906 1.0391c-0.12299 0.47348-0.15551 0.93875-0.10547 1.1582 0.04676 0.2051 0.13532 0.29392 0.037109 0.57422-0.09821 0.2803-0.5755 0.39378-0.90234 0.20508-0.32706-0.18883-0.45788-0.62312-0.25-0.93945 0.18367-0.27951 0.45346-0.50814 1.2207-0.99805zm-7.7109 3.9609c-0.11829 0.0073-0.25294 0.04594-0.4043 0.12695-0.28967 0.15504-1.5136 0.96683-1.8203 1.498-0.41505 0.71889-0.16616 1.6514 0.55273 2.0664 0.71889 0.41505 1.6514 0.1642 2.0664-0.55469 0.12379-0.2144 0.14912-0.46901 0.12305-0.65625-0.02607-0.18724-0.075081-0.32496-0.10742-0.4668-0.06469-0.28367-0.11235-0.60062 0.12891-1.2656 0.02672-0.07365 0.054539-0.16086 0.037109-0.29492s-0.1389-0.31017-0.27148-0.38672c-0.08473-0.04892-0.1864-0.073656-0.30469-0.066406zm12 0c-0.11829 0.0073-0.25294 0.04594-0.4043 0.12695-0.28967 0.15504-1.5136 0.96683-1.8203 1.498-0.41505 0.71889-0.16616 1.6514 0.55273 2.0664 0.71889 0.41505 1.6514 0.1642 2.0664-0.55469 0.12379-0.2144 0.14912-0.46901 0.12305-0.65625-0.02607-0.18724-0.07508-0.32496-0.10742-0.4668-0.06469-0.28367-0.11235-0.60062 0.12891-1.2656 0.02672-0.07365 0.054539-0.16086 0.037109-0.29492s-0.1389-0.31017-0.27148-0.38672c-0.08473-0.04892-0.1864-0.073656-0.30469-0.066406zm-12.289 1.0391c-0.12299 0.47348-0.15551 0.93875-0.10547 1.1582 0.04676 0.2051 0.13532 0.29392 0.037109 0.57422-0.09821 0.2803-0.5755 0.39378-0.90234 0.20508-0.32706-0.18883-0.45788-0.62312-0.25-0.93945 0.18367-0.27951 0.45346-0.50814 1.2207-0.99805zm12 0c-0.12299 0.47348-0.15551 0.93875-0.10547 1.1582 0.04676 0.2051 0.13532 0.29392 0.037109 0.57422-0.09821 0.2803-0.5755 0.39378-0.90234 0.20508-0.32706-0.18883-0.45788-0.62312-0.25-0.93945 0.18367-0.27951 0.45346-0.50814 1.2207-0.99805z" fill="#57abff" opacity=".45" style="paint-order:fill markers stroke"/>
    <path class="ColorScheme-Text" d="m17.5 9c0-3.0376-2.4624-5.5-5.5-5.5-2.7614 0-5 2.2386-5 5h-1.0417c-1.91 0-3.4583 1.5483-3.4583 3.4583v0.08346c0 0.90446 0.34721 1.7278 0.91562 2.3441m5.364 1.1142h0.36022m5.5602 0h-0.40006m6.049-1.6414c0.09791-0.26776 0.15134-0.55695 0.15134-0.85861 0-1.3807-1.1193-2.5-2.5-2.5-0.94487 0-1.7673 0.52418-2.1924 1.2976" fill="none" stroke="currentColor" style="paint-order:fill markers stroke"/>
    <path class="ColorScheme-Text" d="m5.5195 13.945c-0.1464-0.0012-0.28471 0.06685-0.37305 0.18359-0.14192 0.18939-0.11834 0.45547 0.054687 0.61719l0.013672 0.01367-0.62891 0.34961c-0.4774 0.27283-0.16616 1.003 0.36133 0.84766l0.019531-0.0059-0.011719 0.72266c-0.00228 0.5504 0.78523 0.64631 0.91406 0.11133l0.00391-0.01953 0.61914 0.37109c0.47525 0.2777 0.95153-0.35679 0.55273-0.73633l-0.013675-0.01363 0.62891-0.34961c0.49135-0.26858 0.17303-1.0171-0.36133-0.84961l-0.017578 0.0059 0.00977-0.71875c0.00467-0.55166-0.785-0.64948-0.91406-0.11328l-0.00391 0.01758-0.61914-0.36914c-0.071023-0.04196-0.15192-0.06421-0.23438-0.06445zm12 0c-0.1464-0.0012-0.28471 0.06685-0.37305 0.18359-0.14192 0.18939-0.11834 0.45547 0.05469 0.61719l0.01367 0.01367-0.62891 0.34961c-0.4774 0.27283-0.16616 1.003 0.36133 0.84766l0.01953-0.0059-0.01172 0.72266c-0.0023 0.5504 0.78523 0.64632 0.91406 0.11133l0.0039-0.01953 0.61914 0.37109c0.47525 0.2777 0.95153-0.35679 0.55273-0.73633l-0.01367-0.01367 0.62891-0.34961c0.49135-0.26858 0.17303-1.0171-0.36133-0.84961l-0.01758 0.0059 0.0098-0.71875c0.0047-0.55162-0.78501-0.64948-0.91406-0.11328l-0.0039 0.01758-0.61914-0.36914c-0.07102-0.04196-0.15192-0.06421-0.23438-0.06445zm-11.637 1.0254 0.10156 0.060547c0.17033 0.07672 0.36299 0.08785 0.54102 0.03125l-0.00195 0.11914c0.017352 0.18619 0.10291 0.3594 0.24023 0.48633l-0.10156 0.05664c-0.15246 0.10816-0.25958 0.26884-0.30078 0.45117l-0.097656-0.06055c-0.16952-0.07687-0.36139-0.08869-0.53906-0.0332l0.00195-0.11523c-0.01495-0.18869-0.099949-0.36495-0.23828-0.49414l0.097656-0.05273c0.1506-0.10836 0.25622-0.2682 0.29688-0.44922zm12 0 0.10156 0.06055c0.17033 0.07672 0.36299 0.08785 0.54102 0.03125l-2e-3 0.11914c0.01735 0.18619 0.10291 0.3594 0.24023 0.48633l-0.10156 0.05664c-0.15246 0.10816-0.25958 0.26884-0.30078 0.45117l-0.09766-0.06055c-0.16952-0.07687-0.36139-0.08869-0.53906-0.0332l2e-3 -0.11523c-0.01495-0.18869-0.09995-0.36495-0.23828-0.49414l0.09766-0.05273c0.1506-0.10836 0.29687-0.26369 0.29687-0.44922zm-7.7484 3.7746c-0.08245 2.41e-4 -0.16336 0.022494-0.23438 0.064454l-0.61914 0.36914-0.00391-0.01758c-0.12905-0.5362-0.91876-0.43834-0.91406 0.11328l0.00977 0.71875-0.017578-0.0059c-0.53436-0.16745-0.85268 0.58107-0.36133 0.84965l0.62891 0.34961-0.013672 0.01367c-0.3988 0.37954 0.077484 1.014 0.55273 0.73633l0.61914-0.37109 0.00391 0.01953c0.12883 0.53499 0.91636 0.43907 0.91406-0.11133l-0.01172-0.72266 0.01953 0.0059c0.52749 0.15534 0.83873-0.57483 0.36133-0.84766l-0.62891-0.34961 0.01367-0.01367c0.17303-0.16172 0.19661-0.4278 0.05469-0.61719-0.08834-0.11674-0.22665-0.18479-0.37305-0.18359zm-0.36328 1.0254c0.04065 0.18102 0.14628 0.34086 0.29688 0.44922l0.09766 0.05273c-0.13833 0.12919-0.22333 0.30545-0.23828 0.49414l0.00195 0.11523c-0.17767-0.05549-0.36954-0.04367-0.53906 0.0332l-0.097656 0.06055c-0.0412-0.18233-0.14832-0.34301-0.30078-0.45117l-0.10156-0.05664c0.13732-0.12693 0.22288-0.30014 0.24023-0.48633l-0.0019545-0.11914c0.17803 0.0566 0.37069 0.04547 0.54102-0.03125z" fill="currentColor" opacity=".5" style="paint-order:fill markers stroke"/>
  </g>
</svg>
