<?xml version="1.0" encoding="UTF-8" standalone="no"?>
<svg
   height="22"
   width="22"
   version="1.1"
   id="svg1"
   xmlns="http://www.w3.org/2000/svg"
   xmlns:svg="http://www.w3.org/2000/svg">
  <defs
     id="defs1">
    <style
       type="text/css"
       id="current-color-scheme">
            .ColorScheme-Text {
                color:#232629;
            }
        </style>
  </defs>
  <path
     id="path29"
     style="fill:currentColor"
     class="ColorScheme-Text"
     d="m 12.910156,2.5371094 c -0.225287,0.00505 -0.418058,0.1617514 -0.470703,0.3808594 l -0.34375,1.421875 c -0.06491,0.2668021 0.100236,0.5372429 0.367188,0.6015624 0.266802,0.064901 0.535288,-0.1002441 0.599609,-0.3671874 l 0.341797,-1.421875 c 0.0649,-0.2668022 -0.09828,-0.53529 -0.365235,-0.5996094 -0.04199,-0.010322 -0.08567,-0.016485 -0.128906,-0.015625 z M 8.6699219,2.6445312 c -0.04322,0.00129 -0.087485,0.00712 -0.1289063,0.019531 C 8.2776137,2.7416195 8.1288996,3.0180181 8.2070312,3.28125 L 8.6191406,4.6855469 C 8.6966975,4.9489487 8.9730961,5.099616 9.2363281,5.0214844 9.49973,4.9439275 9.6503974,4.6675289 9.5722656,4.4042969 L 9.1601562,3 C 9.0966467,2.7837913 8.89518,2.6383324 8.6699219,2.6445312 Z m 7.9648441,1.921875 c -0.131608,0.0033 -0.256929,0.058902 -0.347657,0.1542969 L 15.279297,5.78125 c -0.188915,0.1986274 -0.181015,0.5141695 0.01758,0.703125 0.198627,0.188914 0.512216,0.1810106 0.701172,-0.017578 l 1.009765,-1.0625 C 17.196725,5.2056699 17.188826,4.8920803 16.990234,4.703125 16.894854,4.612377 16.766374,4.5631408 16.634766,4.5664062 Z M 5.0507812,4.8554688 C 4.9191736,4.8587688 4.7938524,4.9143727 4.703125,5.0097656 4.514211,5.208393 4.5221144,5.5239357 4.7207031,5.7128906 L 5.78125,6.7207031 C 5.9798771,6.9096177 6.2954197,6.9017131 6.484375,6.703125 6.67329,6.5044975 6.6653858,6.1909083 6.4667969,6.0019531 L 5.40625,4.9921875 C 5.3108765,4.9014387 5.1823888,4.8522046 5.0507812,4.8554688 Z M 11.101562,6 C 9.834418,5.974384 8.5567174,6.4256493 7.5664062,7.359375 5.5857854,9.2268254 5.465615,12.351104 7.296875,14.365234 7.4816089,14.569108 7.7970421,14.584181 8,14.398438 8.2007499,14.213562 8.2148235,13.901161 8.03125,13.699219 6.5566641,12.077385 6.6551436,9.5857594 8.25,8.0820312 c 1.5948556,-1.503727 4.086766,-1.4521153 5.619141,0.1152344 1.532377,1.5673493 1.523698,4.0586194 -0.01563,5.6191404 -1.071475,1.086222 -2.602099,1.431456 -3.9707035,1.035156 C 8.6572292,14.496676 7.0674437,14.41566 6.0507812,15.484375 L 4.9941406,16.59375 c -0.189464,0.198106 -0.1824429,0.513621 0.015625,0.703125 0.1986275,0.188915 0.5141697,0.181016 0.703125,-0.01758 l 1.0546875,-1.111328 c 0.6227463,-0.65463 1.8004496,-0.661735 2.8378907,-0.361328 1.7084792,0.494718 3.6263872,0.05599 4.9570312,-1.292969 1.911664,-1.937982 1.916699,-5.0652568 0.01367,-7.0117189 C 13.624648,6.5287244 12.368705,6.0256157 11.101562,6 Z m 7.744141,2.1855469 c -0.04322,0.0013 -0.08553,0.00907 -0.126953,0.021484 l -1.404297,0.4121094 c -0.263401,0.077557 -0.41407,0.3539547 -0.335937,0.6171875 0.07756,0.2634023 0.353954,0.4140689 0.617187,0.3359375 L 19,9.1601562 C 19.263402,9.0825992 19.414068,8.8042473 19.335938,8.5410156 19.272428,8.3248069 19.070962,8.1793479 18.845703,8.1855469 Z M 3.0234375,8.5800781 c -0.2252869,0.00505 -0.4180589,0.1617516 -0.4707031,0.3808594 -0.064902,0.2668022 0.098291,0.5352899 0.3652344,0.5996094 l 1.421875,0.34375 C 4.6066458,9.9691985 4.8770868,9.8040521 4.9414062,9.5371094 5.0063084,9.2703072 4.8411617,9.0018197 4.5742188,8.9375 L 3.1523438,8.59375 C 3.1103569,8.5834264 3.0666653,8.5792213 3.0234375,8.5800781 Z M 17.53125,12.082031 c -0.225287,0.0051 -0.420011,0.161752 -0.472656,0.38086 -0.0649,0.266803 0.100234,0.53529 0.367187,0.599609 l 1.421875,0.341797 c 0.266802,0.0649 0.535291,-0.09828 0.59961,-0.365235 0.0649,-0.266802 -0.09828,-0.535289 -0.365235,-0.599609 l -1.421875,-0.34375 c -0.04199,-0.01032 -0.08567,-0.01453 -0.128906,-0.01367 z m -13,0.324219 c -0.043218,0.0013 -0.085534,0.0091 -0.1269531,0.02148 L 3,12.839844 c -0.2634014,0.07756 -0.414069,0.355909 -0.3359375,0.61914 0.077557,0.263401 0.3539551,0.412118 0.6171875,0.333985 l 1.4042969,-0.41211 C 4.9489493,13.303298 5.0996157,13.026905 5.0214844,12.763672 4.9579743,12.547464 4.7565114,12.400047 4.53125,12.40625 Z m 11.146484,2.560547 c -0.131608,0.0032 -0.254974,0.0589 -0.345703,0.154297 -0.188915,0.198627 -0.181015,0.512216 0.01758,0.701172 l 1.244141,1.185546 c 0.03139,0.03012 0.06732,0.05524 0.105469,0.07617 0.01901,0.0098 0.03845,0.01811 0.05859,0.02539 0.08097,0.03167 0.169887,0.04226 0.25586,0.0293 0.108276,-0.01692 0.207748,-0.06896 0.283203,-0.148438 0.01488,-0.0156 0.0283,-0.03339 0.04102,-0.05078 0.146873,-0.201374 0.122012,-0.480569 -0.05859,-0.652344 l -1.246094,-1.183593 c -0.09538,-0.09075 -0.223862,-0.139984 -0.355469,-0.136719 z m -2.787109,1.992187 c -0.04322,0.0013 -0.08553,0.0072 -0.126953,0.01953 -0.263401,0.07756 -0.41407,0.353953 -0.335938,0.617187 L 12.839844,19 c 0.07756,0.263403 0.355908,0.414071 0.61914,0.335938 0.263402,-0.07756 0.412117,-0.353954 0.333985,-0.617188 l -0.41211,-1.404297 c -0.06351,-0.21621 -0.264973,-0.36167 -0.490234,-0.355469 z m -3.4824219,0.08594 C 9.1829163,17.050022 8.9901447,17.206675 8.9375,17.425781 l -0.3417969,1.421875 c -0.064901,0.266803 0.098291,0.535292 0.3652344,0.59961 0.266802,0.0649 0.53529,-0.09829 0.5996094,-0.365235 l 0.34375,-1.421875 c 0.064901,-0.266804 -0.1002442,-0.537243 -0.3671875,-0.601562 -0.041992,-0.01031 -0.085671,-0.01454 -0.1289063,-0.01367 z" />
</svg>
