<?xml version="1.0" encoding="UTF-8" standalone="no"?>
<svg
   height="22"
   width="22"
   version="1.1"
   id="svg1">

  <defs
     id="defs1">
    <style
       type="text/css"
       id="current-color-scheme">
            .ColorScheme-Text {
                color:#232629;
            }
        </style>
  </defs>
  <path
     id="path29"
     style="fill:currentColor"
     class="ColorScheme-Text"
     d="m 13.074219,1.84375 c -0.228873,0.00513 -0.424996,0.1639681 -0.478516,0.3867188 l -0.373047,1.5449218 c -0.066,0.2712882 0.101569,0.5459181 0.373047,0.6113281 0.271288,0.065992 0.545917,-0.1015781 0.611328,-0.3730468 L 13.578125,2.46875 c 0.06604,-0.2714692 -0.0995,-0.5439386 -0.371094,-0.609375 -0.0435,-0.010692 -0.08995,-0.016478 -0.132812,-0.015625 z M 8.46875,1.9609375 c -0.043689,0.00145 -0.087903,0.00724 -0.1289062,0.019531 C 8.0719143,2.0593593 7.9205,2.3395796 8,2.6074219 L 8.4472656,4.1328125 C 8.5261678,4.4007831 8.8065168,4.5540676 9.0742188,4.4746094 9.3420489,4.3957485 9.4954618,4.1133633 9.4160156,3.8457031 L 8.96875,2.3203125 C 8.904433,2.1013551 8.699052,1.9555271 8.4707031,1.9609375 Z m 8.650391,2.0878906 c -0.133898,0.00335 -0.259505,0.057503 -0.351563,0.1542969 l -1.09375,1.1523437 c -0.192145,0.2020237 -0.186244,0.522771 0.01563,0.7148438 0.202019,0.19214 0.520668,0.1844436 0.712891,-0.017578 L 17.5,4.8984375 C 17.69221,4.6963419 17.684527,4.379798 17.482422,4.1875 17.385678,4.0954551 17.252798,4.0455119 17.119141,4.0488281 Z m -12.5800785,0.3125 C 4.4054828,4.3646776 4.2797086,4.4206278 4.1875,4.5175781 3.9953561,4.7196014 4.0012601,5.0403498 4.203125,5.2324219 l 1.1523437,1.09375 C 5.5574918,6.5183163 5.8782399,6.5124112 6.0703125,6.3105469 6.2624536,6.1085274 6.2547562,5.7898779 6.0527344,5.5976562 L 4.9003906,4.5 C 4.803497,4.4078047 4.6727287,4.3580129 4.5390625,4.3613281 Z M 11.109375,5.6054687 C 9.741944,5.5778254 8.3636501,6.0646036 7.2949219,7.0722656 5.1574751,9.0875811 5.0276485,12.457253 7.0039062,14.630859 7.1918456,14.838271 7.5123835,14.854879 7.71875,14.666016 7.9228862,14.478021 7.93671,14.16047 7.75,13.955078 6.1359642,12.179869 6.2445899,9.4505879 7.9902344,7.8046875 9.7358935,6.1587737 12.463382,6.2161165 14.140625,7.9316406 15.817888,9.6471824 15.809852,12.375937 14.125,14.083984 12.95221,15.272917 11.275668,15.650658 9.7773438,15.216797 8.4526795,14.833219 6.7413965,14.747667 5.6503906,15.894531 l -1.1484375,1.205078 c -0.1926226,0.201409 -0.1857954,0.522132 0.015625,0.714844 0.2019433,0.192068 0.5226984,0.184368 0.7148438,-0.01758 L 6.3769531,16.589844 C 7.068417,15.862979 8.362408,15.859224 9.4960938,16.1875 c 1.8435062,0.533818 3.9116152,0.05932 5.3476562,-1.396484 2.063015,-2.091418 2.069329,-5.4638745 0.01563,-7.5644535 -1.026863,-1.0502875 -2.382573,-1.5934508 -3.75,-1.6210938 z m 8.412109,2.3730469 C 19.478708,7.97999 19.434461,7.9874483 19.392578,8 l -1.525391,0.4472656 c -0.26797,0.078903 -0.421257,0.3592504 -0.341796,0.6269532 0.07887,0.2678319 0.361244,0.4212427 0.628906,0.3417968 L 19.679687,8.96875 c 0.267789,-0.078849 0.41933,-0.3611057 0.339844,-0.6289062 -0.06438,-0.2191789 -0.267933,-0.366724 -0.496094,-0.3613282 z M 2.3359375,8.40625 C 2.1070682,8.4113803 1.9129367,8.5700425 1.859375,8.7929688 1.7933465,9.0644019 1.959035,9.3388955 2.2304688,9.4042969 L 3.7734375,9.7773438 C 4.0446909,9.8433283 4.3213438,9.6756204 4.3867187,9.4042969 4.4527123,9.1330081 4.28514,8.8583788 4.0136719,8.7929688 L 2.46875,8.4199219 C 2.4261833,8.4094557 2.3797598,8.4053815 2.3359375,8.40625 Z M 18.09375,12.210938 c -0.228881,0.0051 -0.426991,0.164143 -0.480469,0.386718 -0.066,0.271325 0.101424,0.543931 0.373047,0.609375 l 1.544922,0.371094 c 0.271468,0.06604 0.543939,-0.0995 0.609375,-0.371094 0.06603,-0.271433 -0.09965,-0.545926 -0.371094,-0.611328 l -1.542969,-0.373047 c -0.04165,-0.01024 -0.08801,-0.01261 -0.132812,-0.01172 z M 3.9746094,12.5625 c -0.042741,0.0015 -0.086981,0.009 -0.1289063,0.02148 L 2.3203125,13.03125 C 2.0525231,13.110106 1.9009813,13.392357 1.9804687,13.660156 2.0593593,13.928085 2.3395792,14.079501 2.6074219,14 l 1.5253906,-0.447266 c 0.2679719,-0.0789 0.421255,-0.35925 0.3417969,-0.626953 C 4.4102622,12.706723 4.2045476,12.557117 3.9765625,12.5625 Z m 12.1054686,2.78125 c -0.133546,0.0033 -0.257234,0.05912 -0.349609,0.15625 -0.192142,0.20202 -0.184448,0.520668 0.01758,0.712891 L 17.099609,17.5 c 0.03123,0.02996 0.06684,0.05485 0.105469,0.07617 0.01866,0.0096 0.03944,0.01776 0.06055,0.02539 a 0.03499239,0.03499239 0 0 1 0.002,0 c 0.08265,0.03233 0.171049,0.04433 0.257813,0.03125 0.109814,-0.01716 0.210305,-0.06949 0.287109,-0.15039 0.01465,-0.01536 0.02971,-0.0346 0.04297,-0.05273 0.149366,-0.20479 0.124924,-0.487559 -0.05859,-0.662109 l -1.353516,-1.285156 c -0.09674,-0.09205 -0.229623,-0.141988 -0.363281,-0.138672 z m -3.027344,2.164062 c -0.04448,0.0014 -0.08651,0.0055 -0.126953,0.01758 -0.267831,0.07887 -0.421243,0.361245 -0.341797,0.628906 l 0.447266,1.52539 c 0.07886,0.267792 0.361106,0.419333 0.628906,0.339844 0.267931,-0.0789 0.419346,-0.359107 0.339844,-0.626953 l -0.447266,-1.525391 c -0.06432,-0.21896 -0.269694,-0.364786 -0.498046,-0.359375 z m -3.7812496,0.0918 c -0.2288759,0.0051 -0.4249959,0.163971 -0.4785156,0.386719 L 8.421875,19.53125 c -0.066036,0.271469 0.099516,0.543939 0.3710938,0.609375 0.2714328,0.06603 0.5459266,-0.09966 0.6113281,-0.371094 l 0.3730469,-1.542969 c 0.065984,-0.271255 -0.1017227,-0.547906 -0.3730469,-0.613281 -0.04259,-0.01046 -0.088997,-0.01455 -0.1328125,-0.01367 z" />
  <path
     id="path1"
     style="fill:currentColor"
     class="ColorScheme-Text"
     d="M 13.263672 1.0058594 C 13.013847 1.0114594 12.800608 1.184592 12.742188 1.4277344 L 12.222656 3.7753906 C 12.156656 4.0466788 12.324225 4.3213087 12.595703 4.3867188 C 12.866991 4.4527107 13.14162 4.2851406 13.207031 4.0136719 L 13.814453 1.6875 C 13.886538 1.3911792 13.70466 1.0948643 13.408203 1.0234375 C 13.360723 1.0117665 13.310462 1.0049278 13.263672 1.0058594 z M 8.2363281 1.1347656 C 8.1886391 1.1363456 8.14046 1.142831 8.0957031 1.15625 C 7.803246 1.2423628 7.6378316 1.5474818 7.7246094 1.8398438 L 8.4472656 4.1328125 C 8.5261678 4.4007831 8.8065167 4.5540676 9.0742188 4.4746094 C 9.3420488 4.3957485 9.4954618 4.1133633 9.4160156 3.8457031 L 8.7832031 1.5273438 C 8.7129983 1.2883419 8.4875343 1.1288599 8.2382812 1.1347656 L 8.2363281 1.1347656 z M 17.679688 3.4140625 C 17.533532 3.4177225 17.395408 3.4763762 17.294922 3.5820312 L 15.673828 5.3554688 C 15.481683 5.5574924 15.487579 5.8782397 15.689453 6.0703125 C 15.891472 6.2624525 16.210121 6.254756 16.402344 6.0527344 L 18.095703 4.3398438 C 18.305509 4.1192474 18.296778 3.774355 18.076172 3.5644531 C 17.970571 3.463982 17.825581 3.4104428 17.679688 3.4140625 z M 3.9472656 3.7539062 C 3.8014574 3.7575624 3.6651029 3.8199557 3.5644531 3.9257812 C 3.3547195 4.1462988 3.3597335 4.4954228 3.5800781 4.7050781 L 5.3554688 6.3261719 C 5.5574918 6.5183163 5.8782399 6.5124112 6.0703125 6.3105469 C 6.2624536 6.1085274 6.2547562 5.7898779 6.0527344 5.5976562 L 4.3417969 3.90625 C 4.2360332 3.8056147 4.0931683 3.7502876 3.9472656 3.7539062 z M 20.300781 7.703125 C 20.254091 7.704735 20.205873 7.7128615 20.160156 7.7265625 L 17.867188 8.4472656 C 17.599218 8.5261686 17.44593 8.806516 17.525391 9.0742188 C 17.604261 9.3420507 17.886635 9.4954615 18.154297 9.4160156 L 20.474609 8.7832031 C 20.766912 8.6971361 20.932465 8.3899725 20.845703 8.0976562 C 20.775429 7.8584127 20.553736 7.6972352 20.304688 7.703125 L 20.300781 7.703125 z M 1.5429688 8.1699219 C 1.2931476 8.1755219 1.0819025 8.3484629 1.0234375 8.5917969 C 0.95136446 8.8880783 1.1314523 9.188377 1.4277344 9.2597656 L 3.7734375 9.7773438 C 4.0446909 9.8433282 4.3213438 9.6756204 4.3867188 9.4042969 C 4.4527123 9.1330081 4.28514 8.8583788 4.0136719 8.7929688 L 1.6875 8.1835938 C 1.6410365 8.1721695 1.5908027 8.1689739 1.5429688 8.1699219 z M 18.09375 12.210938 C 17.864869 12.216038 17.666759 12.375081 17.613281 12.597656 C 17.547281 12.868981 17.714705 13.141587 17.986328 13.207031 L 20.3125 13.814453 C 20.60882 13.886543 20.905137 13.706613 20.976562 13.410156 C 21.048633 13.113875 20.86856 12.813578 20.572266 12.742188 L 18.226562 12.222656 C 18.184912 12.212416 18.138552 12.210048 18.09375 12.210938 z M 3.9746094 12.5625 C 3.9318684 12.564 3.8876284 12.571504 3.8457031 12.583984 L 1.5253906 13.21875 C 1.2330865 13.304825 1.0675329 13.611983 1.1542969 13.904297 C 1.2404099 14.196754 1.5474814 14.36217 1.8398438 14.275391 L 4.1328125 13.552734 C 4.4007844 13.473834 4.5540675 13.193484 4.4746094 12.925781 C 4.4102622 12.706723 4.2045476 12.557117 3.9765625 12.5625 L 3.9746094 12.5625 z M 16.080078 15.34375 C 15.946532 15.34705 15.822844 15.40287 15.730469 15.5 C 15.538327 15.70202 15.546019 16.020668 15.748047 16.212891 L 17.658203 18.095703 C 17.692293 18.128403 17.731274 18.156418 17.773438 18.179688 C 17.793807 18.190168 17.816804 18.198711 17.839844 18.207031 L 17.841797 18.207031 C 17.932017 18.242321 18.02834 18.254514 18.123047 18.240234 C 18.242914 18.221504 18.351712 18.164479 18.435547 18.076172 C 18.451537 18.059402 18.467952 18.039321 18.482422 18.019531 C 18.645461 17.795993 18.620232 17.487404 18.419922 17.296875 L 16.443359 15.482422 C 16.346619 15.390372 16.213736 15.340434 16.080078 15.34375 z M 5.9492188 15.789062 C 5.8199621 15.792446 5.691947 15.846011 5.5957031 15.947266 L 3.90625 17.658203 C 3.6956582 17.878778 3.7028022 18.225462 3.9238281 18.435547 C 4.14438 18.646102 4.4951055 18.638871 4.7050781 18.417969 L 6.328125 16.646484 C 6.357818 16.615534 6.3826669 16.576358 6.4042969 16.537109 C 6.5143207 16.336342 6.4765639 16.085335 6.3105469 15.927734 C 6.2095597 15.831324 6.0784754 15.785679 5.9492188 15.789062 z M 13.052734 17.507812 C 13.008254 17.509213 12.966224 17.513311 12.925781 17.525391 C 12.65795 17.604261 12.504538 17.886636 12.583984 18.154297 L 13.216797 20.474609 C 13.302877 20.766916 13.611982 20.932469 13.904297 20.845703 C 14.196756 20.759583 14.362171 20.454475 14.275391 20.162109 L 13.552734 17.867188 C 13.488414 17.648228 13.28304 17.502402 13.054688 17.507812 L 13.052734 17.507812 z M 9.2714844 17.599609 C 9.0426085 17.604709 8.8464885 17.76358 8.7929688 17.986328 L 8.1855469 20.3125 C 8.1134659 20.608821 8.2953576 20.90709 8.5917969 20.978516 C 8.8880779 21.050596 9.1864238 20.868548 9.2578125 20.572266 L 9.7773438 18.226562 C 9.8433278 17.955307 9.6756211 17.678656 9.4042969 17.613281 C 9.3617069 17.602821 9.3152999 17.598729 9.2714844 17.599609 z " />
</svg>
