<?xml version="1.0" encoding="UTF-8"?>
<svg xmlns="http://www.w3.org/2000/svg" width="22" height="22" version="1.1" xml:space="preserve">
  <defs>
    <style id="current-color-scheme" type="text/css">
            .ColorScheme-Text {
                color:#232629;
            }
        </style>
  </defs>
  <path class="ColorScheme-Text" d="m9.3848 1.2773c-0.022894 3.857e-4 -0.045734 0.00234-0.068359 0.00586-4.7817 0.77033-8.3029 4.9048-8.3027 9.748 1.292e-4 1.9636 0.57501 3.7947 1.5658 5.3336 0.62771 0.97497 2.2588 1.6351 3.4205 1.6351h13.949c1.1262 0 2.0508-0.92458 2.0508-2.0508 8.1e-5 -0.0052 8.1e-5 -0.01042 0-0.01563-0.03649-1.0969-0.96604-1.9656-2.0625-1.9316-1.0827 0.02088-1.9558 0.9226-1.9375 2.0059 0.0043 0.27616 0.23166 0.49654 0.50781 0.49219 0.27616-0.0043 0.49654-0.23166 0.49219-0.50781-0.0092-0.54447 0.41452-0.98298 0.95898-0.99219 0.0026 2e-5 0.0052 2e-5 0.0078 0 0.55518-0.01847 1.0059 0.4053 1.0293 0.95898-0.005987 0.58035-0.46492 1.041-1.0469 1.041h-13.949c-0.92982 0-2.2077-0.55298-2.6915-1.3454-0.82168-1.3459-1.2947-2.9287-1.2948-4.6233-9.41e-5 -3.9119 2.6062-7.1749 6.2383-8.3301-1.057 1.6038-1.7696 3.4132-1.7695 5.3555-3.57e-4 2.711 1.095 5.1703 2.8673 6.9564 0.58674 0.59131 1.8165 0.98698 2.6503 0.98698h2.9492c1.1262 0 2.0508-0.92458 2.0508-2.0508 8.1e-5 -0.0052 8.1e-5 -0.01042 0-0.01563-0.03649-1.0969-0.96604-1.9656-2.0625-1.9316-1.0827 0.02088-1.9558 0.9226-1.9375 2.0059 0.0043 0.27616 0.23166 0.49654 0.50781 0.49219 0.27616-0.0043 0.49654-0.23166 0.49219-0.50781-0.0092-0.54447 0.41452-0.98298 0.95898-0.99219 0.0026 2e-5 0.0052 2e-5 0.0078 0 0.55518-0.01847 1.0059 0.4053 1.0293 0.95898-0.005987 0.58035-0.46492 1.041-1.0469 1.041-1.2596 9.5e-5 -1.9751-4e-5 -2.9492-5.1e-5 -0.64831-8e-6 -1.5918-0.32309-2.041-0.78996-1.5339-1.5945-2.4769-3.7626-2.4766-6.1533-5.8e-5 -2.1961 0.814-4.3148 2.2852-5.9453 0.29241-0.32572 0.05481-0.84336-0.38281-0.83398zm-7.8848 17.723c-0.27614 0-0.5 0.22386-0.5 0.5s0.22386 0.5 0.5 0.5h14.998c-0.27568 5.45e-4 -0.49805 0.2242-0.49805 0.5v0.04297c0 0.79872 0.65831 1.457 1.457 1.457h0.0078c0.82244 0.01944 1.5157-0.64242 1.5352-1.4648 4.6e-5 -0.0039 4.6e-5 -0.0078 0-0.01172 1.3e-5 -0.83556-0.68788-1.5234-1.5234-1.5234zm15 1h0.97656c0.29181 0 0.51254 0.22726 0.51758 0.51758-0.01158 0.27721-0.22702 0.48902-0.50586 0.48242-0.0039-4.6e-5 -0.0078-4.6e-5 -0.01172 0h-0.01953c-0.25828 0-0.45703-0.19875-0.45703-0.45703v-0.042969c0-0.2758-0.22432-0.49946-0.5-0.5z" fill="currentColor"/>
</svg>
