<?xml version="1.0" encoding="UTF-8"?>
<svg width="22" height="22" version="1.1" xml:space="preserve" xmlns="http://www.w3.org/2000/svg"><defs><style id="current-color-scheme" type="text/css">.ColorScheme-Text {
                color:#232629;
            }</style></defs><g transform="translate(1,1)" stroke-linecap="round" stroke-linejoin="round"><path class="ColorScheme-Text" d="m17.5 9c0-3.0376-2.4624-5.5-5.5-5.5-2.7614 0-5 2.2386-5 5h-1.0417c-1.91 0-3.4583 1.5483-3.4583 3.4583v0.08346c0 0.90446 0.34721 1.7278 0.91562 2.3441m5.364 1.1142h0.36022m6.1602 0h-0.40006m5.449-1.6414c0.09791-0.26776 0.15134-0.55695 0.15134-0.85861 0-1.3807-1.1193-2.5-2.5-2.5-0.94487 0-1.7673 0.52418-2.1924 1.2976" fill="none" stroke="currentColor" style="paint-order:fill markers stroke"/><path class="ColorScheme-Text" d="m5.5195 13.945c-0.1464-0.0012-0.28471 0.06685-0.37305 0.18359-0.14192 0.18939-0.11834 0.45547 0.054687 0.61719l0.013672 0.01367-0.62891 0.34961c-0.4774 0.27283-0.16616 1.003 0.36133 0.84766l0.019531-0.0059-0.011719 0.72266c-0.00228 0.5504 0.78523 0.64631 0.91406 0.11133l0.00391-0.01953 0.61914 0.37109c0.47525 0.2777 0.95153-0.35679 0.55273-0.73633l-0.013675-0.01363 0.62891-0.34961c0.49135-0.26858 0.17303-1.0171-0.36133-0.84961l-0.017578 0.0059 0.00977-0.71875c0.00467-0.55166-0.78501-0.64952-0.91407-0.11332l-0.00391 0.01758-0.61914-0.36914c-0.071023-0.04196-0.15193-0.06421-0.23438-0.06445zm6 0c-0.1464-0.0012-0.28471 0.06685-0.37305 0.18359-0.14192 0.18939-0.11834 0.45547 0.05469 0.61719l0.01367 0.01367-0.62891 0.34961c-0.4774 0.27283-0.16616 1.003 0.36133 0.84766l0.01953-0.0059-0.01172 0.72266c-0.0023 0.5504 0.78523 0.64632 0.91406 0.11133l0.0039-0.01953 0.61914 0.37109c0.47525 0.2777 0.95153-0.35679 0.55273-0.73633l-0.01367-0.01367 0.62891-0.34961c0.49135-0.26858 0.17303-1.0171-0.36133-0.84961l-0.01758 0.0059 0.0098-0.71875c0.0047-0.55162-0.78501-0.64948-0.91406-0.11328l-0.0039 0.01758-0.61914-0.36914c-0.07102-0.04196-0.15193-0.06421-0.23438-0.06445zm6 0c-0.1464-0.0012-0.28471 0.06685-0.37305 0.18359-0.14192 0.18939-0.11834 0.45547 0.05469 0.61719l0.01367 0.01367-0.62891 0.34961c-0.4774 0.27283-0.16616 1.003 0.36133 0.84766l0.01953-0.0059-0.01172 0.72266c-0.0023 0.5504 0.78523 0.64632 0.91406 0.11133l0.0039-0.01953 0.61914 0.37109c0.47525 0.2777 0.95153-0.35679 0.55273-0.73633l-0.01367-0.01367 0.62891-0.34961c0.49135-0.26858 0.17303-1.0171-0.36133-0.84961l-0.01758 0.0059 0.0098-0.71875c0.0047-0.55162-0.78501-0.64948-0.91406-0.11328l-0.0039 0.01758-0.61914-0.36914c-0.07102-0.04196-0.15193-0.06421-0.23438-0.06445zm-11.637 1.0254 0.10156 0.06055c0.17033 0.07672 0.36299 0.08785 0.54102 0.03125l-0.00195 0.11914c0.017352 0.18619 0.10291 0.3594 0.24023 0.48633l-0.10156 0.05664c-0.15246 0.10816-0.25958 0.26884-0.30078 0.45117l-0.097656-0.06055c-0.16952-0.07687-0.36139-0.08869-0.53906-0.0332l0.00195-0.11523c-0.01495-0.18869-0.099948-0.36495-0.23828-0.49414l0.097656-0.05273c0.1506-0.10836 0.25622-0.2682 0.29688-0.44922zm6 0 0.10156 0.06055c0.17033 0.07672 0.36299 0.08785 0.54102 0.03125l-2e-3 0.11914c0.01735 0.18619 0.10291 0.3594 0.24023 0.48633l-0.10156 0.05664c-0.15246 0.10816-0.25958 0.26884-0.30078 0.45117l-0.09766-0.06055c-0.16952-0.07687-0.36139-0.08869-0.53906-0.0332l2e-3 -0.11523c-0.01495-0.18869-0.09995-0.36495-0.23828-0.49414l0.09766-0.05273c0.1506-0.10836 0.25622-0.2682 0.29687-0.44922zm6 0 0.10156 0.06055c0.17033 0.07672 0.36299 0.08785 0.54102 0.03125l-2e-3 0.11914c0.01735 0.18619 0.10291 0.3594 0.24023 0.48633l-0.10156 0.05664c-0.15246 0.10816-0.25958 0.26884-0.30078 0.45117l-0.09766-0.06055c-0.16952-0.07687-0.36139-0.08869-0.53906-0.0332l2e-3 -0.11523c-0.01495-0.18869-0.09995-0.36495-0.23828-0.49414l0.09766-0.05273c0.1506-0.10836 0.25622-0.2682 0.29687-0.44922z" fill="currentColor" opacity=".6" stroke-width=".6572" style="paint-order:fill markers stroke"/><path class="ColorScheme-Text" d="m16.734 17.945c0.1464-0.0012 0.28471 0.06685 0.37305 0.18359 0.14192 0.18939 0.11834 0.45547-0.05469 0.61719l-0.01367 0.01367 0.62891 0.34961c0.4774 0.27283 0.16616 1.003-0.36133 0.84766l-0.01953-0.0059 0.01172 0.72266c0.0023 0.5504-0.78523 0.64631-0.91406 0.11133l-0.0039-0.01953-0.61914 0.37109c-0.47525 0.2777-0.95154-0.35679-0.55273-0.73633l0.01367-0.01363-0.62891-0.34961c-0.49136-0.26858-0.17304-1.0171 0.36132-0.84961l0.01758 0.0059-0.0098-0.71875c-0.0047-0.55166 0.78501-0.64952 0.91407-0.11332l0.0039 0.01758 0.61914-0.36914c0.07102-0.04196 0.15193-0.06421 0.23438-0.06445zm-6 0c0.1464-0.0012 0.28471 0.06685 0.37305 0.18359 0.14192 0.18939 0.11834 0.45547-0.05469 0.61719l-0.01367 0.01367 0.62891 0.34961c0.4774 0.27283 0.16616 1.003-0.36133 0.84766l-0.01953-0.0059 0.01172 0.72266c0.0023 0.5504-0.78523 0.64632-0.91406 0.11133l-0.0039-0.01953-0.61914 0.37109c-0.47525 0.2777-0.95153-0.35679-0.55273-0.73633l0.01367-0.01367-0.62891-0.34961c-0.49135-0.26858-0.17303-1.0171 0.36133-0.84961l0.01758 0.0059-0.0098-0.71875c-0.0047-0.55162 0.78501-0.64948 0.91406-0.11328l0.0039 0.01758 0.61914-0.36914c0.07102-0.04196 0.15193-0.06421 0.23438-0.06445zm-6 0c0.1464-0.0012 0.28471 0.06685 0.37305 0.18359 0.14192 0.18939 0.11834 0.45547-0.05469 0.61719l-0.01367 0.01367 0.62891 0.34961c0.4774 0.27283 0.16616 1.003-0.36133 0.84766l-0.01953-0.0059 0.01172 0.72266c0.0023 0.5504-0.78523 0.64632-0.91406 0.11133l-0.0039-0.01953-0.61914 0.37109c-0.47525 0.2777-0.95153-0.35679-0.55273-0.73633l0.01367-0.01367-0.62891-0.34961c-0.49135-0.26858-0.17303-1.0171 0.36133-0.84961l0.01758 0.0059-0.0098-0.71875c-0.0047-0.55162 0.78501-0.64948 0.91406-0.11328l0.0039 0.01758 0.61914-0.36914c0.07102-0.04196 0.15193-0.06421 0.23438-0.06445zm11.637 1.0254-0.10156 0.06055c-0.17033 0.07672-0.36299 0.08785-0.54102 0.03125l0.0019 0.11914c-0.01735 0.18619-0.10291 0.3594-0.24024 0.48633l0.10156 0.05664c0.15246 0.10816 0.25958 0.26884 0.30078 0.45117l0.09766-0.06055c0.16952-0.07687 0.36139-0.08869 0.53906-0.0332l-2e-3 -0.11523c0.01495-0.18869 0.09995-0.36495 0.23828-0.49414l-0.09766-0.05273c-0.1506-0.10836-0.25622-0.2682-0.29688-0.44922zm-6 0-0.10156 0.06055c-0.17033 0.07672-0.36299 0.08785-0.54102 0.03125l2e-3 0.11914c-0.01735 0.18619-0.10291 0.3594-0.24023 0.48633l0.10156 0.05664c0.15246 0.10816 0.25958 0.26884 0.30078 0.45117l0.09766-0.06055c0.16952-0.07687 0.36139-0.08869 0.53906-0.0332l-2e-3 -0.11523c0.01495-0.18869 0.09995-0.36495 0.23828-0.49414l-0.09766-0.05273c-0.1506-0.10836-0.25622-0.2682-0.29687-0.44922zm-6 0-0.10156 0.06055c-0.17033 0.07672-0.36299 0.08785-0.54102 0.03125l2e-3 0.11914c-0.01735 0.18619-0.10291 0.3594-0.24023 0.48633l0.10156 0.05664c0.15246 0.10816 0.25958 0.26884 0.30078 0.45117l0.09766-0.06055c0.16952-0.07687 0.36139-0.08869 0.53906-0.0332l-2e-3 -0.11523c0.01495-0.18869 0.09995-0.36495 0.23828-0.49414l-0.09766-0.05273c-0.1506-0.10836-0.25622-0.2682-0.29687-0.44922z" fill="currentColor" opacity=".6" stroke-width=".6572" style="paint-order:fill markers stroke"/></g><path class="ColorScheme-Text" d="m8.385 0.2772c-0.022894 3.86e-4 -0.045734 0.0023-0.068359 0.0059-4.7817 0.77033-8.3029 4.9048-8.3027 9.748 1.292e-4 1.9636 0.57562 3.7951 1.5664 5.334 0.41966 0.543 1.2008 0.10726 0.72848-0.71086-0.82168-1.3459-1.2948-2.9284-1.2949-4.623-9.41e-5 -3.9119 2.6062-7.1749 6.2383-8.3301-1.057 1.6038-1.7696 3.4132-1.7695 5.3555 0 0.65534 0.99998 0.67842 0.99998 1e-5 -5.8e-5 -2.1961 0.81396-4.3148 2.2852-5.9453 0.29241-0.32572 0.054808-0.84336-0.38281-0.83398z" fill="currentColor"/></svg>
