<?xml version="1.0" encoding="UTF-8" standalone="no"?>
<svg
   height="22"
   width="22"
   version="1.1"
   id="svg1"
   xmlns="http://www.w3.org/2000/svg"
   xmlns:svg="http://www.w3.org/2000/svg">
  <defs
     id="defs1">
    <style
       type="text/css"
       id="current-color-scheme">
            .ColorScheme-Text {
                color:#232629;
            }
        </style>
  </defs>
  <path
     id="path3"
     style="fill:currentColor;opacity:0.2"
     class="ColorScheme-Text"
     d="M 19.925781 0.1640625 C 19.828212 0.1690237 19.731952 0.2023051 19.650391 0.26367188 L 18.205078 1.3535156 L 16.707031 0.58398438 C 16.30607 0.37773438 15.85863 0.76522246 16.005859 1.1914062 L 16.628906 3 C 15.320872 2.0649292 13.784983 1.4486663 12.142578 1.2382812 C 12.121198 1.2355912 12.099665 1.234295 12.078125 1.234375 C 11.826797 1.2342413 11.614428 1.420691 11.582031 1.6699219 C 11.546331 1.9446205 11.740771 2.1959888 12.015625 2.2304688 C 14.935949 2.6045494 17.478533 4.4017152 18.806641 7.0292969 C 20.134748 9.6568786 20.073195 12.770542 18.642578 15.34375 C 18.508785 15.585371 18.596238 15.889705 18.837891 16.023438 C 19.079511 16.157231 19.383845 16.069778 19.517578 15.828125 C 21.108844 12.965963 21.176464 9.5007669 19.699219 6.578125 C 19.596793 6.3754823 19.486224 6.1779362 19.371094 5.984375 L 19.783203 4.6074219 L 21.449219 4.3496094 C 21.895285 4.2809705 22.028464 3.7033688 21.658203 3.4453125 L 20.177734 2.4082031 L 20.445312 0.74414062 C 20.477738 0.54267295 20.383762 0.34165333 20.208984 0.23632812 C 20.121619 0.18355093 20.023351 0.1591013 19.925781 0.1640625 z M 19.259766 1.8125 L 19.138672 2.5585938 C 19.107843 2.748206 19.188233 2.9388006 19.345703 3.0488281 L 20.068359 3.5507812 L 19.320312 3.6679688 C 19.130586 3.6971608 18.974113 3.8320604 18.917969 4.015625 L 18.644531 4.9238281 C 18.240059 4.4101143 17.788048 3.9401049 17.294922 3.5195312 C 17.307564 3.5162672 17.319473 3.5121222 17.332031 3.5078125 C 17.592894 3.4179434 17.732136 3.1340169 17.642578 2.8730469 L 17.355469 2.0410156 L 18.029297 2.3867188 C 18.199994 2.4741729 18.405554 2.457402 18.558594 2.3417969 L 19.259766 1.8125 z " />
  <path
     id="path29"
     style="fill:currentColor"
     class="ColorScheme-Text"
     d="m 9.3847656,1.2773438 c -0.022894,3.857e-4 -0.045734,0.00234 -0.068359,0.00586 -4.7816827,0.7703345 -8.3028508,4.9047542 -8.3027343,9.7480469 3.584e-4,5.446451 4.4265449,9.872688 9.8730471,9.873047 2.79407,4.8e-5 5.458104,-1.183574 7.330078,-3.257813 0.185353,-0.205361 0.168723,-0.522201 -0.03711,-0.707031 -0.205097,-0.184037 -0.520433,-0.167441 -0.705079,0.03711 -1.68271,1.864527 -4.076307,2.927778 -6.58789,2.927735 C 5.9806041,19.903973 2.0139947,15.937303 2.0136719,11.03125 2.0135778,7.1193466 4.6198942,3.856356 8.2519531,2.7011719 7.1949242,4.304955 6.4823706,6.1143746 6.4824219,8.0566406 c -6.526e-4,4.9562684 3.6582061,9.0691634 8.4257811,9.7695314 0.273519,0.04074 0.528168,-0.148274 0.568359,-0.421875 0.04074,-0.273519 -0.148273,-0.528168 -0.421874,-0.568359 C 10.770575,16.206591 7.481834,12.521151 7.4824219,8.0566406 7.4823639,5.860544 8.2964222,3.7418481 9.7675781,2.1113281 10.059991,1.7856048 9.8223879,1.2679689 9.3847656,1.2773438 Z" />
</svg>
