<?xml version="1.0" encoding="UTF-8"?>
<svg xmlns="http://www.w3.org/2000/svg" width="22" height="22" version="1.1" xml:space="preserve">
  <defs>
    <style id="current-color-scheme" type="text/css">.ColorScheme-Text { color:#232629; }</style>
  </defs>
  <g fill="currentColor" stroke-linecap="round" stroke-linejoin="round" class="ColorScheme-Text">
    <path d="m16.426 18.064c-0.11829 0.0073-0.25294 0.04594-0.4043 0.12695-0.28967 0.15504-1.5136 0.96683-1.8203 1.498-0.41505 0.71889-0.16616 1.6514 0.55273 2.0664 0.71889 0.41505 1.6514 0.1642 2.0664-0.55469 0.12379-0.2144 0.14912-0.46901 0.12305-0.65625-0.02607-0.18724-0.07508-0.32496-0.10742-0.4668-0.06469-0.28367-0.11235-0.60062 0.12891-1.2656 0.02672-0.07365 0.05454-0.16086 0.03711-0.29492s-0.1389-0.31017-0.27148-0.38672c-0.08473-0.04892-0.1864-0.07366-0.30469-0.06641zm-0.28906 1.0391c-0.12299 0.47348-0.15551 0.93875-0.10547 1.1582 0.04676 0.2051 0.13532 0.29392 0.03711 0.57422-0.09821 0.2803-0.5755 0.39378-0.90234 0.20508-0.32706-0.18883-0.45788-0.62312-0.25-0.93945 0.18367-0.27951 0.45346-0.50814 1.2207-0.99805z" style="paint-order:fill markers stroke"/>
    <path d="m6.4258 18.064c-0.11829 0.0073-0.25294 0.04594-0.4043 0.12695-0.28967 0.15504-1.5136 0.96683-1.8203 1.498-0.41505 0.71889-0.16616 1.6514 0.55273 2.0664 0.71889 0.41505 1.6514 0.1642 2.0664-0.55469 0.12379-0.2144 0.14912-0.46901 0.12305-0.65625-0.02607-0.18724-0.075081-0.32496-0.10742-0.4668-0.06469-0.28367-0.11235-0.60062 0.12891-1.2656 0.02672-0.07365 0.054539-0.16086 0.037109-0.29492s-0.1389-0.31017-0.27148-0.38672c-0.08473-0.04892-0.1864-0.07366-0.30469-0.06641zm-0.28906 1.0391c-0.12299 0.47348-0.15551 0.93875-0.10547 1.1582 0.04676 0.2051 0.13532 0.29392 0.037109 0.57422-0.09821 0.2803-0.5755 0.39378-0.90234 0.20508-0.32706-0.18883-0.45788-0.62312-0.25-0.93945 0.18367-0.27951 0.45346-0.50814 1.2207-0.99805z" style="paint-order:fill markers stroke"/>
    <path d="m19.426 14.064c-0.11829 0.0073-0.25294 0.04594-0.4043 0.12695-0.28967 0.15504-1.5136 0.96683-1.8203 1.498-0.41505 0.71889-0.16616 1.6514 0.55273 2.0664 0.71889 0.41505 1.6514 0.1642 2.0664-0.55469 0.12379-0.2144 0.14912-0.46901 0.12305-0.65625-0.02607-0.18724-0.07508-0.32496-0.10742-0.4668-0.06469-0.28367-0.11235-0.60062 0.12891-1.2656 0.02672-0.07365 0.05454-0.16086 0.03711-0.29492s-0.1389-0.31017-0.27148-0.38672c-0.08473-0.04892-0.1864-0.07366-0.30469-0.06641zm-0.28906 1.0391c-0.12299 0.47348-0.15551 0.93875-0.10547 1.1582 0.04676 0.2051 0.13532 0.29392 0.03711 0.57422-0.09821 0.2803-0.5755 0.39378-0.90234 0.20508-0.32706-0.18883-0.45788-0.62312-0.25-0.93945 0.18367-0.27951 0.45346-0.50814 1.2207-0.99805z" style="paint-order:fill markers stroke"/>
    <path d="m9.4258 14.064c-0.11829 0.0073-0.25294 0.04594-0.4043 0.12695-0.28967 0.15504-1.5136 0.96683-1.8203 1.498-0.41505 0.71889-0.16616 1.6514 0.55273 2.0664 0.71889 0.41505 1.6514 0.1642 2.0664-0.55469 0.12379-0.2144 0.14912-0.46901 0.12305-0.65625-0.02607-0.18724-0.075081-0.32496-0.10742-0.4668-0.06469-0.28367-0.11235-0.60062 0.12891-1.2656 0.02672-0.07365 0.054539-0.16086 0.037109-0.29492s-0.1389-0.31017-0.27148-0.38672c-0.08473-0.04892-0.1864-0.07366-0.30469-0.06641zm-0.28906 1.0391c-0.12299 0.47348-0.15551 0.93875-0.10547 1.1582 0.04676 0.2051 0.13532 0.29392 0.037109 0.57422-0.09821 0.2803-0.5755 0.39378-0.90234 0.20508-0.32706-0.18883-0.45788-0.62312-0.25-0.93945 0.18367-0.2795 0.45346-0.50814 1.2207-0.99805z" style="paint-order:fill markers stroke"/>
  </g>
  <g stroke-linecap="round" stroke-linejoin="round">
    <path d="m16.426 18.064c-0.11829 0.0073-0.25294 0.04594-0.4043 0.12695-0.28967 0.15504-1.5136 0.96683-1.8203 1.498-0.41505 0.71889-0.16616 1.6514 0.55273 2.0664 0.71889 0.41505 1.6514 0.1642 2.0664-0.55469 0.12379-0.2144 0.14912-0.46901 0.12305-0.65625-0.02607-0.18724-0.07508-0.32496-0.10742-0.4668-0.06469-0.28367-0.11235-0.60062 0.12891-1.2656 0.02672-0.07365 0.05454-0.16086 0.03711-0.29492s-0.1389-0.31017-0.27148-0.38672c-0.08473-0.04892-0.1864-0.07366-0.30469-0.06641zm-0.28906 1.0391c-0.12299 0.47348-0.15551 0.93875-0.10547 1.1582 0.04676 0.2051 0.13532 0.29392 0.03711 0.57422-0.09821 0.2803-0.5755 0.39378-0.90234 0.20508-0.32706-0.18883-0.45788-0.62312-0.25-0.93945 0.18367-0.27951 0.45346-0.50814 1.2207-0.99805z" fill="#57abff" opacity=".45318" style="paint-order:fill markers stroke"/>
    <path d="m6.4258 18.064c-0.11829 0.0073-0.25294 0.04594-0.4043 0.12695-0.28967 0.15504-1.5136 0.96683-1.8203 1.498-0.41505 0.71889-0.16616 1.6514 0.55273 2.0664 0.71889 0.41505 1.6514 0.1642 2.0664-0.55469 0.12379-0.2144 0.14912-0.46901 0.12305-0.65625-0.02607-0.18724-0.075081-0.32496-0.10742-0.4668-0.06469-0.28367-0.11235-0.60062 0.12891-1.2656 0.02672-0.07365 0.054539-0.16086 0.037109-0.29492s-0.1389-0.31017-0.27148-0.38672c-0.08473-0.04892-0.1864-0.07366-0.30469-0.06641zm-0.28906 1.0391c-0.12299 0.47348-0.15551 0.93875-0.10547 1.1582 0.04676 0.2051 0.13532 0.29392 0.037109 0.57422-0.09821 0.2803-0.5755 0.39378-0.90234 0.20508-0.32706-0.18883-0.45788-0.62312-0.25-0.93945 0.18367-0.27951 0.45346-0.50814 1.2207-0.99805z" fill="#57abff" opacity=".45318" style="paint-order:fill markers stroke"/>
    <g transform="translate(1,1)">
      <path class="ColorScheme-Text" d="m17.5 9c0-3.0376-2.4624-5.5-5.5-5.5-2.7614 0-5 2.2386-5 5h-1.0417c-1.91 0-3.4583 1.5483-3.4583 3.4583v0.08346c0 1.4033 0.60986 2.8955 2.2598 3.3891m5.5198 0.06924h4.3602m5.7091-1.6414c0.09791-0.26776 0.15134-0.55695 0.15134-0.85861 0-1.3807-1.1193-2.5-2.5-2.5-0.94487 0-1.7673 0.52418-2.1924 1.2976" fill="none" stroke="currentColor" style="paint-order:fill markers stroke"/>
    </g>
    <path d="m9.4258 14.064c-0.11829 0.0073-0.25294 0.04594-0.4043 0.12695-0.28967 0.15504-1.5136 0.96683-1.8203 1.498-0.41505 0.71889-0.16616 1.6514 0.55273 2.0664 0.71889 0.41505 1.6514 0.1642 2.0664-0.55469 0.12379-0.2144 0.14912-0.46901 0.12305-0.65625-0.02607-0.18724-0.075081-0.32496-0.10742-0.4668-0.06469-0.28367-0.11235-0.60062 0.12891-1.2656 0.02672-0.07365 0.054539-0.16086 0.037109-0.29492s-0.1389-0.31017-0.27148-0.38672c-0.08473-0.04892-0.1864-0.07366-0.30469-0.06641zm-0.28906 1.0391c-0.12299 0.47348-0.15551 0.93875-0.10547 1.1582 0.04676 0.2051 0.13532 0.29392 0.037109 0.57422-0.09821 0.2803-0.5755 0.39378-0.90234 0.20508-0.32706-0.18883-0.45788-0.62312-0.25-0.93945 0.18367-0.27951 0.45346-0.50814 1.2207-0.99805z" fill="#57abff" opacity=".45318" style="paint-order:fill markers stroke"/>
    <path d="m19.426 14.064c-0.11829 0.0073-0.25294 0.04594-0.4043 0.12695-0.28967 0.15504-1.5136 0.96683-1.8203 1.498-0.41505 0.71889-0.16616 1.6514 0.55273 2.0664 0.71889 0.41505 1.6514 0.1642 2.0664-0.55469 0.12379-0.2144 0.14912-0.46901 0.12305-0.65625-0.02607-0.18724-0.07508-0.32496-0.10742-0.4668-0.06469-0.28367-0.11235-0.60062 0.12891-1.2656 0.02672-0.07365 0.05454-0.16086 0.03711-0.29492s-0.1389-0.31017-0.27148-0.38672c-0.08473-0.04892-0.1864-0.07366-0.30469-0.06641zm-0.28906 1.0391c-0.12299 0.47348-0.15551 0.93875-0.10547 1.1582 0.04676 0.2051 0.13532 0.29392 0.03711 0.57422-0.09821 0.2803-0.5755 0.39378-0.90234 0.20508-0.32706-0.18883-0.45788-0.62312-0.25-0.93945 0.18367-0.27951 0.45346-0.50814 1.2207-0.99805z" fill="#57abff" opacity=".45318" style="paint-order:fill markers stroke"/>
  </g>
  <g transform="translate(.10018 5e-5)">
    <path class="ColorScheme-Text" d="m7.2367 0.13477c-0.047689 0.00158-0.095873 0.008071-0.14062 0.021484-0.29246 0.086113-0.45787 0.39123-0.37109 0.68359l0.72266 2.293c0.078902 0.26797 0.35925 0.42126 0.62695 0.3418 0.083697-0.024644 0.15711-0.069222 0.21484-0.12695 0.011547-0.011547 0.020915-0.022605 0.03125-0.035156 0.10335-0.12551 0.14536-0.29951 0.095703-0.4668l-0.63281-2.3184c-0.070205-0.239-0.29567-0.39848-0.54492-0.39258h-0.00195zm-4.2886 2.6191c-0.14581 0.00366-0.28216 0.066045-0.38281 0.17188-0.20973 0.22052-0.20472 0.56964 0.015625 0.7793l1.7754 1.6211c0.20202 0.19214 0.52277 0.18624 0.71484-0.015625 0.19214-0.20202 0.18444-0.52067-0.017578-0.71289l-1.7109-1.6914c-0.10576-0.10064-0.24863-0.15596-0.39453-0.15234zm-2.4043 4.416c-0.24982 0.0056-0.46107 0.17854-0.51953 0.42188-0.072073 0.29628 0.10801 0.59658 0.4043 0.66797l2.3457 0.51758c0.05085 0.012351 0.10254 0.016886 0.15234 0.013672 0.0166-0.00107 0.032557-0.00319 0.048828-0.00586 0.19526-0.032089 0.36309-0.17741 0.41211-0.38086 0.00412-0.016956 0.00743-0.033852 0.00977-0.050781 0.034964-0.25395-0.12831-0.49922-0.38281-0.56055l-2.3262-0.60938c-0.046468-0.011423-0.096702-0.014619-0.14453-0.013671z" fill="currentColor"/>
    <g fill="none" stroke-linecap="round" stroke-linejoin="round">
      <path class="ColorScheme-Text" d="m5.3689 8.4032c0.31021-0.89998 0.88246-1.7104 1.677-2.311 0.19335-0.14617 0.39506-0.27629 0.60332-0.39029" stroke="currentColor" style="paint-order:fill markers stroke"/>
    </g>
  </g>
</svg>
