<?xml version="1.0" encoding="UTF-8"?>
<svg width="22" height="22" version="1.1" xml:space="preserve" xmlns="http://www.w3.org/2000/svg"><defs><style id="current-color-scheme" type="text/css">.ColorScheme-Text {
                color:#232629;
            }</style><style type="text/css">
            .ColorScheme-Text {
                color:#232629;
            }
        </style><style type="text/css">.ColorScheme-Text {
                color:#232629;
            }</style></defs><path class="ColorScheme-Text" d="m18.5 11c0-3.0376-2.4624-5.5-5.5-5.5-2.7614 0-5 2.2386-5 5h-1.0417c-1.91 0-3.4583 1.5483-3.4583 3.4583v0.08346c0 0.90446 0.34721 1.7278 0.91562 2.3441m16.114 0.59237c0.59078-0.45726 0.97114-1.1733 0.97114-1.9782 0-1.3807-1.1193-2.5-2.5-2.5-0.94487 0-1.7673 0.52418-2.1924 1.2976" fill="none" stroke="currentColor" stroke-linecap="round" stroke-linejoin="round" style="paint-order:fill markers stroke"/><g opacity=".56873"><path class="ColorScheme-Text" d="m7.5 15.5c-0.55228 0-1 0.44772-1 1s0.44772 1 1 1 1-0.44772 1-1-0.44772-1-1-1zm8 4c-0.55228 0-1 0.44772-1 1s0.44772 1 1 1 1-0.44772 1-1-0.44772-1-1-1z" fill="none" stroke="currentColor" stroke-linecap="round" stroke-linejoin="round" style="paint-order:fill markers stroke"/></g><path class="ColorScheme-Text" d="m8.385 1.2772c-0.022894 3.86e-4 -0.045734 0.0023-0.068359 0.0059-4.7817 0.77033-8.3029 4.9048-8.3027 9.748 1.292e-4 1.9636 0.57562 3.7951 1.5664 5.334 0.41966 0.543 1.2008 0.10726 0.72848-0.71086-0.82168-1.3459-1.2948-2.9284-1.2949-4.623-9.41e-5 -3.9119 2.6062-7.1749 6.2383-8.3301-1.057 1.6038-1.7696 3.4132-1.7695 5.3555 0 0.65534 0.99998 0.67842 0.99998 1e-5 -5.8e-5 -2.1961 0.81396-4.3148 2.2852-5.9453 0.29241-0.32572 0.054808-0.84336-0.38281-0.83398z" fill="currentColor"/><path class="ColorScheme-Text" d="m17.5 15.5c-0.55228 0-1 0.44772-1 1s0.44772 1 1 1 1-0.44772 1-1-0.44772-1-1-1zm-12 4c-0.55228 0-1 0.44772-1 1s0.44772 1 1 1 1-0.44772 1-1-0.44772-1-1-1z" fill="none" stroke="currentColor" stroke-linecap="round" stroke-linejoin="round" style="paint-order:fill markers stroke"/><path class="ColorScheme-Text" d="m11.381 12c-0.23844 8.5e-5 -0.44364 0.1685-0.49023 0.40234l-1.3 5c-0.061541 0.30922 0.17495 0.59753 0.49023 0.59766h0.89062l-0.68086 3.4023c-0.10789 0.55405 0.64148 0.83447 0.92383 0.3457l3.2-5c0.19026-0.33312-0.049972-0.74757-0.43359-0.74805h-0.69141l1.3387-3.2773c0.16516-0.33222-0.076256-0.72228-0.44727-0.72266zm0.41016 1h1.5812l-0.97734 2.5527c-0.25114 0.59751 0.1237 1.2724 0.76367 1.375l-1.382 2.1445 0.17539-0.87695c0.12308-0.61844-0.3499-1.1951-0.98047-1.1953h-0.28125z" color="#232629" fill="currentColor"/></svg>
