<?xml version="1.0" encoding="UTF-8"?>
<svg width="22" height="22" version="1.1" xml:space="preserve" xmlns="http://www.w3.org/2000/svg"><defs><style id="current-color-scheme" type="text/css">
            .ColorScheme-Text {
                color:#232629;
            }
        </style></defs><path class="ColorScheme-Text" d="m5.8359 0c-1.3563 0-2.4397 0.98607-2.6855 2.2559h-1.123c-1.1136 0-2.0273 0.89953-2.0273 1.998 0 1.0985 0.9137 2 2.0273 2h3.7988c1.7448 0.0060876 3.1736-1.3961 3.1797-3.1172 0.0031238-1.7237-1.4205-3.1337-3.168-3.1367a0.50348 0.49664 0 0 0-0.0019531 0zm6.4277 0.0058594c-0.24982 0.0056-0.46306 0.17873-0.52148 0.42188l-0.51953 2.3477c-0.06599 0.27128 0.10158 0.54592 0.37305 0.61133 0.05087 0.012373 0.10264 0.016866 0.15234 0.013672 0.01657-0.00106 0.032598-0.0031893 0.048828-0.0058594 0.19476-0.032014 0.3611-0.17726 0.41016-0.38086l0.60742-2.3262c0.07208-0.29632-0.10979-0.59264-0.40625-0.66406-0.04748-0.011671-0.09774-0.01851-0.14453-0.017578zm-6.4277 0.98633c1.2033 0.0020352 2.1662 0.95761 2.1641 2.1445-0.0050285 1.1837-0.96974 2.1292-2.1699 2.125a0.50348 0.49664 0 0 0-0.0019531 0h-3.8008c-0.5695 0-1.0215-0.44605-1.0215-1.0078 0-0.56176 0.45198-1.0059 1.0215-1.0059h1.5234a0.50348 0.49664 0 0 0 0.50391-0.49609c0-0.97633 0.79167-1.759 1.7812-1.7598zm10.844 1.4219c-0.14616 0.00366-0.28428 0.062314-0.38477 0.16797l-1.6211 1.7734c-0.16813 0.17677-0.18453 0.44389-0.050781 0.63672 0.0096 0.013774 0.02016 0.028066 0.03125 0.041016 0.01109 0.012949 0.022536 0.025105 0.035156 0.037109 0.10101 0.096066 0.23043 0.14183 0.35938 0.13867 0.01612-3.953e-4 0.032808-0.0019663 0.048828-0.0039063 0.11214-0.013535 0.22059-0.063962 0.30469-0.15234l1.6934-1.7129c0.20981-0.2206 0.20108-0.56549-0.019531-0.77539-0.1056-0.10047-0.25059-0.15401-0.39648-0.15039zm-6.5703 2.1914c-0.76692-0.00266-0.58073 0.99316 0.005859 1.002 1.1021 0.016518 2.1926 0.47246 3.0254 1.3242 0.96081 0.98274 1.3684 2.2973 1.2246 3.5625-0.07217 0.63506 0.94566 0.74461 1.0117-0.03125 0.1288-1.5131-0.3776-3.0703-1.5176-4.2363-1.0269-1.0503-2.3823-1.6163-3.75-1.6211zm9.1914 2.0977c-0.04669 0.00161-0.09491 0.0097405-0.14062 0.023438l-2.293 0.7207c-0.26797 0.078903-0.42126 0.35925-0.3418 0.62695 0.07887 0.26783 0.36124 0.42124 0.62891 0.3418l2.3203-0.63281c0.2923-0.086067 0.45786-0.39323 0.37109-0.68555-0.070274-0.23924-0.29197-0.40042-0.54102-0.39453h-0.003907zm-13.535 0.30664c-0.15758 9.32e-5 -0.3182 0.078247-0.42578 0.26172-1.1666 1.9894-0.97452 4.5894 0.66406 6.3594 1.4708 1.5887 2.9961 2.3691 5.9961 2.3691h2.9492c1.1262 0 2.0508-0.92458 2.0508-2.0508 8.1e-5 -0.0052 8.1e-5 -0.010415 0-0.015625-0.03649-1.0969-0.96604-1.9656-2.0625-1.9316-1.0827 0.02088-1.9558 0.9226-1.9375 2.0059 0.0043 0.27616 0.23166 0.49654 0.50781 0.49219 0.27616-0.0043 0.49654-0.23166 0.49219-0.50781-0.0092-0.54447 0.41452-0.98298 0.95898-0.99219 0.0026 2e-5 0.005213 2e-5 0.007813 0 0.55518-0.01847 1.0059 0.4053 1.0293 0.95898-0.005964 0.58035-0.46494 1.041-1.0469 1.041h-2.9492c-2.4629 0-3.8845-0.5979-5.3027-2.127-1.2246-1.3204-1.4356-3.435-0.50391-5.0488 0.25412-0.44015-0.08105-0.81466-0.42773-0.81445zm-2.791 4.5527c-0.042741 0.0015-0.086981 0.009004-0.12891 0.021484l-2.3203 0.63477c-0.2923 0.08607-0.45786 0.39323-0.37109 0.68555 0.086113 0.29246 0.39318 0.45787 0.68555 0.37109l2.293-0.72266c0.26797-0.0789 0.42126-0.35925 0.3418-0.62695-0.064347-0.21906-0.27006-0.36866-0.49805-0.36328h-0.0019531zm16.963 2.4395c-1.0827 0.02088-1.9558 0.9226-1.9375 2.0059 0.0043 0.27616 0.23166 0.49654 0.50781 0.49219 0.27616-0.0043 0.49654-0.23166 0.49219-0.50781-0.0092-0.54447 0.41452-0.98298 0.95898-0.99219 0.0026 2e-5 0.005213 2e-5 0.007813 0 0.55518-0.01847 1.0059 0.4053 1.0293 0.95898-0.005964 0.58035-0.46494 1.041-1.0469 1.041h-13.449c-0.27614 0-0.5 0.22386-0.5 0.5s0.22386 0.5 0.5 0.5h13.449c1.1262 0 2.0508-0.92458 2.0508-2.0508 8.1e-5 -0.0052 8.1e-5 -0.010415 0-0.015625-0.03649-1.0969-0.96604-1.9656-2.0625-1.9316zm-14.912 0.7207c-0.132 0.0052-0.26894 0.06038-0.375 0.17188-0.58361 0.58554-1.1639 1.1747-1.7441 1.7637-0.21059 0.22058-0.20345 0.56726 0.017578 0.77734 0.22055 0.21056 0.57128 0.20333 0.78125-0.017578 0.55865-0.60812 1.1155-1.2181 1.6719-1.8281 0.20001-0.20001 0.17915-0.5596-0.0039062-0.74024-0.088675-0.08751-0.21566-0.13218-0.34766-0.12695zm3.4746 4.2773c-0.27614 0-0.5 0.22386-0.5 0.5s0.22386 0.5 0.5 0.5h8 0.97656c0.29181 0 0.51254 0.22726 0.51758 0.51758-0.011581 0.27721-0.22702 0.48902-0.50586 0.48242-0.0039-4.6e-5 -0.007798-4.6e-5 -0.011719 0h-0.019531c-0.25828 0-0.45703-0.19875-0.45703-0.45703v-0.042969c0-0.27614-0.22386-0.5-0.5-0.5s-0.5 0.22386-0.5 0.5v0.042969c0 0.79872 0.65831 1.457 1.457 1.457h0.007813c0.82244 0.01944 1.5157-0.64242 1.5352-1.4648 4.6e-5 -0.0039 4.6e-5 -0.007798 0-0.011718 1.3e-5 -0.83556-0.68788-1.5234-1.5234-1.5234h-8.9766z" fill="currentColor"/></svg>
