<?xml version="1.0" encoding="UTF-8"?>
<svg width="22" height="22" version="1.1" xml:space="preserve" xmlns="http://www.w3.org/2000/svg"><defs><style id="current-color-scheme" type="text/css">.ColorScheme-Text {
                color:#232629;
            }</style></defs><path class="ColorScheme-Text" d="m1.5 0c-0.79312 0-1.5 0.59599-1.5 1.3906v0.21875c0 0.79464 0.70688 1.3906 1.5 1.3906h7c0.79312 0 1.5-0.59599 1.5-1.3906v-0.21875c0-0.79464-0.70688-1.3906-1.5-1.3906h-7zm0 1h7c0.31489 0 0.5 0.19883 0.5 0.39062v0.21875c0 0.19179-0.18511 0.39062-0.5 0.39062h-7c-0.31489 0-0.5-0.19883-0.5-0.39062v-0.21875c0-0.19179 0.18511-0.39062 0.5-0.39062zm10.57 0.41211c-0.22887 0.00513-0.425 0.16397-0.47852 0.38672l-0.37305 1.5449c-0.066 0.27129 0.10157 0.54592 0.37305 0.61133 0.27129 0.065992 0.54592-0.10158 0.61133-0.37305l0.37109-1.5449c0.06604-0.27147-0.0995-0.54394-0.37109-0.60938-0.0435-0.010692-0.089951-0.016478-0.13281-0.015625zm4.0449 2.2051c-0.1339 0.00335-0.2595 0.057503-0.35156 0.1543l-1.0938 1.1523c-0.02248 0.023637-0.041534 0.049681-0.058594 0.076172h1.377l0.50781-0.5332c0.19221-0.2021 0.18453-0.51864-0.017578-0.71094-0.096744-0.092045-0.22962-0.14199-0.36328-0.13867zm-12.822 0.38281c-0.039708 0.023475-0.076878 0.051769-0.10938 0.085938-0.19214 0.20202-0.18624 0.52277 0.015625 0.71484l1.1523 1.0938c0.20202 0.19214 0.52277 0.18624 0.71484-0.015625 0.19214-0.20202 0.18444-0.52067-0.017578-0.71289l-1.1523-1.0977c-0.028046-0.026686-0.058826-0.049038-0.091797-0.068359h-0.51172zm4.6758 1.584c-0.028748 0.0022637-0.058382 0.0077818-0.087891 0.017578-0.59029 0.19596-1.1121 0.58862-1.5898 1.0391-1.2352 1.1646-1.8005 2.7824-1.6758 4.3594 0.065516 0.49326 1.0431 0.41476 1.0078 0-0.12735-1.3069 0.33335-2.6559 1.3633-3.627 0.35849-0.33801 0.75794-0.60409 1.1816-0.79883 0.55199-0.25484 0.232-1.0242-0.19922-0.99023zm2.5312 0.41602c-0.81218 0-1.5 0.64957-1.5 1.4609v0.078125c0 0.81137 0.68782 1.4609 1.5 1.4609h9c0.81218 0 1.5-0.64957 1.5-1.4609v-0.078125c0-0.81137-0.68782-1.4609-1.5-1.4609h-9zm0 1h9c0.29582 0 0.5 0.20863 0.5 0.46094v0.078125c0 0.25231-0.20418 0.46094-0.5 0.46094h-9c-0.29582 0-0.5-0.20863-0.5-0.46094v-0.078125c0-0.25231 0.20418-0.46094 0.5-0.46094zm-9.168 0.97461c-0.22887 0.0051303-0.423 0.16379-0.47656 0.38672-0.066028 0.27143 0.09966 0.54593 0.37109 0.61133l1.543 0.37305c0.27125 0.065984 0.54791-0.10172 0.61328-0.37305 0.065994-0.27129-0.10158-0.54592-0.37305-0.61133l-1.5449-0.37305c-0.042567-0.010466-0.08899-0.01454-0.13281-0.013672zm13.021 2.0254c0.1176 0.90235-0.0473 1.8331-0.49219 2.6543-0.15564 0.1986 0.62831 0.8893 0.9707 0.31445 0.52954-0.88906 0.63556-1.96 0.5293-2.9688h-1.0078zm2.7363 1.7793c-0.22888 0.0051-0.42699 0.16414-0.48047 0.38672-0.066 0.27132 0.10142 0.54393 0.37305 0.60938l1.5449 0.37109c0.27147 0.06604 0.54394-0.0995 0.60938-0.37109 0.06603-0.27143-0.09965-0.54593-0.37109-0.61133l-1.543-0.37305c-0.04165-0.01024-0.08801-0.012609-0.13281-0.011719zm-14.59 0.2207c-0.81218 0-1.5 0.64956-1.5 1.4609v0.078124c0 0.81137 0.68782 1.4609 1.5 1.4609h9c0.81218 0 1.5-0.64957 1.5-1.4609v-0.078124c0-0.81137-0.68782-1.4609-1.5-1.4609h-9zm0 1h9c0.29582 0 0.5 0.20862 0.5 0.46094v0.078124c0 0.2523-0.20418 0.46094-0.5 0.46094h-9c-0.29582 0-0.5-0.20862-0.5-0.46094v-0.078124c0-0.25231 0.20418-0.46094 0.5-0.46094zm12.576 1.9121c-0.13355 0.0033-0.25723 0.05912-0.34961 0.15625-0.19214 0.20202-0.18445 0.52067 0.017579 0.71289l1.2793 1.2188h0.82812v-0.001953c0.14937-0.20479 0.12492-0.48756-0.058593-0.66211l-1.3535-1.2852c-0.09674-0.09205-0.22962-0.14199-0.36328-0.13867zm-10.941 1.0879-0.63672 0.66797c-0.19262 0.20141-0.1858 0.52213 0.015625 0.71484 0.20194 0.19207 0.5227 0.18437 0.71484-0.017578l1.1445-1.207c0.05465-0.05745 0.11398-0.1096 0.17578-0.1582h-1.4141zm2.3652 2c-0.81218 0-1.5 0.64956-1.5 1.4609v0.078124c0 0.81137 0.68782 1.4609 1.5 1.4609h14c0.81218 0 1.5-0.64956 1.5-1.4609v-0.078124c0-0.81137-0.68782-1.4609-1.5-1.4609h-14zm0 1h14c0.29582 0 0.5 0.20862 0.5 0.46094v0.078124c0 0.2523-0.20418 0.46094-0.5 0.46094h-14c-0.29582 0-0.5-0.20862-0.5-0.46094v-0.078124c0-0.2523 0.20418-0.46094 0.5-0.46094z" fill="currentColor"/></svg>
