<?xml version="1.0" encoding="UTF-8"?>
<svg xmlns="http://www.w3.org/2000/svg" width="22" height="22" version="1.1" xml:space="preserve">
  <defs>
    <style id="current-color-scheme" type="text/css">.ColorScheme-Text { color:#232629; }</style>
  </defs>
  <path class="ColorScheme-Text" d="m13 4.5c-2.7614 0-5 2.2386-5 5-2.43-0.18834-4.1039 1.0041-4.5 3.459v0.08203c0 0.90446 0.34761 1.7294 0.91602 2.3457 0.34014-0.12968 0.51127-0.15991 0.5957-0.13476 0.12642-1.2568 1.2005-2.252 2.4883-2.252 0.68048 0 1.2973 0.28311 1.75 0.73047l0.66602-2.5547c0.15068-0.67953 0.76633-1.1755 1.4648-1.1758h2.8008c1.0509 0.0011 1.7874 1.1634 1.3652 2.1133l-0.92578 2.2715c0.25153 0.15879 0.50501 0.23787 0.63281 0.50586 0.30055-1.0434 1.1113-1.8906 2.246-1.8906 1.3716 0 2.5 1.1284 2.5 2.5 0 0.1448-0.013 0.28745-0.03711 0.42578 0.31468 0.02873 0.56641 0.05273 0.56641 0.05273 0.59078-0.45725 0.9707-1.1736 0.9707-1.9785 0-1.283-0.96629-2.3412-2.2109-2.4844v-0.01563c0-1.2773-0.81641 0.72431-0.81641-1.3418 0-0.04851-0.0087-0.09634-0.02148-0.14062l0.04882-0.017578c0-3.0376-2.4624-5.5-5.5-5.5z" fill="currentColor" opacity=".3" style="paint-order:fill markers stroke"/>
  <g transform="translate(0,-1)" fill="none" stroke-linecap="round" stroke-linejoin="round">
    <path class="ColorScheme-Text" d="m18.5 11c0-3.0376-2.4624-5.5-5.5-5.5-2.7614 0-5 2.2386-5 5h-1.0417c-1.91 0-3.4583 1.5483-3.4583 3.4583v0.08346c0 0.90446 0.34721 1.7278 0.91562 2.3441m16.114 0.59237c0.59078-0.45726 0.97114-1.1733 0.97114-1.9782 0-1.3807-1.1193-2.5-2.5-2.5-0.55975 0-1.0765 0.18396-1.4932 0.49472" stroke="currentColor" style="paint-order:fill markers stroke"/>
  </g>
  <path class="ColorScheme-Text" d="m11.38 11c-0.23844 8.5e-5 -0.44364 0.1685-0.49023 0.40234l-1.3 5c-0.061541 0.30922 0.17495 0.59753 0.49023 0.59766h0.89062l-0.68086 3.4023c-0.10789 0.55405 0.64148 0.83447 0.92383 0.3457l3.2-5c0.19026-0.33312-0.04997-0.74757-0.43359-0.74805h-0.69141l1.3387-3.2773c0.16516-0.33222-0.07626-0.72228-0.44727-0.72266zm0.41016 1h1.5812l-0.97734 2.5527c-0.25114 0.59751 0.1237 1.2724 0.76367 1.375l-1.382 2.1445 0.17539-0.87695c0.12308-0.61844-0.3499-1.1951-0.98047-1.1953h-0.28125z" fill="currentColor"/>
  <path class="ColorScheme-Text" d="m6.918 13.945c-0.1464-0.0012-0.28471 0.06685-0.37305 0.18359-0.14192 0.18939-0.11834 0.45547 0.054687 0.61719l0.013672 0.01367-0.62891 0.34961c-0.4774 0.27283-0.16616 1.003 0.36133 0.84766l0.019531-0.0059-0.011719 0.72266c-0.00228 0.5504 0.78523 0.64631 0.91406 0.11133l0.00391-0.01953 0.61914 0.37109c0.47525 0.2777 0.95153-0.35679 0.55273-0.73633l-0.013672-0.01367 0.62891-0.34961c0.49134-0.2685 0.17303-1.0171-0.36133-0.84957l-0.017578 0.0059 0.00977-0.71875c0.00467-0.5517-0.785-0.64948-0.91406-0.11328l-0.00391 0.01758-0.61914-0.36914c-0.071023-0.04196-0.15193-0.06421-0.23438-0.06445zm10.102 0c-0.1464-0.0012-0.28471 0.06685-0.37305 0.18359-0.14192 0.18939-0.11834 0.45547 0.05469 0.61719l0.01367 0.01367-0.62891 0.34961c-0.4774 0.27283-0.16616 1.003 0.36133 0.84766l0.01953-0.0059-0.01172 0.72266c-0.0023 0.5504 0.78523 0.64632 0.91406 0.11133l0.0039-0.01953 0.61914 0.37109c0.47525 0.2777 0.95153-0.35679 0.55273-0.73633l-0.01367-0.01367 0.62891-0.34961c0.49135-0.26858 0.17303-1.0171-0.36133-0.84961l-0.01758 0.0059 0.0098-0.71875c0.0047-0.55162-0.78501-0.64948-0.91406-0.11328l-0.0039 0.01758-0.61914-0.36914c-0.07102-0.04196-0.15192-0.06421-0.23438-0.06445zm-9.7383 1.0254 0.10156 0.06055c0.17033 0.07672 0.36299 0.08785 0.54102 0.03125l-0.00195 0.11914c0.017352 0.18619 0.10291 0.3594 0.24023 0.48633l-0.10156 0.05664c-0.15246 0.10816-0.25958 0.26884-0.30078 0.45117l-0.097656-0.06055c-0.16952-0.07687-0.36139-0.08869-0.53906-0.0332l0.0019498-0.11524c-0.01495-0.18869-0.099949-0.36495-0.23828-0.49414l0.097656-0.05273c0.1506-0.10836 0.25622-0.2682 0.29688-0.44922zm10.102 0 0.10156 0.06055c0.17033 0.07672 0.36299 0.08785 0.54102 0.03125l-2e-3 0.11914c0.01735 0.18619 0.10291 0.3594 0.24023 0.48633l-0.10156 0.05664c-0.15246 0.10816-0.25958 0.26884-0.30078 0.45117l-0.09766-0.06055c-0.16952-0.07687-0.36139-0.08869-0.53906-0.0332l2e-3 -0.11523c-0.01495-0.18869-0.09995-0.36495-0.23828-0.49414l0.09766-0.05273c0.1506-0.10836 0.29688-0.26369 0.29687-0.44922zm-14.648 3.1738c-0.082446 2.41e-4 -0.16336 0.022493-0.23438 0.064453l-0.61914 0.36914-0.00391-0.01758c-0.12905-0.5362-0.91876-0.43833-0.91406 0.11328l0.009766 0.71875-0.017578-0.0059c-0.53437-0.16731-0.85267 0.58107-0.36132 0.84965l0.62891 0.34961-0.013672 0.01367c-0.3988 0.37954 0.077488 1.014 0.55273 0.73633l0.61914-0.37109 0.00391 0.01953c0.12883 0.53499 0.91636 0.43907 0.91406-0.11133l-0.011719-0.72266 0.019531 0.0059c0.52749 0.15533 0.83873-0.57482 0.36133-0.84766l-0.62891-0.34961 0.013672-0.01367c0.17303-0.16176 0.1966-0.4278 0.054687-0.61719-0.08834-0.11674-0.22665-0.18479-0.37305-0.18359zm5 0c-0.082446 2.41e-4 -0.16336 0.022493-0.23438 0.064453l-0.61914 0.36914-0.00391-0.01758c-0.12905-0.5362-0.91876-0.43833-0.91406 0.11328l0.00977 0.71875-0.017578-0.0059c-0.53437-0.16731-0.85268 0.58107-0.36133 0.84965l0.62891 0.34961-0.013672 0.01367c-0.3988 0.37954 0.077488 1.014 0.55273 0.73633l0.61914-0.37109 0.00391 0.01953c0.12883 0.53499 0.91636 0.43907 0.91406-0.11133l-0.011719-0.72266 0.019531 0.0059c0.52749 0.15533 0.83873-0.57482 0.36133-0.84766l-0.62891-0.34961 0.013672-0.01367c0.17303-0.16176 0.1966-0.4278 0.054687-0.61719-0.08834-0.11674-0.22665-0.18479-0.37305-0.18359zm7.498 0c-0.08245 2.41e-4 -0.16336 0.02249-0.23438 0.06445l-0.61914 0.36914-0.0039-0.01758c-0.12906-0.5362-0.91876-0.43837-0.91406 0.11328l0.01172 0.71875-0.01758-0.0059c-0.53436-0.16744-0.85268 0.58103-0.36133 0.84961l0.62891 0.34961-0.01367 0.01367c-0.3988 0.37954 0.07749 1.014 0.55274 0.73633l0.61914-0.37109 0.0039 0.01953c0.12883 0.53499 0.91636 0.43907 0.91406-0.11133l-0.01172-0.72266 0.01953 0.0059c0.52749 0.15533 0.83873-0.57482 0.36133-0.84766l-0.62891-0.34961 0.01367-0.01367c0.17303-0.16172 0.1966-0.4278 0.05469-0.61719-0.08834-0.11674-0.22665-0.18479-0.37305-0.18359zm5 0c-0.08245 2.41e-4 -0.16336 0.02249-0.23438 0.06445l-0.61914 0.36914-0.0039-0.01758c-0.12906-0.5362-0.91876-0.43837-0.91406 0.11328l0.01172 0.71875-0.01758-0.0059c-0.53436-0.16744-0.85268 0.58103-0.36133 0.84961l0.62891 0.34961-0.01367 0.01367c-0.3988 0.37954 0.07749 1.014 0.55274 0.73633l0.61914-0.37109 0.0039 0.01953c0.12883 0.53499 0.91636 0.43907 0.91406-0.11133l-0.01172-0.72266 0.01953 0.0059c0.52749 0.15533 0.83873-0.57482 0.36133-0.84766l-0.62891-0.34961 0.01367-0.01367c0.17303-0.16172 0.1966-0.4278 0.05469-0.61719-0.08834-0.11674-0.22665-0.18479-0.37305-0.18359zm-17.861 1.0254c0.04065 0.18102 0.14627 0.34086 0.29688 0.44922l0.097656 0.05273c-0.13833 0.12919-0.22333 0.30546-0.23828 0.49414l0.00195 0.11523c-0.17767-0.05549-0.36955-0.04367-0.53906 0.0332l-0.097653 0.060554c-0.0412-0.18233-0.14832-0.34301-0.30078-0.45117l-0.10156-0.05664c0.13732-0.12693 0.22288-0.30014 0.24023-0.48633l-0.00195-0.11914c0.17803 0.0566 0.37069 0.04547 0.54102-0.03125zm5 0c0.04065 0.18102 0.14627 0.34086 0.29688 0.44922l0.097656 0.05273c-0.13833 0.12919-0.22333 0.30546-0.23828 0.49414l0.00195 0.11523c-0.17767-0.05549-0.36955-0.04367-0.53906 0.0332l-0.097653 0.060554c-0.0412-0.18233-0.14832-0.34301-0.30078-0.45117l-0.10156-0.05664c0.13732-0.12693 0.22288-0.30014 0.24023-0.48633l-0.00195-0.11914c0.17803 0.0566 0.37069 0.04547 0.54102-0.03125zm7.498 0c0.04066 0.181 0.14628 0.34086 0.29688 0.44922l0.09766 0.05273c-0.13833 0.12919-0.22333 0.30546-0.23828 0.49414l0.0039 0.11523c-0.17767-0.05549-0.36955-0.04367-0.53906 0.0332l-0.09766 0.06055c-0.0412-0.18233-0.14832-0.34301-0.30078-0.45117l-0.10156-0.05664c0.13732-0.12693 0.22288-0.30014 0.24024-0.48633l-2e-3 -0.11914c0.17803 0.0566 0.37068 0.04547 0.54102-0.03125zm5 0c0.04066 0.181 0.14628 0.34086 0.29688 0.44922l0.09766 0.05273c-0.13833 0.12919-0.22333 0.30546-0.23828 0.49414l0.0039 0.11523c-0.17767-0.05549-0.36955-0.04367-0.53906 0.0332l-0.09766 0.06055c-0.0412-0.18233-0.14832-0.34301-0.30078-0.45117l-0.10156-0.05664c0.13732-0.12693 0.22288-0.30014 0.24024-0.48633l-2e-3 -0.11914c0.17803 0.0566 0.37068 0.04547 0.54102-0.03125z" fill="currentColor" opacity=".8" style="paint-order:fill markers stroke"/>
  <path class="ColorScheme-Text" d="m8.385 0.2772c-0.022894 3.86e-4 -0.045734 0.0023-0.068359 0.0059-4.7817 0.77033-8.3029 4.9048-8.3027 9.748 1.292e-4 1.9636 0.57562 3.7951 1.5664 5.334 0.41966 0.543 1.2008 0.10726 0.72848-0.71086-0.82168-1.3459-1.2948-2.9284-1.2949-4.623-9.41e-5 -3.9119 2.6062-7.1749 6.2383-8.3301-1.057 1.6038-1.7696 3.4132-1.7695 5.3555 0 0.65534 0.99998 0.67842 0.99998 1e-5 -5.8e-5 -2.1961 0.81396-4.3148 2.2852-5.9453 0.29241-0.32572 0.054808-0.84336-0.38281-0.83398z" fill="currentColor"/>
</svg>
