<?xml version="1.0" encoding="UTF-8"?>
<svg xmlns="http://www.w3.org/2000/svg" width="22" height="22" version="1.1">
  <defs>
    <style id="current-color-scheme" type="text/css">.ColorScheme-Text {
                color:#232629;
            }</style>
  </defs>
  <path class="ColorScheme-Text" d="m12.264 0.0058594c-0.24982 0.0056-0.46306 0.17873-0.52148 0.42188l-0.51953 2.3477c-0.06599 0.27128 0.10158 0.54592 0.37305 0.61133 0.05087 0.012373 0.10264 0.016866 0.15234 0.013672 0.01657-0.00106 0.0326-0.00319 0.04883-0.00586 0.19476-0.032014 0.3611-0.17726 0.41016-0.38086l0.60742-2.3262c0.07208-0.29632-0.10979-0.59264-0.40625-0.66406-0.04748-0.011671-0.09774-0.01851-0.14453-0.017578zm-5.0273 0.12891c-0.047689 0.00158-0.095868 0.0080704-0.14062 0.021484-0.29246 0.086113-0.45787 0.39123-0.37109 0.68359l0.72266 2.293c0.078902 0.26797 0.35925 0.42126 0.62695 0.3418 0.083697-0.024644 0.15711-0.069219 0.21484-0.12695 0.011547-0.011547 0.020915-0.022605 0.03125-0.035156 0.10335-0.12551 0.14536-0.29951 0.095703-0.4668l-0.63281-2.3184c-0.070205-0.239-0.29567-0.39848-0.54492-0.39258zm9.4434 2.2793c-0.14616 0.00366-0.28428 0.062314-0.38477 0.16797l-1.6211 1.7734c-0.16813 0.17677-0.18453 0.44389-0.05078 0.63672 0.0096 0.013774 0.02016 0.028066 0.03125 0.041016 0.01109 0.012949 0.02254 0.025105 0.03516 0.037109 0.10101 0.096066 0.23043 0.14183 0.35938 0.13867 0.01612-3.953e-4 0.03281-0.00197 0.04883-0.00391 0.11214-0.013535 0.22059-0.063962 0.30469-0.15234l1.6934-1.7129c0.20981-0.2206 0.20108-0.56549-0.019531-0.77539-0.1056-0.10047-0.25059-0.15401-0.39648-0.15039zm-13.732 0.33984c-0.14581 0.00366-0.28216 0.06605-0.38281 0.17188-0.20973 0.22052-0.20472 0.56964 0.015625 0.7793l1.7754 1.6211c0.20202 0.19214 0.52277 0.18624 0.71484-0.015625 0.19214-0.20202 0.18444-0.52067-0.017578-0.71289l-1.7109-1.6914c-0.10576-0.10064-0.24863-0.15596-0.39453-0.15234zm-2.4043 4.416c-0.24982 0.0056-0.46107 0.17854-0.51953 0.42188-0.072073 0.29628 0.10801 0.59658 0.4043 0.66797l2.3457 0.51758c0.05085 0.012351 0.10254 0.016886 0.15234 0.013672 0.0166-0.00107 0.032557-0.00319 0.048828-0.00586 0.19526-0.032089 0.36309-0.17741 0.41211-0.38086 0.00412-0.016956 0.00743-0.033852 0.00977-0.050781 0.034964-0.25395-0.12832-0.49922-0.38282-0.56055l-2.3262-0.60938c-0.046464-0.011424-0.096697-0.01462-0.14453-0.013672zm2.4316 4.3926c-0.042741 0.0015-0.086981 9e-3 -0.12891 0.02148l-2.3203 0.63477c-0.2923 0.08607-0.45786 0.39323-0.37109 0.68555 0.086113 0.29246 0.39318 0.45787 0.68555 0.37109l2.293-0.72266c0.26797-0.0789 0.42126-0.35925 0.3418-0.62695-0.064347-0.21906-0.27006-0.36866-0.49805-0.36328z" fill="currentColor"/>
  <path class="ColorScheme-Text" stroke="currentColor" transform="translate(-.5 -.5)" d="m19 13.5c0-3.0376-2.4624-5.5-5.5-5.5-2.7614 0-5 2.2386-5 5h-1c-1.933 0-3.5 1.567-3.5 3.5v0.0417c0 1.91 1.5483 3.4583 3.4583 3.4583h12.042c1.3807 0 2.5-1.1193 2.5-2.5s-1.1193-2.5-2.5-2.5c-0.94487 0-1.7673 0.52418-2.1924 1.2976" fill="none" stroke-linecap="round" stroke-linejoin="round" style="paint-order:fill markers stroke"/>
  <path class="ColorScheme-Text" stroke="currentColor" d="m5.2983 11.374a4.8984 4.8984 0 0 1 1.7476-5.2818 4.8984 4.8984 0 0 1 5.5582-0.24143" fill="none" stroke-linecap="round" stroke-linejoin="round" style="paint-order:fill markers stroke"/>
</svg>
