<?xml version="1.0" encoding="UTF-8"?>
<svg xmlns="http://www.w3.org/2000/svg" width="22" height="22" version="1.1" xml:space="preserve">
  <defs>
    <style id="current-color-scheme" type="text/css">.ColorScheme-Text {
                color:#232629;
            }</style>
  </defs>
  <g transform="translate(.89982 .99995)" stroke-linecap="round" stroke-linejoin="round">
    <path class="ColorScheme-Text" d="m17.5 9c0-3.0376-2.4624-5.5-5.5-5.5-2.7614 0-5 2.2386-5 5h-1.0417c-1.91 0-3.4583 1.5483-3.4583 3.4583v0.08346c0 0.90446 0.34721 1.7278 0.91562 2.3441m5.364 1.1142h0.36022m6.1602 0h-0.40006m5.449-1.6414c0.09791-0.26776 0.15134-0.55695 0.15134-0.85861 0-1.3807-1.1193-2.5-2.5-2.5-0.94487 0-1.7673 0.52418-2.1924 1.2976" fill="none" stroke="currentColor" style="paint-order:fill markers stroke"/>
    <path class="ColorScheme-Text" d="m5.5195 13.945c-0.1464-0.0012-0.28471 0.06685-0.37305 0.18359-0.14192 0.18939-0.11834 0.45547 0.054687 0.61719l0.013672 0.01367-0.62891 0.34961c-0.4774 0.27283-0.16616 1.003 0.36133 0.84766l0.019531-0.0059-0.011719 0.72266c-0.00228 0.5504 0.78523 0.64631 0.91406 0.11133l0.00391-0.01953 0.61914 0.37109c0.47525 0.2777 0.95153-0.35679 0.55273-0.73633l-0.013675-0.01363 0.62891-0.34961c0.49135-0.26858 0.17303-1.0171-0.36133-0.84961l-0.017578 0.0059 0.00977-0.71875c0.00467-0.55166-0.78501-0.64952-0.91407-0.11332l-0.00391 0.01758-0.61914-0.36914c-0.071023-0.04196-0.15193-0.06421-0.23438-0.06445zm6 0c-0.1464-0.0012-0.28471 0.06685-0.37305 0.18359-0.14192 0.18939-0.11834 0.45547 0.05469 0.61719l0.01367 0.01367-0.62891 0.34961c-0.4774 0.27283-0.16616 1.003 0.36133 0.84766l0.01953-0.0059-0.01172 0.72266c-0.0023 0.5504 0.78523 0.64632 0.91406 0.11133l0.0039-0.01953 0.61914 0.37109c0.47525 0.2777 0.95153-0.35679 0.55273-0.73633l-0.01367-0.01367 0.62891-0.34961c0.49135-0.26858 0.17303-1.0171-0.36133-0.84961l-0.01758 0.0059 0.0098-0.71875c0.0047-0.55162-0.78501-0.64948-0.91406-0.11328l-0.0039 0.01758-0.61914-0.36914c-0.07102-0.04196-0.15193-0.06421-0.23438-0.06445zm6 0c-0.1464-0.0012-0.28471 0.06685-0.37305 0.18359-0.14192 0.18939-0.11834 0.45547 0.05469 0.61719l0.01367 0.01367-0.62891 0.34961c-0.4774 0.27283-0.16616 1.003 0.36133 0.84766l0.01953-0.0059-0.01172 0.72266c-0.0023 0.5504 0.78523 0.64632 0.91406 0.11133l0.0039-0.01953 0.61914 0.37109c0.47525 0.2777 0.95153-0.35679 0.55273-0.73633l-0.01367-0.01367 0.62891-0.34961c0.49135-0.26858 0.17303-1.0171-0.36133-0.84961l-0.01758 0.0059 0.0098-0.71875c0.0047-0.55162-0.78501-0.64948-0.91406-0.11328l-0.0039 0.01758-0.61914-0.36914c-0.07102-0.04196-0.15193-0.06421-0.23438-0.06445zm-11.637 1.0254 0.10156 0.06055c0.17033 0.07672 0.36299 0.08785 0.54102 0.03125l-0.00195 0.11914c0.017352 0.18619 0.10291 0.3594 0.24023 0.48633l-0.10156 0.05664c-0.15246 0.10816-0.25958 0.26884-0.30078 0.45117l-0.097656-0.06055c-0.16952-0.07687-0.36139-0.08869-0.53906-0.0332l0.00195-0.11523c-0.01495-0.18869-0.099948-0.36495-0.23828-0.49414l0.097656-0.05273c0.1506-0.10836 0.25622-0.2682 0.29688-0.44922zm6 0 0.10156 0.06055c0.17033 0.07672 0.36299 0.08785 0.54102 0.03125l-2e-3 0.11914c0.01735 0.18619 0.10291 0.3594 0.24023 0.48633l-0.10156 0.05664c-0.15246 0.10816-0.25958 0.26884-0.30078 0.45117l-0.09766-0.06055c-0.16952-0.07687-0.36139-0.08869-0.53906-0.0332l2e-3 -0.11523c-0.01495-0.18869-0.09995-0.36495-0.23828-0.49414l0.09766-0.05273c0.1506-0.10836 0.25622-0.2682 0.29687-0.44922zm6 0 0.10156 0.06055c0.17033 0.07672 0.36299 0.08785 0.54102 0.03125l-2e-3 0.11914c0.01735 0.18619 0.10291 0.3594 0.24023 0.48633l-0.10156 0.05664c-0.15246 0.10816-0.25958 0.26884-0.30078 0.45117l-0.09766-0.06055c-0.16952-0.07687-0.36139-0.08869-0.53906-0.0332l2e-3 -0.11523c-0.01495-0.18869-0.09995-0.36495-0.23828-0.49414l0.09766-0.05273c0.1506-0.10836 0.25622-0.2682 0.29687-0.44922z" fill="currentColor" opacity=".6" stroke-width=".6572" style="paint-order:fill markers stroke"/>
    <path class="ColorScheme-Text" d="m16.734 17.745c0.1464-0.0012 0.28471 0.06685 0.37305 0.18359 0.14192 0.18939 0.11834 0.45547-0.05469 0.61719l-0.01367 0.01367 0.62891 0.34961c0.4774 0.27283 0.16616 1.003-0.36133 0.84766l-0.01953-0.0059 0.01172 0.72266c0.0023 0.5504-0.78523 0.64631-0.91406 0.11133l-0.0039-0.01953-0.61914 0.37109c-0.47525 0.2777-0.95154-0.35679-0.55273-0.73633l0.01367-0.01363-0.62891-0.34961c-0.49136-0.26858-0.17304-1.0171 0.36132-0.84961l0.01758 0.0059-0.0098-0.71875c-0.0047-0.55166 0.78501-0.64952 0.91407-0.11332l0.0039 0.01758 0.61914-0.36914c0.07102-0.04196 0.15193-0.06421 0.23438-0.06445zm-6 0c0.1464-0.0012 0.28471 0.06685 0.37305 0.18359 0.14192 0.18939 0.11834 0.45547-0.05469 0.61719l-0.01367 0.01367 0.62891 0.34961c0.4774 0.27283 0.16616 1.003-0.36133 0.84766l-0.01953-0.0059 0.01172 0.72266c0.0023 0.5504-0.78523 0.64632-0.91406 0.11133l-0.0039-0.01953-0.61914 0.37109c-0.47525 0.2777-0.95153-0.35679-0.55273-0.73633l0.01367-0.01367-0.62891-0.34961c-0.49135-0.26858-0.17303-1.0171 0.36133-0.84961l0.01758 0.0059-0.0098-0.71875c-0.0047-0.55162 0.78501-0.64948 0.91406-0.11328l0.0039 0.01758 0.61914-0.36914c0.07102-0.04196 0.15193-0.06421 0.23438-0.06445zm-6 0c0.1464-0.0012 0.28471 0.06685 0.37305 0.18359 0.14192 0.18939 0.11834 0.45547-0.05469 0.61719l-0.01367 0.01367 0.62891 0.34961c0.4774 0.27283 0.16616 1.003-0.36133 0.84766l-0.01953-0.0059 0.01172 0.72266c0.0023 0.5504-0.78523 0.64632-0.91406 0.11133l-0.0039-0.01953-0.61914 0.37109c-0.47525 0.2777-0.95153-0.35679-0.55273-0.73633l0.01367-0.01367-0.62891-0.34961c-0.49135-0.26858-0.17303-1.0171 0.36133-0.84961l0.01758 0.0059-0.0098-0.71875c-0.0047-0.55162 0.78501-0.64948 0.91406-0.11328l0.0039 0.01758 0.61914-0.36914c0.07102-0.04196 0.15193-0.06421 0.23438-0.06445zm11.637 1.0254-0.10156 0.06055c-0.17033 0.07672-0.36299 0.08785-0.54102 0.03125l0.0019 0.11914c-0.01735 0.18619-0.10291 0.3594-0.24024 0.48633l0.10156 0.05664c0.15246 0.10816 0.25958 0.26884 0.30078 0.45117l0.09766-0.06055c0.16952-0.07687 0.36139-0.08869 0.53906-0.0332l-2e-3 -0.11523c0.01495-0.18869 0.09995-0.36495 0.23828-0.49414l-0.09766-0.05273c-0.1506-0.10836-0.25622-0.2682-0.29688-0.44922zm-6 0-0.10156 0.06055c-0.17033 0.07672-0.36299 0.08785-0.54102 0.03125l2e-3 0.11914c-0.01735 0.18619-0.10291 0.3594-0.24023 0.48633l0.10156 0.05664c0.15246 0.10816 0.25958 0.26884 0.30078 0.45117l0.09766-0.06055c0.16952-0.07687 0.36139-0.08869 0.53906-0.0332l-2e-3 -0.11523c0.01495-0.18869 0.09995-0.36495 0.23828-0.49414l-0.09766-0.05273c-0.1506-0.10836-0.29687-0.26369-0.29687-0.44922zm-6 0-0.10156 0.06055c-0.17033 0.07672-0.36299 0.08785-0.54102 0.03125l2e-3 0.11914c-0.01735 0.18619-0.10291 0.3594-0.24023 0.48633l0.10156 0.05664c0.15246 0.10816 0.25958 0.26884 0.30078 0.45117l0.09766-0.06055c0.16952-0.07687 0.36139-0.08869 0.53906-0.0332l-2e-3 -0.11523c0.01495-0.18869 0.09995-0.36495 0.23828-0.49414l-0.09766-0.05273c-0.1506-0.10836-0.29687-0.26369-0.29687-0.44922z" fill="currentColor" opacity=".6" stroke-width=".6572" style="paint-order:fill markers stroke"/>
  </g>
  <path class="ColorScheme-Text" d="m7.2367 0.13477c-0.047689 0.00158-0.095873 0.008071-0.14062 0.021484-0.29246 0.086113-0.45787 0.39123-0.37109 0.68359l0.72266 2.293c0.078902 0.26797 0.35925 0.42126 0.62695 0.3418 0.083697-0.024644 0.15711-0.069222 0.21484-0.12695 0.011547-0.011547 0.020915-0.022605 0.03125-0.035156 0.10335-0.12551 0.14536-0.29951 0.095703-0.4668l-0.63281-2.3184c-0.070205-0.239-0.29567-0.39848-0.54492-0.39258h-0.00195zm-4.2886 2.6191c-0.14581 0.00366-0.28216 0.066045-0.38281 0.17188-0.20973 0.22052-0.20472 0.56964 0.015625 0.7793l1.7754 1.6211c0.20202 0.19214 0.52277 0.18624 0.71484-0.015625 0.19214-0.20202 0.18444-0.52067-0.017578-0.71289l-1.7109-1.6914c-0.10576-0.10064-0.24863-0.15596-0.39453-0.15234zm-2.4043 4.416c-0.24982 0.0056-0.46107 0.17854-0.51953 0.42188-0.072073 0.29628 0.10801 0.59658 0.4043 0.66797l2.3457 0.51758c0.05085 0.012351 0.10254 0.016886 0.15234 0.013672 0.0166-0.00107 0.032557-0.00319 0.048828-0.00586 0.19526-0.032089 0.36309-0.17741 0.41211-0.38086 0.00412-0.016956 0.00743-0.033852 0.00977-0.050781 0.034964-0.25395-0.12831-0.49922-0.38281-0.56055l-2.3262-0.60938c-0.046468-0.011423-0.096702-0.014619-0.14453-0.013671z" fill="currentColor"/>
  <g fill="none" stroke-linecap="round" stroke-linejoin="round">
    <path class="ColorScheme-Text" d="m5.3689 8.4032c0.31021-0.89998 0.88246-1.7104 1.677-2.311 0.19335-0.14617 0.39506-0.27629 0.60332-0.39029" stroke="currentColor" style="paint-order:fill markers stroke"/>
  </g>
</svg>
