<?xml version="1.0" encoding="UTF-8"?>
<svg width="22" height="22" version="1.1" xmlns="http://www.w3.org/2000/svg">
 <defs>
  <style id="current-color-scheme" type="text/css">.ColorScheme-Text {
                color:#232629;
            }</style>
 </defs>
 <path class="ColorScheme-Text" d="m12.264 0.0058594c-0.24982 0.0056-0.46306 0.17873-0.52148 0.42188l-0.51953 2.3477c-0.06599 0.27128 0.10158 0.54592 0.37305 0.61133 0.05087 0.012373 0.10264 0.016866 0.15234 0.013672 0.01657-0.00106 0.0326-0.00319 0.04883-0.00586 0.19476-0.032014 0.3611-0.17726 0.41016-0.38086l0.60742-2.3262c0.07208-0.29632-0.10979-0.59264-0.40625-0.66406-0.04748-0.011671-0.09774-0.01851-0.14453-0.017578zm4.416 2.4082c-0.14616 0.00366-0.28428 0.062314-0.38477 0.16797l-1.6211 1.7734c-0.16813 0.17677-0.18453 0.44389-0.05078 0.63672 0.0096 0.013774 0.02016 0.028066 0.03125 0.041016 0.01109 0.012949 0.02254 0.025105 0.03516 0.037109 0.10101 0.096066 0.23043 0.14183 0.35938 0.13867 0.01612-3.953e-4 0.03281-0.00197 0.04883-0.00391 0.11214-0.013535 0.22059-0.063962 0.30469-0.15234l1.6934-1.7129c0.20981-0.2206 0.20108-0.56549-0.019531-0.77539-0.1056-0.10047-0.25059-0.15401-0.39648-0.15039zm-6.5703 2.1914c-0.52467 0-0.54241 1.0039 0.06055 1.0039 1.0826 0.042129 2.1522 0.48505 2.9707 1.3223 0.92855 0.94974 1.3395 2.21 1.234 3.414-0.10554 1.2041-0.55057 2.0837-1.365 2.8516-1.7455 1.6459-4.473 1.5886-6.1503-0.12696-0.96081-0.98274-1.3684-2.2973-1.2246-3.5625 0.07217-0.63506-0.94566-0.74461-1.0117 0.03125-0.12884 1.5131 0.3776 3.0703 1.5176 4.2363 1.0269 1.0503 2.3826 1.5934 3.75 1.6211 1.3674 0.02764 2.7457-0.45914 3.8145-1.4668 0.98353-0.92734 1.5929-2.1487 1.6525-3.7615 0.05965-1.6128-0.50536-2.9261-1.4983-3.9417-1.0269-1.0503-2.3826-1.5935-3.75-1.6211zm9.1914 2.0977c-0.04669 0.00161-0.09491 0.00974-0.14062 0.023437l-2.293 0.7207c-0.26797 0.078903-0.42126 0.35925-0.3418 0.62695 0.07887 0.26783 0.36124 0.42124 0.62891 0.3418l2.3203-0.63281c0.2923-0.086067 0.45786-0.39323 0.37109-0.68555-0.070274-0.23924-0.29197-0.40042-0.54102-0.39453zm-16.326 4.8594c-0.042741 0.0015-0.086981 9e-3 -0.12891 0.02148l-2.3203 0.63477c-0.2923 0.08607-0.45786 0.39323-0.37109 0.68555 0.086113 0.29246 0.39318 0.45787 0.68555 0.37109l2.293-0.72266c0.26797-0.0789 0.42126-0.35925 0.3418-0.62695-0.064347-0.21906-0.27006-0.36866-0.49805-0.36328zm2.0508 3.1602c-0.132 0.0052-0.26894 0.06038-0.375 0.17188-0.58361 0.58554-1.1639 1.1747-1.7441 1.7637-0.21059 0.22058-0.20345 0.56726 0.017578 0.77734 0.22055 0.21056 0.57128 0.20333 0.78125-0.01758 0.55865-0.60812 1.1155-1.2181 1.6719-1.8281 0.20001-0.20001 0.17914-0.5596-0.00391-0.74024-0.088675-0.08751-0.21566-0.13218-0.34766-0.12695zm3.2266 1.8789c-0.016566 1e-3 -0.032595 0.0032-0.048828 0.0059-0.19476 0.03201-0.3611 0.17726-0.41016 0.38086l-0.60742 2.3262c-0.07208 0.29632 0.10979 0.59264 0.40625 0.66406 0.047473 0.01168 0.097734 0.01853 0.14453 0.01758 0.24983-0.0056 0.46307-0.17873 0.52148-0.42188l0.51953-2.3477c0.065962-0.27129-0.10158-0.54592-0.37305-0.61133-0.050867-0.01239-0.10265-0.01686-0.15234-0.01367z" fill="currentColor"/>
 <path transform="translate(1 .5)" d="m10 18a2 2 135 0 1 2-2h2a3 3 135 0 1 3-3 3.5061 3.5061 45.1 0 1 3.5 3.5123 3.5 3.5 135.2 0 1-3.5123 3.4877h-4.9877a2 2 45 0 1-2-2z" fill="none" stroke="currentColor" stroke-linecap="round" stroke-linejoin="round" style="paint-order:fill markers stroke"/>
 <path transform="matrix(.7619 0 0 .75155 -7.119 -7.5337)" d="m10 18a2 2 135 0 1 2-2h2a3 3 135 0 1 3-3 3.5061 3.5061 45.1 0 1 3.5 3.5123 3.5 3.5 135.2 0 1-3.5123 3.4877h-4.9877a2 2 45 0 1-2-2z" fill="none" stroke="currentColor" stroke-linecap="round" stroke-linejoin="round" stroke-width="1.3215" style="paint-order:fill markers stroke"/>
</svg>
