<?xml version="1.0" encoding="UTF-8"?>
<svg xmlns="http://www.w3.org/2000/svg" width="22" height="22" version="1.1">
  <defs>
    <style id="current-color-scheme" type="text/css">.ColorScheme-Text {
                color:#232629;
            }</style>
  </defs>
  <path class="ColorScheme-Text" d="m9.3848 1.2773c-0.022894 3.857e-4 -0.045734 0.00234-0.068359 0.00586-4.7817 0.77033-8.3029 4.9048-8.3027 9.748 3.584e-4 5.4465 4.4265 9.8727 9.873 9.873 2.7941 4.8e-5 5.4581-1.1836 7.3301-3.2578 0.18535-0.20536 0.16872-0.5222-0.03711-0.70703-0.2051-0.18404-0.52043-0.16744-0.70508 0.03711-1.6827 1.8645-4.0763 2.9278-6.5879 2.9277-4.9061-3.257e-4 -8.8727-3.967-8.873-8.873-9.41e-5 -3.9119 2.6062-7.1749 6.2383-8.3301-1.057 1.6038-1.7696 3.4132-1.7695 5.3555-6.526e-4 4.9563 3.6582 9.0692 8.4258 9.7695 0.27352 0.04074 0.52817-0.14827 0.56836-0.42188 0.04074-0.27352-0.14827-0.52817-0.42187-0.56836-4.2841-0.62935-7.5729-4.3148-7.5723-8.7793-5.8e-5 -2.1961 0.814-4.3148 2.2852-5.9453 0.29241-0.32572 0.05481-0.84336-0.38281-0.83398z" fill="currentColor"/>
</svg>
