<?xml version="1.0" encoding="UTF-8"?>
<svg width="22" height="22" version="1.1" xml:space="preserve" xmlns="http://www.w3.org/2000/svg"><defs><style id="current-color-scheme" type="text/css">.ColorScheme-Text {
                color:#232629;
            }</style><style type="text/css">
            .ColorScheme-Text {
                color:#232629;
            }
        </style><style type="text/css">
            .ColorScheme-Text {
                color:#232629;
            }
        </style></defs><path class="ColorScheme-Text" d="m12.264 0.0058594c-0.24982 0.0056-0.46306 0.17873-0.52148 0.42188l-0.51953 2.3477c-0.06599 0.27128 0.10158 0.54592 0.37305 0.61133 0.05087 0.012373 0.10264 0.016866 0.15234 0.013672 0.01657-0.00106 0.0326-0.00319 0.04883-0.00586 0.19476-0.032014 0.3611-0.17726 0.41016-0.38086l0.60742-2.3262c0.07208-0.29632-0.10979-0.59264-0.40625-0.66406-0.04748-0.011671-0.09774-0.01851-0.14453-0.017578zm-5.0273 0.12891c-0.047689 0.00158-0.095873 0.008071-0.14062 0.021484-0.29246 0.086113-0.45787 0.39123-0.37109 0.68359l0.72266 2.293c0.078902 0.26797 0.35925 0.42126 0.62695 0.3418 0.083697-0.024644 0.15711-0.069222 0.21484-0.12695 0.011547-0.011547 0.020915-0.022605 0.03125-0.035156 0.10335-0.12551 0.14536-0.29951 0.095703-0.4668l-0.63281-2.3184c-0.070205-0.239-0.29567-0.39848-0.54492-0.39258h-0.00195zm-4.2886 2.6191c-0.14581 0.00366-0.28216 0.066045-0.38281 0.17188-0.20973 0.22052-0.20472 0.56964 0.015625 0.7793l1.7754 1.6211c0.20202 0.19214 0.52277 0.18624 0.71484-0.015625 0.19214-0.20202 0.18444-0.52067-0.017578-0.71289l-1.7109-1.6914c-0.10576-0.10064-0.24863-0.15596-0.39453-0.15234zm-2.4043 4.416c-0.24982 0.0056-0.46107 0.17854-0.51953 0.42188-0.072073 0.29628 0.10801 0.59658 0.4043 0.66797l2.3457 0.51758c0.05085 0.012351 0.10254 0.016886 0.15234 0.013672 0.0166-0.00107 0.032557-0.00319 0.048828-0.00586 0.19526-0.032089 0.36309-0.17741 0.41211-0.38086 0.00412-0.016956 0.00743-0.033852 0.00977-0.050781 0.034964-0.25395-0.12831-0.49922-0.38281-0.56055l-2.3262-0.60938c-0.046468-0.011423-0.096702-0.014619-0.14453-0.013671z" fill="currentColor"/><g fill="none" stroke-linecap="round" stroke-linejoin="round"><path class="ColorScheme-Text" d="m18.5 11c0-3.0376-2.4624-5.5-5.5-5.5-2.7614 0-5 2.2386-5 5h-1.0417c-1.91 0-3.4583 1.5483-3.4583 3.4583v0.08346c0 0.90446 0.34721 1.7278 0.91562 2.3441m16.114 0.59237c0.59078-0.45726 0.97114-1.1733 0.97114-1.9782 0-1.3807-1.1193-2.5-2.5-2.5-0.94487 0-1.7673 0.52418-2.1924 1.2976" stroke="currentColor" style="paint-order:fill markers stroke"/><path class="ColorScheme-Text" d="m5.1151 9.6321c0.10379-1.3756 0.78696-2.6752 1.9308-3.5399 0.62503-0.47253 1.3375-0.77733 2.0758-0.9117" stroke="currentColor" style="paint-order:fill markers stroke"/><g opacity=".56844"><path class="ColorScheme-Text" d="m7.5 15.5c-0.55228 0-1 0.44772-1 1s0.44772 1 1 1 1-0.44772 1-1-0.44772-1-1-1zm8 4c-0.55228 0-1 0.44772-1 1s0.44772 1 1 1 1-0.44772 1-1-0.44772-1-1-1z" stroke="currentColor" style="paint-order:fill markers stroke"/></g><path class="ColorScheme-Text" d="m17.5 15.5c-0.55228 0-1 0.44772-1 1s0.44772 1 1 1 1-0.44772 1-1-0.44772-1-1-1zm-12 4c-0.55228 0-1 0.44772-1 1s0.44772 1 1 1 1-0.44772 1-1-0.44772-1-1-1z" stroke="currentColor" style="paint-order:fill markers stroke"/></g><g transform="translate(-3.7195 4)"><path class="ColorScheme-Text" d="m15.1 8c-0.23844 8.47e-5 -0.44364 0.1685-0.49023 0.40234l-1.3 5c-0.061541 0.30922 0.17495 0.59753 0.49023 0.59766h0.89062l-0.68086 3.4023c-0.10789 0.55405 0.64148 0.83447 0.92383 0.3457l3.2-5c0.19026-0.33312-0.049972-0.74757-0.43359-0.74805h-0.69141l1.3387-3.2773c0.16516-0.33222-0.076256-0.72228-0.44727-0.72266zm0.41016 1h1.5812l-0.97734 2.5527c-0.25114 0.59751 0.1237 1.2724 0.76367 1.375l-1.382 2.1445 0.17539-0.87695c0.12308-0.61844-0.3499-1.1951-0.98047-1.1953h-0.28125z" fill="currentColor"/></g></svg>
