<?xml version="1.0" encoding="UTF-8" standalone="no"?>
<svg
   height="22"
   width="22"
   version="1.1"
   id="svg1"
   xml:space="preserve"
   xmlns="http://www.w3.org/2000/svg"
   xmlns:svg="http://www.w3.org/2000/svg"><defs
     id="defs1"><style
       type="text/css"
       id="current-color-scheme">
            .ColorScheme-Text {
                color:#232629;
            }
        </style><style
       type="text/css"
       id="current-color-scheme-5">
            .ColorScheme-Text {
                color:#232629;
            }
        </style></defs><path
     id="path3"
     style="opacity:0.2;fill:currentColor"
     class="ColorScheme-Text"
     d="m 19.925781,0.1640625 c -0.09757,0.004961 -0.193829,0.0382426 -0.27539,0.0996094 L 18.205078,1.3535156 16.707031,0.58398438 C 16.30607,0.37773438 15.85863,0.76522246 16.005859,1.1914062 L 16.628906,3 C 15.320872,2.0649292 13.784983,1.4486663 12.142578,1.2382812 c -0.02138,-0.00269 -0.04291,-0.00399 -0.06445,-0.00391 -0.251328,-1.337e-4 -0.463697,0.186316 -0.496094,0.4355469 -0.0357,0.2746986 0.15874,0.5260669 0.433594,0.5605469 2.920324,0.3740806 5.462909,2.171246 6.791016,4.7988281 0.849124,1.6799425 1.130225,3.5585829 0.848612,5.3676299 C 19.561375,13 20.561518,13.108639 20.65508,12.474854 20.948798,10.485223 20.63197,8.4235192 19.699217,6.5781212 19.596791,6.3754783 19.486222,6.1779324 19.371092,5.9843712 L 19.783206,4.6074181 21.449222,4.3496056 C 21.895288,4.2809666 22.028467,3.703365 21.658206,3.4453087 L 20.177734,2.4082031 20.445312,0.74414062 C 20.477738,0.54267295 20.383762,0.34165333 20.208984,0.23632812 20.121619,0.18355093 20.023351,0.1591013 19.925781,0.1640625 Z M 19.259766,1.8125 19.138672,2.5585938 c -0.03083,0.1896122 0.04956,0.3802068 0.207031,0.4902343 l 0.722656,0.5019531 -0.748047,0.1171876 C 19.130586,3.6971608 18.974113,3.8320604 18.917969,4.015625 L 18.644531,4.9238281 C 18.240059,4.4101143 17.788048,3.9401049 17.294922,3.5195312 c 0.01264,-0.00326 0.02455,-0.00741 0.03711,-0.011719 0.260863,-0.089869 0.400105,-0.3737956 0.310547,-0.6347656 L 17.35547,2.0410153 18.029298,2.3867185 c 0.170697,0.087454 0.376257,0.070683 0.529297,-0.044922 z" /><path
     id="path29"
     style="fill:currentColor"
     class="ColorScheme-Text"
     d="m 9.3847656,1.2773438 c -0.022894,3.857e-4 -0.045734,0.00234 -0.068359,0.00586 -4.781683,0.7703338 -8.3028512,4.9047535 -8.3027347,9.7480462 1.292e-4,1.963556 0.5750105,3.794728 1.5657807,5.333616 C 3.2071623,17.33984 4.8382604,18 6,18 H 19.949219 C 21.075421,18 22,17.075421 22,15.949219 c 8.1e-5,-0.0052 8.1e-5,-0.01042 0,-0.01563 C 21.96351,14.836655 21.033963,13.968038 19.9375,14.001953 18.854841,14.022833 17.981679,14.92455 18,16.007812 18.0043,16.28397 18.231656,16.504348 18.507812,16.5 18.78397,16.4957 19.004349,16.268344 19,15.992188 18.9908,15.447719 19.414516,15.009208 19.958984,15 c 0.0026,2e-5 0.0052,2e-5 0.0078,0 0.555178,-0.01847 1.005883,0.4053 1.029297,0.958984 C 20.990094,16.539333 20.531159,17 19.949219,17 H 6 C 5.0701768,17 3.7922741,16.447021 3.308482,15.654599 2.4868009,14.308736 2.0137834,12.725923 2.0136719,11.03125 2.0135778,7.1193466 4.6198942,3.856356 8.2519531,2.7011719 7.1949242,4.304955 6.4823706,6.1143746 6.4824219,8.0566406 6.4820649,10.767663 7.5774107,13.226932 9.3496867,15.013019 9.9364252,15.60433 11.166179,16 12,16 h 2.949219 C 16.075421,16 17,15.075421 17,13.949219 c 8.1e-5,-0.0052 8.1e-5,-0.01042 0,-0.01563 C 16.96351,12.836655 16.033963,11.968038 14.9375,12.001953 13.854841,12.022833 12.981679,12.924549 13,14.007812 13.0043,14.283969 13.231657,14.504348 13.507812,14.5 13.783969,14.4957 14.004348,14.268343 14,13.992188 13.9908,13.447719 14.414516,13.009208 14.958984,13 c 0.0026,2e-5 0.0052,2e-5 0.0078,0 0.555178,-0.01847 1.005883,0.4053 1.029297,0.958984 C 15.990094,14.539338 15.531159,15 14.949219,15 13.689622,15.000095 12.974078,14.99996 12,14.999949 11.351687,14.999941 10.408164,14.676862 9.9590186,14.209988 8.4250796,12.615503 7.4821071,10.447396 7.4824219,8.0566406 7.4823639,5.860544 8.2964222,3.7418481 9.7675781,2.1113281 10.059991,1.7856048 9.8223879,1.2679688 9.3847656,1.2773438 Z M 1.5,19 C 1.223858,19 1,19.223858 1,19.5 1,19.776142 1.223858,20 1.5,20 H 16.498047 C 16.22237,20.000545 16,20.224195 16,20.5 v 0.04297 C 16,21.341686 16.658313,22 17.457031,22 h 0.0078 C 18.287273,22.01944 18.980563,21.357584 19,20.535156 c 4.6e-5,-0.0039 4.6e-5,-0.0078 0,-0.01172 C 19.000013,19.687881 18.312121,19 17.476562,19 Z m 15,1 h 0.976562 c 0.291814,0 0.51254,0.227259 0.517579,0.517578 -0.01158,0.277211 -0.227024,0.489022 -0.50586,0.482422 -0.0039,-4.6e-5 -0.0078,-4.6e-5 -0.01172,0 h -0.01953 C 17.198753,21 17,20.801246 17,20.542969 V 20.5 C 17,20.224195 16.775677,20.000545 16.5,20 Z" /></svg>
