<?xml version="1.0" encoding="UTF-8"?>
<svg width="22" height="22" version="1.1" xml:space="preserve" xmlns="http://www.w3.org/2000/svg"><defs><style id="current-color-scheme" type="text/css">.ColorScheme-Text {
                color:#232629;
            }</style></defs><path class="ColorScheme-Text" d="m8.3711 0.09375c-0.022894 3.857e-4 -0.045734 0.0023394-0.068359 0.0058594-4.7817 0.77033-8.3029 4.9048-8.3027 9.748 1.173e-4 1.7831 0.47531 3.4904 1.3047 4.9785 0.17265 0.29904 0.5647 0.3392 0.77344 0.1543 0.16807-0.14888 0.19973-0.46494 0.035156-0.75-0.70902-1.3171-1.1132-2.8178-1.1133-4.3828-9.412e-5 -3.9119 2.6062-7.1749 6.2383-8.3301-1.057 1.6038-1.7696 3.4132-1.7695 5.3555-1.604e-4 1.2184 0.22074 2.3865 0.625 3.4648 0.31093 0.64261 1.1706 0.15914 0.92969-0.36523-0.35875-0.96414-0.55483-2.0094-0.55469-3.0996-5.8e-5 -2.1961 0.81396-4.3148 2.2852-5.9453 0.29241-0.32572 0.054808-0.84336-0.38281-0.83398zm3.5254 13.908c-1.0827 0.02088-1.9558 0.9226-1.9375 2.0059 0.0043 0.27616 0.23166 0.49654 0.50781 0.49219 0.27616-0.0043 0.49654-0.23166 0.49219-0.50781-0.0092-0.54447 0.41452-0.98298 0.95898-0.99219 0.0026 2e-5 0.005212 2e-5 0.007812 0 0.55518-0.01847 1.0059 0.4053 1.0293 0.95898-0.005988 0.58035-0.46494 1.041-1.0469 1.041h-9.9492c-0.79636 0-0.68985 1 0 1h9.9492c1.1262 0 2.0508-0.92458 2.0508-2.0508 8.1e-5 -0.0052 8.1e-5 -0.010415 0-0.015625-0.03649-1.0969-0.96604-1.9656-2.0625-1.9316zm-4.4375 4.998c-0.27614 0-0.5 0.22386-0.5 0.5s0.22386 0.5 0.5 0.5h8 0.97656c0.29181 0 0.51254 0.22726 0.51758 0.51758-0.01158 0.27721-0.22702 0.48902-0.50586 0.48242-0.0039-4.6e-5 -0.007799-4.6e-5 -0.011719 0h-0.019531c-0.25828 0-0.45703-0.19875-0.45703-0.45703v-0.042969c0-0.27614-0.22386-0.5-0.5-0.5s-0.5 0.22386-0.5 0.5v0.042969c0 0.79872 0.65831 1.457 1.457 1.457h0.007812c0.82243 0.01944 1.5157-0.64242 1.5352-1.4648 4.6e-5 -0.0039 4.6e-5 -0.007798 0-0.011718 2.5e-5 -0.83556-0.68788-1.5234-1.5234-1.5234h-8.9766z" fill="currentColor"/><path class="ColorScheme-Text" transform="translate(-.5 -.5)" d="m19 13.5c0-3.0376-2.4624-5.5-5.5-5.5-2.7614 0-5 2.2386-5 5h-1c-1.6394 0-3.0156 1.1272-3.3958 2.6488-0.068086 0.27249-0.10423 0.55763-0.10423 0.85122m1.5689 2.9388c0.54311 0.35492 1.1921 0.56124 1.8894 0.56124h12.042c1.3807 0 2.5-1.1193 2.5-2.5s-1.1193-2.5-2.5-2.5c-0.94487 0-1.7673 0.52418-2.1924 1.2976" fill="none" stroke="currentColor" stroke-linecap="round" stroke-linejoin="round" style="paint-order:fill markers stroke"/></svg>
