<?xml version="1.0" encoding="UTF-8" standalone="no"?>
<svg
   version="1.1"
   viewBox="0 0 22 22"
   id="svg1"
   width="22"
   height="22"
   xml:space="preserve"
   xmlns="http://www.w3.org/2000/svg"
   xmlns:svg="http://www.w3.org/2000/svg"><defs
   id="defs1"><style
   id="current-color-scheme"
   type="text/css">
        .ColorScheme-Text {
          color:#232629;
        }
      </style>
      </defs><path
   id="path1"
   style="opacity:0.4;fill:currentColor"
   class="ColorScheme-Text"
   d="m 7.4109375,1.5890625 c -0.490937,0 -0.9818356,0.1849612 -1.3535156,0.5566406 l -4,4 c -0.743359,0.7433591 -0.743359,1.9636722 0,2.7070313 0.605992,0.6059913 1.4838752,0.5890566 2.2070312,0.2070312 L 7.04375,11.839062 7.7507812,11.132031 4.7644531,8.1457031 c -0.195265,-0.195184 -0.5117662,-0.195184 -0.7070312,0 -0.361211,0.3612105 -0.9317578,0.3612105 -1.2929688,0 -0.36121,-0.3612103 -0.36121,-0.9317584 0,-1.2929687 l 4,-4 c 0.361211,-0.3612105 0.9317578,-0.3612105 1.2929688,0 0.361211,0.3612104 0.361211,0.9317583 0,1.2929687 -0.195184,0.1952649 -0.195184,0.5117664 0,0.7070313 L 11.04375,7.8390625 11.750781,7.1320312 8.9714844,4.3527344 C 9.353509,3.6295782 9.370445,2.7516947 8.7644531,2.1457031 8.3927741,1.7740237 7.9018745,1.5890625 7.4109375,1.5890625 Z m 6.9316405,5 c -0.306721,0.010847 -0.611524,0.093909 -0.884766,0.25 -0.0013,7.219e-4 -0.0026,0.00123 -0.0039,0.00195 l -1.703125,1.7050782 0.306641,0.3066406 c 0.195265,0.1951843 0.511766,0.1951843 0.707031,0 l 1,-1 c 0.36121,-0.3612102 0.931759,-0.3612103 1.292969,0 l 0.646484,0.6464844 -1.015625,1.0175781 c -0.642014,0.6420142 -1.037049,1.4435852 -1.177734,2.2773442 -0.0459,0.27238 0.137757,0.530381 0.410156,0.576171 0.271735,0.04598 0.529432,-0.136597 0.576172,-0.408203 0.107423,-0.636635 0.40572,-1.245563 0.898437,-1.738281 l 1.369141,-1.3710937 c 0.195184,-0.1952649 0.195184,-0.5117664 0,-0.7070313 l -1,-1 C 15.375421,6.7566712 14.856143,6.5709 14.342578,6.5890625 Z m -5.8847655,5.2499995 -1.703125,1.703126 c -0.4199662,0.731237 -0.3197165,1.688096 0.3027344,2.310546 l 1,1 c 0.195265,0.195184 0.5117662,0.195184 0.7070312,0 l 1.3710939,-1.36914 c 1.261194,-1.261194 3.29154,-1.261194 4.552734,0 l 4.369141,4.36914 c 0.195254,0.195212 0.511777,0.195212 0.707031,0 0.195211,-0.195253 0.195211,-0.511778 0,-0.707031 l -4.369141,-4.369141 c -1.643341,-1.643342 -4.323454,-1.643342 -5.966796,0 L 8.4109375,15.792188 7.7644531,15.145703 c -0.36121,-0.361211 -0.36121,-0.931758 0,-1.292969 l 1,-1 c 0.195184,-0.195265 0.195184,-0.511766 0,-0.707031 z" />
    <path
   id="path3"
   style="fill:currentColor"
   class="ColorScheme-Text"
   d="m 18.331763,2.0094717 c -0.08489,0.022497 -0.16236,0.066958 -0.22461,0.1289063 l -15.9999992,16 c -0.1952123,0.195254 -0.1952123,0.511778 0,0.707032 0.1952535,0.195212 0.5117777,0.195212 0.7070312,0 l 16,-16.0000008 c 0.195212,-0.1952535 0.195212,-0.5117777 0,-0.7070312 C 18.687881,2.0124384 18.504052,1.9633182 18.331763,2.0094717 Z" /></svg>
