<svg width="32" height="32" version="1.1" viewBox="0 0 32 32" xmlns="http://www.w3.org/2000/svg">
 <defs>
  <style id="current-color-scheme" type="text/css">.ColorScheme-Text { color:#232629; }</style>
 </defs>
 <path id="smartphone" class="ColorScheme-Text" d="m21.3 6c-.277 0-.5.223-.5.5s.223.5.5.5h2.6c.277 0 .5-.223.5-.5s-.223-.5-.5-.5zm-14.9 2c-1.3296 0-2.4 1.0704-2.4 2.4v13.2c0 1.3296 1.0704 2.4 2.4 2.4h19.2c1.3296 0 2.4-1.0704 2.4-2.4v-13.2c0-1.3296-1.0704-2.4-2.4-2.4zm-.2 1h19.6c.6648 0 1.2.5352 1.2 1.2v13.6c0 .6648-.5352 1.2-1.2 1.2h-19.6c-.6648 0-1.2-.5352-1.2-1.2v-13.6c0-.6648.5352-1.2 1.2-1.2zm1.1 2c-.27614 0-.5.22386-.5.5s.22386.5.5.5h3c.27614 0 .5-.22386.5-.5s-.22386-.5-.5-.5zm11.991-.32812c-3.4667 0-6.2906 2.8239-6.2906 6.2906s2.8239 6.2883 6.2906 6.2883 6.2883-2.8216 6.2883-6.2883-2.8216-6.2906-6.2883-6.2906zm4.1e-5 1c2.9287 0 5.2883 2.362 5.2883 5.2906 0 2.9287-2.3596 5.2883-5.2883 5.2883s-5.2906-2.3596-5.2906-5.2883 2.362-5.2906 5.2906-5.2906zm-11.991 1.3281c-.27614 0-.5.22386-.5.5s.22386.5.5.5h3c.27614 0 .5-.22386.5-.5s-.22386-.5-.5-.5zm-.3 9.4c-.33137 0-.6.26863-.6.6s.26863.6.6.6.6-.26863.6-.6-.26863-.6-.6-.6z" fill="currentColor"/>
 <path class="ColorScheme-Text" d="m6.2 9c-.6648 0-1.2.5352-1.2 1.2v13.6c0 .6648.5352 1.2 1.2 1.2h19.6c.6648 0 1.2-.5352 1.2-1.2v-13.6c0-.6648-.5352-1.2-1.2-1.2zm13.091 2.1641c3.2017.000815 5.7966 2.5968 5.7961 5.7984-.000814 3.2008-2.5953 5.7953-5.7961 5.7961-3.2017.000481-5.7976-2.5944-5.7984-5.7961-.00048-3.2026 2.5959-5.7989 5.7984-5.7984z" fill="currentColor" opacity=".05"/>
 <path d="m18.6 13.93c-.04355.00022-.08689.0061-.12891.01758-1.3683.36663-2.3242 1.6108-2.3242 3.0273 0 .27614.22386.5.5.5s.5-.22386.5-.5c0-.96876.64823-1.8118 1.584-2.0625.2662-.0715.42432-.34494.35352-.61133-.05852-.2193-.2574-.37167-.48438-.37109zm4.2637 1.5859c-.04355.00022-.08689.0061-.12891.01758-.2662.0715-.42432.34494-.35352.61133.33615 1.2545-.1161 2.5844-1.1465 3.375-1.0304.79065-2.4319.88181-3.5566.23242-.23899-.13704-.54381-.05494-.68164.18359-.1387.23892-.05736.54504.18164.68359 1.4726.85018 3.317.72848 4.666-.30664s1.942-2.7834 1.502-4.4258c-.05833-.2186-.25618-.37079-.48242-.37109z" fill="#232629" fill-rule="evenodd" opacity=".4" stop-color="#000000" stroke-linecap="round" stroke-linejoin="round" style="paint-order:fill markers stroke"/>
</svg>
