<?xml version="1.0" encoding="UTF-8"?>
<svg xmlns="http://www.w3.org/2000/svg" width="32" height="32" version="1.1" viewBox="0 0 32 32">
  <defs>
    <style id="current-color-scheme" type="text/css">.ColorScheme-Text { color:#232629; }</style>
  </defs>
  <path id="smartphone" class="ColorScheme-Text" d="m21.3 6c-0.277 0-0.5 0.223-0.5 0.5s0.223 0.5 0.5 0.5h2.6c0.277 0 0.5-0.223 0.5-0.5s-0.223-0.5-0.5-0.5zm-14.9 2c-1.3296 0-2.4 1.0704-2.4 2.4v13.2c0 1.3296 1.0704 2.4 2.4 2.4h19.2c1.3296 0 2.4-1.0704 2.4-2.4v-13.2c0-1.3296-1.0704-2.4-2.4-2.4zm-0.2 1h19.6c0.6648 0 1.2 0.5352 1.2 1.2v13.6c0 0.6648-0.5352 1.2-1.2 1.2h-19.6c-0.6648 0-1.2-0.5352-1.2-1.2v-13.6c0-0.6648 0.5352-1.2 1.2-1.2zm1.1 2c-0.27614 0-0.5 0.22386-0.5 0.5 0 0.27614 0.22386 0.5 0.5 0.5h3c0.27614 0 0.5-0.22386 0.5-0.5 0-0.27614-0.22386-0.5-0.5-0.5zm11.991-0.32812c-3.4667 0-6.2906 2.8239-6.2906 6.2906s2.8239 6.2883 6.2906 6.2883c3.4667 0 6.2883-2.8216 6.2883-6.2883s-2.8216-6.2906-6.2883-6.2906zm4.1e-5 1c2.9287 0 5.2883 2.362 5.2883 5.2906 0 2.9287-2.3596 5.2883-5.2883 5.2883-2.9287 0-5.2906-2.3596-5.2906-5.2883 0-2.9287 2.362-5.2906 5.2906-5.2906zm-11.991 1.3281c-0.27614 0-0.5 0.22386-0.5 0.5 0 0.27614 0.22386 0.5 0.5 0.5h3c0.27614 0 0.5-0.22386 0.5-0.5 0-0.27614-0.22386-0.5-0.5-0.5zm-0.3 9.4c-0.33137 0-0.6 0.26863-0.6 0.6s0.26863 0.6 0.6 0.6 0.6-0.26863 0.6-0.6-0.26863-0.6-0.6-0.6z" fill="currentColor"/>
  <path class="ColorScheme-Text" d="m6.2 9c-0.6648 0-1.2 0.5352-1.2 1.2v13.6c0 0.6648 0.5352 1.2 1.2 1.2h19.6c0.6648 0 1.2-0.5352 1.2-1.2v-13.6c0-0.6648-0.5352-1.2-1.2-1.2zm13.091 2.1641c3.2017 8.15e-4 5.7966 2.5968 5.7961 5.7984-8.14e-4 3.2008-2.5953 5.7953-5.7961 5.7961-3.2017 4.81e-4 -5.7976-2.5944-5.7984-5.7961-4.8e-4 -3.2026 2.5959-5.7989 5.7984-5.7984z" fill="currentColor" opacity=".05"/>
</svg>
