<svg width="32" height="32" version="1.1" viewBox="0 0 32 32" xml:space="preserve" xmlns="http://www.w3.org/2000/svg"><defs><style id="current-color-scheme" type="text/css">.ColorScheme-Text {
          color:#232629;
  }</style><style type="text/css">.ColorScheme-Text { color:#232629; }</style></defs><g class="ColorScheme-Text" transform="translate(-2,-1)" fill="none" stroke="currentColor" stroke-linecap="round" stroke-linejoin="round"><path transform="matrix(1.485 0 0 1.4707 -1.4101 -.91209)" d="m8.5203 3h5.734a.5.5 45 01.5.5v4.2595h-6.734v-4.2595a.5.5 135 01.5-.5z" stroke-width=".67666" style="paint-order:fill markers stroke"/><path transform="matrix(1.485 0 0 1.4707 -1.4101 -.91209)" d="m12.902 19.955c-.20514.028632-.41471.043435-.62774.043435h-4.7745c-.82843 0-1.5-.67157-1.5-1.5v-9.2388c0-.82843.67157-1.5 1.5-1.5h7.7745c.82843 0 1.5.67157 1.5 1.5v2.4877" stroke-width=".67666" style="paint-order:fill markers stroke"/><path d="m13.5 6.5v.73536" style="paint-order:fill markers stroke"/><path d="m17.5 6.5v.73536" style="paint-order:fill markers stroke"/><path d="m17.5 22.5" style="paint-order:fill markers stroke"/></g><path class="ColorScheme-Text" d="m17.5 22c-.27318 0-.5.22682-.5.5s.22682.5.5.5.5-.22682.5-.5-.22682-.5-.5-.5z" fill="currentColor" fill-rule="evenodd" stop-color="#000000" stroke-linecap="round" stroke-linejoin="round" style="paint-order:fill markers stroke"/><g transform="matrix(1.4518 0 0 1.4495 -1.7373 .23427)" stroke-width=".68933"><path class="ColorScheme-Text" d="m16.073 19.783c0 .16348.04427.31652.12136.44761.15175.258.43067.43095.74965.43095.47701-.0041.86044-.39741.85641-.87856v-.28304h2.476c.15901 0 .2879-.13002.2879-.2904 0-.16039-.14082-.30272-.25626-.40767-.5646-.51336-1.0473-2.6219-1.2517-4.5246-.10321-.96093-.87773-1.7469-1.8318-1.7469v-.29806c0-.15616-.1255-.28274-.28031-.28274h-.01528c-.15481 0-.28031.12659-.28031.28274v.29806c-.95404 0-1.7404.78476-1.8235 1.748-.16759 1.944-.55565 4.1023-1.2455 4.5548-.13139.08617-.27066.21599-.27066.37637 0 .16039.1289.2904.2879.2904h3.2245" fill="none" stroke="currentColor" stroke-linecap="round" stroke-linejoin="round" stroke-width=".68933" style="paint-order:fill markers stroke"/></g></svg>
