<svg width="32" height="32" version="1.1" xml:space="preserve" xmlns="http://www.w3.org/2000/svg"><defs>
  <style id="current-color-scheme" type="text/css">.ColorScheme-Text { color:#232629; }</style>
 </defs><g class="ColorScheme-Text" fill="none" stroke="currentColor" stroke-linecap="round" stroke-linejoin="round" transform="matrix(1.3351 0 0 1.3317 1.6649 1.5075)" stroke-width=".74997" style="stroke-width:.74996"><path d="m.6255 16.5 5.0043.01496c.55076.0018.99727-.44592.99394-.99667l-.00616-1.0183c-.0033655-.55326-.45283-.99999-1.0061-.99998h-2.486c-.55228 0-1-.44772-1-1v-1c0-.55228.44772-1 1-1h2.486m4.0021 1c0-.55228.44772-1 1-1h1.7083c.55522 3.7e-5 1.0081-.44471 1.0182-.99984l.0185-1.0186c.01005-.55411.46391-.99706 1.0181-.99363l.97794.00586c.55126.0033.99997-.44252.99998-.99379v-1c0-.55228.44772-1 1-1h2.1454" style="stroke-width:.74996"/><path d="m14.769 13.5h-4.1553c-.55228 0-1-.44772-1-1v-1c0-.55228-.44772-1-1-1h-1.0021c-.54932-5e-6-.99181-.45061-.98184-.99984l.018497-1.0186c.010049-.55411.46391-.99706 1.0181-.99363l.94736.00586c.55126.0034099.99997-.44252.99998-.99379v-1c0-.55228-.44772-1-1-1" style="stroke-width:.74996"/><path d="m12.326 16.503-4.696.0123c-.55271.0019-1.0027-.44388-1.006-.99658l-.00616-1.0183c-.00335-.55325-.45279-.99998-1.0061-.99998h-2.486c-.55228 0-1-.44772-1-1v-1c0-.55228-.44772-1-1-1h-.5" style="stroke-width:.74996"/><path d="m15.949 10.5h-1.6271c-.54932-5e-6-.99182-.45061-.98184-.99984l.0185-1.0186c.01005-.55411.46391-.99706 1.0181-.99363l.97794.00586c.55126.0033.99997-.44252.99998-.99379v-1c0-.55228-.44772-1-1-1h-4.741c-.55228 0-1 .44772-1 1" style="stroke-width:.74996"/><path d="m7.6115 13.5h.88854" style="stroke-width:.74996"/><path d="m17.355 7.5h2.1454" style="stroke-width:.74996"/><path d="m10.614 7.5 1.8094-.012065" style="stroke-width:.74996"/><path d="m3.1255 7.5h2.5044c.54211 0 1.0183.43945 1.0183.98156" style="stroke-width:.74996"/><path d="m.6255 13.5h.5" style="stroke-width:.74996"/></g><path class="ColorScheme-Text" fill="none" stroke="currentColor" stroke-width=".8" stroke-linecap="round" stroke-linejoin="round" d="m25.469 17.528c.73646 3.5389-3.2075 4.0981-3.2075 7.2869 0 1.8916 1.3639 3.4923 3.1867 3.7835-.54764-.23146-.92707-.7721-.92707-1.4246 0-.32474.0493-.80335.28601-1.1187.08679.28524.33306.74553.65202.86584-.49063-1.0419.45872-2.4029.82625-2.6876-.2972 1.4281 1.2941 1.6535 1.2941 2.9403 0 .63707-.38369 1.1923-.93803 1.4267 1.8253-.27974 3.1976-1.8304 3.1976-3.7857 0-.80471-.12242-1.9887-.709-2.77-.21505.70682-.82378 1.8458-1.6142 2.144 1.2158-2.5818-1.1362-5.9555-2.047-6.6609z"/><path class="ColorScheme-Text" fill="none" stroke="currentColor" stroke-width=".8" stroke-linecap="round" stroke-linejoin="round" d="m25.471 17.5c.73358 3.5477-3.1949 4.1083-3.1949 7.3051 0 1.8963 1.3586 3.501 3.1742 3.7929-.54549-.23204-.92344-.77402-.92344-1.4282 0-.32555.0491-.80535.28489-1.1215.08645.28595.33176.74738.64947.868-.48871-1.0445.45692-2.4089.82302-2.6942-.29604 1.4317 1.2891 1.6577 1.2891 2.9477 0 .63865-.38219 1.1952-.93436 1.4303 1.8182-.28044 3.1851-1.8349 3.1851-3.7951 0-.80671-.12194-1.9936-.70622-2.7769-.21421.70857-.82056 1.8504-1.6079 2.1493 1.211-2.5882-1.1318-5.9703-2.039-6.6775z" style="fill:#f00;opacity:.21754;stroke:#f00"/></svg>
