<svg width="32" height="32" version="1.1" xml:space="preserve" xmlns="http://www.w3.org/2000/svg"><defs>
  <style id="current-color-scheme" type="text/css">.ColorScheme-Text { color:#232629; }</style>
 </defs><g class="ColorScheme-Text" fill="none" stroke="currentColor" stroke-linecap="round" stroke-linejoin="round" transform="matrix(1.3351 0 0 1.3317 1.6649 1.5075)" stroke-width=".74997" style="stroke-width:.74996"><path d="m.6255 16.5 5.0043.01496c.55076.0018.99727-.44592.99394-.99667l-.00616-1.0183c-.0033655-.55326-.45283-.99999-1.0061-.99998h-2.486c-.55228 0-1-.44772-1-1v-1c0-.55228.44772-1 1-1h2.486m4.0021 1c0-.55228.44772-1 1-1h1.7083c.55522 3.7e-5 1.0081-.44471 1.0182-.99984l.0185-1.0186c.01005-.55411.46391-.99706 1.0181-.99363l.97794.00586c.55126.0033.99997-.44252.99998-.99379v-1c0-.55228.44772-1 1-1h2.1454" style="stroke-width:.74996"/><path d="m12.522 13.5h-1.9083c-.55228 0-1-.44772-1-1v-1c0-.55228-.44772-1-1-1h-1.0021c-.54932-5e-6-.99181-.45061-.98184-.99984l.018497-1.0186c.010049-.55411.46391-.99706 1.0181-.99363l.94736.00586c.55126.0034099.99997-.44252.99998-.99379v-1c0-.55228-.44772-1-1-1h-5.4881c-.55228 0-1 .44772-1 1" style="stroke-width:.74996"/><path d="m14.359 13.5c-.56135.009-1.0091.47145-1 1.0328v.9344c0 .57082-.46198 1.034-1.0328 1.0354l-4.696.0123c-.55271.0019-1.0027-.44388-1.006-.99658l-.00616-1.0183c-.00335-.55325-.45279-.99998-1.0061-.99998h-2.486c-.55228 0-1-.44772-1-1v-1c0-.55228-.44772-1-1-1h-.5m.05481-3.0183.44527.00563c.55018.00695.99992-.43713.99992-.98736v-1c0-.55228-.44772-1-1-1h-.5" style="stroke-width:.74996"/><path d="m15.949 10.5h-1.6271c-.54932-5e-6-.99182-.45061-.98184-.99984l.0185-1.0186c.01005-.55411.46391-.99706 1.0181-.99363l.97794.00586c.55126.0033.99997-.44252.99998-.99379v-1c0-.55228-.44772-1-1-1h-4.741c-.55228 0-1 .44772-1 1" style="stroke-width:.74996"/><path d="m7.6115 13.5h.88854" style="stroke-width:.74996"/><path d="m17.355 7.5h2.1454" style="stroke-width:.74996"/><path d="m10.614 7.5 1.8094-.012065" style="stroke-width:.74996"/><path d="m3.1255 7.5h2.5044c.54211 0 1.0183.43945 1.0183.98156" style="stroke-width:.74996"/><path d="m.6255 13.5h.5" style="stroke-width:.74996"/></g><path class="ColorScheme-Text" fill="none" stroke="currentColor" stroke-width=".8" stroke-linecap="round" stroke-linejoin="round" d="m25.352 15.303c.88442 4.2499-3.8519 4.9215-3.8519 8.751 0 2.2717 1.638 4.1939 3.8269 4.5436-.65766-.27797-1.1133-.92723-1.1133-1.7109 0-.38998.0592-.96475.34347-1.3434.10423.34254.39998.89531.78301 1.0398-.5892-1.2513.55088-2.8857.99226-3.2275-.35691 1.7151 1.5541 1.9857 1.5541 3.5311 0 .76506-.46078 1.4318-1.1265 1.7134 2.1921-.33594 3.84-2.1981 3.84-4.5462 0-.96638-.14702-2.3882-.85144-3.3265-.25826.84882-.98929 2.2167-1.9385 2.5748 1.46-3.1005-1.3645-7.152-2.4583-7.9992z"/></svg>
