<svg width="32" height="32" version="1.1" xml:space="preserve" xmlns="http://www.w3.org/2000/svg"><defs>
  <style id="current-color-scheme" type="text/css">.ColorScheme-Text { color:#232629; }</style>
 </defs><g class="ColorScheme-Text" fill="none" stroke="currentColor" stroke-linecap="round" stroke-linejoin="round" transform="matrix(1.3351 0 0 1.3317 1.6649 1.5075)" stroke-width=".74997" style="stroke-width:.74996"><path d="m.6255 16.5 5.0043.01496c.55076.0018.99727-.44592.99394-.99667l-.00616-1.0183c-.0033655-.55326-.45283-.99999-1.0061-.99998h-2.486c-.55228 0-1-.44772-1-1v-1c0-.55228.44772-1 1-1h2.486m4.0021 1c0-.55228.44772-1 1-1h1.7083c.55522 3.7e-5 1.0081-.44471 1.0182-.99984l.0185-1.0186c.01005-.55411.46391-.99706 1.0181-.99363l.97794.00586c.55126.0033.99997-.44252.99998-.99379v-1c0-.55228.44772-1 1-1h2.1454" style="stroke-width:.74996"/><path d="m12.522 13.5h-1.9083c-.55228 0-1-.44772-1-1v-1c0-.55228-.44772-1-1-1h-1.0021c-.54932-5e-6-.99181-.45061-.98184-.99984l.018497-1.0186c.010049-.55411.46391-.99706 1.0181-.99363l.94736.00586c.55126.0034099.99997-.44252.99998-.99379v-1c0-.55228-.44772-1-1-1h-5.4881c-.55228 0-1 .44772-1 1" style="stroke-width:.74996"/><path d="m14.359 13.5c-.56135.009-1.0091.47145-1 1.0328v.9344c0 .57082-.46198 1.034-1.0328 1.0354l-4.696.0123c-.55271.0019-1.0027-.44388-1.006-.99658l-.00616-1.0183c-.00335-.55325-.45279-.99998-1.0061-.99998h-2.486c-.55228 0-1-.44772-1-1v-1c0-.55228-.44772-1-1-1h-.5m.05481-3.0183.44527.00563c.55018.00695.99992-.43713.99992-.98736v-1c0-.55228-.44772-1-1-1h-.5" style="stroke-width:.74996"/><path d="m19.694 10.5h-5.3721c-.54932-5e-6-.99182-.45061-.98184-.99984l.0185-1.0186c.01005-.55411.46391-.99706 1.0181-.99363l.97794.00586c.55126.0033.99997-.44252.99998-.99379v-1c0-.55228-.44772-1-1-1h-4.741c-.55228 0-1 .44772-1 1" style="stroke-width:.74996"/><path d="m7.6115 13.5h.88854" style="stroke-width:.74996"/><path d="m17.355 7.5h2.1454" style="stroke-width:.74996"/><path d="m10.614 7.5 1.8094-.012065" style="stroke-width:.74996"/><path d="m3.1255 7.5h2.5044c.54211 0 1.0183.43945 1.0183.98156" style="stroke-width:.74996"/><path d="m.6255 13.5h.5" style="stroke-width:.74996"/></g><g fill="none" stroke="#ff0000" stroke-linecap="round" stroke-linejoin="round" transform="matrix(1.3351 0 0 1.3317 1.5314 1.5075)" opacity=".2" stroke-width=".74997" style="stroke-width:.74996"><path transform="translate(-1.4,-2.5)" d="m21.225 13h-5.4032c-.54932-5e-6-.99182-.45061-.98184-.99984l.0185-1.0186c.01005-.55411.46391-.99706 1.0181-.99363l.97794.00586c.55126.0033033.99997-.44252.99998-.99379v-1c0-.55228-.44772-1-1-1h-4.741c-.55228 0-1 .44772-1 1" style="stroke-width:.74996"/><path transform="translate(-1.4,-2.5)" d="m2.1255 19 5.0043.01499c.55076.0018.99727-.44592.99394-.99667l-.00616-1.0183c-.00337-.55326-.45283-.99999-1.0061-.99998l-2.486-3e-5c-.55228-7e-6-1-.44772-1-1v-1c0-.55228.44772-1 1-1h2.4554m4.0327 1c0-.55228.44772-1 1-1h1.7083c.55522 3.7e-5 1.0081-.44471 1.0182-.99984l.0185-1.0186c.01005-.55411.46391-.99706 1.0181-.99363l.97794.00586c.55126.0033.99997-.44252.99998-.99379v-1c0-.55228.44772-1 1-1h2.1454" style="stroke-width:.74996"/><path transform="translate(-1.4,-2.5)" d="m14.022 16h-1.9083c-.55228 0-1-.44772-1-1v-1c0-.55228-.44772-1-1-1h-1.0327c-.54932-5e-6-.96124-.45061-.95126-.99984l.018497-1.0186c.010049-.55411.43334-.99706.98752-.99363l.97794.00586c.55126.0033.99997-.44252.99998-.99379v-1c0-.55228-.44772-1-1-1h-5.4881c-.55228 0-1 .44772-1 1" style="stroke-width:.74996"/><path transform="translate(-1.4,-2.5)" d="m15.859 16c-.56135.009-1.0091.47145-1 1.0328v.9344c0 .57082-.46198 1.034-1.0328 1.0354l-4.696.0123c-.55271.0019-1.0027-.44388-1.006-.99658l-.00616-1.0183c-.00335-.55325-.45279-.99998-1.0061-.99998h-2.486c-.55228 0-1-.44772-1-1v-1c0-.55228-.44772-1-1-1h-.5m.05481-3.0183.44527.00563c.55018.00695.99992-.43713.99992-.98736v-1c0-.55228-.44772-1-1-1h-.5" style="stroke-width:.74996"/><path d="m7.7115 13.5h.88854" style="stroke-width:.74996"/><path d="m17.455 7.5h2.1454" style="stroke-width:.74996"/><path d="m10.714 7.5.53237-.00306 1.277-.00901" style="stroke-width:.74996"/><path transform="translate(-1.4,-2.5)" d="m4.6255 10h2.4738c.54211 0 1.0488.43945 1.0488.98156" style="stroke-width:.74996"/><path d="m.7255 13.5h.5" style="stroke-width:.74996"/></g><g transform="translate(0,1)"><path class="ColorScheme-Text" d="m22.18 22h6.6406c.10557 0 .17969.074119.17969.17969v3.8203c0 .5582-.4418 1-1 1h-5.8203c-.10557 0-.17969-.074118-.17969-.17969v-4.6406c0-.10557.074119-.17969.17969-.17969z" style="fill:currentColor;opacity:.1"/><path class="ColorScheme-Text" d="m25.5 17c-1.3748 0-2.5 1.1252-2.5 2.5v1.5h-.82031c-.64601 0-1.1797.53368-1.1797 1.1797v4.6406c0 .64601.53368 1.1797 1.1797 1.1797h5.8203c1.0986 0 2-.90136 2-2v-3.8203c0-.64601-.53368-1.1797-1.1797-1.1797h-.82031v-1.5c0-1.3748-1.1252-2.5-2.5-2.5zm0 1c.83435 0 1.5.66565 1.5 1.5v1.5h-3v-1.5c0-.83435.66565-1.5 1.5-1.5zm-3.3203 4h6.6406c.10557 0 .17969.074119.17969.17969v3.8203c0 .5582-.4418 1-1 1h-5.8203c-.10557 0-.17969-.074118-.17969-.17969v-4.6406c0-.10557.074119-.17969.17969-.17969z" style="fill:currentColor"/></g></svg>
