<?xml version="1.0" encoding="UTF-8" standalone="no"?>
<svg
   version="1.1"
   viewBox="0 0 32 32"
   id="svg1"
   width="32"
   height="32"
   xmlns="http://www.w3.org/2000/svg"
   xmlns:svg="http://www.w3.org/2000/svg">
  <defs
     id="defs1">
    <style
       id="current-color-scheme"
       type="text/css">
        .ColorScheme-Text {
          color:#232629;
        }
      </style>
  </defs>
  <path
     id="smartphone"
     style="fill:currentColor"
     class="ColorScheme-Text"
     d="M 10.671875 3 C 9.1912978 3 8 4.1912978 8 5.671875 L 8 26.328125 C 8 27.808703 9.1912978 29 10.671875 29 L 22.328125 29 C 23.808703 29 25 27.808703 25 26.328125 L 25 5.671875 C 25 4.1912978 23.808703 3 22.328125 3 L 10.671875 3 z M 10.671875 4 L 22.328125 4 C 23.272293 4 24 4.7277068 24 5.671875 L 24 26.328125 C 24 27.272293 23.272293 28 22.328125 28 L 10.671875 28 C 9.7277068 28 9 27.272293 9 26.328125 L 9 5.671875 C 9 4.7277068 9.7277068 4 10.671875 4 z M 16.5 5 C 16.223858 5 16 5.2238579 16 5.5 C 16 5.7761421 16.223858 6 16.5 6 C 16.776142 6 17 5.7761421 17 5.5 C 17 5.2238579 16.776142 5 16.5 5 z M 14.5 26 C 14.223 26 14 26.223 14 26.5 C 14 26.777 14.223 27 14.5 27 L 18.5 27 C 18.777 27 19 26.777 19 26.5 C 19 26.223 18.777 26 18.5 26 L 14.5 26 z " />
</svg>
