<svg class="ColorScheme-Text" width="32" height="32" version="1.1" viewBox="0 0 32 32" xml:space="preserve" xmlns="http://www.w3.org/2000/svg"><defs>

<style id="current-color-scheme" type="text/css">.ColorScheme-Text { color:#232629; }</style>
</defs><path d="m16.486 2.2541c-7.8631.0001593-14.237 6.3744-14.238 14.238-.00141 7.8642 6.3733 14.24 14.238 14.24 7.8642-.000161 14.239-6.3762 14.238-14.24-.00016-7.8631-6.3744-14.237-14.238-14.238zm0 13.171c.58995-1.1e-5 1.0683.47806 1.0686 1.068 1.1e-5.59018-.47842 1.0686-1.0686 1.0686-.59018 1e-5-1.0686-.47842-1.0686-1.0686.000339-.58995.47866-1.068 1.0686-1.068z" style="fill:none;paint-order:fill markers stroke;stroke-linecap:round;stroke-linejoin:round;stroke:currentColor"/><path d="m16.486 11.467c-2.7755-.000808-5.0263 2.2485-5.0273 5.024-.000809 2.7768 2.2505 5.0281 5.0273 5.0273 2.7755-.001 5.0248-2.2517 5.024-5.0273-.001-2.7743-2.2497-5.023-5.024-5.024zm0 4.0434c.54111.001.97952.43942.98054.98052.000843.54242-.43811.98288-.98054.9839-.54374.000837-.98474-.44016-.9839-.9839.001-.54242.44148-.98136.9839-.98052z" style="fill-rule:evenodd;fill:currentColor;opacity:.26839;paint-order:fill markers stroke"/><path d="m5.3705 16.493a11.115 11.115 0 018.2385-10.737" style="fill:none;opacity:.55925;paint-order:fill markers stroke;stroke-linecap:round;stroke-linejoin:round;stroke-width:.8;stroke:currentColor"/><path d="m8.4081 16.493a8.0777 8.0777 0 015.987-7.8025" style="fill:none;paint-order:fill markers stroke;stroke-linecap:round;stroke-linejoin:round;stroke-width:.8;stroke:currentColor"/><path d="m27.587 17.063a11.115 11.115 0 01-7.6527 9.9971" style="fill:none;paint-order:fill markers stroke;stroke-linecap:round;stroke-linejoin:round;stroke-width:.8;stroke:currentColor"/><path d="m24.542 17.086a8.0777 8.0777 0 01-5.3856 7.0309" style="fill:none;opacity:.55925;paint-order:fill markers stroke;stroke-linecap:round;stroke-linejoin:round;stroke-width:.8;stroke:currentColor"/></svg>
