<svg width="32" height="32" version="1.1" xmlns="http://www.w3.org/2000/svg">
 <defs>
  <style id="current-color-scheme" type="text/css">.ColorScheme-Text { color:#232629; }</style>
 </defs>
 <g class="ColorScheme-Text" fill="none" stroke="currentColor" stroke-linecap="round" stroke-linejoin="round" style="paint-order:stroke fill markers">
  <path d="m8.7288 17.756c-.57932-2.4356 3.1371-3.6712 8.3014-3.2888 4.1819.30965 8.0803-5.655 9.45-7.8152-7.543 1.9823-9.3506 2.1151-13.362 3.6976-2.2191.87537-4.4581 3.6632-4.5185 6.4117-.1138 5.1845 10.761 4.6783 12.831 11.687l-2.4942-8.5085m-.94466-2.8073-.28305-.94234"/>
  <path d="m15.738 7.9319c.124-1.5553.83496-3.1136 2.8375-3.6523-6.0911-2.4159-8.4844 1.313-13.822 4.239 2.431-.36639 4.9318-.053673 6.1325.80766"/>
  <path d="m11.811 20.728c2.6318 1.2666 4.2304-.30282 3.6576-4.1847"/>
  <path d="m15.468 16.544c2.5438 3.4072 7.1046 6.3215 11.79 4.8414l-7.3347-5.8412"/>
 </g>
</svg>
