<?xml version="1.0" encoding="UTF-8" standalone="no"?>
<svg
   version="1.1"
   viewBox="0 0 32 32"
   id="svg1"
   width="32"
   height="32"
   xml:space="preserve"
   xmlns="http://www.w3.org/2000/svg"
   xmlns:svg="http://www.w3.org/2000/svg"><defs
     id="defs1"><style
       id="current-color-scheme"
       type="text/css">
        .ColorScheme-Text {
          color:#232629;
        }
      </style><style
       id="current-color-scheme-5"
       type="text/css">
        .ColorScheme-Text {
          color:#232629;
        }
      </style></defs><path
     id="smartphone"
     style="fill:currentColor"
     class="ColorScheme-Text"
     d="M 10.671875,3 C 9.1912993,3 8,4.1912993 8,5.671875 v 20.65625 C 8,27.808702 9.1912993,29 10.671875,29 h 11.65625 c 1.308439,0 2.389019,-0.931703 2.623047,-2.169922 -0.5022,-0.258989 -0.821086,-0.75173 -0.917969,-1.339844 -0.01164,0.0047 -0.02186,0.0123 -0.0332,0.01758 v 0.820313 C 24,27.272292 23.272292,28 22.328125,28 H 10.671875 C 9.7277077,28 9,27.272292 9,26.328125 V 5.671875 C 9,4.7277077 9.7277077,4 10.671875,4 h 11.65625 C 23.272292,4 24,4.7277077 24,5.671875 v 8.445313 c 0.498806,0.216507 0.867422,0.62906 1,1.162109 V 5.671875 C 25,4.1912993 23.808702,3 22.328125,3 Z M 16.5,5 C 16.223858,5 16,5.2238582 16,5.5 16,5.7761418 16.223858,6 16.5,6 16.776142,6 17,5.7761418 17,5.5 17,5.2238582 16.776142,5 16.5,5 Z m -2,21 c -0.277,0 -0.5,0.223 -0.5,0.5 0,0.277 0.223,0.5 0.5,0.5 h 4 C 18.777,27 19,26.777 19,26.5 19,26.223 18.777,26 18.5,26 Z" /><path
     id="smartphone-3"
     class="ColorScheme-Text"
     style="fill:currentColor"
     d="m 22.757812,15.210938 -2.011328,2.011328 c -0.195212,0.195253 -0.195212,0.511778 0,0.707031 0.195254,0.195212 0.511778,0.195212 0.707032,0 L 23,16.382812 v 7.792969 c 0,0.276142 0.223858,0.5 0.5,0.5 0.276142,0 0.5,-0.223858 0.5,-0.5 v -8.451172 c 0,-0.302775 -0.200276,-0.568886 -0.449219,-0.671875 -0.24906,-0.103037 -0.521919,-0.112844 -0.792969,0.158204 z M 25.5,17.419922 c -0.276142,0 -0.5,0.223858 -0.5,0.5 v 7.287109 c 0,0.333293 0.21905,0.622047 0.490234,0.734375 0.271184,0.112328 0.631515,0.0638 0.867188,-0.171875 l 1.896093,-1.896093 c 0.195212,-0.195254 0.195212,-0.511778 0,-0.707032 -0.195253,-0.195212 -0.511778,-0.195212 -0.707031,0 L 26,24.712891 v -6.792969 c 0,-0.276142 -0.223858,-0.5 -0.5,-0.5 z" /></svg>
