<svg width="32" height="32" version="1.1" viewBox="0 0 32 32" xml:space="preserve" xmlns="http://www.w3.org/2000/svg">
  <defs>
    <style id="current-color-scheme" type="text/css">.ColorScheme-Text { color:#232629; }</style>
  </defs>
  
  <path id="smartphone" class="ColorScheme-Text" d="m10.672 3c-1.4806 0-2.6719 1.1913-2.6719 2.6719v20.656c0 1.4806 1.1913 2.6719 2.6719 2.6719h11.656c1.3084 0 2.389-.9317 2.623-2.1699.01673-.0969.02773-.20892.03496-.31979.018348-.28133-.21494-.51029-.4972-.51029-.27004 0-.48766.22881-.50431.51024-.0016.02657-.0029.05312-.0037.07966-.12059.81359-.79798 1.4101-1.6528 1.4101h-11.656c-.94417 0-1.6719-.72771-1.6719-1.6719v-20.656c0-.94417.72771-1.6719 1.6719-1.6719h11.656c.94417 0 1.6719.72771 1.6719 1.6719v8.3371a.4927.4927 45.1 00.49098.4927l.01804 6.4e-5a.48927.48927 135.1 00.49098-.48926v-8.3406c0-1.4806-1.1913-2.6719-2.6719-2.6719zm5.8281 2c-.27614 0-.5.22386-.5.5s.22386.5.5.5.5-.22386.5-.5-.22386-.5-.5-.5zm-2 21c-.277 0-.5.223-.5.5s.223.5.5.5h4c.277 0 .5-.223.5-.5s-.223-.5-.5-.5z" fill="currentColor"/>
  <path class="ColorScheme-Text" d="m21.758 15.211-2.0113 2.0113c-.19521.19525-.19521.51178 0 .70703.19525.19521.51178.19521.70703 0l1.5465-1.5465v7.793c0 .27614.22386.5.5.5s.5-.22386.5-.5v-8.4512c0-.30278-.20028-.56889-.44922-.67188-.24906-.10304-.52192-.11284-.79297.1582zm4.7422 2.209c-.27614 0-.5.22386-.5.5v7.2871c0 .33329.21905.62205.49023.73438s.63152.0638.86719-.17188l1.8961-1.8961c.19521-.19525.19521-.51178 0-.70703-.19525-.19521-.51178-.19521-.70703 0l-1.5465 1.5465v-6.793c0-.27614-.22386-.5-.5-.5z" fill="currentColor"/>
</svg>
