<?xml version="1.0" encoding="UTF-8"?>
<svg width="32" height="32" version="1.1" xmlns="http://www.w3.org/2000/svg">
 <defs>
  <style id="current-color-scheme" type="text/css">.ColorScheme-Text { color:#232629; }</style>
 </defs>
 <path class="ColorScheme-Text" transform="translate(-.010583 2.0195)" d="m13 5v12c0 1.6569 1.3431 3 3 3s3-1.3431 3-3v-9.5036c0-0.27312-0.22141-0.49453-0.49453-0.49453h-0.01094c-0.27312 0-0.49453 0.22141-0.49453 0.49453v9.5036c0 1.1046-0.89543 2-2 2s-2-0.89543-2-2v-12c0-1.6569 1.3431-3 3-3s3 1.3431 3 3v5.0019c0 1.1046 0.89543 2 2 2h4.3981c0.86117 0 1.3031 0.90723 0.75781 1.5737l-10.593 13.362c-0.02183 0.02666-0.04589 0.03589-0.07031 0.03516-0.0012-3.6e-5 -0.0026-6.8e-5 -0.0039 0h-4e-3v2e-3l-2e-3 2e-3h-4e-3v-2e-3c-0.01045-0.0057-0.0308-0.02462-0.04102-0.03711l-10.572-13.336c-0.54532-0.66651-0.10335-1.5986 0.75781-1.5996l4.375-0.0019c0.27702-4.86e-4 0.50147-0.22493 0.50195-0.50196 0-0.27482-0.22448-0.4983-0.50195-0.49805-0.67168 6.14e-4 -4.125 0.0018-4.375 2e-3 -1.6358 0-2.5691 1.9683-1.5332 3.2344l10.574 13.334c0.21273 0.26 0.52429 0.39062 0.83594 0.39062s0.62321-0.13062 0.83594-0.39062l10.595-13.36c1.0359-1.2661 0.10264-3.2085-1.5332-3.2085l-4.3981-1e-6c-0.55228 0-1-0.44772-1-1v-5.0019c0-2.2091-1.7909-4-4-4s-4 1.7909-4 4z" fill="currentColor"/>
</svg>
