<?xml version="1.0" encoding="UTF-8" standalone="no"?>
<svg
   version="1.1"
   viewBox="0 0 32 32"
   id="svg1"
   width="32"
   height="32"
   sodipodi:docname="klipper-symbolic.svg"
   xml:space="preserve"
   inkscape:dataloss="true"
   xmlns:inkscape="http://www.inkscape.org/namespaces/inkscape"
   xmlns:sodipodi="http://sodipodi.sourceforge.net/DTD/sodipodi-0.dtd"
   xmlns="http://www.w3.org/2000/svg"
   xmlns:svg="http://www.w3.org/2000/svg"><sodipodi:namedview
     id="namedview1"
     pagecolor="#ffffff"
     bordercolor="#666666"
     borderopacity="1.0"
     inkscape:showpageshadow="2"
     inkscape:pageopacity="0.0"
     inkscape:pagecheckerboard="0"
     inkscape:deskcolor="#d1d1d1"
     showgrid="true"
     inkscape:zoom="22.077926"
     inkscape:cx="12.002939"
     inkscape:cy="18.978232"
     inkscape:window-width="2400"
     inkscape:window-height="1369"
     inkscape:window-x="3176"
     inkscape:window-y="236"
     inkscape:window-maximized="0"
     inkscape:current-layer="svg1"><inkscape:grid
       id="grid1"
       units="px"
       originx="0"
       originy="0"
       spacingx="0.5"
       spacingy="0.5"
       empcolor="#0099e5"
       empopacity="0.30196078"
       color="#0099e5"
       opacity="0.14901961"
       empspacing="2"
       dotted="false"
       gridanglex="30"
       gridanglez="30"
       visible="true" /></sodipodi:namedview><defs
     id="defs1"><inkscape:path-effect
       effect="fillet_chamfer"
       id="path-effect5"
       is_visible="true"
       lpeversion="1"
       nodesatellites_param="F,0,0,1,0,1.5,0,1 @ F,0,0,1,0,3,0,1 @ F,0,0,1,0,3,0,1 @ F,0,0,1,0,1.5,0,1 @ F,0,0,1,0,0.7052301,0,1 @ F,0,0,1,0,1.0100835,0,1 @ F,0,0,1,0,1.0100835,0,1 @ F,0,1,1,0,0.7052301,0,1"
       radius="0"
       unit="px"
       method="auto"
       mode="F"
       chamfer_steps="1"
       flexible="false"
       use_knot_distance="true"
       apply_no_radius="true"
       apply_with_radius="true"
       only_selected="false"
       hide_knots="false" /><inkscape:path-effect
       effect="fillet_chamfer"
       id="path-effect2"
       is_visible="true"
       lpeversion="1"
       nodesatellites_param="F,0,0,1,0,1.5,0,1 @ F,0,0,1,0,3,0,1 @ F,0,0,1,0,3,0,1 @ F,0,0,1,0,1.5,0,1 @ F,0,0,1,0,0.7052301,0,1 @ F,0,0,1,0,1.0100835,0,1 @ F,0,0,1,0,1.0100835,0,1 @ F,0,1,1,0,0.7052301,0,1"
       radius="0"
       unit="px"
       method="auto"
       mode="F"
       chamfer_steps="1"
       flexible="false"
       use_knot_distance="true"
       apply_no_radius="true"
       apply_with_radius="true"
       only_selected="false"
       hide_knots="false" /><style
       id="current-color-scheme"
       type="text/css">
        .ColorScheme-Text {
          color:#232629;
        }
      </style><style
       id="current-color-scheme-5"
       type="text/css">
        .ColorScheme-Text {
          color:#232629;
        }
      </style></defs><path
     id="path1"
     style="opacity:0.1;fill:currentColor;stroke-width:1"
     class="ColorScheme-Text"
     d="M 7 6 C 6.4417946 6 6 6.4417952 6 7 L 6 26.5 C 6 27.886629 7.1133696 29 8.5 29 L 23.5 29 C 24.886629 29 26 27.886629 26 26.5 L 26 7 C 26 6.4417952 25.558205 6 25 6 L 21.205078 6 L 10.794922 6 L 7 6 z M 9.5 12 L 22.5 12 C 22.776143 12 23 12.223857 23 12.5 C 23 12.776142 22.776143 13 22.5 13 L 9.5 13 C 9.2238579 13 9 12.776142 9 12.5 C 9 12.223857 9.2238579 12 9.5 12 z M 9.5 17 L 22.5 17 C 22.776143 17 23 17.223858 23 17.5 C 23 17.776142 22.776143 18 22.5 18 L 9.5 18 C 9.2238579 18 9 17.776142 9 17.5 C 9 17.223858 9.2238579 17 9.5 17 z M 9.5 22 L 18.5 22 C 18.776142 22 19 22.223857 19 22.5 C 19 22.776142 18.776142 23 18.5 23 L 9.5 23 C 9.2238579 23 9 22.776142 9 22.5 C 9 22.223857 9.2238579 22 9.5 22 z " /><path
     id="clipboard-shape"
     style="fill:currentColor;stroke-width:1"
     class="ColorScheme-Text"
     d="M 12.509766,2 C 11.681694,2 11.000001,2.6816945 11.000001,3.5097656 V 4.7949219 C 11.000001,4.9141886 10.914185,5 10.794921,5 H 6.9999998 C 5.9013559,5 5.0000002,5.9013561 5.0000002,7 v 19.5 c 0,1.927068 1.5729309,3.499999 3.5000005,3.499999 H 23.5 c 1.927068,0 3.500001,-1.572931 3.500001,-3.499999 V 7 c 0,-1.0986439 -0.901356,-2 -2.000002,-2 H 21.205078 C 21.085811,5 21,4.9141892 21,4.7949219 V 3.5097656 C 21,2.6816945 20.318305,2 19.490234,2 Z m 0,1 h 6.980468 C 19.777867,3 20,3.2221329 20,3.5097656 V 4.7949219 C 20,5.4546278 20.545373,6 21.205078,6 h 3.794921 C 25.558205,6 26,6.4417947 26,7 V 26.5 C 26,27.88663 24.88663,29 23.5,29 H 8.5000007 C 7.1133689,29 6.0000008,27.88663 6.0000008,26.5 V 7 c 0,-0.5582053 0.441793,-1 0.999999,-1 H 10.794921 C 11.454627,6 12,5.4546278 12,4.7949219 V 3.5097656 C 12,3.2221329 12.222132,3 12.509766,3 Z m -0.0097,3 c -0.276142,-2e-7 -0.5,0.2238575 -0.5,0.5 0,0.2761424 0.223858,0.5000001 0.5,0.5 h 7 c 0.276142,1e-7 0.5,-0.2238576 0.5,-0.5 0,-0.2761425 -0.223858,-0.5000002 -0.5,-0.5 z"
     sodipodi:nodetypes="sssssssssssssssssssssssssssssssssscsccscc" /><path
     id="tesxt"
     style="opacity:0.6;fill:currentColor;stroke-width:1"
     class="ColorScheme-Text"
     d="m 9.4999993,12 c -0.2761424,0 -0.5000003,0.223857 -0.5000003,0.5 0,0.276142 0.2238579,0.5 0.5000003,0.5 H 22.499999 c 0.276143,0 0.5,-0.223858 0.5,-0.5 0,-0.276143 -0.223857,-0.5 -0.5,-0.5 z m 0,5 c -0.2761424,0 -0.5000003,0.223858 -0.5000003,0.5 0,0.276142 0.2238579,0.5 0.5000003,0.5 H 22.499999 c 0.276143,0 0.5,-0.223858 0.5,-0.5 0,-0.276142 -0.223857,-0.5 -0.5,-0.5 z m 0,4.999999 c -0.2761424,0 -0.5000003,0.223858 -0.5000003,0.500001 0,0.276142 0.2238579,0.5 0.5000003,0.5 H 18.5 c 0.276142,0 0.5,-0.223858 0.5,-0.5 0,-0.276143 -0.223858,-0.500001 -0.5,-0.500001 z"
     sodipodi:nodetypes="csccscccsccscccscsssc" /></svg>
