<?xml version="1.0" encoding="UTF-8" standalone="no"?>
<svg
   version="1.1"
   viewBox="0 0 32 32"
   id="svg1"
   width="32"
   height="32"
   xml:space="preserve"
   xmlns="http://www.w3.org/2000/svg"
   xmlns:svg="http://www.w3.org/2000/svg"><defs
     id="defs1"><style
       id="current-color-scheme"
       type="text/css">
        .ColorScheme-Text {
          color:#232629;
        }
      </style><style
       id="current-color-scheme-5"
       type="text/css">
        .ColorScheme-Text {
          color:#232629;
        }
      </style></defs><g
     id="g1"
     transform="matrix(1.5714286,0,0,1.5714286,-29.285715,-1.1428572)"
     style="stroke-width:0.636364"><path
       id="path1"
       style="opacity:0.1;fill:currentColor;stroke-width:0.636364"
       class="ColorScheme-Text"
       d="m 23.090909,4.5454545 c -0.355222,0 -0.636363,0.281142 -0.636363,0.6363636 V 17.590909 c 0,0.882401 0.708507,1.590909 1.590909,1.590909 h 9.545454 c 0.882401,0 1.590909,-0.708508 1.590909,-1.590909 V 5.1818181 c 0,-0.3552216 -0.281142,-0.6363636 -0.636364,-0.6363636 h -2.41495 -6.624645 z" /><path
       id="clipboard-shape"
       style="fill:currentColor;stroke-width:0.636364"
       class="ColorScheme-Text"
       d="m 26.597124,2 c -0.526955,0 -0.96076,0.4338056 -0.96076,0.9607599 v 0.8178267 c 0,0.075897 -0.05461,0.1305043 -0.130505,0.1305043 h -2.41495 c -0.699137,0 -1.272727,0.5735902 -1.272727,1.2727272 V 17.590909 c 0,1.226316 1.000956,2.227272 2.227273,2.227272 h 9.545454 c 1.226316,0 2.227273,-1.000956 2.227273,-2.227272 V 5.1818181 c 0,-0.699137 -0.57359,-1.2727272 -1.272728,-1.2727272 h -2.41495 C 32.054607,3.9090909 32,3.854484 32,3.7785866 V 2.9607599 C 32,2.4338056 31.566194,2 31.03924,2 Z m 0,0.6363636 h 4.442116 c 0.183039,0 0.324396,0.1413573 0.324396,0.3243963 v 0.8178267 c 0,0.4198129 0.347056,0.7668679 0.766868,0.7668679 h 2.41495 c 0.355222,0 0.636364,0.2811421 0.636364,0.6363636 V 17.590909 c 0,0.882401 -0.708508,1.590909 -1.590909,1.590909 h -9.545454 c -0.882402,0 -1.590909,-0.708508 -1.590909,-1.590909 V 5.1818181 c 0,-0.3552215 0.281141,-0.6363636 0.636363,-0.6363636 h 2.41495 c 0.419813,0 0.766868,-0.347055 0.766868,-0.7668679 V 2.9607599 c 0,-0.183039 0.141357,-0.3243963 0.324397,-0.3243963 z m -0.0062,1.9090909 c -0.175727,-1e-7 -0.318182,0.1424548 -0.318182,0.3181818 0,0.175727 0.142455,0.3181819 0.318182,0.3181818 h 4.454545 c 0.175727,1e-7 0.318182,-0.1424548 0.318182,-0.3181818 0,-0.175727 -0.142455,-0.3181819 -0.318182,-0.3181818 z" /><path
       id="tesxt"
       style="opacity:0.6;fill:currentColor;stroke-width:0.636364"
       class="ColorScheme-Text"
       d="m 25.681818,5.3636362 c -0.175727,-1e-7 -0.318182,0.1424548 -0.318182,0.3181819 0,0.175727 0.142455,0.3181819 0.318182,0.3181818 h 8.272727 c 0.175727,1e-7 0.318182,-0.1424548 0.318182,-0.3181818 0,-0.1757271 -0.142455,-0.318182 -0.318182,-0.3181819 z m 0,3.1818182 c -0.175727,-1e-7 -0.318182,0.1424548 -0.318182,0.3181818 0,0.175727 0.142455,0.3181819 0.318182,0.3181818 h 8.272727 c 0.175727,10e-8 0.318182,-0.1424548 0.318182,-0.3181818 0,-0.175727 -0.142455,-0.3181819 -0.318182,-0.3181818 z m 0,3.1818176 c -0.175727,0 -0.318182,0.142455 -0.318182,0.318182 0,0.175727 0.142455,0.318182 0.318182,0.318182 h 5.727273 c 0.175727,0 0.318182,-0.142455 0.318182,-0.318182 0,-0.175727 -0.142455,-0.318182 -0.318182,-0.318182 z"
       transform="translate(-1,3)" /></g></svg>
