<?xml version='1.0' encoding='UTF-8'?>
<svg xmlns="http://www.w3.org/2000/svg" width="32" height="32" version="1.1" viewBox="0 0 32 32" xml:space="preserve">
  <defs>
    <style id="current-color-scheme" type="text/css">.ColorScheme-Text { color:#232629; }</style>
  </defs>
  <g transform="matrix(1.6428 0 0 1.6428 -2.8914 1.0221)" style="stroke-width:.60874">
    <g class="ColorScheme-Text" fill="none" stroke="currentColor" stroke-linecap="round" stroke-linejoin="round" style="stroke-width:.60874">
      <path transform="translate(-1,-1)" d="m19.225 10.358c.17912-.8041.27279-1.6354.27308-2.4819-5e-6-.016242-.0015-.02585-.0016-.041821h.0032v-4.3686c-2.3334-.6286-4.6666-.94257-7-.94257h8e-6c-2.3334 0-4.6669.31397-7 .94257v4.3686h.00322c-7.42e-5.015971-.0016.025579-.00161.041821.00157 4.5986 2.7593 8.7483 6.9984 10.531.78274-.32912 1.515-.73896 2.1887-1.2174" style="paint-order:fill markers stroke;stroke-width:.60874"/>
    </g>
  </g>
  <g transform="matrix(1.3529 0 0 1.3528 24.151 -14.769)" style="stroke-width:.73918">
    <path class="ColorScheme-Text" transform="translate(.018784 .014413)" d="m1.3477 24.947v2.3691c0 .20592.16322.36914.36914.36914.20592 0 .36914-.16322.36914-.36914v-1.5a.12995.12995 0 01.13086-.13086h1.5c.20592 0 .36914-.16322.36914-.36914s-.16322-.36914-.36914-.36914zm-1.418.20898c-.032346.000635-.064748.0047-.095703.01367-1.2886.36172-2.2285 1.4773-2.3672 2.8086-.13877 1.3312.55193 2.6146 1.7383 3.2344 1.1863.61976 2.633.45253 3.6465-.42188 1.0135-.87435 1.3903-2.2825.95117-3.5469-.067467-.19476-.27604-.29623-.4707-.22852-.19417.06806-.2944.27646-.22656.4707.34037.97989.047118 2.0666-.73828 2.7441-.78537.67759-1.901.80638-2.8203.32617-.9193-.48022-1.4513-1.4703-1.3438-2.502.10754-1.0316.83139-1.8916 1.8301-2.1719.19895-.055192.31371-.25828.25781-.45703-.045392-.16224-.19287-.27181-.36133-.26953z" style="fill:currentColor"/>
  </g>
</svg>
