<?xml version="1.0" encoding="UTF-8" standalone="no"?>
<svg
   height="32"
   width="32"
   version="1.1"
   id="svg1"
   xmlns="http://www.w3.org/2000/svg"
   xmlns:svg="http://www.w3.org/2000/svg">
  <defs
     id="defs1">
    <style
       type="text/css"
       id="current-color-scheme">
            .ColorScheme-Text {
                color:#232629;
            }
        </style>
  </defs>
  <path
     id="path1"
     style="fill:currentColor"
     class="ColorScheme-Text"
     d="m 15.996094,3.1582031 c -0.260305,0.00342 -0.54445,0.1078254 -0.72461,0.3769531 -0.04835,0.072225 -0.09596,0.148072 -0.142578,0.2265626 C 14.696378,4.4899661 14,5.9418592 14,7 v 5.634766 c 0,0.09367 -0.05238,0.176033 -0.136719,0.216796 L 5.8457031,16.277344 C 5.3300526,16.526575 5,17.052278 5,17.625 v 1.25 c 0,0.630611 0.6196484,1.130231 1.226562,0.958984 L 14,17.640625 v 6.037109 c 0,0.0095 -0.0032,0.01528 -0.01172,0.01953 l -2.267578,1.132812 C 11.28028,25.050293 11,25.503683 11,25.996094 v 0.224609 C 11,26.644884 11.355116,27 11.779297,27 h 8.441406 C 20.644884,26.999999 21,26.644884 21,26.220703 v -0.224609 c 0,-0.492411 -0.280279,-0.945803 -0.720703,-1.166016 L 18.011719,23.697266 C 18.003213,23.693013 18,23.687244 18,23.677734 v -6.037109 l 7.773438,2.193359 C 26.380353,20.005232 27,19.505611 27,18.875 v -1.25 c 0,-0.572723 -0.330053,-1.098425 -0.845703,-1.347656 L 18.136719,12.851562 C 18.05238,12.810799 18,12.728439 18,12.634766 V 7 C 18,5.9678159 17.314337,4.4895971 16.880859,3.7578125 16.833194,3.67734 16.784609,3.5995219 16.734375,3.5253906 16.550507,3.2540402 16.256398,3.154781 15.996094,3.1582031 Z m 0.0098,1.0878907 c 0.0047,0.00782 0.0089,0.013509 0.01367,0.021484 C 16.271808,4.693521 17,6.1816406 17,7 v 5.634766 c 0,0.475041 0.273468,0.910463 0.701172,1.117187 l 8.019531,3.425781 C 25.892989,17.261006 26,17.433646 26,17.625 v 1.234375 L 17.976562,16.603516 C 17.492059,16.482389 17.000001,16.867773 17,17.367188 v 6.310546 c 0,0.38617 0.219053,0.741363 0.564453,0.914063 l 2.267578,1.132812 C 19.935562,25.776375 20,25.880342 20,25.996094 V 26 h -8 v -0.0039 c 0,-0.115752 0.06444,-0.219719 0.167969,-0.271485 l 2.267578,-1.132812 C 14.780947,24.419091 15,24.063904 15,23.677734 v -6.310546 c -10e-7,-0.499415 -0.492059,-0.884799 -0.976562,-0.763672 L 6,18.859375 V 17.625 c 0,-0.191354 0.107012,-0.363994 0.279297,-0.447266 l 8.019531,-3.425781 C 14.726532,13.545229 15,13.109807 15,12.634766 V 7 c 0,-0.8183594 0.7337,-2.2979241 0.988281,-2.7265625 0.006,-0.010105 0.01163,-0.017473 0.01758,-0.027344 z" />
</svg>
