<?xml version="1.0" encoding="UTF-8" standalone="no"?>
<svg
   height="32"
   width="32"
   version="1.1"
   id="svg1"
   xml:space="preserve"
   xmlns="http://www.w3.org/2000/svg"
   xmlns:svg="http://www.w3.org/2000/svg"><defs
     id="defs1"><style
       type="text/css"
       id="current-color-scheme">
            .ColorScheme-Text {
                color:#232629;
            }
        </style><style
       id="current-color-scheme-7"
       type="text/css">
      .ColorScheme-Text {
        color:#31363b;
      }
    </style></defs><path
     id="path1"
     style="fill:currentColor"
     class="ColorScheme-Text"
     d="M 22.28125 4.7558594 C 21.631347 4.739664 20.998047 5.238769 20.998047 6 L 20.998047 12.041016 L 17.072266 8.1191406 C 16.870657 7.9177148 16.543314 7.9176228 16.341797 8.1191406 C 16.152831 8.3206084 16.163683 8.6372943 16.365234 8.8261719 L 20.544922 13.001953 L 16.365234 17.177734 C 16.163683 17.379113 16.16377 17.706738 16.365234 17.908203 C 16.566749 18.097223 16.883155 18.086199 17.072266 17.884766 L 21 13.960938 L 21 20 C 20.999999 21.103278 22.336212 21.654282 23.113281 20.871094 L 25.460938 18.503906 C 26.012451 17.948051 26.011964 17.052432 25.460938 16.496094 L 22 13 L 25.5 9.5 C 26.052255 8.9477446 26.052353 8.0521574 25.5 7.5 L 23.119141 5.1210938 C 22.874428 4.8764682 22.576661 4.7632209 22.28125 4.7558594 z M 15 5 C 10.391397 5.0000001 5.7828854 6.7561781 2.2695312 10.269531 C 2.07432 10.464784 2.07432 10.781311 2.2695312 10.976562 C 2.4647845 11.171774 2.7813094 11.171774 2.9765625 10.976562 C 6.2988426 7.6542824 10.649433 5.9921875 15 5.9921875 L 15 5 z M 22.216797 5.7617188 C 22.285375 5.7536514 22.358489 5.7745045 22.416016 5.8320312 L 24.794922 8.2109375 C 24.955389 8.3714043 24.955389 8.6325021 24.794922 8.7929688 L 22 11.587891 L 22 6.0039062 C 22 5.8683147 22.1025 5.7751643 22.216797 5.7617188 z M 15 10.001953 C 11.671738 10.001953 8.3431255 11.270154 5.8066406 13.806641 C 5.6114294 14.001892 5.6114294 14.318419 5.8066406 14.513672 C 6.0018937 14.708884 6.3184188 14.708884 6.5136719 14.513672 C 8.8590827 12.168261 11.92955 10.996094 15 10.996094 L 15 10.001953 z M 22 14.416016 L 24.753906 17.208984 C 24.913894 17.371231 24.913894 17.632675 24.753906 17.794922 L 22.412109 20.169922 C 22.26072 20.323449 22.000001 20.215615 22 20 L 22 14.416016 z M 15 14.994141 C 12.949083 14.994141 10.89784 15.774032 9.3359375 17.335938 C 9.1407259 17.531189 9.1407259 17.847716 9.3359375 18.042969 C 9.5311901 18.238181 9.8477158 18.238181 10.042969 18.042969 C 11.413798 16.672137 13.206905 15.986328 15 15.986328 L 15 14.994141 z M 15 20 C 13.349077 20 12 21.349077 12 23 C 12 24.650923 13.349077 26 15 26 C 16.650923 26 18 24.650923 18 23 C 18 21.349077 16.650923 20 15 20 z M 15 21 C 16.110487 21 17 21.889513 17 23 C 17 24.110487 16.110487 25 15 25 C 13.889513 25 13 24.110487 13 23 C 13 21.889513 13.889513 21 15 21 z " /></svg>
