<?xml version="1.0" encoding="UTF-8" standalone="no"?>
<svg
   height="32"
   width="32"
   version="1.1"
   id="svg1"
   xmlns="http://www.w3.org/2000/svg"
   xmlns:svg="http://www.w3.org/2000/svg">
  <defs
     id="defs1">
    <style
       type="text/css"
       id="current-color-scheme">
            .ColorScheme-Text {
                color:#232629;
            }
        </style>
  </defs>
  <path
     id="path1"
     style="opacity:0.2;fill:currentColor"
     class="ColorScheme-Text"
     d="m 16,5 c -4.608603,1e-7 -9.2171146,1.7561779 -12.7304688,5.269531 -0.1952112,0.195253 -0.1952112,0.511779 0,0.707032 0.1952533,0.195211 0.5117782,0.195211 0.7070313,0 6.6445605,-6.6445618 17.4023115,-6.6445614 24.0468755,0 0.195251,0.195211 0.511778,0.195211 0.707031,0 0.195212,-0.195253 0.195212,-0.511779 0,-0.707032 C 25.217112,6.7561781 20.608603,4.9999999 16,5 Z m 0,5.001953 c -3.328262,0 -6.6568745,1.268201 -9.1933594,3.804688 -0.1952112,0.195251 -0.1952112,0.511778 0,0.707031 0.1952531,0.195212 0.5117782,0.195212 0.7070313,0 4.6908211,-4.6908222 12.2818351,-4.6908222 16.9726561,0 0.195253,0.195212 0.51178,0.195212 0.707031,0 0.195212,-0.195253 0.195212,-0.51178 0,-0.707031 C 22.656876,11.270154 19.328262,10.001953 16,10.001953 Z m 0,4.992188 c -2.050919,0 -4.102158,0.77989 -5.664062,2.341797 -0.195212,0.195252 -0.195212,0.511778 0,0.707031 0.195252,0.195212 0.511778,0.195212 0.707031,0 2.741662,-2.741666 7.172399,-2.741666 9.914062,0 0.195253,0.195212 0.511779,0.195212 0.707031,0 0.195212,-0.195253 0.195212,-0.511779 0,-0.707031 C 20.102158,15.774032 18.050919,14.994141 16,14.994141 Z" />
  <path
     style="fill:currentColor"
     class="ColorScheme-Text"
     d="m 16,20 c -1.650927,0 -3,1.349073 -3,3 0,1.650927 1.349073,3 3,3 1.650927,0 3,-1.349073 3,-3 0,-1.650927 -1.349073,-3 -3,-3 z m 0,1 c 1.110489,0 2,0.889511 2,2 0,1.110489 -0.889511,2 -2,2 -1.110489,0 -2,-0.889511 -2,-2 0,-1.110489 0.889511,-2 2,-2 z"
     id="path5" />
</svg>
