<?xml version="1.0" encoding="UTF-8" standalone="no"?>
<svg
   viewBox="0 0 32 32"
   version="1.1"
   id="svg1"
   width="32"
   height="32"
   xmlns="http://www.w3.org/2000/svg"
   xmlns:svg="http://www.w3.org/2000/svg">
  <defs
     id="defs3051">
    <style
       type="text/css"
       id="current-color-scheme">
      .ColorScheme-Text {
        color:#232629;
      }
      </style>
  </defs>
  <path
     id="path1"
     style="fill:currentColor"
     class="ColorScheme-Text"
     d="M 7.0253906,4 C 5.9029273,4 5,4.9029273 5,6.0253906 V 23.974609 C 5,25.097073 5.9029273,26 7.0253906,26 H 16 24.974609 C 26.097073,26 27,25.097073 27,23.974609 V 6.0253906 C 27,4.9029267 26.097073,4 24.974609,4 H 16 Z m 0,1 H 16 24.974609 C 25.560806,5 26,5.4391952 26,6.0253906 V 23.974609 C 26,24.560808 25.560805,25 24.974609,25 H 16 7.0253906 C 6.4391953,25 6,24.560808 6,23.974609 V 6.0253906 C 6,5.4391951 6.4391951,5 7.0253906,5 Z M 8,6 C 7.4536406,6 7,6.4536406 7,7 v 10 c 0,0.529223 0.4512978,1 1,1 h 1 v 1 c 0,0.558666 0.468075,1 1,1 h 2 v 2 c 0,0.546357 0.453642,1 1,1 h 3 3 c 0.546358,0 1,-0.453643 1,-1 v -2 h 2 c 0.531925,0 1,-0.441334 1,-1 v -1 h 1 c 0.548702,0 1,-0.470777 1,-1 V 7 C 25,6.4536405 24.546359,6 24,6 h -8 z m 0,1 h 8 8 v 10 h -1 c -0.545821,0 -1,0.480947 -1,1 v 1 h -2 c -0.546358,0 -1,0.453643 -1,1 v 2 h -3 -3 v -2 c 0,-0.546357 -0.453642,-1 -1,-1 H 10 V 18 C 10,17.480947 9.545821,17 9,17 H 8 Z" />
  <path
     id="path6"
     style="opacity:0.4;fill:currentColor"
     class="ColorScheme-Text"
     d="M 10.5,8 C 10.223001,8 10,8.2230009 10,8.5 v 3 c 0,0.276999 0.223001,0.5 0.5,0.5 0.276999,0 0.5,-0.223001 0.5,-0.5 v -3 C 11,8.2230009 10.776999,8 10.5,8 Z m 3,0 C 13.223,8 13,8.2230009 13,8.5 v 3 c 0,0.276999 0.223,0.5 0.5,0.5 0.277,0 0.5,-0.223001 0.5,-0.5 v -3 C 14,8.2230009 13.777,8 13.5,8 Z m 3,0 C 16.223,8 16,8.2230009 16,8.5 v 3 c 0,0.276999 0.223,0.5 0.5,0.5 0.277,0 0.5,-0.223001 0.5,-0.5 v -3 C 17,8.2230009 16.777,8 16.5,8 Z m 3,0 C 19.223,8 19,8.2230009 19,8.5 v 3 c 0,0.276999 0.223,0.5 0.5,0.5 0.277,0 0.5,-0.223001 0.5,-0.5 v -3 C 20,8.2230009 19.777,8 19.5,8 Z m 3,0 C 22.223001,8 22,8.2230009 22,8.5 v 3 c 0,0.276999 0.223001,0.5 0.5,0.5 0.276999,0 0.5,-0.223001 0.5,-0.5 v -3 C 23,8.2230009 22.776999,8 22.5,8 Z M 7.5,22 C 7.2230015,22 7,22.223 7,22.5 v 1 C 7,23.777 7.2230015,24 7.5,24 h 1 C 8.7769985,24 9,23.777 9,23.5 v -1 C 9,22.223 8.7769985,22 8.5,22 Z m 16,0 C 23.223001,22 23,22.223 23,22.5 v 1 c 0,0.277 0.223001,0.5 0.5,0.5 h 1 c 0.276999,0 0.5,-0.223 0.5,-0.5 v -1 C 25,22.223 24.776999,22 24.5,22 Z" />
</svg>
