<?xml version="1.0" encoding="UTF-8" standalone="no"?>
<svg
   height="32"
   width="32"
   version="1.1"
   id="svg1"
   xml:space="preserve"
   xmlns="http://www.w3.org/2000/svg"
   xmlns:svg="http://www.w3.org/2000/svg"><defs
     id="defs1"><style
   type="text/css"
   id="current-color-scheme">
            .ColorScheme-Text {
                color:#232629;
            }
        </style>
        </defs><g
     id="g4"><g
       id="g3" /></g><path
     id="path4"
     style="fill:currentColor"
     class="ColorScheme-Text"
     d="M 16 5 C 11.391402 5.0000001 6.7828819 6.7561819 3.2695312 10.269531 C 3.0743202 10.464784 3.0743202 10.781312 3.2695312 10.976562 C 3.4647844 11.171774 3.7813096 11.171774 3.9765625 10.976562 C 10.621115 4.3320088 21.37888 4.3320092 28.023438 10.976562 C 28.218688 11.171774 28.535216 11.171774 28.730469 10.976562 C 28.925681 10.781312 28.925681 10.464784 28.730469 10.269531 C 25.217115 6.7561821 20.608598 4.9999999 16 5 z M 16 10.001953 C 12.671744 10.001953 9.3431205 11.270158 6.8066406 13.806641 C 6.6114298 14.00189 6.6114298 14.318419 6.8066406 14.513672 C 7.0018933 14.708884 7.3184192 14.708884 7.5136719 14.513672 C 12.204483 9.822859 19.795517 9.822859 24.486328 14.513672 C 24.681581 14.708884 24.99811 14.708884 25.193359 14.513672 C 25.388571 14.318419 25.388571 14.00189 25.193359 13.806641 C 22.656882 11.270158 19.328256 10.001953 16 10.001953 z M 16 14.994141 C 13.949087 14.994141 11.897836 15.774034 10.335938 17.335938 C 10.140726 17.531187 10.140726 17.847716 10.335938 18.042969 C 10.531187 18.238181 10.847716 18.238181 11.042969 18.042969 C 13.784622 15.301309 18.215377 15.301309 20.957031 18.042969 C 21.102994 18.188901 21.315914 18.224597 21.496094 18.152344 L 21.710938 17.722656 C 21.736647 17.671236 21.765442 17.622022 21.794922 17.574219 C 21.774302 17.487009 21.732072 17.403958 21.664062 17.335938 C 20.102168 15.774035 18.050913 14.994141 16 14.994141 z M 23.5 17.638672 C 23.1414 17.638672 22.782693 17.815474 22.605469 18.169922 L 18.5 26.382812 C 18.137658 27.107499 18.689781 28 19.5 28 L 27.5 28 C 28.31022 28 28.862343 27.107499 28.5 26.382812 L 24.394531 18.169922 C 24.217307 17.815474 23.858601 17.638672 23.5 17.638672 z M 23.5 18.617188 L 27.605469 26.830078 C 27.654056 26.927254 27.608645 27 27.5 27 L 19.5 27 C 19.391355 27 19.345944 26.92725 19.394531 26.830078 L 23.5 18.617188 z M 16 20 C 14.349081 20 13 21.349081 13 23 C 13 24.650919 14.349081 26 16 26 C 16.731704 26 17.40384 25.733757 17.925781 25.294922 L 18.992188 23.162109 C 18.995092 23.108265 19 23.054541 19 23 C 19 21.349081 17.650919 20 16 20 z M 16 21 C 17.110485 21 18 21.889515 18 23 C 18 24.110485 17.110485 25 16 25 C 14.889515 25 14 24.110485 14 23 C 14 21.889515 14.889515 21 16 21 z M 23.462891 21 C 23.204376 21 23 21.224798 23 21.486328 L 23 23.513672 C 23 23.783638 23.216362 24 23.486328 24 L 23.513672 24 C 23.783646 24 24 23.783638 24 23.513672 L 24 21.486328 C 24.000003 21.216362 23.783638 21 23.513672 21 L 23.486328 21 L 23.462891 21 z M 23.462891 25 C 23.204703 25.013 23 25.224798 23 25.486328 L 23 25.513672 C 23 25.783646 23.216362 26 23.486328 26 L 23.513672 26 C 23.783646 26 24 25.783638 24 25.513672 L 24 25.486328 C 24.000003 25.216354 23.783638 25 23.513672 25 L 23.486328 25 C 23.477928 25 23.471221 24.999581 23.462891 25 z " /></svg>
