<?xml version="1.0" encoding="UTF-8" standalone="no"?>
<svg
   height="32"
   width="32"
   version="1.1"
   id="svg1"
   xmlns="http://www.w3.org/2000/svg"
   xmlns:svg="http://www.w3.org/2000/svg">
  <defs
     id="defs1">
    <style
       type="text/css"
       id="current-color-scheme">
            .ColorScheme-Text {
                color:#232629;
            }
        </style>
  </defs>
  <path
     id="path1"
     style="fill:currentColor;opacity:0.2"
     class="ColorScheme-Text"
     d="M 16 5 C 11.391392 5.0000001 6.7828889 6.7561743 3.2695312 10.269531 C 3.0743198 10.464784 3.0743198 10.78131 3.2695312 10.976562 C 3.4647846 11.171774 3.7813092 11.171774 3.9765625 10.976562 C 10.621129 4.3319946 21.378868 4.331995 28.023438 10.976562 C 28.21869 11.171774 28.535216 11.171774 28.730469 10.976562 C 28.925681 10.78131 28.925681 10.464784 28.730469 10.269531 C 25.217109 6.7561745 20.608608 4.9999999 16 5 z M 16 10.001953 C 12.671735 10.001953 9.343128 11.270152 6.8066406 13.806641 C 6.6114292 14.001893 6.6114292 14.318419 6.8066406 14.513672 C 7.0018939 14.708884 7.3184186 14.708884 7.5136719 14.513672 C 12.204498 9.8228452 19.795502 9.8228452 24.486328 14.513672 C 24.681581 14.708884 24.998107 14.708884 25.193359 14.513672 C 25.388571 14.318419 25.388571 14.001893 25.193359 13.806641 C 22.656873 11.270152 19.328265 10.001953 16 10.001953 z " />
  <path
     style="fill:currentColor"
     class="ColorScheme-Text"
     d="m 16,14.994141 c -2.050921,0 -4.102156,0.779889 -5.664062,2.341797 -0.195212,0.195253 -0.195212,0.511778 0,0.707031 0.195253,0.195212 0.511778,0.195212 0.707031,0 2.741665,-2.741668 7.172396,-2.741668 9.914062,0 0.195253,0.195212 0.511778,0.195212 0.707031,0 0.195212,-0.195253 0.195212,-0.511778 0,-0.707031 C 20.102156,15.774031 18.050921,14.994141 16,14.994141 Z M 24.5,18 C 23.125214,18 22,19.125214 22,20.5 V 22 H 21.179688 C 20.53368,22 20,22.53368 20,23.179688 v 4.640624 C 20,28.466321 20.53368,29 21.179688,29 H 27 c 1.098644,0 2,-0.901356 2,-2 V 23.179688 C 29,22.53368 28.466321,22 27.820312,22 H 27 V 20.5 C 27,19.125214 25.874786,18 24.5,18 Z m 0,1 c 0.834347,0 1.5,0.665653 1.5,1.5 V 22 H 23 V 20.5 C 23,19.665653 23.665653,19 24.5,19 Z M 16,20 c -1.650927,0 -3,1.349073 -3,3 0,1.650927 1.349073,3 3,3 1.650927,0 3,-1.349073 3,-3 0,-1.650927 -1.349073,-3 -3,-3 z m 0,1 c 1.110489,0 2,0.889511 2,2 0,1.110489 -0.889511,2 -2,2 -1.110489,0 -2,-0.889511 -2,-2 0,-1.110489 0.889511,-2 2,-2 z m 5.179688,2 h 6.640624 C 27.925882,23 28,23.074119 28,23.179688 V 27 c 0,0.558205 -0.441795,1 -1,1 H 21.179688 C 21.074119,28 21,27.925882 21,27.820312 V 23.179688 C 21,23.074119 21.074119,23 21.179688,23 Z"
     id="path3" />
</svg>
