<?xml version="1.0" encoding="UTF-8" standalone="no"?>
<svg
   height="32"
   width="32"
   version="1.1"
   id="svg1"
   xmlns="http://www.w3.org/2000/svg"
   xmlns:svg="http://www.w3.org/2000/svg">
  <defs
     id="defs1">
    <style
       type="text/css"
       id="current-color-scheme">
            .ColorScheme-Text {
                color:#232629;
            }
        </style>
  </defs>
  <path
     id="path1"
     style="fill:currentColor;opacity:0.2"
     class="ColorScheme-Text"
     d="M 15 4 C 10.391402 4.0000001 5.7828819 5.7561815 2.2695312 9.2695312 C 2.0743202 9.4647839 2.0743202 9.7813101 2.2695312 9.9765625 C 2.4647844 10.171774 2.7813096 10.171774 2.9765625 9.9765625 C 9.6211162 3.3320078 20.37888 3.3320082 27.023438 9.9765625 C 27.218688 10.171774 27.535216 10.171774 27.730469 9.9765625 C 27.925681 9.7813101 27.925681 9.4647839 27.730469 9.2695312 C 24.217115 5.7561817 19.608598 3.9999999 15 4 z M 15 9.0019531 C 11.671741 9.0019531 8.343123 10.270156 5.8066406 12.806641 C 5.6114296 13.001891 5.6114296 13.318419 5.8066406 13.513672 C 6.0018935 13.708884 6.318419 13.708884 6.5136719 13.513672 C 11.204488 8.8228544 18.795512 8.8228544 23.486328 13.513672 C 23.681581 13.708884 23.998109 13.708884 24.193359 13.513672 C 24.388571 13.318419 24.388571 13.001891 24.193359 12.806641 C 21.656879 10.270156 18.328259 9.0019531 15 9.0019531 z M 15 13.994141 C 12.949083 13.994141 10.89784 14.774032 9.3359375 16.335938 C 9.1407259 16.531189 9.1407259 16.847716 9.3359375 17.042969 C 9.5311901 17.238181 9.8477158 17.238181 10.042969 17.042969 C 12.784628 14.301305 17.215371 14.301305 19.957031 17.042969 C 20.152284 17.238181 20.468811 17.238181 20.664062 17.042969 C 20.859274 16.847716 20.859274 16.531189 20.664062 16.335938 C 19.10216 14.774033 17.050917 13.994141 15 13.994141 z M 15 19 C 13.349075 19 12 20.349075 12 22 C 12 23.650925 13.349075 25 15 25 C 16.650925 25 18 23.650925 18 22 C 18 20.349075 16.650925 19 15 19 z M 15 20 C 16.110488 20 17 20.889512 17 22 C 17 23.110488 16.110488 24 15 24 C 13.889512 24 13 23.110488 13 22 C 13 20.889512 13.889512 20 15 20 z " />
  <path
     style="opacity:0.1;fill:currentColor"
     class="ColorScheme-Text"
     d="m 21.179688,23 h 6.640624 C 27.925882,23 28,23.074119 28,23.179688 V 27 c 0,0.558205 -0.441795,1 -1,1 H 21.179688 C 21.074119,28 21,27.925882 21,27.820312 V 23.179688 C 21,23.074119 21.074119,23 21.179688,23 Z"
     id="path2" />
  <path
     style="fill:currentColor"
     class="ColorScheme-Text"
     d="M 24.5,18 C 23.125214,18 22,19.125214 22,20.5 V 22 H 21.179688 C 20.53368,22 20,22.53368 20,23.179688 v 4.640624 C 20,28.466321 20.53368,29 21.179688,29 H 27 c 1.098644,0 2,-0.901356 2,-2 V 23.179688 C 29,22.53368 28.466321,22 27.820312,22 H 27 V 20.5 C 27,19.125214 25.874786,18 24.5,18 Z m 0,1 c 0.834347,0 1.5,0.665653 1.5,1.5 V 22 H 23 V 20.5 C 23,19.665653 23.665653,19 24.5,19 Z m -3.320312,4 h 6.640624 C 27.925882,23 28,23.074119 28,23.179688 V 27 c 0,0.558205 -0.441795,1 -1,1 H 21.179688 C 21.074119,28 21,27.925882 21,27.820312 V 23.179688 C 21,23.074119 21.074119,23 21.179688,23 Z"
     id="path6" />
</svg>
