<?xml version="1.0" encoding="UTF-8" standalone="no"?>
<svg
   height="32"
   width="32"
   version="1.1"
   id="svg1"
   xmlns="http://www.w3.org/2000/svg"
   xmlns:svg="http://www.w3.org/2000/svg">
  <defs
     id="defs1">
    <style
       type="text/css"
       id="current-color-scheme">
            .ColorScheme-Text {
                color:#232629;
            }
        </style>
  </defs>
  <path
     id="path1"
     style="fill:currentColor;opacity:0.2"
     class="ColorScheme-Text"
     d="M 16 5 C 11.391397 5.0000001 6.7828854 6.7561781 3.2695312 10.269531 C 3.07432 10.464784 3.07432 10.781311 3.2695312 10.976562 C 3.4647845 11.171774 3.7813094 11.171774 3.9765625 10.976562 C 10.621122 4.3320017 21.378874 4.3320021 28.023438 10.976562 C 28.218689 11.171774 28.535216 11.171774 28.730469 10.976562 C 28.925681 10.781311 28.925681 10.464784 28.730469 10.269531 C 25.217112 6.7561783 20.608603 4.9999999 16 5 z M 16 10.001953 C 12.671738 10.001953 9.3431255 11.270154 6.8066406 13.806641 C 6.6114294 14.001892 6.6114294 14.318419 6.8066406 14.513672 C 7.0018937 14.708884 7.3184188 14.708884 7.5136719 14.513672 C 12.204493 9.8228498 19.795507 9.8228498 24.486328 14.513672 C 24.681581 14.708884 24.998108 14.708884 25.193359 14.513672 C 25.388571 14.318419 25.388571 14.001892 25.193359 13.806641 C 22.656876 11.270154 19.328262 10.001953 16 10.001953 z M 16 14.994141 C 13.949081 14.994141 11.897842 15.774031 10.335938 17.335938 C 10.140726 17.53119 10.140726 17.847716 10.335938 18.042969 C 10.53119 18.238181 10.847716 18.238181 11.042969 18.042969 C 13.784631 15.301303 18.215368 15.301303 20.957031 18.042969 C 21.152284 18.238181 21.46881 18.238181 21.664062 18.042969 C 21.859274 17.847716 21.859274 17.53119 21.664062 17.335938 C 20.102158 15.774032 18.050919 14.994141 16 14.994141 z " />
  <path
     style="fill:currentColor"
     class="ColorScheme-Text"
     d="M 24.5,18 C 23.125214,18 22,19.125214 22,20.5 V 22 H 21.179688 C 20.53368,22 20,22.53368 20,23.179688 v 4.640624 C 20,28.466321 20.53368,29 21.179688,29 H 27 c 1.098644,0 2,-0.901356 2,-2 V 23.179688 C 29,22.53368 28.466321,22 27.820312,22 H 27 V 20.5 C 27,19.125214 25.874786,18 24.5,18 Z m 0,1 c 0.834347,0 1.5,0.665653 1.5,1.5 V 22 H 23 V 20.5 C 23,19.665653 23.665653,19 24.5,19 Z M 16,20 c -1.650927,0 -3,1.349073 -3,3 0,1.650927 1.349073,3 3,3 1.650927,0 3,-1.349073 3,-3 0,-1.650927 -1.349073,-3 -3,-3 z m 0,1 c 1.110489,0 2,0.889511 2,2 0,1.110489 -0.889511,2 -2,2 -1.110489,0 -2,-0.889511 -2,-2 0,-1.110489 0.889511,-2 2,-2 z m 5.179688,2 h 6.640624 C 27.925882,23 28,23.074119 28,23.179688 V 27 c 0,0.558205 -0.441795,1 -1,1 H 21.179688 C 21.074119,28 21,27.925882 21,27.820312 V 23.179688 C 21,23.074119 21.074119,23 21.179688,23 Z"
     id="path4" />
</svg>
