<?xml version="1.0" encoding="UTF-8" standalone="no"?>
<svg
   height="32"
   width="32"
   version="1.1"
   id="svg1"
   xmlns="http://www.w3.org/2000/svg"
   xmlns:svg="http://www.w3.org/2000/svg">
  <defs
     id="defs1">
    <style
       type="text/css"
       id="current-color-scheme">
            .ColorScheme-Text {
                color:#232629;
            }
        </style>
  </defs>
  <path
     id="path1"
     style="fill:currentColor;opacity:0.2"
     class="ColorScheme-Text"
     d="M 15 4 C 10.391397 4.0000001 5.7828854 5.7561779 2.2695312 9.2695312 C 2.07432 9.464784 2.07432 9.7813099 2.2695312 9.9765625 C 2.4647845 10.171774 2.7813094 10.171774 2.9765625 9.9765625 C 9.6211228 3.3320012 20.378874 3.3320016 27.023438 9.9765625 C 27.218689 10.171774 27.535216 10.171774 27.730469 9.9765625 C 27.925681 9.7813099 27.925681 9.464784 27.730469 9.2695312 C 24.217112 5.7561781 19.608603 3.9999999 15 4 z M 15 9.0019531 C 11.671738 9.0019531 8.3431255 10.270154 5.8066406 12.806641 C 5.6114294 13.001892 5.6114294 13.318419 5.8066406 13.513672 C 6.0018937 13.708884 6.3184188 13.708884 6.5136719 13.513672 C 11.204493 8.8228498 18.795507 8.8228498 23.486328 13.513672 C 23.681581 13.708884 23.998108 13.708884 24.193359 13.513672 C 24.388571 13.318419 24.388571 13.001892 24.193359 12.806641 C 21.656876 10.270154 18.328262 9.0019531 15 9.0019531 z M 15 13.994141 C 12.949081 13.994141 10.897842 14.774031 9.3359375 16.335938 C 9.1407257 16.53119 9.1407257 16.847716 9.3359375 17.042969 C 9.5311903 17.238181 9.8477159 17.238181 10.042969 17.042969 C 12.784631 14.301303 17.215368 14.301303 19.957031 17.042969 C 20.152284 17.238181 20.46881 17.238181 20.664062 17.042969 C 20.859274 16.847716 20.859274 16.53119 20.664062 16.335938 C 19.102158 14.774032 17.050919 13.994141 15 13.994141 z " />
  <path
     style="opacity:0.1;fill:currentColor"
     class="ColorScheme-Text"
     d="m 21.179688,23 h 6.640624 C 27.925882,23 28,23.074119 28,23.179688 V 27 c 0,0.558205 -0.441795,1 -1,1 H 21.179688 C 21.074119,28 21,27.925882 21,27.820312 V 23.179688 C 21,23.074119 21.074119,23 21.179688,23 Z"
     id="path2" />
  <path
     style="fill:currentColor"
     class="ColorScheme-Text"
     d="M 24.5,18 C 23.125214,18 22,19.125214 22,20.5 V 22 H 21.179688 C 20.53368,22 20,22.53368 20,23.179688 v 4.640624 C 20,28.466321 20.53368,29 21.179688,29 H 27 c 1.098644,0 2,-0.901356 2,-2 V 23.179688 C 29,22.53368 28.466321,22 27.820312,22 H 27 V 20.5 C 27,19.125214 25.874786,18 24.5,18 Z m 0,1 c 0.834347,0 1.5,0.665653 1.5,1.5 V 22 H 23 V 20.5 C 23,19.665653 23.665653,19 24.5,19 Z M 15,19 c -1.650927,0 -3,1.349073 -3,3 0,1.650927 1.349073,3 3,3 1.650927,0 3,-1.349073 3,-3 0,-1.650927 -1.349073,-3 -3,-3 z m 0,1 c 1.110489,0 2,0.889511 2,2 0,1.110489 -0.889511,2 -2,2 -1.110489,0 -2,-0.889511 -2,-2 0,-1.110489 0.889511,-2 2,-2 z m 6.179688,3 h 6.640624 C 27.925882,23 28,23.074119 28,23.179688 V 27 c 0,0.558205 -0.441795,1 -1,1 H 21.179688 C 21.074119,28 21,27.925882 21,27.820312 V 23.179688 C 21,23.074119 21.074119,23 21.179688,23 Z"
     id="path5" />
</svg>
