<?xml version="1.0" encoding="UTF-8" standalone="no"?>
<svg
   height="32"
   width="32"
   version="1.1"
   id="svg1"
   sodipodi:docname="network-flightmode-on-symbolic.svg"
   inkscape:version="1.3.2 (091e20ef0f, 2023-11-25, custom)"
   xmlns:inkscape="http://www.inkscape.org/namespaces/inkscape"
   xmlns:sodipodi="http://sodipodi.sourceforge.net/DTD/sodipodi-0.dtd"
   xmlns="http://www.w3.org/2000/svg"
   xmlns:svg="http://www.w3.org/2000/svg">
  <sodipodi:namedview
     id="namedview1"
     pagecolor="#ffffff"
     bordercolor="#666666"
     borderopacity="1.0"
     inkscape:showpageshadow="2"
     inkscape:pageopacity="0.0"
     inkscape:pagecheckerboard="0"
     inkscape:deskcolor="#d1d1d1"
     showgrid="true"
     showguides="true"
     inkscape:zoom="11.944612"
     inkscape:cx="0.041859878"
     inkscape:cy="5.6092237"
     inkscape:window-width="1933"
     inkscape:window-height="983"
     inkscape:window-x="3911"
     inkscape:window-y="651"
     inkscape:window-maximized="0"
     inkscape:current-layer="svg1">
    <inkscape:grid
       id="grid3"
       units="px"
       originx="0"
       originy="0"
       spacingx="1"
       spacingy="1"
       empcolor="#0099e5"
       empopacity="0.30196078"
       color="#0099e5"
       opacity="0.14901961"
       empspacing="5"
       dotted="false"
       gridanglex="30"
       gridanglez="30"
       visible="true" />
  </sodipodi:namedview>
  <defs
     id="defs1">
    <inkscape:path-effect
       effect="fillet_chamfer"
       id="path-effect5"
       is_visible="true"
       lpeversion="1"
       nodesatellites_param="F,0,0,1,0,0.45400189,0,1 @ F,0,1,1,0,1.2188011,0,1 @ F,0,0,1,0,0.46503103,0,1 @ F,0,0,1,0,0.62477537,0,1 @ F,0,0,1,0,0.62477537,0,1 @ F,0,0,1,0,0.36649035,0,1 @ F,0,0,1,0,0.32281095,0,1 @ F,0,0,1,0,0.49616275,0,1 @ F,0,0,1,0,0.27877339,0,1 @ F,0,0,1,0,2.0296234,0,1 @ F,0,0,1,0,0.27877339,0,1 @ F,0,0,1,0,0.49616275,0,1 @ F,0,0,1,0,0.32281095,0,1 @ F,0,0,1,0,0.36649035,0,1 @ F,0,0,1,0,0.62477537,0,1 @ F,0,0,1,0,0.62477537,0,1 @ F,0,0,1,0,0.46503103,0,1 @ F,0,0,1,0,1.2188011,0,1"
       radius="0"
       unit="px"
       method="auto"
       mode="F"
       chamfer_steps="1"
       flexible="false"
       use_knot_distance="true"
       apply_no_radius="true"
       apply_with_radius="true"
       only_selected="false"
       hide_knots="false" />
    <style
       type="text/css"
       id="current-color-scheme">
            .ColorScheme-Text {
                color:#232629;
            }
        </style>
  </defs>
  <path
     id="path5"
     style="opacity:0.4;fill:currentColor"
     class="ColorScheme-Text"
     d="M 16.515625,4.515625 C 10.155815,4.5158387 5.0002137,9.6714409 5,16.03125 5.0002137,22.39106 10.155815,27.546661 16.515625,27.546875 22.875435,27.546661 28.031036,22.39106 28.03125,16.03125 28.031036,9.6714409 22.875435,4.5158387 16.515625,4.515625 Z m 0,0.9570312 c 5.831194,2.137e-4 10.55838,4.7273998 10.558594,10.5585938 -2.14e-4,5.831194 -4.7274,10.55838 -10.558594,10.558594 C 10.684431,26.58963 5.9572449,21.862444 5.9570312,16.03125 5.9572449,10.200056 10.684431,5.4728699 16.515625,5.4726562 Z"
     sodipodi:nodetypes="cccccccccc" />
  <path
     id="path1"
     style="fill:currentColor"
     class="ColorScheme-Text"
     d="m 16.496094,6.6582031 c -0.260305,0.00342 -0.54445,0.1078254 -0.72461,0.3769531 -0.04835,0.072225 -0.09596,0.148072 -0.142578,0.2265626 C 15.196378,7.9899661 15,9.0389583 15,9.8183594 v 3.3164066 c 0,0.09367 -0.05238,0.176033 -0.136719,0.216796 L 9.8457031,15.777344 C 9.3300526,16.026575 9,16.552278 9,17.125 v 0.75 c 10e-8,0.630611 0.6147798,1.11193 1.226562,0.958984 L 15,17.640625 v 3.537109 c 0,0.0095 -0.0032,0.01528 -0.01172,0.01953 l -1.267578,0.632812 C 13.28028,22.050293 13,22.503683 13,22.996094 v 0.224609 c 10e-7,0.424181 0.355116,0.779296 0.779297,0.779297 h 0.691406 4.75 c 0.424181,-1e-6 0.779296,-0.355116 0.779297,-0.779297 v -0.224609 c 0,-0.492411 -0.280279,-0.945803 -0.720703,-1.166016 L 18.011719,21.197266 C 18.003213,21.193013 18,21.187244 18,21.177734 v -3.537109 l 4.773438,1.193359 C 23.385221,18.98693 24,18.505611 24,17.875 v -0.75 c 0,-0.572723 -0.330053,-1.098425 -0.845703,-1.347656 L 18.136719,13.351562 C 18.05238,13.310799 18,13.228439 18,13.134766 V 9.8183594 C 18,9.0426158 17.814337,7.9895971 17.380859,7.2578125 17.333194,7.17734 17.284609,7.0995219 17.234375,7.0253906 17.050507,6.7540402 16.756398,6.654781 16.496094,6.6582031 Z m 0.0098,1.0878907 c 0.0047,0.00782 0.0089,0.013509 0.01367,0.021484 C 16.771808,8.193521 17,9.247855 17,9.8183594 v 3.3164066 c 0,0.475041 0.273468,0.910463 0.701172,1.117187 l 5.019531,2.425781 C 22.892989,16.761006 23,16.933646 23,17.125 v 0.734375 L 17.976562,16.603516 C 17.492059,16.482389 17.000001,16.867773 17,17.367188 v 3.810546 c 0,0.38617 0.219053,0.741363 0.564453,0.914063 l 1.267578,0.632812 C 18.935562,22.776375 19,22.880342 19,22.996094 V 23 H 14.470703 14 v -0.0039 c 0,-0.115752 0.06444,-0.219719 0.167969,-0.271485 l 1.267578,-0.632812 C 15.780947,21.919091 16,21.563904 16,21.177734 v -3.810546 c -10e-7,-0.499415 -0.492059,-0.884799 -0.976562,-0.763672 L 10,17.859375 V 17.125 c 0,-0.191354 0.107012,-0.363994 0.279297,-0.447266 l 5.019531,-2.425781 C 15.726532,14.045229 16,13.609807 16,13.134766 V 9.8183594 c 0,-0.5668469 0.2337,-1.6162835 0.488281,-2.0449219 0.006,-0.010105 0.01163,-0.017473 0.01758,-0.027344 z"
     sodipodi:nodetypes="sssssccssscsccsssccssccscsssccssscsccssccscccsccscccsccscccsccsssc" />
  <path
     id="path6"
     style="opacity:0.05;fill:currentColor"
     class="ColorScheme-Text"
     d="m 16.515625,5.4726562 c 5.831194,2.137e-4 10.55838,4.7273998 10.558594,10.5585938 -2.14e-4,5.831194 -4.7274,10.55838 -10.558594,10.558594 C 10.684431,26.58963 5.9572449,21.862444 5.9570312,16.03125 5.9572449,10.200056 10.684431,5.4728699 16.515625,5.4726562 Z m -0.01953,1.1855469 c -0.260305,0.00342 -0.54445,0.1078257 -0.72461,0.3769531 -0.04835,0.072225 -0.09596,0.148072 -0.142578,0.2265626 C 15.196379,7.9899653 15,9.0389591 15,9.8183594 v 3.3164066 c 0,0.09367 -0.05238,0.176034 -0.136719,0.216796 L 9.8457031,15.777344 C 9.3300531,16.026575 9,16.552279 9,17.125 v 0.75 c 10e-8,0.63061 0.6147809,1.11193 1.226562,0.958984 L 15,17.640625 v 3.537109 c 0,0.0095 -0.0032,0.01528 -0.01172,0.01953 l -1.267578,0.632812 C 13.280282,22.050295 13,22.503683 13,22.996094 v 0.224609 c 10e-7,0.424181 0.355116,0.779296 0.779297,0.779297 h 0.691406 4.75 c 0.424181,-1e-6 0.779296,-0.355116 0.779297,-0.779297 v -0.224609 c 0,-0.492411 -0.28028,-0.945803 -0.720703,-1.166016 L 18.011719,21.197266 C 18.003213,21.193013 18,21.187244 18,21.177734 v -3.537109 l 4.773438,1.193359 C 23.38522,18.98693 24,18.50561 24,17.875 v -0.75 c 0,-0.572722 -0.330054,-1.098425 -0.845703,-1.347656 L 18.136719,13.351562 C 18.05238,13.3108 18,13.228439 18,13.134766 V 9.8183594 C 18,9.0426166 17.814337,7.9895964 17.380859,7.2578125 17.333194,7.1773401 17.284609,7.0995219 17.234375,7.0253906 17.050507,6.7540405 16.756397,6.654781 16.496094,6.6582031 Z"
     sodipodi:nodetypes="ccccccssssccssccsccsssccssccscsssccssscsc" />
</svg>
