<?xml version="1.0" encoding="UTF-8" standalone="no"?>
<svg
   height="32"
   width="32"
   version="1.1"
   id="svg1"
   xmlns="http://www.w3.org/2000/svg"
   xmlns:svg="http://www.w3.org/2000/svg">
  <defs
     id="defs1">
    <style
       type="text/css"
       id="current-color-scheme">
            .ColorScheme-Text {
                color:#232629;
            }
        </style>
  </defs>
  <path
     style="fill:currentColor"
     class="ColorScheme-Text"
     d="M 16 5 C 11.391387 5.0000001 6.7828924 6.7561705 3.2695312 10.269531 A 0.5 0.5 0 0 0 3.2695312 10.976562 A 0.5 0.5 0 0 0 3.9765625 10.976562 C 10.621136 4.3319875 21.378862 4.3319879 28.023438 10.976562 A 0.5 0.5 0 0 0 28.730469 10.976562 A 0.5 0.5 0 0 0 28.730469 10.269531 C 25.217106 6.7561707 20.608613 4.9999999 16 5 z M 16 10.001953 C 12.671732 10.001953 9.3431305 11.27015 6.8066406 13.806641 A 0.5 0.5 0 0 0 6.8066406 14.513672 A 0.5 0.5 0 0 0 7.5136719 14.513672 C 12.204503 9.8228406 19.795497 9.8228406 24.486328 14.513672 A 0.5 0.5 0 0 0 25.193359 14.513672 A 0.5 0.5 0 0 0 25.193359 13.806641 C 22.65687 11.27015 19.328268 10.001953 16 10.001953 z M 16 14.994141 C 13.949079 14.994141 11.897844 15.77403 10.335938 17.335938 A 0.5 0.5 0 0 0 10.335938 18.042969 A 0.5 0.5 0 0 0 11.042969 18.042969 C 13.784634 15.301301 18.215365 15.301301 20.957031 18.042969 A 0.5 0.5 0 0 0 21.664062 18.042969 A 0.5 0.5 0 0 0 21.664062 17.335938 C 20.102156 15.774031 18.050921 14.994141 16 14.994141 z M 24.5 18 C 23.125214 18 22 19.125214 22 20.5 L 22 22 L 21.179688 22 C 20.53368 22 20 22.53368 20 23.179688 L 20 27.820312 C 20 28.466321 20.53368 29 21.179688 29 L 27 29 C 28.098644 29 29 28.098644 29 27 L 29 23.179688 C 29 22.53368 28.466321 22 27.820312 22 L 27 22 L 27 20.5 C 27 19.125214 25.874786 18 24.5 18 z M 24.5 19 C 25.334347 19 26 19.665653 26 20.5 L 26 22 L 23 22 L 23 20.5 C 23 19.665653 23.665653 19 24.5 19 z M 16 20 C 14.349073 20 13 21.349073 13 23 C 13 24.650927 14.349073 26 16 26 C 17.650927 26 19 24.650927 19 23 C 19 21.349073 17.650927 20 16 20 z M 16 21 C 17.110489 21 18 21.889511 18 23 C 18 24.110489 17.110489 25 16 25 C 14.889511 25 14 24.110489 14 23 C 14 21.889511 14.889511 21 16 21 z M 21.179688 23 L 27.820312 23 C 27.925882 23 28 23.074119 28 23.179688 L 28 27 C 28 27.558205 27.558205 28 27 28 L 21.179688 28 C 21.074119 28 21 27.925882 21 27.820312 L 21 23.179688 C 21 23.074119 21.074119 23 21.179688 23 z " />
</svg>
