<?xml version="1.0" encoding="UTF-8" standalone="no"?>
<svg
   height="32"
   width="32"
   version="1.1"
   id="svg1"
   xml:space="preserve"
   xmlns="http://www.w3.org/2000/svg"
   xmlns:svg="http://www.w3.org/2000/svg"><defs
     id="defs1"><style
   type="text/css"
   id="current-color-scheme">
            .ColorScheme-Text {
                color:#232629;
            }
        </style>
        </defs><g
     id="g4"><g
       id="g3" /></g><path
     id="path4"
     style="fill:currentColor;opacity:0.2"
     class="ColorScheme-Text"
     d="M 16 5 C 11.391402 5.0000001 6.7828819 6.7561819 3.2695312 10.269531 C 3.0743202 10.464784 3.0743202 10.781312 3.2695312 10.976562 C 3.4647844 11.171774 3.7813096 11.171774 3.9765625 10.976562 C 10.621115 4.3320088 21.37888 4.3320092 28.023438 10.976562 C 28.218688 11.171774 28.535216 11.171774 28.730469 10.976562 C 28.925681 10.781312 28.925681 10.464784 28.730469 10.269531 C 25.217115 6.7561821 20.608598 4.9999999 16 5 z M 16 10.001953 C 12.671744 10.001953 9.3431205 11.270158 6.8066406 13.806641 C 6.6114298 14.00189 6.6114298 14.318419 6.8066406 14.513672 C 7.0018933 14.708884 7.3184192 14.708884 7.5136719 14.513672 C 12.204483 9.822859 19.795517 9.822859 24.486328 14.513672 C 24.681581 14.708884 24.99811 14.708884 25.193359 14.513672 C 25.388571 14.318419 25.388571 14.00189 25.193359 13.806641 C 22.656882 11.270158 19.328256 10.001953 16 10.001953 z " /><path
     id="path1"
     style="fill:currentColor"
     class="ColorScheme-Text"
     d="m 16,14.994141 c -2.050915,0 -4.102162,0.779892 -5.664062,2.341797 -0.195212,0.19525 -0.195212,0.511778 0,0.707031 0.19525,0.195212 0.511778,0.195212 0.707031,0 2.741656,-2.741662 7.172405,-2.741662 9.914062,0 0.145963,0.145932 0.358883,0.181628 0.539063,0.109375 l 0.214844,-0.429688 c 0.02571,-0.05142 0.0545,-0.100634 0.08398,-0.148437 -0.02062,-0.08721 -0.06285,-0.17026 -0.13086,-0.238281 C 20.102162,15.774034 18.050915,14.994141 16,14.994141 Z m 7.5,2.644531 c -0.3586,0 -0.717307,0.176802 -0.894531,0.53125 L 18.5,26.382812 C 18.137658,27.107499 18.68978,28 19.5,28 h 8 c 0.810221,0 1.362343,-0.892501 1,-1.617188 l -4.105469,-8.21289 C 24.217307,17.815474 23.858601,17.638672 23.5,17.638672 Z m 0,0.978516 4.105469,8.21289 C 27.654056,26.927254 27.608645,27 27.5,27 h -8 c -0.108645,0 -0.154056,-0.07275 -0.105469,-0.169922 z M 16,20 c -1.650921,0 -3,1.349079 -3,3 0,1.650921 1.349079,3 3,3 0.731705,0 1.403839,-0.266242 1.925781,-0.705078 l 1.066407,-2.132813 C 18.995093,23.108265 19,23.054541 19,23 19,21.349079 17.650921,20 16,20 Z m 0,1 c 1.110486,0 2,0.889514 2,2 0,1.110486 -0.889514,2 -2,2 -1.110486,0 -2,-0.889514 -2,-2 0,-1.110486 0.889514,-2 2,-2 z m 7.462891,0 C 23.204376,21 23,21.224798 23,21.486328 v 2.027344 C 23,23.783638 23.216362,24 23.486328,24 h 0.02734 C 23.783642,24 24,23.783638 24,23.513672 V 21.486328 C 24.000003,21.216362 23.783638,21 23.513672,21 h -0.02734 z m 0,4 C 23.204703,25.013 23,25.224798 23,25.486328 v 0.02734 C 23,25.783642 23.216362,26 23.486328,26 h 0.02734 C 23.783642,26 24,25.783638 24,25.513672 v -0.02734 C 24.000003,25.216358 23.783638,25 23.513672,25 h -0.02734 c -0.0084,0 -0.01511,-4.19e-4 -0.02344,0 z" /></svg>
