<?xml version="1.0" encoding="UTF-8" standalone="no"?>
<svg
   height="32"
   width="32"
   version="1.1"
   id="svg1"
   xmlns="http://www.w3.org/2000/svg"
   xmlns:svg="http://www.w3.org/2000/svg">
  <defs
     id="defs1">
    <style
       type="text/css"
       id="current-color-scheme">
            .ColorScheme-Text {
                color:#232629;
            }
        </style>
  </defs>
  <path
     id="path1"
     style="opacity:0.2;fill:currentColor"
     class="ColorScheme-Text"
     d="M 16 5 C 11.391402 5.0000001 6.7828819 6.7561817 3.2695312 10.269531 C 3.0743202 10.464784 3.0743202 10.78131 3.2695312 10.976562 C 3.4647844 11.171773 3.7813096 11.171773 3.9765625 10.976562 C 10.621116 4.3320073 21.37888 4.3320077 28.023438 10.976562 C 28.218688 11.171773 28.535216 11.171773 28.730469 10.976562 C 28.925681 10.78131 28.925681 10.464784 28.730469 10.269531 C 25.217115 6.7561819 20.608598 4.9999999 16 5 z M 16 10.001953 C 12.671741 10.001953 9.343123 11.270156 6.8066406 13.806641 C 6.6114296 14.001891 6.6114296 14.318419 6.8066406 14.513672 C 7.0018935 14.708884 7.318419 14.708884 7.5136719 14.513672 C 12.204488 9.8228544 19.795512 9.8228544 24.486328 14.513672 C 24.681581 14.708884 24.998109 14.708884 25.193359 14.513672 C 25.388571 14.318419 25.388571 14.001891 25.193359 13.806641 C 22.656879 11.270156 19.328259 10.001953 16 10.001953 z M 16 14.994141 C 13.949083 14.994141 11.89784 15.774032 10.335938 17.335938 C 10.140726 17.531189 10.140726 17.847716 10.335938 18.042969 C 10.531189 18.238181 10.847716 18.238181 11.042969 18.042969 C 13.784628 15.301305 18.215371 15.301305 20.957031 18.042969 C 21.152284 18.238181 21.468811 18.238181 21.664062 18.042969 C 21.859274 17.847716 21.859274 17.531189 21.664062 17.335938 C 20.10216 15.774033 18.050917 14.994141 16 14.994141 z M 16 20 C 14.349075 20 13 21.349075 13 23 C 13 24.650925 14.349075 26 16 26 C 17.650925 26 19 24.650925 19 23 C 19 21.349075 17.650925 20 16 20 z M 16 21 C 17.110488 21 18 21.889512 18 23 C 18 24.110488 17.110488 25 16 25 C 14.889512 25 14 24.110488 14 23 C 14 21.889512 14.889512 21 16 21 z " />
</svg>
