<?xml version="1.0" encoding="UTF-8" standalone="no"?>
<svg
   height="32"
   width="32"
   version="1.1"
   id="svg1"
   xmlns="http://www.w3.org/2000/svg"
   xmlns:svg="http://www.w3.org/2000/svg">
  <defs
     id="defs1">
    <style
       type="text/css"
       id="current-color-scheme">
            .ColorScheme-Text {
                color:#232629;
            }
        </style>
  </defs>
  <path
     id="path1"
     style="opacity:0.2;fill:currentColor"
     class="ColorScheme-Text"
     d="m 16,5 c -4.608608,1e-7 -9.2171111,1.7561743 -12.7304688,5.269531 -0.1952114,0.195253 -0.1952114,0.511779 0,0.707032 0.1952534,0.195211 0.511778,0.195211 0.7070313,0 6.6445665,-6.6445684 17.4023055,-6.644568 24.0468755,0 0.195252,0.195211 0.511778,0.195211 0.707031,0 0.195212,-0.195253 0.195212,-0.511779 0,-0.707032 C 25.217109,6.7561745 20.608608,4.9999999 16,5 Z m 0,5.001953 c -3.328265,0 -6.656872,1.268199 -9.1933594,3.804688 -0.1952114,0.195252 -0.1952114,0.511778 0,0.707031 0.1952533,0.195212 0.511778,0.195212 0.7070313,0 4.6908261,-4.6908268 12.2818301,-4.6908268 16.9726561,0 0.195253,0.195212 0.511779,0.195212 0.707031,0 0.195212,-0.195253 0.195212,-0.511779 0,-0.707031 C 22.656873,11.270152 19.328265,10.001953 16,10.001953 Z" />
  <path
     style="fill:currentColor"
     class="ColorScheme-Text"
     d="m 16,14.994141 c -2.050921,0 -4.102156,0.779889 -5.664062,2.341797 -0.195212,0.195253 -0.195212,0.511778 0,0.707031 0.195253,0.195212 0.511778,0.195212 0.707031,0 2.741665,-2.741668 7.172396,-2.741668 9.914062,0 0.195253,0.195212 0.511778,0.195212 0.707031,0 0.195212,-0.195253 0.195212,-0.511778 0,-0.707031 C 20.102156,15.774031 18.050921,14.994141 16,14.994141 Z M 16,20 c -1.650927,0 -3,1.349073 -3,3 0,1.650927 1.349073,3 3,3 1.650927,0 3,-1.349073 3,-3 0,-1.650927 -1.349073,-3 -3,-3 z m 0,1 c 1.110489,0 2,0.889511 2,2 0,1.110489 -0.889511,2 -2,2 -1.110489,0 -2,-0.889511 -2,-2 0,-1.110489 0.889511,-2 2,-2 z"
     id="path4" />
</svg>
