<?xml version="1.0" encoding="UTF-8" standalone="no"?>
<svg
   height="32"
   width="32"
   version="1.1"
   id="svg1"
   xmlns="http://www.w3.org/2000/svg"
   xmlns:svg="http://www.w3.org/2000/svg">
  <defs
     id="defs1">
    <style
       type="text/css"
       id="current-color-scheme">
            .ColorScheme-Text {
                color:#232629;
            }
        </style>
  </defs>
  <path
     style="fill:currentColor;opacity:0.2"
     class="ColorScheme-Text"
     d="m 15,4 c -4.608613,1e-7 -9.2171076,1.7561705 -12.7304688,5.269531 -0.1952116,0.195253 -0.1952116,0.511778 0,0.707031 0.1952535,0.195212 0.5117778,0.195212 0.7070313,0 6.6445735,-6.6445745 17.4022995,-6.6445741 24.0468755,0 0.195253,0.195212 0.511778,0.195212 0.707031,0 0.195212,-0.195253 0.195212,-0.511778 0,-0.707031 C 24.217106,5.7561707 19.608613,3.9999999 15,4 Z"
     id="path1" />
  <path
     style="opacity:0.1;fill:currentColor"
     class="ColorScheme-Text"
     d="m 21.179688,23 h 6.640624 C 27.925882,23 28,23.074119 28,23.179688 V 27 c 0,0.558205 -0.441795,1 -1,1 H 21.179688 C 21.074119,28 21,27.925882 21,27.820312 V 23.179688 C 21,23.074119 21.074119,23 21.179688,23 Z"
     id="path2" />
  <path
     style="fill:currentColor;opacity:0.6"
     class="ColorScheme-Text"
     d="m 15,9.001953 c -3.328268,0 -6.6568695,1.268197 -9.1933594,3.804688 -0.1952116,0.195253 -0.1952116,0.511778 0,0.707031 0.1952535,0.195212 0.5117778,0.195212 0.7070313,0 4.6908311,-4.6908314 12.2818251,-4.6908314 16.9726561,0 0.195253,0.195212 0.511778,0.195212 0.707031,0 0.195212,-0.195253 0.195212,-0.511778 0,-0.707031 C 21.65687,10.27015 18.328268,9.001953 15,9.001953 Z"
     id="path3" />
  <path
     style="fill:currentColor"
     class="ColorScheme-Text"
     d="m 15,13.994141 c -2.050921,0 -4.102156,0.779889 -5.664062,2.341797 -0.195212,0.195253 -0.195212,0.511778 0,0.707031 0.195253,0.195212 0.511778,0.195212 0.707031,0 2.741665,-2.741668 7.172396,-2.741668 9.914062,0 0.195253,0.195212 0.511778,0.195212 0.707031,0 0.195212,-0.195253 0.195212,-0.511778 0,-0.707031 C 19.102156,14.774031 17.050921,13.994141 15,13.994141 Z M 24.5,18 C 23.125214,18 22,19.125214 22,20.5 V 22 H 21.179688 C 20.53368,22 20,22.53368 20,23.179688 v 4.640624 C 20,28.466321 20.53368,29 21.179688,29 H 27 c 1.098644,0 2,-0.901356 2,-2 V 23.179688 C 29,22.53368 28.466321,22 27.820312,22 H 27 V 20.5 C 27,19.125214 25.874786,18 24.5,18 Z m 0,1 c 0.834347,0 1.5,0.665653 1.5,1.5 V 22 H 23 V 20.5 C 23,19.665653 23.665653,19 24.5,19 Z M 15,19 c -1.650927,0 -3,1.349073 -3,3 0,1.650927 1.349073,3 3,3 1.650927,0 3,-1.349073 3,-3 0,-1.650927 -1.349073,-3 -3,-3 z m 0,1 c 1.110489,0 2,0.889511 2,2 0,1.110489 -0.889511,2 -2,2 -1.110489,0 -2,-0.889511 -2,-2 0,-1.110489 0.889511,-2 2,-2 z m 6.179688,3 h 6.640624 C 27.925882,23 28,23.074119 28,23.179688 V 27 c 0,0.558205 -0.441795,1 -1,1 H 21.179688 C 21.074119,28 21,27.925882 21,27.820312 V 23.179688 C 21,23.074119 21.074119,23 21.179688,23 Z"
     id="path4" />
</svg>
