<?xml version="1.0" encoding="UTF-8" standalone="no"?>
<svg
   height="32"
   width="32"
   version="1.1"
   id="svg1"
   xmlns="http://www.w3.org/2000/svg"
   xmlns:svg="http://www.w3.org/2000/svg">
  <defs
     id="defs1">
    <style
       type="text/css"
       id="current-color-scheme">
            .ColorScheme-Text {
                color:#232629;
            }
        </style>
  </defs>
  <path
     style="opacity:0.4;fill:currentColor"
     class="ColorScheme-Text"
     d="m 16,5 c -4.608613,1e-7 -9.2171076,1.7561705 -12.7304688,5.269531 -0.1952116,0.195253 -0.1952116,0.511778 0,0.707031 0.1952535,0.195212 0.5117778,0.195212 0.7070313,0 6.6445735,-6.6445745 17.4022995,-6.6445741 24.0468755,0 0.195253,0.195212 0.511778,0.195212 0.707031,0 0.195212,-0.195253 0.195212,-0.511778 0,-0.707031 C 25.217106,6.7561707 20.608613,4.9999999 16,5 Z"
     id="path1" />
  <path
     style="fill:currentColor"
     class="ColorScheme-Text"
     d="m 16,10.001953 c -3.328268,0 -6.6568695,1.268197 -9.1933594,3.804688 -0.1952116,0.195253 -0.1952116,0.511778 0,0.707031 0.1952535,0.195212 0.5117778,0.195212 0.7070313,0 4.6908311,-4.6908314 12.2818251,-4.6908314 16.9726561,0 0.195253,0.195212 0.511778,0.195212 0.707031,0 0.195212,-0.195253 0.195212,-0.511778 0,-0.707031 C 22.65687,11.27015 19.328268,10.001953 16,10.001953 Z m 0,4.992188 c -2.050921,0 -4.102156,0.779889 -5.664062,2.341797 -0.195212,0.195253 -0.195212,0.511778 0,0.707031 0.195253,0.195212 0.511778,0.195212 0.707031,0 2.741665,-2.741668 7.172396,-2.741668 9.914062,0 0.195253,0.195212 0.511778,0.195212 0.707031,0 0.195212,-0.195253 0.195212,-0.511778 0,-0.707031 C 20.102156,15.774031 18.050921,14.994141 16,14.994141 Z M 16,20 c -1.650927,0 -3,1.349073 -3,3 0,1.650927 1.349073,3 3,3 1.650927,0 3,-1.349073 3,-3 0,-1.650927 -1.349073,-3 -3,-3 z m 0,1 c 1.110489,0 2,0.889511 2,2 0,1.110489 -0.889511,2 -2,2 -1.110489,0 -2,-0.889511 -2,-2 0,-1.110489 0.889511,-2 2,-2 z"
     id="path3" />
</svg>
