<?xml version="1.0" encoding="UTF-8" standalone="no"?>
<svg
   viewBox="0 0 32 32"
   version="1.1"
   id="svg1"
   width="32"
   height="32"
   sodipodi:docname="network-wired-symbolic.svg"
   xml:space="preserve"
   xmlns:inkscape="http://www.inkscape.org/namespaces/inkscape"
   xmlns:sodipodi="http://sodipodi.sourceforge.net/DTD/sodipodi-0.dtd"
   xmlns="http://www.w3.org/2000/svg"
   xmlns:svg="http://www.w3.org/2000/svg"><sodipodi:namedview
     id="namedview1"
     pagecolor="#ffffff"
     bordercolor="#666666"
     borderopacity="1.0"
     inkscape:showpageshadow="2"
     inkscape:pageopacity="0.0"
     inkscape:pagecheckerboard="0"
     inkscape:deskcolor="#d1d1d1"
     showgrid="true"><inkscape:grid
       id="grid1"
       units="px"
       originx="0"
       originy="0"
       spacingx="1"
       spacingy="1"
       empcolor="#0099e5"
       empopacity="0.30196078"
       color="#0099e5"
       opacity="0.14901961"
       empspacing="5"
       dotted="false"
       gridanglex="30"
       gridanglez="30"
       visible="true" /></sodipodi:namedview><defs
     id="defs3051"><style
       type="text/css"
       id="current-color-scheme">
      .ColorScheme-Text {
        color:#232629;
      }
      </style><style
       type="text/css"
       id="current-color-scheme-3">
      .ColorScheme-Text {
        color:#232629;
      }
      </style></defs><path
     id="path1"
     style="opacity:0.4;fill:currentColor"
     class="ColorScheme-Text"
     d="M 6.0253906,4 C 4.9029273,4 4,4.9029273 4,6.0253906 V 23.974609 C 4,25.097073 4.9029273,26 6.0253906,26 H 15 23.974609 C 25.097073,26 26,25.097073 26,23.974609 V 6.0253906 C 26,4.9029267 25.097073,4 23.974609,4 H 15 Z m 0,1 H 15 23.974609 C 24.560806,5 25,5.4391952 25,6.0253906 V 23.974609 C 25,24.560808 24.560805,25 23.974609,25 H 15 6.0253906 C 5.4391953,25 5,24.560808 5,23.974609 V 6.0253906 C 5,5.4391951 5.4391951,5 6.0253906,5 Z M 7,6 C 6.4536406,6 6,6.4536406 6,7 v 10 c 0,0.529223 0.4512978,1 1,1 h 1 v 1 c 0,0.558666 0.468075,1 1,1 h 2 v 2 c 0,0.546357 0.453642,1 1,1 h 3 3 c 0.546358,0 1,-0.453643 1,-1 v -2 h 2 c 0.531925,0 1,-0.441334 1,-1 v -1 h 1 c 0.548702,0 1,-0.470777 1,-1 V 7 C 24,6.4536405 23.546359,6 23,6 h -8 z m 0,1 h 8 8 v 10 h -1 c -0.545821,0 -1,0.480947 -1,1 v 1 h -2 c -0.546358,0 -1,0.453643 -1,1 v 2 h -3 -3 v -2 c 0,-0.546357 -0.453642,-1 -1,-1 H 9 V 18 C 9,17.480947 8.545821,17 8,17 H 7 Z" /><path
     id="path6"
     style="opacity:0.4;fill:currentColor"
     class="ColorScheme-Text"
     d="M 9.5,8 C 9.223001,8 9,8.2230009 9,8.5 v 3 C 9,11.776999 9.223001,12 9.5,12 9.776999,12 10,11.776999 10,11.5 v -3 C 10,8.2230009 9.776999,8 9.5,8 Z m 3,0 C 12.223,8 12,8.2230009 12,8.5 v 3 c 0,0.276999 0.223,0.5 0.5,0.5 0.277,0 0.5,-0.223001 0.5,-0.5 v -3 C 13,8.2230009 12.777,8 12.5,8 Z m 3,0 C 15.223,8 15,8.2230009 15,8.5 v 3 c 0,0.276999 0.223,0.5 0.5,0.5 0.277,0 0.5,-0.223001 0.5,-0.5 v -3 C 16,8.2230009 15.777,8 15.5,8 Z m 3,0 C 18.223,8 18,8.2230009 18,8.5 v 3 c 0,0.276999 0.223,0.5 0.5,0.5 0.277,0 0.5,-0.223001 0.5,-0.5 v -3 C 19,8.2230009 18.777,8 18.5,8 Z m 3,0 C 21.223001,8 21,8.2230009 21,8.5 v 3 c 0,0.276999 0.223001,0.5 0.5,0.5 0.276999,0 0.5,-0.223001 0.5,-0.5 v -3 C 22,8.2230009 21.776999,8 21.5,8 Z"
     sodipodi:nodetypes="sssssssssssssssssssssssssssssssssss" /><g
     id="g1"
     transform="translate(8,7.025391)"><path
       id="path1-7"
       style="fill:currentColor"
       class="ColorScheme-Text"
       d="m 14.678906,13.166211 c -0.127809,0 -0.255581,0.04855 -0.353515,0.146485 -0.195868,0.195868 -0.195868,0.511162 0,0.707031 l 2.467578,2.467578 -2.467578,2.467578 c -0.195868,0.195869 -0.195868,0.511163 0,0.707031 0.195868,0.195868 0.511162,0.195868 0.707031,0 L 17.5,17.194336 l 2.467578,2.467578 c 0.195869,0.195868 0.511163,0.195868 0.707031,0 0.195868,-0.195868 0.195868,-0.511162 0,-0.707031 l -2.467578,-2.467578 2.467578,-2.467578 c 0.195868,-0.195869 0.195868,-0.511163 0,-0.707031 -0.195868,-0.195868 -0.511162,-0.195868 -0.707031,0 L 17.5,15.780274 15.032422,13.312696 c -0.09793,-0.09793 -0.225706,-0.146485 -0.353516,-0.146485 z" /></g></svg>
