<svg width="32" height="32" version="1.1" xml:space="preserve" xmlns="http://www.w3.org/2000/svg" xmlns:xlink="http://www.w3.org/1999/xlink"><defs><style id="current-color-scheme" type="text/css">.ColorScheme-Text {
                color:#232629;
            }</style></defs><path d="m14.652 3.1484c-2.5449.07451-5.0568.99605-7.0469 2.584-1.9907 1.5881-3.4464 3.8334-4.084 6.2988-.63756 2.4654-.45365 5.1362.51758 7.4902.97119 2.3537 2.7239 4.3792 4.9141 5.6777 2.1537 1.2769 4.7174 1.8349 7.209 1.5898 1.4302-.03328 2.0937-1.1367 2.7734-2.2129l2.9199-5.8418c.35476-.70952 1.0882-1.0723 1.7676-1.0723.67942 0 1.4128.36274 1.7676 1.0723l.24609.49414c.2735.09525.47402-.0649.60156-.48047.79122-2.3752.81456-4.9997.04687-7.3828-.78066-2.4235-2.3656-4.58-4.4453-6.0488-2.0794-1.4689-4.6427-2.2422-7.1875-2.168zm4.2871 1.6719c.06538-.00122.1328.010687.19727.037109 1.5672.64178 2.974 1.6433 4.0918 2.916.18365.20956.15803.52938-.05664.70703l-4.8418 3.9922c-.1964.16208-.48376.14856-.66406-.03125-.31701-.34643-.73657-.56193-1.1309-.80273-.22858-.1118-.33504-.37878-.24609-.61719l2.1973-5.8809c.07372-.19558.25698-.31664.45312-.32031zm-3.9395 7.3555c1.5599-4e-4 2.8246 1.2643 2.8242 2.8242 4e-4 1.5599-1.2643 2.8246-2.8242 2.8242-1.5599 4e-4-2.8246-1.2643-2.8242-2.8242-4e-4-1.5599 1.2643-2.8246 2.8242-2.8242zm-2.8885 5.2304c.27041.13613.32221.47563 1.3262.9668.22858.1118.33504.37878.24609.61719l-2.1973 5.8809c-.09829.26078-.39253.38889-.65039.2832-1.5672-.64206-2.9741-1.6433-4.0919-2.916-.18365-.20956-.15803-.52938.056641-.70703l4.7988-3.9551c.1998-.18787.3827-.21449.51186-.16996z" fill="#ff0106" fill-rule="evenodd" opacity=".3" stroke-linecap="round" stroke-linejoin="round" style="paint-order:fill markers stroke"/><path class="ColorScheme-Text" d="m16.344 27.277a12.351 12.351 0 01-12.761-7.5671 12.351 12.351 0 013.7133-14.364 12.351 12.351 0 0114.83-.43439 12.351 12.351 0 014.5477 14.122" fill="none" stroke="currentColor" stroke-linecap="round" stroke-linejoin="round" style="paint-order:fill markers stroke"/><circle id="circle2" class="ColorScheme-Text" cx="15" cy="15" r="2.3015" fill="none" stroke="currentColor" stroke-linecap="round" stroke-linejoin="round" stroke-width=".7" style="paint-order:fill markers stroke"/><path class="ColorScheme-Text" d="m18.949 5.3145-2.1973 5.8809 1.2617.89845 4.8438-3.9941c-1.0669-1.2147-2.4121-2.1725-3.9082-2.7852zm-6.9902 12.604-4.8437 3.9941c1.0669 1.2147 2.4121 2.1725 3.9082 2.7852l2.1973-5.8809c-.50392-.19459-.86597-.55252-1.2617-.89845-2e-5 1.7e-5-4e-5 3.3e-5-6e-5 5e-5z" fill="none" opacity=".39238" stroke="currentColor" stroke-linecap="round" stroke-linejoin="round" stroke-width=".7" style="paint-order:fill markers stroke"/><g transform="translate(.12312 1)"><path class="ColorScheme-Text" d="m23.5 17.639c-.3586 0-.71731.1768-.89453.53125l-4.1055 8.2129c-.36234.72469.18978 1.6172 1 1.6172h8c.81022 0 1.3623-.8925 1-1.6172l-4.1055-8.2129c-.17722-.35445-.53593-.53125-.89453-.53125zm0 .97852 4.1055 8.2129c.048587.097176.003176.16992-.10547.16992h-8c-.10864 0-.15406-.07275-.10547-.16992zm-.037109 2.3828c-.25852 0-.46289.2248-.46289.48633v2.0273c0 .26997.21636.48633.48633.48633h.02734c.26997 0 .48633-.21636.48633-.48633v-2.0273c3e-6-.26997-.21636-.48633-.48633-.48633h-.02734zm0 4c-.25819.013-.46289.2248-.46289.48633v.02734c0 .26997.21636.48633.48633.48633h.02734c.26997 0 .48633-.21636.48633-.48633v-.02734c3e-6-.26997-.21636-.48633-.48633-.48633h-.02734c-.0084 0-.01511-.000419-.02344 0z" fill="currentColor"/></g><g transform="translate(.12312 1)" fill="#f00" opacity=".4"><path d="m23.5 17.639c-.3586 0-.71731.1768-.89453.53125l-4.1055 8.2129c-.36234.72469.18978 1.6172 1 1.6172h8c.81022 0 1.3623-.8925 1-1.6172l-4.1055-8.2129c-.17722-.35445-.53593-.53125-.89453-.53125zm0 .97852 4.1055 8.2129c.048587.097176.003176.16992-.10547.16992h-8c-.10864 0-.15406-.07275-.10547-.16992zm-.037109 2.3828c-.25852 0-.46289.2248-.46289.48633v2.0273c0 .26997.21636.48633.48633.48633h.02734c.26997 0 .48633-.21636.48633-.48633v-2.0273c3e-6-.26997-.21636-.48633-.48633-.48633h-.02734zm0 4c-.25819.013-.46289.2248-.46289.48633v.02734c0 .26997.21636.48633.48633.48633h.02734c.26997 0 .48633-.21636.48633-.48633v-.02734c3e-6-.26997-.21636-.48633-.48633-.48633h-.02734c-.0084 0-.01511-.000419-.02344 0z"/></g><use xlink:href="#circle2"/></svg>
