<?xml version="1.0" encoding="UTF-8" standalone="no"?>
<svg
   width="32"
   height="32"
   version="1.1"
   xml:space="preserve"
   id="svg4"
   sodipodi:docname="pamac-tray-update.svg"
   inkscape:version="1.4.3 (0d15f75042, 2025-12-25)"
   xmlns:inkscape="http://www.inkscape.org/namespaces/inkscape"
   xmlns:sodipodi="http://sodipodi.sourceforge.net/DTD/sodipodi-0.dtd"
   xmlns="http://www.w3.org/2000/svg"
   xmlns:svg="http://www.w3.org/2000/svg"><sodipodi:namedview
     id="namedview4"
     pagecolor="#505050"
     bordercolor="#eeeeee"
     borderopacity="1"
     inkscape:showpageshadow="0"
     inkscape:pageopacity="0"
     inkscape:pagecheckerboard="0"
     inkscape:deskcolor="#505050"
     inkscape:zoom="18.564842"
     inkscape:cx="16.024914"
     inkscape:cy="15.997982"
     inkscape:current-layer="svg4" /><defs
     id="defs1"><style
       id="current-color-scheme"
       type="text/css">.ColorScheme-Text {
                color:#232629;
            }</style></defs><path
     class="ColorScheme-Text"
     d="m 23.704,14.875 c 1.5702,0.41708 3.0043,1.3411 4.0436,2.6995 2.0339,2.6587 2.0663,6.3415 0.07961,9.0356 -1.9869,2.6942 -5.5149,3.7513 -8.6558,2.5933 -1.3212,-0.48707 -2.4402,-1.3168 -3.2756,-2.3633"
     fill="none"
     stroke="currentColor"
     stroke-linecap="round"
     stroke-linejoin="round"
     style="paint-order:fill markers stroke"
     id="path1" /><g
     transform="matrix(1.3677 0 0 1.3677 .50718 .60883)"
     fill="#f00"
     fill-opacity=".50485"
     fill-rule="evenodd"
     opacity=".6"
     stroke="#f00"
     stroke-linecap="round"
     stroke-linejoin="round"
    id="g4"
    class="ColorScheme-Text"
    style="stroke:currentColor;stroke-opacity:1;opacity:1;fill:none"><path
       transform="matrix(1.1019 0 0 1.1019 -4.8251 -4.5687)"
       d="m7.555 20h10.89a1.5791 1.5791 121.72 001.4124-2.2853l-5.7147-11.429a1.2775 1.2775 0 00-2.2853 0l-5.7147 11.429a1.5791 1.5791 58.283 001.4124 2.2853z"
       opacity="1"
       stroke-width=".66353"
      style="paint-order:fill markers stroke;stroke:currentColor;stroke-opacity:1;fill:none"
       id="path2" /><path
       d="m9.5 5.4v6"
       opacity="1"
       stroke-width=".73116"
      style="paint-order:fill markers stroke;stroke:currentColor;stroke-opacity:1;fill:none"
       id="path3" /><path
       d="m9.5 14.5v.5"
       opacity="1"
       stroke-width=".73116"
      style="paint-order:fill markers stroke;stroke:currentColor;stroke-opacity:1;fill:none"
       id="path4" /></g><ellipse
     class="ColorScheme-Text"
     transform="matrix(-0.9659231,0.2588292,-0.25881106,-0.96592797,0,0)"
     cx="-15.300525"
     cy="-27.026735"
     rx="2.3115821"
     ry="2.3117452"
     fill="none"
     stroke="currentColor"
     stroke-linecap="round"
     stroke-linejoin="round"
     stroke-width="0.7"
     style="paint-order:fill markers stroke"
     id="ellipse4" /><ellipse
     class="ColorScheme-Text"
     transform="matrix(-0.9659231,0.2588292,-0.25881106,-0.96592797,0,0)"
     cx="-15.300525"
     cy="-27.026735"
     rx="2.3115821"
     ry="2.3117452"
     fill="none"
     stroke="currentColor"
     stroke-linecap="round"
     stroke-linejoin="round"
     stroke-width="0.7"
     style="paint-order:fill markers stroke;stroke:#ff0000;stroke-opacity:1;opacity:0.6"
     id="ellipse5" /></svg>
