<svg width="32" height="32" version="1.1" xml:space="preserve" xmlns="http://www.w3.org/2000/svg"><defs><style id="current-color-scheme" type="text/css">.ColorScheme-Text {
                color:#232629;
            }</style></defs><path class="ColorScheme-Text" d="m23.304 14.675c1.5702.41708 3.0043 1.3411 4.0436 2.6995 2.0339 2.6587 2.0663 6.3415.07961 9.0356-1.9869 2.6942-5.5149 3.7513-8.6558 2.5933-1.3212-.48707-2.4402-1.3168-3.2756-2.3633" fill="none" stroke="currentColor" stroke-linecap="round" stroke-linejoin="round" style="paint-order:fill markers stroke"/><g transform="matrix(1.3677 0 0 1.3677 .50718 .60883)" fill="#f00" fill-opacity=".50485" fill-rule="evenodd" opacity=".6" stroke="#f00" stroke-linecap="round" stroke-linejoin="round"><path transform="matrix(1.1019 0 0 1.1019 -4.8251 -4.5687)" d="m7.555 20h10.89a1.5791 1.5791 121.72 001.4124-2.2853l-5.7147-11.429a1.2775 1.2775 0 00-2.2853 0l-5.7147 11.429a1.5791 1.5791 58.283 001.4124 2.2853z" opacity="1" stroke-width=".66353" style="paint-order:fill markers stroke"/><path d="m9.5 5.4v6" opacity="1" stroke-width=".73116" style="paint-order:fill markers stroke"/><path d="m9.5 14.5v.5" opacity="1" stroke-width=".73116" style="paint-order:fill markers stroke"/></g><ellipse class="ColorScheme-Text" transform="matrix(-.96592 .25883 -.25881 -.96593 0 0)" cx="-14.966" cy="-26.73" rx="1.4017" ry="1.4018" fill="none" stroke="currentColor" stroke-linecap="round" stroke-linejoin="round" stroke-width=".7" style="paint-order:fill markers stroke"/></svg>
