<svg width="32" height="32" version="1.1" viewBox="0 0 32 32" xml:space="preserve" xmlns="http://www.w3.org/2000/svg"><defs><style id="current-color-scheme" type="text/css">.ColorScheme-Text { color:#232629; }</style><style type="text/css">.ColorScheme-Text { color:#232629; }</style></defs><g transform="matrix(1.3784 0 0 1.3783 1.0509 .67263)" fill="none" stroke="currentColor" stroke-linecap="round" stroke-linejoin="round" stroke-width=".7255"><path class="ColorScheme-Text" d="m12.701 19.464h-7.7006c-1.3807 0-2.5005-1.1193-2.5-2.5l.0022-5.8978c.000213-.57103.46291-1.0339 1.0339-1.0339h3.6514c.55284 0 1.1186-.42162 1.1186-1.0883.0006689-.66609.53596-1.0888 1.0882-1.0883h8.5441c.69036 0 1.25.55964 1.25 1.25v2.605" style="paint-order:fill markers stroke"/><path class="ColorScheme-Text" d="m2.5023 13v-7.684a1.8137 1.8137 135 011.8137-1.8137h6.2524c.55459 0 1.0025.53365 1.0025 1.0883 0 .72551.36902 1.0851 1.139 1.0883l4.9787.020714c.82842.00345 1.5.67157 1.5 1.5v3.5" style="paint-order:fill markers stroke"/></g><g fill="currentColor"><path class="ColorScheme-Text" d="m21.18 23h6.6406c.10557 0 .17969.074119.17969.17969v3.8203c0 .5582-.4418 1-1 1h-5.8203c-.10557 0-.17969-.074118-.17969-.17969v-4.6406c0-.10557.074119-.17969.17969-.17969z" opacity=".1"/><path class="ColorScheme-Text" d="m24.5 18c-1.3748 0-2.5 1.1252-2.5 2.5v1.5h-.82031c-.64601 0-1.1797.53368-1.1797 1.1797v4.6406c0 .64601.53368 1.1797 1.1797 1.1797h5.8203c1.0986 0 2-.90136 2-2v-3.8203c0-.64601-.53368-1.1797-1.1797-1.1797h-.82031v-1.5c0-1.3748-1.1252-2.5-2.5-2.5zm0 1c.83435 0 1.5.66565 1.5 1.5v1.5h-3v-1.5c0-.83435.66565-1.5 1.5-1.5zm-3.3203 4h6.6406c.10557 0 .17969.074119.17969.17969v3.8203c0 .5582-.4418 1-1 1h-5.8203c-.10557 0-.17969-.074118-.17969-.17969v-4.6406c0-.10557.074119-.17969.17969-.17969z"/></g></svg>
