<svg width="32" height="32" version="1.1" viewBox="0 0 32 32" xmlns="http://www.w3.org/2000/svg">
 <defs>
  <style id="current-color-scheme" type="text/css">.ColorScheme-Text {
          color:#232629;
        }</style>
 </defs>
 <path id="menu" class="ColorScheme-Text" d="m11.148 17.169a1.3305 1.3305 0 00-1.3305 1.3305 1.3305 1.3305 0 001.3305 1.3305 1.3305 1.3305 0 001.3305-1.3305 1.3305 1.3305 0 00-1.3305-1.3305zm5.3221 0a1.3305 1.3305 0 00-1.3305 1.3305 1.3305 1.3305 0 001.3305 1.3305 1.3305 1.3305 0 001.3305-1.3305 1.3305 1.3305 0 00-1.3305-1.3305zm5.3221 0a1.3305 1.3305 0 00-1.3305 1.3305 1.3305 1.3305 0 001.3305 1.3305 1.3305 1.3305 0 001.3305-1.3305 1.3305 1.3305 0 00-1.3305-1.3305z" fill="currentColor"/>
 <path class="ColorScheme-Text" d="m5.1727 5.5h22.655c.92668 0 1.6727.74603 1.6727 1.6727v13.655c0 .92668-.74603 1.6727-1.6727 1.6727h-22.655c-.92668 0-1.6727-.74603-1.6727-1.6727v-13.655c0-.92668.74603-1.6727 1.6727-1.6727z" fill="none" stroke="currentColor" stroke-linecap="round" stroke-linejoin="round" style="paint-order:fill markers stroke"/>
 <path class="ColorScheme-Text" d="m16.5 22.5v4m3 0h-6" fill="none" stroke="currentColor" stroke-linecap="round" stroke-linejoin="round" style="paint-order:fill markers stroke"/>
</svg>
