<?xml version="1.0" encoding="UTF-8"?>
<svg xmlns="http://www.w3.org/2000/svg" width="32" height="32" version="1.1" viewBox="0 0 32 32">
  <defs>
    <style id="current-color-scheme" type="text/css">.ColorScheme-Text { color:#232629; }</style>
  </defs>
  <path id="smartphone" class="ColorScheme-Text" d="m9.6445 4c-0.90192 0-1.6445 0.74261-1.6445 1.6445v4.3555h-2a3 3 135 0 0-3 3v9a2 2 45 0 0 2 2h3v2.3555c0 0.90192 0.74261 1.6445 1.6445 1.6445h12.711c0.90192 0 1.6445-0.74261 1.6445-1.6445v-2.3555h3a2 2 135 0 0 2-2v-9a3 3 45 0 0-3-3h-2v-4.3555c0-0.90192-0.74261-1.6445-1.6445-1.6445zm0 1h12.711c0.36148 0 0.64453 0.28305 0.64453 0.64453v4.3555h-14v-4.3555c0-0.36148 0.28305-0.64453 0.64453-0.64453zm-3.6445 6h20a2 2 45 0 1 2 2v9a1 1 135 0 1-1 1h-1v-4.7578c0-0.67988-0.56231-1.2422-1.2422-1.2422h-17.516c-0.67988 0-1.2422 0.56231-1.2422 1.2422v4.7578h-1a1 1 45 0 1-1-1v-9a2 2 135 0 1 2-2zm0.5 1.5c-0.55228 0-1 0.44772-1 1s0.44772 1 1 1 1-0.44772 1-1-0.44772-1-1-1zm0.74219 5.5h17.516c0.13944 0 0.24219 0.10274 0.24219 0.24219v4.7578h-1v-2.5c0-0.27641-0.22536-0.5-0.5-0.5h-15c-0.27465 0-0.5 0.22275-0.5 0.5v2.5h-1v-4.7578c0-0.13944 0.10275-0.24219 0.24219-0.24219zm1.7578 3h14v5.3555c0 0.36148-0.28305 0.64453-0.64453 0.64453h-12.711c-0.36148 0-0.64453-0.28305-0.64453-0.64453v-3.3555z" fill="currentColor"/>
  <path class="ColorScheme-Text" d="m6 23v-4.7578c-3e-7 -0.13376 0.10843-0.24219 0.24219-0.24219h19.516c0.13376 0 0.24219 0.10843 0.24219 0.24219v4.7578h-3v-2.5c0-0.27614-0.22386-0.5-0.5-0.5h-13c-0.27614 0-0.5 0.22386-0.5 0.5v2.5z" fill="currentColor" opacity=".2"/>
</svg>
