<svg width="32" height="32" version="1.1" xmlns="http://www.w3.org/2000/svg">
 <defs>
  <style id="current-color-scheme" type="text/css">.ColorScheme-Text { color:#232629; }
   .question-stroke { fill:none; stroke:currentColor; stroke-linecap:round; stroke-linejoin:round; paint-order:fill markers stroke; }</style>
 </defs>
 <path class="ColorScheme-Text question-stroke" d="m18.493 25.553v.8837c0 1.1336-.92916 2.0526-2.0754 2.0526h-.83455c-1.1462 0-2.0754-.91895-2.0754-2.0526v-1.748c0-.65283.5351-1.182 1.1952-1.182h2.5948c.66009 4e-6 1.1964-.52922 1.1952-1.182l-.0024-1.3459c0-1.9785 1.0223-3.2648 2.4144-4.3723 2.019-1.6062 2.5682-3.6062 2.5682-5.5868 0-4.1248-3.2197-7.5194-7.4092-7.5194-4.1895-9e-7-7.5388 3.3947-7.5388 7.5194v.03036c1e-7 1.0474.84905 1.8964 1.8964 1.8964 1.031-.01624 1.8534-.86543 1.8367-1.8964l-1.5e-5-.03036c.0086-2.0557 1.682-3.7152 3.7348-3.7115 2.0528.00369 3.7166 1.6503 3.7196 3.3649.003 1.7146-.85394 2.8225-1.8008 3.7092-.01848.01731-.04861.04528-.06718.0626-1.1229 1.048-2.3458 2.2611-2.3458 4.364v2.6913"/>
 <path class="ColorScheme-Text question-stroke" d="m13.508 21.479-.001403-.47879c-.004874-1.6625-1.2123-3.316-2.5121-4.3444-.33719-.26906-.63918-.55731-.90637-.86347-.24631-.28223-.46304-.5797-.65054-.89141" opacity=".65"/>
</svg>
