<?xml version="1.0"?>
<svg xmlns="http://www.w3.org/2000/svg" width="32" height="32" version="1.1" viewBox="0 0 32 32" xml:space="preserve">
  <defs>
    <style id="current-color-scheme" type="text/css">.ColorScheme-Text { color:#232629; }</style>
    <style type="text/css">
            .ColorScheme-Text {
                color:#232629;
            }
        </style>
  </defs>
  <g transform="matrix(1.3122 0 0 1.3121 1.6249 1.6309)" stroke-width=".76212">
    <path class="ColorScheme-Text" d="m14.384 13.543v.31844c0 .70779.62203 1.2816 1.3298 1.2816h.43687c.70779 0 1.2816-.57378 1.2816-1.2816v-1.029c0-.40762-.33044-.73805-.73805-.73805h-1.5722c-.40762 0-.73805-.33044-.73805-.73805v-.84036c0-.89852-.36012-1.7483-1.0618-2.3096-.88323-.71261-1.3946-1.7881-1.3899-2.9229v-.19904c0-2.2036 1.7864-3.99 3.99-3.99h.02001c2.2036 0 3.99 1.7864 3.99 3.99v.19904c0 1.1446-.52031 2.2272-1.4141 2.9423-.69104.55886-1.0906 1.4015-1.0859 2.2903v.17842" fill="none" stroke="currentColor" stroke-linecap="round" stroke-linejoin="round" stroke-width=".76212" style="paint-order:fill markers stroke"/>
  </g>
  <g class="ColorScheme-Text" fill="none" stroke="currentColor" stroke-linecap="round" stroke-linejoin="round">
    <path d="m19.105 21.465c-.90208.50329-1.9431.78971-3.0534.78971-3.4652 0-6.2549-2.7897-6.2549-6.2549 0-3.2146 2.4007-5.8478 5.5144-6.212" style="paint-order:fill markers stroke"/>
    <g>
      <path d="m12.702 3.5 1.0048 3.75" style="paint-order:fill markers stroke"/>
      <path d="m18.396 24.75 1.0048 3.75" style="paint-order:fill markers stroke"/>
      <path d="m13.707 24.75-1.0048 3.75" style="paint-order:fill markers stroke"/>
      <path d="m9.6457 22.405-2.7452 2.7452" style="paint-order:fill markers stroke"/>
      <path d="m7.3011 18.345-3.75 1.0048" style="paint-order:fill markers stroke"/>
      <path d="m28.551 19.349-1.875-.5024" style="paint-order:fill markers stroke"/>
      <path d="m7.3011 13.655-3.75-1.0048" style="paint-order:fill markers stroke"/>
      <path d="m25.202 25.151-1.1762-1.1762" style="paint-order:fill markers stroke"/>
      <path d="m9.6457 9.5946-2.7452-2.7452" style="paint-order:fill markers stroke"/>
    </g>
  </g>
</svg>
