<?xml version="1.0" encoding="UTF-8"?>
<svg width="32" height="32" version="1.1" xmlns="http://www.w3.org/2000/svg">
 <defs>
  <style id="current-color-scheme" type="text/css">.ColorScheme-Text {
                color:#232629;
		fill: none;
		stroke: currentColor;
		stroke-linecap: round;
		stroke-linejoin: round;
		stroke-width: 1.2;
		stroke-dasharray: none;
            }</style>
 </defs>
 <g class="ColorScheme-Text" transform="rotate(29.999 4.136 27.046)">
  <path d="m11.449 14.612a1.5 1.5 0 0 1-0.61553 1.6354 1.5 1.5 0 0 1-1.7465-0.057174 1.5 1.5 0 0 1-0.50725-1.6722 1.5 1.5 0 0 1 1.4204-1.0178"/>
  <path d="m10 5.7499-1.8e-5 7.7501"/>
 </g>
 <path class="ColorScheme-Text" d="m5.351 25.374a13 13 0 0 1 2.0066-17.168 13 13 0 0 1 17.285-1e-7 13 13 0 0 1 2.0066 17.168"/>
</svg>
