<?xml version="1.0" encoding="UTF-8" standalone="no"?>
<svg
   version="1.1"
   viewBox="0 0 32 32"
   id="svg1"
   width="32"
   height="32"
   xmlns="http://www.w3.org/2000/svg"
   xmlns:svg="http://www.w3.org/2000/svg">
  <defs
     id="defs1">
    <style
       id="current-color-scheme"
       type="text/css">
        .ColorScheme-Text {
          color:#232629;
        }
      </style>
  </defs>
  <path
     id="smartphone"
     style="fill:currentColor"
     class="ColorScheme-Text"
     d="M 5,4.5729415 V 27.427058 A 2.5729415,2.5729415 45 0 0 7.5729415,30 H 24.427058 A 2.5729415,2.5729415 135 0 0 27,27.427058 V 4.5729415 A 2.5729415,2.5729415 45 0 0 24.427058,2 H 7.5729415 A 2.5729415,2.5729415 135 0 0 5,4.5729415 Z M 7.5729415,3 H 24.427058 A 1.5729415,1.5729415 45 0 1 26,4.5729415 V 27.427058 A 1.5729415,1.5729415 135 0 1 24.427058,29 H 7.5729415 A 1.5729415,1.5729415 45 0 1 6,27.427058 V 4.5729415 A 1.5729415,1.5729415 135 0 1 7.5729415,3 Z M 8.5,27 C 8.2230003,27 8,27.223 8,27.5 8,27.777 8.2230003,28 8.5,28 h 15 C 23.777,28 24,27.777 24,27.5 24,27.223 23.777,27 23.5,27 Z" />
</svg>
