<?xml version="1.0" encoding="UTF-8" standalone="no"?>
<svg
   version="1.1"
   viewBox="0 0 32 32"
   id="svg1"
   width="32"
   height="32"
   xmlns="http://www.w3.org/2000/svg"
   xmlns:svg="http://www.w3.org/2000/svg">
  <defs
     id="defs1" />
  <style
     id="current-color-scheme"
     type="text/css">
        .ColorScheme-Text {
          color:#232629;
        }
      </style>
  <path
     id="path1"
     style="fill:currentColor; opacity:0.4"
     class="ColorScheme-Text"
     d="M 11.951172 3.0019531 C 11.323157 3.0019531 10.695011 3.2405144 10.21875 3.7167969 L 4.703125 9.2324219 C 3.750605 10.184988 3.750604 11.744701 4.703125 12.697266 C 5.518067 13.512246 6.7246717 13.483851 7.6679688 12.904297 L 11.929688 17.164062 L 12.636719 16.457031 L 8.1679688 11.990234 C 7.9727038 11.795048 7.6562025 11.795048 7.4609375 11.990234 C 6.8905575 12.560644 5.9805392 12.560644 5.4101562 11.990234 C 4.8397733 11.419825 4.8397723 10.509864 5.4101562 9.9394531 L 10.925781 4.4238281 C 11.496164 3.8534192 12.40618 3.8534192 12.976562 4.4238281 C 13.546943 4.994237 13.546943 5.9042006 12.976562 6.4746094 C 12.781378 6.6698739 12.781377 6.9863761 12.976562 7.1816406 L 17.443359 11.650391 L 18.150391 10.943359 L 13.890625 6.6816406 C 14.470284 5.738293 14.49859 4.5318308 13.683594 3.7167969 C 13.207333 3.2405144 12.579187 3.0019531 11.951172 3.0019531 z M 21.525391 9.8984375 C 21.019773 9.9137927 20.518047 10.083951 20.099609 10.408203 C 20.097748 10.409646 20.095608 10.410661 20.09375 10.412109 L 18.150391 12.357422 L 18.490234 12.697266 C 18.685499 12.892452 19.002001 12.892452 19.197266 12.697266 L 20.576172 11.318359 C 21.146555 10.74795 22.05657 10.74795 22.626953 11.318359 L 23.652344 12.34375 L 22.117188 13.878906 C 21.260298 14.735836 20.734542 15.805725 20.546875 16.917969 C 20.500971 17.19035 20.684631 17.448351 20.957031 17.494141 C 21.229412 17.540045 21.487413 17.356384 21.533203 17.083984 C 21.687612 16.168854 22.116621 15.293567 22.824219 14.585938 L 24.712891 12.697266 C 24.908077 12.502001 24.908077 12.185499 24.712891 11.990234 L 23.333984 10.611328 C 22.838657 10.115979 22.178362 9.8786072 21.525391 9.8984375 z M 13.34375 17.164062 L 11.398438 19.109375 C 10.65081 20.068381 10.717053 21.467011 11.597656 22.347656 L 12.976562 23.726562 C 13.171826 23.921747 13.48833 23.921747 13.683594 23.726562 L 15.572266 21.837891 C 17.383484 20.026591 20.305972 20.026592 22.117188 21.837891 L 28.142578 27.863281 C 28.337831 28.058494 28.654356 28.058494 28.849609 27.863281 C 29.044822 27.668028 29.044822 27.351503 28.849609 27.15625 L 22.824219 21.130859 C 20.630865 18.937404 17.05859 18.937405 14.865234 21.130859 L 13.330078 22.666016 L 12.304688 21.640625 C 11.734302 21.070213 11.734303 20.160254 12.304688 19.589844 L 13.683594 18.210938 C 13.87878 18.015672 13.87878 17.699171 13.683594 17.503906 L 13.34375 17.164062 z " />
  
    <path
       style="fill:currentColor"
      class="ColorScheme-Text"   
       d="M 27.246094,3.2460938 4.2460937,26.246094 a 0.5,0.5 0 0 0 0,0.707031 0.5,0.5 0 0 0 0.7070313,0 l 23,-23 a 0.5,0.5 0 0 0 0,-0.7070312 0.5,0.5 0 0 0 -0.707031,0 z"
       id="path3" />
  

</svg>
