<?xml version="1.0" encoding="UTF-8" standalone="no"?>
<svg
   version="1.1"
   viewBox="0 0 32 32"
   id="svg1"
   width="32"
   height="32"
   xmlns="http://www.w3.org/2000/svg"
   xmlns:svg="http://www.w3.org/2000/svg">

    <style
       id="current-color-scheme"
       type="text/css">
        .ColorScheme-Text {
          color:#232629;
        }
      </style>

  <path

     style="fill:currentColor"
     class="ColorScheme-Text"
     d="m 21.033203,3.0019531 c -0.628015,0 -1.256161,0.2385613 -1.732422,0.7148438 -0.814996,0.8150339 -0.78669,2.0214961 -0.207031,2.9648437 l -4.953125,4.9550784 -1.025391,-1.025391 c -0.952521,-0.9525644 -2.512322,-0.9525644 -3.4648434,0 l -1.3789062,1.378906 c -0.1951858,0.195265 -0.1951858,0.511767 0,0.707032 l 1.8886716,1.888672 c 0.707598,0.707629 1.136607,1.582916 1.291016,2.498046 0.04579,0.2724 0.303791,0.456061 0.576172,0.410157 0.2724,-0.04579 0.45606,-0.303791 0.410156,-0.576172 -0.187667,-1.112244 -0.713422,-2.182133 -1.570312,-3.039063 L 9.3320312,12.34375 10.357422,11.318359 c 0.570383,-0.570409 1.480398,-0.570409 2.050781,0 l 1.378906,1.378907 c 0.195265,0.195186 0.511767,0.195186 0.707032,0 l 5.513671,-5.5156254 c 0.195185,-0.1952645 0.195185,-0.5117667 0,-0.7070312 -0.570381,-0.5704088 -0.570381,-1.4803724 0,-2.0507813 0.570383,-0.5704089 1.480399,-0.5704089 2.050782,0 l 5.515625,5.515625 c 0.570384,0.5704109 0.570383,1.4803719 0,2.0507809 -0.570383,0.57041 -1.480401,0.57041 -2.050781,0 -0.195265,-0.195186 -0.511767,-0.195186 -0.707032,0 l -5.515625,5.513672 c -0.195186,0.195265 -0.195186,0.511767 0,0.707032 l 1.378907,1.378906 c 0.570385,0.57041 0.570385,1.480369 0,2.050781 l -1.025391,1.025391 -1.535156,-1.535157 c -2.193356,-2.193454 -5.765631,-2.193455 -7.958985,0 L 4.1347656,27.15625 c -0.1952127,0.195253 -0.1952127,0.511778 0,0.707031 0.1952531,0.195213 0.5117782,0.195213 0.7070313,0 l 6.0253911,-6.02539 c 1.811215,-1.811299 4.733703,-1.8113 6.544921,0 l 1.888672,1.888671 c 0.195264,0.195185 0.511767,0.195185 0.707031,0 l 1.378907,-1.378906 c 0.952521,-0.952566 0.952521,-2.512277 0,-3.464844 l -1.025391,-1.02539 4.955078,-4.953125 c 0.943297,0.579554 2.149902,0.607949 2.964844,-0.207031 0.952521,-0.952565 0.95252,-2.512278 0,-3.4648441 L 22.765625,3.7167969 C 22.289364,3.2405144 21.661218,3.0019531 21.033203,3.0019531 Z" />
</svg>
