<?xml version="1.0" encoding="UTF-8" standalone="no"?>
<svg
   width="32"
   height="32"
   version="1.1"
   xmlns="http://www.w3.org/2000/svg">
  <defs>
    <style type="text/css" id="current-color-scheme">.ColorScheme-Text {
                color:#232629;
            }</style>
  </defs>
  <path
     class="ColorScheme-Text"
     d="m 19.081,18.583 c -0.40915,1.2339 0.53462,2.7099 1.3584,3.858 0.65198,0.9086 0.929,2.6413 0.74741,3.7574 -0.25277,1.5535 -0.60141,2.9362 -1.3915,3.1625 -1.8099,0.51839 -5.2406,-4.4 -7.0317,-4.9799 -1.6722,-0.5414 -7.0621,1.5556 -8.0446,0.09859 -1.0524,-1.5606 2.5664,-6.3424 2.5646,-8.2245 -0.00169,-1.7572 -3.6622,-6.2338 -2.5797,-7.6182 1.1594,-1.4829 6.8268,0.4802 8.6167,-0.10312 1.6711,-0.54459 4.7987,-5.4083 6.4503,-4.8069 1.769,0.64411 1.6528,6.6391 2.7608,8.1608 1.0345,1.4206 6.6279,2.8913 6.5662,4.6474 -0.05493,1.562703 -4.669689,2.91493 -6.001256,4.354882"
     fill="none"
     stroke="currentColor"
     stroke-linecap="round"
     stroke-linejoin="round"
     style="paint-order:fill markers stroke" />
</svg>
