<?xml version="1.0" encoding="UTF-8" standalone="no"?>
<svg xmlns="http://www.w3.org/2000/svg" xmlns:svg="http://www.w3.org/2000/svg" height="24" width="24" version="1.1" id="svg1" viewBox="0 0 24 24">
  <defs id="defs1">
    <style type="text/css" id="current-color-scheme">
            .ColorScheme-Text {
                color:#232629;
            }
        </style>
  </defs>
  <g transform="translate(1,1)">
    <path id="path1" style="fill:currentColor" class="ColorScheme-Text" d="m 11.5,18.658203 c -0.311646,0 -0.623207,-0.13062 -0.835938,-0.390625 L 4.0898438,9.2343751 C 3.0539647,7.968302 3.9872023,6 5.6230469,6 6.3713058,5.999689 7.1189646,5.9964 7.8671875,5.998 7.9460025,5.998248 8.0000014,5.946 8,5.867188 V 5.703125 C 7.9999998,4.768854 8.7688543,4 9.703125,4 h 3.59375 C 14.231146,4 15,4.768854 15,5.703125 V 5.867188 C 15,5.946715 15.05328,6 15.132812,6 h 2.244141 c 1.635845,0 2.569082,1.968302 1.533203,3.2343751 L 12.335938,18.267578 C 12.123207,18.527583 11.811646,18.658203 11.5,18.658203 Z m -0.01563,-0.988281 h 0.002 0.002 c 0.0013,-6.8e-5 0.0027,-3.6e-5 0.0039,0 0.02442,7.32e-4 0.04848,-0.0085 0.07031,-0.03516 L 18.134846,8.599609 C 18.6801,7.933103 18.238121,7 17.376953,7 H 15.132812 14.75 C 14.72454,7 14.6987,6.9987 14.67383,6.9961 h 0.365234 C 14.461851,6.947694 14,6.455707 14,5.867188 V 5.703125 C 14,5.309294 13.690706,5 13.296875,5 H 9.703125 C 9.3092945,5 8.9999999,5.309295 9,5.703125 v 0.164063 c 1.07e-5,0.596995 -0.4775544,1.094015 -1.0664062,1.128906 h 0.3925781 c -0.024874,0.00259 -0.050711,0.00391 -0.076172,0.00391 h -2.626953 c -0.8611676,0 -1.3031366,0.933103 -0.7578125,1.599609 L 11.4375,17.634765 c 0.01486,0.01816 0.03033,0.03184 0.04687,0.03516 z M 8.5,10.5 c -0.5522847,0 -1,-0.447715 -1,-0.9999999 C 7.5,8.9477151 7.9477153,8.5 8.5,8.5 c 0.5522847,0 1,0.4477151 1,1.0000001 C 9.5,10.052285 9.0522847,10.5 8.5,10.5 Z m 3,0 c -0.552285,0 -1,-0.447715 -1,-0.9999999 C 10.5,8.9477151 10.947715,8.5 11.5,8.5 c 0.552285,0 1,0.4477151 1,1.0000001 C 12.5,10.052285 12.052285,10.5 11.5,10.5 Z m 3,0 c -0.552285,0 -1,-0.447715 -1,-0.9999999 C 13.5,8.9477151 13.947715,8.5 14.5,8.5 c 0.552285,0 1,0.4477151 1,1.0000001 C 15.5,10.052285 15.052285,10.5 14.5,10.5 Z"/>
    <g id="path2" style="opacity:0.008907"/>
  </g>
</svg>
