<?xml version="1.0" encoding="UTF-8" standalone="no"?>
<svg xmlns="http://www.w3.org/2000/svg" xmlns:svg="http://www.w3.org/2000/svg" height="24" width="24" version="1.1" id="svg1" viewBox="0 0 24 24">
  <defs id="defs1">
    <style type="text/css" id="current-color-scheme">
            .ColorScheme-Text {
                color:#232629;
            }
        </style>
  </defs>
  <g transform="translate(1,1)">
    <path id="path1" style="fill:currentColor" class="ColorScheme-Text" d="m 11.5,2.3417969 c -0.311646,0 -0.623207,0.1306203 -0.835938,0.390625 L 4.0898438,11.765625 C 3.0539647,13.031698 3.9872023,15 5.6230469,15 c 0.7482589,3.11e-4 1.4959177,0.0036 2.2441406,0.002 0.078815,-2.48e-4 0.1328139,0.052 0.1328125,0.130812 v 0.164063 C 7.9999998,16.231146 8.7688543,17 9.703125,17 h 3.59375 C 14.231146,17 15,16.231146 15,15.296875 V 15.132812 C 15,15.053285 15.053284,15 15.132812,15 h 2.244141 c 1.635845,0 2.569082,-1.968302 1.533203,-3.234375 L 12.335938,2.7324219 C 12.123207,2.4724172 11.811646,2.3417969 11.5,2.3417969 Z m -0.01563,0.9882812 h 0.002 0.002 c 0.0013,6.81e-5 0.0027,3.57e-5 0.0039,0 0.02442,-7.326e-4 0.04848,0.00847 0.07031,0.035156 l 6.572266,9.0351569 C 18.6801,13.066897 18.238121,14 17.376953,14 H 15.132812 14.75 c -0.02546,0 -0.0513,0.0013 -0.07617,0.0039 h 0.365234 C 14.461851,14.052306 14,14.544293 14,15.132812 v 0.164063 C 14,15.690706 13.690706,16 13.296875,16 H 9.703125 C 9.3092945,16 8.9999999,15.690705 9,15.296875 V 15.132812 C 9.0000107,14.535817 8.5224456,14.038797 7.9335938,14.003906 H 8.3261719 C 8.3012975,14.001319 8.2754608,14 8.25,14 H 5.6230469 C 4.7618793,14 4.3199103,13.066897 4.8652344,12.400391 L 11.4375,3.3652344 c 0.01486,-0.01816 0.03033,-0.031843 0.04687,-0.035156 z M 8.5,10.5 c -0.5522847,0 -1,0.447715 -1,1 0,0.552285 0.4477153,1 1,1 0.5522847,0 1,-0.447715 1,-1 0,-0.552285 -0.4477153,-1 -1,-1 z m 3,0 c -0.552285,0 -1,0.447715 -1,1 0,0.552285 0.447715,1 1,1 0.552285,0 1,-0.447715 1,-1 0,-0.552285 -0.447715,-1 -1,-1 z m 3,0 c -0.552285,0 -1,0.447715 -1,1 0,0.552285 0.447715,1 1,1 0.552285,0 1,-0.447715 1,-1 0,-0.552285 -0.447715,-1 -1,-1 z"/>
    <g id="path2" style="opacity:0.008907"/>
  </g>
</svg>
