<?xml version="1.0" encoding="UTF-8" standalone="no"?>
<svg xmlns="http://www.w3.org/2000/svg" xmlns:svg="http://www.w3.org/2000/svg" height="24" width="24" version="1.1" id="svg1" viewBox="0 0 24 24">
  <defs id="defs1">
    <style type="text/css" id="current-color-scheme">
            .ColorScheme-Text {
                color:#232629;
            }
        </style>
  </defs>
  <g transform="translate(1,1)">
    <path id="path2" style="opacity:0.1;fill:currentColor" class="ColorScheme-Text" d="M 4,1 C 2.9186566,1 2.0000503,1.8802836 2,3 V 8.5 C 2,4.9171736 4.9171741,2 8.5,2 c 2.686858,0 4.999718,1.6410637 5.988281,3.9726562 0.174184,-1.027e-4 0.34797,7.591e-4 0.511719,0.00391 V 3 C 15,1.8954327 14.104567,1 13,1 Z M 2,8.5 V 17 c 0,1.104567 0.8954327,2 2,2 H 9.6523438 C 8.9196859,17.774531 8.3760494,16.411545 7.9707031,14.976562 4.6344016,14.706131 2,11.904569 2,8.5 Z m 2.4707031,7.408203 c 0.00503,-2.6e-4 0.010766,-6.6e-5 0.015625,0 0.00467,6.6e-5 0.00881,0 0.013672,0 0.3228507,0 0.5917969,0.268948 0.5917969,0.591797 0,0.322849 -0.2689462,0.591797 -0.5917969,0.591797 -0.3228487,0 -0.5917969,-0.268948 -0.5917969,-0.591797 0,-0.31276 0.2532573,-0.575767 0.5624999,-0.591797 z"/>
    <path id="path1" style="opacity:0.7;fill:currentColor" class="ColorScheme-Text" d="M 4 0 C 2.3431492 0 1 1.3431492 1 3 L 1 17 C 1 18.65685 2.3431492 20 4 20 L 10.316406 20 C 10.07935 19.678521 9.8584267 19.344701 9.6523438 19 L 4 19 C 2.8954327 19 2 18.104567 2 17 L 2 8.5 L 2 3 C 2 1.8954327 2.8954327 1 4 1 L 13 1 C 14.104567 1 15 1.8954327 15 3 L 15 5.9765625 C 15.114974 5.9787723 15.224871 5.9825884 15.326172 5.9863281 C 15.55898 5.9949248 15.782892 6.0073984 16 6.0234375 L 16 3 C 16 1.3431492 14.65685 0 13 0 L 4 0 z M 2 8.5 C 2 11.904654 4.6342837 14.70625 7.9707031 14.976562 C 7.8740335 14.634415 7.7847238 14.288895 7.703125 13.939453 C 5.0478869 13.552019 3 11.260665 3 8.5 C 3 5.4685734 5.4685738 3 8.5 3 C 10.630843 3 12.483717 4.2185561 13.396484 5.9960938 C 13.475803 5.9921551 13.555318 5.9893357 13.636719 5.9863281 C 13.886076 5.9771133 14.187356 5.9725828 14.488281 5.9726562 C 13.499865 3.6407345 11.187096 2 8.5 2 C 4.9171741 2 2 4.9171736 2 8.5 z M 4.4707031 15.908203 C 4.1614604 15.924233 3.9082031 16.18724 3.9082031 16.5 C 3.9082031 16.822849 4.1771513 17.091797 4.5 17.091797 C 4.8228507 17.091797 5.0917969 16.822849 5.0917969 16.5 C 5.0917969 16.177151 4.8228507 15.908203 4.5 15.908203 C 4.48995 15.908203 4.480683 15.907686 4.4707031 15.908203 z "/>
    <path id="path8" style="opacity:1;fill:currentColor" class="ColorScheme-Text" d="M 8.5 6.4355469 A 2.0643713 2.0643713 0 0 0 6.4355469 8.5 A 2.0643713 2.0643713 0 0 0 8.15625 10.535156 C 8.7146893 15.094629 10.106855 19.39237 13.541016 21.705078 C 14.120327 22.095211 14.858192 22.095359 15.4375 21.705078 C 19.191125 19.176265 20.492492 14.275167 20.943359 9.2539062 C 21.006776 8.5476893 20.538717 7.9164622 19.855469 7.7539062 C 18.15549 7.349455 16.99568 7.0766904 15.289062 7.0136719 C 14.833233 6.9968439 14.129769 6.9968229 13.673828 7.0136719 C 12.392421 7.0610175 11.418346 7.225695 10.292969 7.4765625 A 2.0643713 2.0643713 0 0 0 8.5 6.4355469 z M 8.5 7.7480469 A 0.75180209 0.75180209 0 0 1 9.2519531 8.5 A 0.75180209 0.75180209 0 0 1 8.5 9.2519531 A 0.75180209 0.75180209 0 0 1 7.7480469 8.5 A 0.75180209 0.75180209 0 0 1 8.5 7.7480469 z M 13.708984 8.0117188 C 14.125001 7.9963466 14.837978 7.9963566 15.253906 8.0117188 C 16.872132 8.0714767 17.925701 8.3222726 19.625 8.7265625 C 19.79064 8.7659765 19.961862 9.0015035 19.947266 9.1640625 C 19.507212 14.064901 18.330599 18.55155 14.878906 20.876953 C 14.734735 20.974083 14.243889 20.974113 14.099609 20.876953 C 10.952714 18.7577 9.6879296 14.844735 9.1542969 10.458984 A 2.0643713 2.0643713 0 0 0 10.564453 8.5 A 2.0643713 2.0643713 0 0 0 10.564453 8.4414062 C 11.629821 8.2042554 12.514934 8.0558353 13.708984 8.0117188 z M 15 10 L 15 12.5 C 15 12.776142 15.223858 13 15.5 13 C 15.776142 13 16 12.776142 16 12.5 L 16 11 L 17.5 11 C 17.776142 11 18 10.776142 18 10.5 C 18 10.223858 17.776142 10 17.5 10 L 15 10 z M 13.710938 10.208984 C 13.667298 10.209841 13.623958 10.216386 13.582031 10.228516 C 12.242316 10.604585 11.265368 11.764438 11.121094 13.148438 C 10.97682 14.532432 11.694387 15.867421 12.927734 16.511719 C 14.161081 17.156016 15.665177 16.981247 16.71875 16.072266 C 17.772323 15.163284 18.165574 13.69922 17.708984 12.384766 C 17.618514 12.123597 17.333318 11.985371 17.072266 12.076172 C 16.811875 12.167442 16.674643 12.452399 16.765625 12.712891 C 17.08869 13.642948 16.811875 14.673246 16.066406 15.316406 C 15.320939 15.959566 14.263293 16.08088 13.390625 15.625 C 12.517957 15.16912 12.013152 14.231216 12.115234 13.251953 C 12.217317 12.27269 12.903633 11.457498 13.851562 11.191406 C 14.118328 11.117396 14.27418 10.840717 14.199219 10.574219 C 14.138119 10.355831 13.93769 10.205912 13.710938 10.208984 z "/>
  </g>
</svg>
