<?xml version="1.0" encoding="UTF-8" standalone="no"?>
<svg xmlns="http://www.w3.org/2000/svg" xmlns:svg="http://www.w3.org/2000/svg" height="24" width="24" version="1.1" id="svg1" viewBox="0 0 24 24">
  <defs id="defs1">
    <style type="text/css" id="current-color-scheme">
            .ColorScheme-Text {
                color:#232629;
            }
        </style>
  </defs>
  <g transform="translate(1,1)">
    <path id="path1" style="fill:currentColor" class="ColorScheme-Text" d="M 10 1 A 1 1 0 0 0 9 2 L 9 3 L 8 3 C 6.3431458 3 5 4.3431458 5 6 L 5 18 C 5 19.656854 6.3431458 21 8 21 L 14 21 C 15.656854 21 17 19.656854 17 18 L 17 6 C 17 4.3431458 15.656854 3 14 3 L 13 3 L 13 2 A 1 1 0 0 0 12 1 L 10 1 z M 8 4 L 14 4 C 15.104569 4 16 4.8954305 16 6 L 16 18 C 16 19.104569 15.104569 20 14 20 L 8 20 C 6.8954305 20 6 19.104569 6 18 L 6 6 C 6 4.8954305 6.8954305 4 8 4 z M 8 5 C 7.4477153 5 7 5.4477153 7 6 L 7 18 C 7 18.552285 7.4477153 19 8 19 L 14 19 C 14.552285 19 15 18.552285 15 18 L 15 6 C 15 5.4477153 14.552285 5 14 5 L 8 5 z M 8 6 L 14 6 L 14 18 L 8 18 L 8 6 z "/>
    <path id="path2" style="fill:currentColor;opacity:0.3" class="ColorScheme-Text" d="m 8,6 v 12 h 6 V 6 Z"/>
  </g>
</svg>
