<?xml version="1.0" encoding="UTF-8" standalone="no"?>
<svg xmlns="http://www.w3.org/2000/svg" xmlns:svg="http://www.w3.org/2000/svg" height="24" width="24" version="1.1" id="svg1" viewBox="0 0 24 24">
  <defs id="defs1">
    <style type="text/css" id="current-color-scheme">
            .ColorScheme-Text {
                color:#232629;
            }
        </style>
  </defs>
  <g transform="translate(1,1)">
    <path id="path1" style="fill:currentColor" class="ColorScheme-Text" d="M 10 1 C 9.4477153 1 9 1.4477153 9 2 L 9 3 L 8 3 C 6.3431458 3 5 4.3431458 5 6 L 5 18 C 5 19.656854 6.3431458 21 8 21 L 14 21 C 15.656854 21 17 19.656854 17 18 L 17 6 C 17 4.3431458 15.656854 3 14 3 L 13 3 L 13 2 C 13 1.4477153 12.552285 1 12 1 L 10 1 z M 8 4 L 14 4 C 15.104569 4 16 4.8954305 16 6 L 16 18 C 16 19.104569 15.104569 20 14 20 L 8 20 C 6.8954305 20 6 19.104569 6 18 L 6 6 C 6 4.8954305 6.8954305 4 8 4 z M 8 9 C 7.4477153 9 7 9.4477153 7 10 L 7 18 C 7 18.552285 7.4477153 19 8 19 L 14 19 C 14.552285 19 15 18.552285 15 18 L 15 10 C 15 9.4477153 14.552285 9 14 9 L 8 9 z M 7.9863281 9.9863281 L 7.9882812 9.9863281 C 7.9902379 9.9866599 7.995424 9.9882812 8 9.9882812 L 14 9.9882812 C 14.00458 9.9882812 14.007808 9.9886126 14.009766 9.9882812 L 14.011719 9.9863281 L 14.013672 9.9863281 L 14.013672 9.9882812 C 14.013339 9.9902379 14.011719 9.995424 14.011719 10 L 14.011719 18 C 14.011719 18.00458 14.011388 18.007808 14.011719 18.009766 L 14.013672 18.011719 L 14.013672 18.013672 L 14.011719 18.013672 C 14.009762 18.013339 14.004575 18.011719 14 18.011719 L 8 18.011719 C 7.9954227 18.011719 7.9921913 18.011387 7.9902344 18.011719 L 7.9882812 18.013672 L 7.9863281 18.013672 L 7.9863281 18.011719 C 7.9866599 18.009762 7.9882812 18.004577 7.9882812 18 L 7.9882812 10 C 7.9882812 9.9954227 7.9886126 9.9921913 7.9882812 9.9902344 L 7.9863281 9.9882812 L 7.9863281 9.9863281 z "/>
    <path id="path2" style="fill:currentColor;opacity:0.3" class="ColorScheme-Text" d="m 8,9.9882813 c -0.018304,0 -0.011719,-0.00659 -0.011719,0.011719 v 8 c 0,0.01831 -0.00659,0.01172 0.011719,0.01172 h 6 c 0.0183,0 0.01172,0.0066 0.01172,-0.01172 v -8 c 0,-0.018304 0.0066,-0.011719 -0.01172,-0.011719 z"/>
  </g>
</svg>
