<?xml version="1.0" encoding="UTF-8" standalone="no"?>
<svg xmlns:inkscape="http://www.inkscape.org/namespaces/inkscape" xmlns:sodipodi="http://sodipodi.sourceforge.net/DTD/sodipodi-0.dtd" xmlns="http://www.w3.org/2000/svg" xmlns:svg="http://www.w3.org/2000/svg" version="1.1" viewBox="0 0 24 24" id="svg1" sodipodi:docname="camera-ready-symbolic.svg" inkscape:version="1.4.3 (0d15f75042, 2025-12-25)" width="24" height="24">
  <defs>
    <style id="current-color-scheme" type="text/css">.ColorScheme-Text { color:#232629; }</style>
  </defs>
  <defs id="defs1">
    </defs>
  <g transform="translate(1,1)">
    <sodipodi:namedview id="namedview1" pagecolor="#505050" bordercolor="#eeeeee" borderopacity="1" inkscape:showpageshadow="0" inkscape:pageopacity="0" inkscape:pagecheckerboard="0" inkscape:deskcolor="#505050" showgrid="true" inkscape:zoom="24.035377" inkscape:cx="2.766755" inkscape:cy="18.181533" inkscape:current-layer="svg1">
      <inkscape:grid id="grid1" units="px" originx="0" originy="0" spacingx="1" spacingy="1" empcolor="#0099e5" empopacity="0.30196078" color="#0099e5" opacity="0.14902" empspacing="2" enabled="true" visible="true"/>
    </sodipodi:namedview>
    <defs id="defs2"/>
    <path class="ColorScheme-Text" id="circle1" style="opacity:1;fill:currentColor;fill-opacity:1;stroke:none;stroke-width:1;stroke-linecap:round;stroke-linejoin:round;paint-order:fill markers stroke" d="M 5 4 C 3.892 4 3 4.89201 3 6 L 3 10 C 3 12.209139 4.790861 14 7 14 L 9 14 L 9 18 L 7 18 C 6.72386 18 6.5 18.22386 6.5 18.5 C 6.5 18.77614 6.72386 19 7 19 L 15 19 C 15.27614 19 15.5 18.77614 15.5 18.5 C 15.5 18.22386 15.27614 18 15 18 L 13 18 L 13 14 L 15 14 C 17.209139 14 19 12.209139 19 10 L 19 6 C 19 4.892 18.10799 4 17 4 L 11 4 L 5 4 z M 5 5 L 17 5 C 17.55399 5 18 5.446 18 6 L 18 10 C 18 11.656854 16.656854 13 15 13 L 7 13 C 5.3431458 13 4 11.656854 4 10 L 4 6 C 4 5.446 4.446 5 5 5 z M 11 6 A 3 3 0 0 0 8 9 A 3 3 0 0 0 11 12 A 3 3 0 0 0 14 9 A 3 3 0 0 0 11 6 z M 11 7 A 1.999999 1.999999 0 0 1 13 9 A 1.999999 1.999999 0 0 1 11 11 A 1.999999 1.999999 0 0 1 9 9 A 1.999999 1.999999 0 0 1 11 7 z M 10 14 L 12 14 L 12 18 L 10 18 L 10 14 z "/>
    <circle style="opacity:1;fill:#ff4e4e;stroke:none;stroke-linecap:round;stroke-linejoin:round;paint-order:fill markers stroke;fill-opacity:1" id="path1" cx="5.5" cy="6.5" r="0.5"/>
    <circle style="opacity:0.4635785;fill:#ff4e4e;fill-opacity:1;stroke:none;stroke-width:1;stroke-linecap:round;stroke-linejoin:round;paint-order:fill markers stroke" id="circle2" cx="10.999999" cy="8.999999" r="1.999999"/>
  </g>
</svg>
