<?xml version="1.0" encoding="UTF-8" standalone="no"?>
<svg xmlns="http://www.w3.org/2000/svg" xmlns:svg="http://www.w3.org/2000/svg" version="1.1" viewBox="0 0 24 24" id="svg1" width="24" height="24">
  <defs id="defs1">
    <style id="current-color-scheme" type="text/css">
        .ColorScheme-Text {
          color:#232629;
        }
      </style>
  </defs>
  <g transform="translate(1,1)">
    <path id="contacts" style="fill:currentColor" class="ColorScheme-Text" d="m 15.583984,1.1933594 c -1.544561,0 -2.808593,1.2620796 -2.808593,2.8066406 0,1.544561 1.264032,2.8066406 2.808593,2.8066406 1.544561,0 2.806641,-1.2620796 2.806641,-2.8066406 0,-1.544561 -1.26208,-2.8066406 -2.806641,-2.8066406 z m 0,1 c 1.004121,0 1.806641,0.8025198 1.806641,1.8066406 0,1.0041208 -0.80252,1.8066406 -1.806641,1.8066406 -1.00412,0 -1.808593,-0.8025198 -1.808593,-1.8066406 0,-1.0041208 0.804473,-1.8066406 1.808593,-1.8066406 z M 7.5,2.2304688 c -1.7994289,0 -3.2695312,1.4701023 -3.2695312,3.2695312 0,1.7994289 1.4701023,3.2695312 3.2695312,3.2695312 1.7994289,0 3.269531,-1.4701023 3.269531,-3.2695312 0,-1.7994289 -1.4701021,-3.2695312 -3.269531,-3.2695312 z m 0,1 C 8.7589893,3.2304688 9.7695311,4.2410107 9.7695312,5.5 9.7695312,6.7589893 8.7589893,7.7695312 7.5,7.7695312 6.2410107,7.7695313 5.2304689,6.7589893 5.2304688,5.5 5.2304688,4.2410107 6.2410107,3.2304687 7.5,3.2304688 Z m 10.542969,3.4121093 c -0.109958,-0.0027 -0.217736,0.030943 -0.306641,0.095703 -0.222275,0.16263 -0.271178,0.4743882 -0.109375,0.6972657 1.357245,1.8516188 2.039063,5.4005501 2.039063,6.7343751 0,0.555897 -0.32742,0.954312 -1.054688,1.294922 C 17.88406,15.805453 16.798438,16 15.583984,16 c -0.323916,0 -0.639996,-0.01362 -0.941406,-0.04102 -0.275076,-0.02485 -0.518196,0.178042 -0.542969,0.453125 -0.02485,0.275076 0.178042,0.518196 0.453125,0.542969 0.333379,0.03031 0.678639,0.04492 1.03125,0.04492 1.316852,0 2.521553,-0.194566 3.453125,-0.630859 0.931572,-0.436294 1.628907,-1.20271 1.628907,-2.199219 0,-1.628949 -0.629963,-5.1380679 -2.232422,-7.3242189 -0.09179,-0.124478 -0.236009,-0.1994743 -0.390625,-0.203125 z m -5.013672,0.1171875 c -0.155648,0.00654 -0.299354,0.085253 -0.388672,0.2128906 -0.326289,0.4676536 -0.606896,0.9925267 -0.849609,1.5429688 -0.110715,0.2524197 0.0037,0.5468297 0.255859,0.6582031 0.252942,0.1120236 0.548775,-0.00263 0.660156,-0.2558593 0.222313,-0.5041778 0.47481,-0.9730333 0.753907,-1.3730469 0.157619,-0.2260737 0.102585,-0.5370612 -0.123047,-0.6953125 -0.09017,-0.063094 -0.198645,-0.094674 -0.308594,-0.089844 z M 10.449219,8.7695312 C 10.339261,8.7668362 10.231483,8.800474 10.142578,8.8652344 9.9190689,9.0279796 9.8700692,9.3412274 10.033203,9.5644531 11.686419,11.819849 12.5,16.073023 12.5,17.703125 c 0,0.711138 -0.429113,1.226231 -1.322266,1.644531 C 10.284582,19.765956 8.9675841,20 7.5,20 6.0349142,20 4.7189144,19.75617 3.8242188,19.332031 2.929523,18.907893 2.4999999,18.38598 2.5,17.703125 2.5000002,16.104374 3.2773841,11.981447 4.8710938,9.6972656 5.0300457,9.4708282 4.9749031,9.1583536 4.7480469,9 4.5211002,8.8414451 4.208516,8.8974826 4.0507812,9.125 2.2356164,11.726582 1.5000002,15.814926 1.5,17.703125 c -1e-7,1.134505 0.8005715,2.011723 1.8964844,2.53125 C 4.4923973,20.753902 5.92752,21 7.5,21 9.0699822,21 10.504106,20.76789 11.601562,20.253906 12.699018,19.739923 13.5,18.854875 13.5,17.703125 c 0,-1.925226 -0.761726,-6.140541 -2.660156,-8.7304688 -0.09179,-0.124478 -0.236009,-0.1994743 -0.390625,-0.203125 z"/>
  </g>
</svg>
