<?xml version="1.0" encoding="UTF-8"?>
<svg xmlns="http://www.w3.org/2000/svg" width="24" height="24" version="1.1" viewBox="0 0 24 24">
  <defs>
    <style id="current-color-scheme" type="text/css">.ColorScheme-Text { color:#232629; }</style>
  </defs>
  <g transform="translate(1,1)">
    <g fill="currentColor" class="ColorScheme-Text">
      <path class="ColorScheme-Text" d="m4 1c-1.6569 0-3 1.3431-3 3v14c0 1.6568 1.3431 3 3 3h9.2129c-0.12457-0.31315-0.19888-0.64981-0.21484-1h-8.998c-1.1046 0-2-0.89543-2-2v-14c0-1.1046 0.89543-2 2-2h11c1.1046 0 2 0.89543 2 2v4.9941h1v-4.9941c0-1.6569-1.3432-3-3-3h-11zm0.4707 15.908c-0.30924 0.01603-0.5625 0.27904-0.5625 0.5918 0 0.32285 0.26895 0.5918 0.5918 0.5918s0.5918-0.26895 0.5918-0.5918-0.26895-0.5918-0.5918-0.5918c-0.01005 0-0.019317-5.17e-4 -0.029297 0z" opacity=".6"/>
      <path class="ColorScheme-Text" d="m9.5 3c-3.5828 0-6.5 2.9172-6.5 6.5 0 3.5211 2.8166 6.3979 6.3145 6.4961l-0.49609-1.041c-2.7108-0.33723-4.8184-2.6548-4.8184-5.4551 0-3.0314 2.4686-5.5 5.5-5.5 2.9362 0 5.3438 2.3167 5.4922 5.2168 0.30948-0.12401 0.64228-0.20081 0.98828-0.21875-0.25716-3.3495-3.0664-5.998-6.4805-5.998zm-0.029297 5.9082c-0.30924 0.016028-0.5625 0.27904-0.5625 0.5918 0 0.32285 0.26895 0.5918 0.5918 0.5918s0.5918-0.26895 0.5918-0.5918-0.26895-0.5918-0.5918-0.5918c-0.01005 0-0.019317-5.17e-4 -0.029297 0zm-1.2051 2.1621c-0.19484-0.006899-0.39183 0.06889-0.50781 0.19531-0.18558 0.20227-0.2206 0.60003-0.013672 0.8418l5.1113 5.9746c0.043682 0.051037 0.090033 0.09893 0.13867 0.14258v-1.5195l-2.5332-2.957 2.5332 1.8145v-1.2324l-4.3984-3.1523c-0.09699-0.06952-0.21318-0.10327-0.33008-0.10742z"/>
      <path class="ColorScheme-Text" d="m4 2c-1.0355 0-1.8878 0.78641-1.9902 1.7949-0.006828 0.067234-0.0097656 0.13604-0.0097656 0.20508v14c0 1.1046 0.89543 2 2 2h8.998c-0.002127-0.046643-0.003906-0.093526-0.003906-0.14062v-7.7188c0-1.7172 1.4293-3.1465 3.1465-3.1465h0.85938v-4.9941c0-1.1046-0.89543-2-2-2h-11zm0.4707 14.908c0.00998-5.17e-4 0.019247 0 0.029297 0 0.32285 0 0.5918 0.26895 0.5918 0.5918s-0.26895 0.5918-0.5918 0.5918-0.5918-0.26895-0.5918-0.5918c0-0.31276 0.25326-0.57577 0.5625-0.5918z" opacity=".1"/>
    </g>
    <g fill="none" stroke="currentColor" stroke-linecap="round" stroke-linejoin="round" class="ColorScheme-Text">
      <rect x="14.5" y="10.5" width="6" height="11" rx="1.6412" ry="1.6412" style="paint-order:fill markers stroke"/>
      <path d="m16.4 19.5h2" style="paint-order:fill markers stroke"/>
    </g>
  </g>
</svg>
