<?xml version="1.0" encoding="UTF-8" standalone="no"?>
<svg
   width="24"
   height="24"
   version="1.1"
   viewBox="0 0 22 22"
   id="svg1"
   sodipodi:docname="drive-removable-media-usb-symbolic.svg"
   inkscape:version="1.4.4 (dcaf3e7d9e, 2026-05-05)"
   xmlns:inkscape="http://www.inkscape.org/namespaces/inkscape"
   xmlns:sodipodi="http://sodipodi.sourceforge.net/DTD/sodipodi-0.dtd"
   xmlns="http://www.w3.org/2000/svg"
   xmlns:svg="http://www.w3.org/2000/svg">
  <sodipodi:namedview
     id="namedview1"
     pagecolor="#505050"
     bordercolor="#eeeeee"
     borderopacity="1"
     inkscape:showpageshadow="0"
     inkscape:pageopacity="0"
     inkscape:pagecheckerboard="0"
     inkscape:deskcolor="#505050"
     showgrid="true"
     inkscape:zoom="31.599847"
     inkscape:cx="5.601293"
     inkscape:cy="18.370342"
     inkscape:current-layer="svg1">
    <inkscape:grid
       id="grid1"
       units="px"
       originx="0"
       originy="0"
       spacingx="1"
       spacingy="1"
       empcolor="#0099e5"
       empopacity="0.30196078"
       color="#0099e5"
       opacity="0.14902"
       empspacing="2"
       enabled="true"
       visible="true" />
  </sodipodi:namedview>
  <defs
     id="defs1">
    <inkscape:path-effect
       effect="fillet_chamfer"
       id="path-effect7"
       is_visible="true"
       lpeversion="1"
       nodesatellites_param="F,0,1,1,0,3.5,0,1 @ F,0,0,1,0,3.5,0,1 @ F,0,1,1,0,3.5,0,1 @ F,0,1,1,0,3.5,0,1"
       radius="0"
       unit="px"
       method="auto"
       mode="F"
       chamfer_steps="1"
       flexible="false"
       use_knot_distance="true"
       apply_no_radius="true"
       apply_with_radius="true"
       only_selected="false"
       hide_knots="false" />
    <inkscape:path-effect
       effect="fillet_chamfer"
       id="path-effect5"
       is_visible="true"
       lpeversion="1"
       nodesatellites_param="F,0,1,1,0,3.5,0,1 @ F,0,0,1,0,3.5,0,1 @ F,0,1,1,0,3.5,0,1 @ F,0,1,1,0,3.5,0,1"
       radius="0"
       unit="px"
       method="auto"
       mode="F"
       chamfer_steps="1"
       flexible="false"
       use_knot_distance="true"
       apply_no_radius="true"
       apply_with_radius="true"
       only_selected="false"
       hide_knots="false" />
    <inkscape:path-effect
       effect="fillet_chamfer"
       id="path-effect3"
       is_visible="true"
       lpeversion="1"
       nodesatellites_param="F,0,1,1,0,3.5,0,1 @ F,0,0,1,0,3.5,0,1 @ F,0,1,1,0,3.5,0,1 @ F,0,1,1,0,3.5,0,1"
       radius="0"
       unit="px"
       method="auto"
       mode="F"
       chamfer_steps="1"
       flexible="false"
       use_knot_distance="true"
       apply_no_radius="true"
       apply_with_radius="true"
       only_selected="false"
       hide_knots="false" />
    <inkscape:path-effect
       effect="fillet_chamfer"
       id="path-effect1"
       is_visible="true"
       lpeversion="1"
       nodesatellites_param="F,0,0,1,0,2.1149397,0,1 @ F,0,0,1,0,3.5,0,1 @ F,0,0,1,0,2.1149397,0,1 @ F,0,0,1,0,2.1149397,0,1"
       radius="0"
       unit="px"
       method="auto"
       mode="F"
       chamfer_steps="1"
       flexible="false"
       use_knot_distance="true"
       apply_no_radius="true"
       apply_with_radius="true"
       only_selected="false"
       hide_knots="false" />
    <style
       id="current-color-scheme"
       type="text/css">.ColorScheme-Text {
          color:#232629;
        }</style>
  </defs>
  <g transform="translate(1,1)">
<path
     id="smartphone"
     class="ColorScheme-Text"
     d="M 15,5 V 2 C 15,1.446 14.554,1 14,1 H 9 C 8.446,1 8,1.446 8,2 v 3 1 h 7 z M 9,2 h 5 V 5 H 9 Z m 1.5,1 C 10.223,3 10,3.223 10,3.5 v 0.4 c 0,0.277 0.223,0.5 0.5,0.5 0.277,0 0.5,-0.223 0.5,-0.5 V 3.5 C 11,3.223 10.777,3 10.5,3 Z m 2,0 C 12.223,3 12,3.223 12,3.5 v 0.4 c 0,0.277 0.223,0.5 0.5,0.5 0.277,0 0.5,-0.223 0.5,-0.5 V 3.5 C 13,3.223 12.777,3 12.5,3 Z m 4,15 C 16.77614,18 17,18.22386 17,18.5 17,18.77614 16.77614,19 16.5,19 16.22386,19 16,18.77614 16,18.5 16,18.22386 16.22386,18 16.5,18 Z"
     fill="currentColor"
     sodipodi:nodetypes="csssscccccccccsssssssssssssssssss" />
  <path
     id="rect1"
     class="ColorScheme-Text"
     style="opacity:1;fill:none;fill-rule:evenodd;stroke:currentColor;stroke-linecap:round;stroke-linejoin:round;paint-order:fill markers stroke"
     d="M 6.1149392,6.4999995 H 14.5 a 3.5,3.5 45 0 1 3.5,3.5 V 19.38506 A 2.1149397,2.1149397 135 0 1 15.88506,21.5 H 6.1149392 A 2.1149397,2.1149397 45 0 1 3.9999995,19.38506 V 8.6149392 A 2.1149397,2.1149397 135 0 1 6.1149392,6.4999995 Z"
     sodipodi:nodetypes="ccccc"
     inkscape:path-effect="#path-effect1"
     inkscape:original-d="M 3.9999995,6.4999995 H 18 V 21.5 H 3.9999995 Z"
     transform="translate(0.5,-1)" />
  <path
     id="path1"
     class="ColorScheme-Text"
     style="opacity:0.694889;fill:none;fill-rule:evenodd;stroke:currentColor;stroke-width:0.7;stroke-linecap:round;stroke-linejoin:round;paint-order:fill markers stroke"
     d="m 11,10.5 h 0 a 3.5,3.5 45 0 1 3.5,3.5 v 0 A 3.5,3.5 135 0 1 11,17.5 h 0 A 3.5,3.5 45 0 1 7.4999995,14 v 0 A 3.5,3.5 135 0 1 11,10.5 Z"
     sodipodi:nodetypes="ccccc"
     inkscape:path-effect="#path-effect3"
     inkscape:original-d="M 7.4999995,10.5 H 14.5 v 7 H 7.4999995 Z"
     transform="matrix(1.4285715,0,0,1.4285715,-4.2142862,-6.5000008)" />
  <path
     id="path5"
     class="ColorScheme-Text"
     style="opacity:1;fill:none;fill-rule:evenodd;stroke:currentColor;stroke-width:7.00001;stroke-linecap:round;stroke-linejoin:round;paint-order:fill markers stroke"
     d="m 11,10.5 h 0 A 3.5,3.5 45 0 1 14.5,14 3.5,3.5 135 0 1 11,17.5 h 0 A 3.5,3.5 45 0 1 7.4999995,14 3.5,3.5 135 0 1 11,10.5 Z"
     sodipodi:nodetypes="ccccc"
     inkscape:path-effect="#path-effect7"
     inkscape:original-d="M 7.4999995,10.5 H 14.5 v 7 H 7.4999995 Z"
     transform="matrix(0.14285704,0,0,0.14285703,9.9285721,11.500001)" />
</g>
</svg>
