<?xml version="1.0" encoding="UTF-8"?>
<svg width="24" height="24" version="1.1" xmlns="http://www.w3.org/2000/svg">
 <defs>
  <style id="current-color-scheme" type="text/css">.ColorScheme-Text { color:#232629; }</style>
 </defs>
 <g transform="translate(1,1)">
 <g class="ColorScheme-Text" fill="none" stroke="currentColor" stroke-width="1" stroke-linecap="round" stroke-linejoin="round">
  <path d="m1 16.5 4.5183 0.01496a0.99068 0.99068 0 0 0 0.99394-0.99667l-0.00616-1.0183a1.0061 1.0061 0 0 0-1.0061-0.99998h-2a1 1 0 0 1-1-1v-1a1 1 0 0 1 1-1h2m4 1a1 1 0 0 1 1-1h2a1.0183 1.0183 0 0 0 1.0182-0.99984l0.0185-1.0186a1.012 1.012 0 0 1 1.0181-0.99363l0.94523 0.00586a0.99382 0.99382 0 0 0 0.99998-0.99379v-1a1 1 0 0 1 1-1h2"/>
  <path d="m12.7 13.5h-2.2c-0.55228 0-1-0.44772-1-1v-1c0-0.55228-0.44772-1-1-1h-1c-0.54932 0-0.99182-0.4506-0.98184-0.99984l0.018497-1.0186c0.010063-0.55412 0.46394-0.99707 1.0181-0.99363l0.94523 0.00586c0.55127 0.0034221 0.99998-0.44252 0.99998-0.99379v-1"/>
  <path d="m6.5061 14.5c-0.0033489-0.55325-0.45279-0.99998-1.0061-0.99998h-2c-0.55228 0-1-0.44772-1-1v-1c0-0.55228-0.44772-1-1-1h-0.5"/>
  <path d="m15.2 10.5h-0.7a0.98201 0.98201 0 0 1-0.98184-0.99984l0.0185-1.0186a1.012 1.012 0 0 1 1.0181-0.99363l0.94523 0.00586a0.99382 0.99382 0 0 0 0.99998-0.99379v-1a1 1 0 0 0-1-1h-5a1 1 0 0 0-1 1"/>
  <path d="m7.5 13.5h1"/>
  <path d="m10.5 7.5 2.1011-0.012065"/>
  <path d="m3.5 7.5h2.0184a0.98157 0.98157 0 0 1 0.98157 0.98157v0.68891"/>
  <path d="m1 13.5h0.5"/>
 </g>
 <path class="ColorScheme-Text" fill="none" stroke="currentColor" stroke-width=".8" stroke-linecap="round" stroke-linejoin="round" d="m17.323 9.9692c0.61227 2.9746-2.6666 3.4447-2.6666 6.1251 0 1.59 1.1339 2.9355 2.6493 3.1802-0.45529-0.19456-0.77073-0.64899-0.77073-1.1975 0-0.27296 0.04099-0.67526 0.23778-0.94028 0.07215 0.23976 0.2769 0.62666 0.54206 0.72779-0.40789-0.87577 0.38136-2.0198 0.68692-2.2591-0.24708 1.2004 1.0759 1.3899 1.0759 2.4716 0 0.53549-0.31898 1.0021-0.77984 1.1993 1.5175-0.23514 2.6584-1.5385 2.6584-3.182 0-0.6764-0.10178-1.6716-0.58944-2.3284-0.17879 0.59411-0.68486 1.5515-1.3419 1.8021 1.0108-2.1701-0.94463-5.0059-1.7018-5.5989z"/>
 <path opacity="0.19434" fill="#ff0000" stroke="#ff1300" stroke-width=".8" stroke-linecap="round" stroke-linejoin="round" d="m17.323 9.9692c0.61227 2.9746-2.6666 3.4447-2.6666 6.1251 0 1.59 1.1339 2.9355 2.6493 3.1802-0.45529-0.19456-0.77073-0.64899-0.77073-1.1975 0-0.27296 0.04099-0.67526 0.23778-0.94028 0.07215 0.23976 0.2769 0.62666 0.54206 0.72779-0.40789-0.87577 0.38136-2.0198 0.68692-2.2591-0.24708 1.2004 1.0759 1.3899 1.0759 2.4716 0 0.53549-0.31898 1.0021-0.77984 1.1993 1.5175-0.23514 2.6584-1.5385 2.6584-3.182 0-0.6764-0.10178-1.6716-0.58944-2.3284-0.17879 0.59411-0.68486 1.5515-1.3419 1.8021 1.0108-2.1701-0.94463-5.0059-1.7018-5.5989z"/>
 </g>
</svg>
