<?xml version="1.0" encoding="UTF-8"?>
<svg width="24" height="24" version="1.1" xmlns="http://www.w3.org/2000/svg">
 <defs>
  <style id="current-color-scheme" type="text/css">.ColorScheme-Text { color:#232629; }</style>
 </defs>
 <g transform="translate(1,1)">
 <g class="ColorScheme-Text" fill="none" stroke="currentColor" stroke-width="1" stroke-linecap="round" stroke-linejoin="round">
  <path d="m1 16.5 4.5183 0.01496a0.99068 0.99068 0 0 0 0.99394-0.99667l-0.00616-1.0183a1.0061 1.0061 0 0 0-1.0061-0.99998h-2a1 1 0 0 1-1-1v-1a1 1 0 0 1 1-1h2m4 1a1 1 0 0 1 1-1h2a1.0183 1.0183 0 0 0 1.0182-0.99984l0.0185-1.0186a1.012 1.012 0 0 1 1.0181-0.99363l0.94523 0.00586a0.99382 0.99382 0 0 0 0.99998-0.99379v-1a1 1 0 0 1 1-1h2"/>
  <path d="m12.7 13.5h-2.2a1 1 0 0 1-1-1v-1a1 1 0 0 0-1-1h-1a0.98201 0.98201 0 0 1-0.98184-0.99984l0.018497-1.0186a1.012 1.012 0 0 1 1.0181-0.99363l0.94523 0.00586a0.99382 0.99382 0 0 0 0.99998-0.99379v-1a1 1 0 0 0-1-1h-5a1 1 0 0 0-1 1"/>
  <path d="m14.5 13.5a1.0165 1.0165 134.08 0 0-1 1.0328v0.9344a1.0354 1.0354 134.93 0 1-1.0328 1.0354l-4.9489 0.0123c-0.55271 0.001879-1.0027-0.44388-1.006-0.99658l-0.006164-1.0183c-0.0033488-0.55325-0.45279-0.99998-1.0061-0.99998h-2c-0.55228 0-1-0.44772-1-1v-1c0-0.55228-0.44772-1-1-1h-0.5m0.05481-3.0183 0.44527 0.00563c0.55018 0.0069545 0.99992-0.43713 0.99992-0.98736v-1c0-0.55228-0.44772-1-1-1h-0.5"/>
  <path d="m15.2 10.5h-0.7a0.98201 0.98201 0 0 1-0.98184-0.99984l0.0185-1.0186a1.012 1.012 0 0 1 1.0181-0.99363l0.94523 0.00586a0.99382 0.99382 0 0 0 0.99998-0.99379v-1a1 1 0 0 0-1-1h-5a1 1 0 0 0-1 1"/>
  <path d="m7.5 13.5h1"/>
  <path d="m17.5 7.5h2"/>
  <path d="m10.5 7.5 2.1011-0.012065"/>
  <path d="m3.5 7.5h2.0184a0.98157 0.98157 0 0 1 0.98157 0.98157v0.68891"/>
  <path d="m1 13.5h0.5"/>
 </g>
 <g class="ColorScheme-Text" transform="translate(0 -2)">
  <path d="m17.998 13.5c-1.0979 0-1.998 0.90012-1.998 1.998v0.50195h-0.14258c-0.46731 0-0.85742 0.39011-0.85742 0.85742v2.9453c0 0.65562 0.54164 1.1973 1.1973 1.1973h2.9863c0.99714 0 1.8164-0.81926 1.8164-1.8164v-2.3262c0-0.46731-0.39011-0.85742-0.85742-0.85742h-0.14258v-0.50195c0-1.0979-0.90012-1.998-1.998-1.998zm0 1h0.0039c0.55753 0 0.99805 0.44055 0.99805 0.99805v0.50195h-2v-0.50195c0-0.55749 0.44055-0.99805 0.99805-0.99805zm-1.998 2.5h4v2.1836c0 0.4567-0.3597 0.81641-0.81641 0.81641h-2.9863c-0.11518 0-0.19727-0.08208-0.19727-0.19727z" fill="currentColor"/>
 </g>
 <g fill="none" stroke="#ff0000" stroke-width="1" stroke-linecap="round" stroke-linejoin="round" transform="translate(-.1)" opacity=".2">
  <path transform="translate(-1.4,-2.5)" d="m2.5 19 4.5183 0.01496a0.99068 0.99068 134.92 0 0 0.99394-0.99667l-0.00616-1.0183a1.0061 1.0061 44.827 0 0-1.0061-0.99998h-2a1 1 45 0 1-1-1v-1a1 1 135 0 1 1-1h2m4 1a1 1 135 0 1 1-1h2a1.0183 1.0183 135.52 0 0 1.0182-0.99984l0.0185-1.0186a1.012 1.012 135.7 0 1 1.0181-0.99363l0.94523 0.00586a0.99382 0.99382 135.18 0 0 0.99998-0.99379v-1a1 1 135 0 1 1-1h2"/>
  <path transform="translate(-1.4,-2.5)" d="m14.2 16h-2.2a1 1 45 0 1-1-1v-1a1 1 45 0 0-1-1h-1a0.98201 0.98201 45.52 0 1-0.98184-0.99984l0.018497-1.0186a1.012 1.012 135.7 0 1 1.0181-0.99363l0.94523 0.00586a0.99382 0.99382 135.18 0 0 0.99998-0.99379v-1a1 1 45 0 0-1-1h-5a1 1 135 0 0-1 1"/>
  <path transform="translate(-1.4,-2.5)" d="m16 16a1.0165 1.0165 134.08 0 0-1 1.0328v0.9344a1.0354 1.0354 134.93 0 1-1.0328 1.0354l-4.9489 0.0123c-0.55271 0.001879-1.0027-0.44388-1.006-0.99658l-0.006164-1.0183c-0.0033488-0.55325-0.45279-0.99998-1.0061-0.99998h-2c-0.55228 0-1-0.44772-1-1v-1c0-0.55228-0.44772-1-1-1h-0.5m0.05481-3.0183 0.44527 0.00563c0.55018 0.0069545 0.99992-0.43713 0.99992-0.98736v-1c0-0.55228-0.44772-1-1-1h-0.5"/>
  <path transform="translate(-1.4,-2.5)" d="m16.7 13h-0.7a0.98201 0.98201 45.52 0 1-0.98184-0.99984l0.0185-1.0186a1.012 1.012 135.7 0 1 1.0181-0.99363l0.94523 0.00586a0.99382 0.99382 135.18 0 0 0.99998-0.99379v-1a1 1 45 0 0-1-1h-5a1 1 135 0 0-1 1"/>
  <path d="m7.6 13.5h1"/>
  <path d="m17.6 7.5h2"/>
  <path d="m10.6 7.5 2.1011-0.012065"/>
  <path transform="translate(-1.4,-2.5)" d="m5 10h2.0184a0.98157 0.98157 45 0 1 0.98157 0.98157v0.68891"/>
  <path d="m1.1 13.5h0.5"/>
 </g>
 </g>
</svg>
