<svg class="ColorScheme-Text" version="1.1" width="24" height="24" viewBox="0 0 24 24" xml:space="preserve" xmlns="http://www.w3.org/2000/svg"><defs>

<style id="current-color-scheme" type="text/css">.ColorScheme-Text { color:#232629; }</style>
</defs><g transform="translate(1,1)"><path d="m8.7431 20.854c.72886.16795 1.488.25676 2.2679.2569 5.5581-.000113 10.064-4.5064 10.063-10.065-.000113-5.5573-4.5052-10.062-10.063-10.063-5.5573.00011261-10.062 4.5052-10.063 10.063-.00010657.59412.051278 1.1762.14994 1.7421m9.9131-2.248c.27967-5e-6.50642.22663.50656.50628 5e-6.27977-.2268.50657-.50656.50656-.27977 5e-6-.50657-.2268-.50656-.50656.000151-.27967.22691-.50629.50656-.50628z" style="fill:none;paint-order:fill markers stroke;stroke-linecap:round;stroke-linejoin:round;stroke:currentColor"/><path d="m11.011 7.4173c-2.0042-.0006194-3.6295 1.6236-3.6303 3.6278-.0006196 2.0052 1.6251 3.6309 3.6303 3.6303 2.0042-.000757 3.6284-1.6261 3.6278-3.6303-.000756-2.0033-1.6245-3.627-3.6278-3.6278zm0 2.9197c.39074.000734.70731.31731.70804.70804.000606.39169-.31636.70974-.70804.71047-.39264.000607-.71108-.31784-.71047-.71047.000736-.39169.31879-.70865.71047-.70804z" style="fill-rule:evenodd;fill:currentColor;opacity:.26839;paint-order:fill markers stroke"/><path d="m3.155 11.046a7.8559 7.8559 0 015.8226-7.5882" style="fill:none;opacity:.55925;paint-order:fill markers stroke;stroke-linecap:round;stroke-linejoin:round;stroke-width:.8;stroke:currentColor"/><path d="m5.3019 11.046a5.709 5.709 0 014.2314-5.5145" style="fill:none;paint-order:fill markers stroke;stroke-linecap:round;stroke-linejoin:round;stroke-width:.8;stroke:currentColor"/><path d="m18.856 11.449a7.8559 7.8559 0 01-5.4086 7.0655" style="fill:none;paint-order:fill markers stroke;stroke-linecap:round;stroke-linejoin:round;stroke-width:.8;stroke:currentColor"/><path d="m16.705 11.465a5.709 5.709 0 01-3.8063 4.9691" style="fill:none;opacity:.55925;paint-order:fill markers stroke;stroke-linecap:round;stroke-linejoin:round;stroke-width:.8;stroke:currentColor"/><path transform="matrix(1.0962 0 0 1.0962 -4.0771 -11.512)" d="m7.4941 21.869c-.25254-.020375-.51023.025879-.73633.14062-.45325.22918-.75748.72453-.75781 1.2324v5.5156c2.19e-5.50424.30553.9958.75781 1.2188.45228.22295 1.0297.16646 1.4297-.14062l3.7422-2.8691c.32513-.2495.52377-.6566.51953-1.0664-.0042-.40981-.2108-.81196-.54102-1.0547a.50005.50005 0 00-.002 0l-3.707-2.7188a.50005.50005 0 000-.002c-.20473-.14946-.45249-.23544-.70503-.25581z" style="fill-opacity:0;paint-order:fill markers stroke;stroke-linecap:round;stroke-linejoin:round;stroke-width:.91226;stroke:#232629"/><path transform="matrix(1.0962 0 0 1.0962 -4.0771 -11.512)" d="m7.4941 21.869c-.25254-.020375-.51023.025879-.73633.14062-.45325.22918-.75748.72453-.75781 1.2324v5.5156c2.19e-5.50424.30553.9958.75781 1.2188.45228.22295 1.0297.16646 1.4297-.14062l3.7422-2.8691c.32513-.2495.52377-.6566.51953-1.0664-.0042-.40981-.2108-.81196-.54102-1.0547a.50005.50005 0 00-.002 0l-3.707-2.7188a.50005.50005 0 000-.002c-.20473-.14946-.45249-.23544-.70503-.25581z" style="fill-opacity:.35436;fill-rule:evenodd;fill:#232629;paint-order:fill markers stroke"/></g></svg>
