<svg class="ColorScheme-Text" width="24" height="24" version="1.1" viewBox="0 0 24 24" xml:space="preserve" xmlns="http://www.w3.org/2000/svg"><defs>

<style id="current-color-scheme" type="text/css">.ColorScheme-Text { color:#232629; }</style>
</defs><g transform="translate(1,1)"><path d="m11.011.98276c-5.5573.00011261-10.062 4.5052-10.063 10.063-.000997 5.5581 4.5044 10.064 10.063 10.065 5.5581-.000113 10.064-4.5064 10.063-10.065-.000113-5.5573-4.5052-10.062-10.063-10.063zm0 9.5571c.27967-5e-6.50642.22663.50656.50628 5e-6.27977-.2268.50657-.50656.50656-.27977 5e-6-.50657-.2268-.50656-.50656.000151-.27967.22691-.50629.50656-.50628z" style="fill:none;paint-order:fill markers stroke;stroke-linecap:round;stroke-linejoin:round;stroke:currentColor"/><path d="m11.011 7.4173c-2.0042-.0006194-3.6295 1.6236-3.6303 3.6278-.0006196 2.0052 1.6251 3.6309 3.6303 3.6303 2.0042-.000757 3.6284-1.6261 3.6278-3.6303-.000756-2.0033-1.6245-3.627-3.6278-3.6278zm0 2.9197c.39074.000734.70731.31731.70804.70804.000606.39169-.31636.70974-.70804.71047-.39264.000607-.71108-.31784-.71047-.71047.000736-.39169.31879-.70865.71047-.70804z" style="fill-rule:evenodd;fill:currentColor;opacity:.26839;paint-order:fill markers stroke"/><path d="m3.155 11.046a7.8559 7.8559 0 015.8226-7.5882" style="fill:none;opacity:.55925;paint-order:fill markers stroke;stroke-linecap:round;stroke-linejoin:round;stroke-width:.8;stroke:currentColor"/><path d="m5.3019 11.046a5.709 5.709 0 014.2314-5.5145" style="fill:none;paint-order:fill markers stroke;stroke-linecap:round;stroke-linejoin:round;stroke-width:.8;stroke:currentColor"/><path d="m18.856 11.449a7.8559 7.8559 0 01-5.4086 7.0655" style="fill:none;paint-order:fill markers stroke;stroke-linecap:round;stroke-linejoin:round;stroke-width:.8;stroke:currentColor"/><path d="m16.705 11.465a5.709 5.709 0 01-3.8063 4.9691" style="fill:none;opacity:.55925;paint-order:fill markers stroke;stroke-linecap:round;stroke-linejoin:round;stroke-width:.8;stroke:currentColor"/></g></svg>
