<svg width="24" height="24" version="1.1" xmlns="http://www.w3.org/2000/svg">
 <defs>
  <style id="current-color-scheme" type="text/css">.ColorScheme-Text { color:#232629; }</style>
 </defs>
  <g transform="translate(1,1)">
   <g class="ColorScheme-Text" transform="translate(-66,66)" fill="currentColor">
    <path d="m84-63c-1.0993 0-2 .90066-2 2v7.3145c.2848-.27558.62359-.49394 1-.63476v-6.6797c0-.56264.43736-1 1-1s1 .43736 1 1v6.6797c.37641.14083.7152.35918 1 .63476v-7.3145c0-1.0993-.90066-2-2-2zm-5 3c-1.0993 0-2 .90066-2 2v9c0 1.0993.90066 2 2 2 .36382 0 .70515-.09964 1-.27148v-1.7285c0 .56264-.43736 1-1 1s-1-.43736-1-1v-9c0-.56264.43736-1 1-1s1 .43736 1 1v7.8574c0-.68779.43769-1.1783 1-1.4902v-6.3672c0-1.0993-.90066-2-2-2zm-5 3c-1.0993 0-2 .90066-2 2v6c0 1.0993.90066 2 2 2s2-.90066 2-2v-6c0-1.0993-.90066-2-2-2zm0 1c.56264 0 1 .43736 1 1v6c0 .56264-.43736 1-1 1s-1-.43736-1-1v-6c0-.56264.43736-1 1-1z" opacity=".2"/>
    <path d="m68-64c-.55228 0-1 .44772-1 1v1c0 .55228.44772 1 1 1h1.4727c.29154 0 .52734.23581.52734.52734-.015396.27614-.2512.48805-.52734.47266h-1.9727c-.2761 0-.5.2239-.5.5s.2239.5.5.5h1.9785c.84034 0 1.5215-.68114 1.5215-1.5215-.011919-.82843-.69306-1.4904-1.5215-1.4785h-1.4785v-1h2c.2761 0 .5-.2239.5-.5s-.2239-.5-.5-.5zm5.2637 0c-.69793 0-1.2637.56574-1.2637 1.2637v2.418c0 .72847.58989 1.3184 1.3184 1.3184h1.3359c.74276 0 1.3457-.60294 1.3457-1.3457v-.30859c0-.74276-.60294-1.3457-1.3457-1.3457h-.45508c-.27606 0-.5.22394-.5.5s.22394.5.5.5h.46484c.18572 0 .33594.15022.33594.33594v.32812c0 .18572-.15022.33594-.33594.33594h-1.3555c-.17045 0-.30859-.13815-.30859-.30859v-2.4277c0-.14554.11813-.26367.26367-.26367h1.748c.26956 0 .48828-.21872.48828-.48828v-.02344c0-.26956-.21872-.48828-.48828-.48828zm10.734 10.5c-1.0979 0-1.998.90012-1.998 1.998v.50195h-.14258c-.46731 0-.85742.39011-.85742.85742v2.9453c0 .65562.54164 1.1973 1.1973 1.1973h2.9863c.99714 0 1.8164-.81926 1.8164-1.8164v-2.3262c0-.46731-.39011-.85742-.85742-.85742h-.14258v-.50195c0-1.0979-.90012-1.998-1.998-1.998zm0 1h.0039c.55753 0 .99805.44055.99805.99805v.50195h-2v-.50195c0-.55749.44055-.99805.99805-.99805zm-1.998 2.5h4v2.1836c0 .4567-.3597.81641-.81641.81641h-2.9863c-.11518 0-.19727-.08208-.19727-.19727z"/>
    <path d="m69-54c-1.0993 0-2 .90066-2 2v3c0 1.0993.90066 2 2 2s2-.90066 2-2v-3c0-1.0993-.90066-2-2-2zm0 1c.56264 0 1 .43736 1 1v3c0 .56264-.43736 1-1 1s-1-.43736-1-1v-3c0-.56264.43736-1 1-1z" opacity=".2"/>
   </g>
  </g>
</svg>
