<?xml version="1.0" encoding="UTF-8"?>
<svg width="24" height="24" version="1.1" xmlns="http://www.w3.org/2000/svg">
  <defs>
    <style id="current-color-scheme" type="text/css">.ColorScheme-Text { color:#232629; }</style>
  </defs>
  <g transform="translate(1,1)">
    <g class="ColorScheme-Text" fill="currentColor" stroke="none">
      <path opacity="0.2" d="m 18,3 c -1.099344,0 -2,0.9006567 -2,2 v 12 c 0,1.099344 0.900656,2 2,2 1.099344,0 2,-0.900656 2,-2 V 5 C 20,3.9006567 19.099344,3 18,3 Z m 0,1 c 0.562645,0 1,0.4373532 1,1 v 12 c 0,0.562645 -0.437355,1 -1,1 -0.562645,0 -1,-0.437355 -1,-1 V 5 c 0,-0.5626468 0.437355,-1 1,-1 z m -5,2 c -1.099344,0 -2,0.9006567 -2,2 v 9 c 0,1.099344 0.900656,2 2,2 1.099344,0 2,-0.900656 2,-2 V 8 C 15,6.9006567 14.099344,6 13,6 Z m 0,1 c 0.562645,0 1,0.4373532 1,1 v 9 c 0,0.562645 -0.437355,1 -1,1 -0.562645,0 -1,-0.437355 -1,-1 V 8 C 12,7.4373532 12.437355,7 13,7 Z M 8,9 C 6.9006556,9 6,9.9006556 6,11 v 6 c 0,1.099345 0.9006556,2 2,2 1.0993444,0 2,-0.900655 2,-2 V 11 C 10,9.9006556 9.0993444,9 8,9 Z m 0,1 c 0.5626474,0 1,0.437354 1,1 v 6 C 9,17.562646 8.5626474,18 8,18 7.4373526,18 7,17.562646 7,17 v -6 c 0,-0.562646 0.4373526,-1 1,-1 z"/>
    </g>
    <g class="ColorScheme-Text" transform="translate(-66,66)" fill="currentColor" stroke="none">
      <path d="M 68 -64 C 67.447716 -64 67 -63.552284 67 -63 L 67 -62 C 67 -61.447716 67.447716 -61 68 -61 L 69.472656 -61 C 69.764194 -61 70 -60.764194 70 -60.472656 C 69.984604 -60.196515 69.748798 -59.984604 69.472656 -60 L 67.5 -60 C 67.223898 -60 67 -59.776102 67 -59.5 C 67 -59.223898 67.223898 -59 67.5 -59 L 69.478516 -59 C 70.318861 -59 71 -59.681139 71 -60.521484 C 70.988081 -61.349911 70.306942 -62.011919 69.478516 -62 L 68 -62 L 68 -63 L 70 -63 C 70.276102 -63 70.5 -63.223898 70.5 -63.5 C 70.5 -63.776102 70.276102 -64 70 -64 L 68 -64 z M 73.263672 -64 C 72.565736 -64 72 -63.434264 72 -62.736328 L 72 -60.318359 C 72 -59.589881 72.589881 -59 73.318359 -59 L 74.654297 -59 C 75.397062 -59 76 -59.602938 76 -60.345703 L 76 -60.654297 C 76 -61.397062 75.397062 -62 74.654297 -62 L 74.199219 -62 C 73.923157 -62 73.699219 -61.776062 73.699219 -61.5 C 73.699219 -61.223938 73.923157 -61 74.199219 -61 L 74.664062 -61 C 74.849781 -61 75 -60.849781 75 -60.664062 L 75 -60.335938 C 75 -60.150219 74.849781 -60 74.664062 -60 L 73.308594 -60 C 73.138147 -60 73 -60.138147 73 -60.308594 L 73 -62.736328 C 73 -62.88187 73.11813 -63 73.263672 -63 L 75.011719 -63 C 75.281284 -63 75.5 -63.218716 75.5 -63.488281 L 75.5 -63.511719 C 75.5 -63.781288 75.281284 -64 75.011719 -64 L 73.263672 -64 z M 69 -54 C 67.870838 -54 67 -52.998828 67 -51.833984 L 67 -49.166016 C 67 -48.001172 67.870838 -47 69 -47 C 70.129162 -47 71 -48.001172 71 -49.166016 L 71 -51.833984 C 71 -52.998828 70.129162 -54 69 -54 z M 69 -53 C 69.53283 -53 70 -52.515802 70 -51.833984 L 70 -49.166016 C 70 -48.484198 69.53283 -48 69 -48 C 68.46717 -48 68 -48.484198 68 -49.166016 L 68 -51.833984 C 68 -52.515802 68.46717 -53 69 -53 z "/>
    </g>
  </g>
</svg>
