<svg width="24" height="24" version="1.1" xml:space="preserve" xmlns="http://www.w3.org/2000/svg" xmlns:xlink="http://www.w3.org/1999/xlink"><defs><style id="current-color-scheme" type="text/css">.ColorScheme-Text {
                color:#232629;
            }</style></defs><g transform="translate(1,1)"><path class="ColorScheme-Text" d="m9.5628 19.451a9.0004 9.0004 0 01-8.0213-9.8155 9.0004 9.0004 0 019.7494-8.1015 9.0004 9.0004 0 018.1812 9.6827" fill="none" stroke="currentColor" stroke-linecap="round" stroke-linejoin="round" style="paint-order:fill markers stroke"/><ellipse id="ellipse3" class="ColorScheme-Text" cx="10.5" cy="10.499" rx="1.6772" ry="1.6772" fill="none" stroke="currentColor" stroke-linecap="round" stroke-linejoin="round" stroke-width=".7" style="paint-order:fill markers stroke"/><path class="ColorScheme-Text" transform="matrix(.72873 0 0 .72873 -.43074 -.43163)" d="m18.949 5.3145-2.1973 5.8809 1.2617.89845 4.8438-3.9941c-1.0669-1.2147-2.4121-2.1725-3.9082-2.7852zm-6.9902 12.604-4.8437 3.9941c1.0669 1.2147 2.4121 2.1725 3.9082 2.7852l2.1973-5.8809-1.2617-.89845z" fill="none" opacity=".39238" stroke="currentColor" stroke-linecap="round" stroke-linejoin="round" stroke-width=".96058" style="paint-order:fill markers stroke"/><g transform="matrix(.7441 0 0 .73965 -1.2666 -.89791)" stroke-width="1.3479"><path class="ColorScheme-Text" d="m16.343 24.904 5.4548 5.3808 8.7953-8.676-2.619-2.5834-6.1756 6.0918-2.8358-2.7974z" fill="none" stroke="currentColor" stroke-linecap="round" stroke-linejoin="round" stroke-width="1.3479" style="paint-order:fill markers stroke"/></g><use id="use7" xlink:href="#ellipse3"/><use xlink:href="#use7"/></g></svg>