<svg width="24" height="24" version="1.1" xml:space="preserve" xmlns="http://www.w3.org/2000/svg" xmlns:xlink="http://www.w3.org/1999/xlink"><defs><style id="current-color-scheme" type="text/css">.ColorScheme-Text {
                color:#232629;
            }</style></defs><g transform="translate(1,1)"><path class="ColorScheme-Text" d="M 9.4587052,20.447855 A 9.9998062,9.9999511 0 0 1 0.54671847,9.5422815 9.9998062,9.9999511 0 0 1 11.378694,0.54105886 9.9998062,9.9999511 0 0 1 20.468336,11.299084" fill="none" stroke="currentColor" stroke-linecap="round" stroke-linejoin="round" style="stroke-width:1;paint-order:fill markers stroke" id="path1"/><circle id="ellipse3" class="ColorScheme-Text" cx="10.5" cy="10.499" fill="none" stroke="currentColor" stroke-linecap="round" stroke-linejoin="round" stroke-width="0.7" style="paint-order:fill markers stroke" r="2.0222347"/><path class="ColorScheme-Text" d="m 13.692152,2.6811127 -1.775447,4.7468083 1.01947,0.72519 3.913854,-3.2238649 C 15.98796,3.9487928 14.90102,3.175698 13.692152,2.681153 Z M 8.0439784,12.854517 4.130205,16.078382 c 0.8620693,0.980453 1.9490086,1.753548 3.1578771,2.248093 L 9.0635294,13.579667 8.0440592,12.854476 Z" fill="none" opacity="0.39238" stroke="currentColor" stroke-linecap="round" stroke-linejoin="round" stroke-width="0.77575" style="paint-order:fill markers stroke" id="path2"/><g transform="matrix(.7441 0 0 .73965 -1.2666 -.89791)" stroke-width="1.3479" id="g3"><path class="ColorScheme-Text" d="m16.343 24.904 5.4548 5.3808 8.7953-8.676-2.619-2.5834-6.1756 6.0918-2.8358-2.7974z" fill="none" stroke="currentColor" stroke-linecap="round" stroke-linejoin="round" stroke-width="1.3479" style="paint-order:fill markers stroke" id="path3"/></g><use id="use7" xlink:href="#ellipse3" style="stroke-width:0.829379"/><use xlink:href="#use7" id="use3" style="stroke-width:0.829379"/><path class="ColorScheme-Text" d="M 9.4587052,20.447855 A 9.9998062,9.9999511 0 0 1 0.54671847,9.5422815 9.9998062,9.9999511 0 0 1 11.378694,0.54105886 9.9998062,9.9999511 0 0 1 20.468336,11.299084" fill="none" stroke="currentColor" stroke-linecap="round" stroke-linejoin="round" style="stroke-width:0.6;paint-order:fill markers stroke;stroke-dasharray:none" id="path4"/></g></svg>