<?xml version="1.0" encoding="UTF-8" standalone="no"?>
<svg xmlns="http://www.w3.org/2000/svg" xmlns:svg="http://www.w3.org/2000/svg" version="1.1" viewBox="0 0 24 24" id="svg1" width="24" height="24">
  <defs id="defs1">
    <style id="current-color-scheme" type="text/css">
        .ColorScheme-Text {
          color:#232629;
        }
      </style>
  </defs>
  <g transform="translate(1,1)">
    <path id="smartphone" style="fill:currentColor;opacity:0.7" class="ColorScheme-Text" d="M 6.6445312,1 C 5.7426074,1 5,1.7426073 5,2.6445312 V 6 H 3 C 1.8920011,6 1,6.8920011 1,8 v 8 c 0,1.107999 0.8920011,2 2,2 H 3.5 5 v 1.355469 C 5,20.257393 5.7426075,21 6.6445312,21 H 14.837891 C 14.465788,20.716526 14.145645,20.377956 13.884766,20 H 6.6445312 C 6.2830476,20 6,19.716953 6,19.355469 V 18 17 16 h 7.367188 c 0.129735,-0.356243 0.304262,-0.692047 0.517578,-1 H 5.5 C 5.2253481,15 5,15.222754 5,15.5 V 17 H 4 V 13.242188 C 4,13.102745 4.1027459,13 4.2421875,13 H 18.976562 c -0.114418,-0.566227 -0.621605,-1 -1.21875,-1 H 4.2421875 C 3.5623058,12 3,12.562306 3,13.242188 V 17 C 2.4460006,17 2,16.553999 2,16 V 8 C 2,7.4460006 2.4460006,7 3,7 h 2.5 11 2.5 c 0.553999,0 1,0.4460006 1,1 v 5 h 0.5 c 0.174542,0 0.343,0.03082 0.5,0.08789 V 8 C 21,6.8920011 20.107999,6 19,6 H 17 V 2.6445312 C 17,1.7426074 16.257393,1 15.355469,1 Z m 0,1 H 15.355469 C 15.716953,2 16,2.2830475 16,2.6445312 V 6 H 6 V 2.6445312 C 6,2.2830477 6.2830475,2 6.6445312,2 Z M 4.5,8.5 c -0.5522847,0 -1,0.4477153 -1,1 0,0.552285 0.4477153,1 1,1 0.5522847,0 1,-0.447715 1,-1 0,-0.5522847 -0.4477153,-1 -1,-1 z"/>
    <path id="path1" style="opacity:0.2;fill:currentColor" class="ColorScheme-Text" d="M 4.2421875,13 C 4.1084308,13 3.9999997,13.108431 4,13.242188 V 17 H 5 V 15.5 C 5,15.223858 5.2238576,15 5.5,15 h 8.384766 c 0.571168,-0.824565 1.420226,-1.449459 2.425781,-1.732422 v -0.002 h 0.002 c 0.123967,-0.03514 0.25101,-0.05413 0.378906,-0.05664 0.002,-6e-6 0.0039,-6e-6 0.0059,0 0.303146,-0.0041 0.58077,0.111049 0.824218,0.269532 C 17.605391,13.302048 17.832904,13.101292 18,13 13.423688,12.997556 8.8250294,13 4.2421875,13 Z M 17,16.5 V 17 h 0.08789 C 17.030817,16.843 17,16.674542 17,16.5 Z"/>
    <path class="ColorScheme-Text" d="m 18,14 v 2.5 c 0,0.276142 0.223858,0.5 0.5,0.5 0.276142,0 0.5,-0.223858 0.5,-0.5 V 15 h 1.5 C 20.776142,15 21,14.776142 21,14.5 21,14.223858 20.776142,14 20.5,14 Z m -1.289062,0.208984 c -0.04364,8.57e-4 -0.08698,0.0074 -0.128907,0.01953 -1.339715,0.376069 -2.316663,1.535924 -2.460937,2.919922 -0.144274,1.383995 0.573293,2.718983 1.80664,3.363281 1.233347,0.644297 2.737443,0.469528 3.791016,-0.439453 1.053573,-0.908982 1.446824,-2.373046 0.990234,-3.6875 -0.09047,-0.261169 -0.375666,-0.399395 -0.636718,-0.308594 -0.260391,0.09127 -0.397623,0.376227 -0.306641,0.636719 0.323065,0.930057 0.04625,1.960355 -0.699219,2.603515 -0.745467,0.64316 -1.803113,0.764474 -2.675781,0.308594 -0.872668,-0.45588 -1.377473,-1.393784 -1.275391,-2.373047 0.102083,-0.979263 0.788399,-1.794455 1.736328,-2.060547 0.266765,-0.07401 0.422618,-0.350689 0.347657,-0.617187 -0.0611,-0.218388 -0.261528,-0.368307 -0.488281,-0.365235 z" style="fill:currentColor" id="path1-7"/>
  </g>
</svg>
