<svg width="24" height="24" version="1.1" xmlns="http://www.w3.org/2000/svg">
 <defs>
  <style id="current-color-scheme" type="text/css">.ColorScheme-Text { color:#232629; }</style>
 </defs>
 <g transform="translate(1,1)">
  <path class="ColorScheme-Text" d="m8.8588 20.18c.35555.59952 1.0091 1.0014 1.7565 1.0014 1.1177-.0094 2.0161-.92346 2.0067-2.0415v-.6577h5.7031c.37257 0 .6746-.30212.6746-.6748 0-.37269-.32996-.70342-.60044-.94731-1.3229-1.1929-2.4539-5.0923-2.9328-9.5137-.24184-2.2329-1.7313-3.8593-3.9668-3.8593v-.98691c0-.55543-.45013-1.0057-1.0054-1.0057-.55228.00298-.99756.45325-.99458 1.0057v.98691c-2.2355 0-3.7527 1.6236-3.9472 3.8619-.3927 4.5171-1.302 8.5324-2.9185 9.5839-.30786.20024-.63419.50189-.63419.87457s.30203.6748.6746.6748h7.654" fill="none" stroke="currentColor" stroke-linecap="round" stroke-linejoin="round" stroke-width=".99999" style="paint-order:fill markers stroke"/>
 </g>
</svg>
