<svg width="24" height="24" version="1.1" xmlns="http://www.w3.org/2000/svg">
 <defs>
  <style id="current-color-scheme" type="text/css">
   .ColorScheme-Text { color:#232629; }
   .question-stroke { fill:none; stroke:currentColor; stroke-linecap:round; stroke-linejoin:round; paint-order:fill markers stroke; }
  </style>
 </defs>
 <g transform="translate(1,1)">
  <path class="ColorScheme-Text question-stroke" d="m12.502 19.143v.70942c0 .91002-.74591 1.6478-1.6661 1.6478h-.66996c-.92013 0-1.6661-.73772-1.6661-1.6478v-1.4033c0-.52408.42957-.94892.95947-.94892h2.0831c.52991 3e-6.96045-.42485.95947-.94892l-.002031-1.0805c-.002538-1.3502.95167-2.6271 2.0178-3.4706 1.342-1.0708 1.9894-2.52 1.9822-4.2253v-.29909c0-3.3113-2.5847-5.9957-5.948-5.9957-3.3633-8e-7-6.052 2.6844-6.052 5.9957v.024367a1.5224 1.5224 45 001.5224 1.5224 1.4983 1.4983 134.08 001.4745-1.5224l-1.06e-5-.024368c.0068734-1.6503 1.3503-2.9825 3.0005-2.9756h.002c1.6438-.0009758 2.9795 1.3209 3.0003 2.96.00026.020431.000276.053513-3.7e-5.073884-.01595 1.04-.70389 1.9294-1.464 2.6412-.01484.0139-.03903.03635-.05393.05025-.90148.84129-1.4818 1.5838-1.4818 2.8611v1.3866"/>
  <path class="ColorScheme-Text question-stroke" opacity=".65" d="m8.5001 15.471c.002501-1.3502-.95167-2.6271-2.0178-3.4706-.27069-.216-.51312-.4474-.72762-.69318-.19773-.22657-.37172-.46537-.52224-.71561"/>
 </g>
</svg>
