<?xml version="1.0" encoding="UTF-8" standalone="no"?>
<svg xmlns="http://www.w3.org/2000/svg" xmlns:svg="http://www.w3.org/2000/svg" version="1.1" viewBox="0 0 24 24" id="svg1" width="24" height="24">
  <defs id="defs1">
    <style id="current-color-scheme" type="text/css">
        .ColorScheme-Text {
          color:#232629;
        }
      </style>
  </defs>
  <g transform="translate(1,1)">
<path id="smartphone" style="fill:currentColor" class="ColorScheme-Text" d="M 5 1 C 3.8920011 1 3 1.8920011 3 3 L 3 19 C 3 20.107999 3.8920011 21 5 21 L 17 21 C 18.107999 21 19 20.107999 19 19 L 19 3 C 19 1.8920011 18.107999 1 17 1 L 5 1 z M 5 2 L 17 2 C 17.553999 2 18 2.4460006 18 3 L 18 19 C 18 19.553999 17.553999 20 17 20 L 5 20 C 4.4460006 20 4 19.553999 4 19 L 4 3 C 4 2.4460006 4.4460006 2 5 2 z M 6.5 18 C 6.2230003 18 6 18.223 6 18.5 C 6 18.777 6.2230003 19 6.5 19 L 15.5 19 C 15.777 19 16 18.777 16 18.5 C 16 18.223 15.777 18 15.5 18 L 6.5 18 z "/>  </g>
</svg>
