<?xml version="1.0" encoding="UTF-8" standalone="no"?>
<svg xmlns="http://www.w3.org/2000/svg" xmlns:svg="http://www.w3.org/2000/svg" version="1.1" viewBox="0 0 24 24" id="svg1" width="24" height="24">
  <defs id="defs1">
    <style id="current-color-scheme" type="text/css">
        .ColorScheme-Text {
          color:#232629;
        }
      </style>
  </defs>
  <g transform="translate(1,1)">
    <path id="contacts" style="fill:currentColor" class="ColorScheme-Text" d="m 11,1.0214844 c -0.342475,0 -0.639621,0.068371 -0.851562,0.085937 C 9.7533562,1.1444504 9.4248,1.4319818 9.3417969,1.8203125 a 0.04518574,0.04518574 0 0 0 0,0.00195 L 9.09375,3.1230469 c -0.1196849,0.0267 -0.2456147,0.039519 -0.3710937,0.074219 L 7.8378906,2.2265625 7.8359375,2.2246094 C 7.5724228,1.9156655 7.1331383,1.816731 6.7636719,1.9863281 6.2537461,2.2259338 5.7795419,2.5169651 5.3144531,2.8417969 4.9744484,3.0688941 4.8278466,3.4928192 4.9570312,3.8808594 L 5.375,5.1289062 C 5.2925523,5.2084081 5.2077904,5.2906994 5.1289062,5.3730469 L 3.8828125,4.9570312 C 3.4947259,4.8279604 3.0689407,4.9742655 2.8417969,5.3144531 2.5168646,5.7795832 2.2278468,6.2538496 1.9882812,6.7636719 1.8183039,7.1339166 1.9157984,7.5745016 2.2265625,7.8378906 L 3.1972656,8.7246094 C 3.1631875,8.849438 3.1498335,8.9747769 3.1230469,9.09375 L 1.8222656,9.3417969 a 0.04518574,0.04518574 0 0 0 -0.00195,0 C 1.4319418,9.424472 1.144306,9.7533486 1.1074219,10.148438 1.0898099,10.360386 1.0214844,10.65756 1.0214844,11 c 0,0.34244 0.068325,0.639614 0.085937,0.851563 0.036845,0.395094 0.3245364,0.72369 0.7128906,0.80664 a 0.04518574,0.04518574 0 0 0 0.00195,0 l 1.3007813,0.248047 c 0.026787,0.118968 0.040144,0.244266 0.074219,0.369141 l -0.9707031,0.886718 c -0.3107643,0.263389 -0.4082585,0.703974 -0.2382813,1.074219 0.2395643,0.509728 0.528582,0.984087 0.8535157,1.449219 0.2271439,0.340093 0.6529228,0.486494 1.0410156,0.357422 l 1.2460937,-0.416016 c 0.078885,0.08235 0.1636464,0.16464 0.2460938,0.244141 l -0.4179688,1.248047 c -0.1291847,0.38804 0.017417,0.811965 0.3574219,1.039062 0.4650882,0.324833 0.9392921,0.615863 1.4492188,0.855469 0.36949,0.169609 0.8087549,0.07028 1.0722656,-0.238281 l 0.8867188,-0.972657 c 0.1255977,0.03464 0.2516722,0.04701 0.3710937,0.07422 l 0.2480469,1.300781 a 0.04518574,0.04518574 0 0 0 0,0.002 c 0.083005,0.388328 0.4115308,0.676049 0.8066411,0.712891 0.211941,0.01757 0.509087,0.08594 0.851562,0.08594 0.342481,0 0.639634,-0.06837 0.851563,-0.08594 0.395082,-0.03702 0.723636,-0.324559 0.80664,-0.712891 a 0.04518574,0.04518574 0 0 0 0,-0.002 l 0.248047,-1.300781 c 0.119687,-0.0267 0.245614,-0.03951 0.371094,-0.07422 l 0.884765,0.970703 c 0.263316,0.310622 0.703903,0.410223 1.074219,0.240235 0.509928,-0.239606 0.984131,-0.530636 1.449219,-0.855469 0.340005,-0.227093 0.486605,-0.651022 0.357422,-1.039062 L 16.625,16.871094 c 0.08245,-0.0795 0.16721,-0.161794 0.246094,-0.244141 l 1.246093,0.416016 c 0.388088,0.12907 0.813873,-0.01724 1.041016,-0.357422 0.324933,-0.465132 0.613951,-0.939491 0.853516,-1.449219 0.169586,-0.369396 0.07275,-0.808678 -0.236328,-1.072265 l -0.972657,-0.888672 c 0.03407,-0.124871 0.04743,-0.250171 0.07422,-0.369141 l 1.300781,-0.248047 a 0.04518574,0.04518574 0 0 0 0.002,0 c 0.3884,-0.08267 0.676046,-0.411548 0.712891,-0.80664 0.01762,-0.211944 0.08594,-0.509123 0.08594,-0.851563 0,-0.34244 -0.06832,-0.639613 -0.08594,-0.851562 -0.03689,-0.395091 -0.324565,-0.7236904 -0.712891,-0.8066411 a 0.04518574,0.04518574 0 0 0 -0.002,0 L 18.876953,9.09375 c -0.02679,-0.1189729 -0.04014,-0.2443112 -0.07422,-0.3691406 l 0.970703,-0.8867188 0.002,-0.00195 C 20.084466,7.5723491 20.181305,7.1330674 20.011719,6.7636719 19.772153,6.2538497 19.483135,5.7795831 19.158203,5.3144531 18.931059,4.9743601 18.50528,4.8279583 18.117187,4.9570312 L 16.871094,5.3730469 C 16.792209,5.2906996 16.707447,5.2084081 16.625,5.1289062 L 17.042969,3.8808594 C 17.172152,3.4928196 17.025556,3.0688942 16.685547,2.8417969 16.220458,2.5169652 15.746254,2.2259338 15.236328,1.9863281 14.865989,1.8163305 14.425421,1.9163253 14.162109,2.2265625 L 13.277344,3.1972656 C 13.151748,3.162621 13.025674,3.1502473 12.90625,3.1230469 L 12.658203,1.8222656 a 0.04518574,0.04518574 0 0 0 0,-0.00195 C 12.5752,1.431985 12.246673,1.1442632 11.851563,1.1074219 11.639621,1.0898559 11.342474,1.0214844 11,1.0214844 Z m 0,0.9667968 c 0.239997,0 0.483468,0.032296 0.724609,0.052734 l 0.363282,1.8085938 a 0.04518574,0.04518574 0 0 0 0.03711,0.035156 c 0.496092,0.077946 0.975156,0.2203377 1.433594,0.3945313 a 0.04518574,0.04518574 0 0 0 0.04883,-0.013672 l 1.25,-1.3886719 c 0.443944,0.2105022 0.865532,0.4513703 1.265625,0.7285157 l -0.582031,1.7499999 a 0.04518574,0.04518574 0 0 0 0.01367,0.048828 c 0.377605,0.3082714 0.732951,0.661563 1.041015,1.0390625 a 0.04518574,0.04518574 0 0 0 0.04883,0.013672 l 1.75,-0.5820312 c 0.276927,0.4001222 0.516138,0.8233106 0.726563,1.2675781 l -1.386719,1.25 a 0.04518574,0.04518574 0 0 0 -0.01367,0.048828 c 0.17429,0.4584038 0.316813,0.937537 0.394531,1.4335937 a 0.04518574,0.04518574 0 0 0 0.03516,0.037109 l 1.80664,0.3632816 c 0.02135,0.241146 0.05469,0.484767 0.05469,0.724609 0,0.239842 -0.03333,0.483391 -0.05469,0.724609 l -1.80664,0.363282 a 0.04518574,0.04518574 0 0 0 -0.03516,0.03711 c -0.07771,0.496056 -0.220239,0.975096 -0.394531,1.433594 a 0.04518574,0.04518574 0 0 0 0.01367,0.04883 l 1.386719,1.25 c -0.210397,0.444122 -0.449616,0.865557 -0.726563,1.265625 l -1.75,-0.582031 a 0.04518574,0.04518574 0 0 0 -0.04883,0.01367 c -0.308112,0.377558 -0.663482,0.732802 -1.041015,1.041015 a 0.04518574,0.04518574 0 0 0 -0.01367,0.04883 l 0.582031,1.75 c -0.400011,0.277007 -0.821609,0.516103 -1.265625,0.726563 l -1.25,-1.386719 a 0.04518574,0.04518574 0 0 0 -0.04883,-0.01367 C 13.10025,17.894861 12.621184,18.0355 12.125,18.113281 a 0.04518574,0.04518574 0 0 0 -0.03711,0.03516 l -0.363282,1.808594 c -0.240946,0.02114 -0.484511,0.05273 -0.724609,0.05273 -0.240098,0 -0.483663,-0.0316 -0.724609,-0.05273 L 9.9121094,18.148437 A 0.04518574,0.04518574 0 0 0 9.875,18.113281 C 9.3787939,18.035317 8.8997404,17.894857 8.4414063,17.720703 a 0.04518574,0.04518574 0 0 0 -0.048828,0.01367 l -1.25,1.386719 C 6.6985628,18.910634 6.2769643,18.671539 5.8769531,18.394531 l 0.5820313,-1.75 a 0.04518574,0.04518574 0 0 0 -0.013672,-0.04883 C 6.0677798,16.28749 5.7124087,15.932246 5.4042969,15.554688 a 0.04518574,0.04518574 0 0 0 -0.048828,-0.01367 L 3.6054688,16.123047 C 3.3285227,15.722979 3.0893038,15.301544 2.8789063,14.857422 l 1.3867187,-1.25 a 0.04518574,0.04518574 0 0 0 0.013672,-0.04883 C 4.1050061,13.100097 3.9624843,12.621057 3.8847656,12.125 a 0.04518574,0.04518574 0 0 0 -0.035156,-0.03711 L 2.0429688,11.724609 C 2.0216128,11.483391 1.9882813,11.239842 1.9882812,11 c 0,-0.239842 0.033332,-0.483463 0.054688,-0.724609 L 3.8496094,9.9121094 A 0.04518574,0.04518574 0 0 0 3.8847656,9.875 C 3.9624844,9.3789432 4.1050077,8.8998103 4.2792969,8.4414063 A 0.04518574,0.04518574 0 0 0 4.265625,8.3925781 l -1.3867187,-1.25 C 3.0893313,6.6983106 3.328542,6.2751221 3.6054688,5.875 l 1.7499999,0.5820312 a 0.04518574,0.04518574 0 0 0 0.048828,-0.013672 C 5.7123608,6.0658601 6.0677078,5.7125684 6.4453125,5.4042969 a 0.04518574,0.04518574 0 0 0 0.013672,-0.048828 L 5.8769531,3.6054688 C 6.2770459,3.3283233 6.6986347,3.0874553 7.1425781,2.8769531 l 1.25,1.3886719 a 0.04518574,0.04518574 0 0 0 0.048828,0.013672 C 8.8998544,4.1050996 9.3789286,3.9625291 9.875,3.8847656 a 0.04518574,0.04518574 0 0 0 0.037109,-0.035156 L 10.275391,2.0410156 C 10.516338,2.0198794 10.759902,1.9882813 11,1.9882812 Z m 0,3.5332032 c -3.0252203,0 -5.4785156,2.4532529 -5.4785156,5.4785156 0,3.025263 2.4532953,5.478516 5.4785156,5.478516 3.02522,0 5.478516,-2.453253 5.478516,-5.478516 C 16.478516,7.9747373 14.02522,5.5214844 11,5.5214844 Z m 0,0.96875 c 2.510262,0 4.509765,1.9994234 4.509766,4.5097656 0,2.510342 -1.999528,4.511719 -4.509766,4.511719 C 8.4897614,15.511719 6.4902344,13.510342 6.4902344,11 6.4902344,8.4896578 8.4897383,6.4902344 11,6.4902344 Z" transform="matrix(1.0017391,0,0,1.0017391,-0.01913043,-0.01913043)"/>
  </g>
</svg>
