<?xml version="1.0" encoding="UTF-8" standalone="no"?>
<svg xmlns="http://www.w3.org/2000/svg" xmlns:svg="http://www.w3.org/2000/svg" version="1.1" viewBox="0 0 24 24" id="svg1" width="24" height="24">
  <defs id="defs1">
    <style id="current-color-scheme" type="text/css">
        .ColorScheme-Text {
          color:#232629;
        }
      </style>
  </defs>
  <g transform="translate(1,1)">
    <path id="contacts" style="fill:currentColor" class="ColorScheme-Text" d="M 11.472656 0.99609375 C 9.5451928 0.99609375 7.9726564 2.5686302 7.9726562 4.4960938 C 7.9726562 6.3614852 9.4450643 7.8972225 11.287109 7.9941406 C 11.34613 7.9986525 11.40635 8 11.466797 8 C 11.495771 8 11.526538 7.9980889 11.558594 7.9960938 C 13.446728 7.9502253 14.972656 6.3948925 14.972656 4.4960938 C 14.972656 2.5686301 13.40012 0.99609375 11.472656 0.99609375 z M 11.472656 1.9960938 C 12.85968 1.9960939 13.972656 3.1090703 13.972656 4.4960938 C 13.972656 5.7964284 12.993663 6.8568057 11.728516 6.984375 C 11.644172 6.9928796 11.559345 6.9980469 11.472656 6.9980469 C 10.085633 6.9980469 8.9726562 5.8831174 8.9726562 4.4960938 C 8.9726562 3.1090703 10.085633 1.9960938 11.472656 1.9960938 z M 14.644531 8.5292969 A 0.49999851 0.49999851 0 0 0 14.34375 8.6425781 A 0.49999851 0.49999851 0 0 0 14.273438 9.3476562 C 15.866158 11.286949 17 14.791767 17 17.878906 C 17 18.172434 16.899778 18.412417 16.669922 18.662109 C 16.440066 18.911801 16.071604 19.153102 15.585938 19.353516 C 14.614603 19.754342 13.193775 19.982422 11.615234 19.982422 C 10.049743 19.982422 8.6333284 19.696916 7.6542969 19.263672 C 7.1647811 19.04705 6.7876994 18.792705 6.5527344 18.546875 C 6.3177693 18.301045 6.2285156 18.08586 6.2285156 17.878906 C 6.2285156 14.838916 7.326744 11.39358 8.8828125 9.4375 A 0.49999851 0.49999851 0 0 0 8.8027344 8.734375 A 0.49999851 0.49999851 0 0 0 8.0996094 8.8144531 C 6.337569 11.029454 5.2285156 14.605957 5.2285156 17.878906 C 5.2285156 18.391177 5.4693817 18.860905 5.8300781 19.238281 C 6.1907745 19.615657 6.6744204 19.923027 7.25 20.177734 C 8.4011593 20.687149 9.9301648 20.982422 11.615234 20.982422 C 13.287255 20.982422 14.807941 20.755552 15.966797 20.277344 C 16.546225 20.03824 17.040444 19.735264 17.40625 19.337891 C 17.772056 18.940517 18 18.431853 18 17.878906 C 18 14.555195 16.858485 10.918698 15.046875 8.7128906 A 0.49999851 0.49999851 0 0 0 14.644531 8.5292969 z "/>
  </g>
</svg>
