<?xml version="1.0" encoding="UTF-8"?>
<svg xmlns="http://www.w3.org/2000/svg" width="24" height="24" version="1.1" xml:space="preserve" viewBox="0 0 24 24">
  <defs>
    <style id="current-color-scheme" type="text/css">.ColorScheme-Text { color:#232629; }</style>
  </defs>
  <g transform="translate(1,1)">

  <path class="ColorScheme-Text" d="m13 4.5c-2.7614 0-5 2.2386-5 5-2.43-0.18834-4.1039 1.0041-4.5 3.459v0.08203c0 0.90446 0.34761 1.7294 0.91602 2.3457 0.34014-0.12968 0.51127-0.15991 0.5957-0.13476 0.12642-1.2568 1.2005-2.252 2.4883-2.252 0.68048 0 1.2973 0.28311 1.75 0.73047l0.66602-2.5547c0.15068-0.67953 0.76633-1.1755 1.4648-1.1758h2.8008c1.0509 0.0011 1.7874 1.1634 1.3652 2.1133l-0.92578 2.2715c0.25153 0.15879 0.50501 0.23787 0.63281 0.50586 0.30055-1.0434 1.1113-1.8906 2.246-1.8906 1.3716 0 2.5 1.1284 2.5 2.5 0 0.1448-0.013 0.28745-0.03711 0.42578 0.31468 0.02873 0.56641 0.05273 0.56641 0.05273 0.59078-0.45725 0.9707-1.1736 0.9707-1.9785 0-1.283-0.96629-2.3412-2.2109-2.4844v-0.01563c0-1.2773-0.81641 0.72431-0.81641-1.3418 0-0.04851-0.0087-0.09634-0.02148-0.14062l0.04882-0.017578c0-3.0376-2.4624-5.5-5.5-5.5z" fill="currentColor" opacity=".3" style="paint-order:fill markers stroke"/>
  <g transform="translate(0,-1)" fill="none" stroke-linecap="round" stroke-linejoin="round">
    <path class="ColorScheme-Text" d="m18.5 11c0-3.0376-2.4624-5.5-5.5-5.5-2.7614 0-5 2.2386-5 5h-1.0417c-1.91 0-3.4583 1.5483-3.4583 3.4583v0.08346c0 0.90446 0.34721 1.7278 0.91562 2.3441m16.114 0.59237c0.59078-0.45726 0.97114-1.1733 0.97114-1.9782 0-1.3807-1.1193-2.5-2.5-2.5-0.55975 0-1.0765 0.18396-1.4932 0.49472" stroke="currentColor" style="paint-order:fill markers stroke"/>
  </g>
  <path class="ColorScheme-Text" d="m11.38 11c-0.23844 8.5e-5 -0.44364 0.1685-0.49023 0.40234l-1.3 5c-0.061541 0.30922 0.17495 0.59753 0.49023 0.59766h0.89062l-0.68086 3.4023c-0.10789 0.55405 0.64148 0.83447 0.92383 0.3457l3.2-5c0.19026-0.33312-0.04997-0.74757-0.43359-0.74805h-0.69141l1.3387-3.2773c0.16516-0.33222-0.07626-0.72228-0.44727-0.72266zm0.41016 1h1.5812l-0.97734 2.5527c-0.25114 0.59751 0.1237 1.2724 0.76367 1.375l-1.382 2.1445 0.17539-0.87695c0.12308-0.61844-0.3499-1.1951-0.98047-1.1953h-0.28125z" fill="currentColor"/>
  <path class="ColorScheme-Text" d="m6.918 13.945c-0.1464-0.0012-0.28471 0.06685-0.37305 0.18359-0.14192 0.18939-0.11834 0.45547 0.054687 0.61719l0.013672 0.01367-0.62891 0.34961c-0.4774 0.27283-0.16616 1.003 0.36133 0.84766l0.019531-0.0059-0.011719 0.72266c-0.00228 0.5504 0.78523 0.64631 0.91406 0.11133l0.00391-0.01953 0.61914 0.37109c0.47525 0.2777 0.95153-0.35679 0.55273-0.73633l-0.013672-0.01367 0.62891-0.34961c0.49134-0.2685 0.17303-1.0171-0.36133-0.84957l-0.017578 0.0059 0.00977-0.71875c0.00467-0.5517-0.785-0.64948-0.91406-0.11328l-0.00391 0.01758-0.61914-0.36914c-0.071023-0.04196-0.15193-0.06421-0.23438-0.06445zm10.102 0c-0.1464-0.0012-0.28471 0.06685-0.37305 0.18359-0.14192 0.18939-0.11834 0.45547 0.05469 0.61719l0.01367 0.01367-0.62891 0.34961c-0.4774 0.27283-0.16616 1.003 0.36133 0.84766l0.01953-0.0059-0.01172 0.72266c-0.0023 0.5504 0.78523 0.64632 0.91406 0.11133l0.0039-0.01953 0.61914 0.37109c0.47525 0.2777 0.95153-0.35679 0.55273-0.73633l-0.01367-0.01367 0.62891-0.34961c0.49135-0.26858 0.17303-1.0171-0.36133-0.84961l-0.01758 0.0059 0.0098-0.71875c0.0047-0.55162-0.78501-0.64948-0.91406-0.11328l-0.0039 0.01758-0.61914-0.36914c-0.07102-0.04196-0.15192-0.06421-0.23438-0.06445zm-9.7383 1.0254 0.10156 0.06055c0.17033 0.07672 0.36299 0.08785 0.54102 0.03125l-0.00195 0.11914c0.017352 0.18619 0.10291 0.3594 0.24023 0.48633l-0.10156 0.05664c-0.15246 0.10816-0.25958 0.26884-0.30078 0.45117l-0.097656-0.06055c-0.16952-0.07687-0.36139-0.08869-0.53906-0.0332l0.0019498-0.11524c-0.01495-0.18869-0.099949-0.36495-0.23828-0.49414l0.097656-0.05273c0.1506-0.10836 0.25622-0.2682 0.29688-0.44922zm10.102 0 0.10156 0.06055c0.17033 0.07672 0.36299 0.08785 0.54102 0.03125l-2e-3 0.11914c0.01735 0.18619 0.10291 0.3594 0.24023 0.48633l-0.10156 0.05664c-0.15246 0.10816-0.25958 0.26884-0.30078 0.45117l-0.09766-0.06055c-0.16952-0.07687-0.36139-0.08869-0.53906-0.0332l2e-3 -0.11523c-0.01495-0.18869-0.09995-0.36495-0.23828-0.49414l0.09766-0.05273c0.1506-0.10836 0.29688-0.26369 0.29687-0.44922zm-14.648 3.1738c-0.082446 2.41e-4 -0.16336 0.022493-0.23438 0.064453l-0.61914 0.36914-0.00391-0.01758c-0.12905-0.5362-0.91876-0.43833-0.91406 0.11328l0.009766 0.71875-0.017578-0.0059c-0.53437-0.16731-0.85267 0.58107-0.36132 0.84965l0.62891 0.34961-0.013672 0.01367c-0.3988 0.37954 0.077488 1.014 0.55273 0.73633l0.61914-0.37109 0.00391 0.01953c0.12883 0.53499 0.91636 0.43907 0.91406-0.11133l-0.011719-0.72266 0.019531 0.0059c0.52749 0.15533 0.83873-0.57482 0.36133-0.84766l-0.62891-0.34961 0.013672-0.01367c0.17303-0.16176 0.1966-0.4278 0.054687-0.61719-0.08834-0.11674-0.22665-0.18479-0.37305-0.18359zm5 0c-0.082446 2.41e-4 -0.16336 0.022493-0.23438 0.064453l-0.61914 0.36914-0.00391-0.01758c-0.12905-0.5362-0.91876-0.43833-0.91406 0.11328l0.00977 0.71875-0.017578-0.0059c-0.53437-0.16731-0.85268 0.58107-0.36133 0.84965l0.62891 0.34961-0.013672 0.01367c-0.3988 0.37954 0.077488 1.014 0.55273 0.73633l0.61914-0.37109 0.00391 0.01953c0.12883 0.53499 0.91636 0.43907 0.91406-0.11133l-0.011719-0.72266 0.019531 0.0059c0.52749 0.15533 0.83873-0.57482 0.36133-0.84766l-0.62891-0.34961 0.013672-0.01367c0.17303-0.16176 0.1966-0.4278 0.054687-0.61719-0.08834-0.11674-0.22665-0.18479-0.37305-0.18359zm7.498 0c-0.08245 2.41e-4 -0.16336 0.02249-0.23438 0.06445l-0.61914 0.36914-0.0039-0.01758c-0.12906-0.5362-0.91876-0.43837-0.91406 0.11328l0.01172 0.71875-0.01758-0.0059c-0.53436-0.16744-0.85268 0.58103-0.36133 0.84961l0.62891 0.34961-0.01367 0.01367c-0.3988 0.37954 0.07749 1.014 0.55274 0.73633l0.61914-0.37109 0.0039 0.01953c0.12883 0.53499 0.91636 0.43907 0.91406-0.11133l-0.01172-0.72266 0.01953 0.0059c0.52749 0.15533 0.83873-0.57482 0.36133-0.84766l-0.62891-0.34961 0.01367-0.01367c0.17303-0.16172 0.1966-0.4278 0.05469-0.61719-0.08834-0.11674-0.22665-0.18479-0.37305-0.18359zm5 0c-0.08245 2.41e-4 -0.16336 0.02249-0.23438 0.06445l-0.61914 0.36914-0.0039-0.01758c-0.12906-0.5362-0.91876-0.43837-0.91406 0.11328l0.01172 0.71875-0.01758-0.0059c-0.53436-0.16744-0.85268 0.58103-0.36133 0.84961l0.62891 0.34961-0.01367 0.01367c-0.3988 0.37954 0.07749 1.014 0.55274 0.73633l0.61914-0.37109 0.0039 0.01953c0.12883 0.53499 0.91636 0.43907 0.91406-0.11133l-0.01172-0.72266 0.01953 0.0059c0.52749 0.15533 0.83873-0.57482 0.36133-0.84766l-0.62891-0.34961 0.01367-0.01367c0.17303-0.16172 0.1966-0.4278 0.05469-0.61719-0.08834-0.11674-0.22665-0.18479-0.37305-0.18359zm-17.861 1.0254c0.04065 0.18102 0.14627 0.34086 0.29688 0.44922l0.097656 0.05273c-0.13833 0.12919-0.22333 0.30546-0.23828 0.49414l0.00195 0.11523c-0.17767-0.05549-0.36955-0.04367-0.53906 0.0332l-0.097653 0.060554c-0.0412-0.18233-0.14832-0.34301-0.30078-0.45117l-0.10156-0.05664c0.13732-0.12693 0.22288-0.30014 0.24023-0.48633l-0.00195-0.11914c0.17803 0.0566 0.37069 0.04547 0.54102-0.03125zm5 0c0.04065 0.18102 0.14627 0.34086 0.29688 0.44922l0.097656 0.05273c-0.13833 0.12919-0.22333 0.30546-0.23828 0.49414l0.00195 0.11523c-0.17767-0.05549-0.36955-0.04367-0.53906 0.0332l-0.097653 0.060554c-0.0412-0.18233-0.14832-0.34301-0.30078-0.45117l-0.10156-0.05664c0.13732-0.12693 0.22288-0.30014 0.24023-0.48633l-0.00195-0.11914c0.17803 0.0566 0.37069 0.04547 0.54102-0.03125zm7.498 0c0.04066 0.181 0.14628 0.34086 0.29688 0.44922l0.09766 0.05273c-0.13833 0.12919-0.22333 0.30546-0.23828 0.49414l0.0039 0.11523c-0.17767-0.05549-0.36955-0.04367-0.53906 0.0332l-0.09766 0.06055c-0.0412-0.18233-0.14832-0.34301-0.30078-0.45117l-0.10156-0.05664c0.13732-0.12693 0.22288-0.30014 0.24024-0.48633l-2e-3 -0.11914c0.17803 0.0566 0.37068 0.04547 0.54102-0.03125zm5 0c0.04066 0.181 0.14628 0.34086 0.29688 0.44922l0.09766 0.05273c-0.13833 0.12919-0.22333 0.30546-0.23828 0.49414l0.0039 0.11523c-0.17767-0.05549-0.36955-0.04367-0.53906 0.0332l-0.09766 0.06055c-0.0412-0.18233-0.14832-0.34301-0.30078-0.45117l-0.10156-0.05664c0.13732-0.12693 0.22288-0.30014 0.24024-0.48633l-2e-3 -0.11914c0.17803 0.0566 0.37068 0.04547 0.54102-0.03125z" fill="currentColor" opacity=".8" style="paint-order:fill markers stroke"/>
  <g transform="translate(.1001 -1.8e-5)">
    <g transform="translate(1.8998,2)"/>
    <path class="ColorScheme-Text" d="m7.2367 0.13477c-0.047689 0.00158-0.095873 0.008071-0.14062 0.021484-0.29246 0.086113-0.45787 0.39123-0.37109 0.68359l0.72266 2.293c0.078902 0.26797 0.35925 0.42126 0.62695 0.3418 0.083697-0.024644 0.15711-0.069222 0.21484-0.12695 0.011547-0.011547 0.020915-0.022605 0.03125-0.035156 0.10335-0.12551 0.14536-0.29951 0.095703-0.4668l-0.63281-2.3184c-0.070205-0.239-0.29567-0.39848-0.54492-0.39258h-0.00195zm-4.2886 2.6191c-0.14581 0.00366-0.28216 0.066045-0.38281 0.17188-0.20973 0.22052-0.20472 0.56964 0.015625 0.7793l1.7754 1.6211c0.20202 0.19214 0.52277 0.18624 0.71484-0.015625 0.19214-0.20202 0.18444-0.52067-0.017578-0.71289l-1.7109-1.6914c-0.10576-0.10064-0.24863-0.15596-0.39453-0.15234zm-2.4043 4.416c-0.24982 0.0056-0.46107 0.17854-0.51953 0.42188-0.072073 0.29628 0.10801 0.59658 0.4043 0.66797l2.3457 0.51758c0.05085 0.012351 0.10254 0.016886 0.15234 0.013672 0.0166-0.00107 0.032557-0.00319 0.048828-0.00586 0.19526-0.032089 0.36309-0.17741 0.41211-0.38086 0.00412-0.016956 0.00743-0.033852 0.00977-0.050781 0.034964-0.25395-0.12831-0.49922-0.38281-0.56055l-2.3262-0.60938c-0.046468-0.011423-0.096702-0.014619-0.14453-0.013671z" fill="currentColor"/>
    <g fill="none" stroke-linecap="round" stroke-linejoin="round">
      <path class="ColorScheme-Text" d="m5.3689 8.4032c0.31021-0.89998 0.88246-1.7104 1.677-2.311 0.19335-0.14617 0.39506-0.27629 0.60332-0.39029" stroke="currentColor" style="paint-order:fill markers stroke"/>
    </g>
  </g>

  </g>
</svg>
