<?xml version="1.0" encoding="UTF-8"?>
<svg xmlns="http://www.w3.org/2000/svg" width="24" height="24" version="1.1" xml:space="preserve" viewBox="0 0 24 24">
  <defs>
    <style id="current-color-scheme" type="text/css">.ColorScheme-Text {
                color:#232629;
            }</style>
    <style type="text/css">
            .ColorScheme-Text {
                color:#232629;
            }
        </style>
    <style type="text/css">.ColorScheme-Text {
                color:#232629;
            }</style>
  </defs>
  <g transform="translate(1,1)">

  <path class="ColorScheme-Text" d="m13 3.5c-2.7614 0-5 2.2386-5 5-2.43-0.18834-4.1039 1.0041-4.5 3.459v0.08203c0 0.90446 0.34761 1.7294 0.91602 2.3457 0.34014-0.12968 0.51127-0.15991 0.5957-0.13476 0.12642-1.2568 1.2005-2.252 2.4883-2.252 0.68048 0 1.2973 0.28311 1.75 0.73047l0.66602-2.5547c0.15068-0.67953 0.76633-1.1755 1.4648-1.1758h2.8008c1.0509 0.0011 1.7874 1.1634 1.3652 2.1133l-0.92578 2.2715c0.25153 0.15879 0.50501 0.23787 0.63281 0.50586 0.30055-1.0434 1.1113-1.8906 2.246-1.8906 1.3716 0 2.5 1.1284 2.5 2.5 0 0.1448-0.013 0.28745-0.03711 0.42578 0.31468 0.02873 0.56641 0.05273 0.56641 0.05273 0.59078-0.45725 0.9707-1.1736 0.9707-1.9785 0-1.283-0.96629-2.3412-2.2109-2.4844v-0.01563c0-1.2773-0.81641 0.72431-0.81641-1.3418 0-0.04851-0.0087-0.09634-0.02148-0.14062l0.04882-0.017578c0-3.0376-2.4624-5.5-5.5-5.5z" fill="currentColor" opacity=".3" style="paint-order:fill markers stroke"/>
  <g transform="translate(0,-2)" fill="none" stroke-linecap="round" stroke-linejoin="round">
    <path class="ColorScheme-Text" d="m18.5 11c0-3.0376-2.4624-5.5-5.5-5.5-2.7614 0-5 2.2386-5 5h-1.0417c-1.91 0-3.4583 1.5483-3.4583 3.4583v0.08346c0 0.90446 0.34721 1.7278 0.91562 2.3441m16.114 0.59237c0.59078-0.45726 0.97114-1.1733 0.97114-1.9782 0-1.3807-1.1193-2.5-2.5-2.5-0.94487 0-1.7673 0.52418-2.1924 1.2976" stroke="currentColor" style="paint-order:fill markers stroke"/>
    <path class="ColorScheme-Text" d="m7.5 15.5c-0.55228 0-1 0.44772-1 1s0.44772 1 1 1 1-0.44772 1-1-0.44772-1-1-1zm8 4c-0.55228 0-1 0.44772-1 1s0.44772 1 1 1 1-0.44772 1-1-0.44772-1-1-1z" stroke="currentColor" style="paint-order:fill markers stroke"/>
    <path class="ColorScheme-Text" d="m7.5 15c-0.82251 0-1.5 0.6775-1.5 1.5s0.67749 1.5 1.5 1.5 1.5-0.6775 1.5-1.5-0.67749-1.5-1.5-1.5zm0 1c0.28205 0 0.5 0.21794 0.5 0.5s-0.21795 0.5-0.5 0.5-0.5-0.21794-0.5-0.5 0.21795-0.5 0.5-0.5zm8 3c-0.8225 0-1.5 0.6775-1.5 1.5s0.6775 1.5 1.5 1.5 1.5-0.6775 1.5-1.5-0.6775-1.5-1.5-1.5zm0 1c0.28206 0 0.5 0.21794 0.5 0.5s-0.21794 0.5-0.5 0.5-0.5-0.21794-0.5-0.5 0.21794-0.5 0.5-0.5z" fill="currentColor" stroke-linecap="butt" stroke-linejoin="miter" style="paint-order:fill markers stroke"/>
    <path class="ColorScheme-Text" d="m17.5 15.5c-0.55228 0-1 0.44772-1 1s0.44772 1 1 1 1-0.44772 1-1-0.44772-1-1-1zm-16 4c-0.55228 0-1 0.44772-1 1s0.44772 1 1 1 1-0.44772 1-1-0.44772-1-1-1z" stroke="currentColor" style="paint-order:fill markers stroke"/>
  </g>
  <path class="ColorScheme-Text" d="m11.38 10c-0.23844 8.5e-5 -0.44364 0.1685-0.49023 0.40234l-1.3 5c-0.061541 0.30922 0.17495 0.59753 0.49023 0.59766h0.89062l-0.68086 3.4023c-0.10789 0.55405 0.64148 0.83447 0.92383 0.3457l3.2-5c0.19026-0.33312-0.04997-0.74757-0.43359-0.74805h-0.69141l1.3387-3.2773c0.16516-0.33222-0.07626-0.72228-0.44727-0.72266zm0.41016 1h1.5812l-0.97734 2.5527c-0.25114 0.59751 0.1237 1.2724 0.76367 1.375l-1.382 2.1445 0.17539-0.87695c0.12308-0.61844-0.3499-1.1951-0.98047-1.1953h-0.28125z" fill="currentColor"/>
  <path class="ColorScheme-Text" d="m19.5 17.5c-0.55228 0-1 0.44772-1 1s0.44772 1 1 1 1-0.44772 1-1-0.44772-1-1-1zm-14 0c-0.55228 0-1 0.44772-1 1s0.44772 1 1 1 1-0.44772 1-1-0.44772-1-1-1z" fill="none" stroke="currentColor" stroke-linecap="round" stroke-linejoin="round" style="paint-order:fill markers stroke"/>
  <g transform="translate(-10.498 -12.019)">
    <path class="ColorScheme-Text" transform="translate(1 .5)" d="m12.887 20h-0.88702c-1.1046 0-2-0.89543-2-2s0.89543-2 2-2h2c0-1.6569 1.3431-3 3-3 0.97499 0.0017 1.8563 0.4012 2.4907 1.0447" fill="none" stroke="currentColor" stroke-linecap="round" stroke-linejoin="round" style="paint-order:fill markers stroke"/>
  </g>

  </g>
</svg>
