<?xml version="1.0" encoding="UTF-8"?>
<svg xmlns="http://www.w3.org/2000/svg" width="24" height="24" version="1.1" xml:space="preserve" viewBox="0 0 24 24">
  <defs><style id="current-color-scheme" type="text/css">.ColorScheme-Text { color:#232629; }</style></defs>
  <g transform="translate(1,1)">

  <path class="ColorScheme-Text" d="m11.896 12.002c-1.0827 0.02088-1.9558 0.9226-1.9375 2.0059 0.0043 0.27616 0.23166 0.49654 0.50781 0.49219 0.27616-0.0043 0.49654-0.23166 0.49219-0.50781-0.0092-0.54447 0.41452-0.98298 0.95898-0.99219 0.0026 2e-5 0.0052 2e-5 0.0078 0 0.55518-0.01847 1.0059 0.4053 1.0293 0.95898-6e-3 0.58035-0.46494 1.041-1.0469 1.041h-9.9492c-0.79636 0-0.68985 1 0 1h9.9492c1.1262 0 2.0508-0.92458 2.0508-2.0508 8.1e-5 -0.0052 8.1e-5 -0.01042 0-0.01563-0.03649-1.0969-0.96604-1.9656-2.0625-1.9316zm-4.4375 4.998c-0.27614 0-0.5 0.22386-0.5 0.5s0.22386 0.5 0.5 0.5h8.9766c0.29181 0 0.51254 0.22726 0.51758 0.51758-0.01158 0.27721-0.22702 0.48902-0.50586 0.48242-0.0039-4.6e-5 -0.0078-4.6e-5 -0.01172 0h-0.01953c-0.25828 0-0.45703-0.19875-0.45703-0.45703v-0.04297c0-0.27614-0.22386-0.5-0.5-0.5s-0.5 0.22386-0.5 0.5v0.04297c0 0.79872 0.65831 1.457 1.457 1.457h0.0078c0.82243 0.01944 1.5157-0.64242 1.5352-1.4648 4.6e-5 -0.0039 4.6e-5 -0.0078 0-0.01172 2.5e-5 -0.83556-0.68788-1.5234-1.5234-1.5234h-8.9766z" fill="currentColor"/>
  <path class="ColorScheme-Text" d="m18.5 11c0-3.0376-2.4624-5.5-5.5-5.5-2.7614 0-5 2.2386-5 5h-1c-1.6394 0-3.0156 1.1272-3.3958 2.6488-0.068086 0.27249-0.10423 0.55763-0.10423 0.85122m1.5689 2.9388c0.54311 0.35492 1.1921 0.56124 1.8894 0.56124h12.042c1.3807 0 2.5-1.1193 2.5-2.5s-1.1193-2.5-2.5-2.5c-0.94487 0-1.7673 0.52418-2.1924 1.2976" fill="none" stroke="currentColor" stroke-linecap="round" stroke-linejoin="round" style="paint-order:fill markers stroke"/>
<g transform="translate(-38.498,-10.019)">
    <path class="ColorScheme-Text" transform="translate(1 .5)" d="m40.887 20h-0.88702c-1.1046 0-2-0.89543-2-2s0.89543-2 2-2h2c0-1.6569 1.3431-3 3-3 0.97499 0.0017 1.8563 0.4012 2.4907 1.0447" fill="none" stroke="currentColor" stroke-linecap="round" stroke-linejoin="round" style="paint-order:fill markers stroke"/>
  </g>
  </g>
</svg>
