<?xml version="1.0" encoding="UTF-8"?>
<svg xmlns="http://www.w3.org/2000/svg" width="24" height="24" version="1.1" xml:space="preserve" viewBox="0 0 24 24">
  <defs><style id="current-color-scheme" type="text/css">.ColorScheme-Text { color:#232629; }</style></defs>
  <g transform="translate(1,1)">
<g fill="none" stroke-linecap="round" stroke-linejoin="round">
  
  <path class="ColorScheme-Text" transform="translate(.8 -3)" d="m16.7 11c0-3.0376-2.4624-5.5-5.5-5.5-2.7614 0-5 2.2386-5 5h-1.2a3.5 3.5 135 0 0-3.5 3.5v6e-5a3.5 3.5 45 0 0 3.5 3.5h3.6656m4.0069 0h4.5278c1.3807 0 2.5-1.1193 2.5-2.5s-1.1193-2.5-2.5-2.5c-0.47062 0-0.91086 0.13004-1.2868 0.35614" opacity=".6" stroke="currentColor" style="paint-order:fill markers stroke"/>
<path class="ColorScheme-Text" transform="translate(1,-3.5)" d="m10.5 19v-0.87882a5.121 5.121 112.5 0 1 1.4999-3.6211l0.43944-0.43944a3.6213 3.6213 112.5 0 0 1.0607-2.5607v-0.02094c0-1.3807-1.1193-2.5-2.5-2.5-1.3807 0-2.5 1.1193-2.5 2.5 0 0.94487 0.52418 1.7673 1.2976 2.1924" stroke="currentColor" style="paint-order:fill markers stroke"/><circle cx="11.554" cy="18.494" r="1.0221" stroke="currentColor" stroke-width=".9" style="paint-order:fill markers stroke" class="ColorScheme-Text"/></g>
  </g>
</svg>
