<?xml version="1.0" encoding="UTF-8"?>
<svg xmlns="http://www.w3.org/2000/svg" width="24" height="24" version="1.1" xml:space="preserve" viewBox="0 0 24 24">
  <defs>
    <style id="current-color-scheme" type="text/css">.ColorScheme-Text {
                color:#232629;
            }</style>
  </defs>
  <g transform="translate(1,1)">

  <path class="ColorScheme-Text" d="m8.385 0.2772c-0.022894 3.86e-4 -0.045734 0.0023-0.068359 0.0059-4.7817 0.77033-8.3029 4.9048-8.3027 9.748 1.292e-4 1.9636 0.57562 3.7951 1.5664 5.334 0.41966 0.543 1.2008 0.10726 0.72848-0.71086-0.82168-1.3459-1.2948-2.9284-1.2949-4.623-9.41e-5 -3.9119 2.6062-7.1749 6.2383-8.3301-1.057 1.6038-1.7696 3.4132-1.7695 5.3555 0 0.65534 0.99998 0.67842 0.99998 1e-5 -5.8e-5 -2.1961 0.81396-4.3148 2.2852-5.9453 0.29241-0.32572 0.054808-0.84336-0.38281-0.83398z" fill="currentColor"/>
  <g transform="translate(2,2)">
    <g stroke-linecap="round" stroke-linejoin="round">
      <path class="ColorScheme-Text" d="m16.5 8c0-3.0376-2.4624-5.5-5.5-5.5-2.7614 0-5 2.2386-5 5h-1.0417c-1.91 0-3.4583 1.5483-3.4583 3.4583v0.08346c0 1.2295 0.6295 2.1573 1.4031 2.7316m16.446-0.91461c0.09791-0.26776 0.15134-0.55695 0.15134-0.85861 0-1.3807-1.1193-2.5-2.5-2.5-0.60395 0-1.1579 0.21416-1.59 0.57068" fill="none" stroke="currentColor" style="paint-order:fill markers stroke"/>
      <path class="ColorScheme-Text" d="m5.9195 12.945c-0.1464-0.0012-0.28471 0.06685-0.37305 0.18359-0.14192 0.18939-0.11834 0.45547 0.054687 0.61719l0.013672 0.01367-0.62891 0.34961c-0.4774 0.27283-0.16616 1.003 0.36133 0.84766l0.019531-0.0059-0.011719 0.72266c-0.00228 0.5504 0.78523 0.64631 0.91406 0.11133l0.00391-0.01953 0.61914 0.37109c0.47525 0.2777 0.95153-0.35679 0.55273-0.73633l-0.013675-0.01363 0.62891-0.34961c0.49135-0.26858 0.17303-1.0171-0.36133-0.84961l-0.017578 0.0059 0.00977-0.71875c0.00467-0.5517-0.78501-0.64952-0.91407-0.11332l-0.00391 0.01758-0.61914-0.36914c-0.071023-0.04196-0.15193-0.06421-0.23438-0.06445zm0.36328 1.0254 0.10156 0.06055c0.17033 0.07672 0.36299 0.08785 0.54102 0.03125l-0.00195 0.11914c0.017352 0.18619 0.10291 0.3594 0.24023 0.48633l-0.10156 0.05664c-0.15246 0.10816-0.25958 0.26884-0.30078 0.45117l-0.097656-0.06055c-0.16952-0.07687-0.36139-0.08869-0.53906-0.0332l0.00195-0.11523c-0.01495-0.18869-0.099948-0.36495-0.23828-0.49414l0.097656-0.05273c0.1506-0.10836 0.25622-0.2682 0.29688-0.44922zm9.4516 2.7746c-0.08245 2.41e-4 -0.16336 0.02249-0.23438 0.06445l-0.61914 0.36914-0.0039-0.01758c-0.12906-0.5362-0.91876-0.43837-0.91406 0.11328l0.0098 0.71875-0.01758-0.0059c-0.53436-0.16744-0.85268 0.58103-0.36133 0.84961l0.62891 0.34961-0.01367 0.01367c-0.3988 0.37954 0.07749 1.014 0.55274 0.73633l0.61914-0.37109 0.0039 0.01953c0.12883 0.53499 0.91636 0.43907 0.91406-0.11133l-0.01172-0.72266 0.01953 0.0059c0.52749 0.15533 0.83873-0.57482 0.36133-0.84766l-0.62891-0.34961 0.01367-0.01367c0.17303-0.16172 0.1966-0.4278 0.05469-0.61719-0.08834-0.11674-0.22665-0.18479-0.37305-0.18359zm-0.36328 1.0254c0.04066 0.181 0.14629 0.34086 0.29688 0.44922l0.09766 0.05273c-0.13833 0.12919-0.22333 0.30546-0.23828 0.49414l2e-3 0.11523c-0.17767-0.05549-0.36955-0.04367-0.53906 0.0332l-0.09766 0.06055c-0.0412-0.18233-0.14832-0.34301-0.30078-0.45117l-0.10156-0.05664c0.13732-0.12693 0.22288-0.30014 0.24024-0.48633l-2e-3 -0.11914c0.17803 0.0566 0.37069 0.04547 0.54102-0.03125z" fill="currentColor" opacity=".4" stroke-width=".6572" style="paint-order:fill markers stroke"/>
      <path class="ColorScheme-Text" d="m16.52 12.945c-0.1464-0.0012-0.28471 0.06685-0.37305 0.18359-0.14192 0.18939-0.11834 0.45547 0.05469 0.61719l0.01367 0.01367-0.62891 0.34961c-0.4774 0.27283-0.16616 1.003 0.36133 0.84766l0.01953-0.0059-0.01172 0.72266c-0.0023 0.5504 0.78523 0.64632 0.91406 0.11133l0.0039-0.01953 0.61914 0.37109c0.47525 0.2777 0.95153-0.35679 0.55273-0.73633l-0.01367-0.01367 0.62891-0.34961c0.49135-0.26858 0.17303-1.0171-0.36133-0.84961l-0.01758 0.0059 0.0098-0.71875c0.0047-0.55162-0.78501-0.64948-0.91406-0.11328l-0.0039 0.01758-0.61914-0.36914c-0.07102-0.04196-0.15193-0.06421-0.23438-0.06445zm0.36328 1.0254 0.10156 0.06055c0.17033 0.07672 0.36299 0.08785 0.54102 0.03125l-2e-3 0.11914c0.01735 0.18619 0.10291 0.3594 0.24023 0.48633l-0.10156 0.05664c-0.15246 0.10816-0.25958 0.26884-0.30078 0.45117l-0.09766-0.06055c-0.16952-0.07687-0.36139-0.08869-0.53906-0.0332l2e-3 -0.11523c-0.01495-0.18869-0.09995-0.36495-0.23828-0.49414l0.09766-0.05273c0.1506-0.10836 0.25622-0.2682 0.29687-0.44922zm-12.148 2.7746c-0.082446 2.41e-4 -0.16336 0.02249-0.23438 0.06445l-0.61914 0.36914-0.00391-0.01758c-0.12905-0.5362-0.91876-0.43833-0.91406 0.11328l0.00977 0.71875-0.017578-0.0059c-0.53437-0.1674-0.85268 0.58107-0.36133 0.84965l0.62891 0.34961-0.013672 0.01367c-0.3988 0.37954 0.077484 1.014 0.55273 0.73633l0.61914-0.37109 0.00391 0.01953c0.12883 0.53499 0.91636 0.43907 0.91406-0.11133l-0.011719-0.72266 0.019531 0.0059c0.52749 0.15533 0.83873-0.57482 0.36133-0.84766l-0.62891-0.34961 0.013672-0.01367c0.17303-0.16176 0.1966-0.42784 0.054684-0.61723-0.08834-0.11674-0.22665-0.18479-0.37305-0.18359zm-0.36328 1.0254c0.04065 0.18102 0.14628 0.34086 0.29688 0.44922l0.097656 0.05273c-0.13833 0.12919-0.22333 0.30546-0.23828 0.49414l0.00195 0.11523c-0.17767-0.05549-0.36955-0.04367-0.53906 0.0332l-0.097656 0.06055c-0.0412-0.18233-0.14832-0.34301-0.30078-0.45117l-0.10156-0.05664c0.13732-0.12693 0.22288-0.30014 0.24023-0.48633l-0.00195-0.11914c0.17803 0.0566 0.37069 0.04547 0.54102-0.03125z" fill="currentColor" opacity=".6" stroke-width=".6572" style="paint-order:fill markers stroke"/>
    </g>
    <g transform="translate(-1)">
      <path class="ColorScheme-Text" d="m11.381 10c-0.23844 8.5e-5 -0.44364 0.1685-0.49023 0.40234l-1.3 5c-0.061541 0.30922 0.17495 0.59753 0.49023 0.59766h0.89062l-0.68086 3.4023c-0.10789 0.55405 0.64148 0.83447 0.92383 0.3457l3.2-5c0.19026-0.33312-0.04997-0.74757-0.43359-0.74805h-0.69141l1.3387-3.2773c0.16516-0.33222-0.07626-0.72228-0.44727-0.72266zm0.41016 1h1.5812l-0.97734 2.5527c-0.25114 0.59751 0.1237 1.2724 0.76367 1.375l-1.382 2.1445 0.17539-0.87695c0.12308-0.61844-0.3499-1.1951-0.98047-1.1953h-0.28125z" fill="currentColor"/>
    </g>
  </g>

  </g>
</svg>
