<?xml version="1.0" encoding="UTF-8"?>
<svg xmlns="http://www.w3.org/2000/svg" width="24" height="24" version="1.1" xml:space="preserve" viewBox="0 0 24 24">
  <defs>
    <style id="current-color-scheme" type="text/css">
            .ColorScheme-Text {
                color:#232629;
            }
        </style>
  </defs>
  <g transform="translate(1,1)">

  <path style="fill:currentColor" class="ColorScheme-Text" d="m8.3711 0.11328c-0.022894 3.857e-4 -0.045734 0.002339-0.068359 0.005859-4.7817 0.77033-8.3029 4.9048-8.3027 9.748 1.173e-4 1.7831 0.47532 3.4904 1.3047 4.9785 0.17265 0.29904 0.5647 0.3392 0.77344 0.1543 0.16807-0.14888 0.19973-0.46494 0.035156-0.75-0.70902-1.3171-1.1132-2.8178-1.1133-4.3828-9.41e-5 -3.9119 2.6062-7.1749 6.2383-8.3301-1.057 1.6038-1.7696 3.4132-1.7695 5.3555-1.604e-4 1.2184 0.22074 2.3865 0.625 3.4648 0.31093 0.64261 1.1706 0.15914 0.92969-0.36523-0.35875-0.96414-0.55483-2.0094-0.55469-3.0996-5.8e-5 -2.1961 0.814-4.3148 2.2852-5.9453 0.29241-0.32572 0.05481-0.84336-0.38281-0.83398zm4.6289 6.8867c-2.8544 0-5.1329 2.2137-5.3984 5h-0.60156c-2.2032 0-4 1.7968-4 4v0.04102c0 2.1803 1.7787 3.959 3.959 3.959h12.041c1.6509 0 3-1.3491 3-3s-1.3491-3-3-3c-1.1295 0-2.1204 0.62782-2.6309 1.5566a0.5 0.5 0 0 0 0.19726 0.67773 0.5 0.5 0 0 0 0.67774-0.19727c0.33967-0.61803 0.99565-1.0371 1.7559-1.0371 1.1105 0 2 0.88951 2 2s-0.88951 2-2 2h-12.041c-1.6396 0-2.959-1.3194-2.959-2.959v-0.041016c0-1.6628 1.3372-3 3-3h1a0.50005 0.50005 0 0 0 0.5-0.5c0-2.4912 2.0088-4.5 4.5-4.5 2.7673 0 5 2.2327 5 5a0.5 0.5 0 0 0 0.5 0.5 0.5 0.5 0 0 0 0.5-0.5c0-3.3078-2.6922-6-6-6z"/>

  </g>
</svg>
