<?xml version="1.0" encoding="UTF-8"?>
<svg xmlns="http://www.w3.org/2000/svg" width="24" height="24" version="1.1" xml:space="preserve" viewBox="0 0 24 24">
     <defs>
    <style id="current-color-scheme" type="text/css">
            .ColorScheme-Text {
                color:#232629;
            }
        </style>
  </defs>
  <g transform="translate(1,1)">

  <path class="ColorScheme-Text" d="m8.502 0.37305c-0.02289 3.8569e-4 -0.045729 0.0023394-0.068359 0.0058594-4.7817 0.77033-8.3029 4.9048-8.3027 9.748 3.5339e-4 5.3704 4.303 9.7495 9.6445 9.8711a0.5 0.5 0 0 0 0.025391 0c0.0018918 3.8e-5 0.0039675-3.7e-5 0.0058594 0 0.064622 0.001276 0.12844 0.001929 0.19336 0.001953v-0.001953h5.7852c2.2032 0.0077 4.0079-1.7831 4.0156-3.9863 0.0039-2.2066-1.7934-4.0098-4-4.0137-1.7499 0-3.1451 1.3187-3.3984 3h-1.6016c-1.3748 0-2.5 1.1252-2.5 2.5a0.5 0.5 0 0 0 0.5 0.5 0.5 0.5 0 0 0 0.5-0.5c0-0.83435 0.66565-1.5 1.5-1.5h2a0.50005 0.50005 0 0 0 0.5-0.5c0-1.386 1.1123-2.499 2.498-2.5 1.6662 0.0029 3.0049 1.3456 3.002 3.0117-0.0069 1.6619-1.3496 2.9941-3.0117 2.9883a0.50005 0.50005 0 0 0-0.001953 0h-5.9727c-0.0046009-9.6e-5 -0.0090727 1.02e-4 -0.013672 0-4.8127-0.10723-8.6696-4.0325-8.6699-8.8711-9.41e-5 -3.9119 2.6062-7.1749 6.2383-8.3301-1.057 1.6038-1.7696 3.4132-1.7695 5.3555-3.637e-4 2.7622 1.1354 5.2631 2.9668 7.0566 0.40452 0.40452 1.1403-0.27185 0.72852-0.68359-1.663-1.612-2.6956-3.8702-2.6953-6.373-5.8e-5 -2.1961 0.81396-4.3148 2.2852-5.9453 0.29241-0.32572 0.054808-0.84336-0.38281-0.83398zm7.332 1.3672c-1.3563 0-2.4416 0.98411-2.6875 2.2539h-1.123c-1.1137 0-2.0273 0.90148-2.0273 2s0.91369 2 2.0273 2h3.7988c1.7448 0.0060124 3.1755-1.3961 3.1816-3.1172 0.003048-1.7237-1.4225-3.1337-3.1699-3.1367zm-0.001953 0.99219c1.2033 0.0021102 2.1662 0.95567 2.1641 2.1426-0.005029 1.1837-0.96974 2.1311-2.1699 2.127a0.50348 0.49664 0 0 0-0.001953 0h-3.8008c-0.5695 0-1.0195-0.44605-1.0195-1.0078 0-0.56176 0.45003-1.0078 1.0195-1.0078h1.5234a0.50348 0.49664 0 0 0 0.50391-0.49609c0-0.97633 0.79167-1.757 1.7812-1.7578z" fill="currentColor"/>

  </g>
</svg>
