<?xml version="1.0" encoding="UTF-8" standalone="no"?>
<svg xmlns="http://www.w3.org/2000/svg" xmlns:svg="http://www.w3.org/2000/svg" version="1.1" viewBox="0 0 24 24" id="svg1" width="24" height="24">
  <defs id="defs1">
    <style id="current-color-scheme" type="text/css">
        .ColorScheme-Text {
          color:#232629;
        }
      </style>
  </defs>
  <g transform="translate(1,1)">
    <path style="fill:currentColor" class="ColorScheme-Text" d="m 14.800781,1.2890625 c -0.490937,0 -0.981836,0.1849612 -1.353515,0.5566406 -0.605992,0.6059916 -0.589057,1.4838751 -0.207032,2.2070313 L 9.8007812,7.4921875 9.1542969,6.8457031 c -0.743359,-0.7433592 -1.9636722,-0.7433591 -2.7070313,0 l -1,1 c -0.1951842,0.1952649 -0.1951842,0.5117664 0,0.7070313 l 1.3691406,1.3710937 c 0.4927178,0.4927179 0.7910147,1.1016459 0.8984376,1.7382809 0.046736,0.271606 0.3044368,0.45418 0.5761718,0.408203 0.2723987,-0.04579 0.4560586,-0.303791 0.4101563,-0.576171 C 8.5604872,10.660382 8.165451,9.8588107 7.5234375,9.2167969 L 6.5078125,8.1992188 7.1542969,7.5527344 c 0.3612101,-0.3612103 0.9317587,-0.3612102 1.2929687,0 l 1,1 c 0.1952649,0.1951843 0.5117665,0.1951843 0.7070314,0 l 4,-4 c 0.195184,-0.1952649 0.195184,-0.5117664 0,-0.7070313 -0.361211,-0.3612104 -0.361211,-0.9317583 0,-1.2929687 0.361211,-0.3612105 0.931758,-0.3612105 1.292969,0 l 4,4 c 0.36121,0.3612103 0.36121,0.9317584 0,1.2929687 -0.361211,0.3612105 -0.931758,0.3612105 -1.292969,0 -0.195265,-0.195184 -0.511766,-0.195184 -0.707031,0 l -4,3.9999999 c -0.195184,0.195265 -0.195184,0.511766 0,0.707031 l 1,1 c 0.36121,0.361211 0.36121,0.931758 0,1.292969 l -0.646485,0.646485 -1.017578,-1.015626 c -1.643342,-1.643342 -4.3234547,-1.643342 -5.9667968,0 l -4.3691406,4.369141 c -0.1952116,0.195253 -0.1952116,0.511778 0,0.707031 0.1952535,0.195212 0.5117778,0.195212 0.7070313,0 l 4.3691406,-4.36914 c 1.2611932,-1.261194 3.2915405,-1.261194 4.5527345,0 l 1.371094,1.36914 c 0.195265,0.195184 0.511766,0.195184 0.707031,0 l 1,-1 c 0.743359,-0.743359 0.743359,-1.963672 0,-2.707031 l -0.646485,-0.646484 3.439454,-3.4394534 c 0.723156,0.3820254 1.601039,0.3989601 2.207031,-0.2070312 0.743359,-0.7433591 0.743359,-1.9636722 0,-2.7070313 l -4,-4 C 15.782617,1.4740237 15.291718,1.2890625 14.800781,1.2890625 Z"/>
  </g>
</svg>
