<svg xmlns="http://www.w3.org/2000/svg" width="64" height="64" version="1.1" viewBox="0 0 64 64">
  <defs>
    <style type="text/css">.ColorScheme-Text { color:#232629; }</style>
  </defs>
  <path class="ColorScheme-Text" d="m 4.345342,20.999993 h 31.309316 c 1.853332,0 3.345349,1.49206 3.345349,3.345401 v 18.310009 c 0,1.853361 -1.492037,3.345402 -3.345349,3.345402 H 4.345342 c -1.853332,0 -3.3453494,-1.492061 -3.3453494,-3.345402 V 24.345394 c 0,-1.853361 1.4920374,-3.345401 3.3453494,-3.345401 z" fill="none" stroke="currentColor" stroke-linecap="round" stroke-linejoin="round" stroke-width="1.99999" paint-order="fill markers stroke"/>
  <path class="ColorScheme-Text" d="m 19.9996,46.000005 v 6.000002 m 5.999909,0 H 13.999691" fill="none" stroke="currentColor" stroke-linecap="round" stroke-linejoin="round" stroke-width="1.99999" paint-order="fill markers stroke"/>
  <g opacity="0.4">
    <path class="ColorScheme-Text" d="m 24.999993,18 v -2.654606 c 0,-1.853361 1.492037,-3.345401 3.345349,-3.345401 H 44 m 12,0 h 3.654658 c 1.853332,0 3.345349,1.49206 3.345349,3.345401 v 18.310009 c 0,1.853361 -1.492037,3.345402 -3.345349,3.345402 H 42" fill="none" stroke="currentColor" stroke-linecap="round" stroke-linejoin="round" opacity="1" stroke-width="1.99999" paint-order="fill markers stroke"/>
    <path class="ColorScheme-Text" d="m 43.9996,37.000005 v 6.000002 m 5.999909,0 h -7.999818" fill="none" stroke="currentColor" stroke-linecap="round" stroke-linejoin="round" opacity="1" stroke-width="1.99999" paint-order="fill markers stroke"/>
  </g>
  <g>
    <path d="m 46,10 8,8" opacity="1" fill="none" fill-opacity="1" fill-rule="evenodd" stroke="currentColor" stroke-width="2" stroke-linecap="round" stroke-linejoin="round" stroke-dasharray="none" stroke-opacity="1" paint-order="fill markers stroke" class="ColorScheme-Text"/>
    <path d="m 54,10 -8,8" opacity="1" fill="none" fill-opacity="1" fill-rule="evenodd" stroke="currentColor" stroke-width="2" stroke-linecap="round" stroke-linejoin="round" stroke-dasharray="none" stroke-opacity="1" paint-order="fill markers stroke" class="ColorScheme-Text"/>
  </g>
  <g stroke="#ff0000" stroke-opacity="1" opacity="0.3">
    <path d="m 46,10 8,8" opacity="1" fill="none" fill-opacity="1" fill-rule="evenodd" stroke="#ff0000" stroke-width="2" stroke-linecap="round" stroke-linejoin="round" stroke-dasharray="none" stroke-opacity="1" paint-order="fill markers stroke"/>
    <path d="m 54,10 -8,8" opacity="1" fill="none" fill-opacity="1" fill-rule="evenodd" stroke="#ff0000" stroke-width="2" stroke-linecap="round" stroke-linejoin="round" stroke-dasharray="none" stroke-opacity="1" paint-order="fill markers stroke"/>
  </g>
</svg>
